M48
;Layer_Color=9474304
;FILE_FORMAT=2:4
INCH,TZ
;TYPE=PLATED
T1F00S00C0.0120
T2F00S00C0.0150
T3F00S00C0.0180
T5F00S00C0.0276
T7F00S00C0.0315
T8F00S00C0.0354
T9F00S00C0.1200
T10F00S00C0.1280
%
T01
X3050Y1800
X6050
X9050
X12050
X15050
X18050
X19550Y4800
X16550
X13550
X10550
X7550
X4550
X22550
X25550
X28550
X31550
X34550
X33050Y1800
X30050
X27050
X24050
X21050
X36050
X39050
X42050
X45050
X48050
X51050
X49550Y4800
X46550
X43550
X40550
X37550
X52550
X55550
X58550
X61550
X60050Y1800
X57050
X54050
Y7800
X57050
X60050
X61550Y10800
X58550
X60050Y13800
X57050
X54050
X55550Y16800
X58550
X60050Y19800
X57050
X51050
X48050
X45050
X42050
X39050
X36050
Y13800
X39050
X42050
X45050
X48050
X51050
X49550Y10800
X46550
X48050Y7800
X51050
X45050
X42050
X39050
X36050
X37550Y10800
X34550
X31550
X33050Y13800
X30050
Y7800
X33050
X27050
X24050
X21050
X22550Y10800
X19550
X18050Y7800
X12050
X9050
X6050
X4550Y10800
X10550
X12050Y13800
X15050
X12700Y17255
X8503
X8053Y17481
X7353Y17191
X7095Y16841
X8253Y16644
X15050Y19800
X18050
X3050Y7800
Y31800
X5993Y33007
X4550Y28800
X7550
X10550
X12050Y25800
X18050
X19550Y28800
Y34800
X16550
X13550
X10550
X19550Y22800
X22550
X25550
X28550
X31550
X34550
X33050Y25800
X30050
X31550Y28800
X34550
Y34800
X31550
X28550
X25550
X22550
Y28800
X24050Y25800
X36050
X39050
X40550Y22800
X43550
X46550
X49550
X51050Y25800
X48050
X45050
X46550Y28800
X49550
Y34800
X46550
X43550
X40550
X37550
X39050Y31800
X36050
X37550Y28800
Y22800
X52550
X58550
X61550
X60050Y25800
X57050
X58550Y28800
X61550
Y34800
X58550
X55550
X52550
T02
X54985Y7850
X53050Y13000
X43945Y13755
X43423Y13555
X40550Y13000
X42450Y8150
X36576Y20400
X35350
X29600Y13610
X29175Y13350
X26298Y13000
X28200Y8250
X15250Y8050
X16150Y13450
X16750Y13400
X13250Y13000
X13253Y17553
X12100Y17900
X11050Y17221
Y16450
X10250Y14600
X8750Y14631
X4450Y15139
X5194Y18994
X6890Y19344
X9847Y19453
X18000Y18700
X19450Y20350
X2891Y25150
X7875Y24577
X8600Y24813
X6750Y30550
X6198Y30900
X6750Y31850
X4300Y30200
X13050Y30550
X15821Y22643
X16408Y22650
X18000Y23550
X18700Y23050
X26100Y30550
X40300
X52647
X55700Y21421
X56150Y21100
T03
X54948Y11220
X55448
X42948Y11168
X42448
X28673
X28173
X23000Y18950
Y19624
Y20300
X22065Y21006
X21330Y21000
Y18420
X22050
X19886Y19994
X17353Y19950
X16723
X16093
X16408Y20430
X17038
X17668
X15148Y20600
X12550Y18650
X12197Y18370
X10350Y18050
X10003Y17844
X10250Y16450
X12469Y15550
X15750Y16000
X15821Y11168
X15258
X7987Y14441
X5266Y16120
X5087Y16595
X3437Y16494
X3700Y30750
X5187Y27341
X7740Y25967
X8287Y29141
X8700Y29150
X16050Y27691
X16550
X4800Y23350
X29175Y27874
X29650Y27550
X43300Y27624
X43800
X55700Y27674
X56251Y27699
T05
X2252Y29245
Y31155
T07
X54441Y5600
X55528
X56615
X57701
X57158Y6718
X58244
X56071
X54985
X53898
X45053
X43966
X42880
X41793
X40707
X41250Y5600
X42337
X43423
X44510
X31273
X30187
X29100
X28013
X27470Y6718
X28557
X29643
X30730
X31816
X18343
X17257
X16170
X15084
X13997
X14540Y5600
X15627
X16713
X17800
X18080Y31532
X16993
X15907
X14820
X13734
X14277Y32650
X15363
X16450
X17537
X27663
X28750
X29837
X30923
X31467Y31532
X30380
X29293
X28207
X27120
X40357
X41443
X42530
X43616
X44703
X44160Y32650
X43073
X41987
X40900
X54091
X55178
X56265
X57351
X57895Y31532
X56808
X55721
X54635
X53548
T08
X59400Y16900
Y17900
Y18900
Y19900
X61950
Y18900
Y17900
Y16900
X2550Y17024
Y18008
Y18992
Y19976
X1606Y27850
X4401
X5687Y22191
Y21191
X6687
X7687
X8687
X9687
Y22191
X8687
X7687
X6687
T09
X1250Y1300
X63300
Y37050
X1250
T10
X60993Y6159
X51150
X47801
X37959
X34565
X24722
X21091
X11249
X10985Y32091
X20828
X24372
X34214
X37609
X47451
X50800
X60642
M30
