G04*
G04 #@! TF.GenerationSoftware,Altium Limited,Altium Designer,18.1.9 (240)*
G04*
G04 Layer_Physical_Order=2*
G04 Layer_Color=16711680*
%FSLAX24Y24*%
%MOIN*%
G70*
G01*
G75*
%ADD13C,0.0100*%
%ADD18C,0.0050*%
%ADD21C,0.0200*%
%ADD71C,0.0150*%
%ADD72C,0.0300*%
%ADD73C,0.0591*%
%ADD74R,0.0591X0.0591*%
%ADD75O,0.0394X0.0827*%
%ADD76O,0.0394X0.0709*%
%ADD77C,0.1969*%
%ADD78C,0.0620*%
%ADD79R,0.0620X0.0620*%
%ADD80C,0.1181*%
%ADD81C,0.0512*%
%ADD82O,0.0866X0.0512*%
%ADD83R,0.0591X0.0591*%
%ADD84C,0.0240*%
%ADD85C,0.0300*%
G36*
X64137Y163D02*
X163D01*
X163Y38250D01*
X64137D01*
X64137Y163D01*
D02*
G37*
%LPC*%
G36*
X7801Y37467D02*
X7734Y37459D01*
X7671Y37433D01*
X7618Y37392D01*
X7576Y37338D01*
X7551Y37275D01*
X7542Y37208D01*
Y36893D01*
X7551Y36826D01*
X7576Y36764D01*
X7618Y36710D01*
X7671Y36669D01*
X7734Y36643D01*
X7801Y36634D01*
X7868Y36643D01*
X7930Y36669D01*
X7984Y36710D01*
X8025Y36764D01*
X8051Y36826D01*
X8060Y36893D01*
Y37208D01*
X8051Y37275D01*
X8025Y37338D01*
X7984Y37392D01*
X7930Y37433D01*
X7868Y37459D01*
X7801Y37467D01*
D02*
G37*
G36*
X4399D02*
X4332Y37459D01*
X4270Y37433D01*
X4216Y37392D01*
X4175Y37338D01*
X4149Y37275D01*
X4140Y37208D01*
Y36893D01*
X4149Y36826D01*
X4175Y36764D01*
X4216Y36710D01*
X4270Y36669D01*
X4332Y36643D01*
X4399Y36634D01*
X4466Y36643D01*
X4529Y36669D01*
X4582Y36710D01*
X4624Y36764D01*
X4649Y36826D01*
X4658Y36893D01*
Y37208D01*
X4649Y37275D01*
X4624Y37338D01*
X4582Y37392D01*
X4529Y37433D01*
X4466Y37459D01*
X4399Y37467D01*
D02*
G37*
G36*
X63300Y37713D02*
X63171Y37700D01*
X63046Y37663D01*
X62932Y37601D01*
X62831Y37519D01*
X62749Y37418D01*
X62687Y37304D01*
X62650Y37179D01*
X62637Y37050D01*
X62650Y36921D01*
X62687Y36796D01*
X62749Y36682D01*
X62831Y36581D01*
X62932Y36499D01*
X63046Y36437D01*
X63171Y36400D01*
X63300Y36387D01*
X63429Y36400D01*
X63554Y36437D01*
X63668Y36499D01*
X63769Y36581D01*
X63851Y36682D01*
X63913Y36796D01*
X63950Y36921D01*
X63963Y37050D01*
X63950Y37179D01*
X63913Y37304D01*
X63851Y37418D01*
X63769Y37519D01*
X63668Y37601D01*
X63554Y37663D01*
X63429Y37700D01*
X63300Y37713D01*
D02*
G37*
G36*
X1250D02*
X1121Y37700D01*
X996Y37663D01*
X882Y37601D01*
X781Y37519D01*
X699Y37418D01*
X637Y37304D01*
X600Y37179D01*
X587Y37050D01*
X600Y36921D01*
X637Y36796D01*
X699Y36682D01*
X781Y36581D01*
X882Y36499D01*
X996Y36437D01*
X1121Y36400D01*
X1250Y36387D01*
X1379Y36400D01*
X1504Y36437D01*
X1618Y36499D01*
X1719Y36581D01*
X1801Y36682D01*
X1863Y36796D01*
X1900Y36921D01*
X1913Y37050D01*
X1900Y37179D01*
X1863Y37304D01*
X1801Y37418D01*
X1719Y37519D01*
X1618Y37601D01*
X1504Y37663D01*
X1379Y37700D01*
X1250Y37713D01*
D02*
G37*
G36*
X7265Y35817D02*
X7210D01*
X7198Y35812D01*
X7186D01*
X7135Y35791D01*
X7126Y35781D01*
X7114Y35777D01*
X7075Y35738D01*
X7070Y35726D01*
X7061Y35717D01*
X7040Y35666D01*
Y35653D01*
X7035Y35641D01*
Y35586D01*
X7040Y35574D01*
Y35562D01*
X7061Y35511D01*
X7070Y35502D01*
X7075Y35490D01*
X7114Y35451D01*
X7126Y35446D01*
X7135Y35437D01*
X7186Y35416D01*
X7198D01*
X7210Y35411D01*
X7265D01*
X7277Y35416D01*
X7290D01*
X7341Y35437D01*
X7350Y35446D01*
X7362Y35451D01*
X7401Y35490D01*
X7405Y35502D01*
X7415Y35511D01*
X7436Y35562D01*
Y35574D01*
X7441Y35586D01*
Y35641D01*
X7436Y35653D01*
Y35666D01*
X7415Y35717D01*
X7405Y35726D01*
X7401Y35738D01*
X7362Y35777D01*
X7350Y35781D01*
X7341Y35791D01*
X7290Y35812D01*
X7277D01*
X7265Y35817D01*
D02*
G37*
G36*
X4990D02*
X4935D01*
X4923Y35812D01*
X4910D01*
X4859Y35791D01*
X4850Y35781D01*
X4838Y35777D01*
X4799Y35738D01*
X4795Y35726D01*
X4785Y35717D01*
X4764Y35666D01*
Y35653D01*
X4759Y35641D01*
Y35586D01*
X4764Y35574D01*
Y35562D01*
X4785Y35511D01*
X4795Y35502D01*
X4799Y35490D01*
X4838Y35451D01*
X4850Y35446D01*
X4859Y35437D01*
X4910Y35416D01*
X4923D01*
X4935Y35411D01*
X4990D01*
X5002Y35416D01*
X5014D01*
X5065Y35437D01*
X5074Y35446D01*
X5086Y35451D01*
X5125Y35490D01*
X5130Y35502D01*
X5139Y35511D01*
X5160Y35562D01*
Y35574D01*
X5165Y35586D01*
Y35641D01*
X5160Y35653D01*
Y35666D01*
X5139Y35717D01*
X5130Y35726D01*
X5125Y35738D01*
X5086Y35777D01*
X5074Y35781D01*
X5065Y35791D01*
X5014Y35812D01*
X5002D01*
X4990Y35817D01*
D02*
G37*
G36*
X7801Y35881D02*
X7734Y35872D01*
X7671Y35846D01*
X7618Y35805D01*
X7576Y35751D01*
X7551Y35689D01*
X7542Y35622D01*
Y35189D01*
X7551Y35122D01*
X7576Y35059D01*
X7618Y35005D01*
X7671Y34964D01*
X7734Y34938D01*
X7801Y34930D01*
X7868Y34938D01*
X7930Y34964D01*
X7984Y35005D01*
X8025Y35059D01*
X8051Y35122D01*
X8060Y35189D01*
Y35622D01*
X8051Y35689D01*
X8025Y35751D01*
X7984Y35805D01*
X7930Y35846D01*
X7868Y35872D01*
X7801Y35881D01*
D02*
G37*
G36*
X4399D02*
X4332Y35872D01*
X4270Y35846D01*
X4216Y35805D01*
X4175Y35751D01*
X4149Y35689D01*
X4140Y35622D01*
Y35189D01*
X4149Y35122D01*
X4175Y35059D01*
X4216Y35005D01*
X4270Y34964D01*
X4332Y34938D01*
X4399Y34930D01*
X4466Y34938D01*
X4529Y34964D01*
X4582Y35005D01*
X4624Y35059D01*
X4649Y35122D01*
X4658Y35189D01*
Y35622D01*
X4649Y35689D01*
X4624Y35751D01*
X4582Y35805D01*
X4529Y35846D01*
X4466Y35872D01*
X4399Y35881D01*
D02*
G37*
G36*
X57351Y33023D02*
X57255Y33010D01*
X57165Y32973D01*
X57087Y32914D01*
X57028Y32837D01*
X56991Y32747D01*
X56978Y32650D01*
X56991Y32553D01*
X57028Y32463D01*
X57087Y32386D01*
X57165Y32327D01*
X57255Y32290D01*
X57351Y32277D01*
X57448Y32290D01*
X57538Y32327D01*
X57615Y32386D01*
X57674Y32463D01*
X57712Y32553D01*
X57724Y32650D01*
X57712Y32747D01*
X57674Y32837D01*
X57615Y32914D01*
X57538Y32973D01*
X57448Y33010D01*
X57351Y33023D01*
D02*
G37*
G36*
X56265D02*
X56168Y33010D01*
X56078Y32973D01*
X56001Y32914D01*
X55941Y32837D01*
X55904Y32747D01*
X55891Y32650D01*
X55904Y32553D01*
X55941Y32463D01*
X56001Y32386D01*
X56078Y32327D01*
X56168Y32290D01*
X56265Y32277D01*
X56361Y32290D01*
X56451Y32327D01*
X56528Y32386D01*
X56588Y32463D01*
X56625Y32553D01*
X56638Y32650D01*
X56625Y32747D01*
X56588Y32837D01*
X56528Y32914D01*
X56451Y32973D01*
X56361Y33010D01*
X56265Y33023D01*
D02*
G37*
G36*
X55178D02*
X55081Y33010D01*
X54991Y32973D01*
X54914Y32914D01*
X54855Y32837D01*
X54818Y32747D01*
X54805Y32650D01*
X54818Y32553D01*
X54855Y32463D01*
X54914Y32386D01*
X54991Y32327D01*
X55081Y32290D01*
X55178Y32277D01*
X55275Y32290D01*
X55365Y32327D01*
X55442Y32386D01*
X55501Y32463D01*
X55538Y32553D01*
X55551Y32650D01*
X55538Y32747D01*
X55501Y32837D01*
X55442Y32914D01*
X55365Y32973D01*
X55275Y33010D01*
X55178Y33023D01*
D02*
G37*
G36*
X54091D02*
X53995Y33010D01*
X53905Y32973D01*
X53828Y32914D01*
X53768Y32837D01*
X53731Y32747D01*
X53718Y32650D01*
X53731Y32553D01*
X53768Y32463D01*
X53828Y32386D01*
X53905Y32327D01*
X53995Y32290D01*
X54091Y32277D01*
X54188Y32290D01*
X54278Y32327D01*
X54355Y32386D01*
X54415Y32463D01*
X54452Y32553D01*
X54465Y32650D01*
X54452Y32747D01*
X54415Y32837D01*
X54355Y32914D01*
X54278Y32973D01*
X54188Y33010D01*
X54091Y33023D01*
D02*
G37*
G36*
X44160D02*
X44063Y33010D01*
X43973Y32973D01*
X43896Y32914D01*
X43837Y32837D01*
X43799Y32747D01*
X43787Y32650D01*
X43799Y32553D01*
X43837Y32463D01*
X43896Y32386D01*
X43973Y32327D01*
X44063Y32290D01*
X44160Y32277D01*
X44256Y32290D01*
X44346Y32327D01*
X44424Y32386D01*
X44483Y32463D01*
X44520Y32553D01*
X44533Y32650D01*
X44520Y32747D01*
X44483Y32837D01*
X44424Y32914D01*
X44346Y32973D01*
X44256Y33010D01*
X44160Y33023D01*
D02*
G37*
G36*
X43073D02*
X42977Y33010D01*
X42887Y32973D01*
X42809Y32914D01*
X42750Y32837D01*
X42713Y32747D01*
X42700Y32650D01*
X42713Y32553D01*
X42750Y32463D01*
X42809Y32386D01*
X42887Y32327D01*
X42977Y32290D01*
X43073Y32277D01*
X43170Y32290D01*
X43260Y32327D01*
X43337Y32386D01*
X43396Y32463D01*
X43434Y32553D01*
X43446Y32650D01*
X43434Y32747D01*
X43396Y32837D01*
X43337Y32914D01*
X43260Y32973D01*
X43170Y33010D01*
X43073Y33023D01*
D02*
G37*
G36*
X41987D02*
X41890Y33010D01*
X41800Y32973D01*
X41723Y32914D01*
X41663Y32837D01*
X41626Y32747D01*
X41613Y32650D01*
X41626Y32553D01*
X41663Y32463D01*
X41723Y32386D01*
X41800Y32327D01*
X41890Y32290D01*
X41987Y32277D01*
X42083Y32290D01*
X42173Y32327D01*
X42250Y32386D01*
X42310Y32463D01*
X42347Y32553D01*
X42360Y32650D01*
X42347Y32747D01*
X42310Y32837D01*
X42250Y32914D01*
X42173Y32973D01*
X42083Y33010D01*
X41987Y33023D01*
D02*
G37*
G36*
X40900D02*
X40803Y33010D01*
X40713Y32973D01*
X40636Y32914D01*
X40577Y32837D01*
X40540Y32747D01*
X40527Y32650D01*
X40540Y32553D01*
X40577Y32463D01*
X40636Y32386D01*
X40713Y32327D01*
X40803Y32290D01*
X40900Y32277D01*
X40997Y32290D01*
X41087Y32327D01*
X41164Y32386D01*
X41223Y32463D01*
X41260Y32553D01*
X41273Y32650D01*
X41260Y32747D01*
X41223Y32837D01*
X41164Y32914D01*
X41087Y32973D01*
X40997Y33010D01*
X40900Y33023D01*
D02*
G37*
G36*
X30923D02*
X30827Y33010D01*
X30737Y32973D01*
X30659Y32914D01*
X30600Y32837D01*
X30563Y32747D01*
X30550Y32650D01*
X30563Y32553D01*
X30600Y32463D01*
X30659Y32386D01*
X30737Y32327D01*
X30827Y32290D01*
X30923Y32277D01*
X31020Y32290D01*
X31110Y32327D01*
X31187Y32386D01*
X31246Y32463D01*
X31284Y32553D01*
X31296Y32650D01*
X31284Y32747D01*
X31246Y32837D01*
X31187Y32914D01*
X31110Y32973D01*
X31020Y33010D01*
X30923Y33023D01*
D02*
G37*
G36*
X29837D02*
X29740Y33010D01*
X29650Y32973D01*
X29573Y32914D01*
X29513Y32837D01*
X29476Y32747D01*
X29463Y32650D01*
X29476Y32553D01*
X29513Y32463D01*
X29573Y32386D01*
X29650Y32327D01*
X29740Y32290D01*
X29837Y32277D01*
X29933Y32290D01*
X30023Y32327D01*
X30100Y32386D01*
X30160Y32463D01*
X30197Y32553D01*
X30210Y32650D01*
X30197Y32747D01*
X30160Y32837D01*
X30100Y32914D01*
X30023Y32973D01*
X29933Y33010D01*
X29837Y33023D01*
D02*
G37*
G36*
X28750D02*
X28653Y33010D01*
X28563Y32973D01*
X28486Y32914D01*
X28427Y32837D01*
X28390Y32747D01*
X28377Y32650D01*
X28390Y32553D01*
X28427Y32463D01*
X28486Y32386D01*
X28563Y32327D01*
X28653Y32290D01*
X28750Y32277D01*
X28847Y32290D01*
X28937Y32327D01*
X29014Y32386D01*
X29073Y32463D01*
X29110Y32553D01*
X29123Y32650D01*
X29110Y32747D01*
X29073Y32837D01*
X29014Y32914D01*
X28937Y32973D01*
X28847Y33010D01*
X28750Y33023D01*
D02*
G37*
G36*
X27663D02*
X27567Y33010D01*
X27477Y32973D01*
X27400Y32914D01*
X27340Y32837D01*
X27303Y32747D01*
X27290Y32650D01*
X27303Y32553D01*
X27340Y32463D01*
X27400Y32386D01*
X27477Y32327D01*
X27567Y32290D01*
X27663Y32277D01*
X27760Y32290D01*
X27850Y32327D01*
X27927Y32386D01*
X27987Y32463D01*
X28024Y32553D01*
X28037Y32650D01*
X28024Y32747D01*
X27987Y32837D01*
X27927Y32914D01*
X27850Y32973D01*
X27760Y33010D01*
X27663Y33023D01*
D02*
G37*
G36*
X17537D02*
X17440Y33010D01*
X17350Y32973D01*
X17273Y32914D01*
X17213Y32837D01*
X17176Y32747D01*
X17163Y32650D01*
X17176Y32553D01*
X17213Y32463D01*
X17273Y32386D01*
X17350Y32327D01*
X17440Y32290D01*
X17537Y32277D01*
X17633Y32290D01*
X17723Y32327D01*
X17800Y32386D01*
X17860Y32463D01*
X17897Y32553D01*
X17910Y32650D01*
X17897Y32747D01*
X17860Y32837D01*
X17800Y32914D01*
X17723Y32973D01*
X17633Y33010D01*
X17537Y33023D01*
D02*
G37*
G36*
X16450D02*
X16353Y33010D01*
X16263Y32973D01*
X16186Y32914D01*
X16127Y32837D01*
X16090Y32747D01*
X16077Y32650D01*
X16090Y32553D01*
X16127Y32463D01*
X16186Y32386D01*
X16263Y32327D01*
X16353Y32290D01*
X16450Y32277D01*
X16547Y32290D01*
X16637Y32327D01*
X16714Y32386D01*
X16773Y32463D01*
X16810Y32553D01*
X16823Y32650D01*
X16810Y32747D01*
X16773Y32837D01*
X16714Y32914D01*
X16637Y32973D01*
X16547Y33010D01*
X16450Y33023D01*
D02*
G37*
G36*
X15363D02*
X15267Y33010D01*
X15177Y32973D01*
X15100Y32914D01*
X15040Y32837D01*
X15003Y32747D01*
X14990Y32650D01*
X15003Y32553D01*
X15040Y32463D01*
X15100Y32386D01*
X15177Y32327D01*
X15267Y32290D01*
X15363Y32277D01*
X15460Y32290D01*
X15550Y32327D01*
X15627Y32386D01*
X15687Y32463D01*
X15724Y32553D01*
X15737Y32650D01*
X15724Y32747D01*
X15687Y32837D01*
X15627Y32914D01*
X15550Y32973D01*
X15460Y33010D01*
X15363Y33023D01*
D02*
G37*
G36*
X14277D02*
X14180Y33010D01*
X14090Y32973D01*
X14013Y32914D01*
X13954Y32837D01*
X13916Y32747D01*
X13904Y32650D01*
X13916Y32553D01*
X13954Y32463D01*
X14013Y32386D01*
X14090Y32327D01*
X14180Y32290D01*
X14277Y32277D01*
X14373Y32290D01*
X14463Y32327D01*
X14541Y32386D01*
X14600Y32463D01*
X14637Y32553D01*
X14650Y32650D01*
X14637Y32747D01*
X14600Y32837D01*
X14541Y32914D01*
X14463Y32973D01*
X14373Y33010D01*
X14277Y33023D01*
D02*
G37*
G36*
X1378Y31936D02*
X1024D01*
X941Y31925D01*
X865Y31893D01*
X799Y31843D01*
X748Y31777D01*
X716Y31700D01*
X705Y31617D01*
X716Y31535D01*
X748Y31458D01*
X799Y31392D01*
X865Y31341D01*
X941Y31310D01*
X1024Y31299D01*
X1378D01*
X1461Y31310D01*
X1538Y31341D01*
X1604Y31392D01*
X1654Y31458D01*
X1686Y31535D01*
X1697Y31617D01*
X1686Y31700D01*
X1654Y31777D01*
X1604Y31843D01*
X1538Y31893D01*
X1461Y31925D01*
X1378Y31936D01*
D02*
G37*
G36*
X58264Y31902D02*
X57524D01*
Y31162D01*
X58264D01*
Y31902D01*
D02*
G37*
G36*
X45073D02*
X44333D01*
Y31162D01*
X45073D01*
Y31902D01*
D02*
G37*
G36*
X31837D02*
X31096D01*
Y31162D01*
X31837D01*
Y31902D01*
D02*
G37*
G36*
X18450D02*
X17710D01*
Y31162D01*
X18450D01*
Y31902D01*
D02*
G37*
G36*
X56808Y31905D02*
X56711Y31892D01*
X56621Y31855D01*
X56544Y31796D01*
X56485Y31718D01*
X56447Y31628D01*
X56435Y31532D01*
X56447Y31435D01*
X56485Y31345D01*
X56544Y31268D01*
X56621Y31209D01*
X56711Y31171D01*
X56808Y31159D01*
X56904Y31171D01*
X56994Y31209D01*
X57072Y31268D01*
X57131Y31345D01*
X57168Y31435D01*
X57181Y31532D01*
X57168Y31628D01*
X57131Y31718D01*
X57072Y31796D01*
X56994Y31855D01*
X56904Y31892D01*
X56808Y31905D01*
D02*
G37*
G36*
X55721D02*
X55625Y31892D01*
X55535Y31855D01*
X55457Y31796D01*
X55398Y31718D01*
X55361Y31628D01*
X55348Y31532D01*
X55361Y31435D01*
X55398Y31345D01*
X55457Y31268D01*
X55535Y31209D01*
X55625Y31171D01*
X55721Y31159D01*
X55818Y31171D01*
X55908Y31209D01*
X55985Y31268D01*
X56044Y31345D01*
X56082Y31435D01*
X56094Y31532D01*
X56082Y31628D01*
X56044Y31718D01*
X55985Y31796D01*
X55908Y31855D01*
X55818Y31892D01*
X55721Y31905D01*
D02*
G37*
G36*
X54635D02*
X54538Y31892D01*
X54448Y31855D01*
X54371Y31796D01*
X54311Y31718D01*
X54274Y31628D01*
X54261Y31532D01*
X54274Y31435D01*
X54311Y31345D01*
X54371Y31268D01*
X54448Y31209D01*
X54538Y31171D01*
X54635Y31159D01*
X54731Y31171D01*
X54821Y31209D01*
X54899Y31268D01*
X54958Y31345D01*
X54995Y31435D01*
X55008Y31532D01*
X54995Y31628D01*
X54958Y31718D01*
X54899Y31796D01*
X54821Y31855D01*
X54731Y31892D01*
X54635Y31905D01*
D02*
G37*
G36*
X43616D02*
X43520Y31892D01*
X43430Y31855D01*
X43353Y31796D01*
X43293Y31718D01*
X43256Y31628D01*
X43243Y31532D01*
X43256Y31435D01*
X43293Y31345D01*
X43353Y31268D01*
X43430Y31209D01*
X43520Y31171D01*
X43616Y31159D01*
X43713Y31171D01*
X43803Y31209D01*
X43880Y31268D01*
X43940Y31345D01*
X43977Y31435D01*
X43990Y31532D01*
X43977Y31628D01*
X43940Y31718D01*
X43880Y31796D01*
X43803Y31855D01*
X43713Y31892D01*
X43616Y31905D01*
D02*
G37*
G36*
X42530D02*
X42433Y31892D01*
X42343Y31855D01*
X42266Y31796D01*
X42207Y31718D01*
X42169Y31628D01*
X42157Y31532D01*
X42169Y31435D01*
X42207Y31345D01*
X42266Y31268D01*
X42343Y31209D01*
X42433Y31171D01*
X42530Y31159D01*
X42626Y31171D01*
X42716Y31209D01*
X42794Y31268D01*
X42853Y31345D01*
X42890Y31435D01*
X42903Y31532D01*
X42890Y31628D01*
X42853Y31718D01*
X42794Y31796D01*
X42716Y31855D01*
X42626Y31892D01*
X42530Y31905D01*
D02*
G37*
G36*
X41443D02*
X41347Y31892D01*
X41257Y31855D01*
X41179Y31796D01*
X41120Y31718D01*
X41083Y31628D01*
X41070Y31532D01*
X41083Y31435D01*
X41120Y31345D01*
X41179Y31268D01*
X41257Y31209D01*
X41347Y31171D01*
X41443Y31159D01*
X41540Y31171D01*
X41630Y31209D01*
X41707Y31268D01*
X41766Y31345D01*
X41804Y31435D01*
X41816Y31532D01*
X41804Y31628D01*
X41766Y31718D01*
X41707Y31796D01*
X41630Y31855D01*
X41540Y31892D01*
X41443Y31905D01*
D02*
G37*
G36*
X30380D02*
X30283Y31892D01*
X30193Y31855D01*
X30116Y31796D01*
X30057Y31718D01*
X30019Y31628D01*
X30007Y31532D01*
X30019Y31435D01*
X30057Y31345D01*
X30116Y31268D01*
X30193Y31209D01*
X30283Y31171D01*
X30380Y31159D01*
X30476Y31171D01*
X30566Y31209D01*
X30644Y31268D01*
X30703Y31345D01*
X30740Y31435D01*
X30753Y31532D01*
X30740Y31628D01*
X30703Y31718D01*
X30644Y31796D01*
X30566Y31855D01*
X30476Y31892D01*
X30380Y31905D01*
D02*
G37*
G36*
X29293D02*
X29197Y31892D01*
X29107Y31855D01*
X29029Y31796D01*
X28970Y31718D01*
X28933Y31628D01*
X28920Y31532D01*
X28933Y31435D01*
X28970Y31345D01*
X29029Y31268D01*
X29107Y31209D01*
X29197Y31171D01*
X29293Y31159D01*
X29390Y31171D01*
X29480Y31209D01*
X29557Y31268D01*
X29616Y31345D01*
X29654Y31435D01*
X29666Y31532D01*
X29654Y31628D01*
X29616Y31718D01*
X29557Y31796D01*
X29480Y31855D01*
X29390Y31892D01*
X29293Y31905D01*
D02*
G37*
G36*
X28207D02*
X28110Y31892D01*
X28020Y31855D01*
X27943Y31796D01*
X27884Y31718D01*
X27846Y31628D01*
X27834Y31532D01*
X27846Y31435D01*
X27884Y31345D01*
X27943Y31268D01*
X28020Y31209D01*
X28110Y31171D01*
X28207Y31159D01*
X28303Y31171D01*
X28393Y31209D01*
X28471Y31268D01*
X28530Y31345D01*
X28567Y31435D01*
X28580Y31532D01*
X28567Y31628D01*
X28530Y31718D01*
X28471Y31796D01*
X28393Y31855D01*
X28303Y31892D01*
X28207Y31905D01*
D02*
G37*
G36*
X16993D02*
X16897Y31892D01*
X16807Y31855D01*
X16729Y31796D01*
X16670Y31718D01*
X16633Y31628D01*
X16620Y31532D01*
X16633Y31435D01*
X16670Y31345D01*
X16729Y31268D01*
X16807Y31209D01*
X16897Y31171D01*
X16993Y31159D01*
X17090Y31171D01*
X17180Y31209D01*
X17257Y31268D01*
X17316Y31345D01*
X17354Y31435D01*
X17366Y31532D01*
X17354Y31628D01*
X17316Y31718D01*
X17257Y31796D01*
X17180Y31855D01*
X17090Y31892D01*
X16993Y31905D01*
D02*
G37*
G36*
X15907D02*
X15810Y31892D01*
X15720Y31855D01*
X15643Y31796D01*
X15583Y31718D01*
X15546Y31628D01*
X15534Y31532D01*
X15546Y31435D01*
X15583Y31345D01*
X15643Y31268D01*
X15720Y31209D01*
X15810Y31171D01*
X15907Y31159D01*
X16003Y31171D01*
X16093Y31209D01*
X16171Y31268D01*
X16230Y31345D01*
X16267Y31435D01*
X16280Y31532D01*
X16267Y31628D01*
X16230Y31718D01*
X16171Y31796D01*
X16093Y31855D01*
X16003Y31892D01*
X15907Y31905D01*
D02*
G37*
G36*
X14820D02*
X14724Y31892D01*
X14634Y31855D01*
X14556Y31796D01*
X14497Y31718D01*
X14460Y31628D01*
X14447Y31532D01*
X14460Y31435D01*
X14497Y31345D01*
X14556Y31268D01*
X14634Y31209D01*
X14724Y31171D01*
X14820Y31159D01*
X14917Y31171D01*
X15007Y31209D01*
X15084Y31268D01*
X15143Y31345D01*
X15181Y31435D01*
X15193Y31532D01*
X15181Y31628D01*
X15143Y31718D01*
X15084Y31796D01*
X15007Y31855D01*
X14917Y31892D01*
X14820Y31905D01*
D02*
G37*
G36*
X60642Y33138D02*
X60479Y33125D01*
X60319Y33087D01*
X60167Y33024D01*
X60027Y32938D01*
X59902Y32832D01*
X59795Y32707D01*
X59709Y32566D01*
X59646Y32415D01*
X59608Y32255D01*
X59595Y32091D01*
X59608Y31927D01*
X59646Y31767D01*
X59709Y31615D01*
X59795Y31475D01*
X59902Y31350D01*
X60027Y31243D01*
X60167Y31158D01*
X60319Y31095D01*
X60479Y31056D01*
X60642Y31043D01*
X60806Y31056D01*
X60966Y31095D01*
X61118Y31158D01*
X61258Y31243D01*
X61383Y31350D01*
X61490Y31475D01*
X61576Y31615D01*
X61639Y31767D01*
X61677Y31927D01*
X61690Y32091D01*
X61677Y32255D01*
X61639Y32415D01*
X61576Y32566D01*
X61490Y32707D01*
X61383Y32832D01*
X61258Y32938D01*
X61118Y33024D01*
X60966Y33087D01*
X60806Y33125D01*
X60642Y33138D01*
D02*
G37*
G36*
X50800D02*
X50636Y33125D01*
X50476Y33087D01*
X50324Y33024D01*
X50184Y32938D01*
X50059Y32832D01*
X49953Y32707D01*
X49867Y32566D01*
X49804Y32415D01*
X49765Y32255D01*
X49753Y32091D01*
X49765Y31927D01*
X49804Y31767D01*
X49867Y31615D01*
X49953Y31475D01*
X50059Y31350D01*
X50184Y31243D01*
X50324Y31158D01*
X50476Y31095D01*
X50636Y31056D01*
X50800Y31043D01*
X50964Y31056D01*
X51124Y31095D01*
X51276Y31158D01*
X51416Y31243D01*
X51541Y31350D01*
X51647Y31475D01*
X51733Y31615D01*
X51796Y31767D01*
X51835Y31927D01*
X51847Y32091D01*
X51835Y32255D01*
X51796Y32415D01*
X51733Y32566D01*
X51647Y32707D01*
X51541Y32832D01*
X51416Y32938D01*
X51276Y33024D01*
X51124Y33087D01*
X50964Y33125D01*
X50800Y33138D01*
D02*
G37*
G36*
X47451D02*
X47287Y33125D01*
X47127Y33087D01*
X46976Y33024D01*
X46835Y32938D01*
X46710Y32832D01*
X46604Y32707D01*
X46518Y32566D01*
X46455Y32415D01*
X46417Y32255D01*
X46404Y32091D01*
X46417Y31927D01*
X46455Y31767D01*
X46518Y31615D01*
X46604Y31475D01*
X46710Y31350D01*
X46835Y31243D01*
X46976Y31158D01*
X47127Y31095D01*
X47287Y31056D01*
X47451Y31043D01*
X47615Y31056D01*
X47775Y31095D01*
X47927Y31158D01*
X48067Y31243D01*
X48192Y31350D01*
X48299Y31475D01*
X48384Y31615D01*
X48447Y31767D01*
X48486Y31927D01*
X48499Y32091D01*
X48486Y32255D01*
X48447Y32415D01*
X48384Y32566D01*
X48299Y32707D01*
X48192Y32832D01*
X48067Y32938D01*
X47927Y33024D01*
X47775Y33087D01*
X47615Y33125D01*
X47451Y33138D01*
D02*
G37*
G36*
X37609D02*
X37445Y33125D01*
X37285Y33087D01*
X37133Y33024D01*
X36993Y32938D01*
X36868Y32832D01*
X36761Y32707D01*
X36675Y32566D01*
X36612Y32415D01*
X36574Y32255D01*
X36561Y32091D01*
X36574Y31927D01*
X36612Y31767D01*
X36675Y31615D01*
X36761Y31475D01*
X36868Y31350D01*
X36993Y31243D01*
X37133Y31158D01*
X37285Y31095D01*
X37445Y31056D01*
X37609Y31043D01*
X37772Y31056D01*
X37932Y31095D01*
X38084Y31158D01*
X38224Y31243D01*
X38349Y31350D01*
X38456Y31475D01*
X38542Y31615D01*
X38605Y31767D01*
X38643Y31927D01*
X38656Y32091D01*
X38643Y32255D01*
X38605Y32415D01*
X38542Y32566D01*
X38456Y32707D01*
X38349Y32832D01*
X38224Y32938D01*
X38084Y33024D01*
X37932Y33087D01*
X37772Y33125D01*
X37609Y33138D01*
D02*
G37*
G36*
X34214D02*
X34051Y33125D01*
X33891Y33087D01*
X33739Y33024D01*
X33599Y32938D01*
X33474Y32832D01*
X33367Y32707D01*
X33281Y32566D01*
X33218Y32415D01*
X33180Y32255D01*
X33167Y32091D01*
X33180Y31927D01*
X33218Y31767D01*
X33281Y31615D01*
X33367Y31475D01*
X33474Y31350D01*
X33599Y31243D01*
X33739Y31158D01*
X33891Y31095D01*
X34051Y31056D01*
X34214Y31043D01*
X34378Y31056D01*
X34538Y31095D01*
X34690Y31158D01*
X34830Y31243D01*
X34955Y31350D01*
X35062Y31475D01*
X35148Y31615D01*
X35211Y31767D01*
X35249Y31927D01*
X35262Y32091D01*
X35249Y32255D01*
X35211Y32415D01*
X35148Y32566D01*
X35062Y32707D01*
X34955Y32832D01*
X34830Y32938D01*
X34690Y33024D01*
X34538Y33087D01*
X34378Y33125D01*
X34214Y33138D01*
D02*
G37*
G36*
X24372D02*
X24208Y33125D01*
X24048Y33087D01*
X23896Y33024D01*
X23756Y32938D01*
X23631Y32832D01*
X23525Y32707D01*
X23439Y32566D01*
X23376Y32415D01*
X23337Y32255D01*
X23325Y32091D01*
X23337Y31927D01*
X23376Y31767D01*
X23439Y31615D01*
X23525Y31475D01*
X23631Y31350D01*
X23756Y31243D01*
X23896Y31158D01*
X24048Y31095D01*
X24208Y31056D01*
X24372Y31043D01*
X24536Y31056D01*
X24696Y31095D01*
X24848Y31158D01*
X24988Y31243D01*
X25113Y31350D01*
X25219Y31475D01*
X25305Y31615D01*
X25368Y31767D01*
X25407Y31927D01*
X25419Y32091D01*
X25407Y32255D01*
X25368Y32415D01*
X25305Y32566D01*
X25219Y32707D01*
X25113Y32832D01*
X24988Y32938D01*
X24848Y33024D01*
X24696Y33087D01*
X24536Y33125D01*
X24372Y33138D01*
D02*
G37*
G36*
X20828D02*
X20664Y33125D01*
X20504Y33087D01*
X20352Y33024D01*
X20212Y32938D01*
X20087Y32832D01*
X19980Y32707D01*
X19895Y32566D01*
X19832Y32415D01*
X19793Y32255D01*
X19780Y32091D01*
X19793Y31927D01*
X19832Y31767D01*
X19895Y31615D01*
X19980Y31475D01*
X20087Y31350D01*
X20212Y31243D01*
X20352Y31158D01*
X20504Y31095D01*
X20664Y31056D01*
X20828Y31043D01*
X20992Y31056D01*
X21152Y31095D01*
X21303Y31158D01*
X21444Y31243D01*
X21569Y31350D01*
X21675Y31475D01*
X21761Y31615D01*
X21824Y31767D01*
X21862Y31927D01*
X21875Y32091D01*
X21862Y32255D01*
X21824Y32415D01*
X21761Y32566D01*
X21675Y32707D01*
X21569Y32832D01*
X21444Y32938D01*
X21303Y33024D01*
X21152Y33087D01*
X20992Y33125D01*
X20828Y33138D01*
D02*
G37*
G36*
X10985D02*
X10822Y33125D01*
X10662Y33087D01*
X10510Y33024D01*
X10370Y32938D01*
X10245Y32832D01*
X10138Y32707D01*
X10052Y32566D01*
X9989Y32415D01*
X9951Y32255D01*
X9938Y32091D01*
X9951Y31927D01*
X9989Y31767D01*
X10052Y31615D01*
X10138Y31475D01*
X10245Y31350D01*
X10370Y31243D01*
X10510Y31158D01*
X10662Y31095D01*
X10822Y31056D01*
X10985Y31043D01*
X11149Y31056D01*
X11309Y31095D01*
X11461Y31158D01*
X11601Y31243D01*
X11726Y31350D01*
X11833Y31475D01*
X11919Y31615D01*
X11982Y31767D01*
X12020Y31927D01*
X12033Y32091D01*
X12020Y32255D01*
X11982Y32415D01*
X11919Y32566D01*
X11833Y32707D01*
X11726Y32832D01*
X11601Y32938D01*
X11461Y33024D01*
X11309Y33087D01*
X11149Y33125D01*
X10985Y33138D01*
D02*
G37*
G36*
X6198Y31114D02*
X6116Y31098D01*
X6047Y31051D01*
X6021Y31012D01*
X5000D01*
X5000Y31012D01*
X4957Y31004D01*
X4921Y30979D01*
X4346Y30405D01*
X4300Y30414D01*
X4218Y30398D01*
X4149Y30351D01*
X4102Y30282D01*
X4086Y30200D01*
X4102Y30118D01*
X4149Y30049D01*
X4218Y30002D01*
X4300Y29986D01*
X4382Y30002D01*
X4451Y30049D01*
X4498Y30118D01*
X4514Y30200D01*
X4505Y30246D01*
X5046Y30788D01*
X6021D01*
X6047Y30749D01*
X6116Y30702D01*
X6198Y30686D01*
X6280Y30702D01*
X6350Y30749D01*
X6396Y30818D01*
X6413Y30900D01*
X6396Y30982D01*
X6350Y31051D01*
X6280Y31098D01*
X6198Y31114D01*
D02*
G37*
G36*
X2252Y31473D02*
X2170Y31463D01*
X2093Y31431D01*
X2027Y31380D01*
X1976Y31314D01*
X1945Y31237D01*
X1934Y31155D01*
X1945Y31072D01*
X1976Y30995D01*
X2027Y30929D01*
X2093Y30879D01*
X2170Y30847D01*
X2252Y30836D01*
X2335Y30847D01*
X2412Y30879D01*
X2478Y30929D01*
X2528Y30995D01*
X2560Y31072D01*
X2571Y31155D01*
X2560Y31237D01*
X2528Y31314D01*
X2478Y31380D01*
X2412Y31431D01*
X2335Y31463D01*
X2252Y31473D01*
D02*
G37*
G36*
X52647Y30764D02*
X52565Y30748D01*
X52513Y30713D01*
X40434D01*
X40382Y30748D01*
X40300Y30764D01*
X40218Y30748D01*
X40166Y30713D01*
X26234D01*
X26182Y30748D01*
X26100Y30764D01*
X26018Y30748D01*
X25966Y30713D01*
X13184D01*
X13132Y30748D01*
X13050Y30764D01*
X12968Y30748D01*
X12899Y30701D01*
X12852Y30632D01*
X12836Y30550D01*
X12852Y30468D01*
X12899Y30399D01*
X12968Y30352D01*
X13050Y30336D01*
X13132Y30352D01*
X13184Y30387D01*
X25966D01*
X26018Y30352D01*
X26100Y30336D01*
X26182Y30352D01*
X26234Y30387D01*
X40166D01*
X40218Y30352D01*
X40300Y30336D01*
X40382Y30352D01*
X40434Y30387D01*
X52513D01*
X52565Y30352D01*
X52626Y30340D01*
X52887Y30079D01*
Y13163D01*
X40684D01*
X40632Y13198D01*
X40550Y13214D01*
X40468Y13198D01*
X40416Y13163D01*
X29356D01*
X29336Y13213D01*
X29373Y13268D01*
X29389Y13350D01*
X29373Y13432D01*
X29326Y13501D01*
X29257Y13548D01*
X29175Y13564D01*
X29128Y13555D01*
X28904Y13779D01*
X28868Y13804D01*
X28825Y13812D01*
X28825Y13812D01*
X20396D01*
X16835Y17374D01*
Y19772D01*
X16874Y19799D01*
X16876Y19801D01*
X16926Y19786D01*
Y17680D01*
X16926Y17680D01*
X16934Y17637D01*
X16958Y17600D01*
X20588Y13971D01*
X20588Y13971D01*
X20624Y13946D01*
X20667Y13938D01*
X29114D01*
X29395Y13656D01*
X29386Y13610D01*
X29402Y13528D01*
X29449Y13459D01*
X29518Y13412D01*
X29600Y13396D01*
X29682Y13412D01*
X29751Y13459D01*
X29798Y13528D01*
X29814Y13610D01*
X29798Y13692D01*
X29751Y13761D01*
X29682Y13808D01*
X29600Y13824D01*
X29554Y13815D01*
X29239Y14129D01*
X29203Y14154D01*
X29160Y14162D01*
X29160Y14162D01*
X20714D01*
X17150Y17726D01*
Y19786D01*
X17200Y19801D01*
X17201Y19799D01*
X17241Y19772D01*
Y17943D01*
X17241Y17943D01*
X17249Y17900D01*
X17273Y17864D01*
X19666Y15471D01*
X19666Y15471D01*
X19703Y15446D01*
X19746Y15438D01*
X19746Y15438D01*
X41381D01*
X43218Y13601D01*
X43209Y13555D01*
X43225Y13473D01*
X43272Y13403D01*
X43341Y13357D01*
X43423Y13341D01*
X43505Y13357D01*
X43575Y13403D01*
X43621Y13473D01*
X43637Y13555D01*
X43621Y13637D01*
X43575Y13706D01*
X43505Y13753D01*
X43423Y13769D01*
X43377Y13760D01*
X41507Y15629D01*
X41471Y15654D01*
X41428Y15662D01*
X41428Y15662D01*
X19792D01*
X17465Y17989D01*
Y19772D01*
X17504Y19799D01*
X17506Y19801D01*
X17556Y19786D01*
Y18282D01*
X17556Y18282D01*
X17564Y18239D01*
X17588Y18203D01*
X19871Y15921D01*
X19871Y15921D01*
X19907Y15896D01*
X19950Y15888D01*
X19950Y15888D01*
X41654D01*
X43740Y13801D01*
X43731Y13755D01*
X43748Y13673D01*
X43794Y13603D01*
X43863Y13557D01*
X43945Y13541D01*
X44027Y13557D01*
X44097Y13603D01*
X44143Y13673D01*
X44159Y13755D01*
X44143Y13837D01*
X44097Y13906D01*
X44027Y13952D01*
X43945Y13969D01*
X43899Y13960D01*
X41779Y16079D01*
X41743Y16104D01*
X41700Y16112D01*
X41700Y16112D01*
X19996D01*
X17780Y18329D01*
Y18561D01*
X17830Y18577D01*
X17849Y18549D01*
X17918Y18502D01*
X18000Y18486D01*
X18082Y18502D01*
X18151Y18549D01*
X18198Y18618D01*
X18214Y18700D01*
X18198Y18782D01*
X18151Y18851D01*
X18082Y18898D01*
X18000Y18914D01*
X17918Y18898D01*
X17849Y18851D01*
X17830Y18823D01*
X17780Y18839D01*
Y20252D01*
X17819Y20279D01*
X17866Y20348D01*
X17882Y20430D01*
X17866Y20512D01*
X17819Y20581D01*
X17750Y20628D01*
X17668Y20644D01*
X17586Y20628D01*
X17516Y20581D01*
X17470Y20512D01*
X17454Y20430D01*
X17470Y20348D01*
X17516Y20279D01*
X17556Y20252D01*
Y20114D01*
X17506Y20099D01*
X17504Y20101D01*
X17435Y20148D01*
X17353Y20164D01*
X17271Y20148D01*
X17201Y20101D01*
X17200Y20099D01*
X17150Y20114D01*
Y20252D01*
X17189Y20279D01*
X17236Y20348D01*
X17252Y20430D01*
X17236Y20512D01*
X17189Y20581D01*
X17120Y20628D01*
X17038Y20644D01*
X16956Y20628D01*
X16886Y20581D01*
X16840Y20512D01*
X16824Y20430D01*
X16840Y20348D01*
X16886Y20279D01*
X16926Y20252D01*
Y20114D01*
X16876Y20099D01*
X16874Y20101D01*
X16805Y20148D01*
X16723Y20164D01*
X16641Y20148D01*
X16571Y20101D01*
X16570Y20099D01*
X16520Y20114D01*
Y20252D01*
X16559Y20279D01*
X16606Y20348D01*
X16622Y20430D01*
X16606Y20512D01*
X16559Y20581D01*
X16490Y20628D01*
X16408Y20644D01*
X16326Y20628D01*
X16256Y20581D01*
X16210Y20512D01*
X16194Y20430D01*
X16210Y20348D01*
X16256Y20279D01*
X16296Y20252D01*
Y20114D01*
X16246Y20099D01*
X16244Y20101D01*
X16175Y20148D01*
X16093Y20164D01*
X16011Y20148D01*
X15942Y20101D01*
X15895Y20032D01*
X15879Y19950D01*
X15895Y19868D01*
X15942Y19799D01*
X15981Y19772D01*
Y16123D01*
X15931Y16107D01*
X15901Y16151D01*
X15832Y16198D01*
X15750Y16214D01*
X15668Y16198D01*
X15599Y16151D01*
X15552Y16082D01*
X15536Y16000D01*
X15545Y15954D01*
X14994Y15402D01*
X12676D01*
X12653Y15446D01*
X12667Y15468D01*
X12683Y15550D01*
X12680Y15566D01*
X13350Y16237D01*
X13380Y16281D01*
X13391Y16334D01*
X13391Y16334D01*
Y17393D01*
X13405Y17402D01*
X13451Y17471D01*
X13467Y17553D01*
X13451Y17635D01*
X13405Y17705D01*
X13335Y17751D01*
X13253Y17767D01*
X13171Y17751D01*
X13102Y17705D01*
X13055Y17635D01*
X13039Y17553D01*
X13055Y17471D01*
X13102Y17402D01*
X13116Y17393D01*
Y16391D01*
X12486Y15761D01*
X12469Y15764D01*
X12387Y15748D01*
X12318Y15701D01*
X12271Y15632D01*
X12255Y15550D01*
X12271Y15468D01*
X12286Y15446D01*
X12262Y15402D01*
X7444D01*
X7207Y15639D01*
Y16420D01*
X7257Y16433D01*
X7274Y16408D01*
X7611Y16071D01*
X7611Y16071D01*
X7647Y16046D01*
X7690Y16038D01*
X7690Y16038D01*
X11595D01*
X11595Y16038D01*
X11638Y16046D01*
X11674Y16071D01*
X12679Y17076D01*
X12700Y17071D01*
X12770Y17085D01*
X12830Y17125D01*
X12870Y17185D01*
X12884Y17255D01*
X12870Y17325D01*
X12830Y17385D01*
X12770Y17425D01*
X12700Y17439D01*
X12630Y17425D01*
X12570Y17385D01*
X12530Y17325D01*
X12516Y17255D01*
X12521Y17234D01*
X11549Y16262D01*
X11230D01*
X11210Y16312D01*
X11248Y16368D01*
X11264Y16450D01*
X11248Y16532D01*
X11201Y16601D01*
X11162Y16628D01*
Y17043D01*
X11201Y17069D01*
X11248Y17139D01*
X11264Y17221D01*
X11248Y17303D01*
X11201Y17372D01*
X11132Y17418D01*
X11050Y17435D01*
X10968Y17418D01*
X10899Y17372D01*
X10852Y17303D01*
X10836Y17221D01*
X10852Y17139D01*
X10899Y17069D01*
X10938Y17043D01*
Y16628D01*
X10899Y16601D01*
X10852Y16532D01*
X10836Y16450D01*
X10852Y16368D01*
X10890Y16312D01*
X10870Y16262D01*
X10430D01*
X10410Y16312D01*
X10448Y16368D01*
X10464Y16450D01*
X10448Y16532D01*
X10401Y16601D01*
X10388Y16611D01*
Y17393D01*
X10447Y17453D01*
X10477Y17497D01*
X10488Y17550D01*
X10488Y17550D01*
Y17889D01*
X10501Y17899D01*
X10548Y17968D01*
X10564Y18050D01*
X10548Y18132D01*
X10501Y18201D01*
X10492Y18208D01*
X10507Y18258D01*
X12019D01*
X12045Y18219D01*
X12115Y18172D01*
X12197Y18156D01*
X12279Y18172D01*
X12348Y18219D01*
X12395Y18288D01*
X12411Y18370D01*
X12397Y18439D01*
X12430Y18469D01*
X12438Y18472D01*
X12468Y18452D01*
X12550Y18436D01*
X12632Y18452D01*
X12701Y18499D01*
X12748Y18568D01*
X12764Y18650D01*
X12748Y18732D01*
X12701Y18801D01*
X12632Y18848D01*
X12550Y18864D01*
X12468Y18848D01*
X12399Y18801D01*
X12372Y18762D01*
X9898D01*
X9855Y18754D01*
X9819Y18729D01*
X9819Y18729D01*
X8524Y17434D01*
X8503Y17439D01*
X8459Y17430D01*
X8434Y17476D01*
X11446Y20488D01*
X14970D01*
X14997Y20449D01*
X15066Y20402D01*
X15148Y20386D01*
X15230Y20402D01*
X15299Y20449D01*
X15346Y20518D01*
X15362Y20600D01*
X15346Y20682D01*
X15299Y20751D01*
X15230Y20798D01*
X15148Y20814D01*
X15066Y20798D01*
X14997Y20751D01*
X14970Y20712D01*
X11400D01*
X11400Y20712D01*
X11357Y20704D01*
X11321Y20679D01*
X11321Y20679D01*
X10109Y19468D01*
X10055Y19484D01*
X10045Y19535D01*
X9998Y19605D01*
X9929Y19651D01*
X9847Y19667D01*
X9513D01*
X8039Y21141D01*
X8045Y21191D01*
X8033Y21283D01*
X7997Y21370D01*
X7941Y21444D01*
X7866Y21501D01*
X7780Y21537D01*
X7687Y21549D01*
X7594Y21537D01*
X7508Y21501D01*
X7434Y21444D01*
X7377Y21370D01*
X7341Y21283D01*
X7329Y21191D01*
X7341Y21098D01*
X7377Y21011D01*
X7434Y20937D01*
X7508Y20880D01*
X7594Y20844D01*
X7687Y20832D01*
X7736Y20839D01*
X9273Y19302D01*
X9343Y19255D01*
X9425Y19239D01*
X9810D01*
X9830Y19189D01*
X8241Y17599D01*
X8188Y17603D01*
X8183Y17611D01*
X8123Y17651D01*
X8053Y17665D01*
X7983Y17651D01*
X7923Y17611D01*
X7884Y17551D01*
X7870Y17481D01*
X7884Y17411D01*
X7923Y17351D01*
X7983Y17312D01*
X8053Y17298D01*
X8123Y17312D01*
X8183Y17351D01*
X8195Y17369D01*
X8281D01*
X8281Y17369D01*
X8306Y17374D01*
X8337Y17331D01*
X8334Y17325D01*
X8320Y17255D01*
X8334Y17185D01*
X8373Y17125D01*
X8433Y17085D01*
X8488Y17075D01*
X8510Y17026D01*
X8302Y16818D01*
X8253Y16827D01*
X8183Y16813D01*
X8123Y16773D01*
X8084Y16714D01*
X8070Y16644D01*
X8084Y16573D01*
X8123Y16514D01*
X8183Y16474D01*
X8253Y16460D01*
X8323Y16474D01*
X8383Y16514D01*
X8423Y16573D01*
X8435Y16634D01*
X10059Y18258D01*
X10193D01*
X10208Y18208D01*
X10199Y18201D01*
X10152Y18132D01*
X10136Y18050D01*
X10152Y17968D01*
X10199Y17899D01*
X10212Y17889D01*
Y17607D01*
X10153Y17547D01*
X10123Y17503D01*
X10112Y17450D01*
Y16611D01*
X10099Y16601D01*
X10052Y16532D01*
X10036Y16450D01*
X10052Y16368D01*
X10090Y16312D01*
X10070Y16262D01*
X7737D01*
X7465Y16534D01*
Y17049D01*
X7483Y17061D01*
X7523Y17120D01*
X7537Y17191D01*
X7523Y17261D01*
X7483Y17320D01*
X7423Y17360D01*
X7353Y17374D01*
X7283Y17360D01*
X7223Y17320D01*
X7184Y17261D01*
X7170Y17191D01*
X7184Y17120D01*
X7221Y17064D01*
X7223Y17057D01*
X7220Y17033D01*
X7169Y17008D01*
X7165Y17010D01*
X7095Y17024D01*
X7025Y17010D01*
X6965Y16970D01*
X6925Y16911D01*
X6912Y16841D01*
X6925Y16770D01*
X6965Y16711D01*
X6983Y16699D01*
Y15593D01*
X6983Y15593D01*
X6991Y15550D01*
X7016Y15514D01*
X7319Y15211D01*
X7319Y15211D01*
X7355Y15186D01*
X7398Y15178D01*
X7398Y15178D01*
X15040D01*
X15040Y15178D01*
X15083Y15186D01*
X15119Y15211D01*
X15704Y15795D01*
X15750Y15786D01*
X15832Y15802D01*
X15901Y15849D01*
X15931Y15893D01*
X15981Y15877D01*
Y13575D01*
X15952Y13532D01*
X15936Y13450D01*
X15952Y13368D01*
X15999Y13299D01*
X16068Y13252D01*
X16150Y13236D01*
X16232Y13252D01*
X16301Y13299D01*
X16348Y13368D01*
X16364Y13450D01*
X16348Y13532D01*
X16301Y13601D01*
X16232Y13648D01*
X16205Y13653D01*
Y19772D01*
X16244Y19799D01*
X16246Y19801D01*
X16296Y19786D01*
Y13742D01*
X16296Y13742D01*
X16304Y13699D01*
X16329Y13663D01*
X16545Y13446D01*
X16536Y13400D01*
X16552Y13318D01*
X16599Y13249D01*
X16652Y13213D01*
X16637Y13163D01*
X13384D01*
X13332Y13198D01*
X13250Y13214D01*
X13168Y13198D01*
X13099Y13151D01*
X13052Y13082D01*
X13036Y13000D01*
X13052Y12918D01*
X13099Y12849D01*
X13168Y12802D01*
X13250Y12786D01*
X13332Y12802D01*
X13384Y12837D01*
X26164D01*
X26216Y12802D01*
X26298Y12786D01*
X26380Y12802D01*
X26432Y12837D01*
X40416D01*
X40468Y12802D01*
X40550Y12786D01*
X40632Y12802D01*
X40684Y12837D01*
X52916D01*
X52968Y12802D01*
X53050Y12786D01*
X53132Y12802D01*
X53184Y12837D01*
X59900D01*
X59962Y12849D01*
X60015Y12885D01*
X62065Y14935D01*
X62101Y14988D01*
X62113Y15050D01*
Y16583D01*
X62129Y16590D01*
X62203Y16647D01*
X62260Y16721D01*
X62296Y16807D01*
X62308Y16900D01*
X62296Y16993D01*
X62260Y17079D01*
X62203Y17153D01*
X62129Y17210D01*
X62043Y17246D01*
X61950Y17258D01*
X61857Y17246D01*
X61771Y17210D01*
X61697Y17153D01*
X61640Y17079D01*
X61604Y16993D01*
X61592Y16900D01*
X61604Y16807D01*
X61640Y16721D01*
X61697Y16647D01*
X61771Y16590D01*
X61787Y16583D01*
Y15118D01*
X59832Y13163D01*
X53213D01*
Y30147D01*
X53201Y30209D01*
X53165Y30262D01*
X52857Y30571D01*
X52845Y30632D01*
X52798Y30701D01*
X52729Y30748D01*
X52647Y30764D01*
D02*
G37*
G36*
X5993Y33191D02*
X5922Y33177D01*
X5863Y33137D01*
X5823Y33078D01*
X5809Y33007D01*
X5823Y32937D01*
X5863Y32878D01*
X5881Y32866D01*
Y32057D01*
X5881Y32057D01*
X5889Y32014D01*
X5913Y31978D01*
X6121Y31771D01*
X6121Y31771D01*
X6157Y31746D01*
X6200Y31738D01*
X6200Y31738D01*
X6572D01*
X6599Y31699D01*
X6638Y31672D01*
Y30728D01*
X6599Y30701D01*
X6552Y30632D01*
X6536Y30550D01*
X6552Y30468D01*
X6599Y30399D01*
X6668Y30352D01*
X6750Y30336D01*
X6832Y30352D01*
X6901Y30399D01*
X6948Y30468D01*
X6964Y30550D01*
X6948Y30632D01*
X6901Y30701D01*
X6862Y30728D01*
Y31672D01*
X6901Y31699D01*
X6948Y31768D01*
X6964Y31850D01*
X6948Y31932D01*
X6901Y32001D01*
X6832Y32048D01*
X6750Y32064D01*
X6668Y32048D01*
X6599Y32001D01*
X6572Y31962D01*
X6246D01*
X6105Y32104D01*
Y32866D01*
X6122Y32878D01*
X6162Y32937D01*
X6176Y33007D01*
X6162Y33078D01*
X6122Y33137D01*
X6063Y33177D01*
X5993Y33191D01*
D02*
G37*
G36*
X8700Y29364D02*
X8618Y29348D01*
X8549Y29301D01*
X8520Y29259D01*
X8460Y29259D01*
X8439Y29292D01*
X8369Y29338D01*
X8287Y29355D01*
X8205Y29338D01*
X8136Y29292D01*
X8089Y29222D01*
X8073Y29141D01*
X8089Y29059D01*
X8136Y28989D01*
X8175Y28963D01*
Y23955D01*
X6759Y22539D01*
X6687Y22549D01*
X6594Y22537D01*
X6508Y22501D01*
X6434Y22444D01*
X6377Y22370D01*
X6341Y22283D01*
X6329Y22191D01*
X6341Y22098D01*
X6377Y22011D01*
X6434Y21937D01*
X6508Y21880D01*
X6594Y21844D01*
X6687Y21832D01*
X6780Y21844D01*
X6866Y21880D01*
X6941Y21937D01*
X6997Y22011D01*
X7033Y22098D01*
X7045Y22191D01*
X7033Y22283D01*
X6997Y22370D01*
X6958Y22421D01*
X8366Y23829D01*
X8366Y23829D01*
X8391Y23866D01*
X8399Y23909D01*
X8399Y23909D01*
Y24645D01*
X8449Y24661D01*
X8518Y24615D01*
X8600Y24599D01*
X8682Y24615D01*
X8751Y24661D01*
X8798Y24731D01*
X8814Y24813D01*
X8798Y24895D01*
X8751Y24964D01*
X8712Y24990D01*
Y28938D01*
X8782Y28952D01*
X8851Y28999D01*
X8898Y29068D01*
X8914Y29150D01*
X8898Y29232D01*
X8851Y29301D01*
X8782Y29348D01*
X8700Y29364D01*
D02*
G37*
G36*
X2252Y29564D02*
X2170Y29553D01*
X2093Y29521D01*
X2027Y29471D01*
X1976Y29405D01*
X1945Y29328D01*
X1934Y29245D01*
X1945Y29163D01*
X1976Y29086D01*
X2027Y29020D01*
X2093Y28969D01*
X2170Y28938D01*
X2252Y28927D01*
X2335Y28938D01*
X2412Y28969D01*
X2478Y29020D01*
X2528Y29086D01*
X2560Y29163D01*
X2571Y29245D01*
X2560Y29328D01*
X2528Y29405D01*
X2478Y29471D01*
X2412Y29521D01*
X2335Y29553D01*
X2252Y29564D01*
D02*
G37*
G36*
X1378Y29101D02*
X1024D01*
X941Y29090D01*
X865Y29059D01*
X799Y29008D01*
X748Y28942D01*
X716Y28865D01*
X705Y28783D01*
X716Y28700D01*
X748Y28623D01*
X799Y28557D01*
X865Y28507D01*
X941Y28475D01*
X1024Y28464D01*
X1378D01*
X1461Y28475D01*
X1538Y28507D01*
X1604Y28557D01*
X1654Y28623D01*
X1686Y28700D01*
X1697Y28783D01*
X1686Y28865D01*
X1654Y28942D01*
X1604Y29008D01*
X1538Y29059D01*
X1461Y29090D01*
X1378Y29101D01*
D02*
G37*
G36*
X29175Y28088D02*
X29093Y28072D01*
X29023Y28025D01*
X28997Y27986D01*
X22324D01*
X22324Y27986D01*
X22281Y27977D01*
X22245Y27953D01*
X22245Y27953D01*
X18046Y23755D01*
X18000Y23764D01*
X17918Y23748D01*
X17849Y23701D01*
X17802Y23632D01*
X17786Y23550D01*
X17802Y23468D01*
X17849Y23399D01*
X17918Y23352D01*
X18000Y23336D01*
X18082Y23352D01*
X18151Y23399D01*
X18198Y23468D01*
X18214Y23550D01*
X18205Y23596D01*
X22370Y27762D01*
X28997D01*
X29023Y27722D01*
X29039Y27712D01*
X29024Y27662D01*
X23200D01*
X23200Y27662D01*
X23157Y27654D01*
X23121Y27629D01*
X18746Y23255D01*
X18700Y23264D01*
X18618Y23248D01*
X18549Y23201D01*
X18502Y23132D01*
X18486Y23050D01*
X18502Y22968D01*
X18549Y22899D01*
X18618Y22852D01*
X18700Y22836D01*
X18782Y22852D01*
X18851Y22899D01*
X18898Y22968D01*
X18914Y23050D01*
X18905Y23096D01*
X23246Y27438D01*
X29472D01*
X29499Y27399D01*
X29568Y27352D01*
X29650Y27336D01*
X29732Y27352D01*
X29801Y27399D01*
X29848Y27468D01*
X29864Y27550D01*
X29848Y27632D01*
X29801Y27701D01*
X29732Y27748D01*
X29650Y27764D01*
X29568Y27748D01*
X29499Y27701D01*
X29472Y27662D01*
X29326D01*
X29311Y27712D01*
X29326Y27722D01*
X29373Y27792D01*
X29389Y27874D01*
X29373Y27956D01*
X29326Y28025D01*
X29257Y28072D01*
X29175Y28088D01*
D02*
G37*
G36*
X43800Y27838D02*
X43718Y27822D01*
X43649Y27775D01*
X43602Y27706D01*
X43586Y27624D01*
X43595Y27578D01*
X43541Y27524D01*
X43540Y27524D01*
X43500Y27553D01*
X43514Y27624D01*
X43498Y27706D01*
X43451Y27775D01*
X43382Y27822D01*
X43300Y27838D01*
X43218Y27822D01*
X43149Y27775D01*
X43102Y27706D01*
X43086Y27624D01*
X43095Y27578D01*
X35623Y20106D01*
X20063D01*
X20037Y20145D01*
X20013Y20161D01*
X20002Y20229D01*
X20010Y20238D01*
X22682D01*
X22682Y20238D01*
X22725Y20246D01*
X22762Y20271D01*
X22939Y20448D01*
X23061D01*
X23238Y20271D01*
X23238Y20271D01*
X23275Y20246D01*
X23318Y20238D01*
X23318Y20238D01*
X35215D01*
X35268Y20202D01*
X35350Y20186D01*
X35432Y20202D01*
X35501Y20249D01*
X35548Y20318D01*
X35564Y20400D01*
X35548Y20482D01*
X35501Y20551D01*
X35432Y20598D01*
X35350Y20614D01*
X35268Y20598D01*
X35199Y20551D01*
X35152Y20482D01*
X35148Y20462D01*
X23364D01*
X23187Y20639D01*
X23151Y20664D01*
X23108Y20672D01*
X23108Y20672D01*
X22892D01*
X22892Y20672D01*
X22849Y20664D01*
X22813Y20639D01*
X22813Y20639D01*
X22636Y20462D01*
X19628D01*
X19601Y20501D01*
X19532Y20548D01*
X19450Y20564D01*
X19368Y20548D01*
X19299Y20501D01*
X19252Y20432D01*
X19236Y20350D01*
X19252Y20268D01*
X19299Y20199D01*
X19368Y20152D01*
X19450Y20136D01*
X19532Y20152D01*
X19601Y20199D01*
X19628Y20238D01*
X19762D01*
X19769Y20229D01*
X19758Y20161D01*
X19734Y20145D01*
X19688Y20076D01*
X19672Y19994D01*
X19688Y19912D01*
X19734Y19842D01*
X19804Y19796D01*
X19886Y19780D01*
X19968Y19796D01*
X20037Y19842D01*
X20063Y19882D01*
X35670D01*
X35670Y19882D01*
X35713Y19890D01*
X35749Y19914D01*
X36335Y20500D01*
X36336Y20500D01*
X36376Y20471D01*
X36362Y20400D01*
X36378Y20318D01*
X36425Y20249D01*
X36494Y20202D01*
X36576Y20186D01*
X36658Y20202D01*
X36728Y20249D01*
X36774Y20318D01*
X36790Y20400D01*
X36781Y20446D01*
X43754Y27419D01*
X43800Y27410D01*
X43882Y27426D01*
X43951Y27472D01*
X43998Y27542D01*
X44014Y27624D01*
X43998Y27706D01*
X43951Y27775D01*
X43882Y27822D01*
X43800Y27838D01*
D02*
G37*
G36*
X1961Y28205D02*
X1250D01*
Y27495D01*
X1961D01*
Y28205D01*
D02*
G37*
G36*
X5187Y27555D02*
X5105Y27538D01*
X5036Y27492D01*
X4989Y27422D01*
X4973Y27341D01*
X4989Y27259D01*
X5036Y27189D01*
X5105Y27143D01*
X5187Y27126D01*
X5269Y27143D01*
X5339Y27189D01*
X5365Y27228D01*
X6320D01*
X7535Y26013D01*
X7526Y25967D01*
X7542Y25885D01*
X7589Y25815D01*
X7658Y25769D01*
X7740Y25753D01*
X7822Y25769D01*
X7892Y25815D01*
X7938Y25885D01*
X7954Y25967D01*
X7938Y26049D01*
X7892Y26118D01*
X7822Y26164D01*
X7740Y26181D01*
X7694Y26172D01*
X6446Y27420D01*
X6409Y27444D01*
X6366Y27453D01*
X6366Y27453D01*
X5365D01*
X5339Y27492D01*
X5269Y27538D01*
X5187Y27555D01*
D02*
G37*
G36*
X3700Y30964D02*
X3618Y30948D01*
X3549Y30901D01*
X3502Y30832D01*
X3486Y30750D01*
Y26048D01*
X2740Y25301D01*
X2693Y25232D01*
X2677Y25150D01*
X2693Y25068D01*
X2740Y24999D01*
X2809Y24952D01*
X2891Y24936D01*
X2973Y24952D01*
X3043Y24999D01*
X3851Y25807D01*
X3898Y25877D01*
X3914Y25959D01*
Y30750D01*
X3898Y30832D01*
X3851Y30901D01*
X3782Y30948D01*
X3700Y30964D01*
D02*
G37*
G36*
X7875Y24791D02*
X7793Y24774D01*
X7723Y24728D01*
X7677Y24659D01*
X7661Y24577D01*
X7670Y24530D01*
X5688Y22549D01*
X5687Y22549D01*
X5594Y22537D01*
X5508Y22501D01*
X5434Y22444D01*
X5377Y22370D01*
X5341Y22283D01*
X5329Y22191D01*
X5341Y22098D01*
X5377Y22011D01*
X5434Y21937D01*
X5508Y21880D01*
X5594Y21844D01*
X5687Y21832D01*
X5780Y21844D01*
X5866Y21880D01*
X5941Y21937D01*
X5997Y22011D01*
X6033Y22098D01*
X6045Y22191D01*
X6033Y22283D01*
X5997Y22370D01*
X5941Y22444D01*
X5938Y22481D01*
X7828Y24372D01*
X7875Y24362D01*
X7957Y24379D01*
X8026Y24425D01*
X8072Y24495D01*
X8089Y24577D01*
X8072Y24659D01*
X8026Y24728D01*
X7957Y24774D01*
X7875Y24791D01*
D02*
G37*
G36*
X16050Y27905D02*
X15968Y27889D01*
X15899Y27842D01*
X15852Y27773D01*
X15836Y27691D01*
X15852Y27609D01*
X15899Y27539D01*
X15938Y27513D01*
Y22919D01*
X15867Y22848D01*
X15821Y22857D01*
X15739Y22841D01*
X15669Y22794D01*
X15623Y22725D01*
X15607Y22643D01*
X15623Y22561D01*
X15669Y22492D01*
X15739Y22445D01*
X15821Y22429D01*
X15903Y22445D01*
X15972Y22492D01*
X16019Y22561D01*
X16035Y22643D01*
X16026Y22689D01*
X16129Y22793D01*
X16129Y22793D01*
X16154Y22829D01*
X16162Y22872D01*
X16162Y22872D01*
Y27513D01*
X16201Y27539D01*
X16248Y27609D01*
X16264Y27691D01*
X16248Y27773D01*
X16201Y27842D01*
X16132Y27889D01*
X16050Y27905D01*
D02*
G37*
G36*
X16550D02*
X16468Y27889D01*
X16399Y27842D01*
X16352Y27773D01*
X16336Y27691D01*
X16352Y27609D01*
X16399Y27539D01*
X16438Y27513D01*
Y22889D01*
X16408Y22864D01*
X16326Y22848D01*
X16256Y22801D01*
X16210Y22732D01*
X16194Y22650D01*
X16210Y22568D01*
X16256Y22499D01*
X16326Y22452D01*
X16408Y22436D01*
X16490Y22452D01*
X16559Y22499D01*
X16606Y22568D01*
X16622Y22650D01*
X16613Y22696D01*
X16629Y22713D01*
X16654Y22749D01*
X16662Y22792D01*
X16662Y22792D01*
Y27513D01*
X16701Y27539D01*
X16748Y27609D01*
X16764Y27691D01*
X16748Y27773D01*
X16701Y27842D01*
X16632Y27889D01*
X16550Y27905D01*
D02*
G37*
G36*
X9687Y22549D02*
X9594Y22537D01*
X9508Y22501D01*
X9434Y22444D01*
X9377Y22370D01*
X9341Y22283D01*
X9329Y22191D01*
X9341Y22098D01*
X9377Y22011D01*
X9434Y21937D01*
X9508Y21880D01*
X9594Y21844D01*
X9687Y21832D01*
X9780Y21844D01*
X9866Y21880D01*
X9941Y21937D01*
X9997Y22011D01*
X10033Y22098D01*
X10045Y22191D01*
X10033Y22283D01*
X9997Y22370D01*
X9941Y22444D01*
X9866Y22501D01*
X9780Y22537D01*
X9687Y22549D01*
D02*
G37*
G36*
X8687D02*
X8594Y22537D01*
X8508Y22501D01*
X8434Y22444D01*
X8377Y22370D01*
X8341Y22283D01*
X8329Y22191D01*
X8341Y22098D01*
X8377Y22011D01*
X8434Y21937D01*
X8508Y21880D01*
X8594Y21844D01*
X8687Y21832D01*
X8780Y21844D01*
X8866Y21880D01*
X8941Y21937D01*
X8997Y22011D01*
X9033Y22098D01*
X9045Y22191D01*
X9033Y22283D01*
X8997Y22370D01*
X8941Y22444D01*
X8866Y22501D01*
X8780Y22537D01*
X8687Y22549D01*
D02*
G37*
G36*
X7687D02*
X7594Y22537D01*
X7508Y22501D01*
X7434Y22444D01*
X7377Y22370D01*
X7341Y22283D01*
X7329Y22191D01*
X7341Y22098D01*
X7377Y22011D01*
X7434Y21937D01*
X7508Y21880D01*
X7594Y21844D01*
X7687Y21832D01*
X7780Y21844D01*
X7866Y21880D01*
X7941Y21937D01*
X7997Y22011D01*
X8033Y22098D01*
X8045Y22191D01*
X8033Y22283D01*
X7997Y22370D01*
X7941Y22444D01*
X7866Y22501D01*
X7780Y22537D01*
X7687Y22549D01*
D02*
G37*
G36*
X55700Y27888D02*
X55618Y27872D01*
X55549Y27825D01*
X55502Y27756D01*
X55486Y27674D01*
X55502Y27592D01*
X55549Y27522D01*
X55588Y27496D01*
Y21599D01*
X55549Y21573D01*
X55502Y21503D01*
X55486Y21421D01*
X55502Y21339D01*
X55549Y21270D01*
X55618Y21223D01*
X55700Y21207D01*
X55782Y21223D01*
X55851Y21270D01*
X55898Y21339D01*
X55914Y21421D01*
X55898Y21503D01*
X55851Y21573D01*
X55812Y21599D01*
Y27496D01*
X55851Y27522D01*
X55898Y27592D01*
X55914Y27674D01*
X55898Y27756D01*
X55851Y27825D01*
X55782Y27872D01*
X55700Y27888D01*
D02*
G37*
G36*
X56251Y27913D02*
X56169Y27897D01*
X56100Y27850D01*
X56053Y27781D01*
X56037Y27699D01*
X56053Y27617D01*
X56100Y27547D01*
X56139Y27521D01*
Y21312D01*
X56068Y21298D01*
X55999Y21251D01*
X55952Y21182D01*
X55936Y21100D01*
X55952Y21018D01*
X55999Y20949D01*
X56068Y20902D01*
X56150Y20886D01*
X56232Y20902D01*
X56301Y20949D01*
X56348Y21018D01*
X56364Y21100D01*
X56353Y21156D01*
X56355Y21158D01*
X56363Y21201D01*
Y27521D01*
X56403Y27547D01*
X56449Y27617D01*
X56465Y27699D01*
X56449Y27781D01*
X56403Y27850D01*
X56333Y27897D01*
X56251Y27913D01*
D02*
G37*
G36*
X6042Y21546D02*
X5332D01*
Y20835D01*
X6042D01*
Y21546D01*
D02*
G37*
G36*
X6687Y21549D02*
X6594Y21537D01*
X6508Y21501D01*
X6434Y21444D01*
X6377Y21370D01*
X6341Y21283D01*
X6329Y21191D01*
X6341Y21098D01*
X6377Y21011D01*
X6434Y20937D01*
X6508Y20880D01*
X6594Y20844D01*
X6687Y20832D01*
X6780Y20844D01*
X6866Y20880D01*
X6941Y20937D01*
X6997Y21011D01*
X7033Y21098D01*
X7045Y21191D01*
X7033Y21283D01*
X6997Y21370D01*
X6941Y21444D01*
X6866Y21501D01*
X6780Y21537D01*
X6687Y21549D01*
D02*
G37*
G36*
X62305Y20255D02*
X61595D01*
Y19545D01*
X62305D01*
Y20255D01*
D02*
G37*
G36*
X6890Y19558D02*
X6808Y19541D01*
X6739Y19495D01*
X6713Y19456D01*
X5544D01*
X5501Y19447D01*
X5464Y19423D01*
X5464Y19423D01*
X5240Y19199D01*
X5194Y19208D01*
X5112Y19192D01*
X5042Y19145D01*
X4996Y19076D01*
X4980Y18994D01*
X4996Y18912D01*
X5042Y18842D01*
X5112Y18796D01*
X5194Y18780D01*
X5276Y18796D01*
X5345Y18842D01*
X5392Y18912D01*
X5408Y18994D01*
X5399Y19040D01*
X5590Y19231D01*
X6713D01*
X6739Y19192D01*
X6808Y19146D01*
X6890Y19130D01*
X6972Y19146D01*
X7042Y19192D01*
X7088Y19262D01*
X7104Y19344D01*
X7088Y19426D01*
X7042Y19495D01*
X6972Y19541D01*
X6890Y19558D01*
D02*
G37*
G36*
X2550Y19350D02*
X2457Y19338D01*
X2371Y19302D01*
X2297Y19246D01*
X2240Y19171D01*
X2204Y19085D01*
X2192Y18992D01*
X2204Y18899D01*
X2240Y18813D01*
X2297Y18739D01*
X2371Y18682D01*
X2457Y18646D01*
X2550Y18634D01*
X2643Y18646D01*
X2729Y18682D01*
X2803Y18739D01*
X2860Y18813D01*
X2896Y18899D01*
X2908Y18992D01*
X2896Y19085D01*
X2860Y19171D01*
X2803Y19246D01*
X2729Y19302D01*
X2643Y19338D01*
X2550Y19350D01*
D02*
G37*
G36*
X61950Y19258D02*
X61857Y19246D01*
X61771Y19210D01*
X61697Y19153D01*
X61640Y19079D01*
X61604Y18993D01*
X61592Y18900D01*
X61604Y18807D01*
X61640Y18721D01*
X61697Y18647D01*
X61771Y18590D01*
X61857Y18554D01*
X61950Y18542D01*
X62043Y18554D01*
X62129Y18590D01*
X62203Y18647D01*
X62260Y18721D01*
X62296Y18807D01*
X62308Y18900D01*
X62296Y18993D01*
X62260Y19079D01*
X62203Y19153D01*
X62129Y19210D01*
X62043Y19246D01*
X61950Y19258D01*
D02*
G37*
G36*
X2550Y18366D02*
X2457Y18354D01*
X2371Y18318D01*
X2297Y18261D01*
X2240Y18187D01*
X2204Y18101D01*
X2192Y18008D01*
X2204Y17915D01*
X2240Y17829D01*
X2297Y17754D01*
X2371Y17698D01*
X2457Y17662D01*
X2550Y17650D01*
X2643Y17662D01*
X2729Y17698D01*
X2803Y17754D01*
X2860Y17829D01*
X2896Y17915D01*
X2908Y18008D01*
X2896Y18101D01*
X2860Y18187D01*
X2803Y18261D01*
X2729Y18318D01*
X2643Y18354D01*
X2550Y18366D01*
D02*
G37*
G36*
X61950Y18258D02*
X61857Y18246D01*
X61771Y18210D01*
X61697Y18153D01*
X61640Y18079D01*
X61604Y17993D01*
X61592Y17900D01*
X61604Y17807D01*
X61640Y17721D01*
X61697Y17647D01*
X61771Y17590D01*
X61857Y17554D01*
X61950Y17542D01*
X62043Y17554D01*
X62129Y17590D01*
X62203Y17647D01*
X62260Y17721D01*
X62296Y17807D01*
X62308Y17900D01*
X62296Y17993D01*
X62260Y18079D01*
X62203Y18153D01*
X62129Y18210D01*
X62043Y18246D01*
X61950Y18258D01*
D02*
G37*
G36*
X4401Y28208D02*
X4308Y28196D01*
X4222Y28160D01*
X4147Y28103D01*
X4090Y28029D01*
X4055Y27943D01*
X4042Y27850D01*
X4055Y27757D01*
X4090Y27671D01*
X4147Y27597D01*
X4222Y27540D01*
X4308Y27504D01*
X4335Y27500D01*
X4335Y15315D01*
X4299Y15290D01*
X4252Y15221D01*
X4236Y15139D01*
X4252Y15057D01*
X4299Y14988D01*
X4368Y14941D01*
X4450Y14925D01*
X4496Y14934D01*
X5069Y14361D01*
X5069Y14361D01*
X5106Y14337D01*
X5148Y14328D01*
X5148Y14328D01*
X7810D01*
X7836Y14289D01*
X7905Y14243D01*
X7987Y14226D01*
X8069Y14243D01*
X8139Y14289D01*
X8185Y14359D01*
X8201Y14441D01*
X8185Y14522D01*
X8139Y14592D01*
X8069Y14638D01*
X7987Y14655D01*
X7905Y14638D01*
X7836Y14592D01*
X7810Y14553D01*
X5195D01*
X4655Y15093D01*
X4664Y15139D01*
X4648Y15221D01*
X4601Y15290D01*
X4560Y15318D01*
X4560Y23244D01*
X4610Y23257D01*
X4649Y23199D01*
X4675Y23181D01*
Y16895D01*
X4675Y16895D01*
X4684Y16852D01*
X4708Y16816D01*
X4882Y16642D01*
X4873Y16595D01*
X4889Y16513D01*
X4936Y16444D01*
X5005Y16397D01*
X5087Y16381D01*
X5169Y16397D01*
X5239Y16444D01*
X5285Y16513D01*
X5301Y16595D01*
X5285Y16677D01*
X5239Y16747D01*
X5169Y16793D01*
X5087Y16809D01*
X5041Y16800D01*
X4899Y16942D01*
Y23164D01*
X4951Y23199D01*
X4998Y23268D01*
X5014Y23350D01*
X4998Y23432D01*
X4951Y23501D01*
X4882Y23548D01*
X4800Y23564D01*
X4718Y23548D01*
X4649Y23501D01*
X4610Y23443D01*
X4560Y23456D01*
Y27531D01*
X4580Y27540D01*
X4654Y27597D01*
X4711Y27671D01*
X4747Y27757D01*
X4759Y27850D01*
X4747Y27943D01*
X4711Y28029D01*
X4654Y28103D01*
X4580Y28160D01*
X4494Y28196D01*
X4401Y28208D01*
D02*
G37*
G36*
X2905Y20332D02*
X2195D01*
Y19621D01*
X2602D01*
X3223Y19001D01*
Y16494D01*
X3239Y16412D01*
X3286Y16342D01*
X3355Y16296D01*
X3437Y16280D01*
X3519Y16296D01*
X3589Y16342D01*
X3635Y16412D01*
X3651Y16494D01*
Y19089D01*
X3635Y19171D01*
X3589Y19241D01*
X2905Y19924D01*
Y20332D01*
D02*
G37*
G36*
X8750Y14845D02*
X8668Y14829D01*
X8599Y14783D01*
X8552Y14713D01*
X8536Y14631D01*
X8552Y14549D01*
X8599Y14480D01*
X8668Y14433D01*
X8750Y14417D01*
X8832Y14433D01*
X8901Y14480D01*
X8948Y14549D01*
X8964Y14631D01*
X8948Y14713D01*
X8901Y14783D01*
X8832Y14829D01*
X8750Y14845D01*
D02*
G37*
G36*
X10250Y14814D02*
X10168Y14798D01*
X10099Y14751D01*
X10052Y14682D01*
X10036Y14600D01*
X10052Y14518D01*
X10099Y14449D01*
X10168Y14402D01*
X10250Y14386D01*
X10332Y14402D01*
X10401Y14449D01*
X10448Y14518D01*
X10464Y14600D01*
X10448Y14682D01*
X10401Y14751D01*
X10332Y14798D01*
X10250Y14814D01*
D02*
G37*
G36*
X28673Y11382D02*
X28591Y11366D01*
X28521Y11319D01*
X28475Y11250D01*
X28459Y11168D01*
X28469Y11118D01*
X28453Y11095D01*
X28444Y11052D01*
X28444Y11052D01*
Y8371D01*
X28436Y8365D01*
X28368Y8377D01*
X28351Y8401D01*
X28285Y8446D01*
Y10990D01*
X28324Y11016D01*
X28371Y11086D01*
X28387Y11168D01*
X28371Y11250D01*
X28324Y11319D01*
X28255Y11366D01*
X28173Y11382D01*
X28091Y11366D01*
X28021Y11319D01*
X27975Y11250D01*
X27959Y11168D01*
X27975Y11086D01*
X28021Y11016D01*
X28061Y10990D01*
Y8409D01*
X28049Y8401D01*
X28002Y8332D01*
X27986Y8250D01*
X28002Y8168D01*
X28049Y8099D01*
X28118Y8052D01*
X28200Y8036D01*
X28282Y8052D01*
X28351Y8099D01*
X28368Y8123D01*
X28436Y8135D01*
X28444Y8129D01*
Y7072D01*
X28370Y7041D01*
X28293Y6982D01*
X28233Y6905D01*
X28196Y6815D01*
X28183Y6718D01*
X28196Y6622D01*
X28233Y6532D01*
X28293Y6454D01*
X28370Y6395D01*
X28460Y6358D01*
X28557Y6345D01*
X28653Y6358D01*
X28743Y6395D01*
X28821Y6454D01*
X28880Y6532D01*
X28917Y6622D01*
X28930Y6718D01*
X28917Y6815D01*
X28880Y6905D01*
X28821Y6982D01*
X28743Y7041D01*
X28669Y7072D01*
Y10951D01*
X28673Y10954D01*
X28755Y10970D01*
X28824Y11016D01*
X28871Y11086D01*
X28887Y11168D01*
X28871Y11250D01*
X28824Y11319D01*
X28755Y11366D01*
X28673Y11382D01*
D02*
G37*
G36*
X42448D02*
X42366Y11366D01*
X42297Y11319D01*
X42250Y11250D01*
X42234Y11168D01*
X42250Y11086D01*
X42297Y11016D01*
X42336Y10990D01*
Y8326D01*
X42299Y8301D01*
X42252Y8232D01*
X42236Y8150D01*
X42252Y8068D01*
X42299Y7999D01*
X42368Y7952D01*
X42450Y7936D01*
X42532Y7952D01*
X42601Y7999D01*
X42648Y8068D01*
X42664Y8150D01*
X42648Y8232D01*
X42601Y8301D01*
X42560Y8329D01*
Y10990D01*
X42599Y11016D01*
X42646Y11086D01*
X42662Y11168D01*
X42646Y11250D01*
X42599Y11319D01*
X42530Y11366D01*
X42448Y11382D01*
D02*
G37*
G36*
X15258D02*
X15176Y11366D01*
X15107Y11319D01*
X15060Y11250D01*
X15044Y11168D01*
X15060Y11086D01*
X15107Y11016D01*
X15146Y10990D01*
Y8233D01*
X15099Y8201D01*
X15052Y8132D01*
X15036Y8050D01*
X15052Y7968D01*
X15099Y7899D01*
X15168Y7852D01*
X15250Y7836D01*
X15332Y7852D01*
X15401Y7899D01*
X15448Y7968D01*
X15464Y8050D01*
X15448Y8132D01*
X15401Y8201D01*
X15370Y8222D01*
Y10990D01*
X15409Y11016D01*
X15456Y11086D01*
X15472Y11168D01*
X15456Y11250D01*
X15409Y11319D01*
X15340Y11366D01*
X15258Y11382D01*
D02*
G37*
G36*
X54948Y11434D02*
X54866Y11418D01*
X54797Y11371D01*
X54750Y11302D01*
X54734Y11220D01*
X54750Y11138D01*
X54797Y11068D01*
X54836Y11042D01*
Y8003D01*
X54833Y8001D01*
X54787Y7932D01*
X54771Y7850D01*
X54787Y7768D01*
X54833Y7699D01*
X54903Y7652D01*
X54985Y7636D01*
X55067Y7652D01*
X55136Y7699D01*
X55182Y7768D01*
X55199Y7850D01*
X55182Y7932D01*
X55136Y8001D01*
X55067Y8048D01*
X55060Y8049D01*
Y11042D01*
X55099Y11068D01*
X55146Y11138D01*
X55162Y11220D01*
X55146Y11302D01*
X55099Y11371D01*
X55030Y11418D01*
X54948Y11434D01*
D02*
G37*
G36*
X42948Y11382D02*
X42866Y11366D01*
X42797Y11319D01*
X42750Y11250D01*
X42734Y11168D01*
X42750Y11086D01*
X42797Y11016D01*
X42836Y10990D01*
Y7919D01*
X41964Y7048D01*
X41890Y7079D01*
X41793Y7091D01*
X41697Y7079D01*
X41607Y7041D01*
X41529Y6982D01*
X41470Y6905D01*
X41433Y6815D01*
X41420Y6718D01*
X41433Y6622D01*
X41470Y6532D01*
X41529Y6454D01*
X41607Y6395D01*
X41697Y6358D01*
X41793Y6345D01*
X41890Y6358D01*
X41980Y6395D01*
X42057Y6454D01*
X42116Y6532D01*
X42154Y6622D01*
X42166Y6718D01*
X42154Y6815D01*
X42123Y6889D01*
X43027Y7794D01*
X43027Y7794D01*
X43052Y7830D01*
X43060Y7873D01*
X43060Y7873D01*
Y10990D01*
X43099Y11016D01*
X43146Y11086D01*
X43162Y11168D01*
X43146Y11250D01*
X43099Y11319D01*
X43030Y11366D01*
X42948Y11382D01*
D02*
G37*
G36*
X15821D02*
X15739Y11366D01*
X15669Y11319D01*
X15623Y11250D01*
X15607Y11168D01*
X15623Y11086D01*
X15669Y11016D01*
X15709Y10990D01*
Y7502D01*
X15255Y7048D01*
X15180Y7079D01*
X15084Y7091D01*
X14987Y7079D01*
X14897Y7041D01*
X14820Y6982D01*
X14760Y6905D01*
X14723Y6815D01*
X14710Y6718D01*
X14723Y6622D01*
X14760Y6532D01*
X14820Y6454D01*
X14897Y6395D01*
X14987Y6358D01*
X15084Y6345D01*
X15180Y6358D01*
X15270Y6395D01*
X15347Y6454D01*
X15407Y6532D01*
X15444Y6622D01*
X15457Y6718D01*
X15444Y6815D01*
X15413Y6889D01*
X15900Y7376D01*
X15900Y7376D01*
X15924Y7413D01*
X15933Y7455D01*
Y10990D01*
X15972Y11016D01*
X16019Y11086D01*
X16035Y11168D01*
X16019Y11250D01*
X15972Y11319D01*
X15903Y11366D01*
X15821Y11382D01*
D02*
G37*
G36*
X55448Y11434D02*
X55366Y11418D01*
X55297Y11371D01*
X55250Y11302D01*
X55234Y11220D01*
X55250Y11138D01*
X55297Y11068D01*
X55336Y11042D01*
Y7228D01*
X55156Y7048D01*
X55081Y7079D01*
X54985Y7091D01*
X54888Y7079D01*
X54798Y7041D01*
X54721Y6982D01*
X54661Y6905D01*
X54624Y6815D01*
X54611Y6718D01*
X54624Y6622D01*
X54661Y6532D01*
X54721Y6454D01*
X54798Y6395D01*
X54888Y6358D01*
X54985Y6345D01*
X55081Y6358D01*
X55171Y6395D01*
X55249Y6454D01*
X55308Y6532D01*
X55345Y6622D01*
X55358Y6718D01*
X55345Y6815D01*
X55314Y6889D01*
X55527Y7102D01*
X55527Y7102D01*
X55552Y7139D01*
X55560Y7182D01*
Y11042D01*
X55599Y11068D01*
X55646Y11138D01*
X55662Y11220D01*
X55646Y11302D01*
X55599Y11371D01*
X55530Y11418D01*
X55448Y11434D01*
D02*
G37*
G36*
X54268Y7088D02*
X53528D01*
Y6348D01*
X54268D01*
Y7088D01*
D02*
G37*
G36*
X41077D02*
X40337D01*
Y6348D01*
X41077D01*
Y7088D01*
D02*
G37*
G36*
X27840D02*
X27100D01*
Y6348D01*
X27840D01*
Y7088D01*
D02*
G37*
G36*
X14367D02*
X13627D01*
Y6348D01*
X14367D01*
Y7088D01*
D02*
G37*
G36*
X57158Y7091D02*
X57061Y7079D01*
X56971Y7041D01*
X56894Y6982D01*
X56835Y6905D01*
X56797Y6815D01*
X56785Y6718D01*
X56797Y6622D01*
X56835Y6532D01*
X56894Y6454D01*
X56971Y6395D01*
X57061Y6358D01*
X57158Y6345D01*
X57254Y6358D01*
X57344Y6395D01*
X57422Y6454D01*
X57481Y6532D01*
X57518Y6622D01*
X57531Y6718D01*
X57518Y6815D01*
X57481Y6905D01*
X57422Y6982D01*
X57344Y7041D01*
X57254Y7079D01*
X57158Y7091D01*
D02*
G37*
G36*
X56071D02*
X55975Y7079D01*
X55885Y7041D01*
X55807Y6982D01*
X55748Y6905D01*
X55711Y6815D01*
X55698Y6718D01*
X55711Y6622D01*
X55748Y6532D01*
X55807Y6454D01*
X55885Y6395D01*
X55975Y6358D01*
X56071Y6345D01*
X56168Y6358D01*
X56258Y6395D01*
X56335Y6454D01*
X56394Y6532D01*
X56432Y6622D01*
X56444Y6718D01*
X56432Y6815D01*
X56394Y6905D01*
X56335Y6982D01*
X56258Y7041D01*
X56168Y7079D01*
X56071Y7091D01*
D02*
G37*
G36*
X43966D02*
X43870Y7079D01*
X43780Y7041D01*
X43703Y6982D01*
X43643Y6905D01*
X43606Y6815D01*
X43593Y6718D01*
X43606Y6622D01*
X43643Y6532D01*
X43703Y6454D01*
X43780Y6395D01*
X43870Y6358D01*
X43966Y6345D01*
X44063Y6358D01*
X44153Y6395D01*
X44230Y6454D01*
X44290Y6532D01*
X44327Y6622D01*
X44340Y6718D01*
X44327Y6815D01*
X44290Y6905D01*
X44230Y6982D01*
X44153Y7041D01*
X44063Y7079D01*
X43966Y7091D01*
D02*
G37*
G36*
X42880D02*
X42783Y7079D01*
X42693Y7041D01*
X42616Y6982D01*
X42557Y6905D01*
X42519Y6815D01*
X42507Y6718D01*
X42519Y6622D01*
X42557Y6532D01*
X42616Y6454D01*
X42693Y6395D01*
X42783Y6358D01*
X42880Y6345D01*
X42976Y6358D01*
X43066Y6395D01*
X43144Y6454D01*
X43203Y6532D01*
X43240Y6622D01*
X43253Y6718D01*
X43240Y6815D01*
X43203Y6905D01*
X43144Y6982D01*
X43066Y7041D01*
X42976Y7079D01*
X42880Y7091D01*
D02*
G37*
G36*
X30730D02*
X30633Y7079D01*
X30543Y7041D01*
X30466Y6982D01*
X30407Y6905D01*
X30369Y6815D01*
X30357Y6718D01*
X30369Y6622D01*
X30407Y6532D01*
X30466Y6454D01*
X30543Y6395D01*
X30633Y6358D01*
X30730Y6345D01*
X30826Y6358D01*
X30916Y6395D01*
X30994Y6454D01*
X31053Y6532D01*
X31090Y6622D01*
X31103Y6718D01*
X31090Y6815D01*
X31053Y6905D01*
X30994Y6982D01*
X30916Y7041D01*
X30826Y7079D01*
X30730Y7091D01*
D02*
G37*
G36*
X29643D02*
X29547Y7079D01*
X29457Y7041D01*
X29379Y6982D01*
X29320Y6905D01*
X29283Y6815D01*
X29270Y6718D01*
X29283Y6622D01*
X29320Y6532D01*
X29379Y6454D01*
X29457Y6395D01*
X29547Y6358D01*
X29643Y6345D01*
X29740Y6358D01*
X29830Y6395D01*
X29907Y6454D01*
X29966Y6532D01*
X30004Y6622D01*
X30016Y6718D01*
X30004Y6815D01*
X29966Y6905D01*
X29907Y6982D01*
X29830Y7041D01*
X29740Y7079D01*
X29643Y7091D01*
D02*
G37*
G36*
X17257D02*
X17160Y7079D01*
X17070Y7041D01*
X16993Y6982D01*
X16933Y6905D01*
X16896Y6815D01*
X16884Y6718D01*
X16896Y6622D01*
X16933Y6532D01*
X16993Y6454D01*
X17070Y6395D01*
X17160Y6358D01*
X17257Y6345D01*
X17353Y6358D01*
X17443Y6395D01*
X17521Y6454D01*
X17580Y6532D01*
X17617Y6622D01*
X17630Y6718D01*
X17617Y6815D01*
X17580Y6905D01*
X17521Y6982D01*
X17443Y7041D01*
X17353Y7079D01*
X17257Y7091D01*
D02*
G37*
G36*
X16170D02*
X16074Y7079D01*
X15984Y7041D01*
X15906Y6982D01*
X15847Y6905D01*
X15810Y6815D01*
X15797Y6718D01*
X15810Y6622D01*
X15847Y6532D01*
X15906Y6454D01*
X15984Y6395D01*
X16074Y6358D01*
X16170Y6345D01*
X16267Y6358D01*
X16357Y6395D01*
X16434Y6454D01*
X16493Y6532D01*
X16531Y6622D01*
X16543Y6718D01*
X16531Y6815D01*
X16493Y6905D01*
X16434Y6982D01*
X16357Y7041D01*
X16267Y7079D01*
X16170Y7091D01*
D02*
G37*
G36*
X57701Y5973D02*
X57605Y5960D01*
X57515Y5923D01*
X57437Y5864D01*
X57378Y5787D01*
X57341Y5697D01*
X57328Y5600D01*
X57341Y5503D01*
X57378Y5413D01*
X57437Y5336D01*
X57515Y5277D01*
X57605Y5240D01*
X57701Y5227D01*
X57798Y5240D01*
X57888Y5277D01*
X57965Y5336D01*
X58024Y5413D01*
X58062Y5503D01*
X58074Y5600D01*
X58062Y5697D01*
X58024Y5787D01*
X57965Y5864D01*
X57888Y5923D01*
X57798Y5960D01*
X57701Y5973D01*
D02*
G37*
G36*
X56615D02*
X56518Y5960D01*
X56428Y5923D01*
X56351Y5864D01*
X56291Y5787D01*
X56254Y5697D01*
X56241Y5600D01*
X56254Y5503D01*
X56291Y5413D01*
X56351Y5336D01*
X56428Y5277D01*
X56518Y5240D01*
X56615Y5227D01*
X56711Y5240D01*
X56801Y5277D01*
X56878Y5336D01*
X56938Y5413D01*
X56975Y5503D01*
X56988Y5600D01*
X56975Y5697D01*
X56938Y5787D01*
X56878Y5864D01*
X56801Y5923D01*
X56711Y5960D01*
X56615Y5973D01*
D02*
G37*
G36*
X55528D02*
X55431Y5960D01*
X55341Y5923D01*
X55264Y5864D01*
X55205Y5787D01*
X55167Y5697D01*
X55155Y5600D01*
X55167Y5503D01*
X55205Y5413D01*
X55264Y5336D01*
X55341Y5277D01*
X55431Y5240D01*
X55528Y5227D01*
X55625Y5240D01*
X55715Y5277D01*
X55792Y5336D01*
X55851Y5413D01*
X55888Y5503D01*
X55901Y5600D01*
X55888Y5697D01*
X55851Y5787D01*
X55792Y5864D01*
X55715Y5923D01*
X55625Y5960D01*
X55528Y5973D01*
D02*
G37*
G36*
X54441D02*
X54345Y5960D01*
X54255Y5923D01*
X54177Y5864D01*
X54118Y5787D01*
X54081Y5697D01*
X54068Y5600D01*
X54081Y5503D01*
X54118Y5413D01*
X54177Y5336D01*
X54255Y5277D01*
X54345Y5240D01*
X54441Y5227D01*
X54538Y5240D01*
X54628Y5277D01*
X54705Y5336D01*
X54765Y5413D01*
X54802Y5503D01*
X54815Y5600D01*
X54802Y5697D01*
X54765Y5787D01*
X54705Y5864D01*
X54628Y5923D01*
X54538Y5960D01*
X54441Y5973D01*
D02*
G37*
G36*
X44510D02*
X44413Y5960D01*
X44323Y5923D01*
X44246Y5864D01*
X44187Y5787D01*
X44149Y5697D01*
X44137Y5600D01*
X44149Y5503D01*
X44187Y5413D01*
X44246Y5336D01*
X44323Y5277D01*
X44413Y5240D01*
X44510Y5227D01*
X44606Y5240D01*
X44696Y5277D01*
X44774Y5336D01*
X44833Y5413D01*
X44870Y5503D01*
X44883Y5600D01*
X44870Y5697D01*
X44833Y5787D01*
X44774Y5864D01*
X44696Y5923D01*
X44606Y5960D01*
X44510Y5973D01*
D02*
G37*
G36*
X43423D02*
X43327Y5960D01*
X43237Y5923D01*
X43159Y5864D01*
X43100Y5787D01*
X43063Y5697D01*
X43050Y5600D01*
X43063Y5503D01*
X43100Y5413D01*
X43159Y5336D01*
X43237Y5277D01*
X43327Y5240D01*
X43423Y5227D01*
X43520Y5240D01*
X43610Y5277D01*
X43687Y5336D01*
X43746Y5413D01*
X43784Y5503D01*
X43796Y5600D01*
X43784Y5697D01*
X43746Y5787D01*
X43687Y5864D01*
X43610Y5923D01*
X43520Y5960D01*
X43423Y5973D01*
D02*
G37*
G36*
X42337D02*
X42240Y5960D01*
X42150Y5923D01*
X42073Y5864D01*
X42013Y5787D01*
X41976Y5697D01*
X41963Y5600D01*
X41976Y5503D01*
X42013Y5413D01*
X42073Y5336D01*
X42150Y5277D01*
X42240Y5240D01*
X42337Y5227D01*
X42433Y5240D01*
X42523Y5277D01*
X42600Y5336D01*
X42660Y5413D01*
X42697Y5503D01*
X42710Y5600D01*
X42697Y5697D01*
X42660Y5787D01*
X42600Y5864D01*
X42523Y5923D01*
X42433Y5960D01*
X42337Y5973D01*
D02*
G37*
G36*
X41250D02*
X41153Y5960D01*
X41063Y5923D01*
X40986Y5864D01*
X40927Y5787D01*
X40889Y5697D01*
X40877Y5600D01*
X40889Y5503D01*
X40927Y5413D01*
X40986Y5336D01*
X41063Y5277D01*
X41153Y5240D01*
X41250Y5227D01*
X41347Y5240D01*
X41437Y5277D01*
X41514Y5336D01*
X41573Y5413D01*
X41610Y5503D01*
X41623Y5600D01*
X41610Y5697D01*
X41573Y5787D01*
X41514Y5864D01*
X41437Y5923D01*
X41347Y5960D01*
X41250Y5973D01*
D02*
G37*
G36*
X31273D02*
X31177Y5960D01*
X31087Y5923D01*
X31009Y5864D01*
X30950Y5787D01*
X30913Y5697D01*
X30900Y5600D01*
X30913Y5503D01*
X30950Y5413D01*
X31009Y5336D01*
X31087Y5277D01*
X31177Y5240D01*
X31273Y5227D01*
X31370Y5240D01*
X31460Y5277D01*
X31537Y5336D01*
X31596Y5413D01*
X31634Y5503D01*
X31646Y5600D01*
X31634Y5697D01*
X31596Y5787D01*
X31537Y5864D01*
X31460Y5923D01*
X31370Y5960D01*
X31273Y5973D01*
D02*
G37*
G36*
X30187D02*
X30090Y5960D01*
X30000Y5923D01*
X29923Y5864D01*
X29863Y5787D01*
X29826Y5697D01*
X29813Y5600D01*
X29826Y5503D01*
X29863Y5413D01*
X29923Y5336D01*
X30000Y5277D01*
X30090Y5240D01*
X30187Y5227D01*
X30283Y5240D01*
X30373Y5277D01*
X30450Y5336D01*
X30510Y5413D01*
X30547Y5503D01*
X30560Y5600D01*
X30547Y5697D01*
X30510Y5787D01*
X30450Y5864D01*
X30373Y5923D01*
X30283Y5960D01*
X30187Y5973D01*
D02*
G37*
G36*
X29100D02*
X29003Y5960D01*
X28913Y5923D01*
X28836Y5864D01*
X28777Y5787D01*
X28739Y5697D01*
X28727Y5600D01*
X28739Y5503D01*
X28777Y5413D01*
X28836Y5336D01*
X28913Y5277D01*
X29003Y5240D01*
X29100Y5227D01*
X29197Y5240D01*
X29287Y5277D01*
X29364Y5336D01*
X29423Y5413D01*
X29460Y5503D01*
X29473Y5600D01*
X29460Y5697D01*
X29423Y5787D01*
X29364Y5864D01*
X29287Y5923D01*
X29197Y5960D01*
X29100Y5973D01*
D02*
G37*
G36*
X28013D02*
X27917Y5960D01*
X27827Y5923D01*
X27749Y5864D01*
X27690Y5787D01*
X27653Y5697D01*
X27640Y5600D01*
X27653Y5503D01*
X27690Y5413D01*
X27749Y5336D01*
X27827Y5277D01*
X27917Y5240D01*
X28013Y5227D01*
X28110Y5240D01*
X28200Y5277D01*
X28277Y5336D01*
X28337Y5413D01*
X28374Y5503D01*
X28387Y5600D01*
X28374Y5697D01*
X28337Y5787D01*
X28277Y5864D01*
X28200Y5923D01*
X28110Y5960D01*
X28013Y5973D01*
D02*
G37*
G36*
X17800D02*
X17703Y5960D01*
X17613Y5923D01*
X17536Y5864D01*
X17477Y5787D01*
X17440Y5697D01*
X17427Y5600D01*
X17440Y5503D01*
X17477Y5413D01*
X17536Y5336D01*
X17613Y5277D01*
X17703Y5240D01*
X17800Y5227D01*
X17897Y5240D01*
X17987Y5277D01*
X18064Y5336D01*
X18123Y5413D01*
X18160Y5503D01*
X18173Y5600D01*
X18160Y5697D01*
X18123Y5787D01*
X18064Y5864D01*
X17987Y5923D01*
X17897Y5960D01*
X17800Y5973D01*
D02*
G37*
G36*
X16713D02*
X16617Y5960D01*
X16527Y5923D01*
X16450Y5864D01*
X16390Y5787D01*
X16353Y5697D01*
X16340Y5600D01*
X16353Y5503D01*
X16390Y5413D01*
X16450Y5336D01*
X16527Y5277D01*
X16617Y5240D01*
X16713Y5227D01*
X16810Y5240D01*
X16900Y5277D01*
X16977Y5336D01*
X17037Y5413D01*
X17074Y5503D01*
X17087Y5600D01*
X17074Y5697D01*
X17037Y5787D01*
X16977Y5864D01*
X16900Y5923D01*
X16810Y5960D01*
X16713Y5973D01*
D02*
G37*
G36*
X15627D02*
X15530Y5960D01*
X15440Y5923D01*
X15363Y5864D01*
X15304Y5787D01*
X15266Y5697D01*
X15254Y5600D01*
X15266Y5503D01*
X15304Y5413D01*
X15363Y5336D01*
X15440Y5277D01*
X15530Y5240D01*
X15627Y5227D01*
X15723Y5240D01*
X15813Y5277D01*
X15891Y5336D01*
X15950Y5413D01*
X15987Y5503D01*
X16000Y5600D01*
X15987Y5697D01*
X15950Y5787D01*
X15891Y5864D01*
X15813Y5923D01*
X15723Y5960D01*
X15627Y5973D01*
D02*
G37*
G36*
X14540D02*
X14444Y5960D01*
X14354Y5923D01*
X14276Y5864D01*
X14217Y5787D01*
X14180Y5697D01*
X14167Y5600D01*
X14180Y5503D01*
X14217Y5413D01*
X14276Y5336D01*
X14354Y5277D01*
X14444Y5240D01*
X14540Y5227D01*
X14637Y5240D01*
X14727Y5277D01*
X14804Y5336D01*
X14863Y5413D01*
X14901Y5503D01*
X14913Y5600D01*
X14901Y5697D01*
X14863Y5787D01*
X14804Y5864D01*
X14727Y5923D01*
X14637Y5960D01*
X14540Y5973D01*
D02*
G37*
G36*
X60993Y7207D02*
X60829Y7194D01*
X60669Y7155D01*
X60517Y7092D01*
X60377Y7007D01*
X60252Y6900D01*
X60145Y6775D01*
X60059Y6635D01*
X59996Y6483D01*
X59958Y6323D01*
X59945Y6159D01*
X59958Y5995D01*
X59996Y5835D01*
X60059Y5684D01*
X60145Y5543D01*
X60252Y5418D01*
X60377Y5312D01*
X60517Y5226D01*
X60669Y5163D01*
X60829Y5125D01*
X60993Y5112D01*
X61156Y5125D01*
X61316Y5163D01*
X61468Y5226D01*
X61608Y5312D01*
X61733Y5418D01*
X61840Y5543D01*
X61926Y5684D01*
X61989Y5835D01*
X62027Y5995D01*
X62040Y6159D01*
X62027Y6323D01*
X61989Y6483D01*
X61926Y6635D01*
X61840Y6775D01*
X61733Y6900D01*
X61608Y7007D01*
X61468Y7092D01*
X61316Y7155D01*
X61156Y7194D01*
X60993Y7207D01*
D02*
G37*
G36*
X51150D02*
X50986Y7194D01*
X50826Y7155D01*
X50675Y7092D01*
X50534Y7007D01*
X50409Y6900D01*
X50303Y6775D01*
X50217Y6635D01*
X50154Y6483D01*
X50115Y6323D01*
X50103Y6159D01*
X50115Y5995D01*
X50154Y5835D01*
X50217Y5684D01*
X50303Y5543D01*
X50409Y5418D01*
X50534Y5312D01*
X50675Y5226D01*
X50826Y5163D01*
X50986Y5125D01*
X51150Y5112D01*
X51314Y5125D01*
X51474Y5163D01*
X51626Y5226D01*
X51766Y5312D01*
X51891Y5418D01*
X51997Y5543D01*
X52083Y5684D01*
X52146Y5835D01*
X52185Y5995D01*
X52198Y6159D01*
X52185Y6323D01*
X52146Y6483D01*
X52083Y6635D01*
X51997Y6775D01*
X51891Y6900D01*
X51766Y7007D01*
X51626Y7092D01*
X51474Y7155D01*
X51314Y7194D01*
X51150Y7207D01*
D02*
G37*
G36*
X47801D02*
X47637Y7194D01*
X47477Y7155D01*
X47326Y7092D01*
X47185Y7007D01*
X47060Y6900D01*
X46954Y6775D01*
X46868Y6635D01*
X46805Y6483D01*
X46767Y6323D01*
X46754Y6159D01*
X46767Y5995D01*
X46805Y5835D01*
X46868Y5684D01*
X46954Y5543D01*
X47060Y5418D01*
X47185Y5312D01*
X47326Y5226D01*
X47477Y5163D01*
X47637Y5125D01*
X47801Y5112D01*
X47965Y5125D01*
X48125Y5163D01*
X48277Y5226D01*
X48417Y5312D01*
X48542Y5418D01*
X48649Y5543D01*
X48734Y5684D01*
X48797Y5835D01*
X48836Y5995D01*
X48849Y6159D01*
X48836Y6323D01*
X48797Y6483D01*
X48734Y6635D01*
X48649Y6775D01*
X48542Y6900D01*
X48417Y7007D01*
X48277Y7092D01*
X48125Y7155D01*
X47965Y7194D01*
X47801Y7207D01*
D02*
G37*
G36*
X37959D02*
X37795Y7194D01*
X37635Y7155D01*
X37483Y7092D01*
X37343Y7007D01*
X37218Y6900D01*
X37111Y6775D01*
X37025Y6635D01*
X36962Y6483D01*
X36924Y6323D01*
X36911Y6159D01*
X36924Y5995D01*
X36962Y5835D01*
X37025Y5684D01*
X37111Y5543D01*
X37218Y5418D01*
X37343Y5312D01*
X37483Y5226D01*
X37635Y5163D01*
X37795Y5125D01*
X37959Y5112D01*
X38123Y5125D01*
X38282Y5163D01*
X38434Y5226D01*
X38574Y5312D01*
X38699Y5418D01*
X38806Y5543D01*
X38892Y5684D01*
X38955Y5835D01*
X38993Y5995D01*
X39006Y6159D01*
X38993Y6323D01*
X38955Y6483D01*
X38892Y6635D01*
X38806Y6775D01*
X38699Y6900D01*
X38574Y7007D01*
X38434Y7092D01*
X38282Y7155D01*
X38123Y7194D01*
X37959Y7207D01*
D02*
G37*
G36*
X34565D02*
X34401Y7194D01*
X34241Y7155D01*
X34089Y7092D01*
X33949Y7007D01*
X33824Y6900D01*
X33717Y6775D01*
X33631Y6635D01*
X33568Y6483D01*
X33530Y6323D01*
X33517Y6159D01*
X33530Y5995D01*
X33568Y5835D01*
X33631Y5684D01*
X33717Y5543D01*
X33824Y5418D01*
X33949Y5312D01*
X34089Y5226D01*
X34241Y5163D01*
X34401Y5125D01*
X34565Y5112D01*
X34728Y5125D01*
X34888Y5163D01*
X35040Y5226D01*
X35180Y5312D01*
X35305Y5418D01*
X35412Y5543D01*
X35498Y5684D01*
X35561Y5835D01*
X35599Y5995D01*
X35612Y6159D01*
X35599Y6323D01*
X35561Y6483D01*
X35498Y6635D01*
X35412Y6775D01*
X35305Y6900D01*
X35180Y7007D01*
X35040Y7092D01*
X34888Y7155D01*
X34728Y7194D01*
X34565Y7207D01*
D02*
G37*
G36*
X24722D02*
X24558Y7194D01*
X24398Y7155D01*
X24247Y7092D01*
X24106Y7007D01*
X23981Y6900D01*
X23875Y6775D01*
X23789Y6635D01*
X23726Y6483D01*
X23687Y6323D01*
X23675Y6159D01*
X23687Y5995D01*
X23726Y5835D01*
X23789Y5684D01*
X23875Y5543D01*
X23981Y5418D01*
X24106Y5312D01*
X24247Y5226D01*
X24398Y5163D01*
X24558Y5125D01*
X24722Y5112D01*
X24886Y5125D01*
X25046Y5163D01*
X25198Y5226D01*
X25338Y5312D01*
X25463Y5418D01*
X25569Y5543D01*
X25655Y5684D01*
X25718Y5835D01*
X25757Y5995D01*
X25770Y6159D01*
X25757Y6323D01*
X25718Y6483D01*
X25655Y6635D01*
X25569Y6775D01*
X25463Y6900D01*
X25338Y7007D01*
X25198Y7092D01*
X25046Y7155D01*
X24886Y7194D01*
X24722Y7207D01*
D02*
G37*
G36*
X21091D02*
X20928Y7194D01*
X20768Y7155D01*
X20616Y7092D01*
X20476Y7007D01*
X20351Y6900D01*
X20244Y6775D01*
X20158Y6635D01*
X20095Y6483D01*
X20057Y6323D01*
X20044Y6159D01*
X20057Y5995D01*
X20095Y5835D01*
X20158Y5684D01*
X20244Y5543D01*
X20351Y5418D01*
X20476Y5312D01*
X20616Y5226D01*
X20768Y5163D01*
X20928Y5125D01*
X21091Y5112D01*
X21255Y5125D01*
X21415Y5163D01*
X21567Y5226D01*
X21707Y5312D01*
X21832Y5418D01*
X21939Y5543D01*
X22025Y5684D01*
X22088Y5835D01*
X22126Y5995D01*
X22139Y6159D01*
X22126Y6323D01*
X22088Y6483D01*
X22025Y6635D01*
X21939Y6775D01*
X21832Y6900D01*
X21707Y7007D01*
X21567Y7092D01*
X21415Y7155D01*
X21255Y7194D01*
X21091Y7207D01*
D02*
G37*
G36*
X11249D02*
X11085Y7194D01*
X10925Y7155D01*
X10773Y7092D01*
X10633Y7007D01*
X10508Y6900D01*
X10401Y6775D01*
X10316Y6635D01*
X10253Y6483D01*
X10214Y6323D01*
X10201Y6159D01*
X10214Y5995D01*
X10253Y5835D01*
X10316Y5684D01*
X10401Y5543D01*
X10508Y5418D01*
X10633Y5312D01*
X10773Y5226D01*
X10925Y5163D01*
X11085Y5125D01*
X11249Y5112D01*
X11413Y5125D01*
X11573Y5163D01*
X11724Y5226D01*
X11865Y5312D01*
X11990Y5418D01*
X12096Y5543D01*
X12182Y5684D01*
X12245Y5835D01*
X12283Y5995D01*
X12296Y6159D01*
X12283Y6323D01*
X12245Y6483D01*
X12182Y6635D01*
X12096Y6775D01*
X11990Y6900D01*
X11865Y7007D01*
X11724Y7092D01*
X11573Y7155D01*
X11413Y7194D01*
X11249Y7207D01*
D02*
G37*
G36*
X63300Y1963D02*
X63171Y1950D01*
X63046Y1913D01*
X62932Y1851D01*
X62831Y1769D01*
X62749Y1668D01*
X62687Y1554D01*
X62650Y1429D01*
X62637Y1300D01*
X62650Y1171D01*
X62687Y1046D01*
X62749Y932D01*
X62831Y831D01*
X62932Y749D01*
X63046Y687D01*
X63171Y650D01*
X63300Y637D01*
X63429Y650D01*
X63554Y687D01*
X63668Y749D01*
X63769Y831D01*
X63851Y932D01*
X63913Y1046D01*
X63950Y1171D01*
X63963Y1300D01*
X63950Y1429D01*
X63913Y1554D01*
X63851Y1668D01*
X63769Y1769D01*
X63668Y1851D01*
X63554Y1913D01*
X63429Y1950D01*
X63300Y1963D01*
D02*
G37*
G36*
X1250D02*
X1121Y1950D01*
X996Y1913D01*
X882Y1851D01*
X781Y1769D01*
X699Y1668D01*
X637Y1554D01*
X600Y1429D01*
X587Y1300D01*
X600Y1171D01*
X637Y1046D01*
X699Y932D01*
X781Y831D01*
X882Y749D01*
X996Y687D01*
X1121Y650D01*
X1250Y637D01*
X1379Y650D01*
X1504Y687D01*
X1618Y749D01*
X1719Y831D01*
X1801Y932D01*
X1863Y1046D01*
X1900Y1171D01*
X1913Y1300D01*
X1900Y1429D01*
X1863Y1554D01*
X1801Y1668D01*
X1719Y1769D01*
X1618Y1851D01*
X1504Y1913D01*
X1379Y1950D01*
X1250Y1963D01*
D02*
G37*
%LPD*%
D13*
X4448Y27850D02*
X4448Y15139D01*
X4450D02*
X5148Y14441D01*
X7987D01*
X4448Y27850D02*
Y28050D01*
X8600Y29050D02*
X8700Y29150D01*
X8600Y24813D02*
Y29050D01*
X6200Y31850D02*
X6750D01*
X5993Y32057D02*
X6200Y31850D01*
X5993Y32057D02*
Y33007D01*
X54948Y7887D02*
X54985Y7850D01*
X54948Y7887D02*
Y11220D01*
X54985Y6718D02*
X55448Y7182D01*
Y11220D01*
X42448Y8152D02*
X42450Y8150D01*
X42448Y8152D02*
Y11168D01*
X41793Y6718D02*
X42948Y7873D01*
Y11168D01*
X28173Y8277D02*
X28200Y8250D01*
X28173Y8277D02*
Y11168D01*
X28557Y6718D02*
Y11052D01*
X28673Y11168D01*
X15250Y8050D02*
X15258Y8058D01*
Y11168D01*
X15084Y6718D02*
X15821Y7455D01*
Y11168D01*
X19746Y15550D02*
X41428D01*
X43423Y13555D01*
X41700Y16000D02*
X43945Y13755D01*
X19950Y16000D02*
X41700D01*
X20350Y13700D02*
X28825D01*
X16723Y17327D02*
X20350Y13700D01*
X16723Y17327D02*
Y19950D01*
X28825Y13700D02*
X29175Y13350D01*
X29160Y14050D02*
X29600Y13610D01*
X20667Y14050D02*
X29160D01*
X17038Y17680D02*
X20667Y14050D01*
X16408Y13742D02*
Y20430D01*
Y13742D02*
X16750Y13400D01*
X16093Y13507D02*
X16150Y13450D01*
X56150Y21100D02*
X56251Y21201D01*
Y27699D01*
X55700Y21421D02*
Y27674D01*
X36576Y20400D02*
X43800Y27624D01*
X35300Y20350D02*
X35350Y20400D01*
X23318Y20350D02*
X35300D01*
X23108Y20560D02*
X23318Y20350D01*
X22892Y20560D02*
X23108D01*
X22682Y20350D02*
X22892Y20560D01*
X19450Y20350D02*
X22682D01*
X35670Y19994D02*
X43300Y27624D01*
X19886Y19994D02*
X35670D01*
X18700Y23050D02*
X23200Y27550D01*
X29650D01*
X18000Y23550D02*
X22324Y27874D01*
X29175D01*
X16408Y22650D02*
X16550Y22792D01*
Y27691D01*
X16050Y22872D02*
Y27691D01*
X15821Y22643D02*
X16050Y22872D01*
X5000Y30900D02*
X6198D01*
X4300Y30200D02*
X5000Y30900D01*
X6750Y30550D02*
Y31850D01*
X11050Y16450D02*
Y17221D01*
X7690Y16150D02*
X11595D01*
X7353Y16487D02*
X7690Y16150D01*
X11595D02*
X12700Y17255D01*
X8503D02*
X9898Y18650D01*
X12550D01*
X10013Y18370D02*
X12197D01*
X8286Y16644D02*
X10013Y18370D01*
X4787Y23337D02*
X4800Y23350D01*
X4787Y16895D02*
Y23337D01*
X4800Y23350D02*
X4884D01*
X17668Y18282D02*
X19950Y16000D01*
X17668Y18282D02*
Y20430D01*
X17353Y17943D02*
X19746Y15550D01*
X17353Y17943D02*
Y19950D01*
X16093Y13507D02*
Y19950D01*
X15040Y15290D02*
X15750Y16000D01*
X7095Y15593D02*
X7398Y15290D01*
X15040D01*
X7095Y15593D02*
Y16841D01*
X5687Y22389D02*
X7875Y24577D01*
X5687Y22191D02*
Y22389D01*
X8287Y23909D02*
Y29141D01*
X6687Y22309D02*
X8287Y23909D01*
X6687Y22191D02*
Y22309D01*
X17038Y17680D02*
Y20430D01*
X4787Y16895D02*
X5087Y16595D01*
X8281Y17481D02*
X11400Y20600D01*
X8053Y17481D02*
X8281D01*
X11400Y20600D02*
X15148D01*
X7353Y16487D02*
Y17191D01*
X7356D01*
X5194Y18994D02*
X5544Y19344D01*
X6890D01*
X8253Y16644D02*
X8286D01*
X6366Y27341D02*
X7740Y25967D01*
X5187Y27341D02*
X6366D01*
X16373Y20395D02*
X16408Y20430D01*
D18*
X7376Y35614D02*
G03*
X7376Y35614I-138J0D01*
G01*
X5100D02*
G03*
X5100Y35614I-138J0D01*
G01*
D21*
X61950Y15050D02*
Y16900D01*
X59900Y13000D02*
X61950Y15050D01*
X53050Y13000D02*
X59900D01*
X52647Y30550D02*
X53050Y30147D01*
Y13000D02*
Y30147D01*
X13050Y30550D02*
X26100D01*
X40300D01*
X52647D01*
X13250Y13000D02*
X26298D01*
X40550D01*
X53050D01*
X-200Y38300D02*
X-200Y-100D01*
X-200Y38300D02*
X64400D01*
X64400Y-100D01*
X-200D02*
X64400D01*
D71*
X10250Y17450D02*
X10350Y17550D01*
Y18050D01*
X10250Y16450D02*
Y17450D01*
X12469Y15550D02*
X13253Y16334D01*
Y17553D01*
D72*
X3437Y16494D02*
Y19089D01*
X2550Y19976D02*
X3437Y19089D01*
X9425Y19453D02*
X9847D01*
X7687Y21191D02*
X9425Y19453D01*
X3700Y25959D02*
Y30750D01*
X2891Y25150D02*
X3700Y25959D01*
D73*
X61950Y16900D02*
D03*
Y17900D02*
D03*
Y18900D02*
D03*
X2550Y17024D02*
D03*
Y18008D02*
D03*
Y18992D02*
D03*
X59400Y18900D02*
D03*
Y17900D02*
D03*
Y16900D02*
D03*
X4401Y27850D02*
D03*
X6687Y21191D02*
D03*
X7687D02*
D03*
X8687D02*
D03*
X9687D02*
D03*
X5687Y22191D02*
D03*
X6687D02*
D03*
X7687D02*
D03*
X8687D02*
D03*
X9687D02*
D03*
D74*
X61950Y19900D02*
D03*
X2550Y19976D02*
D03*
X59400Y19900D02*
D03*
D75*
X7801Y35405D02*
D03*
X4399D02*
D03*
D76*
Y37051D02*
D03*
X7801D02*
D03*
D77*
X24372Y32091D02*
D03*
X34214D02*
D03*
X10985D02*
D03*
X20828D02*
D03*
X60993Y6159D02*
D03*
X51150D02*
D03*
X50800Y32091D02*
D03*
X60642D02*
D03*
X37609D02*
D03*
X47451D02*
D03*
X21091Y6159D02*
D03*
X11249D02*
D03*
X34565D02*
D03*
X24722D02*
D03*
X47801D02*
D03*
X37959D02*
D03*
D78*
X30923Y32650D02*
D03*
X29837D02*
D03*
X28750D02*
D03*
X27663D02*
D03*
X30380Y31532D02*
D03*
X28207D02*
D03*
X27120D02*
D03*
X29293D02*
D03*
X17537Y32650D02*
D03*
X16450D02*
D03*
X15363D02*
D03*
X14277D02*
D03*
X16993Y31532D02*
D03*
X14820D02*
D03*
X13734D02*
D03*
X15907D02*
D03*
X54441Y5600D02*
D03*
X55528D02*
D03*
X56615D02*
D03*
X57701D02*
D03*
X54985Y6718D02*
D03*
X57158D02*
D03*
X58244D02*
D03*
X56071D02*
D03*
X57351Y32650D02*
D03*
X56265D02*
D03*
X55178D02*
D03*
X54091D02*
D03*
X56808Y31532D02*
D03*
X54635D02*
D03*
X53548D02*
D03*
X55721D02*
D03*
X44160Y32650D02*
D03*
X43073D02*
D03*
X41987D02*
D03*
X40900D02*
D03*
X43616Y31532D02*
D03*
X41443D02*
D03*
X40357D02*
D03*
X42530D02*
D03*
X14540Y5600D02*
D03*
X15627D02*
D03*
X16713D02*
D03*
X17800D02*
D03*
X15084Y6718D02*
D03*
X17257D02*
D03*
X18343D02*
D03*
X16170D02*
D03*
X28013Y5600D02*
D03*
X29100D02*
D03*
X30187D02*
D03*
X31273D02*
D03*
X28557Y6718D02*
D03*
X30730D02*
D03*
X31816D02*
D03*
X29643D02*
D03*
X41250Y5600D02*
D03*
X42337D02*
D03*
X43423D02*
D03*
X44510D02*
D03*
X41793Y6718D02*
D03*
X43966D02*
D03*
X45053D02*
D03*
X42880D02*
D03*
D79*
X31467Y31532D02*
D03*
X18080D02*
D03*
X53898Y6718D02*
D03*
X57895Y31532D02*
D03*
X44703D02*
D03*
X13997Y6718D02*
D03*
X27470D02*
D03*
X40707D02*
D03*
D80*
X1250Y37050D02*
D03*
X63300Y1300D02*
D03*
X1250D02*
D03*
X63300Y37050D02*
D03*
D81*
X2252Y29245D02*
D03*
Y31155D02*
D03*
D82*
X1201Y31617D02*
D03*
Y28783D02*
D03*
D83*
X1606Y27850D02*
D03*
X5687Y21191D02*
D03*
D84*
X61550Y34800D02*
D03*
Y28800D02*
D03*
X60050Y25800D02*
D03*
X61550Y22800D02*
D03*
X60050Y19800D02*
D03*
Y13800D02*
D03*
X61550Y10800D02*
D03*
X60050Y7800D02*
D03*
X61550Y4800D02*
D03*
X60050Y1800D02*
D03*
X58550Y34800D02*
D03*
Y28800D02*
D03*
X57050Y25800D02*
D03*
X58550Y22800D02*
D03*
X57050Y19800D02*
D03*
X58550Y16800D02*
D03*
X57050Y13800D02*
D03*
X58550Y10800D02*
D03*
X57050Y7800D02*
D03*
X58550Y4800D02*
D03*
X57050Y1800D02*
D03*
X55550Y34800D02*
D03*
Y16800D02*
D03*
X54050Y13800D02*
D03*
Y7800D02*
D03*
X55550Y4800D02*
D03*
X54050Y1800D02*
D03*
X52550Y34800D02*
D03*
X51050Y25800D02*
D03*
X52550Y22800D02*
D03*
X51050Y19800D02*
D03*
Y13800D02*
D03*
Y7800D02*
D03*
X52550Y4800D02*
D03*
X51050Y1800D02*
D03*
X49550Y34800D02*
D03*
Y28800D02*
D03*
X48050Y25800D02*
D03*
X49550Y22800D02*
D03*
X48050Y19800D02*
D03*
Y13800D02*
D03*
X49550Y10800D02*
D03*
X48050Y7800D02*
D03*
X49550Y4800D02*
D03*
X48050Y1800D02*
D03*
X46550Y34800D02*
D03*
Y28800D02*
D03*
X45050Y25800D02*
D03*
X46550Y22800D02*
D03*
X45050Y19800D02*
D03*
Y13800D02*
D03*
X46550Y10800D02*
D03*
X45050Y7800D02*
D03*
X46550Y4800D02*
D03*
X45050Y1800D02*
D03*
X43550Y34800D02*
D03*
Y22800D02*
D03*
X42050Y19800D02*
D03*
Y13800D02*
D03*
Y7800D02*
D03*
X43550Y4800D02*
D03*
X42050Y1800D02*
D03*
X40550Y34800D02*
D03*
X39050Y31800D02*
D03*
Y25800D02*
D03*
X40550Y22800D02*
D03*
X39050Y19800D02*
D03*
Y13800D02*
D03*
Y7800D02*
D03*
X40550Y4800D02*
D03*
X39050Y1800D02*
D03*
X37550Y34800D02*
D03*
X36050Y31800D02*
D03*
X37550Y28800D02*
D03*
X36050Y25800D02*
D03*
X37550Y22800D02*
D03*
X36050Y19800D02*
D03*
Y13800D02*
D03*
X37550Y10800D02*
D03*
X36050Y7800D02*
D03*
X37550Y4800D02*
D03*
X36050Y1800D02*
D03*
X34550Y34800D02*
D03*
Y28800D02*
D03*
X33050Y25800D02*
D03*
X34550Y22800D02*
D03*
X33050Y13800D02*
D03*
X34550Y10800D02*
D03*
X33050Y7800D02*
D03*
X34550Y4800D02*
D03*
X33050Y1800D02*
D03*
X31550Y34800D02*
D03*
Y28800D02*
D03*
X30050Y25800D02*
D03*
X31550Y22800D02*
D03*
X30050Y13800D02*
D03*
X31550Y10800D02*
D03*
X30050Y7800D02*
D03*
X31550Y4800D02*
D03*
X30050Y1800D02*
D03*
X28550Y34800D02*
D03*
Y22800D02*
D03*
X27050Y7800D02*
D03*
X28550Y4800D02*
D03*
X27050Y1800D02*
D03*
X25550Y34800D02*
D03*
X24050Y25800D02*
D03*
X25550Y22800D02*
D03*
X24050Y7800D02*
D03*
X25550Y4800D02*
D03*
X24050Y1800D02*
D03*
X22550Y34800D02*
D03*
Y28800D02*
D03*
Y22800D02*
D03*
Y10800D02*
D03*
X21050Y7800D02*
D03*
X22550Y4800D02*
D03*
X21050Y1800D02*
D03*
X19550Y34800D02*
D03*
Y28800D02*
D03*
X18050Y25800D02*
D03*
X19550Y22800D02*
D03*
X18050Y19800D02*
D03*
X19550Y10800D02*
D03*
X18050Y7800D02*
D03*
X19550Y4800D02*
D03*
X18050Y1800D02*
D03*
X16550Y34800D02*
D03*
X15050Y19800D02*
D03*
Y13800D02*
D03*
X16550Y4800D02*
D03*
X15050Y1800D02*
D03*
X13550Y34800D02*
D03*
X12050Y25800D02*
D03*
Y13800D02*
D03*
Y7800D02*
D03*
X13550Y4800D02*
D03*
X12050Y1800D02*
D03*
X10550Y34800D02*
D03*
Y28800D02*
D03*
Y10800D02*
D03*
X9050Y7800D02*
D03*
X10550Y4800D02*
D03*
X9050Y1800D02*
D03*
X7550Y28800D02*
D03*
X6050Y7800D02*
D03*
X7550Y4800D02*
D03*
X6050Y1800D02*
D03*
X3050Y31800D02*
D03*
X4550Y28800D02*
D03*
Y10800D02*
D03*
X3050Y7800D02*
D03*
X4550Y4800D02*
D03*
X3050Y1800D02*
D03*
X5993Y33007D02*
D03*
X12700Y17255D02*
D03*
X7353Y17191D02*
D03*
X8503Y17255D02*
D03*
X8253Y16644D02*
D03*
X8053Y17481D02*
D03*
X7095Y16841D02*
D03*
D85*
X12100Y17900D02*
D03*
X4450Y15139D02*
D03*
X8600Y24813D02*
D03*
X8700Y29150D02*
D03*
X13050Y30550D02*
D03*
X26100D02*
D03*
X40300D02*
D03*
X52647D02*
D03*
X13250Y13000D02*
D03*
X26298D02*
D03*
X40550D02*
D03*
X53050D02*
D03*
X54985Y7850D02*
D03*
X55448Y11220D02*
D03*
X54948D02*
D03*
X42450Y8150D02*
D03*
X28200Y8250D02*
D03*
X15250Y8050D02*
D03*
X43423Y13555D02*
D03*
X43945Y13755D02*
D03*
X29175Y13350D02*
D03*
X29600Y13610D02*
D03*
X16750Y13400D02*
D03*
X16150Y13450D02*
D03*
X56150Y21100D02*
D03*
X55700Y21421D02*
D03*
X36576Y20400D02*
D03*
X35350D02*
D03*
X19450Y20350D02*
D03*
X18700Y23050D02*
D03*
X18000Y23550D02*
D03*
X16408Y22650D02*
D03*
X15821Y22643D02*
D03*
X6198Y30900D02*
D03*
X6750Y30550D02*
D03*
Y31850D02*
D03*
X11050Y17221D02*
D03*
Y16450D02*
D03*
X12550Y18650D02*
D03*
X12197Y18370D02*
D03*
X10350Y18050D02*
D03*
X13253Y17553D02*
D03*
X23000Y19624D02*
D03*
X21330Y18420D02*
D03*
X22050D02*
D03*
X23000Y18950D02*
D03*
Y20300D02*
D03*
X22065Y21006D02*
D03*
X21330Y21000D02*
D03*
X2891Y25150D02*
D03*
X4800Y23350D02*
D03*
X19886Y19994D02*
D03*
X18000Y18700D02*
D03*
X15750Y16000D02*
D03*
X12469Y15550D02*
D03*
X16050Y27691D02*
D03*
X16550D02*
D03*
X29175Y27874D02*
D03*
X29650Y27550D02*
D03*
X43300Y27624D02*
D03*
X43800D02*
D03*
X56251Y27699D02*
D03*
X55700Y27674D02*
D03*
X7875Y24577D02*
D03*
X4300Y30200D02*
D03*
X3700Y30750D02*
D03*
X10250Y14600D02*
D03*
X8750Y14631D02*
D03*
X15821Y11168D02*
D03*
X9847Y19453D02*
D03*
X6890Y19344D02*
D03*
X5194Y18994D02*
D03*
X10250Y16450D02*
D03*
X3437Y16494D02*
D03*
X10003Y17844D02*
D03*
X15148Y20600D02*
D03*
X5266Y16120D02*
D03*
X7987Y14441D02*
D03*
X5087Y16595D02*
D03*
X17668Y20430D02*
D03*
X17353Y19950D02*
D03*
X16723D02*
D03*
X16093D02*
D03*
X16408Y20430D02*
D03*
X17038D02*
D03*
X5187Y27341D02*
D03*
X7740Y25967D02*
D03*
X8287Y29141D02*
D03*
X15258Y11168D02*
D03*
X28673D02*
D03*
X28173D02*
D03*
X42948D02*
D03*
X42448D02*
D03*
M02*
