G04*
G04 #@! TF.GenerationSoftware,Altium Limited,Altium Designer,18.1.9 (240)*
G04*
G04 Layer_Color=32768*
%FSLAX24Y24*%
%MOIN*%
G70*
G01*
G75*
%ADD10C,0.0118*%
%ADD11C,0.0079*%
%ADD17C,0.0080*%
%ADD18C,0.0050*%
%ADD21C,0.0200*%
%ADD87C,0.0039*%
%ADD88C,0.0197*%
D10*
X14912Y16865D02*
G03*
X14912Y16865I-59J0D01*
G01*
X772Y24204D02*
G03*
X772Y24204I-59J0D01*
G01*
D11*
X2451Y30802D02*
G03*
X2451Y30802I-39J0D01*
G01*
D17*
X1100Y13758D02*
Y14152D01*
X903Y13955D02*
X1297D01*
X903Y15726D02*
X1297D01*
D18*
X7376Y35614D02*
G03*
X7376Y35614I-138J0D01*
G01*
X5100D02*
G03*
X5100Y35614I-138J0D01*
G01*
D21*
X-200Y38300D02*
X-200Y-100D01*
X-200Y38300D02*
X64400D01*
X64400Y-100D01*
X-200D02*
X64400D01*
D87*
X5540Y14843D02*
X9634D01*
X5540Y18938D02*
X9634D01*
X5540Y14843D02*
Y18938D01*
X9634Y14843D02*
Y18938D01*
X7587Y16694D02*
Y17087D01*
X7390Y16891D02*
X7784D01*
D88*
X41346Y26260D02*
G03*
X41346Y26260I-98J0D01*
G01*
X54046Y9951D02*
G03*
X54046Y9951I-98J0D01*
G01*
X41544D02*
G03*
X41544Y9951I-98J0D01*
G01*
X27295D02*
G03*
X27295Y9951I-98J0D01*
G01*
X14349D02*
G03*
X14349Y9951I-98J0D01*
G01*
X53850Y26260D02*
G03*
X53850Y26260I-98J0D01*
G01*
X14148D02*
G03*
X14148Y26260I-98J0D01*
G01*
X27246D02*
G03*
X27246Y26260I-98J0D01*
G01*
M02*
