G04*
G04 #@! TF.GenerationSoftware,Altium Limited,Altium Designer,18.1.9 (240)*
G04*
G04 Layer_Physical_Order=1*
G04 Layer_Color=255*
%FSLAX24Y24*%
%MOIN*%
G70*
G01*
G75*
%ADD13C,0.0100*%
%ADD18C,0.0050*%
%ADD21C,0.0200*%
%ADD23R,0.0118X0.0512*%
%ADD24O,0.0237X0.0776*%
%ADD25R,0.0366X0.0386*%
%ADD26O,0.0165X0.0657*%
%ADD27O,0.0657X0.0165*%
%ADD28R,0.0386X0.0366*%
%ADD29R,0.0453X0.0551*%
%ADD30R,0.0265X0.0620*%
G04:AMPARAMS|DCode=31|XSize=150mil|YSize=75mil|CornerRadius=33.8mil|HoleSize=0mil|Usage=FLASHONLY|Rotation=270.000|XOffset=0mil|YOffset=0mil|HoleType=Round|Shape=RoundedRectangle|*
%AMROUNDEDRECTD31*
21,1,0.1500,0.0075,0,0,270.0*
21,1,0.0825,0.0750,0,0,270.0*
1,1,0.0675,-0.0038,-0.0413*
1,1,0.0675,-0.0038,0.0413*
1,1,0.0675,0.0038,0.0413*
1,1,0.0675,0.0038,-0.0413*
%
%ADD31ROUNDEDRECTD31*%
%ADD32R,0.0551X0.0157*%
%ADD33O,0.0236X0.0709*%
%ADD34R,0.0709X0.0394*%
%ADD35R,0.0551X0.0453*%
%ADD36R,0.0512X0.0709*%
%ADD37O,0.0118X0.0709*%
%ADD38O,0.0709X0.0118*%
%ADD39R,0.0276X0.0492*%
%ADD71C,0.0150*%
%ADD72C,0.0300*%
%ADD73C,0.0591*%
%ADD74R,0.0591X0.0591*%
%ADD75O,0.0394X0.0827*%
%ADD76O,0.0394X0.0709*%
%ADD77C,0.1969*%
%ADD78C,0.0620*%
%ADD79R,0.0620X0.0620*%
%ADD80C,0.1181*%
%ADD81C,0.0512*%
%ADD82O,0.0866X0.0512*%
%ADD83R,0.0591X0.0591*%
%ADD84C,0.0240*%
%ADD85C,0.0300*%
G36*
X64137Y163D02*
X163D01*
X163Y9032D01*
X758D01*
Y9861D01*
X163D01*
Y12339D01*
X758D01*
Y12937D01*
X1318Y13498D01*
X2960D01*
X2960Y13498D01*
X3003Y13506D01*
X3039Y13531D01*
X3382Y13874D01*
X3382Y13874D01*
X3407Y13910D01*
X3415Y13953D01*
X3415Y13953D01*
Y14097D01*
X3546D01*
Y14603D01*
X3415D01*
Y14886D01*
X3546D01*
Y15027D01*
X4272D01*
X4299Y14988D01*
X4368Y14941D01*
X4450Y14925D01*
X4532Y14941D01*
X4601Y14988D01*
X4648Y15057D01*
X4664Y15139D01*
X4648Y15221D01*
X4601Y15290D01*
X4532Y15337D01*
X4450Y15353D01*
X4368Y15337D01*
X4299Y15290D01*
X4272Y15251D01*
X3546D01*
Y15392D01*
X3060D01*
Y14886D01*
X3191D01*
Y14603D01*
X3060D01*
Y14097D01*
X3191D01*
Y14000D01*
X2914Y13722D01*
X1272D01*
X1272Y13722D01*
X1229Y13714D01*
X1192Y13689D01*
X1192Y13689D01*
X671Y13168D01*
X163D01*
X163Y38250D01*
X64137D01*
X64137Y163D01*
D02*
G37*
%LPC*%
G36*
X7801Y37467D02*
X7734Y37459D01*
X7671Y37433D01*
X7618Y37392D01*
X7576Y37338D01*
X7551Y37275D01*
X7542Y37208D01*
Y36893D01*
X7551Y36826D01*
X7576Y36764D01*
X7618Y36710D01*
X7671Y36669D01*
X7734Y36643D01*
X7801Y36634D01*
X7868Y36643D01*
X7930Y36669D01*
X7984Y36710D01*
X8025Y36764D01*
X8051Y36826D01*
X8060Y36893D01*
Y37208D01*
X8051Y37275D01*
X8025Y37338D01*
X7984Y37392D01*
X7930Y37433D01*
X7868Y37459D01*
X7801Y37467D01*
D02*
G37*
G36*
X4399D02*
X4332Y37459D01*
X4270Y37433D01*
X4216Y37392D01*
X4175Y37338D01*
X4149Y37275D01*
X4140Y37208D01*
Y36893D01*
X4149Y36826D01*
X4175Y36764D01*
X4216Y36710D01*
X4270Y36669D01*
X4332Y36643D01*
X4399Y36634D01*
X4466Y36643D01*
X4529Y36669D01*
X4582Y36710D01*
X4624Y36764D01*
X4649Y36826D01*
X4658Y36893D01*
Y37208D01*
X4649Y37275D01*
X4624Y37338D01*
X4582Y37392D01*
X4529Y37433D01*
X4466Y37459D01*
X4399Y37467D01*
D02*
G37*
G36*
X63300Y37713D02*
X63171Y37700D01*
X63046Y37663D01*
X62932Y37601D01*
X62831Y37519D01*
X62749Y37418D01*
X62687Y37304D01*
X62650Y37179D01*
X62637Y37050D01*
X62650Y36921D01*
X62687Y36796D01*
X62749Y36682D01*
X62831Y36581D01*
X62932Y36499D01*
X63046Y36437D01*
X63171Y36400D01*
X63300Y36387D01*
X63429Y36400D01*
X63554Y36437D01*
X63668Y36499D01*
X63769Y36581D01*
X63851Y36682D01*
X63913Y36796D01*
X63950Y36921D01*
X63963Y37050D01*
X63950Y37179D01*
X63913Y37304D01*
X63851Y37418D01*
X63769Y37519D01*
X63668Y37601D01*
X63554Y37663D01*
X63429Y37700D01*
X63300Y37713D01*
D02*
G37*
G36*
X1250D02*
X1121Y37700D01*
X996Y37663D01*
X882Y37601D01*
X781Y37519D01*
X699Y37418D01*
X637Y37304D01*
X600Y37179D01*
X587Y37050D01*
X600Y36921D01*
X637Y36796D01*
X699Y36682D01*
X781Y36581D01*
X882Y36499D01*
X996Y36437D01*
X1121Y36400D01*
X1250Y36387D01*
X1379Y36400D01*
X1504Y36437D01*
X1618Y36499D01*
X1719Y36581D01*
X1801Y36682D01*
X1863Y36796D01*
X1900Y36921D01*
X1913Y37050D01*
X1900Y37179D01*
X1863Y37304D01*
X1801Y37418D01*
X1719Y37519D01*
X1618Y37601D01*
X1504Y37663D01*
X1379Y37700D01*
X1250Y37713D01*
D02*
G37*
G36*
X5486Y35889D02*
X5433Y35879D01*
X5388Y35849D01*
X5388Y35849D01*
X5209Y35669D01*
X5200Y35669D01*
X5153Y35684D01*
X5139Y35717D01*
X5130Y35726D01*
X5125Y35738D01*
X5086Y35777D01*
X5074Y35781D01*
X5065Y35791D01*
X5014Y35812D01*
X5002D01*
X4990Y35817D01*
X4935D01*
X4923Y35812D01*
X4910D01*
X4859Y35791D01*
X4850Y35781D01*
X4838Y35777D01*
X4799Y35738D01*
X4795Y35726D01*
X4785Y35717D01*
X4764Y35666D01*
Y35653D01*
X4759Y35641D01*
Y35586D01*
X4764Y35574D01*
Y35562D01*
X4785Y35511D01*
X4795Y35502D01*
X4799Y35490D01*
X4838Y35451D01*
X4850Y35446D01*
X4859Y35437D01*
X4910Y35416D01*
X4923D01*
X4935Y35411D01*
X4977D01*
Y34833D01*
X5077D01*
Y32321D01*
X3716Y30961D01*
X3700Y30964D01*
X3618Y30948D01*
X3549Y30901D01*
X3514Y30849D01*
X2735D01*
Y30851D01*
X2457D01*
X2440Y30901D01*
X2478Y30929D01*
X2528Y30995D01*
X2560Y31072D01*
X2571Y31155D01*
X2560Y31237D01*
X2528Y31314D01*
X2478Y31380D01*
X2412Y31431D01*
X2335Y31463D01*
X2252Y31473D01*
X2170Y31463D01*
X2093Y31431D01*
X2027Y31380D01*
X1976Y31314D01*
X1945Y31237D01*
X1934Y31155D01*
X1945Y31072D01*
X1976Y30995D01*
X2027Y30929D01*
X2065Y30901D01*
X2063Y30851D01*
X2063Y30851D01*
X2063Y30851D01*
Y30573D01*
Y30317D01*
Y30061D01*
Y29805D01*
X2735D01*
Y30088D01*
X4122D01*
X4149Y30049D01*
X4218Y30002D01*
X4300Y29986D01*
X4382Y30002D01*
X4451Y30049D01*
X4498Y30118D01*
X4514Y30200D01*
X4498Y30282D01*
X4483Y30304D01*
X4507Y30348D01*
X5637D01*
X5650Y30320D01*
X5656Y30298D01*
X5619Y30244D01*
X5606Y30174D01*
Y29702D01*
X5619Y29632D01*
X5659Y29573D01*
X5718Y29534D01*
X5787Y29520D01*
X5857Y29534D01*
X5916Y29573D01*
X5955Y29632D01*
X5969Y29702D01*
Y30174D01*
X5955Y30244D01*
X5919Y30298D01*
X5924Y30320D01*
X5938Y30348D01*
X6137D01*
X6150Y30320D01*
X6156Y30298D01*
X6119Y30244D01*
X6106Y30174D01*
Y29702D01*
X6119Y29632D01*
X6159Y29573D01*
X6218Y29534D01*
X6287Y29520D01*
X6357Y29534D01*
X6416Y29573D01*
X6455Y29632D01*
X6469Y29702D01*
Y30174D01*
X6455Y30244D01*
X6419Y30298D01*
X6424Y30320D01*
X6438Y30348D01*
X6638D01*
Y30271D01*
X6619Y30244D01*
X6606Y30174D01*
Y29702D01*
X6619Y29632D01*
X6659Y29573D01*
X6718Y29534D01*
X6787Y29520D01*
X6857Y29534D01*
X6916Y29573D01*
X6955Y29632D01*
X6969Y29702D01*
Y30174D01*
X6955Y30244D01*
X6916Y30302D01*
X6877Y30328D01*
Y30382D01*
X6901Y30399D01*
X6948Y30468D01*
X6964Y30550D01*
X6948Y30632D01*
X6901Y30701D01*
X6847Y30738D01*
X6862Y30788D01*
X6994D01*
X7175Y30607D01*
Y30313D01*
X7159Y30302D01*
X7119Y30244D01*
X7106Y30174D01*
Y29702D01*
X7119Y29632D01*
X7159Y29573D01*
X7218Y29534D01*
X7287Y29520D01*
X7357Y29534D01*
X7416Y29573D01*
X7455Y29632D01*
X7469Y29702D01*
Y30174D01*
X7455Y30244D01*
X7416Y30302D01*
X7399Y30313D01*
Y30653D01*
X7391Y30696D01*
X7366Y30733D01*
X7366Y30733D01*
X7120Y30979D01*
X7083Y31004D01*
X7041Y31012D01*
X7041Y31012D01*
X6376D01*
X6350Y31051D01*
X6311Y31078D01*
Y32060D01*
X6361Y32081D01*
X6545Y31896D01*
X6536Y31850D01*
X6552Y31768D01*
X6599Y31699D01*
X6668Y31652D01*
X6750Y31636D01*
X6832Y31652D01*
X6901Y31699D01*
X6948Y31768D01*
X6964Y31850D01*
X6948Y31932D01*
X6901Y32001D01*
X6832Y32048D01*
X6750Y32064D01*
X6704Y32055D01*
X6525Y32234D01*
Y34833D01*
X6711D01*
Y34833D01*
X6848D01*
Y34064D01*
X6859Y34012D01*
X6888Y33967D01*
X9897Y30958D01*
Y27090D01*
X9782D01*
Y27061D01*
X9588D01*
Y27090D01*
X9450D01*
Y27578D01*
X9455Y27585D01*
X9469Y27654D01*
Y28127D01*
X9455Y28196D01*
X9416Y28255D01*
X9357Y28295D01*
X9287Y28308D01*
X9218Y28295D01*
X9159Y28255D01*
X9119Y28196D01*
X9106Y28127D01*
Y27654D01*
X9119Y27585D01*
X9124Y27578D01*
Y27090D01*
X9082D01*
Y26920D01*
X8867Y26705D01*
X8831Y26652D01*
X8819Y26589D01*
Y24953D01*
X8769Y24938D01*
X8751Y24964D01*
X8682Y25011D01*
X8600Y25027D01*
X8518Y25011D01*
X8449Y24964D01*
X8402Y24895D01*
X8386Y24813D01*
X8395Y24767D01*
X8317Y24689D01*
X8052D01*
X8026Y24728D01*
X7957Y24774D01*
X7875Y24791D01*
X7793Y24774D01*
X7723Y24728D01*
X7677Y24659D01*
X7661Y24577D01*
X7677Y24495D01*
X7723Y24425D01*
X7793Y24379D01*
X7875Y24362D01*
X7957Y24379D01*
X8026Y24425D01*
X8052Y24464D01*
X8364D01*
X8364Y24464D01*
X8407Y24473D01*
X8443Y24497D01*
X8554Y24608D01*
X8600Y24599D01*
X8682Y24615D01*
X8751Y24661D01*
X8769Y24687D01*
X8819Y24672D01*
Y23653D01*
X8572Y23406D01*
X8536Y23353D01*
X8524Y23291D01*
Y22508D01*
X8508Y22501D01*
X8434Y22444D01*
X8377Y22370D01*
X8341Y22283D01*
X8329Y22191D01*
X8341Y22098D01*
X8377Y22011D01*
X8434Y21937D01*
X8508Y21880D01*
X8594Y21844D01*
X8687Y21832D01*
X8780Y21844D01*
X8866Y21880D01*
X8941Y21937D01*
X8971Y21976D01*
X9404D01*
X9434Y21937D01*
X9508Y21880D01*
X9594Y21844D01*
X9687Y21832D01*
X9736Y21839D01*
X10327Y21247D01*
X10397Y21201D01*
X10479Y21185D01*
X11847D01*
Y21156D01*
X12353D01*
Y21185D01*
X12632D01*
Y21155D01*
X13138D01*
Y21641D01*
X12632D01*
Y21613D01*
X12353D01*
Y21642D01*
X11847D01*
Y21613D01*
X10568D01*
X10039Y22141D01*
X10045Y22191D01*
X10033Y22283D01*
X10027Y22299D01*
X13215Y25488D01*
X13251Y25541D01*
X13263Y25603D01*
Y26295D01*
X13353D01*
Y26781D01*
X12847D01*
Y26701D01*
X12707D01*
X12563Y26844D01*
Y28386D01*
X12708Y28531D01*
X12847D01*
Y28451D01*
X13353D01*
Y28513D01*
X13868D01*
Y28406D01*
X13882Y28337D01*
X13921Y28278D01*
X13980Y28238D01*
X14050Y28224D01*
X14120Y28238D01*
X14179Y28278D01*
X14218Y28337D01*
X14232Y28406D01*
Y28945D01*
X14218Y29015D01*
X14179Y29074D01*
X14120Y29113D01*
X14050Y29127D01*
X13980Y29113D01*
X13921Y29074D01*
X13882Y29015D01*
X13868Y28945D01*
Y28839D01*
X13353D01*
Y28937D01*
X13260D01*
Y29647D01*
X13340D01*
Y30153D01*
X13213D01*
Y30416D01*
X13248Y30468D01*
X13264Y30550D01*
X13248Y30632D01*
X13201Y30701D01*
X13132Y30748D01*
X13050Y30764D01*
X12968Y30748D01*
X12899Y30701D01*
X12852Y30632D01*
X12836Y30550D01*
X12852Y30468D01*
X12887Y30416D01*
Y30153D01*
X12854D01*
Y29647D01*
X12934D01*
Y28937D01*
X12847D01*
Y28857D01*
X12641D01*
X12578Y28845D01*
X12525Y28809D01*
X12285Y28569D01*
X12249Y28516D01*
X12237Y28453D01*
Y26777D01*
X12249Y26714D01*
X12285Y26661D01*
X12524Y26422D01*
X12577Y26387D01*
X12639Y26374D01*
X12847D01*
Y26295D01*
X12937D01*
Y25671D01*
X9796Y22530D01*
X9780Y22537D01*
X9687Y22549D01*
X9594Y22537D01*
X9508Y22501D01*
X9434Y22444D01*
X9404Y22405D01*
X8971D01*
X8941Y22444D01*
X8866Y22501D01*
X8850Y22508D01*
Y23223D01*
X9097Y23470D01*
X9133Y23523D01*
X9145Y23585D01*
Y26522D01*
X9227Y26604D01*
X9588D01*
Y26633D01*
X9782D01*
Y26604D01*
X10288D01*
Y27090D01*
X10172D01*
Y31015D01*
X10162Y31068D01*
X10132Y31113D01*
X7123Y34121D01*
Y34833D01*
X7223D01*
Y35411D01*
X7265D01*
X7277Y35416D01*
X7290D01*
X7341Y35437D01*
X7350Y35446D01*
X7362Y35451D01*
X7401Y35490D01*
X7405Y35502D01*
X7415Y35511D01*
X7436Y35562D01*
Y35574D01*
X7441Y35586D01*
Y35641D01*
X7436Y35653D01*
Y35666D01*
X7415Y35717D01*
X7405Y35726D01*
X7401Y35738D01*
X7362Y35777D01*
X7350Y35781D01*
X7341Y35791D01*
X7290Y35812D01*
X7277D01*
X7265Y35817D01*
X7210D01*
X7198Y35812D01*
X7186D01*
X7135Y35791D01*
X7126Y35781D01*
X7114Y35777D01*
X7075Y35738D01*
X7070Y35726D01*
X7061Y35717D01*
X7040Y35666D01*
X7005Y35651D01*
X6989Y35650D01*
X6989Y35650D01*
X6790Y35849D01*
X6745Y35879D01*
X6692Y35889D01*
X5486D01*
X5486Y35889D01*
D02*
G37*
G36*
X7801Y35881D02*
X7734Y35872D01*
X7671Y35846D01*
X7618Y35805D01*
X7576Y35751D01*
X7551Y35689D01*
X7542Y35622D01*
Y35189D01*
X7551Y35122D01*
X7576Y35059D01*
X7618Y35005D01*
X7671Y34964D01*
X7734Y34938D01*
X7801Y34930D01*
X7868Y34938D01*
X7930Y34964D01*
X7984Y35005D01*
X8025Y35059D01*
X8051Y35122D01*
X8060Y35189D01*
Y35622D01*
X8051Y35689D01*
X8025Y35751D01*
X7984Y35805D01*
X7930Y35846D01*
X7868Y35872D01*
X7801Y35881D01*
D02*
G37*
G36*
X4399D02*
X4332Y35872D01*
X4270Y35846D01*
X4216Y35805D01*
X4175Y35751D01*
X4149Y35689D01*
X4140Y35622D01*
Y35189D01*
X4149Y35122D01*
X4175Y35059D01*
X4216Y35005D01*
X4270Y34964D01*
X4332Y34938D01*
X4399Y34930D01*
X4466Y34938D01*
X4529Y34964D01*
X4582Y35005D01*
X4624Y35059D01*
X4649Y35122D01*
X4658Y35189D01*
Y35622D01*
X4649Y35689D01*
X4624Y35751D01*
X4582Y35805D01*
X4529Y35846D01*
X4466Y35872D01*
X4399Y35881D01*
D02*
G37*
G36*
X57351Y33023D02*
X57255Y33010D01*
X57165Y32973D01*
X57087Y32914D01*
X57028Y32837D01*
X56991Y32747D01*
X56978Y32650D01*
X56991Y32553D01*
X57028Y32463D01*
X57087Y32386D01*
X57165Y32327D01*
X57255Y32290D01*
X57351Y32277D01*
X57448Y32290D01*
X57538Y32327D01*
X57615Y32386D01*
X57674Y32463D01*
X57712Y32553D01*
X57724Y32650D01*
X57712Y32747D01*
X57674Y32837D01*
X57615Y32914D01*
X57538Y32973D01*
X57448Y33010D01*
X57351Y33023D01*
D02*
G37*
G36*
X56265D02*
X56168Y33010D01*
X56078Y32973D01*
X56001Y32914D01*
X55941Y32837D01*
X55904Y32747D01*
X55891Y32650D01*
X55904Y32553D01*
X55941Y32463D01*
X56001Y32386D01*
X56078Y32327D01*
X56168Y32290D01*
X56265Y32277D01*
X56361Y32290D01*
X56451Y32327D01*
X56528Y32386D01*
X56588Y32463D01*
X56625Y32553D01*
X56638Y32650D01*
X56625Y32747D01*
X56588Y32837D01*
X56528Y32914D01*
X56451Y32973D01*
X56361Y33010D01*
X56265Y33023D01*
D02*
G37*
G36*
X55178D02*
X55081Y33010D01*
X54991Y32973D01*
X54914Y32914D01*
X54855Y32837D01*
X54818Y32747D01*
X54805Y32650D01*
X54818Y32553D01*
X54855Y32463D01*
X54914Y32386D01*
X54991Y32327D01*
X55081Y32290D01*
X55178Y32277D01*
X55275Y32290D01*
X55365Y32327D01*
X55442Y32386D01*
X55501Y32463D01*
X55538Y32553D01*
X55551Y32650D01*
X55538Y32747D01*
X55501Y32837D01*
X55442Y32914D01*
X55365Y32973D01*
X55275Y33010D01*
X55178Y33023D01*
D02*
G37*
G36*
X54091D02*
X53995Y33010D01*
X53905Y32973D01*
X53828Y32914D01*
X53768Y32837D01*
X53731Y32747D01*
X53718Y32650D01*
X53731Y32553D01*
X53768Y32463D01*
X53828Y32386D01*
X53905Y32327D01*
X53995Y32290D01*
X54091Y32277D01*
X54188Y32290D01*
X54278Y32327D01*
X54355Y32386D01*
X54415Y32463D01*
X54452Y32553D01*
X54465Y32650D01*
X54452Y32747D01*
X54415Y32837D01*
X54355Y32914D01*
X54278Y32973D01*
X54188Y33010D01*
X54091Y33023D01*
D02*
G37*
G36*
X44160D02*
X44063Y33010D01*
X43973Y32973D01*
X43896Y32914D01*
X43837Y32837D01*
X43799Y32747D01*
X43787Y32650D01*
X43799Y32553D01*
X43837Y32463D01*
X43896Y32386D01*
X43973Y32327D01*
X44063Y32290D01*
X44160Y32277D01*
X44256Y32290D01*
X44346Y32327D01*
X44424Y32386D01*
X44483Y32463D01*
X44520Y32553D01*
X44533Y32650D01*
X44520Y32747D01*
X44483Y32837D01*
X44424Y32914D01*
X44346Y32973D01*
X44256Y33010D01*
X44160Y33023D01*
D02*
G37*
G36*
X43073D02*
X42977Y33010D01*
X42887Y32973D01*
X42809Y32914D01*
X42750Y32837D01*
X42713Y32747D01*
X42700Y32650D01*
X42713Y32553D01*
X42750Y32463D01*
X42809Y32386D01*
X42887Y32327D01*
X42977Y32290D01*
X43073Y32277D01*
X43170Y32290D01*
X43260Y32327D01*
X43337Y32386D01*
X43396Y32463D01*
X43434Y32553D01*
X43446Y32650D01*
X43434Y32747D01*
X43396Y32837D01*
X43337Y32914D01*
X43260Y32973D01*
X43170Y33010D01*
X43073Y33023D01*
D02*
G37*
G36*
X41987D02*
X41890Y33010D01*
X41800Y32973D01*
X41723Y32914D01*
X41663Y32837D01*
X41626Y32747D01*
X41613Y32650D01*
X41626Y32553D01*
X41663Y32463D01*
X41723Y32386D01*
X41800Y32327D01*
X41890Y32290D01*
X41987Y32277D01*
X42083Y32290D01*
X42173Y32327D01*
X42250Y32386D01*
X42310Y32463D01*
X42347Y32553D01*
X42360Y32650D01*
X42347Y32747D01*
X42310Y32837D01*
X42250Y32914D01*
X42173Y32973D01*
X42083Y33010D01*
X41987Y33023D01*
D02*
G37*
G36*
X40900D02*
X40803Y33010D01*
X40713Y32973D01*
X40636Y32914D01*
X40577Y32837D01*
X40540Y32747D01*
X40527Y32650D01*
X40540Y32553D01*
X40577Y32463D01*
X40636Y32386D01*
X40713Y32327D01*
X40803Y32290D01*
X40900Y32277D01*
X40997Y32290D01*
X41087Y32327D01*
X41164Y32386D01*
X41223Y32463D01*
X41260Y32553D01*
X41273Y32650D01*
X41260Y32747D01*
X41223Y32837D01*
X41164Y32914D01*
X41087Y32973D01*
X40997Y33010D01*
X40900Y33023D01*
D02*
G37*
G36*
X30923D02*
X30827Y33010D01*
X30737Y32973D01*
X30659Y32914D01*
X30600Y32837D01*
X30563Y32747D01*
X30550Y32650D01*
X30563Y32553D01*
X30600Y32463D01*
X30659Y32386D01*
X30737Y32327D01*
X30827Y32290D01*
X30923Y32277D01*
X31020Y32290D01*
X31110Y32327D01*
X31187Y32386D01*
X31246Y32463D01*
X31284Y32553D01*
X31296Y32650D01*
X31284Y32747D01*
X31246Y32837D01*
X31187Y32914D01*
X31110Y32973D01*
X31020Y33010D01*
X30923Y33023D01*
D02*
G37*
G36*
X29837D02*
X29740Y33010D01*
X29650Y32973D01*
X29573Y32914D01*
X29513Y32837D01*
X29476Y32747D01*
X29463Y32650D01*
X29476Y32553D01*
X29513Y32463D01*
X29573Y32386D01*
X29650Y32327D01*
X29740Y32290D01*
X29837Y32277D01*
X29933Y32290D01*
X30023Y32327D01*
X30100Y32386D01*
X30160Y32463D01*
X30197Y32553D01*
X30210Y32650D01*
X30197Y32747D01*
X30160Y32837D01*
X30100Y32914D01*
X30023Y32973D01*
X29933Y33010D01*
X29837Y33023D01*
D02*
G37*
G36*
X28750D02*
X28653Y33010D01*
X28563Y32973D01*
X28486Y32914D01*
X28427Y32837D01*
X28390Y32747D01*
X28377Y32650D01*
X28390Y32553D01*
X28427Y32463D01*
X28486Y32386D01*
X28563Y32327D01*
X28653Y32290D01*
X28750Y32277D01*
X28847Y32290D01*
X28937Y32327D01*
X29014Y32386D01*
X29073Y32463D01*
X29110Y32553D01*
X29123Y32650D01*
X29110Y32747D01*
X29073Y32837D01*
X29014Y32914D01*
X28937Y32973D01*
X28847Y33010D01*
X28750Y33023D01*
D02*
G37*
G36*
X27663D02*
X27567Y33010D01*
X27477Y32973D01*
X27400Y32914D01*
X27340Y32837D01*
X27303Y32747D01*
X27290Y32650D01*
X27303Y32553D01*
X27340Y32463D01*
X27400Y32386D01*
X27477Y32327D01*
X27567Y32290D01*
X27663Y32277D01*
X27760Y32290D01*
X27850Y32327D01*
X27927Y32386D01*
X27987Y32463D01*
X28024Y32553D01*
X28037Y32650D01*
X28024Y32747D01*
X27987Y32837D01*
X27927Y32914D01*
X27850Y32973D01*
X27760Y33010D01*
X27663Y33023D01*
D02*
G37*
G36*
X17537D02*
X17440Y33010D01*
X17350Y32973D01*
X17273Y32914D01*
X17213Y32837D01*
X17176Y32747D01*
X17163Y32650D01*
X17176Y32553D01*
X17213Y32463D01*
X17273Y32386D01*
X17350Y32327D01*
X17440Y32290D01*
X17537Y32277D01*
X17633Y32290D01*
X17723Y32327D01*
X17800Y32386D01*
X17860Y32463D01*
X17897Y32553D01*
X17910Y32650D01*
X17897Y32747D01*
X17860Y32837D01*
X17800Y32914D01*
X17723Y32973D01*
X17633Y33010D01*
X17537Y33023D01*
D02*
G37*
G36*
X16450D02*
X16353Y33010D01*
X16263Y32973D01*
X16186Y32914D01*
X16127Y32837D01*
X16090Y32747D01*
X16077Y32650D01*
X16090Y32553D01*
X16127Y32463D01*
X16186Y32386D01*
X16263Y32327D01*
X16353Y32290D01*
X16450Y32277D01*
X16547Y32290D01*
X16637Y32327D01*
X16714Y32386D01*
X16773Y32463D01*
X16810Y32553D01*
X16823Y32650D01*
X16810Y32747D01*
X16773Y32837D01*
X16714Y32914D01*
X16637Y32973D01*
X16547Y33010D01*
X16450Y33023D01*
D02*
G37*
G36*
X15363D02*
X15267Y33010D01*
X15177Y32973D01*
X15100Y32914D01*
X15040Y32837D01*
X15003Y32747D01*
X14990Y32650D01*
X15003Y32553D01*
X15040Y32463D01*
X15100Y32386D01*
X15177Y32327D01*
X15267Y32290D01*
X15363Y32277D01*
X15460Y32290D01*
X15550Y32327D01*
X15627Y32386D01*
X15687Y32463D01*
X15724Y32553D01*
X15737Y32650D01*
X15724Y32747D01*
X15687Y32837D01*
X15627Y32914D01*
X15550Y32973D01*
X15460Y33010D01*
X15363Y33023D01*
D02*
G37*
G36*
X14277D02*
X14180Y33010D01*
X14090Y32973D01*
X14013Y32914D01*
X13954Y32837D01*
X13916Y32747D01*
X13904Y32650D01*
X13916Y32553D01*
X13954Y32463D01*
X14013Y32386D01*
X14090Y32327D01*
X14180Y32290D01*
X14277Y32277D01*
X14373Y32290D01*
X14463Y32327D01*
X14541Y32386D01*
X14600Y32463D01*
X14637Y32553D01*
X14650Y32650D01*
X14637Y32747D01*
X14600Y32837D01*
X14541Y32914D01*
X14463Y32973D01*
X14373Y33010D01*
X14277Y33023D01*
D02*
G37*
G36*
X1378Y31936D02*
X1024D01*
X941Y31925D01*
X865Y31893D01*
X799Y31843D01*
X748Y31777D01*
X716Y31700D01*
X705Y31617D01*
X716Y31535D01*
X748Y31458D01*
X799Y31392D01*
X865Y31341D01*
X941Y31310D01*
X1024Y31299D01*
X1378D01*
X1461Y31310D01*
X1538Y31341D01*
X1604Y31392D01*
X1654Y31458D01*
X1686Y31535D01*
X1697Y31617D01*
X1686Y31700D01*
X1654Y31777D01*
X1604Y31843D01*
X1538Y31893D01*
X1461Y31925D01*
X1378Y31936D01*
D02*
G37*
G36*
X58264Y31902D02*
X57524D01*
Y31162D01*
X58264D01*
Y31902D01*
D02*
G37*
G36*
X45073D02*
X44333D01*
Y31162D01*
X45073D01*
Y31902D01*
D02*
G37*
G36*
X31837D02*
X31096D01*
Y31162D01*
X31837D01*
Y31902D01*
D02*
G37*
G36*
X18450D02*
X17710D01*
Y31162D01*
X18450D01*
Y31902D01*
D02*
G37*
G36*
X56808Y31905D02*
X56711Y31892D01*
X56621Y31855D01*
X56544Y31796D01*
X56485Y31718D01*
X56447Y31628D01*
X56435Y31532D01*
X56447Y31435D01*
X56478Y31361D01*
X55172Y30055D01*
X55148Y30018D01*
X55139Y29975D01*
X55139Y29975D01*
Y29085D01*
X55123Y29074D01*
X55083Y29015D01*
X55069Y28945D01*
Y28406D01*
X55083Y28337D01*
X55123Y28278D01*
X55182Y28238D01*
X55251Y28224D01*
X55321Y28238D01*
X55380Y28278D01*
X55419Y28337D01*
X55433Y28406D01*
Y28945D01*
X55419Y29015D01*
X55380Y29074D01*
X55363Y29085D01*
Y29929D01*
X56637Y31202D01*
X56711Y31171D01*
X56808Y31159D01*
X56904Y31171D01*
X56994Y31209D01*
X57072Y31268D01*
X57131Y31345D01*
X57168Y31435D01*
X57181Y31532D01*
X57168Y31628D01*
X57131Y31718D01*
X57072Y31796D01*
X56994Y31855D01*
X56904Y31892D01*
X56808Y31905D01*
D02*
G37*
G36*
X55721D02*
X55625Y31892D01*
X55535Y31855D01*
X55457Y31796D01*
X55398Y31718D01*
X55361Y31628D01*
X55348Y31532D01*
X55361Y31435D01*
X55392Y31361D01*
X54672Y30641D01*
X54648Y30605D01*
X54639Y30562D01*
X54639Y30562D01*
Y29085D01*
X54623Y29074D01*
X54583Y29015D01*
X54569Y28945D01*
Y28406D01*
X54583Y28337D01*
X54623Y28278D01*
X54682Y28238D01*
X54751Y28224D01*
X54821Y28238D01*
X54880Y28278D01*
X54919Y28337D01*
X54933Y28406D01*
Y28945D01*
X54919Y29015D01*
X54880Y29074D01*
X54863Y29085D01*
Y30515D01*
X55550Y31202D01*
X55625Y31171D01*
X55721Y31159D01*
X55818Y31171D01*
X55908Y31209D01*
X55985Y31268D01*
X56044Y31345D01*
X56082Y31435D01*
X56094Y31532D01*
X56082Y31628D01*
X56044Y31718D01*
X55985Y31796D01*
X55908Y31855D01*
X55818Y31892D01*
X55721Y31905D01*
D02*
G37*
G36*
X54635D02*
X54538Y31892D01*
X54448Y31855D01*
X54371Y31796D01*
X54311Y31718D01*
X54274Y31628D01*
X54261Y31532D01*
X54274Y31435D01*
X54311Y31345D01*
X54371Y31268D01*
X54448Y31209D01*
X54538Y31171D01*
X54635Y31159D01*
X54731Y31171D01*
X54821Y31209D01*
X54899Y31268D01*
X54958Y31345D01*
X54995Y31435D01*
X55008Y31532D01*
X54995Y31628D01*
X54958Y31718D01*
X54899Y31796D01*
X54821Y31855D01*
X54731Y31892D01*
X54635Y31905D01*
D02*
G37*
G36*
X43616D02*
X43520Y31892D01*
X43430Y31855D01*
X43353Y31796D01*
X43293Y31718D01*
X43256Y31628D01*
X43243Y31532D01*
X43256Y31435D01*
X43287Y31361D01*
X42668Y30742D01*
X42644Y30706D01*
X42635Y30663D01*
X42635Y30663D01*
Y29085D01*
X42619Y29074D01*
X42579Y29015D01*
X42565Y28945D01*
Y28406D01*
X42579Y28337D01*
X42619Y28278D01*
X42678Y28238D01*
X42747Y28224D01*
X42817Y28238D01*
X42876Y28278D01*
X42915Y28337D01*
X42929Y28406D01*
Y28945D01*
X42915Y29015D01*
X42876Y29074D01*
X42859Y29085D01*
Y30616D01*
X43445Y31202D01*
X43520Y31171D01*
X43616Y31159D01*
X43713Y31171D01*
X43803Y31209D01*
X43880Y31268D01*
X43940Y31345D01*
X43977Y31435D01*
X43990Y31532D01*
X43977Y31628D01*
X43940Y31718D01*
X43880Y31796D01*
X43803Y31855D01*
X43713Y31892D01*
X43616Y31905D01*
D02*
G37*
G36*
X42530D02*
X42433Y31892D01*
X42343Y31855D01*
X42266Y31796D01*
X42207Y31718D01*
X42169Y31628D01*
X42157Y31532D01*
X42169Y31435D01*
X42200Y31361D01*
X42168Y31329D01*
X42144Y31292D01*
X42135Y31249D01*
X42135Y31249D01*
Y29085D01*
X42119Y29074D01*
X42079Y29015D01*
X42065Y28945D01*
Y28406D01*
X42079Y28337D01*
X42119Y28278D01*
X42178Y28238D01*
X42247Y28224D01*
X42317Y28238D01*
X42376Y28278D01*
X42415Y28337D01*
X42429Y28406D01*
Y28945D01*
X42415Y29015D01*
X42376Y29074D01*
X42359Y29085D01*
Y31157D01*
X42401Y31185D01*
X42433Y31171D01*
X42530Y31159D01*
X42626Y31171D01*
X42716Y31209D01*
X42794Y31268D01*
X42853Y31345D01*
X42890Y31435D01*
X42903Y31532D01*
X42890Y31628D01*
X42853Y31718D01*
X42794Y31796D01*
X42716Y31855D01*
X42626Y31892D01*
X42530Y31905D01*
D02*
G37*
G36*
X41443D02*
X41347Y31892D01*
X41257Y31855D01*
X41179Y31796D01*
X41120Y31718D01*
X41083Y31628D01*
X41070Y31532D01*
X41083Y31435D01*
X41120Y31345D01*
X41179Y31268D01*
X41257Y31209D01*
X41347Y31171D01*
X41443Y31159D01*
X41540Y31171D01*
X41630Y31209D01*
X41707Y31268D01*
X41766Y31345D01*
X41804Y31435D01*
X41816Y31532D01*
X41804Y31628D01*
X41766Y31718D01*
X41707Y31796D01*
X41630Y31855D01*
X41540Y31892D01*
X41443Y31905D01*
D02*
G37*
G36*
X30380D02*
X30283Y31892D01*
X30193Y31855D01*
X30116Y31796D01*
X30057Y31718D01*
X30019Y31628D01*
X30007Y31532D01*
X30019Y31435D01*
X30050Y31361D01*
X28569Y29879D01*
X28544Y29843D01*
X28536Y29800D01*
X28536Y29800D01*
Y29085D01*
X28519Y29074D01*
X28480Y29015D01*
X28466Y28945D01*
Y28406D01*
X28480Y28337D01*
X28519Y28278D01*
X28578Y28238D01*
X28648Y28224D01*
X28718Y28238D01*
X28777Y28278D01*
X28816Y28337D01*
X28830Y28406D01*
Y28945D01*
X28816Y29015D01*
X28777Y29074D01*
X28760Y29085D01*
Y29754D01*
X30209Y31202D01*
X30283Y31171D01*
X30380Y31159D01*
X30476Y31171D01*
X30566Y31209D01*
X30644Y31268D01*
X30703Y31345D01*
X30740Y31435D01*
X30753Y31532D01*
X30740Y31628D01*
X30703Y31718D01*
X30644Y31796D01*
X30566Y31855D01*
X30476Y31892D01*
X30380Y31905D01*
D02*
G37*
G36*
X29293D02*
X29197Y31892D01*
X29107Y31855D01*
X29029Y31796D01*
X28970Y31718D01*
X28933Y31628D01*
X28920Y31532D01*
X28933Y31435D01*
X28964Y31361D01*
X28069Y30466D01*
X28044Y30430D01*
X28036Y30387D01*
X28036Y30387D01*
Y29085D01*
X28019Y29074D01*
X27980Y29015D01*
X27966Y28945D01*
Y28406D01*
X27980Y28337D01*
X28019Y28278D01*
X28078Y28238D01*
X28148Y28224D01*
X28218Y28238D01*
X28277Y28278D01*
X28316Y28337D01*
X28330Y28406D01*
Y28945D01*
X28316Y29015D01*
X28277Y29074D01*
X28260Y29085D01*
Y30340D01*
X29122Y31202D01*
X29197Y31171D01*
X29293Y31159D01*
X29390Y31171D01*
X29480Y31209D01*
X29557Y31268D01*
X29616Y31345D01*
X29654Y31435D01*
X29666Y31532D01*
X29654Y31628D01*
X29616Y31718D01*
X29557Y31796D01*
X29480Y31855D01*
X29390Y31892D01*
X29293Y31905D01*
D02*
G37*
G36*
X28207D02*
X28110Y31892D01*
X28020Y31855D01*
X27943Y31796D01*
X27884Y31718D01*
X27846Y31628D01*
X27834Y31532D01*
X27846Y31435D01*
X27884Y31345D01*
X27943Y31268D01*
X28020Y31209D01*
X28110Y31171D01*
X28207Y31159D01*
X28303Y31171D01*
X28393Y31209D01*
X28471Y31268D01*
X28530Y31345D01*
X28567Y31435D01*
X28580Y31532D01*
X28567Y31628D01*
X28530Y31718D01*
X28471Y31796D01*
X28393Y31855D01*
X28303Y31892D01*
X28207Y31905D01*
D02*
G37*
G36*
X16993D02*
X16897Y31892D01*
X16807Y31855D01*
X16729Y31796D01*
X16670Y31718D01*
X16633Y31628D01*
X16620Y31532D01*
X16633Y31435D01*
X16664Y31361D01*
X15471Y30168D01*
X15446Y30132D01*
X15438Y30089D01*
X15438Y30089D01*
Y29085D01*
X15421Y29074D01*
X15382Y29015D01*
X15368Y28945D01*
Y28406D01*
X15382Y28337D01*
X15421Y28278D01*
X15480Y28238D01*
X15550Y28224D01*
X15620Y28238D01*
X15679Y28278D01*
X15718Y28337D01*
X15732Y28406D01*
Y28945D01*
X15718Y29015D01*
X15679Y29074D01*
X15662Y29085D01*
Y30042D01*
X16822Y31202D01*
X16897Y31171D01*
X16993Y31159D01*
X17090Y31171D01*
X17180Y31209D01*
X17257Y31268D01*
X17316Y31345D01*
X17354Y31435D01*
X17366Y31532D01*
X17354Y31628D01*
X17316Y31718D01*
X17257Y31796D01*
X17180Y31855D01*
X17090Y31892D01*
X16993Y31905D01*
D02*
G37*
G36*
X15907D02*
X15810Y31892D01*
X15720Y31855D01*
X15643Y31796D01*
X15583Y31718D01*
X15546Y31628D01*
X15534Y31532D01*
X15546Y31435D01*
X15577Y31361D01*
X14971Y30755D01*
X14946Y30718D01*
X14938Y30675D01*
X14938Y30675D01*
Y29085D01*
X14921Y29074D01*
X14882Y29015D01*
X14868Y28945D01*
Y28406D01*
X14882Y28337D01*
X14921Y28278D01*
X14980Y28238D01*
X15050Y28224D01*
X15120Y28238D01*
X15179Y28278D01*
X15218Y28337D01*
X15232Y28406D01*
Y28945D01*
X15218Y29015D01*
X15179Y29074D01*
X15162Y29085D01*
Y30629D01*
X15736Y31202D01*
X15810Y31171D01*
X15907Y31159D01*
X16003Y31171D01*
X16093Y31209D01*
X16171Y31268D01*
X16230Y31345D01*
X16267Y31435D01*
X16280Y31532D01*
X16267Y31628D01*
X16230Y31718D01*
X16171Y31796D01*
X16093Y31855D01*
X16003Y31892D01*
X15907Y31905D01*
D02*
G37*
G36*
X14820D02*
X14724Y31892D01*
X14634Y31855D01*
X14556Y31796D01*
X14497Y31718D01*
X14460Y31628D01*
X14447Y31532D01*
X14460Y31435D01*
X14497Y31345D01*
X14556Y31268D01*
X14634Y31209D01*
X14724Y31171D01*
X14820Y31159D01*
X14917Y31171D01*
X15007Y31209D01*
X15084Y31268D01*
X15143Y31345D01*
X15181Y31435D01*
X15193Y31532D01*
X15181Y31628D01*
X15143Y31718D01*
X15084Y31796D01*
X15007Y31855D01*
X14917Y31892D01*
X14820Y31905D01*
D02*
G37*
G36*
X60642Y33138D02*
X60479Y33125D01*
X60319Y33087D01*
X60167Y33024D01*
X60027Y32938D01*
X59902Y32832D01*
X59795Y32707D01*
X59709Y32566D01*
X59646Y32415D01*
X59608Y32255D01*
X59595Y32091D01*
X59608Y31927D01*
X59646Y31767D01*
X59709Y31615D01*
X59795Y31475D01*
X59902Y31350D01*
X60027Y31243D01*
X60167Y31158D01*
X60319Y31095D01*
X60479Y31056D01*
X60642Y31043D01*
X60806Y31056D01*
X60966Y31095D01*
X61118Y31158D01*
X61258Y31243D01*
X61383Y31350D01*
X61490Y31475D01*
X61576Y31615D01*
X61639Y31767D01*
X61677Y31927D01*
X61690Y32091D01*
X61677Y32255D01*
X61639Y32415D01*
X61576Y32566D01*
X61490Y32707D01*
X61383Y32832D01*
X61258Y32938D01*
X61118Y33024D01*
X60966Y33087D01*
X60806Y33125D01*
X60642Y33138D01*
D02*
G37*
G36*
X50800D02*
X50636Y33125D01*
X50476Y33087D01*
X50324Y33024D01*
X50184Y32938D01*
X50059Y32832D01*
X49953Y32707D01*
X49867Y32566D01*
X49804Y32415D01*
X49765Y32255D01*
X49753Y32091D01*
X49765Y31927D01*
X49804Y31767D01*
X49867Y31615D01*
X49953Y31475D01*
X50059Y31350D01*
X50184Y31243D01*
X50324Y31158D01*
X50476Y31095D01*
X50636Y31056D01*
X50800Y31043D01*
X50964Y31056D01*
X51124Y31095D01*
X51276Y31158D01*
X51416Y31243D01*
X51541Y31350D01*
X51647Y31475D01*
X51733Y31615D01*
X51796Y31767D01*
X51835Y31927D01*
X51847Y32091D01*
X51835Y32255D01*
X51796Y32415D01*
X51733Y32566D01*
X51647Y32707D01*
X51541Y32832D01*
X51416Y32938D01*
X51276Y33024D01*
X51124Y33087D01*
X50964Y33125D01*
X50800Y33138D01*
D02*
G37*
G36*
X47451D02*
X47287Y33125D01*
X47127Y33087D01*
X46976Y33024D01*
X46835Y32938D01*
X46710Y32832D01*
X46604Y32707D01*
X46518Y32566D01*
X46455Y32415D01*
X46417Y32255D01*
X46404Y32091D01*
X46417Y31927D01*
X46455Y31767D01*
X46518Y31615D01*
X46604Y31475D01*
X46710Y31350D01*
X46835Y31243D01*
X46976Y31158D01*
X47127Y31095D01*
X47287Y31056D01*
X47451Y31043D01*
X47615Y31056D01*
X47775Y31095D01*
X47927Y31158D01*
X48067Y31243D01*
X48192Y31350D01*
X48299Y31475D01*
X48384Y31615D01*
X48447Y31767D01*
X48486Y31927D01*
X48499Y32091D01*
X48486Y32255D01*
X48447Y32415D01*
X48384Y32566D01*
X48299Y32707D01*
X48192Y32832D01*
X48067Y32938D01*
X47927Y33024D01*
X47775Y33087D01*
X47615Y33125D01*
X47451Y33138D01*
D02*
G37*
G36*
X37609D02*
X37445Y33125D01*
X37285Y33087D01*
X37133Y33024D01*
X36993Y32938D01*
X36868Y32832D01*
X36761Y32707D01*
X36675Y32566D01*
X36612Y32415D01*
X36574Y32255D01*
X36561Y32091D01*
X36574Y31927D01*
X36612Y31767D01*
X36675Y31615D01*
X36761Y31475D01*
X36868Y31350D01*
X36993Y31243D01*
X37133Y31158D01*
X37285Y31095D01*
X37445Y31056D01*
X37609Y31043D01*
X37772Y31056D01*
X37932Y31095D01*
X38084Y31158D01*
X38224Y31243D01*
X38349Y31350D01*
X38456Y31475D01*
X38542Y31615D01*
X38605Y31767D01*
X38643Y31927D01*
X38656Y32091D01*
X38643Y32255D01*
X38605Y32415D01*
X38542Y32566D01*
X38456Y32707D01*
X38349Y32832D01*
X38224Y32938D01*
X38084Y33024D01*
X37932Y33087D01*
X37772Y33125D01*
X37609Y33138D01*
D02*
G37*
G36*
X34214D02*
X34051Y33125D01*
X33891Y33087D01*
X33739Y33024D01*
X33599Y32938D01*
X33474Y32832D01*
X33367Y32707D01*
X33281Y32566D01*
X33218Y32415D01*
X33180Y32255D01*
X33167Y32091D01*
X33180Y31927D01*
X33218Y31767D01*
X33281Y31615D01*
X33367Y31475D01*
X33474Y31350D01*
X33599Y31243D01*
X33739Y31158D01*
X33891Y31095D01*
X34051Y31056D01*
X34214Y31043D01*
X34378Y31056D01*
X34538Y31095D01*
X34690Y31158D01*
X34830Y31243D01*
X34955Y31350D01*
X35062Y31475D01*
X35148Y31615D01*
X35211Y31767D01*
X35249Y31927D01*
X35262Y32091D01*
X35249Y32255D01*
X35211Y32415D01*
X35148Y32566D01*
X35062Y32707D01*
X34955Y32832D01*
X34830Y32938D01*
X34690Y33024D01*
X34538Y33087D01*
X34378Y33125D01*
X34214Y33138D01*
D02*
G37*
G36*
X24372D02*
X24208Y33125D01*
X24048Y33087D01*
X23896Y33024D01*
X23756Y32938D01*
X23631Y32832D01*
X23525Y32707D01*
X23439Y32566D01*
X23376Y32415D01*
X23337Y32255D01*
X23325Y32091D01*
X23337Y31927D01*
X23376Y31767D01*
X23439Y31615D01*
X23525Y31475D01*
X23631Y31350D01*
X23756Y31243D01*
X23896Y31158D01*
X24048Y31095D01*
X24208Y31056D01*
X24372Y31043D01*
X24536Y31056D01*
X24696Y31095D01*
X24848Y31158D01*
X24988Y31243D01*
X25113Y31350D01*
X25219Y31475D01*
X25305Y31615D01*
X25368Y31767D01*
X25407Y31927D01*
X25419Y32091D01*
X25407Y32255D01*
X25368Y32415D01*
X25305Y32566D01*
X25219Y32707D01*
X25113Y32832D01*
X24988Y32938D01*
X24848Y33024D01*
X24696Y33087D01*
X24536Y33125D01*
X24372Y33138D01*
D02*
G37*
G36*
X20828D02*
X20664Y33125D01*
X20504Y33087D01*
X20352Y33024D01*
X20212Y32938D01*
X20087Y32832D01*
X19980Y32707D01*
X19895Y32566D01*
X19832Y32415D01*
X19793Y32255D01*
X19780Y32091D01*
X19793Y31927D01*
X19832Y31767D01*
X19895Y31615D01*
X19980Y31475D01*
X20087Y31350D01*
X20212Y31243D01*
X20352Y31158D01*
X20504Y31095D01*
X20664Y31056D01*
X20828Y31043D01*
X20992Y31056D01*
X21152Y31095D01*
X21303Y31158D01*
X21444Y31243D01*
X21569Y31350D01*
X21675Y31475D01*
X21761Y31615D01*
X21824Y31767D01*
X21862Y31927D01*
X21875Y32091D01*
X21862Y32255D01*
X21824Y32415D01*
X21761Y32566D01*
X21675Y32707D01*
X21569Y32832D01*
X21444Y32938D01*
X21303Y33024D01*
X21152Y33087D01*
X20992Y33125D01*
X20828Y33138D01*
D02*
G37*
G36*
X10985D02*
X10822Y33125D01*
X10662Y33087D01*
X10510Y33024D01*
X10370Y32938D01*
X10245Y32832D01*
X10138Y32707D01*
X10052Y32566D01*
X9989Y32415D01*
X9951Y32255D01*
X9938Y32091D01*
X9951Y31927D01*
X9989Y31767D01*
X10052Y31615D01*
X10138Y31475D01*
X10245Y31350D01*
X10370Y31243D01*
X10510Y31158D01*
X10662Y31095D01*
X10822Y31056D01*
X10985Y31043D01*
X11149Y31056D01*
X11309Y31095D01*
X11461Y31158D01*
X11601Y31243D01*
X11726Y31350D01*
X11833Y31475D01*
X11919Y31615D01*
X11982Y31767D01*
X12020Y31927D01*
X12033Y32091D01*
X12020Y32255D01*
X11982Y32415D01*
X11919Y32566D01*
X11833Y32707D01*
X11726Y32832D01*
X11601Y32938D01*
X11461Y33024D01*
X11309Y33087D01*
X11149Y33125D01*
X10985Y33138D01*
D02*
G37*
G36*
X8040Y31378D02*
X7554D01*
Y30872D01*
X7675D01*
Y30313D01*
X7659Y30302D01*
X7619Y30244D01*
X7606Y30174D01*
Y29702D01*
X7619Y29632D01*
X7659Y29573D01*
X7718Y29534D01*
X7787Y29520D01*
X7857Y29534D01*
X7916Y29573D01*
X7955Y29632D01*
X7969Y29702D01*
Y30174D01*
X7955Y30244D01*
X7916Y30302D01*
X7899Y30313D01*
Y30872D01*
X8040D01*
Y31378D01*
D02*
G37*
G36*
X8787Y30356D02*
X8718Y30342D01*
X8659Y30302D01*
X8619Y30244D01*
X8606Y30174D01*
Y29702D01*
X8619Y29632D01*
X8659Y29573D01*
X8675Y29562D01*
Y29359D01*
X8618Y29348D01*
X8549Y29301D01*
X8520Y29259D01*
X8460Y29259D01*
X8439Y29292D01*
X8399Y29318D01*
Y29562D01*
X8416Y29573D01*
X8455Y29632D01*
X8469Y29702D01*
Y30174D01*
X8455Y30244D01*
X8416Y30302D01*
X8357Y30342D01*
X8287Y30356D01*
X8218Y30342D01*
X8159Y30302D01*
X8119Y30244D01*
X8106Y30174D01*
Y29702D01*
X8119Y29632D01*
X8159Y29573D01*
X8175Y29562D01*
Y29318D01*
X8136Y29292D01*
X8089Y29222D01*
X8073Y29141D01*
X8089Y29059D01*
X8136Y28989D01*
X8205Y28943D01*
X8287Y28926D01*
X8369Y28943D01*
X8439Y28989D01*
X8467Y29031D01*
X8527Y29031D01*
X8549Y28999D01*
X8618Y28952D01*
X8700Y28936D01*
X8782Y28952D01*
X8851Y28999D01*
X8898Y29068D01*
X8914Y29150D01*
X8899Y29224D01*
Y29562D01*
X8916Y29573D01*
X8955Y29632D01*
X8969Y29702D01*
Y30174D01*
X8955Y30244D01*
X8916Y30302D01*
X8857Y30342D01*
X8787Y30356D01*
D02*
G37*
G36*
X2252Y29564D02*
X2170Y29553D01*
X2093Y29521D01*
X2027Y29471D01*
X1976Y29405D01*
X1945Y29328D01*
X1934Y29245D01*
X1945Y29163D01*
X1976Y29086D01*
X2027Y29020D01*
X2093Y28969D01*
X2170Y28938D01*
X2252Y28927D01*
X2335Y28938D01*
X2412Y28969D01*
X2478Y29020D01*
X2528Y29086D01*
X2560Y29163D01*
X2571Y29245D01*
X2560Y29328D01*
X2528Y29405D01*
X2478Y29471D01*
X2412Y29521D01*
X2335Y29553D01*
X2252Y29564D01*
D02*
G37*
G36*
X1378Y29101D02*
X1024D01*
X941Y29090D01*
X865Y29059D01*
X799Y29008D01*
X748Y28942D01*
X716Y28865D01*
X705Y28783D01*
X716Y28700D01*
X748Y28623D01*
X799Y28557D01*
X865Y28507D01*
X941Y28475D01*
X1024Y28464D01*
X1378D01*
X1461Y28475D01*
X1538Y28507D01*
X1604Y28557D01*
X1654Y28623D01*
X1686Y28700D01*
X1697Y28783D01*
X1686Y28865D01*
X1654Y28942D01*
X1604Y29008D01*
X1538Y29059D01*
X1461Y29090D01*
X1378Y29101D01*
D02*
G37*
G36*
X57251Y29127D02*
X57182Y29113D01*
X57123Y29074D01*
X57083Y29015D01*
X57069Y28945D01*
Y28406D01*
X57083Y28337D01*
X57123Y28278D01*
X57182Y28238D01*
X57251Y28224D01*
X57321Y28238D01*
X57380Y28278D01*
X57419Y28337D01*
X57433Y28406D01*
Y28945D01*
X57419Y29015D01*
X57380Y29074D01*
X57321Y29113D01*
X57251Y29127D01*
D02*
G37*
G36*
X56751D02*
X56682Y29113D01*
X56623Y29074D01*
X56583Y29015D01*
X56569Y28945D01*
Y28406D01*
X56583Y28337D01*
X56623Y28278D01*
X56682Y28238D01*
X56751Y28224D01*
X56821Y28238D01*
X56880Y28278D01*
X56919Y28337D01*
X56933Y28406D01*
Y28945D01*
X56919Y29015D01*
X56880Y29074D01*
X56821Y29113D01*
X56751Y29127D01*
D02*
G37*
G36*
X52647Y30764D02*
X52565Y30748D01*
X52495Y30701D01*
X52449Y30632D01*
X52433Y30550D01*
X52449Y30468D01*
X52484Y30416D01*
Y30153D01*
X52404D01*
Y29647D01*
X52487D01*
Y28920D01*
X52397D01*
Y28840D01*
X52227D01*
X52165Y28828D01*
X52112Y28792D01*
X51885Y28565D01*
X51849Y28512D01*
X51837Y28450D01*
Y26750D01*
X51849Y26688D01*
X51885Y26635D01*
X52114Y26405D01*
X52167Y26370D01*
X52229Y26358D01*
X52397D01*
Y26278D01*
X52903D01*
Y26764D01*
X52397D01*
Y26684D01*
X52297D01*
X52163Y26818D01*
Y28382D01*
X52295Y28514D01*
X52397D01*
Y28434D01*
X52903D01*
Y28514D01*
X53569D01*
Y28406D01*
X53583Y28337D01*
X53623Y28278D01*
X53682Y28238D01*
X53751Y28224D01*
X53821Y28238D01*
X53880Y28278D01*
X53919Y28337D01*
X53933Y28406D01*
Y28945D01*
X53919Y29015D01*
X53880Y29074D01*
X53821Y29113D01*
X53751Y29127D01*
X53682Y29113D01*
X53623Y29074D01*
X53583Y29015D01*
X53569Y28945D01*
Y28840D01*
X52903D01*
Y28920D01*
X52813D01*
Y29647D01*
X52890D01*
Y30153D01*
X52810D01*
Y30416D01*
X52845Y30468D01*
X52861Y30550D01*
X52845Y30632D01*
X52798Y30701D01*
X52729Y30748D01*
X52647Y30764D01*
D02*
G37*
G36*
X44747Y29127D02*
X44678Y29113D01*
X44619Y29074D01*
X44579Y29015D01*
X44565Y28945D01*
Y28406D01*
X44579Y28337D01*
X44619Y28278D01*
X44678Y28238D01*
X44747Y28224D01*
X44817Y28238D01*
X44876Y28278D01*
X44915Y28337D01*
X44929Y28406D01*
Y28945D01*
X44915Y29015D01*
X44876Y29074D01*
X44817Y29113D01*
X44747Y29127D01*
D02*
G37*
G36*
X44247D02*
X44178Y29113D01*
X44119Y29074D01*
X44079Y29015D01*
X44065Y28945D01*
Y28406D01*
X44079Y28337D01*
X44119Y28278D01*
X44178Y28238D01*
X44247Y28224D01*
X44317Y28238D01*
X44376Y28278D01*
X44415Y28337D01*
X44429Y28406D01*
Y28945D01*
X44415Y29015D01*
X44376Y29074D01*
X44317Y29113D01*
X44247Y29127D01*
D02*
G37*
G36*
X40300Y30764D02*
X40218Y30748D01*
X40149Y30701D01*
X40102Y30632D01*
X40086Y30550D01*
X40102Y30468D01*
X40137Y30416D01*
Y30153D01*
X40054D01*
Y29647D01*
X40187D01*
Y28839D01*
X39899D01*
X39836Y28827D01*
X39783Y28791D01*
X39485Y28492D01*
X39449Y28439D01*
X39437Y28377D01*
Y26750D01*
X39449Y26688D01*
X39485Y26635D01*
X39814Y26305D01*
X39867Y26270D01*
X39929Y26258D01*
X40097D01*
Y26178D01*
X40603D01*
Y26664D01*
X40097D01*
Y26584D01*
X39997D01*
X39763Y26818D01*
Y28309D01*
X39966Y28513D01*
X40097D01*
Y28334D01*
X40603D01*
Y28513D01*
X41065D01*
Y28406D01*
X41079Y28337D01*
X41119Y28278D01*
X41178Y28238D01*
X41247Y28224D01*
X41317Y28238D01*
X41376Y28278D01*
X41415Y28337D01*
X41429Y28406D01*
Y28945D01*
X41415Y29015D01*
X41376Y29074D01*
X41317Y29113D01*
X41247Y29127D01*
X41178Y29113D01*
X41119Y29074D01*
X41079Y29015D01*
X41065Y28945D01*
Y28839D01*
X40513D01*
Y29647D01*
X40540D01*
Y30153D01*
X40463D01*
Y30416D01*
X40498Y30468D01*
X40514Y30550D01*
X40498Y30632D01*
X40451Y30701D01*
X40382Y30748D01*
X40300Y30764D01*
D02*
G37*
G36*
X30648Y29127D02*
X30578Y29113D01*
X30519Y29074D01*
X30480Y29015D01*
X30466Y28945D01*
Y28406D01*
X30480Y28337D01*
X30519Y28278D01*
X30578Y28238D01*
X30648Y28224D01*
X30718Y28238D01*
X30777Y28278D01*
X30816Y28337D01*
X30830Y28406D01*
Y28945D01*
X30816Y29015D01*
X30777Y29074D01*
X30718Y29113D01*
X30648Y29127D01*
D02*
G37*
G36*
X30148D02*
X30078Y29113D01*
X30019Y29074D01*
X29980Y29015D01*
X29966Y28945D01*
Y28406D01*
X29980Y28337D01*
X30019Y28278D01*
X30078Y28238D01*
X30148Y28224D01*
X30218Y28238D01*
X30277Y28278D01*
X30316Y28337D01*
X30330Y28406D01*
Y28945D01*
X30316Y29015D01*
X30277Y29074D01*
X30218Y29113D01*
X30148Y29127D01*
D02*
G37*
G36*
X26100Y30764D02*
X26018Y30748D01*
X25949Y30701D01*
X25902Y30632D01*
X25886Y30550D01*
X25902Y30468D01*
X25937Y30416D01*
Y30153D01*
X25849D01*
Y29647D01*
X25929D01*
Y28990D01*
X25701D01*
X25639Y28978D01*
X25586Y28942D01*
X25435Y28791D01*
X25399Y28738D01*
X25387Y28676D01*
Y26921D01*
X25399Y26858D01*
X25435Y26805D01*
X25685Y26555D01*
X25738Y26520D01*
X25800Y26508D01*
X25947D01*
Y26428D01*
X26453D01*
Y26914D01*
X25947D01*
Y26834D01*
X25868D01*
X25713Y26988D01*
Y28608D01*
X25769Y28664D01*
X25947D01*
Y28584D01*
X26212D01*
X26236Y28560D01*
X26289Y28525D01*
X26351Y28513D01*
X26966D01*
Y28406D01*
X26980Y28337D01*
X27019Y28278D01*
X27078Y28238D01*
X27148Y28224D01*
X27218Y28238D01*
X27277Y28278D01*
X27316Y28337D01*
X27330Y28406D01*
Y28945D01*
X27316Y29015D01*
X27277Y29074D01*
X27218Y29113D01*
X27148Y29127D01*
X27078Y29113D01*
X27019Y29074D01*
X26980Y29015D01*
X26966Y28945D01*
Y28839D01*
X26453D01*
Y29070D01*
X26255D01*
Y29647D01*
X26335D01*
Y30153D01*
X26263D01*
Y30416D01*
X26298Y30468D01*
X26314Y30550D01*
X26298Y30632D01*
X26251Y30701D01*
X26182Y30748D01*
X26100Y30764D01*
D02*
G37*
G36*
X17550Y29127D02*
X17480Y29113D01*
X17421Y29074D01*
X17382Y29015D01*
X17368Y28945D01*
Y28406D01*
X17382Y28337D01*
X17421Y28278D01*
X17480Y28238D01*
X17550Y28224D01*
X17620Y28238D01*
X17679Y28278D01*
X17718Y28337D01*
X17732Y28406D01*
Y28945D01*
X17718Y29015D01*
X17679Y29074D01*
X17620Y29113D01*
X17550Y29127D01*
D02*
G37*
G36*
X17050D02*
X16980Y29113D01*
X16921Y29074D01*
X16882Y29015D01*
X16868Y28945D01*
Y28406D01*
X16882Y28337D01*
X16921Y28278D01*
X16980Y28238D01*
X17050Y28224D01*
X17120Y28238D01*
X17179Y28278D01*
X17218Y28337D01*
X17232Y28406D01*
Y28945D01*
X17218Y29015D01*
X17179Y29074D01*
X17120Y29113D01*
X17050Y29127D01*
D02*
G37*
G36*
X29148D02*
X29078Y29113D01*
X29019Y29074D01*
X28980Y29015D01*
X28966Y28945D01*
Y28406D01*
X28980Y28337D01*
X29019Y28278D01*
X29036Y28267D01*
Y28034D01*
X29023Y28025D01*
X28977Y27956D01*
X28961Y27874D01*
X28977Y27792D01*
X29023Y27722D01*
X29093Y27676D01*
X29175Y27660D01*
X29257Y27676D01*
X29326Y27722D01*
X29373Y27792D01*
X29389Y27874D01*
X29373Y27956D01*
X29326Y28025D01*
X29260Y28069D01*
Y28267D01*
X29277Y28278D01*
X29316Y28337D01*
X29330Y28406D01*
Y28945D01*
X29316Y29015D01*
X29277Y29074D01*
X29218Y29113D01*
X29148Y29127D01*
D02*
G37*
G36*
X4401Y28208D02*
X4308Y28196D01*
X4222Y28160D01*
X4147Y28103D01*
X4090Y28029D01*
X4055Y27943D01*
X4042Y27850D01*
X4055Y27757D01*
X4090Y27671D01*
X4147Y27597D01*
X4222Y27540D01*
X4308Y27504D01*
X4401Y27492D01*
X4494Y27504D01*
X4580Y27540D01*
X4654Y27597D01*
X4711Y27671D01*
X4747Y27757D01*
X4759Y27850D01*
X4747Y27943D01*
X4711Y28029D01*
X4654Y28103D01*
X4580Y28160D01*
X4494Y28196D01*
X4401Y28208D01*
D02*
G37*
G36*
X56251Y29127D02*
X56182Y29113D01*
X56123Y29074D01*
X56083Y29015D01*
X56069Y28945D01*
Y28406D01*
X56083Y28337D01*
X56123Y28278D01*
X56139Y28267D01*
Y27876D01*
X56100Y27850D01*
X56053Y27781D01*
X56037Y27699D01*
X56053Y27617D01*
X56100Y27547D01*
X56169Y27501D01*
X56251Y27485D01*
X56333Y27501D01*
X56403Y27547D01*
X56449Y27617D01*
X56465Y27699D01*
X56449Y27781D01*
X56403Y27850D01*
X56363Y27876D01*
Y28267D01*
X56380Y28278D01*
X56419Y28337D01*
X56433Y28406D01*
Y28945D01*
X56419Y29015D01*
X56380Y29074D01*
X56321Y29113D01*
X56251Y29127D01*
D02*
G37*
G36*
X16550D02*
X16480Y29113D01*
X16421Y29074D01*
X16382Y29015D01*
X16368Y28945D01*
Y28406D01*
X16382Y28337D01*
X16421Y28278D01*
X16438Y28267D01*
Y27868D01*
X16399Y27842D01*
X16352Y27773D01*
X16336Y27691D01*
X16352Y27609D01*
X16399Y27539D01*
X16468Y27493D01*
X16550Y27477D01*
X16632Y27493D01*
X16701Y27539D01*
X16748Y27609D01*
X16764Y27691D01*
X16748Y27773D01*
X16701Y27842D01*
X16662Y27868D01*
Y28267D01*
X16679Y28278D01*
X16718Y28337D01*
X16732Y28406D01*
Y28945D01*
X16718Y29015D01*
X16679Y29074D01*
X16620Y29113D01*
X16550Y29127D01*
D02*
G37*
G36*
X16050D02*
X15980Y29113D01*
X15921Y29074D01*
X15882Y29015D01*
X15868Y28945D01*
Y28406D01*
X15882Y28337D01*
X15921Y28278D01*
X15938Y28267D01*
Y27868D01*
X15899Y27842D01*
X15852Y27773D01*
X15836Y27691D01*
X15852Y27609D01*
X15899Y27539D01*
X15968Y27493D01*
X16050Y27477D01*
X16132Y27493D01*
X16201Y27539D01*
X16248Y27609D01*
X16264Y27691D01*
X16248Y27773D01*
X16201Y27842D01*
X16162Y27868D01*
Y28267D01*
X16179Y28278D01*
X16218Y28337D01*
X16232Y28406D01*
Y28945D01*
X16218Y29015D01*
X16179Y29074D01*
X16120Y29113D01*
X16050Y29127D01*
D02*
G37*
G36*
X8787Y28308D02*
X8718Y28295D01*
X8659Y28255D01*
X8619Y28196D01*
X8606Y28127D01*
Y27654D01*
X8619Y27585D01*
X8659Y27526D01*
X8718Y27487D01*
X8787Y27473D01*
X8857Y27487D01*
X8916Y27526D01*
X8955Y27585D01*
X8969Y27654D01*
Y28127D01*
X8955Y28196D01*
X8916Y28255D01*
X8857Y28295D01*
X8787Y28308D01*
D02*
G37*
G36*
X7287D02*
X7218Y28295D01*
X7159Y28255D01*
X7119Y28196D01*
X7106Y28127D01*
Y27654D01*
X7119Y27585D01*
X7159Y27526D01*
X7218Y27487D01*
X7287Y27473D01*
X7357Y27487D01*
X7416Y27526D01*
X7455Y27585D01*
X7469Y27654D01*
Y28127D01*
X7455Y28196D01*
X7416Y28255D01*
X7357Y28295D01*
X7287Y28308D01*
D02*
G37*
G36*
X6787D02*
X6718Y28295D01*
X6659Y28255D01*
X6619Y28196D01*
X6606Y28127D01*
Y27654D01*
X6619Y27585D01*
X6659Y27526D01*
X6718Y27487D01*
X6787Y27473D01*
X6857Y27487D01*
X6916Y27526D01*
X6955Y27585D01*
X6969Y27654D01*
Y28127D01*
X6955Y28196D01*
X6916Y28255D01*
X6857Y28295D01*
X6787Y28308D01*
D02*
G37*
G36*
X6287D02*
X6218Y28295D01*
X6159Y28255D01*
X6119Y28196D01*
X6106Y28127D01*
Y27654D01*
X6119Y27585D01*
X6159Y27526D01*
X6218Y27487D01*
X6287Y27473D01*
X6357Y27487D01*
X6416Y27526D01*
X6455Y27585D01*
X6469Y27654D01*
Y28127D01*
X6455Y28196D01*
X6416Y28255D01*
X6357Y28295D01*
X6287Y28308D01*
D02*
G37*
G36*
X5787D02*
X5718Y28295D01*
X5659Y28255D01*
X5619Y28196D01*
X5606Y28127D01*
Y27654D01*
X5619Y27585D01*
X5659Y27526D01*
X5718Y27487D01*
X5787Y27473D01*
X5857Y27487D01*
X5916Y27526D01*
X5955Y27585D01*
X5969Y27654D01*
Y28127D01*
X5955Y28196D01*
X5916Y28255D01*
X5857Y28295D01*
X5787Y28308D01*
D02*
G37*
G36*
X55751Y29127D02*
X55682Y29113D01*
X55623Y29074D01*
X55583Y29015D01*
X55569Y28945D01*
Y28406D01*
X55583Y28337D01*
X55623Y28278D01*
X55639Y28267D01*
Y27876D01*
X55618Y27872D01*
X55549Y27825D01*
X55502Y27756D01*
X55486Y27674D01*
X55502Y27592D01*
X55549Y27522D01*
X55618Y27476D01*
X55700Y27460D01*
X55782Y27476D01*
X55851Y27522D01*
X55898Y27592D01*
X55914Y27674D01*
X55898Y27756D01*
X55863Y27807D01*
Y28267D01*
X55880Y28278D01*
X55919Y28337D01*
X55933Y28406D01*
Y28945D01*
X55919Y29015D01*
X55880Y29074D01*
X55821Y29113D01*
X55751Y29127D01*
D02*
G37*
G36*
X43747D02*
X43678Y29113D01*
X43619Y29074D01*
X43579Y29015D01*
X43565Y28945D01*
Y28406D01*
X43579Y28337D01*
X43619Y28278D01*
X43635Y28267D01*
Y27755D01*
X43602Y27706D01*
X43586Y27624D01*
X43602Y27542D01*
X43649Y27472D01*
X43718Y27426D01*
X43800Y27410D01*
X43882Y27426D01*
X43951Y27472D01*
X43998Y27542D01*
X44014Y27624D01*
X43998Y27706D01*
X43951Y27775D01*
X43882Y27822D01*
X43859Y27826D01*
Y28267D01*
X43876Y28278D01*
X43915Y28337D01*
X43929Y28406D01*
Y28945D01*
X43915Y29015D01*
X43876Y29074D01*
X43817Y29113D01*
X43747Y29127D01*
D02*
G37*
G36*
X43247D02*
X43178Y29113D01*
X43119Y29074D01*
X43079Y29015D01*
X43065Y28945D01*
Y28406D01*
X43079Y28337D01*
X43119Y28278D01*
X43135Y28267D01*
Y27755D01*
X43102Y27706D01*
X43086Y27624D01*
X43102Y27542D01*
X43149Y27472D01*
X43218Y27426D01*
X43300Y27410D01*
X43382Y27426D01*
X43451Y27472D01*
X43498Y27542D01*
X43514Y27624D01*
X43498Y27706D01*
X43451Y27775D01*
X43382Y27822D01*
X43359Y27826D01*
Y28267D01*
X43376Y28278D01*
X43415Y28337D01*
X43429Y28406D01*
Y28945D01*
X43415Y29015D01*
X43376Y29074D01*
X43317Y29113D01*
X43247Y29127D01*
D02*
G37*
G36*
X29648D02*
X29578Y29113D01*
X29519Y29074D01*
X29480Y29015D01*
X29466Y28945D01*
Y28406D01*
X29480Y28337D01*
X29519Y28278D01*
X29536Y28267D01*
Y27726D01*
X29499Y27701D01*
X29452Y27632D01*
X29436Y27550D01*
X29452Y27468D01*
X29499Y27399D01*
X29568Y27352D01*
X29650Y27336D01*
X29732Y27352D01*
X29801Y27399D01*
X29848Y27468D01*
X29864Y27550D01*
X29848Y27632D01*
X29801Y27701D01*
X29760Y27729D01*
Y28267D01*
X29777Y28278D01*
X29816Y28337D01*
X29830Y28406D01*
Y28945D01*
X29816Y29015D01*
X29777Y29074D01*
X29718Y29113D01*
X29648Y29127D01*
D02*
G37*
G36*
X7424Y26967D02*
X6938D01*
Y26826D01*
X6459D01*
Y26903D01*
X6063D01*
Y26291D01*
X6459D01*
Y26602D01*
X6938D01*
Y26461D01*
X7424D01*
Y26967D01*
D02*
G37*
G36*
X7787Y28308D02*
X7718Y28295D01*
X7659Y28255D01*
X7619Y28196D01*
X7606Y28127D01*
Y27654D01*
X7619Y27585D01*
X7659Y27526D01*
X7675Y27515D01*
Y26967D01*
X7544D01*
Y26461D01*
X8030D01*
Y26967D01*
X7899D01*
Y27515D01*
X7916Y27526D01*
X7955Y27585D01*
X7969Y27654D01*
Y28127D01*
X7955Y28196D01*
X7916Y28255D01*
X7857Y28295D01*
X7787Y28308D01*
D02*
G37*
G36*
X5187Y27555D02*
X5105Y27538D01*
X5036Y27492D01*
X4989Y27422D01*
X4973Y27341D01*
X4989Y27259D01*
X5036Y27189D01*
X5075Y27163D01*
Y27040D01*
X5075Y27040D01*
X5084Y26997D01*
X5108Y26961D01*
X5315Y26753D01*
Y26291D01*
X5711D01*
Y26903D01*
X5482D01*
X5299Y27086D01*
Y27163D01*
X5339Y27189D01*
X5385Y27259D01*
X5401Y27341D01*
X5385Y27422D01*
X5339Y27492D01*
X5269Y27538D01*
X5187Y27555D01*
D02*
G37*
G36*
X57251Y26973D02*
X57182Y26959D01*
X57123Y26920D01*
X57083Y26861D01*
X57069Y26791D01*
Y26252D01*
X57083Y26183D01*
X57123Y26124D01*
X57182Y26084D01*
X57251Y26070D01*
X57321Y26084D01*
X57380Y26124D01*
X57419Y26183D01*
X57433Y26252D01*
Y26791D01*
X57419Y26861D01*
X57380Y26920D01*
X57321Y26959D01*
X57251Y26973D01*
D02*
G37*
G36*
X56751D02*
X56682Y26959D01*
X56623Y26920D01*
X56583Y26861D01*
X56569Y26791D01*
Y26252D01*
X56583Y26183D01*
X56623Y26124D01*
X56682Y26084D01*
X56751Y26070D01*
X56821Y26084D01*
X56880Y26124D01*
X56919Y26183D01*
X56933Y26252D01*
Y26791D01*
X56919Y26861D01*
X56880Y26920D01*
X56821Y26959D01*
X56751Y26973D01*
D02*
G37*
G36*
X52903Y27370D02*
X52397D01*
Y26884D01*
X52903D01*
Y27015D01*
X53703D01*
X53708Y26965D01*
X53682Y26959D01*
X53623Y26920D01*
X53583Y26861D01*
X53569Y26791D01*
Y26252D01*
X53583Y26183D01*
X53623Y26124D01*
X53639Y26113D01*
Y25527D01*
X53454D01*
Y25021D01*
X53940D01*
Y25527D01*
X53863D01*
Y26113D01*
X53880Y26124D01*
X53919Y26183D01*
X53933Y26252D01*
Y26791D01*
X53919Y26861D01*
X53880Y26920D01*
X53821Y26959D01*
X53794Y26965D01*
X53799Y27015D01*
X53925D01*
X54082Y26857D01*
X54069Y26791D01*
Y26252D01*
X54083Y26183D01*
X54123Y26124D01*
X54182Y26084D01*
X54251Y26070D01*
X54321Y26084D01*
X54380Y26124D01*
X54419Y26183D01*
X54433Y26252D01*
Y26791D01*
X54419Y26861D01*
X54380Y26920D01*
X54321Y26959D01*
X54291Y26965D01*
X54050Y27206D01*
X54014Y27231D01*
X53971Y27239D01*
X53971Y27239D01*
X52903D01*
Y27370D01*
D02*
G37*
G36*
X44747Y26973D02*
X44678Y26959D01*
X44619Y26920D01*
X44579Y26861D01*
X44565Y26791D01*
Y26252D01*
X44579Y26183D01*
X44619Y26124D01*
X44678Y26084D01*
X44747Y26070D01*
X44817Y26084D01*
X44876Y26124D01*
X44915Y26183D01*
X44929Y26252D01*
Y26791D01*
X44915Y26861D01*
X44876Y26920D01*
X44817Y26959D01*
X44747Y26973D01*
D02*
G37*
G36*
X44247D02*
X44178Y26959D01*
X44119Y26920D01*
X44079Y26861D01*
X44065Y26791D01*
Y26252D01*
X44079Y26183D01*
X44119Y26124D01*
X44178Y26084D01*
X44247Y26070D01*
X44317Y26084D01*
X44376Y26124D01*
X44415Y26183D01*
X44429Y26252D01*
Y26791D01*
X44415Y26861D01*
X44376Y26920D01*
X44317Y26959D01*
X44247Y26973D01*
D02*
G37*
G36*
X40603Y27270D02*
X40097D01*
Y26784D01*
X40603D01*
Y26915D01*
X41062D01*
X41086Y26871D01*
X41079Y26861D01*
X41065Y26791D01*
Y26252D01*
X41079Y26183D01*
X41119Y26124D01*
X41135Y26113D01*
Y25527D01*
X41075D01*
Y25021D01*
X41562D01*
Y25527D01*
X41359D01*
Y26113D01*
X41376Y26124D01*
X41415Y26183D01*
X41429Y26252D01*
Y26791D01*
X41415Y26861D01*
X41409Y26871D01*
X41433Y26915D01*
X41527D01*
X41580Y26862D01*
X41579Y26861D01*
X41565Y26791D01*
Y26252D01*
X41579Y26183D01*
X41619Y26124D01*
X41678Y26084D01*
X41747Y26070D01*
X41817Y26084D01*
X41876Y26124D01*
X41915Y26183D01*
X41929Y26252D01*
Y26791D01*
X41915Y26861D01*
X41876Y26920D01*
X41817Y26959D01*
X41795Y26964D01*
X41652Y27106D01*
X41616Y27131D01*
X41573Y27139D01*
X41573Y27139D01*
X40603D01*
Y27270D01*
D02*
G37*
G36*
X30648Y26973D02*
X30578Y26959D01*
X30519Y26920D01*
X30480Y26861D01*
X30466Y26791D01*
Y26252D01*
X30480Y26183D01*
X30519Y26124D01*
X30578Y26084D01*
X30648Y26070D01*
X30718Y26084D01*
X30777Y26124D01*
X30816Y26183D01*
X30830Y26252D01*
Y26791D01*
X30816Y26861D01*
X30777Y26920D01*
X30718Y26959D01*
X30648Y26973D01*
D02*
G37*
G36*
X30148D02*
X30078Y26959D01*
X30019Y26920D01*
X29980Y26861D01*
X29966Y26791D01*
Y26252D01*
X29980Y26183D01*
X30019Y26124D01*
X30078Y26084D01*
X30148Y26070D01*
X30218Y26084D01*
X30277Y26124D01*
X30316Y26183D01*
X30330Y26252D01*
Y26791D01*
X30316Y26861D01*
X30277Y26920D01*
X30218Y26959D01*
X30148Y26973D01*
D02*
G37*
G36*
X26453Y27520D02*
X25947D01*
Y27034D01*
X26453D01*
Y27165D01*
X27227D01*
X27500Y26891D01*
X27480Y26861D01*
X27466Y26791D01*
Y26252D01*
X27480Y26183D01*
X27519Y26124D01*
X27578Y26084D01*
X27648Y26070D01*
X27718Y26084D01*
X27777Y26124D01*
X27816Y26183D01*
X27830Y26252D01*
Y26791D01*
X27816Y26861D01*
X27777Y26920D01*
X27754Y26936D01*
X27752Y26945D01*
X27727Y26981D01*
X27727Y26981D01*
X27352Y27356D01*
X27316Y27381D01*
X27273Y27389D01*
X27273Y27389D01*
X26453D01*
Y27520D01*
D02*
G37*
G36*
X17550Y26973D02*
X17480Y26959D01*
X17421Y26920D01*
X17382Y26861D01*
X17368Y26791D01*
Y26252D01*
X17382Y26183D01*
X17421Y26124D01*
X17480Y26084D01*
X17550Y26070D01*
X17620Y26084D01*
X17679Y26124D01*
X17718Y26183D01*
X17732Y26252D01*
Y26791D01*
X17718Y26861D01*
X17679Y26920D01*
X17620Y26959D01*
X17550Y26973D01*
D02*
G37*
G36*
X17050D02*
X16980Y26959D01*
X16921Y26920D01*
X16882Y26861D01*
X16868Y26791D01*
Y26252D01*
X16882Y26183D01*
X16921Y26124D01*
X16980Y26084D01*
X17050Y26070D01*
X17120Y26084D01*
X17179Y26124D01*
X17218Y26183D01*
X17232Y26252D01*
Y26791D01*
X17218Y26861D01*
X17179Y26920D01*
X17120Y26959D01*
X17050Y26973D01*
D02*
G37*
G36*
X13353Y27387D02*
X12847D01*
Y26901D01*
X13353D01*
Y27032D01*
X14236D01*
X14392Y26876D01*
X14382Y26861D01*
X14368Y26791D01*
Y26252D01*
X14382Y26183D01*
X14421Y26124D01*
X14480Y26084D01*
X14550Y26070D01*
X14620Y26084D01*
X14679Y26124D01*
X14718Y26183D01*
X14732Y26252D01*
Y26791D01*
X14718Y26861D01*
X14679Y26920D01*
X14633Y26951D01*
X14629Y26956D01*
X14629Y26956D01*
X14362Y27223D01*
X14326Y27248D01*
X14283Y27256D01*
X14283Y27256D01*
X13353D01*
Y27387D01*
D02*
G37*
G36*
X8287Y28308D02*
X8218Y28295D01*
X8159Y28255D01*
X8119Y28196D01*
X8106Y28127D01*
Y27654D01*
X8119Y27585D01*
X8159Y27526D01*
X8175Y27515D01*
Y25498D01*
X8080Y25403D01*
X8030Y25403D01*
Y25544D01*
X7899D01*
Y25827D01*
X7938Y25885D01*
X7954Y25967D01*
X7938Y26049D01*
X7892Y26118D01*
X7822Y26164D01*
X7740Y26181D01*
X7658Y26164D01*
X7589Y26118D01*
X7542Y26049D01*
X7526Y25967D01*
X7542Y25885D01*
X7589Y25815D01*
X7658Y25769D01*
X7675Y25766D01*
Y25544D01*
X7544D01*
Y25038D01*
X8030D01*
Y25179D01*
X8127D01*
X8127Y25179D01*
X8169Y25187D01*
X8206Y25212D01*
X8366Y25372D01*
X8366Y25372D01*
X8391Y25409D01*
X8399Y25452D01*
X8399Y25452D01*
Y27515D01*
X8416Y27526D01*
X8455Y27585D01*
X8469Y27654D01*
Y28127D01*
X8455Y28196D01*
X8416Y28255D01*
X8357Y28295D01*
X8287Y28308D01*
D02*
G37*
G36*
X1961Y28205D02*
X1250D01*
Y27495D01*
X1961D01*
Y27738D01*
X3104D01*
X3341Y27500D01*
Y27103D01*
X3210D01*
Y26597D01*
X3547D01*
X4611Y25534D01*
X4611Y25534D01*
X4647Y25509D01*
X4690Y25501D01*
X4690Y25501D01*
X5689D01*
Y25307D01*
X6085D01*
Y25919D01*
X5689D01*
Y25725D01*
X4737D01*
X3696Y26766D01*
Y27103D01*
X3565D01*
Y27547D01*
X3557Y27590D01*
X3532Y27626D01*
X3532Y27626D01*
X3229Y27929D01*
X3193Y27954D01*
X3150Y27962D01*
X3150Y27962D01*
X1961D01*
Y28205D01*
D02*
G37*
G36*
X7424Y25544D02*
X6938D01*
Y25403D01*
X6588D01*
X6545Y25395D01*
X6508Y25370D01*
X6508Y25370D01*
X6327Y25189D01*
X6063D01*
Y24577D01*
X6459D01*
Y25004D01*
X6634Y25179D01*
X6938D01*
Y25038D01*
X7424D01*
Y25544D01*
D02*
G37*
G36*
X56251Y26973D02*
X56182Y26959D01*
X56123Y26920D01*
X56083Y26861D01*
X56069Y26791D01*
Y26252D01*
X56083Y26183D01*
X56123Y26124D01*
X56139Y26113D01*
Y25569D01*
X56139Y25569D01*
X56148Y25527D01*
X56172Y25490D01*
X56304Y25358D01*
Y25021D01*
X56790D01*
Y25527D01*
X56453D01*
X56363Y25616D01*
Y26113D01*
X56380Y26124D01*
X56419Y26183D01*
X56433Y26252D01*
Y26791D01*
X56419Y26861D01*
X56380Y26920D01*
X56321Y26959D01*
X56251Y26973D01*
D02*
G37*
G36*
X55751D02*
X55682Y26959D01*
X55623Y26920D01*
X55583Y26861D01*
X55569Y26791D01*
Y26252D01*
X55583Y26183D01*
X55623Y26124D01*
X55639Y26113D01*
Y25527D01*
X55460D01*
Y25021D01*
X55946D01*
Y25527D01*
X55863D01*
Y26113D01*
X55880Y26124D01*
X55919Y26183D01*
X55933Y26252D01*
Y26791D01*
X55919Y26861D01*
X55880Y26920D01*
X55821Y26959D01*
X55751Y26973D01*
D02*
G37*
G36*
X55251D02*
X55182Y26959D01*
X55123Y26920D01*
X55083Y26861D01*
X55069Y26791D01*
Y26252D01*
X55083Y26183D01*
X55123Y26124D01*
X55139Y26113D01*
Y25527D01*
X54854D01*
Y25021D01*
X55340D01*
Y25363D01*
X55355Y25385D01*
X55363Y25428D01*
X55363Y25428D01*
Y26113D01*
X55380Y26124D01*
X55419Y26183D01*
X55433Y26252D01*
Y26791D01*
X55419Y26861D01*
X55380Y26920D01*
X55321Y26959D01*
X55251Y26973D01*
D02*
G37*
G36*
X54751D02*
X54682Y26959D01*
X54623Y26920D01*
X54583Y26861D01*
X54569Y26791D01*
Y26252D01*
X54583Y26183D01*
X54623Y26124D01*
X54639Y26113D01*
Y25768D01*
X54397Y25527D01*
X54060D01*
Y25021D01*
X54546D01*
Y25358D01*
X54831Y25643D01*
X54831Y25643D01*
X54855Y25679D01*
X54863Y25722D01*
X54863Y25722D01*
Y26113D01*
X54880Y26124D01*
X54919Y26183D01*
X54933Y26252D01*
Y26791D01*
X54919Y26861D01*
X54880Y26920D01*
X54821Y26959D01*
X54751Y26973D01*
D02*
G37*
G36*
X43747D02*
X43678Y26959D01*
X43619Y26920D01*
X43579Y26861D01*
X43565Y26791D01*
Y26252D01*
X43579Y26183D01*
X43619Y26124D01*
X43635Y26113D01*
Y25645D01*
X43635Y25645D01*
X43644Y25602D01*
X43668Y25566D01*
X43875Y25358D01*
Y25021D01*
X44362D01*
Y25527D01*
X44024D01*
X43859Y25691D01*
Y26113D01*
X43876Y26124D01*
X43915Y26183D01*
X43929Y26252D01*
Y26791D01*
X43915Y26861D01*
X43876Y26920D01*
X43817Y26959D01*
X43747Y26973D01*
D02*
G37*
G36*
X43247D02*
X43178Y26959D01*
X43119Y26920D01*
X43079Y26861D01*
X43065Y26791D01*
Y26252D01*
X43079Y26183D01*
X43119Y26124D01*
X43135Y26113D01*
Y25527D01*
X43082D01*
Y25021D01*
X43568D01*
Y25527D01*
X43359D01*
Y26113D01*
X43376Y26124D01*
X43415Y26183D01*
X43429Y26252D01*
Y26791D01*
X43415Y26861D01*
X43376Y26920D01*
X43317Y26959D01*
X43247Y26973D01*
D02*
G37*
G36*
X42747D02*
X42678Y26959D01*
X42619Y26920D01*
X42579Y26861D01*
X42565Y26791D01*
Y26252D01*
X42579Y26183D01*
X42619Y26124D01*
X42635Y26113D01*
Y25527D01*
X42475D01*
Y25021D01*
X42962D01*
Y25527D01*
X42859D01*
Y26113D01*
X42876Y26124D01*
X42915Y26183D01*
X42929Y26252D01*
Y26791D01*
X42915Y26861D01*
X42876Y26920D01*
X42817Y26959D01*
X42747Y26973D01*
D02*
G37*
G36*
X42247D02*
X42178Y26959D01*
X42119Y26920D01*
X42079Y26861D01*
X42065Y26791D01*
Y26252D01*
X42079Y26183D01*
X42119Y26124D01*
X42135Y26113D01*
Y25643D01*
X42019Y25527D01*
X41682D01*
Y25021D01*
X42168D01*
Y25358D01*
X42327Y25517D01*
X42327Y25517D01*
X42351Y25553D01*
X42359Y25596D01*
X42359Y25596D01*
Y26113D01*
X42376Y26124D01*
X42415Y26183D01*
X42429Y26252D01*
Y26791D01*
X42415Y26861D01*
X42376Y26920D01*
X42317Y26959D01*
X42247Y26973D01*
D02*
G37*
G36*
X29648D02*
X29578Y26959D01*
X29519Y26920D01*
X29480Y26861D01*
X29466Y26791D01*
Y26252D01*
X29480Y26183D01*
X29519Y26124D01*
X29536Y26113D01*
Y25617D01*
X29536Y25617D01*
X29544Y25574D01*
X29569Y25537D01*
X29748Y25358D01*
Y25021D01*
X30234D01*
Y25527D01*
X29897D01*
X29760Y25663D01*
Y26113D01*
X29777Y26124D01*
X29816Y26183D01*
X29830Y26252D01*
Y26791D01*
X29816Y26861D01*
X29777Y26920D01*
X29718Y26959D01*
X29648Y26973D01*
D02*
G37*
G36*
X29148D02*
X29078Y26959D01*
X29019Y26920D01*
X28980Y26861D01*
X28966Y26791D01*
Y26252D01*
X28980Y26183D01*
X29019Y26124D01*
X29036Y26113D01*
Y25527D01*
X28910D01*
Y25021D01*
X29396D01*
Y25527D01*
X29260D01*
Y26113D01*
X29277Y26124D01*
X29316Y26183D01*
X29330Y26252D01*
Y26791D01*
X29316Y26861D01*
X29277Y26920D01*
X29218Y26959D01*
X29148Y26973D01*
D02*
G37*
G36*
X28648D02*
X28578Y26959D01*
X28519Y26920D01*
X28480Y26861D01*
X28466Y26791D01*
Y26252D01*
X28480Y26183D01*
X28519Y26124D01*
X28536Y26113D01*
Y25527D01*
X28304D01*
Y25021D01*
X28790D01*
Y25527D01*
X28760D01*
Y26113D01*
X28777Y26124D01*
X28816Y26183D01*
X28830Y26252D01*
Y26791D01*
X28816Y26861D01*
X28777Y26920D01*
X28718Y26959D01*
X28648Y26973D01*
D02*
G37*
G36*
X28148D02*
X28078Y26959D01*
X28019Y26920D01*
X27980Y26861D01*
X27966Y26791D01*
Y26252D01*
X27980Y26183D01*
X28019Y26124D01*
X28036Y26113D01*
Y25715D01*
X27847Y25527D01*
X27510D01*
Y25021D01*
X27996D01*
Y25358D01*
X28227Y25589D01*
X28227Y25589D01*
X28252Y25626D01*
X28260Y25669D01*
X28260Y25669D01*
Y26113D01*
X28277Y26124D01*
X28316Y26183D01*
X28330Y26252D01*
Y26791D01*
X28316Y26861D01*
X28277Y26920D01*
X28218Y26959D01*
X28148Y26973D01*
D02*
G37*
G36*
X27148D02*
X27078Y26959D01*
X27019Y26920D01*
X26980Y26861D01*
X26966Y26791D01*
Y26252D01*
X26980Y26183D01*
X27019Y26124D01*
X27036Y26113D01*
Y25527D01*
X26904D01*
Y25021D01*
X27390D01*
Y25527D01*
X27260D01*
Y26113D01*
X27277Y26124D01*
X27316Y26183D01*
X27330Y26252D01*
Y26791D01*
X27316Y26861D01*
X27277Y26920D01*
X27218Y26959D01*
X27148Y26973D01*
D02*
G37*
G36*
X16550D02*
X16480Y26959D01*
X16421Y26920D01*
X16382Y26861D01*
X16368Y26791D01*
Y26252D01*
X16382Y26183D01*
X16421Y26124D01*
X16438Y26113D01*
Y25671D01*
X16438Y25671D01*
X16446Y25628D01*
X16471Y25591D01*
X16704Y25358D01*
Y25021D01*
X17190D01*
Y25527D01*
X16853D01*
X16662Y25717D01*
Y26113D01*
X16679Y26124D01*
X16718Y26183D01*
X16732Y26252D01*
Y26791D01*
X16718Y26861D01*
X16679Y26920D01*
X16620Y26959D01*
X16550Y26973D01*
D02*
G37*
G36*
X16050D02*
X15980Y26959D01*
X15921Y26920D01*
X15882Y26861D01*
X15868Y26791D01*
Y26252D01*
X15882Y26183D01*
X15921Y26124D01*
X15938Y26113D01*
Y25527D01*
X15860D01*
Y25021D01*
X16346D01*
Y25527D01*
X16162D01*
Y26113D01*
X16179Y26124D01*
X16218Y26183D01*
X16232Y26252D01*
Y26791D01*
X16218Y26861D01*
X16179Y26920D01*
X16120Y26959D01*
X16050Y26973D01*
D02*
G37*
G36*
X15550D02*
X15480Y26959D01*
X15421Y26920D01*
X15382Y26861D01*
X15368Y26791D01*
Y26252D01*
X15382Y26183D01*
X15385Y26178D01*
Y25527D01*
X15254D01*
Y25021D01*
X15740D01*
Y25527D01*
X15609D01*
Y26082D01*
X15620Y26084D01*
X15679Y26124D01*
X15718Y26183D01*
X15732Y26252D01*
Y26791D01*
X15718Y26861D01*
X15679Y26920D01*
X15620Y26959D01*
X15550Y26973D01*
D02*
G37*
G36*
X15050D02*
X14980Y26959D01*
X14921Y26920D01*
X14882Y26861D01*
X14868Y26791D01*
Y26252D01*
X14882Y26183D01*
X14921Y26124D01*
X14938Y26113D01*
Y25717D01*
X14747Y25527D01*
X14410D01*
Y25021D01*
X14896D01*
Y25358D01*
X15129Y25591D01*
X15129Y25591D01*
X15154Y25628D01*
X15162Y25671D01*
X15162Y25671D01*
Y26113D01*
X15179Y26124D01*
X15218Y26183D01*
X15232Y26252D01*
Y26791D01*
X15218Y26861D01*
X15179Y26920D01*
X15120Y26959D01*
X15050Y26973D01*
D02*
G37*
G36*
X14050D02*
X13980Y26959D01*
X13921Y26920D01*
X13882Y26861D01*
X13868Y26791D01*
Y26252D01*
X13882Y26183D01*
X13921Y26124D01*
X13938Y26113D01*
Y25527D01*
X13804D01*
Y25021D01*
X14290D01*
Y25527D01*
X14162D01*
Y26113D01*
X14179Y26124D01*
X14218Y26183D01*
X14232Y26252D01*
Y26791D01*
X14218Y26861D01*
X14179Y26920D01*
X14120Y26959D01*
X14050Y26973D01*
D02*
G37*
G36*
X3090Y27103D02*
X2604D01*
Y27064D01*
X1600D01*
X1518Y27048D01*
X1449Y27001D01*
X1152Y26705D01*
X1105Y26635D01*
X1089Y26553D01*
Y26313D01*
X1065Y26303D01*
X982Y26240D01*
X918Y26157D01*
X878Y26060D01*
X865Y25956D01*
Y25131D01*
X878Y25027D01*
X918Y24931D01*
X982Y24848D01*
X1065Y24784D01*
X1124Y24759D01*
Y24660D01*
X1119Y24652D01*
X1103Y24570D01*
Y23253D01*
X1060D01*
Y22747D01*
X1089D01*
Y22503D01*
X1060D01*
Y21997D01*
X1089D01*
Y20523D01*
X1105Y20441D01*
X1152Y20372D01*
X1681Y19842D01*
X1751Y19796D01*
X1833Y19780D01*
X2195D01*
Y19621D01*
X2905D01*
Y19839D01*
X3347D01*
Y19810D01*
X3853D01*
Y19839D01*
X4147D01*
Y19810D01*
X4653D01*
Y19839D01*
X5547D01*
Y19810D01*
X6053D01*
Y19916D01*
X6107D01*
X6367Y19655D01*
Y18485D01*
X6377Y18432D01*
X6383Y18424D01*
Y18190D01*
X6392Y18143D01*
X6419Y18104D01*
X6458Y18078D01*
X6504Y18068D01*
X6551Y18078D01*
X6590Y18104D01*
X6617Y18143D01*
X6626Y18190D01*
Y18424D01*
X6632Y18432D01*
X6642Y18485D01*
Y19259D01*
X6692Y19264D01*
X6693Y19262D01*
X6739Y19192D01*
X6786Y19161D01*
Y18998D01*
X6786Y18998D01*
X6786Y18998D01*
Y18827D01*
X6777Y18780D01*
Y18190D01*
X6786Y18143D01*
X6812Y18104D01*
X6852Y18078D01*
X6898Y18068D01*
X6945Y18078D01*
X6984Y18104D01*
X7009D01*
X7049Y18078D01*
X7095Y18068D01*
X7141Y18078D01*
X7181Y18104D01*
X7206D01*
X7245Y18078D01*
X7292Y18068D01*
X7338Y18078D01*
X7378Y18104D01*
X7403D01*
X7442Y18078D01*
X7489Y18068D01*
X7535Y18078D01*
X7575Y18104D01*
X7600D01*
X7639Y18078D01*
X7686Y18068D01*
X7732Y18078D01*
X7771Y18104D01*
X7797D01*
X7836Y18078D01*
X7882Y18068D01*
X7929Y18078D01*
X7968Y18104D01*
X7993D01*
X8033Y18078D01*
X8079Y18068D01*
X8126Y18078D01*
X8165Y18104D01*
X8190D01*
X8230Y18078D01*
X8276Y18068D01*
X8323Y18078D01*
X8362Y18104D01*
X8387D01*
X8427Y18078D01*
X8473Y18068D01*
X8519Y18078D01*
X8559Y18104D01*
X8584D01*
X8623Y18078D01*
X8670Y18068D01*
X8716Y18078D01*
X8756Y18104D01*
X8782Y18143D01*
X8791Y18190D01*
Y18780D01*
X8782Y18827D01*
Y18864D01*
X9519Y19601D01*
X9633D01*
X9660Y19551D01*
X9649Y19535D01*
X9633Y19453D01*
Y19053D01*
X9604D01*
Y18938D01*
X9382D01*
X9382Y18938D01*
X9329Y18927D01*
X9284Y18897D01*
X9084Y18697D01*
X9054Y18653D01*
X9044Y18600D01*
Y18095D01*
X8886D01*
X8840Y18085D01*
X8801Y18059D01*
X8774Y18020D01*
X8765Y17973D01*
X8774Y17927D01*
X8801Y17887D01*
X8840Y17861D01*
X8886Y17852D01*
X9120D01*
X9129Y17846D01*
X9182Y17836D01*
X9234Y17846D01*
X9243Y17852D01*
X9477D01*
X9523Y17861D01*
X9563Y17887D01*
X9589Y17927D01*
X9598Y17973D01*
X9589Y18020D01*
X9563Y18059D01*
X9523Y18085D01*
X9477Y18095D01*
X9319D01*
Y18543D01*
X9439Y18662D01*
X9604D01*
Y18547D01*
X9710D01*
X9720Y18500D01*
X9750Y18456D01*
X10139Y18066D01*
X10136Y18050D01*
X10152Y17968D01*
X10199Y17899D01*
X10268Y17852D01*
X10350Y17836D01*
X10432Y17852D01*
X10501Y17899D01*
X10548Y17968D01*
X10564Y18050D01*
X10548Y18132D01*
X10501Y18201D01*
X10432Y18248D01*
X10350Y18264D01*
X10334Y18261D01*
X10078Y18517D01*
X10090Y18547D01*
X10090D01*
Y19053D01*
X10061D01*
Y19453D01*
X10045Y19535D01*
X10034Y19551D01*
X10061Y19601D01*
X13785D01*
X13801Y19577D01*
X13843Y19549D01*
X13846Y19522D01*
X13843Y19496D01*
X13801Y19468D01*
X13793Y19456D01*
X12244D01*
X12244Y19456D01*
X12201Y19447D01*
X12164Y19423D01*
X12164Y19423D01*
X10433Y17692D01*
X9523D01*
X9477Y17701D01*
X8886D01*
X8840Y17692D01*
X8801Y17665D01*
X8774Y17626D01*
X8765Y17580D01*
X8774Y17533D01*
X8784Y17518D01*
X8796Y17481D01*
X8784Y17444D01*
X8774Y17429D01*
X8765Y17383D01*
X8774Y17336D01*
X8801Y17297D01*
Y17272D01*
X8774Y17232D01*
X8765Y17186D01*
X8774Y17139D01*
X8784Y17124D01*
X8796Y17087D01*
X8784Y17051D01*
X8774Y17035D01*
X8765Y16989D01*
X8774Y16943D01*
X8801Y16903D01*
Y16878D01*
X8774Y16839D01*
X8765Y16792D01*
X8774Y16746D01*
X8801Y16706D01*
Y16681D01*
X8774Y16642D01*
X8765Y16595D01*
X8774Y16549D01*
X8784Y16534D01*
X8796Y16497D01*
X8784Y16460D01*
X8774Y16445D01*
X8765Y16398D01*
X8774Y16352D01*
X8801Y16313D01*
Y16287D01*
X8774Y16248D01*
X8765Y16202D01*
X8774Y16155D01*
X8784Y16140D01*
X8796Y16103D01*
X8784Y16066D01*
X8774Y16051D01*
X8765Y16005D01*
X8774Y15958D01*
X8801Y15919D01*
Y15894D01*
X8774Y15854D01*
X8765Y15808D01*
X8774Y15761D01*
X8801Y15722D01*
X8840Y15696D01*
X8886Y15686D01*
X9477D01*
X9523Y15696D01*
X9563Y15722D01*
X9589Y15761D01*
X9598Y15808D01*
X9589Y15854D01*
X9563Y15894D01*
Y15919D01*
X9589Y15958D01*
X9598Y16005D01*
X9589Y16051D01*
X9579Y16066D01*
X9567Y16103D01*
X9579Y16140D01*
X9589Y16155D01*
X9598Y16202D01*
X9589Y16248D01*
X9563Y16287D01*
Y16313D01*
X9589Y16352D01*
X9598Y16398D01*
X9589Y16445D01*
X9579Y16460D01*
X9567Y16497D01*
X9579Y16534D01*
X9589Y16549D01*
X9598Y16595D01*
X9594Y16618D01*
X9627Y16668D01*
X10108D01*
X10123Y16618D01*
X10099Y16601D01*
X10052Y16532D01*
X10036Y16450D01*
X10052Y16368D01*
X10099Y16299D01*
X10112Y16289D01*
Y14761D01*
X10099Y14751D01*
X10052Y14682D01*
X10036Y14600D01*
X10052Y14518D01*
X10087Y14466D01*
Y14164D01*
X10075Y14153D01*
X9810D01*
Y13647D01*
X10296D01*
Y13912D01*
X10365Y13981D01*
X10401Y14034D01*
X10413Y14097D01*
Y14466D01*
X10448Y14518D01*
X10464Y14600D01*
X10448Y14682D01*
X10401Y14751D01*
X10388Y14761D01*
Y16289D01*
X10401Y16299D01*
X10448Y16368D01*
X10464Y16450D01*
X10448Y16532D01*
X10401Y16601D01*
X10377Y16618D01*
X10392Y16668D01*
X10908D01*
X10923Y16618D01*
X10899Y16601D01*
X10852Y16532D01*
X10836Y16450D01*
X10852Y16368D01*
X10899Y16299D01*
X10938Y16272D01*
Y16196D01*
X10797D01*
Y15710D01*
X11303D01*
Y16196D01*
X11162D01*
Y16272D01*
X11201Y16299D01*
X11248Y16368D01*
X11264Y16450D01*
X11248Y16532D01*
X11201Y16601D01*
X11177Y16618D01*
X11192Y16668D01*
X14688D01*
Y16546D01*
X14699Y16490D01*
X14730Y16443D01*
X14777Y16412D01*
X14833Y16401D01*
X14889Y16412D01*
X14936Y16443D01*
X14960Y16480D01*
X15010Y16469D01*
Y16255D01*
X14898Y16142D01*
X14666D01*
Y16258D01*
X14180D01*
Y15752D01*
X14153Y15713D01*
X12603D01*
X12551Y15748D01*
X12469Y15764D01*
X12387Y15748D01*
X12318Y15701D01*
X12271Y15632D01*
X12255Y15550D01*
X12271Y15468D01*
X12306Y15416D01*
Y13824D01*
X12319Y13762D01*
X12354Y13709D01*
X13040Y13023D01*
X13036Y13000D01*
X13052Y12918D01*
X13090Y12862D01*
Y12464D01*
X13000D01*
Y12384D01*
X12971D01*
X12908Y12371D01*
X12855Y12336D01*
X12535Y12015D01*
X12499Y11962D01*
X12487Y11900D01*
Y10450D01*
X12499Y10388D01*
X12535Y10335D01*
X12788Y10081D01*
X12841Y10046D01*
X12903Y10034D01*
X13000D01*
Y9954D01*
X13090D01*
Y9596D01*
X12997D01*
Y9110D01*
X13503D01*
Y9596D01*
X13416D01*
Y9954D01*
X13506D01*
Y10440D01*
X13000D01*
Y10402D01*
X12950Y10381D01*
X12813Y10518D01*
Y11832D01*
X12970Y11990D01*
X13000Y11978D01*
Y11978D01*
X13506D01*
Y12057D01*
X14076D01*
X14082Y12028D01*
X14121Y11969D01*
X14180Y11929D01*
X14250Y11915D01*
X14320Y11929D01*
X14379Y11969D01*
X14418Y12028D01*
X14432Y12097D01*
Y12636D01*
X14418Y12706D01*
X14379Y12765D01*
X14320Y12804D01*
X14250Y12818D01*
X14180Y12804D01*
X14121Y12765D01*
X14082Y12706D01*
X14068Y12636D01*
Y12415D01*
X14036Y12384D01*
X13506D01*
Y12464D01*
X13416D01*
Y12870D01*
X13448Y12918D01*
X13464Y13000D01*
X13448Y13082D01*
X13401Y13151D01*
X13332Y13198D01*
X13325Y13199D01*
X12632Y13892D01*
Y15387D01*
X14300D01*
X14362Y15399D01*
X14415Y15435D01*
X14538Y15558D01*
X14574Y15611D01*
X14586Y15673D01*
Y15752D01*
X14666D01*
Y15867D01*
X14955D01*
X15007Y15878D01*
X15052Y15907D01*
X15245Y16101D01*
X15275Y16145D01*
X15286Y16198D01*
Y16507D01*
X15294Y16546D01*
Y17038D01*
X15282Y17094D01*
X15251Y17141D01*
X15204Y17173D01*
X15148Y17184D01*
X15092Y17173D01*
X15045Y17141D01*
X15017Y17099D01*
X14991Y17096D01*
X14964Y17099D01*
X14936Y17141D01*
X14889Y17173D01*
X14833Y17184D01*
X14777Y17173D01*
X14730Y17141D01*
X14699Y17094D01*
X14688Y17038D01*
Y16892D01*
X13516D01*
X13497Y16938D01*
X13891Y17332D01*
X13904Y17330D01*
X14396D01*
X14452Y17341D01*
X14499Y17372D01*
X14530Y17420D01*
X14542Y17475D01*
X14530Y17531D01*
X14499Y17578D01*
X14457Y17606D01*
X14454Y17633D01*
X14457Y17659D01*
X14499Y17687D01*
X14530Y17734D01*
X14542Y17790D01*
X14530Y17846D01*
X14499Y17893D01*
X14462Y17917D01*
X14473Y17967D01*
X17405D01*
X17458Y17978D01*
X17502Y18008D01*
X17984Y18489D01*
X18000Y18486D01*
X18082Y18502D01*
X18151Y18549D01*
X18184Y18597D01*
X18343D01*
X18353Y18547D01*
X18317Y18523D01*
X18285Y18476D01*
X18274Y18420D01*
X18285Y18364D01*
X18317Y18317D01*
X18364Y18286D01*
X18420Y18275D01*
X18912D01*
X18967Y18286D01*
X19001Y18308D01*
X19433D01*
X19771Y17971D01*
X19807Y17946D01*
X19850Y17938D01*
X19850Y17938D01*
X52450D01*
X52450Y17938D01*
X52493Y17946D01*
X52529Y17971D01*
X55779Y21221D01*
X55779Y21221D01*
X55781Y21223D01*
X55782Y21223D01*
X55851Y21270D01*
X55898Y21339D01*
X55914Y21421D01*
X55898Y21503D01*
X55851Y21573D01*
X55782Y21619D01*
X55700Y21635D01*
X55618Y21619D01*
X55549Y21573D01*
X55502Y21503D01*
X55486Y21421D01*
X55502Y21339D01*
X55534Y21292D01*
X52404Y18162D01*
X19896D01*
X19559Y18499D01*
X19523Y18524D01*
X19480Y18532D01*
X19480Y18532D01*
X19001D01*
X18973Y18551D01*
X18970Y18578D01*
X18973Y18604D01*
X19015Y18632D01*
X19046Y18679D01*
X19057Y18735D01*
X19046Y18791D01*
X19015Y18838D01*
X18967Y18869D01*
X18912Y18881D01*
X18420D01*
X18380Y18873D01*
X18120D01*
X18082Y18898D01*
X18000Y18914D01*
X17918Y18898D01*
X17849Y18851D01*
X17802Y18782D01*
X17786Y18700D01*
X17789Y18684D01*
X17348Y18243D01*
X14473D01*
X14462Y18293D01*
X14499Y18317D01*
X14530Y18364D01*
X14542Y18420D01*
X14530Y18476D01*
X14499Y18523D01*
X14457Y18551D01*
X14454Y18578D01*
X14457Y18604D01*
X14499Y18632D01*
X14530Y18679D01*
X14542Y18735D01*
X14530Y18791D01*
X14499Y18838D01*
X14457Y18866D01*
X14454Y18893D01*
X14457Y18919D01*
X14499Y18947D01*
X14530Y18994D01*
X14542Y19050D01*
X14530Y19106D01*
X14499Y19153D01*
X14457Y19181D01*
X14454Y19207D01*
X14457Y19234D01*
X14499Y19262D01*
X14530Y19309D01*
X14542Y19365D01*
X14530Y19421D01*
X14499Y19468D01*
X14457Y19496D01*
X14454Y19522D01*
X14457Y19549D01*
X14499Y19577D01*
X14530Y19624D01*
X14542Y19680D01*
X14530Y19736D01*
X14499Y19783D01*
X14457Y19811D01*
X14454Y19837D01*
X14457Y19864D01*
X14499Y19892D01*
X14530Y19939D01*
X14542Y19995D01*
X14530Y20051D01*
X14499Y20098D01*
X14457Y20126D01*
X14454Y20152D01*
X14457Y20179D01*
X14499Y20207D01*
X14530Y20254D01*
X14542Y20310D01*
X14530Y20366D01*
X14499Y20413D01*
X14457Y20441D01*
X14454Y20467D01*
X14457Y20494D01*
X14499Y20522D01*
X14530Y20569D01*
X14542Y20625D01*
X14530Y20680D01*
X14499Y20728D01*
X14452Y20759D01*
X14396Y20770D01*
X13904D01*
X13848Y20759D01*
X13815Y20737D01*
X9271D01*
X9271Y20737D01*
X9228Y20728D01*
X9192Y20704D01*
X9192Y20704D01*
X8000Y19512D01*
X7976Y19476D01*
X7967Y19433D01*
X7967Y19433D01*
Y18922D01*
X7917Y18895D01*
X7882Y18902D01*
X7848Y18895D01*
X7798Y18922D01*
Y20192D01*
X7789Y20235D01*
X7765Y20271D01*
X7765Y20271D01*
X7006Y21031D01*
X7033Y21098D01*
X7045Y21191D01*
X7033Y21283D01*
X6997Y21370D01*
X6941Y21444D01*
X6866Y21501D01*
X6780Y21537D01*
X6687Y21549D01*
X6594Y21537D01*
X6508Y21501D01*
X6434Y21444D01*
X6377Y21370D01*
X6341Y21283D01*
X6329Y21191D01*
X6341Y21098D01*
X6377Y21011D01*
X6434Y20937D01*
X6508Y20880D01*
X6594Y20844D01*
X6687Y20832D01*
X6780Y20844D01*
X6847Y20872D01*
X7573Y20146D01*
Y19534D01*
X7523Y19513D01*
X6042Y20994D01*
Y21546D01*
X5332D01*
Y20835D01*
X5884D01*
X7377Y19343D01*
Y18922D01*
X7327Y18895D01*
X7292Y18902D01*
X7245Y18892D01*
X7206Y18866D01*
X7181D01*
X7141Y18892D01*
X7095Y18902D01*
X7060Y18895D01*
X7010Y18922D01*
Y18991D01*
X7012Y19000D01*
X7010Y19009D01*
Y19171D01*
X7042Y19192D01*
X7088Y19262D01*
X7104Y19344D01*
X7088Y19426D01*
X7042Y19495D01*
X6972Y19541D01*
X6890Y19558D01*
X6808Y19541D01*
X6739Y19495D01*
X6693Y19426D01*
X6692Y19423D01*
X6642Y19428D01*
Y19712D01*
X6632Y19765D01*
X6602Y19810D01*
X6602Y19810D01*
X6261Y20150D01*
X6216Y20180D01*
X6164Y20191D01*
X6053D01*
Y20296D01*
X5547D01*
Y20267D01*
X4653D01*
Y20296D01*
X4147D01*
Y20267D01*
X3853D01*
Y20296D01*
X3347D01*
Y20267D01*
X2905D01*
Y20332D01*
X2764D01*
Y22011D01*
X3439Y22686D01*
X6889D01*
X7335Y22240D01*
X7329Y22191D01*
X7341Y22098D01*
X7377Y22011D01*
X7434Y21937D01*
X7473Y21907D01*
Y21474D01*
X7434Y21444D01*
X7377Y21370D01*
X7341Y21283D01*
X7329Y21191D01*
X7341Y21098D01*
X7377Y21011D01*
X7434Y20937D01*
X7508Y20880D01*
X7594Y20844D01*
X7687Y20832D01*
X7780Y20844D01*
X7866Y20880D01*
X7941Y20937D01*
X7997Y21011D01*
X8033Y21098D01*
X8045Y21191D01*
X8033Y21283D01*
X7997Y21370D01*
X7941Y21444D01*
X7901Y21474D01*
Y21907D01*
X7941Y21937D01*
X7997Y22011D01*
X8033Y22098D01*
X8045Y22191D01*
X8033Y22283D01*
X7997Y22370D01*
X7941Y22444D01*
X7866Y22501D01*
X7780Y22537D01*
X7687Y22549D01*
X7638Y22542D01*
X7129Y23051D01*
X7060Y23098D01*
X6978Y23114D01*
X4915D01*
X4900Y23164D01*
X4951Y23199D01*
X4978Y23238D01*
X7606D01*
X7606Y23238D01*
X7649Y23246D01*
X7686Y23271D01*
X7866Y23452D01*
X7891Y23488D01*
X7899Y23531D01*
X7899Y23531D01*
Y23646D01*
X8030D01*
Y24151D01*
X7544D01*
Y23646D01*
X7675D01*
Y23577D01*
X7560Y23462D01*
X4978D01*
X4951Y23501D01*
X4882Y23548D01*
X4800Y23564D01*
X4718Y23548D01*
X4649Y23501D01*
X4602Y23432D01*
X4586Y23350D01*
X4602Y23268D01*
X4649Y23199D01*
X4700Y23164D01*
X4685Y23114D01*
X3350D01*
X3268Y23098D01*
X3199Y23051D01*
X2399Y22251D01*
X2352Y22182D01*
X2336Y22100D01*
Y20332D01*
X2195D01*
Y20208D01*
X1921D01*
X1517Y20612D01*
Y21997D01*
X1546D01*
Y22503D01*
X1517D01*
Y22747D01*
X1546D01*
Y23253D01*
X1531D01*
Y24570D01*
X1514Y24652D01*
X1509Y24660D01*
Y24771D01*
X1541Y24784D01*
X1624Y24848D01*
X1661Y24896D01*
X1711Y24879D01*
Y24660D01*
X1706Y24652D01*
X1690Y24570D01*
X1706Y24488D01*
X1711Y24480D01*
Y24200D01*
X2096D01*
Y24356D01*
X2638D01*
Y24252D01*
X3144D01*
Y24281D01*
X3421D01*
Y24252D01*
X3927D01*
Y24738D01*
X3421D01*
Y24709D01*
X3144D01*
Y24738D01*
X3105D01*
Y25150D01*
X3089Y25232D01*
X3043Y25301D01*
X2973Y25348D01*
X2891Y25364D01*
X2809Y25348D01*
X2740Y25301D01*
X2693Y25232D01*
X2677Y25150D01*
Y24784D01*
X2096D01*
Y24940D01*
X1746D01*
X1712Y24990D01*
X1728Y25027D01*
X1742Y25131D01*
Y25956D01*
X1728Y26060D01*
X1688Y26157D01*
X1624Y26240D01*
X1541Y26303D01*
X1517Y26313D01*
Y26464D01*
X1689Y26636D01*
X2604D01*
Y26597D01*
X2633D01*
Y26215D01*
X2649Y26133D01*
X2695Y26064D01*
X4028Y24731D01*
X4097Y24685D01*
X4179Y24669D01*
X5315D01*
Y24577D01*
X5711D01*
Y24801D01*
X5711Y24801D01*
X5727Y24883D01*
X5711Y24965D01*
X5711Y24965D01*
Y25189D01*
X5315D01*
Y25097D01*
X4268D01*
X3061Y26304D01*
Y26597D01*
X3090D01*
Y27103D01*
D02*
G37*
G36*
X6085Y24204D02*
X5689D01*
Y23592D01*
X6085D01*
Y23786D01*
X6938D01*
Y23646D01*
X7424D01*
Y24151D01*
X6938D01*
Y24011D01*
X6085D01*
Y24204D01*
D02*
G37*
G36*
X18000Y23764D02*
X17918Y23748D01*
X17849Y23701D01*
X17802Y23632D01*
X17786Y23550D01*
X17802Y23468D01*
X17849Y23399D01*
X17888Y23372D01*
Y21662D01*
X17880Y21657D01*
X17852Y21615D01*
X17825Y21612D01*
X17798Y21615D01*
X17771Y21657D01*
X17723Y21688D01*
X17668Y21699D01*
X17612Y21688D01*
X17565Y21657D01*
X17537Y21615D01*
X17510Y21612D01*
X17483Y21615D01*
X17456Y21657D01*
X17408Y21688D01*
X17353Y21699D01*
X17297Y21688D01*
X17250Y21657D01*
X17222Y21615D01*
X17195Y21612D01*
X17168Y21615D01*
X17141Y21657D01*
X17093Y21688D01*
X17038Y21699D01*
X16982Y21688D01*
X16935Y21657D01*
X16907Y21615D01*
X16880Y21612D01*
X16854Y21615D01*
X16826Y21657D01*
X16779Y21688D01*
X16723Y21699D01*
X16667Y21688D01*
X16620Y21657D01*
X16592Y21615D01*
X16565Y21612D01*
X16539Y21615D01*
X16511Y21657D01*
X16464Y21688D01*
X16408Y21699D01*
X16352Y21688D01*
X16305Y21657D01*
X16277Y21615D01*
X16250Y21612D01*
X16224Y21615D01*
X16196Y21657D01*
X16149Y21688D01*
X16093Y21699D01*
X16037Y21688D01*
X15990Y21657D01*
X15962Y21615D01*
X15935Y21612D01*
X15909Y21615D01*
X15890Y21643D01*
Y21974D01*
X16362Y22445D01*
X16408Y22436D01*
X16490Y22452D01*
X16559Y22499D01*
X16606Y22568D01*
X16622Y22650D01*
X16606Y22732D01*
X16559Y22801D01*
X16490Y22848D01*
X16408Y22864D01*
X16326Y22848D01*
X16256Y22801D01*
X16210Y22732D01*
X16194Y22650D01*
X16203Y22604D01*
X15699Y22099D01*
X15674Y22063D01*
X15666Y22020D01*
X15666Y22020D01*
Y21643D01*
X15647Y21615D01*
X15620Y21612D01*
X15594Y21615D01*
X15575Y21643D01*
Y22239D01*
X15775Y22438D01*
X15821Y22429D01*
X15903Y22445D01*
X15972Y22492D01*
X16019Y22561D01*
X16035Y22643D01*
X16019Y22725D01*
X15972Y22794D01*
X15903Y22841D01*
X15821Y22857D01*
X15739Y22841D01*
X15669Y22794D01*
X15623Y22725D01*
X15607Y22643D01*
X15616Y22597D01*
X15384Y22364D01*
X15359Y22328D01*
X15351Y22285D01*
X15351Y22285D01*
Y21643D01*
X15332Y21615D01*
X15306Y21612D01*
X15279Y21615D01*
X15260Y21643D01*
Y22252D01*
X15252Y22295D01*
X15227Y22331D01*
X15227Y22331D01*
X14929Y22629D01*
X14893Y22654D01*
X14850Y22662D01*
X14850Y22662D01*
X12345D01*
X12302Y22654D01*
X12266Y22629D01*
X12266Y22629D01*
X12021Y22384D01*
X11996Y22348D01*
X11988Y22305D01*
X11988Y22305D01*
Y22248D01*
X11847D01*
Y21762D01*
X12353D01*
Y22248D01*
X12273D01*
X12252Y22298D01*
X12392Y22438D01*
X14804D01*
X15036Y22206D01*
Y21643D01*
X15017Y21615D01*
X14991Y21612D01*
X14964Y21615D01*
X14945Y21643D01*
Y21767D01*
X14945Y21767D01*
X14937Y21810D01*
X14912Y21846D01*
X14912Y21846D01*
X14674Y22084D01*
X14638Y22109D01*
X14595Y22117D01*
X14595Y22117D01*
X13888D01*
Y22248D01*
X13382D01*
Y22117D01*
X13138D01*
Y22247D01*
X12632D01*
Y21761D01*
X13138D01*
Y21892D01*
X13382D01*
Y21762D01*
X13888D01*
Y21893D01*
X14548D01*
X14721Y21720D01*
Y21643D01*
X14699Y21610D01*
X14688Y21554D01*
Y21062D01*
X14699Y21006D01*
X14730Y20959D01*
X14777Y20927D01*
X14833Y20916D01*
X14889Y20927D01*
X14936Y20959D01*
X14964Y21001D01*
X14991Y21004D01*
X15017Y21001D01*
X15036Y20973D01*
Y20778D01*
X14997Y20751D01*
X14950Y20682D01*
X14934Y20600D01*
X14950Y20518D01*
X14997Y20449D01*
X15066Y20402D01*
X15148Y20386D01*
X15230Y20402D01*
X15299Y20449D01*
X15346Y20518D01*
X15362Y20600D01*
X15346Y20682D01*
X15299Y20751D01*
X15260Y20778D01*
Y20973D01*
X15279Y21001D01*
X15306Y21004D01*
X15332Y21001D01*
X15360Y20959D01*
X15407Y20927D01*
X15463Y20916D01*
X15519Y20927D01*
X15566Y20959D01*
X15594Y21001D01*
X15620Y21004D01*
X15647Y21001D01*
X15675Y20959D01*
X15722Y20927D01*
X15778Y20916D01*
X15834Y20927D01*
X15881Y20959D01*
X15909Y21001D01*
X15935Y21004D01*
X15962Y21001D01*
X15981Y20973D01*
Y20128D01*
X15942Y20101D01*
X15895Y20032D01*
X15879Y19950D01*
X15895Y19868D01*
X15942Y19799D01*
X16011Y19752D01*
X16093Y19736D01*
X16175Y19752D01*
X16244Y19799D01*
X16291Y19868D01*
X16307Y19950D01*
X16291Y20032D01*
X16244Y20101D01*
X16205Y20128D01*
Y20265D01*
X16255Y20281D01*
X16256Y20279D01*
X16326Y20232D01*
X16408Y20216D01*
X16490Y20232D01*
X16559Y20279D01*
X16561Y20281D01*
X16611Y20265D01*
Y20128D01*
X16571Y20101D01*
X16525Y20032D01*
X16509Y19950D01*
X16525Y19868D01*
X16571Y19799D01*
X16641Y19752D01*
X16723Y19736D01*
X16805Y19752D01*
X16874Y19799D01*
X16921Y19868D01*
X16937Y19950D01*
X16921Y20032D01*
X16874Y20101D01*
X16835Y20128D01*
Y20265D01*
X16885Y20281D01*
X16886Y20279D01*
X16956Y20232D01*
X17038Y20216D01*
X17120Y20232D01*
X17189Y20279D01*
X17191Y20281D01*
X17241Y20265D01*
Y20128D01*
X17201Y20101D01*
X17155Y20032D01*
X17139Y19950D01*
X17155Y19868D01*
X17201Y19799D01*
X17271Y19752D01*
X17353Y19736D01*
X17435Y19752D01*
X17504Y19799D01*
X17551Y19868D01*
X17567Y19950D01*
X17551Y20032D01*
X17504Y20101D01*
X17465Y20128D01*
Y20265D01*
X17515Y20281D01*
X17516Y20279D01*
X17586Y20232D01*
X17668Y20216D01*
X17750Y20232D01*
X17819Y20279D01*
X17866Y20348D01*
X17882Y20430D01*
X17866Y20512D01*
X17819Y20581D01*
X17780Y20608D01*
Y20973D01*
X17798Y21001D01*
X17825Y21004D01*
X17852Y21001D01*
X17880Y20959D01*
X17927Y20927D01*
X17983Y20916D01*
X18038Y20927D01*
X18086Y20959D01*
X18117Y21006D01*
X18128Y21062D01*
Y21554D01*
X18117Y21610D01*
X18112Y21617D01*
Y23372D01*
X18151Y23399D01*
X18198Y23468D01*
X18214Y23550D01*
X18198Y23632D01*
X18151Y23701D01*
X18082Y23748D01*
X18000Y23764D01*
D02*
G37*
G36*
X6687Y22549D02*
X6594Y22537D01*
X6508Y22501D01*
X6434Y22444D01*
X6377Y22370D01*
X6341Y22283D01*
X6329Y22191D01*
X6341Y22098D01*
X6377Y22011D01*
X6434Y21937D01*
X6508Y21880D01*
X6594Y21844D01*
X6687Y21832D01*
X6780Y21844D01*
X6866Y21880D01*
X6941Y21937D01*
X6997Y22011D01*
X7033Y22098D01*
X7045Y22191D01*
X7033Y22283D01*
X6997Y22370D01*
X6941Y22444D01*
X6866Y22501D01*
X6780Y22537D01*
X6687Y22549D01*
D02*
G37*
G36*
X5687D02*
X5594Y22537D01*
X5508Y22501D01*
X5434Y22444D01*
X5377Y22370D01*
X5341Y22283D01*
X5329Y22191D01*
X5341Y22098D01*
X5377Y22011D01*
X5434Y21937D01*
X5508Y21880D01*
X5594Y21844D01*
X5687Y21832D01*
X5780Y21844D01*
X5866Y21880D01*
X5941Y21937D01*
X5997Y22011D01*
X6033Y22098D01*
X6045Y22191D01*
X6033Y22283D01*
X5997Y22370D01*
X5941Y22444D01*
X5866Y22501D01*
X5780Y22537D01*
X5687Y22549D01*
D02*
G37*
G36*
X56150Y21314D02*
X56068Y21298D01*
X55999Y21251D01*
X55952Y21182D01*
X55936Y21100D01*
X55945Y21054D01*
X52744Y17852D01*
X19042D01*
X19015Y17893D01*
X18967Y17925D01*
X18912Y17936D01*
X18420D01*
X18364Y17925D01*
X18317Y17893D01*
X18285Y17846D01*
X18274Y17790D01*
X18285Y17734D01*
X18317Y17687D01*
X18358Y17659D01*
X18361Y17633D01*
X18358Y17606D01*
X18317Y17578D01*
X18285Y17531D01*
X18274Y17475D01*
X18285Y17420D01*
X18317Y17372D01*
X18364Y17341D01*
X18420Y17330D01*
X18912D01*
X18967Y17341D01*
X19001Y17363D01*
X52943D01*
X56336Y13970D01*
Y12776D01*
X56319Y12765D01*
X56280Y12706D01*
X56266Y12636D01*
Y12097D01*
X56280Y12028D01*
X56319Y11969D01*
X56378Y11929D01*
X56448Y11915D01*
X56518Y11929D01*
X56577Y11969D01*
X56616Y12028D01*
X56630Y12097D01*
Y12636D01*
X56616Y12706D01*
X56577Y12765D01*
X56560Y12776D01*
Y14017D01*
X56552Y14059D01*
X56527Y14096D01*
X56527Y14096D01*
X53069Y17555D01*
X53032Y17579D01*
X52989Y17587D01*
X52989Y17587D01*
X52843D01*
X52834Y17633D01*
X52834Y17637D01*
X52869Y17661D01*
X56104Y20895D01*
X56150Y20886D01*
X56232Y20902D01*
X56301Y20949D01*
X56348Y21018D01*
X56364Y21100D01*
X56348Y21182D01*
X56301Y21251D01*
X56232Y21298D01*
X56150Y21314D01*
D02*
G37*
G36*
X36576Y20614D02*
X36494Y20598D01*
X36425Y20551D01*
X36399Y20512D01*
X35528D01*
X35501Y20551D01*
X35432Y20598D01*
X35350Y20614D01*
X35268Y20598D01*
X35199Y20551D01*
X35152Y20482D01*
X35136Y20400D01*
X35152Y20318D01*
X35199Y20249D01*
X35268Y20202D01*
X35350Y20186D01*
X35432Y20202D01*
X35501Y20249D01*
X35528Y20288D01*
X36399D01*
X36425Y20249D01*
X36494Y20202D01*
X36576Y20186D01*
X36658Y20202D01*
X36728Y20249D01*
X36774Y20318D01*
X36790Y20400D01*
X36774Y20482D01*
X36728Y20551D01*
X36658Y20598D01*
X36576Y20614D01*
D02*
G37*
G36*
X22351Y20419D02*
X21779D01*
Y19747D01*
X22351D01*
Y20419D01*
D02*
G37*
G36*
X18700Y23264D02*
X18618Y23248D01*
X18549Y23201D01*
X18502Y23132D01*
X18486Y23050D01*
X18502Y22968D01*
X18549Y22899D01*
X18588Y22872D01*
Y20770D01*
X18420D01*
X18364Y20759D01*
X18317Y20728D01*
X18285Y20680D01*
X18274Y20625D01*
X18285Y20569D01*
X18317Y20522D01*
X18358Y20494D01*
X18361Y20467D01*
X18358Y20441D01*
X18317Y20413D01*
X18285Y20366D01*
X18274Y20310D01*
X18285Y20254D01*
X18317Y20207D01*
X18358Y20179D01*
X18361Y20152D01*
X18358Y20126D01*
X18317Y20098D01*
X18285Y20051D01*
X18274Y19995D01*
X18285Y19939D01*
X18317Y19892D01*
X18358Y19864D01*
X18361Y19837D01*
X18358Y19811D01*
X18317Y19783D01*
X18285Y19736D01*
X18274Y19680D01*
X18285Y19624D01*
X18317Y19577D01*
X18358Y19549D01*
X18361Y19522D01*
X18358Y19496D01*
X18317Y19468D01*
X18285Y19421D01*
X18274Y19365D01*
X18285Y19309D01*
X18317Y19262D01*
X18364Y19231D01*
X18420Y19219D01*
X18912D01*
X18967Y19231D01*
X19001Y19253D01*
X20147D01*
Y18910D01*
X20534D01*
X20724Y18721D01*
X20724Y18721D01*
X20760Y18696D01*
X20803Y18688D01*
X20803Y18688D01*
X21676D01*
X21676Y18688D01*
X21719Y18696D01*
X21755Y18721D01*
X21916Y18881D01*
X22351D01*
Y19553D01*
X21779D01*
Y19100D01*
X21771Y19095D01*
X21721Y19122D01*
Y19553D01*
X21149D01*
Y18912D01*
X20850D01*
X20653Y19109D01*
Y19396D01*
X20366D01*
X20317Y19444D01*
X20281Y19469D01*
X20238Y19477D01*
X20238Y19477D01*
X19001D01*
X18973Y19496D01*
X18970Y19522D01*
X18973Y19549D01*
X19001Y19568D01*
X20233D01*
X20233Y19568D01*
X20276Y19576D01*
X20312Y19601D01*
X20366Y19654D01*
X20703D01*
Y19971D01*
X21149D01*
Y19747D01*
X21721D01*
Y20419D01*
X21149D01*
Y20195D01*
X20636D01*
X20636Y20195D01*
X20593Y20187D01*
X20557Y20162D01*
X20557Y20162D01*
X20534Y20140D01*
X20197D01*
Y19803D01*
X20187Y19792D01*
X20052D01*
X20037Y19842D01*
X20037Y19842D01*
X20083Y19912D01*
X20100Y19994D01*
X20083Y20076D01*
X20037Y20145D01*
X19968Y20192D01*
X19886Y20208D01*
X19804Y20192D01*
X19734Y20145D01*
X19708Y20106D01*
X19574D01*
X19567Y20115D01*
X19577Y20182D01*
X19601Y20199D01*
X19648Y20268D01*
X19664Y20350D01*
X19648Y20432D01*
X19601Y20501D01*
X19532Y20548D01*
X19450Y20564D01*
X19368Y20548D01*
X19299Y20501D01*
X19272Y20462D01*
X19015D01*
X19000Y20512D01*
X19015Y20522D01*
X19046Y20569D01*
X19057Y20625D01*
X19046Y20680D01*
X19015Y20728D01*
X18967Y20759D01*
X18912Y20770D01*
X18812D01*
Y22872D01*
X18851Y22899D01*
X18898Y22968D01*
X18914Y23050D01*
X18898Y23132D01*
X18851Y23201D01*
X18782Y23248D01*
X18700Y23264D01*
D02*
G37*
G36*
X2550Y19350D02*
X2457Y19338D01*
X2371Y19302D01*
X2297Y19246D01*
X2240Y19171D01*
X2204Y19085D01*
X2192Y18992D01*
X2204Y18899D01*
X2240Y18813D01*
X2297Y18739D01*
X2371Y18682D01*
X2457Y18646D01*
X2550Y18634D01*
X2643Y18646D01*
X2729Y18682D01*
X2803Y18739D01*
X2860Y18813D01*
X2889Y18882D01*
X5016D01*
X5042Y18842D01*
X5112Y18796D01*
X5194Y18780D01*
X5276Y18796D01*
X5345Y18842D01*
X5392Y18912D01*
X5408Y18994D01*
X5392Y19076D01*
X5345Y19145D01*
X5276Y19192D01*
X5194Y19208D01*
X5112Y19192D01*
X5042Y19145D01*
X5016Y19106D01*
X2887D01*
X2860Y19171D01*
X2803Y19246D01*
X2729Y19302D01*
X2643Y19338D01*
X2550Y19350D01*
D02*
G37*
G36*
X17983Y17184D02*
X17927Y17173D01*
X17880Y17141D01*
X17852Y17099D01*
X17825Y17096D01*
X17798Y17099D01*
X17771Y17141D01*
X17723Y17173D01*
X17668Y17184D01*
X17612Y17173D01*
X17565Y17141D01*
X17537Y17099D01*
X17510Y17096D01*
X17483Y17099D01*
X17456Y17141D01*
X17408Y17173D01*
X17353Y17184D01*
X17297Y17173D01*
X17250Y17141D01*
X17222Y17099D01*
X17195Y17096D01*
X17168Y17099D01*
X17141Y17141D01*
X17093Y17173D01*
X17038Y17184D01*
X16982Y17173D01*
X16935Y17141D01*
X16907Y17099D01*
X16880Y17096D01*
X16854Y17099D01*
X16826Y17141D01*
X16779Y17173D01*
X16723Y17184D01*
X16667Y17173D01*
X16620Y17141D01*
X16592Y17099D01*
X16565Y17096D01*
X16539Y17099D01*
X16511Y17141D01*
X16464Y17173D01*
X16408Y17184D01*
X16352Y17173D01*
X16305Y17141D01*
X16277Y17099D01*
X16250Y17096D01*
X16224Y17099D01*
X16196Y17141D01*
X16149Y17173D01*
X16093Y17184D01*
X16037Y17173D01*
X15990Y17141D01*
X15962Y17099D01*
X15935Y17096D01*
X15909Y17099D01*
X15881Y17141D01*
X15834Y17173D01*
X15778Y17184D01*
X15722Y17173D01*
X15675Y17141D01*
X15644Y17094D01*
X15632Y17038D01*
Y16546D01*
X15638Y16519D01*
Y16178D01*
X15599Y16151D01*
X15552Y16082D01*
X15536Y16000D01*
X15552Y15918D01*
X15599Y15849D01*
X15668Y15802D01*
X15750Y15786D01*
X15832Y15802D01*
X15901Y15849D01*
X15948Y15918D01*
X15964Y16000D01*
X15948Y16082D01*
X15901Y16151D01*
X15862Y16178D01*
Y16431D01*
X15881Y16443D01*
X15909Y16485D01*
X15935Y16488D01*
X15962Y16485D01*
X15990Y16443D01*
X16037Y16412D01*
X16093Y16401D01*
X16149Y16412D01*
X16196Y16443D01*
X16224Y16485D01*
X16250Y16488D01*
X16277Y16485D01*
X16305Y16443D01*
X16352Y16412D01*
X16408Y16401D01*
X16464Y16412D01*
X16511Y16443D01*
X16539Y16485D01*
X16565Y16488D01*
X16592Y16485D01*
X16620Y16443D01*
X16667Y16412D01*
X16723Y16401D01*
X16779Y16412D01*
X16826Y16443D01*
X16854Y16485D01*
X16880Y16488D01*
X16907Y16485D01*
X16935Y16443D01*
X16982Y16412D01*
X17038Y16401D01*
X17093Y16412D01*
X17141Y16443D01*
X17168Y16485D01*
X17195Y16488D01*
X17222Y16485D01*
X17250Y16443D01*
X17297Y16412D01*
X17353Y16401D01*
X17408Y16412D01*
X17456Y16443D01*
X17483Y16485D01*
X17510Y16488D01*
X17537Y16485D01*
X17565Y16443D01*
X17612Y16412D01*
X17668Y16401D01*
X17723Y16412D01*
X17771Y16443D01*
X17798Y16485D01*
X17825Y16488D01*
X17852Y16485D01*
X17880Y16443D01*
X17927Y16412D01*
X17983Y16401D01*
X18038Y16412D01*
X18086Y16443D01*
X18117Y16490D01*
X18128Y16546D01*
Y16680D01*
X52861D01*
X55836Y13705D01*
Y12776D01*
X55819Y12765D01*
X55780Y12706D01*
X55766Y12636D01*
Y12097D01*
X55780Y12028D01*
X55819Y11969D01*
X55878Y11929D01*
X55948Y11915D01*
X56018Y11929D01*
X56077Y11969D01*
X56116Y12028D01*
X56130Y12097D01*
Y12636D01*
X56116Y12706D01*
X56077Y12765D01*
X56060Y12776D01*
Y13752D01*
X56060Y13752D01*
X56052Y13795D01*
X56027Y13831D01*
X56027Y13831D01*
X52987Y16871D01*
X52951Y16896D01*
X52908Y16904D01*
X52908Y16904D01*
X18128D01*
Y17038D01*
X18117Y17094D01*
X18086Y17141D01*
X18038Y17173D01*
X17983Y17184D01*
D02*
G37*
G36*
X2550Y18366D02*
X2457Y18354D01*
X2371Y18318D01*
X2297Y18261D01*
X2240Y18187D01*
X2204Y18101D01*
X2192Y18008D01*
X2204Y17915D01*
X2240Y17829D01*
X2297Y17754D01*
X2371Y17698D01*
X2457Y17662D01*
X2550Y17650D01*
X2643Y17662D01*
X2729Y17698D01*
X2803Y17754D01*
X2860Y17829D01*
X2874Y17861D01*
X5555D01*
X5583Y17811D01*
X5576Y17776D01*
X5585Y17730D01*
X5612Y17691D01*
Y17665D01*
X5585Y17626D01*
X5576Y17580D01*
X5585Y17533D01*
X5612Y17494D01*
Y17469D01*
X5585Y17429D01*
X5576Y17383D01*
X5585Y17336D01*
X5612Y17297D01*
Y17272D01*
X5585Y17232D01*
X5576Y17186D01*
X5585Y17139D01*
X5612Y17100D01*
Y17075D01*
X5585Y17035D01*
X5576Y16989D01*
X5585Y16943D01*
X5612Y16903D01*
Y16878D01*
X5585Y16839D01*
X5576Y16792D01*
X5583Y16757D01*
X5555Y16707D01*
X5265D01*
X5239Y16747D01*
X5169Y16793D01*
X5165Y16794D01*
X4899Y17059D01*
Y17397D01*
X4413D01*
Y16891D01*
X4751D01*
X4919Y16722D01*
X4889Y16677D01*
X4873Y16595D01*
X4889Y16513D01*
X4936Y16444D01*
X5005Y16397D01*
X5087Y16381D01*
X5169Y16397D01*
X5239Y16444D01*
X5265Y16483D01*
X5555D01*
X5583Y16433D01*
X5576Y16398D01*
X5585Y16352D01*
X5612Y16313D01*
Y16287D01*
X5585Y16248D01*
X5576Y16202D01*
X5585Y16155D01*
X5612Y16116D01*
X5651Y16089D01*
X5697Y16080D01*
X6288D01*
X6334Y16089D01*
X8261D01*
X8261Y16089D01*
X8304Y16098D01*
X8340Y16122D01*
X8582Y16364D01*
X8582Y16364D01*
X8607Y16401D01*
X8615Y16444D01*
X8615Y16444D01*
Y17113D01*
X8633Y17125D01*
X8673Y17185D01*
X8687Y17255D01*
X8673Y17325D01*
X8633Y17385D01*
X8573Y17425D01*
X8503Y17439D01*
X8433Y17425D01*
X8373Y17385D01*
X8334Y17325D01*
X8320Y17255D01*
X8334Y17185D01*
X8373Y17125D01*
X8391Y17113D01*
Y16828D01*
X8341Y16801D01*
X8323Y16813D01*
X8253Y16827D01*
X8183Y16813D01*
X8123Y16773D01*
X8084Y16714D01*
X8070Y16644D01*
X8074Y16623D01*
X7961Y16511D01*
X6430D01*
X6402Y16561D01*
X6409Y16595D01*
X6400Y16642D01*
X6374Y16681D01*
Y16706D01*
X6400Y16746D01*
X6409Y16792D01*
X6402Y16827D01*
X6430Y16877D01*
X6870D01*
X6912Y16841D01*
X6925Y16770D01*
X6965Y16711D01*
X7025Y16671D01*
X7095Y16657D01*
X7165Y16671D01*
X7225Y16711D01*
X7265Y16770D01*
X7279Y16841D01*
X7265Y16911D01*
X7225Y16970D01*
X7165Y17010D01*
X7116Y17020D01*
X7110Y17028D01*
X7137Y17078D01*
X7212D01*
X7223Y17061D01*
X7283Y17021D01*
X7353Y17007D01*
X7423Y17021D01*
X7483Y17061D01*
X7523Y17120D01*
X7537Y17191D01*
X7523Y17261D01*
X7484Y17319D01*
X7485Y17327D01*
X7500Y17369D01*
X7912D01*
X7923Y17351D01*
X7983Y17312D01*
X8053Y17298D01*
X8123Y17312D01*
X8183Y17351D01*
X8223Y17411D01*
X8237Y17481D01*
X8223Y17551D01*
X8183Y17611D01*
X8123Y17651D01*
X8053Y17665D01*
X7983Y17651D01*
X7923Y17611D01*
X7912Y17593D01*
X7318D01*
X7276Y17585D01*
X7239Y17560D01*
X7239Y17560D01*
X7174Y17495D01*
X6430D01*
X6402Y17545D01*
X6409Y17580D01*
X6400Y17626D01*
X6374Y17665D01*
Y17691D01*
X6400Y17730D01*
X6409Y17776D01*
X6400Y17823D01*
X6374Y17862D01*
Y17887D01*
X6400Y17927D01*
X6409Y17973D01*
X6400Y18020D01*
X6374Y18059D01*
X6334Y18085D01*
X6288Y18095D01*
X5697D01*
X5651Y18085D01*
X2898D01*
X2896Y18101D01*
X2860Y18187D01*
X2803Y18261D01*
X2729Y18318D01*
X2643Y18354D01*
X2550Y18366D01*
D02*
G37*
G36*
X62305Y20255D02*
X61595D01*
Y19545D01*
X61787D01*
Y19217D01*
X61771Y19210D01*
X61697Y19153D01*
X61640Y19079D01*
X61604Y18993D01*
X61592Y18900D01*
X61604Y18807D01*
X61640Y18721D01*
X61697Y18647D01*
X61771Y18590D01*
X61787Y18583D01*
Y18217D01*
X61771Y18210D01*
X61697Y18153D01*
X61640Y18079D01*
X61604Y17993D01*
X61592Y17900D01*
X61604Y17807D01*
X61640Y17721D01*
X61697Y17647D01*
X61771Y17590D01*
X61787Y17583D01*
Y17217D01*
X61771Y17210D01*
X61697Y17153D01*
X61640Y17079D01*
X61604Y16993D01*
X61592Y16900D01*
X61604Y16807D01*
X61640Y16721D01*
X61697Y16647D01*
X61771Y16590D01*
X61857Y16554D01*
X61950Y16542D01*
X62043Y16554D01*
X62129Y16590D01*
X62203Y16647D01*
X62260Y16721D01*
X62296Y16807D01*
X62308Y16900D01*
X62296Y16993D01*
X62260Y17079D01*
X62203Y17153D01*
X62129Y17210D01*
X62113Y17217D01*
Y17583D01*
X62129Y17590D01*
X62203Y17647D01*
X62260Y17721D01*
X62296Y17807D01*
X62308Y17900D01*
X62296Y17993D01*
X62260Y18079D01*
X62203Y18153D01*
X62129Y18210D01*
X62113Y18217D01*
Y18583D01*
X62129Y18590D01*
X62203Y18647D01*
X62260Y18721D01*
X62296Y18807D01*
X62308Y18900D01*
X62296Y18993D01*
X62260Y19079D01*
X62203Y19153D01*
X62129Y19210D01*
X62113Y19217D01*
Y19545D01*
X62305D01*
Y20255D01*
D02*
G37*
G36*
X8670Y15713D02*
X8623Y15703D01*
X8584Y15677D01*
X8559D01*
X8519Y15703D01*
X8473Y15713D01*
X8427Y15703D01*
X8387Y15677D01*
X8362D01*
X8323Y15703D01*
X8276Y15713D01*
X8230Y15703D01*
X8190Y15677D01*
X8165D01*
X8126Y15703D01*
X8079Y15713D01*
X8033Y15703D01*
X7993Y15677D01*
X7967Y15638D01*
X7958Y15591D01*
Y15001D01*
X7967Y14954D01*
Y14798D01*
X7967Y14798D01*
X7976Y14756D01*
X8000Y14719D01*
X8020Y14699D01*
X7995Y14653D01*
X7987Y14655D01*
X7941Y14645D01*
X7798Y14789D01*
Y14954D01*
X7807Y15001D01*
Y15591D01*
X7798Y15638D01*
X7771Y15677D01*
X7732Y15703D01*
X7686Y15713D01*
X7639Y15703D01*
X7600Y15677D01*
X7575D01*
X7535Y15703D01*
X7489Y15713D01*
X7442Y15703D01*
X7403Y15677D01*
X7378D01*
X7338Y15703D01*
X7292Y15713D01*
X7245Y15703D01*
X7206Y15677D01*
X7181D01*
X7141Y15703D01*
X7095Y15713D01*
X7049Y15703D01*
X7009Y15677D01*
X6984D01*
X6945Y15703D01*
X6898Y15713D01*
X6852Y15703D01*
X6812Y15677D01*
X6787D01*
X6748Y15703D01*
X6701Y15713D01*
X6655Y15703D01*
X6615Y15677D01*
X6590D01*
X6551Y15703D01*
X6504Y15713D01*
X6458Y15703D01*
X6419Y15677D01*
X6392Y15638D01*
X6383Y15591D01*
Y15001D01*
X6392Y14954D01*
X6419Y14915D01*
X6458Y14889D01*
X6504Y14879D01*
X6551Y14889D01*
X6590Y14915D01*
X6615D01*
X6655Y14889D01*
X6701Y14879D01*
X6726Y14884D01*
X6767Y14855D01*
X6770Y14808D01*
X6418Y14456D01*
X5653D01*
Y14587D01*
X5147D01*
Y14456D01*
X4815D01*
Y14796D01*
X3986D01*
Y14282D01*
X4499D01*
X4517Y14264D01*
X4517Y14264D01*
X4553Y14240D01*
X4596Y14232D01*
X5147D01*
Y14101D01*
X5653D01*
Y14232D01*
X6355D01*
X6374Y14185D01*
X5951Y13762D01*
X5653D01*
Y13893D01*
X5147D01*
Y13762D01*
X4815D01*
Y13812D01*
X3986D01*
Y13298D01*
X4815D01*
Y13538D01*
X5147D01*
Y13407D01*
X5653D01*
Y13538D01*
X5997D01*
X5997Y13538D01*
X6040Y13546D01*
X6077Y13571D01*
X7130Y14624D01*
X7180Y14603D01*
Y14438D01*
X6924Y14182D01*
X6900Y14146D01*
X6891Y14103D01*
X6891Y14103D01*
Y13743D01*
X6816D01*
Y13406D01*
X6171Y12760D01*
X6146Y12724D01*
X6138Y12681D01*
X6138Y12681D01*
Y12164D01*
X6138Y12164D01*
X6146Y12121D01*
X6171Y12085D01*
X6400Y11856D01*
X6400Y11856D01*
X6436Y11831D01*
X6479Y11823D01*
X6584D01*
Y11649D01*
X6938D01*
Y11253D01*
X6807D01*
Y10747D01*
X7293D01*
Y11253D01*
X7162D01*
Y11649D01*
X7256D01*
Y12221D01*
X6584D01*
Y12047D01*
X6526D01*
X6362Y12211D01*
Y12635D01*
X6534Y12807D01*
X6584Y12786D01*
Y12279D01*
X7256D01*
Y12851D01*
X6650D01*
X6629Y12901D01*
X6965Y13238D01*
X7303D01*
Y13743D01*
X7115D01*
Y14057D01*
X7365Y14306D01*
X7377Y14312D01*
X7429Y14309D01*
X7619Y14120D01*
Y13743D01*
X7544D01*
Y13238D01*
X7675D01*
Y12851D01*
X7451D01*
Y12279D01*
X8122D01*
Y12453D01*
X8192D01*
X8338Y12307D01*
Y11253D01*
X8197Y11112D01*
X7899D01*
Y11253D01*
X7413D01*
Y10747D01*
X7899D01*
Y10888D01*
X8243D01*
X8243Y10888D01*
X8286Y10896D01*
X8323Y10921D01*
X8529Y11127D01*
X8529Y11127D01*
X8554Y11164D01*
X8562Y11207D01*
Y12353D01*
X8554Y12396D01*
X8529Y12432D01*
X8529Y12432D01*
X8317Y12644D01*
X8281Y12669D01*
X8238Y12677D01*
X8238Y12677D01*
X8122D01*
Y12851D01*
X7899D01*
Y13238D01*
X8030D01*
Y13743D01*
X7843D01*
Y14166D01*
X7834Y14209D01*
X7810Y14245D01*
X7810Y14245D01*
X7601Y14455D01*
Y14598D01*
X7651Y14618D01*
X7782Y14487D01*
X7773Y14441D01*
X7789Y14359D01*
X7836Y14289D01*
X7905Y14243D01*
X7987Y14226D01*
X8069Y14243D01*
X8139Y14289D01*
X8185Y14359D01*
X8201Y14441D01*
X8194Y14479D01*
X8236Y14521D01*
X8247Y14519D01*
X8572D01*
X8599Y14480D01*
X8668Y14433D01*
X8750Y14417D01*
X8796Y14426D01*
X9204Y14019D01*
Y13647D01*
X9335D01*
Y13396D01*
X9144D01*
Y12910D01*
X9650D01*
Y13041D01*
X9844D01*
Y12910D01*
X10350D01*
Y13396D01*
X9844D01*
Y13265D01*
X9650D01*
Y13396D01*
X9559D01*
Y13647D01*
X9690D01*
Y14153D01*
X9387D01*
X8955Y14585D01*
X8964Y14631D01*
X8948Y14713D01*
X8901Y14783D01*
X8832Y14829D01*
X8768Y14842D01*
X8724Y14857D01*
X8724Y14857D01*
X8724D01*
X8716Y14889D01*
X8756Y14915D01*
X8782Y14954D01*
X8791Y15001D01*
Y15591D01*
X8782Y15638D01*
X8756Y15677D01*
X8716Y15703D01*
X8670Y15713D01*
D02*
G37*
G36*
X4421Y16708D02*
X2444D01*
X2362Y16692D01*
X2292Y16645D01*
X1699Y16051D01*
X1652Y15982D01*
X1636Y15900D01*
Y15396D01*
X1597D01*
Y14910D01*
X2103D01*
Y14939D01*
X2454D01*
Y14886D01*
X2940D01*
Y15392D01*
X2454D01*
Y15367D01*
X2103D01*
Y15396D01*
X2064D01*
Y15811D01*
X2532Y16280D01*
X4332D01*
X4442Y16169D01*
Y16044D01*
X4413D01*
Y15538D01*
X4899D01*
Y15653D01*
X5993D01*
X6045Y15663D01*
X6080Y15686D01*
X6288D01*
X6334Y15696D01*
X6374Y15722D01*
X6400Y15761D01*
X6409Y15808D01*
X6400Y15854D01*
X6374Y15894D01*
X6334Y15920D01*
X6288Y15929D01*
X5697D01*
X5693Y15928D01*
X4899D01*
Y16044D01*
X4870D01*
Y16258D01*
X4854Y16340D01*
X4808Y16409D01*
X4572Y16645D01*
X4503Y16692D01*
X4421Y16708D01*
D02*
G37*
G36*
X1353Y14800D02*
X847D01*
Y14314D01*
X1353D01*
Y14435D01*
X1597D01*
Y14304D01*
X2103D01*
Y14790D01*
X1597D01*
Y14659D01*
X1353D01*
Y14800D01*
D02*
G37*
G36*
X2529Y13168D02*
X1897D01*
Y12339D01*
X2529D01*
Y13168D01*
D02*
G37*
G36*
X57448Y12818D02*
X57378Y12804D01*
X57319Y12765D01*
X57280Y12706D01*
X57266Y12636D01*
Y12097D01*
X57280Y12028D01*
X57319Y11969D01*
X57378Y11929D01*
X57448Y11915D01*
X57518Y11929D01*
X57577Y11969D01*
X57616Y12028D01*
X57630Y12097D01*
Y12636D01*
X57616Y12706D01*
X57577Y12765D01*
X57518Y12804D01*
X57448Y12818D01*
D02*
G37*
G36*
X56948D02*
X56878Y12804D01*
X56819Y12765D01*
X56780Y12706D01*
X56766Y12636D01*
Y12097D01*
X56780Y12028D01*
X56819Y11969D01*
X56878Y11929D01*
X56948Y11915D01*
X57018Y11929D01*
X57077Y11969D01*
X57116Y12028D01*
X57130Y12097D01*
Y12636D01*
X57116Y12706D01*
X57077Y12765D01*
X57018Y12804D01*
X56948Y12818D01*
D02*
G37*
G36*
X53050Y13214D02*
X52968Y13198D01*
X52899Y13151D01*
X52852Y13082D01*
X52836Y13000D01*
X52852Y12918D01*
X52885Y12869D01*
Y12464D01*
X52795D01*
Y12384D01*
X52721D01*
X52658Y12371D01*
X52605Y12336D01*
X52285Y12015D01*
X52249Y11962D01*
X52237Y11900D01*
Y10500D01*
X52249Y10438D01*
X52285Y10385D01*
X52588Y10081D01*
X52641Y10046D01*
X52703Y10034D01*
X52795D01*
Y9954D01*
X52885D01*
Y9596D01*
X52847D01*
Y9110D01*
X53353D01*
Y9596D01*
X53211D01*
Y9954D01*
X53301D01*
Y10440D01*
X52795D01*
Y10406D01*
X52745Y10386D01*
X52563Y10568D01*
Y11832D01*
X52745Y12014D01*
X52795Y11994D01*
Y11978D01*
X53301D01*
Y12204D01*
X53766D01*
Y12097D01*
X53780Y12028D01*
X53819Y11969D01*
X53878Y11929D01*
X53948Y11915D01*
X54018Y11929D01*
X54077Y11969D01*
X54116Y12028D01*
X54130Y12097D01*
Y12636D01*
X54116Y12706D01*
X54077Y12765D01*
X54018Y12804D01*
X53948Y12818D01*
X53878Y12804D01*
X53819Y12765D01*
X53780Y12706D01*
X53766Y12636D01*
Y12530D01*
X53211D01*
Y12863D01*
X53248Y12918D01*
X53264Y13000D01*
X53248Y13082D01*
X53201Y13151D01*
X53132Y13198D01*
X53050Y13214D01*
D02*
G37*
G36*
X44945Y12818D02*
X44876Y12804D01*
X44817Y12765D01*
X44777Y12706D01*
X44763Y12636D01*
Y12097D01*
X44777Y12028D01*
X44817Y11969D01*
X44876Y11929D01*
X44945Y11915D01*
X45015Y11929D01*
X45074Y11969D01*
X45114Y12028D01*
X45127Y12097D01*
Y12636D01*
X45114Y12706D01*
X45074Y12765D01*
X45015Y12804D01*
X44945Y12818D01*
D02*
G37*
G36*
X44445D02*
X44376Y12804D01*
X44317Y12765D01*
X44277Y12706D01*
X44263Y12636D01*
Y12097D01*
X44277Y12028D01*
X44317Y11969D01*
X44376Y11929D01*
X44445Y11915D01*
X44515Y11929D01*
X44574Y11969D01*
X44614Y12028D01*
X44627Y12097D01*
Y12636D01*
X44614Y12706D01*
X44574Y12765D01*
X44515Y12804D01*
X44445Y12818D01*
D02*
G37*
G36*
X43945Y13969D02*
X43863Y13952D01*
X43794Y13906D01*
X43748Y13837D01*
X43731Y13755D01*
X43748Y13673D01*
X43794Y13603D01*
X43833Y13577D01*
Y12776D01*
X43817Y12765D01*
X43777Y12706D01*
X43763Y12636D01*
Y12097D01*
X43777Y12028D01*
X43817Y11969D01*
X43876Y11929D01*
X43945Y11915D01*
X44015Y11929D01*
X44074Y11969D01*
X44114Y12028D01*
X44127Y12097D01*
Y12636D01*
X44114Y12706D01*
X44074Y12765D01*
X44058Y12776D01*
Y13577D01*
X44097Y13603D01*
X44143Y13673D01*
X44159Y13755D01*
X44143Y13837D01*
X44097Y13906D01*
X44027Y13952D01*
X43945Y13969D01*
D02*
G37*
G36*
X43423Y13769D02*
X43341Y13753D01*
X43272Y13706D01*
X43225Y13637D01*
X43209Y13555D01*
X43225Y13473D01*
X43272Y13403D01*
X43333Y13362D01*
Y12776D01*
X43317Y12765D01*
X43277Y12706D01*
X43263Y12636D01*
Y12097D01*
X43277Y12028D01*
X43317Y11969D01*
X43376Y11929D01*
X43445Y11915D01*
X43515Y11929D01*
X43574Y11969D01*
X43614Y12028D01*
X43627Y12097D01*
Y12636D01*
X43614Y12706D01*
X43574Y12765D01*
X43558Y12776D01*
Y13392D01*
X43575Y13403D01*
X43621Y13473D01*
X43637Y13555D01*
X43621Y13637D01*
X43575Y13706D01*
X43505Y13753D01*
X43423Y13769D01*
D02*
G37*
G36*
X40550Y13214D02*
X40468Y13198D01*
X40399Y13151D01*
X40352Y13082D01*
X40336Y13000D01*
X40352Y12918D01*
X40387Y12866D01*
Y12464D01*
X40345D01*
Y12384D01*
X40121D01*
X40058Y12371D01*
X40005Y12336D01*
X39835Y12165D01*
X39799Y12112D01*
X39787Y12050D01*
Y10400D01*
X39799Y10338D01*
X39835Y10285D01*
X40038Y10081D01*
X40091Y10046D01*
X40153Y10034D01*
X40345D01*
Y9954D01*
X40435D01*
Y9596D01*
X40347D01*
Y9110D01*
X40853D01*
Y9596D01*
X40761D01*
Y9954D01*
X40851D01*
Y10440D01*
X40345D01*
Y10360D01*
X40221D01*
X40113Y10468D01*
Y11982D01*
X40188Y12057D01*
X40345D01*
Y11978D01*
X40851D01*
Y12204D01*
X41263D01*
Y12097D01*
X41277Y12028D01*
X41317Y11969D01*
X41376Y11929D01*
X41445Y11915D01*
X41515Y11929D01*
X41574Y11969D01*
X41614Y12028D01*
X41627Y12097D01*
Y12636D01*
X41614Y12706D01*
X41574Y12765D01*
X41515Y12804D01*
X41445Y12818D01*
X41376Y12804D01*
X41317Y12765D01*
X41277Y12706D01*
X41263Y12636D01*
Y12530D01*
X40744D01*
X40713Y12555D01*
Y12866D01*
X40748Y12918D01*
X40764Y13000D01*
X40748Y13082D01*
X40701Y13151D01*
X40632Y13198D01*
X40550Y13214D01*
D02*
G37*
G36*
X30696Y12818D02*
X30627Y12804D01*
X30567Y12765D01*
X30528Y12706D01*
X30514Y12636D01*
Y12097D01*
X30528Y12028D01*
X30567Y11969D01*
X30627Y11929D01*
X30696Y11915D01*
X30766Y11929D01*
X30825Y11969D01*
X30864Y12028D01*
X30878Y12097D01*
Y12636D01*
X30864Y12706D01*
X30825Y12765D01*
X30766Y12804D01*
X30696Y12818D01*
D02*
G37*
G36*
X30196D02*
X30127Y12804D01*
X30067Y12765D01*
X30028Y12706D01*
X30014Y12636D01*
Y12097D01*
X30028Y12028D01*
X30067Y11969D01*
X30127Y11929D01*
X30196Y11915D01*
X30266Y11929D01*
X30325Y11969D01*
X30364Y12028D01*
X30378Y12097D01*
Y12636D01*
X30364Y12706D01*
X30325Y12765D01*
X30266Y12804D01*
X30196Y12818D01*
D02*
G37*
G36*
X29600Y13824D02*
X29518Y13808D01*
X29449Y13761D01*
X29402Y13692D01*
X29386Y13610D01*
X29402Y13528D01*
X29449Y13459D01*
X29518Y13412D01*
X29584Y13399D01*
Y12776D01*
X29567Y12765D01*
X29528Y12706D01*
X29514Y12636D01*
Y12097D01*
X29528Y12028D01*
X29567Y11969D01*
X29627Y11929D01*
X29696Y11915D01*
X29766Y11929D01*
X29825Y11969D01*
X29864Y12028D01*
X29878Y12097D01*
Y12636D01*
X29864Y12706D01*
X29825Y12765D01*
X29808Y12776D01*
Y13514D01*
X29808Y13514D01*
X29802Y13547D01*
X29814Y13610D01*
X29798Y13692D01*
X29751Y13761D01*
X29682Y13808D01*
X29600Y13824D01*
D02*
G37*
G36*
X29175Y13564D02*
X29093Y13548D01*
X29023Y13501D01*
X28977Y13432D01*
X28961Y13350D01*
X28977Y13268D01*
X29023Y13199D01*
X29084Y13158D01*
Y12776D01*
X29067Y12765D01*
X29028Y12706D01*
X29014Y12636D01*
Y12097D01*
X29028Y12028D01*
X29067Y11969D01*
X29127Y11929D01*
X29196Y11915D01*
X29266Y11929D01*
X29325Y11969D01*
X29364Y12028D01*
X29378Y12097D01*
Y12636D01*
X29364Y12706D01*
X29325Y12765D01*
X29308Y12776D01*
Y13187D01*
X29326Y13199D01*
X29373Y13268D01*
X29389Y13350D01*
X29373Y13432D01*
X29326Y13501D01*
X29257Y13548D01*
X29175Y13564D01*
D02*
G37*
G36*
X26298Y13214D02*
X26216Y13198D01*
X26147Y13151D01*
X26100Y13082D01*
X26084Y13000D01*
X26100Y12918D01*
X26135Y12866D01*
Y12464D01*
X26045D01*
Y12384D01*
X25921D01*
X25858Y12371D01*
X25805Y12336D01*
X25585Y12115D01*
X25549Y12062D01*
X25537Y12000D01*
Y10500D01*
X25549Y10438D01*
X25585Y10385D01*
X25888Y10081D01*
X25941Y10046D01*
X26003Y10034D01*
X26045D01*
Y9954D01*
X26135D01*
Y9596D01*
X26045D01*
Y9110D01*
X26551D01*
Y9596D01*
X26461D01*
Y9954D01*
X26551D01*
Y10440D01*
X26045D01*
Y10440D01*
X26007Y10424D01*
X25863Y10568D01*
Y11932D01*
X25988Y12057D01*
X26045D01*
Y11978D01*
X26551D01*
Y12204D01*
X27014D01*
Y12097D01*
X27028Y12028D01*
X27067Y11969D01*
X27127Y11929D01*
X27196Y11915D01*
X27266Y11929D01*
X27325Y11969D01*
X27364Y12028D01*
X27378Y12097D01*
Y12636D01*
X27364Y12706D01*
X27325Y12765D01*
X27266Y12804D01*
X27196Y12818D01*
X27127Y12804D01*
X27067Y12765D01*
X27028Y12706D01*
X27014Y12636D01*
Y12530D01*
X26461D01*
Y12866D01*
X26496Y12918D01*
X26512Y13000D01*
X26496Y13082D01*
X26449Y13151D01*
X26380Y13198D01*
X26298Y13214D01*
D02*
G37*
G36*
X17750Y12818D02*
X17680Y12804D01*
X17621Y12765D01*
X17582Y12706D01*
X17568Y12636D01*
Y12097D01*
X17582Y12028D01*
X17621Y11969D01*
X17680Y11929D01*
X17750Y11915D01*
X17820Y11929D01*
X17879Y11969D01*
X17918Y12028D01*
X17932Y12097D01*
Y12636D01*
X17918Y12706D01*
X17879Y12765D01*
X17820Y12804D01*
X17750Y12818D01*
D02*
G37*
G36*
X17250D02*
X17180Y12804D01*
X17121Y12765D01*
X17082Y12706D01*
X17068Y12636D01*
Y12097D01*
X17082Y12028D01*
X17121Y11969D01*
X17180Y11929D01*
X17250Y11915D01*
X17320Y11929D01*
X17379Y11969D01*
X17418Y12028D01*
X17432Y12097D01*
Y12636D01*
X17418Y12706D01*
X17379Y12765D01*
X17320Y12804D01*
X17250Y12818D01*
D02*
G37*
G36*
X16750Y13614D02*
X16668Y13598D01*
X16599Y13551D01*
X16552Y13482D01*
X16536Y13400D01*
X16552Y13318D01*
X16599Y13249D01*
X16638Y13222D01*
Y12776D01*
X16621Y12765D01*
X16582Y12706D01*
X16568Y12636D01*
Y12097D01*
X16582Y12028D01*
X16621Y11969D01*
X16680Y11929D01*
X16750Y11915D01*
X16820Y11929D01*
X16879Y11969D01*
X16918Y12028D01*
X16932Y12097D01*
Y12636D01*
X16918Y12706D01*
X16879Y12765D01*
X16862Y12776D01*
Y13222D01*
X16901Y13249D01*
X16948Y13318D01*
X16964Y13400D01*
X16948Y13482D01*
X16901Y13551D01*
X16832Y13598D01*
X16750Y13614D01*
D02*
G37*
G36*
X16150Y13664D02*
X16068Y13648D01*
X15999Y13601D01*
X15952Y13532D01*
X15936Y13450D01*
X15952Y13368D01*
X15999Y13299D01*
X16038Y13272D01*
Y12467D01*
X16038Y12467D01*
X16046Y12424D01*
X16068Y12391D01*
Y12097D01*
X16082Y12028D01*
X16121Y11969D01*
X16180Y11929D01*
X16250Y11915D01*
X16320Y11929D01*
X16379Y11969D01*
X16418Y12028D01*
X16432Y12097D01*
Y12636D01*
X16418Y12706D01*
X16379Y12765D01*
X16320Y12804D01*
X16262Y12816D01*
Y13272D01*
X16301Y13299D01*
X16348Y13368D01*
X16364Y13450D01*
X16348Y13532D01*
X16301Y13601D01*
X16232Y13648D01*
X16150Y13664D01*
D02*
G37*
G36*
X8122Y12221D02*
X7451D01*
Y11649D01*
X8122D01*
Y12221D01*
D02*
G37*
G36*
X55448Y12818D02*
X55378Y12804D01*
X55319Y12765D01*
X55280Y12706D01*
X55266Y12636D01*
Y12097D01*
X55280Y12028D01*
X55319Y11969D01*
X55336Y11957D01*
Y11397D01*
X55297Y11371D01*
X55250Y11302D01*
X55234Y11220D01*
X55250Y11138D01*
X55297Y11068D01*
X55366Y11022D01*
X55448Y11006D01*
X55530Y11022D01*
X55599Y11068D01*
X55646Y11138D01*
X55662Y11220D01*
X55646Y11302D01*
X55599Y11371D01*
X55560Y11397D01*
Y11957D01*
X55577Y11969D01*
X55616Y12028D01*
X55630Y12097D01*
Y12636D01*
X55616Y12706D01*
X55577Y12765D01*
X55518Y12804D01*
X55448Y12818D01*
D02*
G37*
G36*
X54948D02*
X54878Y12804D01*
X54819Y12765D01*
X54780Y12706D01*
X54766Y12636D01*
Y12097D01*
X54780Y12028D01*
X54819Y11969D01*
X54836Y11957D01*
Y11397D01*
X54797Y11371D01*
X54750Y11302D01*
X54734Y11220D01*
X54750Y11138D01*
X54797Y11068D01*
X54866Y11022D01*
X54948Y11006D01*
X55030Y11022D01*
X55099Y11068D01*
X55146Y11138D01*
X55162Y11220D01*
X55146Y11302D01*
X55099Y11371D01*
X55060Y11397D01*
Y11957D01*
X55077Y11969D01*
X55116Y12028D01*
X55130Y12097D01*
Y12636D01*
X55116Y12706D01*
X55077Y12765D01*
X55018Y12804D01*
X54948Y12818D01*
D02*
G37*
G36*
X42945D02*
X42876Y12804D01*
X42817Y12765D01*
X42777Y12706D01*
X42763Y12636D01*
Y12097D01*
X42777Y12028D01*
X42817Y11969D01*
X42833Y11957D01*
Y11344D01*
X42797Y11319D01*
X42750Y11250D01*
X42734Y11168D01*
X42750Y11086D01*
X42797Y11016D01*
X42866Y10970D01*
X42948Y10954D01*
X43030Y10970D01*
X43099Y11016D01*
X43146Y11086D01*
X43162Y11168D01*
X43146Y11250D01*
X43099Y11319D01*
X43058Y11347D01*
Y11957D01*
X43074Y11969D01*
X43114Y12028D01*
X43127Y12097D01*
Y12636D01*
X43114Y12706D01*
X43074Y12765D01*
X43015Y12804D01*
X42945Y12818D01*
D02*
G37*
G36*
X42445D02*
X42376Y12804D01*
X42317Y12765D01*
X42277Y12706D01*
X42263Y12636D01*
Y12097D01*
X42277Y12028D01*
X42317Y11969D01*
X42333Y11957D01*
Y11344D01*
X42297Y11319D01*
X42250Y11250D01*
X42234Y11168D01*
X42250Y11086D01*
X42297Y11016D01*
X42366Y10970D01*
X42448Y10954D01*
X42530Y10970D01*
X42599Y11016D01*
X42646Y11086D01*
X42662Y11168D01*
X42646Y11250D01*
X42599Y11319D01*
X42558Y11347D01*
Y11957D01*
X42574Y11969D01*
X42614Y12028D01*
X42627Y12097D01*
Y12636D01*
X42614Y12706D01*
X42574Y12765D01*
X42515Y12804D01*
X42445Y12818D01*
D02*
G37*
G36*
X28696D02*
X28627Y12804D01*
X28567Y12765D01*
X28528Y12706D01*
X28514Y12636D01*
Y12097D01*
X28528Y12028D01*
X28567Y11969D01*
X28584Y11957D01*
Y11361D01*
X28521Y11319D01*
X28475Y11250D01*
X28459Y11168D01*
X28475Y11086D01*
X28521Y11016D01*
X28591Y10970D01*
X28673Y10954D01*
X28755Y10970D01*
X28824Y11016D01*
X28871Y11086D01*
X28887Y11168D01*
X28871Y11250D01*
X28824Y11319D01*
X28808Y11330D01*
Y11957D01*
X28825Y11969D01*
X28864Y12028D01*
X28878Y12097D01*
Y12636D01*
X28864Y12706D01*
X28825Y12765D01*
X28766Y12804D01*
X28696Y12818D01*
D02*
G37*
G36*
X28196D02*
X28127Y12804D01*
X28067Y12765D01*
X28028Y12706D01*
X28014Y12636D01*
Y12097D01*
X28028Y12028D01*
X28067Y11969D01*
X28084Y11957D01*
Y11361D01*
X28021Y11319D01*
X27975Y11250D01*
X27959Y11168D01*
X27975Y11086D01*
X28021Y11016D01*
X28091Y10970D01*
X28173Y10954D01*
X28255Y10970D01*
X28324Y11016D01*
X28371Y11086D01*
X28387Y11168D01*
X28371Y11250D01*
X28324Y11319D01*
X28308Y11330D01*
Y11957D01*
X28325Y11969D01*
X28364Y12028D01*
X28378Y12097D01*
Y12636D01*
X28364Y12706D01*
X28325Y12765D01*
X28266Y12804D01*
X28196Y12818D01*
D02*
G37*
G36*
X15750D02*
X15680Y12804D01*
X15621Y12765D01*
X15582Y12706D01*
X15568Y12636D01*
Y12097D01*
X15582Y12028D01*
X15621Y11969D01*
X15638Y11957D01*
Y11272D01*
X15623Y11250D01*
X15607Y11168D01*
X15623Y11086D01*
X15669Y11016D01*
X15739Y10970D01*
X15821Y10954D01*
X15903Y10970D01*
X15972Y11016D01*
X16019Y11086D01*
X16035Y11168D01*
X16019Y11250D01*
X15972Y11319D01*
X15903Y11366D01*
X15862Y11374D01*
Y11957D01*
X15879Y11969D01*
X15918Y12028D01*
X15932Y12097D01*
Y12636D01*
X15918Y12706D01*
X15879Y12765D01*
X15820Y12804D01*
X15750Y12818D01*
D02*
G37*
G36*
X15250D02*
X15180Y12804D01*
X15121Y12765D01*
X15082Y12706D01*
X15068Y12636D01*
Y12097D01*
X15082Y12028D01*
X15121Y11969D01*
X15138Y11957D01*
Y11340D01*
X15107Y11319D01*
X15060Y11250D01*
X15044Y11168D01*
X15060Y11086D01*
X15107Y11016D01*
X15176Y10970D01*
X15258Y10954D01*
X15340Y10970D01*
X15409Y11016D01*
X15456Y11086D01*
X15472Y11168D01*
X15456Y11250D01*
X15409Y11319D01*
X15362Y11351D01*
Y11957D01*
X15379Y11969D01*
X15418Y12028D01*
X15432Y12097D01*
Y12636D01*
X15418Y12706D01*
X15379Y12765D01*
X15320Y12804D01*
X15250Y12818D01*
D02*
G37*
G36*
X57448Y10664D02*
X57378Y10650D01*
X57319Y10611D01*
X57280Y10552D01*
X57266Y10482D01*
Y9943D01*
X57280Y9874D01*
X57319Y9815D01*
X57378Y9775D01*
X57448Y9761D01*
X57518Y9775D01*
X57577Y9815D01*
X57616Y9874D01*
X57630Y9943D01*
Y10482D01*
X57616Y10552D01*
X57577Y10611D01*
X57518Y10650D01*
X57448Y10664D01*
D02*
G37*
G36*
X56948D02*
X56878Y10650D01*
X56819Y10611D01*
X56780Y10552D01*
X56766Y10482D01*
Y9943D01*
X56780Y9874D01*
X56819Y9815D01*
X56878Y9775D01*
X56948Y9761D01*
X57018Y9775D01*
X57077Y9815D01*
X57116Y9874D01*
X57130Y9943D01*
Y10482D01*
X57116Y10552D01*
X57077Y10611D01*
X57018Y10650D01*
X56948Y10664D01*
D02*
G37*
G36*
X53301Y11046D02*
X52795D01*
Y10560D01*
X53301D01*
Y10691D01*
X53849D01*
X53864Y10641D01*
X53819Y10611D01*
X53780Y10552D01*
X53766Y10482D01*
Y9943D01*
X53780Y9874D01*
X53819Y9815D01*
X53836Y9804D01*
Y9457D01*
X53836Y9457D01*
X53844Y9414D01*
X53869Y9378D01*
X53902Y9345D01*
Y9007D01*
X54388D01*
Y9513D01*
X54060D01*
Y9804D01*
X54077Y9815D01*
X54116Y9874D01*
X54130Y9943D01*
Y10482D01*
X54116Y10552D01*
X54077Y10611D01*
X54032Y10641D01*
X54047Y10691D01*
X54154D01*
X54285Y10560D01*
X54280Y10552D01*
X54266Y10482D01*
Y9943D01*
X54280Y9874D01*
X54319Y9815D01*
X54378Y9775D01*
X54448Y9761D01*
X54518Y9775D01*
X54577Y9815D01*
X54616Y9874D01*
X54630Y9943D01*
Y10482D01*
X54616Y10552D01*
X54577Y10611D01*
X54518Y10650D01*
X54510Y10652D01*
X54279Y10882D01*
X54243Y10907D01*
X54200Y10915D01*
X54200Y10915D01*
X53301D01*
Y11046D01*
D02*
G37*
G36*
X44945Y10664D02*
X44876Y10650D01*
X44817Y10611D01*
X44777Y10552D01*
X44763Y10482D01*
Y9943D01*
X44777Y9874D01*
X44817Y9815D01*
X44876Y9775D01*
X44945Y9761D01*
X45015Y9775D01*
X45074Y9815D01*
X45114Y9874D01*
X45127Y9943D01*
Y10482D01*
X45114Y10552D01*
X45074Y10611D01*
X45015Y10650D01*
X44945Y10664D01*
D02*
G37*
G36*
X44445D02*
X44376Y10650D01*
X44317Y10611D01*
X44277Y10552D01*
X44263Y10482D01*
Y9943D01*
X44277Y9874D01*
X44317Y9815D01*
X44376Y9775D01*
X44445Y9761D01*
X44515Y9775D01*
X44574Y9815D01*
X44614Y9874D01*
X44627Y9943D01*
Y10482D01*
X44614Y10552D01*
X44574Y10611D01*
X44515Y10650D01*
X44445Y10664D01*
D02*
G37*
G36*
X40851Y11046D02*
X40345D01*
Y10560D01*
X40851D01*
Y10691D01*
X41346D01*
X41362Y10641D01*
X41317Y10611D01*
X41277Y10552D01*
X41263Y10482D01*
Y9943D01*
X41277Y9874D01*
X41317Y9815D01*
X41333Y9804D01*
Y9407D01*
X41333Y9407D01*
X41342Y9364D01*
X41349Y9353D01*
Y9007D01*
X41835D01*
Y9513D01*
X41558D01*
Y9804D01*
X41574Y9815D01*
X41614Y9874D01*
X41627Y9943D01*
Y10482D01*
X41614Y10552D01*
X41574Y10611D01*
X41529Y10641D01*
X41544Y10691D01*
X41650D01*
X41782Y10559D01*
X41777Y10552D01*
X41763Y10482D01*
Y9943D01*
X41777Y9874D01*
X41817Y9815D01*
X41876Y9775D01*
X41945Y9761D01*
X42015Y9775D01*
X42074Y9815D01*
X42114Y9874D01*
X42127Y9943D01*
Y10482D01*
X42114Y10552D01*
X42074Y10611D01*
X42015Y10650D01*
X42007Y10652D01*
X41776Y10882D01*
X41740Y10907D01*
X41697Y10915D01*
X41697Y10915D01*
X40851D01*
Y11046D01*
D02*
G37*
G36*
X30696Y10664D02*
X30627Y10650D01*
X30567Y10611D01*
X30528Y10552D01*
X30514Y10482D01*
Y9943D01*
X30528Y9874D01*
X30567Y9815D01*
X30627Y9775D01*
X30696Y9761D01*
X30766Y9775D01*
X30825Y9815D01*
X30864Y9874D01*
X30878Y9943D01*
Y10482D01*
X30864Y10552D01*
X30825Y10611D01*
X30766Y10650D01*
X30696Y10664D01*
D02*
G37*
G36*
X30196D02*
X30127Y10650D01*
X30067Y10611D01*
X30028Y10552D01*
X30014Y10482D01*
Y9943D01*
X30028Y9874D01*
X30067Y9815D01*
X30127Y9775D01*
X30196Y9761D01*
X30266Y9775D01*
X30325Y9815D01*
X30364Y9874D01*
X30378Y9943D01*
Y10482D01*
X30364Y10552D01*
X30325Y10611D01*
X30266Y10650D01*
X30196Y10664D01*
D02*
G37*
G36*
X26551Y11046D02*
X26045D01*
Y10560D01*
X26551D01*
Y10691D01*
X27097D01*
X27112Y10641D01*
X27067Y10611D01*
X27028Y10552D01*
X27014Y10482D01*
Y9943D01*
X27028Y9874D01*
X27067Y9815D01*
X27084Y9804D01*
Y9396D01*
X27002D01*
Y8890D01*
X27488D01*
Y9396D01*
X27308D01*
Y9804D01*
X27325Y9815D01*
X27364Y9874D01*
X27378Y9943D01*
Y10482D01*
X27364Y10552D01*
X27325Y10611D01*
X27280Y10641D01*
X27295Y10691D01*
X27450D01*
X27553Y10589D01*
X27528Y10552D01*
X27514Y10482D01*
Y9943D01*
X27528Y9874D01*
X27567Y9815D01*
X27627Y9775D01*
X27696Y9761D01*
X27766Y9775D01*
X27825Y9815D01*
X27864Y9874D01*
X27878Y9943D01*
Y10482D01*
X27864Y10552D01*
X27825Y10611D01*
X27804Y10625D01*
X27800Y10647D01*
X27775Y10683D01*
X27775Y10683D01*
X27576Y10882D01*
X27540Y10907D01*
X27497Y10915D01*
X27497Y10915D01*
X26551D01*
Y11046D01*
D02*
G37*
G36*
X17750Y10664D02*
X17680Y10650D01*
X17621Y10611D01*
X17582Y10552D01*
X17568Y10482D01*
Y9943D01*
X17582Y9874D01*
X17621Y9815D01*
X17680Y9775D01*
X17750Y9761D01*
X17820Y9775D01*
X17879Y9815D01*
X17918Y9874D01*
X17932Y9943D01*
Y10482D01*
X17918Y10552D01*
X17879Y10611D01*
X17820Y10650D01*
X17750Y10664D01*
D02*
G37*
G36*
X17250D02*
X17180Y10650D01*
X17121Y10611D01*
X17082Y10552D01*
X17068Y10482D01*
Y9943D01*
X17082Y9874D01*
X17121Y9815D01*
X17180Y9775D01*
X17250Y9761D01*
X17320Y9775D01*
X17379Y9815D01*
X17418Y9874D01*
X17432Y9943D01*
Y10482D01*
X17418Y10552D01*
X17379Y10611D01*
X17320Y10650D01*
X17250Y10664D01*
D02*
G37*
G36*
X13506Y11046D02*
X13000D01*
Y10560D01*
X13506D01*
Y10691D01*
X14151D01*
X14166Y10641D01*
X14121Y10611D01*
X14082Y10552D01*
X14068Y10482D01*
Y9943D01*
X14082Y9874D01*
X14121Y9815D01*
X14138Y9804D01*
Y9292D01*
X14138Y9292D01*
X14147Y9250D01*
X14157Y9234D01*
Y8890D01*
X14643D01*
Y9396D01*
X14362D01*
Y9804D01*
X14379Y9815D01*
X14418Y9874D01*
X14432Y9943D01*
Y10482D01*
X14418Y10552D01*
X14411Y10563D01*
X14450Y10595D01*
X14568Y10476D01*
Y9943D01*
X14582Y9874D01*
X14621Y9815D01*
X14680Y9775D01*
X14750Y9761D01*
X14820Y9775D01*
X14879Y9815D01*
X14918Y9874D01*
X14932Y9943D01*
Y10482D01*
X14918Y10552D01*
X14879Y10611D01*
X14820Y10650D01*
X14750Y10664D01*
X14706Y10656D01*
X14479Y10882D01*
X14443Y10907D01*
X14400Y10915D01*
X14400Y10915D01*
X13506D01*
Y11046D01*
D02*
G37*
G36*
X55948Y10664D02*
X55878Y10650D01*
X55819Y10611D01*
X55780Y10552D01*
X55766Y10482D01*
Y9943D01*
X55780Y9874D01*
X55819Y9815D01*
X55836Y9804D01*
Y9552D01*
X55836Y9514D01*
X55836Y9514D01*
X55836Y9513D01*
X55793Y9513D01*
X55560D01*
Y9804D01*
X55577Y9815D01*
X55616Y9874D01*
X55630Y9943D01*
Y10482D01*
X55616Y10552D01*
X55577Y10611D01*
X55518Y10650D01*
X55448Y10664D01*
X55378Y10650D01*
X55319Y10611D01*
X55280Y10552D01*
X55266Y10482D01*
Y9943D01*
X55280Y9874D01*
X55319Y9815D01*
X55336Y9804D01*
Y9407D01*
X55336Y9407D01*
X55344Y9364D01*
X55352Y9353D01*
Y9007D01*
X55838D01*
Y9394D01*
X55888Y9415D01*
X55958Y9345D01*
Y9007D01*
X56444D01*
Y9513D01*
X56107D01*
X56060Y9560D01*
Y9804D01*
X56077Y9815D01*
X56116Y9874D01*
X56130Y9943D01*
Y10482D01*
X56116Y10552D01*
X56077Y10611D01*
X56018Y10650D01*
X55948Y10664D01*
D02*
G37*
G36*
X56448D02*
X56378Y10650D01*
X56319Y10611D01*
X56280Y10552D01*
X56266Y10482D01*
Y9943D01*
X56280Y9874D01*
X56319Y9815D01*
X56337Y9803D01*
X56344Y9764D01*
X56369Y9728D01*
X56752Y9345D01*
Y9007D01*
X57238D01*
Y9513D01*
X56901D01*
X56586Y9828D01*
X56616Y9874D01*
X56630Y9943D01*
Y10482D01*
X56616Y10552D01*
X56577Y10611D01*
X56518Y10650D01*
X56448Y10664D01*
D02*
G37*
G36*
X54948D02*
X54878Y10650D01*
X54819Y10611D01*
X54780Y10552D01*
X54766Y10482D01*
Y9943D01*
X54780Y9874D01*
X54819Y9815D01*
X54836Y9804D01*
Y9513D01*
X54508D01*
Y9007D01*
X54994D01*
Y9345D01*
X55027Y9378D01*
X55052Y9414D01*
X55060Y9457D01*
X55060Y9457D01*
Y9804D01*
X55077Y9815D01*
X55116Y9874D01*
X55130Y9943D01*
Y10482D01*
X55116Y10552D01*
X55077Y10611D01*
X55018Y10650D01*
X54948Y10664D01*
D02*
G37*
G36*
X43945D02*
X43876Y10650D01*
X43817Y10611D01*
X43777Y10552D01*
X43763Y10482D01*
Y9943D01*
X43777Y9874D01*
X43817Y9815D01*
X43833Y9804D01*
Y9578D01*
X43833Y9578D01*
X43842Y9536D01*
X43866Y9499D01*
X44020Y9345D01*
Y9007D01*
X44507D01*
Y9513D01*
X44169D01*
X44058Y9625D01*
Y9804D01*
X44074Y9815D01*
X44114Y9874D01*
X44127Y9943D01*
Y10482D01*
X44114Y10552D01*
X44074Y10611D01*
X44015Y10650D01*
X43945Y10664D01*
D02*
G37*
G36*
X43445D02*
X43376Y10650D01*
X43317Y10611D01*
X43277Y10552D01*
X43263Y10482D01*
Y9943D01*
X43277Y9874D01*
X43317Y9815D01*
X43333Y9804D01*
Y9513D01*
X43258D01*
Y9007D01*
X43744D01*
Y9513D01*
X43558D01*
Y9804D01*
X43574Y9815D01*
X43614Y9874D01*
X43627Y9943D01*
Y10482D01*
X43614Y10552D01*
X43574Y10611D01*
X43515Y10650D01*
X43445Y10664D01*
D02*
G37*
G36*
X42945D02*
X42876Y10650D01*
X42817Y10611D01*
X42777Y10552D01*
X42763Y10482D01*
Y9943D01*
X42777Y9874D01*
X42817Y9815D01*
X42833Y9804D01*
Y9513D01*
X42652D01*
Y9007D01*
X43138D01*
Y9513D01*
X43058D01*
Y9804D01*
X43074Y9815D01*
X43114Y9874D01*
X43127Y9943D01*
Y10482D01*
X43114Y10552D01*
X43074Y10611D01*
X43015Y10650D01*
X42945Y10664D01*
D02*
G37*
G36*
X42445D02*
X42376Y10650D01*
X42317Y10611D01*
X42277Y10552D01*
X42263Y10482D01*
Y9943D01*
X42277Y9874D01*
X42317Y9815D01*
X42333Y9804D01*
Y9554D01*
X42292Y9513D01*
X41955D01*
Y9007D01*
X42441D01*
Y9345D01*
X42525Y9428D01*
X42525Y9428D01*
X42549Y9465D01*
X42558Y9508D01*
Y9804D01*
X42574Y9815D01*
X42614Y9874D01*
X42627Y9943D01*
Y10482D01*
X42614Y10552D01*
X42574Y10611D01*
X42515Y10650D01*
X42445Y10664D01*
D02*
G37*
G36*
X29696D02*
X29627Y10650D01*
X29567Y10611D01*
X29528Y10552D01*
X29514Y10482D01*
Y9943D01*
X29528Y9874D01*
X29567Y9815D01*
X29584Y9804D01*
Y9411D01*
X29584Y9411D01*
X29593Y9368D01*
X29617Y9332D01*
X29721Y9227D01*
Y8890D01*
X30207D01*
Y9396D01*
X29870D01*
X29808Y9457D01*
Y9804D01*
X29825Y9815D01*
X29864Y9874D01*
X29878Y9943D01*
Y10482D01*
X29864Y10552D01*
X29825Y10611D01*
X29766Y10650D01*
X29696Y10664D01*
D02*
G37*
G36*
X29196D02*
X29127Y10650D01*
X29067Y10611D01*
X29028Y10552D01*
X29014Y10482D01*
Y9943D01*
X29028Y9874D01*
X29067Y9815D01*
X29084Y9804D01*
Y9396D01*
X28971D01*
Y8890D01*
X29457D01*
Y9396D01*
X29308D01*
Y9804D01*
X29325Y9815D01*
X29364Y9874D01*
X29378Y9943D01*
Y10482D01*
X29364Y10552D01*
X29325Y10611D01*
X29266Y10650D01*
X29196Y10664D01*
D02*
G37*
G36*
X28696D02*
X28627Y10650D01*
X28567Y10611D01*
X28528Y10552D01*
X28514Y10482D01*
Y9943D01*
X28528Y9874D01*
X28567Y9815D01*
X28584Y9804D01*
Y9396D01*
X28364D01*
Y8890D01*
X28851D01*
Y9396D01*
X28808D01*
Y9804D01*
X28825Y9815D01*
X28864Y9874D01*
X28878Y9943D01*
Y10482D01*
X28864Y10552D01*
X28825Y10611D01*
X28766Y10650D01*
X28696Y10664D01*
D02*
G37*
G36*
X28196D02*
X28127Y10650D01*
X28067Y10611D01*
X28028Y10552D01*
X28014Y10482D01*
Y9943D01*
X28028Y9874D01*
X28067Y9815D01*
X28084Y9804D01*
Y9534D01*
X27946Y9396D01*
X27608D01*
Y8890D01*
X28094D01*
Y9227D01*
X28275Y9409D01*
X28300Y9445D01*
X28308Y9488D01*
X28308Y9488D01*
Y9804D01*
X28325Y9815D01*
X28364Y9874D01*
X28378Y9943D01*
Y10482D01*
X28364Y10552D01*
X28325Y10611D01*
X28266Y10650D01*
X28196Y10664D01*
D02*
G37*
G36*
X16750D02*
X16680Y10650D01*
X16621Y10611D01*
X16582Y10552D01*
X16568Y10482D01*
Y9943D01*
X16582Y9874D01*
X16621Y9815D01*
X16638Y9804D01*
Y9392D01*
X16638Y9392D01*
X16647Y9350D01*
X16671Y9313D01*
X16757Y9227D01*
Y8890D01*
X17243D01*
Y9396D01*
X16905D01*
X16862Y9439D01*
Y9804D01*
X16879Y9815D01*
X16918Y9874D01*
X16932Y9943D01*
Y10482D01*
X16918Y10552D01*
X16879Y10611D01*
X16820Y10650D01*
X16750Y10664D01*
D02*
G37*
G36*
X16250D02*
X16180Y10650D01*
X16121Y10611D01*
X16082Y10552D01*
X16068Y10482D01*
Y9943D01*
X16082Y9874D01*
X16121Y9815D01*
X16138Y9804D01*
Y9396D01*
X16063D01*
Y8890D01*
X16549D01*
Y9396D01*
X16362D01*
Y9804D01*
X16379Y9815D01*
X16418Y9874D01*
X16432Y9943D01*
Y10482D01*
X16418Y10552D01*
X16379Y10611D01*
X16320Y10650D01*
X16250Y10664D01*
D02*
G37*
G36*
X15750D02*
X15680Y10650D01*
X15621Y10611D01*
X15582Y10552D01*
X15568Y10482D01*
Y9943D01*
X15582Y9874D01*
X15621Y9815D01*
X15638Y9804D01*
Y9396D01*
X15457D01*
Y8890D01*
X15943D01*
Y9396D01*
X15862D01*
Y9804D01*
X15879Y9815D01*
X15918Y9874D01*
X15932Y9943D01*
Y10482D01*
X15918Y10552D01*
X15879Y10611D01*
X15820Y10650D01*
X15750Y10664D01*
D02*
G37*
G36*
X15250D02*
X15180Y10650D01*
X15121Y10611D01*
X15082Y10552D01*
X15068Y10482D01*
Y9943D01*
X15082Y9874D01*
X15121Y9815D01*
X15138Y9804D01*
Y9434D01*
X15100Y9396D01*
X14763D01*
Y8890D01*
X15249D01*
Y9227D01*
X15329Y9308D01*
X15329Y9308D01*
X15354Y9344D01*
X15362Y9387D01*
X15362Y9387D01*
Y9804D01*
X15379Y9815D01*
X15418Y9874D01*
X15432Y9943D01*
Y10482D01*
X15418Y10552D01*
X15379Y10611D01*
X15320Y10650D01*
X15250Y10664D01*
D02*
G37*
G36*
X54268Y7088D02*
X53528D01*
Y6348D01*
X54268D01*
Y7088D01*
D02*
G37*
G36*
X41077D02*
X40337D01*
Y6348D01*
X41077D01*
Y7088D01*
D02*
G37*
G36*
X27840D02*
X27100D01*
Y6348D01*
X27840D01*
Y7088D01*
D02*
G37*
G36*
X14367D02*
X13627D01*
Y6348D01*
X14367D01*
Y7088D01*
D02*
G37*
G36*
X57158Y7091D02*
X57061Y7079D01*
X56971Y7041D01*
X56894Y6982D01*
X56835Y6905D01*
X56797Y6815D01*
X56785Y6718D01*
X56797Y6622D01*
X56835Y6532D01*
X56894Y6454D01*
X56971Y6395D01*
X57061Y6358D01*
X57158Y6345D01*
X57254Y6358D01*
X57344Y6395D01*
X57422Y6454D01*
X57481Y6532D01*
X57518Y6622D01*
X57531Y6718D01*
X57518Y6815D01*
X57481Y6905D01*
X57422Y6982D01*
X57344Y7041D01*
X57254Y7079D01*
X57158Y7091D01*
D02*
G37*
G36*
X54985Y8064D02*
X54903Y8048D01*
X54833Y8001D01*
X54787Y7932D01*
X54771Y7850D01*
X54787Y7768D01*
X54833Y7699D01*
X54903Y7652D01*
X54985Y7636D01*
X55031Y7645D01*
X55758Y6918D01*
X55748Y6905D01*
X55711Y6815D01*
X55698Y6718D01*
X55711Y6622D01*
X55748Y6532D01*
X55807Y6454D01*
X55885Y6395D01*
X55975Y6358D01*
X56071Y6345D01*
X56168Y6358D01*
X56258Y6395D01*
X56335Y6454D01*
X56394Y6532D01*
X56432Y6622D01*
X56444Y6718D01*
X56432Y6815D01*
X56394Y6905D01*
X56335Y6982D01*
X56258Y7041D01*
X56168Y7079D01*
X56071Y7091D01*
X55975Y7079D01*
X55932Y7061D01*
X55190Y7804D01*
X55199Y7850D01*
X55182Y7932D01*
X55136Y8001D01*
X55067Y8048D01*
X54985Y8064D01*
D02*
G37*
G36*
Y7091D02*
X54888Y7079D01*
X54798Y7041D01*
X54721Y6982D01*
X54661Y6905D01*
X54624Y6815D01*
X54611Y6718D01*
X54624Y6622D01*
X54661Y6532D01*
X54721Y6454D01*
X54798Y6395D01*
X54888Y6358D01*
X54985Y6345D01*
X55081Y6358D01*
X55171Y6395D01*
X55249Y6454D01*
X55308Y6532D01*
X55345Y6622D01*
X55358Y6718D01*
X55345Y6815D01*
X55308Y6905D01*
X55249Y6982D01*
X55171Y7041D01*
X55081Y7079D01*
X54985Y7091D01*
D02*
G37*
G36*
X43966D02*
X43870Y7079D01*
X43780Y7041D01*
X43703Y6982D01*
X43643Y6905D01*
X43606Y6815D01*
X43593Y6718D01*
X43606Y6622D01*
X43643Y6532D01*
X43703Y6454D01*
X43780Y6395D01*
X43870Y6358D01*
X43966Y6345D01*
X44063Y6358D01*
X44153Y6395D01*
X44230Y6454D01*
X44290Y6532D01*
X44327Y6622D01*
X44340Y6718D01*
X44327Y6815D01*
X44290Y6905D01*
X44230Y6982D01*
X44153Y7041D01*
X44063Y7079D01*
X43966Y7091D01*
D02*
G37*
G36*
X42450Y8364D02*
X42368Y8348D01*
X42299Y8301D01*
X42252Y8232D01*
X42236Y8150D01*
X42252Y8068D01*
X42299Y7999D01*
X42338Y7972D01*
Y7148D01*
X42338Y7148D01*
X42346Y7105D01*
X42371Y7069D01*
X42550Y6889D01*
X42519Y6815D01*
X42507Y6718D01*
X42519Y6622D01*
X42557Y6532D01*
X42616Y6454D01*
X42693Y6395D01*
X42783Y6358D01*
X42880Y6345D01*
X42976Y6358D01*
X43066Y6395D01*
X43144Y6454D01*
X43203Y6532D01*
X43240Y6622D01*
X43253Y6718D01*
X43240Y6815D01*
X43203Y6905D01*
X43144Y6982D01*
X43066Y7041D01*
X42976Y7079D01*
X42880Y7091D01*
X42783Y7079D01*
X42709Y7048D01*
X42562Y7194D01*
Y7972D01*
X42601Y7999D01*
X42648Y8068D01*
X42664Y8150D01*
X42648Y8232D01*
X42601Y8301D01*
X42532Y8348D01*
X42450Y8364D01*
D02*
G37*
G36*
X41793Y7091D02*
X41697Y7079D01*
X41607Y7041D01*
X41529Y6982D01*
X41470Y6905D01*
X41433Y6815D01*
X41420Y6718D01*
X41433Y6622D01*
X41470Y6532D01*
X41529Y6454D01*
X41607Y6395D01*
X41697Y6358D01*
X41793Y6345D01*
X41890Y6358D01*
X41980Y6395D01*
X42057Y6454D01*
X42116Y6532D01*
X42154Y6622D01*
X42166Y6718D01*
X42154Y6815D01*
X42116Y6905D01*
X42057Y6982D01*
X41980Y7041D01*
X41890Y7079D01*
X41793Y7091D01*
D02*
G37*
G36*
X30730D02*
X30633Y7079D01*
X30543Y7041D01*
X30466Y6982D01*
X30407Y6905D01*
X30369Y6815D01*
X30357Y6718D01*
X30369Y6622D01*
X30407Y6532D01*
X30466Y6454D01*
X30543Y6395D01*
X30633Y6358D01*
X30730Y6345D01*
X30826Y6358D01*
X30916Y6395D01*
X30994Y6454D01*
X31053Y6532D01*
X31090Y6622D01*
X31103Y6718D01*
X31090Y6815D01*
X31053Y6905D01*
X30994Y6982D01*
X30916Y7041D01*
X30826Y7079D01*
X30730Y7091D01*
D02*
G37*
G36*
X28200Y8464D02*
X28118Y8448D01*
X28049Y8401D01*
X28002Y8332D01*
X27986Y8250D01*
X28002Y8168D01*
X28049Y8099D01*
X28118Y8052D01*
X28200Y8036D01*
X28246Y8045D01*
X29349Y6942D01*
X29320Y6905D01*
X29283Y6815D01*
X29270Y6718D01*
X29283Y6622D01*
X29320Y6532D01*
X29379Y6454D01*
X29457Y6395D01*
X29547Y6358D01*
X29643Y6345D01*
X29740Y6358D01*
X29830Y6395D01*
X29907Y6454D01*
X29966Y6532D01*
X30004Y6622D01*
X30016Y6718D01*
X30004Y6815D01*
X29966Y6905D01*
X29907Y6982D01*
X29830Y7041D01*
X29740Y7079D01*
X29643Y7091D01*
X29547Y7079D01*
X29535Y7074D01*
X28405Y8204D01*
X28414Y8250D01*
X28398Y8332D01*
X28351Y8401D01*
X28282Y8448D01*
X28200Y8464D01*
D02*
G37*
G36*
X28557Y7091D02*
X28460Y7079D01*
X28370Y7041D01*
X28293Y6982D01*
X28233Y6905D01*
X28196Y6815D01*
X28183Y6718D01*
X28196Y6622D01*
X28233Y6532D01*
X28293Y6454D01*
X28370Y6395D01*
X28460Y6358D01*
X28557Y6345D01*
X28653Y6358D01*
X28743Y6395D01*
X28821Y6454D01*
X28880Y6532D01*
X28917Y6622D01*
X28930Y6718D01*
X28917Y6815D01*
X28880Y6905D01*
X28821Y6982D01*
X28743Y7041D01*
X28653Y7079D01*
X28557Y7091D01*
D02*
G37*
G36*
X17257D02*
X17160Y7079D01*
X17070Y7041D01*
X16993Y6982D01*
X16933Y6905D01*
X16896Y6815D01*
X16884Y6718D01*
X16896Y6622D01*
X16933Y6532D01*
X16993Y6454D01*
X17070Y6395D01*
X17160Y6358D01*
X17257Y6345D01*
X17353Y6358D01*
X17443Y6395D01*
X17521Y6454D01*
X17580Y6532D01*
X17617Y6622D01*
X17630Y6718D01*
X17617Y6815D01*
X17580Y6905D01*
X17521Y6982D01*
X17443Y7041D01*
X17353Y7079D01*
X17257Y7091D01*
D02*
G37*
G36*
X15250Y8264D02*
X15168Y8248D01*
X15099Y8201D01*
X15052Y8132D01*
X15036Y8050D01*
X15052Y7968D01*
X15099Y7899D01*
X15138Y7872D01*
Y7638D01*
X15138Y7638D01*
X15146Y7595D01*
X15171Y7559D01*
X15840Y6889D01*
X15810Y6815D01*
X15797Y6718D01*
X15810Y6622D01*
X15847Y6532D01*
X15906Y6454D01*
X15984Y6395D01*
X16074Y6358D01*
X16170Y6345D01*
X16267Y6358D01*
X16357Y6395D01*
X16434Y6454D01*
X16493Y6532D01*
X16531Y6622D01*
X16543Y6718D01*
X16531Y6815D01*
X16493Y6905D01*
X16434Y6982D01*
X16357Y7041D01*
X16267Y7079D01*
X16170Y7091D01*
X16074Y7079D01*
X15999Y7048D01*
X15362Y7685D01*
Y7872D01*
X15401Y7899D01*
X15448Y7968D01*
X15464Y8050D01*
X15448Y8132D01*
X15401Y8201D01*
X15332Y8248D01*
X15250Y8264D01*
D02*
G37*
G36*
X15084Y7091D02*
X14987Y7079D01*
X14897Y7041D01*
X14820Y6982D01*
X14760Y6905D01*
X14723Y6815D01*
X14710Y6718D01*
X14723Y6622D01*
X14760Y6532D01*
X14820Y6454D01*
X14897Y6395D01*
X14987Y6358D01*
X15084Y6345D01*
X15180Y6358D01*
X15270Y6395D01*
X15347Y6454D01*
X15407Y6532D01*
X15444Y6622D01*
X15457Y6718D01*
X15444Y6815D01*
X15407Y6905D01*
X15347Y6982D01*
X15270Y7041D01*
X15180Y7079D01*
X15084Y7091D01*
D02*
G37*
G36*
X57701Y5973D02*
X57605Y5960D01*
X57515Y5923D01*
X57437Y5864D01*
X57378Y5787D01*
X57341Y5697D01*
X57328Y5600D01*
X57341Y5503D01*
X57378Y5413D01*
X57437Y5336D01*
X57515Y5277D01*
X57605Y5240D01*
X57701Y5227D01*
X57798Y5240D01*
X57888Y5277D01*
X57965Y5336D01*
X58024Y5413D01*
X58062Y5503D01*
X58074Y5600D01*
X58062Y5697D01*
X58024Y5787D01*
X57965Y5864D01*
X57888Y5923D01*
X57798Y5960D01*
X57701Y5973D01*
D02*
G37*
G36*
X56615D02*
X56518Y5960D01*
X56428Y5923D01*
X56351Y5864D01*
X56291Y5787D01*
X56254Y5697D01*
X56241Y5600D01*
X56254Y5503D01*
X56291Y5413D01*
X56351Y5336D01*
X56428Y5277D01*
X56518Y5240D01*
X56615Y5227D01*
X56711Y5240D01*
X56801Y5277D01*
X56878Y5336D01*
X56938Y5413D01*
X56975Y5503D01*
X56988Y5600D01*
X56975Y5697D01*
X56938Y5787D01*
X56878Y5864D01*
X56801Y5923D01*
X56711Y5960D01*
X56615Y5973D01*
D02*
G37*
G36*
X55528D02*
X55431Y5960D01*
X55341Y5923D01*
X55264Y5864D01*
X55205Y5787D01*
X55167Y5697D01*
X55155Y5600D01*
X55167Y5503D01*
X55205Y5413D01*
X55264Y5336D01*
X55341Y5277D01*
X55431Y5240D01*
X55528Y5227D01*
X55625Y5240D01*
X55715Y5277D01*
X55792Y5336D01*
X55851Y5413D01*
X55888Y5503D01*
X55901Y5600D01*
X55888Y5697D01*
X55851Y5787D01*
X55792Y5864D01*
X55715Y5923D01*
X55625Y5960D01*
X55528Y5973D01*
D02*
G37*
G36*
X54441D02*
X54345Y5960D01*
X54255Y5923D01*
X54177Y5864D01*
X54118Y5787D01*
X54081Y5697D01*
X54068Y5600D01*
X54081Y5503D01*
X54118Y5413D01*
X54177Y5336D01*
X54255Y5277D01*
X54345Y5240D01*
X54441Y5227D01*
X54538Y5240D01*
X54628Y5277D01*
X54705Y5336D01*
X54765Y5413D01*
X54802Y5503D01*
X54815Y5600D01*
X54802Y5697D01*
X54765Y5787D01*
X54705Y5864D01*
X54628Y5923D01*
X54538Y5960D01*
X54441Y5973D01*
D02*
G37*
G36*
X44510D02*
X44413Y5960D01*
X44323Y5923D01*
X44246Y5864D01*
X44187Y5787D01*
X44149Y5697D01*
X44137Y5600D01*
X44149Y5503D01*
X44187Y5413D01*
X44246Y5336D01*
X44323Y5277D01*
X44413Y5240D01*
X44510Y5227D01*
X44606Y5240D01*
X44696Y5277D01*
X44774Y5336D01*
X44833Y5413D01*
X44870Y5503D01*
X44883Y5600D01*
X44870Y5697D01*
X44833Y5787D01*
X44774Y5864D01*
X44696Y5923D01*
X44606Y5960D01*
X44510Y5973D01*
D02*
G37*
G36*
X43423D02*
X43327Y5960D01*
X43237Y5923D01*
X43159Y5864D01*
X43100Y5787D01*
X43063Y5697D01*
X43050Y5600D01*
X43063Y5503D01*
X43100Y5413D01*
X43159Y5336D01*
X43237Y5277D01*
X43327Y5240D01*
X43423Y5227D01*
X43520Y5240D01*
X43610Y5277D01*
X43687Y5336D01*
X43746Y5413D01*
X43784Y5503D01*
X43796Y5600D01*
X43784Y5697D01*
X43746Y5787D01*
X43687Y5864D01*
X43610Y5923D01*
X43520Y5960D01*
X43423Y5973D01*
D02*
G37*
G36*
X42337D02*
X42240Y5960D01*
X42150Y5923D01*
X42073Y5864D01*
X42013Y5787D01*
X41976Y5697D01*
X41963Y5600D01*
X41976Y5503D01*
X42013Y5413D01*
X42073Y5336D01*
X42150Y5277D01*
X42240Y5240D01*
X42337Y5227D01*
X42433Y5240D01*
X42523Y5277D01*
X42600Y5336D01*
X42660Y5413D01*
X42697Y5503D01*
X42710Y5600D01*
X42697Y5697D01*
X42660Y5787D01*
X42600Y5864D01*
X42523Y5923D01*
X42433Y5960D01*
X42337Y5973D01*
D02*
G37*
G36*
X41250D02*
X41153Y5960D01*
X41063Y5923D01*
X40986Y5864D01*
X40927Y5787D01*
X40889Y5697D01*
X40877Y5600D01*
X40889Y5503D01*
X40927Y5413D01*
X40986Y5336D01*
X41063Y5277D01*
X41153Y5240D01*
X41250Y5227D01*
X41347Y5240D01*
X41437Y5277D01*
X41514Y5336D01*
X41573Y5413D01*
X41610Y5503D01*
X41623Y5600D01*
X41610Y5697D01*
X41573Y5787D01*
X41514Y5864D01*
X41437Y5923D01*
X41347Y5960D01*
X41250Y5973D01*
D02*
G37*
G36*
X31273D02*
X31177Y5960D01*
X31087Y5923D01*
X31009Y5864D01*
X30950Y5787D01*
X30913Y5697D01*
X30900Y5600D01*
X30913Y5503D01*
X30950Y5413D01*
X31009Y5336D01*
X31087Y5277D01*
X31177Y5240D01*
X31273Y5227D01*
X31370Y5240D01*
X31460Y5277D01*
X31537Y5336D01*
X31596Y5413D01*
X31634Y5503D01*
X31646Y5600D01*
X31634Y5697D01*
X31596Y5787D01*
X31537Y5864D01*
X31460Y5923D01*
X31370Y5960D01*
X31273Y5973D01*
D02*
G37*
G36*
X30187D02*
X30090Y5960D01*
X30000Y5923D01*
X29923Y5864D01*
X29863Y5787D01*
X29826Y5697D01*
X29813Y5600D01*
X29826Y5503D01*
X29863Y5413D01*
X29923Y5336D01*
X30000Y5277D01*
X30090Y5240D01*
X30187Y5227D01*
X30283Y5240D01*
X30373Y5277D01*
X30450Y5336D01*
X30510Y5413D01*
X30547Y5503D01*
X30560Y5600D01*
X30547Y5697D01*
X30510Y5787D01*
X30450Y5864D01*
X30373Y5923D01*
X30283Y5960D01*
X30187Y5973D01*
D02*
G37*
G36*
X29100D02*
X29003Y5960D01*
X28913Y5923D01*
X28836Y5864D01*
X28777Y5787D01*
X28739Y5697D01*
X28727Y5600D01*
X28739Y5503D01*
X28777Y5413D01*
X28836Y5336D01*
X28913Y5277D01*
X29003Y5240D01*
X29100Y5227D01*
X29197Y5240D01*
X29287Y5277D01*
X29364Y5336D01*
X29423Y5413D01*
X29460Y5503D01*
X29473Y5600D01*
X29460Y5697D01*
X29423Y5787D01*
X29364Y5864D01*
X29287Y5923D01*
X29197Y5960D01*
X29100Y5973D01*
D02*
G37*
G36*
X28013D02*
X27917Y5960D01*
X27827Y5923D01*
X27749Y5864D01*
X27690Y5787D01*
X27653Y5697D01*
X27640Y5600D01*
X27653Y5503D01*
X27690Y5413D01*
X27749Y5336D01*
X27827Y5277D01*
X27917Y5240D01*
X28013Y5227D01*
X28110Y5240D01*
X28200Y5277D01*
X28277Y5336D01*
X28337Y5413D01*
X28374Y5503D01*
X28387Y5600D01*
X28374Y5697D01*
X28337Y5787D01*
X28277Y5864D01*
X28200Y5923D01*
X28110Y5960D01*
X28013Y5973D01*
D02*
G37*
G36*
X17800D02*
X17703Y5960D01*
X17613Y5923D01*
X17536Y5864D01*
X17477Y5787D01*
X17440Y5697D01*
X17427Y5600D01*
X17440Y5503D01*
X17477Y5413D01*
X17536Y5336D01*
X17613Y5277D01*
X17703Y5240D01*
X17800Y5227D01*
X17897Y5240D01*
X17987Y5277D01*
X18064Y5336D01*
X18123Y5413D01*
X18160Y5503D01*
X18173Y5600D01*
X18160Y5697D01*
X18123Y5787D01*
X18064Y5864D01*
X17987Y5923D01*
X17897Y5960D01*
X17800Y5973D01*
D02*
G37*
G36*
X16713D02*
X16617Y5960D01*
X16527Y5923D01*
X16450Y5864D01*
X16390Y5787D01*
X16353Y5697D01*
X16340Y5600D01*
X16353Y5503D01*
X16390Y5413D01*
X16450Y5336D01*
X16527Y5277D01*
X16617Y5240D01*
X16713Y5227D01*
X16810Y5240D01*
X16900Y5277D01*
X16977Y5336D01*
X17037Y5413D01*
X17074Y5503D01*
X17087Y5600D01*
X17074Y5697D01*
X17037Y5787D01*
X16977Y5864D01*
X16900Y5923D01*
X16810Y5960D01*
X16713Y5973D01*
D02*
G37*
G36*
X15627D02*
X15530Y5960D01*
X15440Y5923D01*
X15363Y5864D01*
X15304Y5787D01*
X15266Y5697D01*
X15254Y5600D01*
X15266Y5503D01*
X15304Y5413D01*
X15363Y5336D01*
X15440Y5277D01*
X15530Y5240D01*
X15627Y5227D01*
X15723Y5240D01*
X15813Y5277D01*
X15891Y5336D01*
X15950Y5413D01*
X15987Y5503D01*
X16000Y5600D01*
X15987Y5697D01*
X15950Y5787D01*
X15891Y5864D01*
X15813Y5923D01*
X15723Y5960D01*
X15627Y5973D01*
D02*
G37*
G36*
X14540D02*
X14444Y5960D01*
X14354Y5923D01*
X14276Y5864D01*
X14217Y5787D01*
X14180Y5697D01*
X14167Y5600D01*
X14180Y5503D01*
X14217Y5413D01*
X14276Y5336D01*
X14354Y5277D01*
X14444Y5240D01*
X14540Y5227D01*
X14637Y5240D01*
X14727Y5277D01*
X14804Y5336D01*
X14863Y5413D01*
X14901Y5503D01*
X14913Y5600D01*
X14901Y5697D01*
X14863Y5787D01*
X14804Y5864D01*
X14727Y5923D01*
X14637Y5960D01*
X14540Y5973D01*
D02*
G37*
G36*
X60993Y7207D02*
X60829Y7194D01*
X60669Y7155D01*
X60517Y7092D01*
X60377Y7007D01*
X60252Y6900D01*
X60145Y6775D01*
X60059Y6635D01*
X59996Y6483D01*
X59958Y6323D01*
X59945Y6159D01*
X59958Y5995D01*
X59996Y5835D01*
X60059Y5684D01*
X60145Y5543D01*
X60252Y5418D01*
X60377Y5312D01*
X60517Y5226D01*
X60669Y5163D01*
X60829Y5125D01*
X60993Y5112D01*
X61156Y5125D01*
X61316Y5163D01*
X61468Y5226D01*
X61608Y5312D01*
X61733Y5418D01*
X61840Y5543D01*
X61926Y5684D01*
X61989Y5835D01*
X62027Y5995D01*
X62040Y6159D01*
X62027Y6323D01*
X61989Y6483D01*
X61926Y6635D01*
X61840Y6775D01*
X61733Y6900D01*
X61608Y7007D01*
X61468Y7092D01*
X61316Y7155D01*
X61156Y7194D01*
X60993Y7207D01*
D02*
G37*
G36*
X51150D02*
X50986Y7194D01*
X50826Y7155D01*
X50675Y7092D01*
X50534Y7007D01*
X50409Y6900D01*
X50303Y6775D01*
X50217Y6635D01*
X50154Y6483D01*
X50115Y6323D01*
X50103Y6159D01*
X50115Y5995D01*
X50154Y5835D01*
X50217Y5684D01*
X50303Y5543D01*
X50409Y5418D01*
X50534Y5312D01*
X50675Y5226D01*
X50826Y5163D01*
X50986Y5125D01*
X51150Y5112D01*
X51314Y5125D01*
X51474Y5163D01*
X51626Y5226D01*
X51766Y5312D01*
X51891Y5418D01*
X51997Y5543D01*
X52083Y5684D01*
X52146Y5835D01*
X52185Y5995D01*
X52198Y6159D01*
X52185Y6323D01*
X52146Y6483D01*
X52083Y6635D01*
X51997Y6775D01*
X51891Y6900D01*
X51766Y7007D01*
X51626Y7092D01*
X51474Y7155D01*
X51314Y7194D01*
X51150Y7207D01*
D02*
G37*
G36*
X47801D02*
X47637Y7194D01*
X47477Y7155D01*
X47326Y7092D01*
X47185Y7007D01*
X47060Y6900D01*
X46954Y6775D01*
X46868Y6635D01*
X46805Y6483D01*
X46767Y6323D01*
X46754Y6159D01*
X46767Y5995D01*
X46805Y5835D01*
X46868Y5684D01*
X46954Y5543D01*
X47060Y5418D01*
X47185Y5312D01*
X47326Y5226D01*
X47477Y5163D01*
X47637Y5125D01*
X47801Y5112D01*
X47965Y5125D01*
X48125Y5163D01*
X48277Y5226D01*
X48417Y5312D01*
X48542Y5418D01*
X48649Y5543D01*
X48734Y5684D01*
X48797Y5835D01*
X48836Y5995D01*
X48849Y6159D01*
X48836Y6323D01*
X48797Y6483D01*
X48734Y6635D01*
X48649Y6775D01*
X48542Y6900D01*
X48417Y7007D01*
X48277Y7092D01*
X48125Y7155D01*
X47965Y7194D01*
X47801Y7207D01*
D02*
G37*
G36*
X37959D02*
X37795Y7194D01*
X37635Y7155D01*
X37483Y7092D01*
X37343Y7007D01*
X37218Y6900D01*
X37111Y6775D01*
X37025Y6635D01*
X36962Y6483D01*
X36924Y6323D01*
X36911Y6159D01*
X36924Y5995D01*
X36962Y5835D01*
X37025Y5684D01*
X37111Y5543D01*
X37218Y5418D01*
X37343Y5312D01*
X37483Y5226D01*
X37635Y5163D01*
X37795Y5125D01*
X37959Y5112D01*
X38123Y5125D01*
X38282Y5163D01*
X38434Y5226D01*
X38574Y5312D01*
X38699Y5418D01*
X38806Y5543D01*
X38892Y5684D01*
X38955Y5835D01*
X38993Y5995D01*
X39006Y6159D01*
X38993Y6323D01*
X38955Y6483D01*
X38892Y6635D01*
X38806Y6775D01*
X38699Y6900D01*
X38574Y7007D01*
X38434Y7092D01*
X38282Y7155D01*
X38123Y7194D01*
X37959Y7207D01*
D02*
G37*
G36*
X34565D02*
X34401Y7194D01*
X34241Y7155D01*
X34089Y7092D01*
X33949Y7007D01*
X33824Y6900D01*
X33717Y6775D01*
X33631Y6635D01*
X33568Y6483D01*
X33530Y6323D01*
X33517Y6159D01*
X33530Y5995D01*
X33568Y5835D01*
X33631Y5684D01*
X33717Y5543D01*
X33824Y5418D01*
X33949Y5312D01*
X34089Y5226D01*
X34241Y5163D01*
X34401Y5125D01*
X34565Y5112D01*
X34728Y5125D01*
X34888Y5163D01*
X35040Y5226D01*
X35180Y5312D01*
X35305Y5418D01*
X35412Y5543D01*
X35498Y5684D01*
X35561Y5835D01*
X35599Y5995D01*
X35612Y6159D01*
X35599Y6323D01*
X35561Y6483D01*
X35498Y6635D01*
X35412Y6775D01*
X35305Y6900D01*
X35180Y7007D01*
X35040Y7092D01*
X34888Y7155D01*
X34728Y7194D01*
X34565Y7207D01*
D02*
G37*
G36*
X24722D02*
X24558Y7194D01*
X24398Y7155D01*
X24247Y7092D01*
X24106Y7007D01*
X23981Y6900D01*
X23875Y6775D01*
X23789Y6635D01*
X23726Y6483D01*
X23687Y6323D01*
X23675Y6159D01*
X23687Y5995D01*
X23726Y5835D01*
X23789Y5684D01*
X23875Y5543D01*
X23981Y5418D01*
X24106Y5312D01*
X24247Y5226D01*
X24398Y5163D01*
X24558Y5125D01*
X24722Y5112D01*
X24886Y5125D01*
X25046Y5163D01*
X25198Y5226D01*
X25338Y5312D01*
X25463Y5418D01*
X25569Y5543D01*
X25655Y5684D01*
X25718Y5835D01*
X25757Y5995D01*
X25770Y6159D01*
X25757Y6323D01*
X25718Y6483D01*
X25655Y6635D01*
X25569Y6775D01*
X25463Y6900D01*
X25338Y7007D01*
X25198Y7092D01*
X25046Y7155D01*
X24886Y7194D01*
X24722Y7207D01*
D02*
G37*
G36*
X21091D02*
X20928Y7194D01*
X20768Y7155D01*
X20616Y7092D01*
X20476Y7007D01*
X20351Y6900D01*
X20244Y6775D01*
X20158Y6635D01*
X20095Y6483D01*
X20057Y6323D01*
X20044Y6159D01*
X20057Y5995D01*
X20095Y5835D01*
X20158Y5684D01*
X20244Y5543D01*
X20351Y5418D01*
X20476Y5312D01*
X20616Y5226D01*
X20768Y5163D01*
X20928Y5125D01*
X21091Y5112D01*
X21255Y5125D01*
X21415Y5163D01*
X21567Y5226D01*
X21707Y5312D01*
X21832Y5418D01*
X21939Y5543D01*
X22025Y5684D01*
X22088Y5835D01*
X22126Y5995D01*
X22139Y6159D01*
X22126Y6323D01*
X22088Y6483D01*
X22025Y6635D01*
X21939Y6775D01*
X21832Y6900D01*
X21707Y7007D01*
X21567Y7092D01*
X21415Y7155D01*
X21255Y7194D01*
X21091Y7207D01*
D02*
G37*
G36*
X11249D02*
X11085Y7194D01*
X10925Y7155D01*
X10773Y7092D01*
X10633Y7007D01*
X10508Y6900D01*
X10401Y6775D01*
X10316Y6635D01*
X10253Y6483D01*
X10214Y6323D01*
X10201Y6159D01*
X10214Y5995D01*
X10253Y5835D01*
X10316Y5684D01*
X10401Y5543D01*
X10508Y5418D01*
X10633Y5312D01*
X10773Y5226D01*
X10925Y5163D01*
X11085Y5125D01*
X11249Y5112D01*
X11413Y5125D01*
X11573Y5163D01*
X11724Y5226D01*
X11865Y5312D01*
X11990Y5418D01*
X12096Y5543D01*
X12182Y5684D01*
X12245Y5835D01*
X12283Y5995D01*
X12296Y6159D01*
X12283Y6323D01*
X12245Y6483D01*
X12182Y6635D01*
X12096Y6775D01*
X11990Y6900D01*
X11865Y7007D01*
X11724Y7092D01*
X11573Y7155D01*
X11413Y7194D01*
X11249Y7207D01*
D02*
G37*
G36*
X63300Y1963D02*
X63171Y1950D01*
X63046Y1913D01*
X62932Y1851D01*
X62831Y1769D01*
X62749Y1668D01*
X62687Y1554D01*
X62650Y1429D01*
X62637Y1300D01*
X62650Y1171D01*
X62687Y1046D01*
X62749Y932D01*
X62831Y831D01*
X62932Y749D01*
X63046Y687D01*
X63171Y650D01*
X63300Y637D01*
X63429Y650D01*
X63554Y687D01*
X63668Y749D01*
X63769Y831D01*
X63851Y932D01*
X63913Y1046D01*
X63950Y1171D01*
X63963Y1300D01*
X63950Y1429D01*
X63913Y1554D01*
X63851Y1668D01*
X63769Y1769D01*
X63668Y1851D01*
X63554Y1913D01*
X63429Y1950D01*
X63300Y1963D01*
D02*
G37*
G36*
X1250D02*
X1121Y1950D01*
X996Y1913D01*
X882Y1851D01*
X781Y1769D01*
X699Y1668D01*
X637Y1554D01*
X600Y1429D01*
X587Y1300D01*
X600Y1171D01*
X637Y1046D01*
X699Y932D01*
X781Y831D01*
X882Y749D01*
X996Y687D01*
X1121Y650D01*
X1250Y637D01*
X1379Y650D01*
X1504Y687D01*
X1618Y749D01*
X1719Y831D01*
X1801Y932D01*
X1863Y1046D01*
X1900Y1171D01*
X1913Y1300D01*
X1900Y1429D01*
X1863Y1554D01*
X1801Y1668D01*
X1719Y1769D01*
X1618Y1851D01*
X1504Y1913D01*
X1379Y1950D01*
X1250Y1963D01*
D02*
G37*
%LPD*%
G36*
X12035Y18506D02*
X11999Y18452D01*
X11983Y18370D01*
X11999Y18288D01*
X12045Y18219D01*
X12115Y18172D01*
X12197Y18156D01*
X12279Y18172D01*
X12348Y18219D01*
X12388Y18278D01*
X13391D01*
X13398Y18254D01*
X13399Y18228D01*
X13361Y18202D01*
X13361Y18202D01*
X13311Y18153D01*
X13010D01*
Y17647D01*
X13010D01*
X13048Y17597D01*
X13039Y17553D01*
X13055Y17471D01*
X13091Y17417D01*
X13070Y17367D01*
X12842D01*
X12830Y17385D01*
X12770Y17425D01*
X12700Y17439D01*
X12630Y17425D01*
X12570Y17385D01*
X12530Y17325D01*
X12516Y17255D01*
X12530Y17185D01*
X12570Y17125D01*
X12574Y17123D01*
X12559Y17073D01*
X11257D01*
X11233Y17117D01*
X11248Y17139D01*
X11264Y17221D01*
X11248Y17303D01*
X11201Y17372D01*
X11132Y17418D01*
X11050Y17435D01*
X10968Y17418D01*
X10907Y17378D01*
X10875Y17416D01*
X11996Y18537D01*
X12035Y18506D01*
D02*
G37*
D13*
X12100Y17900D02*
X12647D01*
X4401Y13555D02*
X4496Y13650D01*
X5400D01*
X4401Y14539D02*
X4596Y14344D01*
X5400D01*
X9397Y13153D02*
X10097D01*
X9397D02*
X9447Y13203D01*
Y13900D01*
Y13934D01*
X8750Y14631D02*
X9447Y13934D01*
X409Y12747D02*
X1272Y13610D01*
X2960D01*
X3303Y13953D02*
Y15139D01*
X4450D01*
X2960Y13610D02*
X3303Y13953D01*
X8364Y24577D02*
X8600Y24813D01*
X8700Y29150D02*
X8747D01*
X8787Y29191D01*
X6413Y32187D02*
X6750Y31850D01*
X5763Y33103D02*
X5805Y33145D01*
X5763Y32912D02*
Y33103D01*
Y32912D02*
X5805Y32870D01*
X6198Y33127D02*
Y35149D01*
Y33127D02*
X6223Y33103D01*
Y32912D02*
Y33103D01*
X6198Y32888D02*
X6223Y32912D01*
X6198Y30900D02*
Y32888D01*
X5805Y33145D02*
Y35149D01*
Y31294D02*
Y32870D01*
Y31294D02*
X6198Y30900D01*
X5993Y33007D02*
Y35140D01*
X6413Y32187D02*
Y35132D01*
X6395Y35149D02*
X6413Y35132D01*
X5993Y35140D02*
X6002Y35149D01*
X2403Y30460D02*
X6660D01*
X13100Y27144D02*
X14283D01*
X14550Y26877D01*
Y26522D02*
Y26877D01*
X26200Y27277D02*
X27273D01*
X27648Y26902D01*
Y26522D02*
Y26902D01*
X52650Y27127D02*
X53971D01*
X54251Y26847D01*
Y26522D02*
Y26847D01*
X40350Y27027D02*
X41573D01*
X41747Y26853D01*
Y26522D02*
Y26853D01*
X16750Y9392D02*
X17000Y9143D01*
X16750Y9392D02*
Y10213D01*
X16250Y9199D02*
X16306Y9143D01*
X16250Y9199D02*
Y10213D01*
X15700Y9143D02*
X15750Y9193D01*
Y10213D01*
X14250Y9292D02*
X14400Y9143D01*
X14250Y9292D02*
Y10213D01*
X15006Y9143D02*
X15250Y9387D01*
Y10213D01*
X13253Y10803D02*
X14400D01*
X14750Y10453D01*
Y10213D02*
Y10453D01*
X26298Y10803D02*
X27497D01*
X27696Y10604D01*
Y10213D02*
Y10604D01*
X29696Y9411D02*
X29964Y9143D01*
X29696Y9411D02*
Y10213D01*
X29196Y9160D02*
X29214Y9143D01*
X29196Y9160D02*
Y10213D01*
X28607Y9143D02*
X28696Y9232D01*
Y10213D01*
X27851Y9143D02*
X28196Y9488D01*
Y10213D01*
X27196Y9192D02*
X27245Y9143D01*
X27196Y9192D02*
Y10213D01*
X40598Y10803D02*
X41697D01*
X41945Y10555D01*
Y10213D02*
Y10555D01*
X43945Y9578D02*
X44263Y9260D01*
X43945Y9578D02*
Y10213D01*
X43445Y9316D02*
X43501Y9260D01*
X43445Y9316D02*
Y10213D01*
X42895Y9260D02*
X42945Y9311D01*
Y10213D01*
X42198Y9260D02*
X42445Y9508D01*
Y10213D01*
X41445Y9407D02*
X41592Y9260D01*
X41445Y9407D02*
Y10213D01*
X53048Y10803D02*
X54200D01*
X54448Y10555D01*
Y10213D02*
Y10555D01*
X56448Y9807D02*
X56995Y9260D01*
X56448Y9807D02*
Y10213D01*
X55948Y9514D02*
X56201Y9260D01*
X55948Y9514D02*
Y10213D01*
X55448Y9407D02*
X55595Y9260D01*
X55448Y9407D02*
Y10213D01*
X54948Y9457D02*
Y10213D01*
X54751Y9260D02*
X54948Y9457D01*
X53948D02*
X54145Y9260D01*
X53948Y9457D02*
Y10213D01*
X54985Y7850D02*
X56071Y6763D01*
Y6718D02*
Y6763D01*
X55448Y11272D02*
Y12367D01*
X54948Y11220D02*
Y12367D01*
X42450Y7148D02*
X42880Y6718D01*
X42450Y7148D02*
Y8150D01*
X42945Y11171D02*
X42948Y11168D01*
X42945Y11171D02*
Y12367D01*
X42445Y11171D02*
X42448Y11168D01*
X42445Y11171D02*
Y12367D01*
X29643Y6718D02*
Y6807D01*
X28200Y8250D02*
X29643Y6807D01*
X28673Y11168D02*
X28696Y11191D01*
Y12367D01*
X28173Y11168D02*
X28196Y11191D01*
Y12367D01*
X15250Y7638D02*
X16170Y6718D01*
X15250Y7638D02*
Y8050D01*
X15750Y11239D02*
X15821Y11168D01*
X15750Y11239D02*
Y12367D01*
X15250Y11176D02*
X15258Y11168D01*
X15250Y11176D02*
Y12367D01*
X43423Y13555D02*
X43445Y13533D01*
Y12367D02*
Y13533D01*
X43945Y12367D02*
Y13755D01*
X17983Y16792D02*
X52908D01*
X55948Y13752D01*
X15750Y16000D02*
Y16764D01*
X55948Y12367D02*
Y13752D01*
X56448Y12367D02*
Y14017D01*
X52989Y17475D02*
X56448Y14017D01*
X18666Y17475D02*
X52989D01*
X16723Y21254D02*
X16750Y21281D01*
X29175Y13350D02*
X29196Y13329D01*
Y12367D02*
Y13329D01*
X29696Y12367D02*
Y13514D01*
X29600Y13610D02*
X29696Y13514D01*
X16750Y13400D02*
X16750Y13400D01*
Y12367D02*
Y13400D01*
X16150Y12467D02*
X16250Y12367D01*
X16150Y12467D02*
Y13450D01*
X55703Y25274D02*
X55751Y25322D01*
Y26522D01*
X56251Y25569D02*
X56547Y25274D01*
X56251Y25569D02*
Y26522D01*
X55097Y25274D02*
X55251Y25428D01*
Y26522D01*
X54303Y25274D02*
X54751Y25722D01*
Y26522D01*
X53697Y25274D02*
X53751Y25328D01*
Y26522D01*
X43747Y25645D02*
X44119Y25274D01*
X43747Y25645D02*
Y26522D01*
X43247Y25351D02*
X43325Y25274D01*
X43247Y25351D02*
Y26522D01*
X42719Y25274D02*
X42747Y25303D01*
Y26522D01*
X41925Y25274D02*
X42247Y25596D01*
Y26522D01*
X41247Y25345D02*
X41319Y25274D01*
X41247Y25345D02*
Y26522D01*
X56251Y27699D02*
Y28676D01*
X55700Y27674D02*
X55751Y27725D01*
Y28676D01*
X55251Y29975D02*
X56808Y31532D01*
X55251Y28676D02*
Y29975D01*
X54751Y30562D02*
X55721Y31532D01*
X54751Y28676D02*
Y30562D01*
X42747Y30663D02*
X43616Y31532D01*
X42747Y28676D02*
Y30663D01*
X42247Y31249D02*
X42530Y31532D01*
X42247Y28676D02*
Y31249D01*
X43747Y27677D02*
X43800Y27624D01*
X43747Y27677D02*
Y28676D01*
X43247Y27677D02*
X43300Y27624D01*
X43247Y27677D02*
Y28676D01*
X52450Y18050D02*
X55700Y21300D01*
X19850Y18050D02*
X52450D01*
X19480Y18420D02*
X19850Y18050D01*
X18666Y17790D02*
X18716Y17740D01*
X52790D01*
X56150Y21100D01*
X55700Y21300D02*
Y21421D01*
X20803Y18800D02*
X21676D01*
X22065Y19189D01*
X18666Y18420D02*
X19480D01*
X35350Y20400D02*
X36576D01*
X18706Y20350D02*
X19450D01*
X18666Y20310D02*
X18706Y20350D01*
X20636Y20083D02*
X21435D01*
X20450Y19897D02*
X20636Y20083D01*
X29648Y25617D02*
X29991Y25274D01*
X29648Y25617D02*
Y26522D01*
X29148Y25279D02*
X29153Y25274D01*
X29148Y25279D02*
Y26522D01*
X28547Y25274D02*
X28648Y25375D01*
Y26522D01*
X27753Y25274D02*
X28148Y25669D01*
Y26522D01*
X27147Y25274D02*
X27148Y25275D01*
Y26522D01*
X28648Y29800D02*
X30380Y31532D01*
X28648Y28676D02*
Y29800D01*
X28148Y30387D02*
X29293Y31532D01*
X28148Y28676D02*
Y30387D01*
X29648Y27552D02*
X29650Y27550D01*
X29648Y27552D02*
Y28676D01*
X29148Y27900D02*
X29175Y27874D01*
X29148Y27900D02*
Y28676D01*
X18666Y20625D02*
X18700Y20659D01*
Y23050D01*
X17983Y21308D02*
X18000Y21325D01*
Y23550D01*
X15148Y21308D02*
Y22252D01*
X14850Y22550D02*
X15148Y22252D01*
X12345Y22550D02*
X14850D01*
X16550Y25671D02*
X16947Y25274D01*
X16550Y25671D02*
Y26522D01*
X16050Y25327D02*
X16103Y25274D01*
X16050Y25327D02*
Y26522D01*
X15497Y26469D02*
X15550Y26522D01*
X15497Y25274D02*
Y26469D01*
X15050Y25671D02*
Y26522D01*
X14653Y25274D02*
X15050Y25671D01*
X14047Y25274D02*
X14050Y25277D01*
Y26522D01*
X15550Y30089D02*
X16993Y31532D01*
X15550Y28676D02*
Y30089D01*
X15050Y30675D02*
X15907Y31532D01*
X15050Y28676D02*
Y30675D01*
X16550Y27691D02*
X16550Y27691D01*
X16550Y27691D02*
Y28676D01*
X16050Y27691D02*
Y28676D01*
X15778Y21308D02*
Y22020D01*
X16408Y22650D01*
X15463Y22285D02*
X15821Y22643D01*
X15463Y21308D02*
Y22285D01*
X7287Y29938D02*
Y30653D01*
X7041Y30900D02*
X7287Y30653D01*
X6198Y30900D02*
X7041D01*
X6660Y30460D02*
X6750Y30550D01*
X2399Y30456D02*
X2403Y30460D01*
X6750Y29975D02*
X6787Y29938D01*
X6750Y29975D02*
Y30550D01*
X9547Y16961D02*
X13361D01*
X9547Y16961D02*
X9547Y16961D01*
X9209Y16961D02*
X9547D01*
X9182Y16989D02*
X9209Y16961D01*
X9182Y17186D02*
X11050D01*
X13361Y16961D02*
X13875Y17475D01*
X9194Y16780D02*
X14821D01*
X14833Y16792D01*
X11050Y15953D02*
Y16450D01*
X12550Y18650D02*
X12635Y18735D01*
X14150D01*
X12217Y18390D02*
X14120D01*
X12197Y18370D02*
X12217Y18390D01*
X12350Y19050D02*
X14150D01*
X10683Y17383D02*
X12350Y19050D01*
X9182Y17383D02*
X10683D01*
X12244Y19344D02*
X14129D01*
X10480Y17580D02*
X12244Y19344D01*
X9182Y17580D02*
X10480D01*
X13881Y17790D02*
X14150D01*
X12700Y17255D02*
X13345D01*
X13881Y17790D01*
X9182Y16792D02*
X9194Y16780D01*
X13875Y17475D02*
X14150D01*
X8450Y11207D02*
Y12353D01*
X8243Y11000D02*
X8450Y11207D01*
X7656Y11000D02*
X8243D01*
X8238Y12565D02*
X8450Y12353D01*
X7786Y12565D02*
X8238D01*
X6920Y11935D02*
X7050Y11805D01*
Y11000D02*
Y11805D01*
X6479Y11935D02*
X6920D01*
X6250Y12164D02*
X6479Y11935D01*
X6250Y12164D02*
Y12681D01*
X7059Y13491D01*
X7786Y12565D02*
X7787Y12566D01*
Y13491D01*
X7292Y14392D02*
Y15296D01*
X7003Y14103D02*
X7292Y14392D01*
X7003Y13547D02*
Y14103D01*
Y13547D02*
X7059Y13491D01*
X7731Y13547D02*
X7787Y13491D01*
X7731Y13547D02*
Y14166D01*
X5997Y13650D02*
X7067Y14720D01*
X5400Y13650D02*
X5997D01*
X7067Y15268D02*
X7095Y15296D01*
X7067Y14720D02*
Y15268D01*
X5400Y14344D02*
X6465D01*
X6890Y14769D01*
X7787Y23531D02*
Y23898D01*
X7606Y23350D02*
X7787Y23531D01*
X4800Y23350D02*
X7606D01*
X18754Y19994D02*
X19886D01*
X3453Y26850D02*
Y27547D01*
X3150Y27850D02*
X3453Y27547D01*
X1606Y27850D02*
X3150D01*
X22065Y19189D02*
Y19217D01*
X20450Y19153D02*
X20803Y18800D01*
X20238Y19365D02*
X20450Y19153D01*
X18666Y19365D02*
X20238D01*
X20233Y19680D02*
X20450Y19897D01*
X18666Y19680D02*
X20233D01*
X18470Y19365D02*
X18666D01*
X13634Y22004D02*
X13635Y22005D01*
X12885Y22004D02*
X13634D01*
X12100Y22305D02*
X12345Y22550D01*
X12100Y22005D02*
Y22305D01*
X15148Y20600D02*
Y21308D01*
X13635Y22005D02*
X14595D01*
X14833Y21767D01*
Y21308D02*
Y21767D01*
X15750Y16764D02*
X15778Y16792D01*
X7875Y24577D02*
X8364D01*
X1110Y14547D02*
X1850D01*
X2399Y30200D02*
X4300D01*
X5770Y25613D02*
X5887Y25730D01*
X4690Y25613D02*
X5770D01*
X3453Y26850D02*
X4690Y25613D01*
X8079Y14798D02*
X8247Y14631D01*
X8750D01*
X7786Y31175D02*
X7787Y31174D01*
Y29938D02*
Y31174D01*
X8683Y18923D02*
X9473Y19713D01*
X14117D01*
X14150Y19680D01*
X5997Y17191D02*
X7353D01*
X5993Y17186D02*
X5997Y17191D01*
X9936Y17776D02*
X10003Y17844D01*
X9182Y17776D02*
X9936D01*
X6890Y19344D02*
X6898Y19336D01*
Y18998D02*
Y19336D01*
Y18485D02*
Y18998D01*
X6900Y19000D01*
X2563Y18994D02*
X5194D01*
X9306Y20310D02*
X14150D01*
X8276Y19280D02*
X9306Y20310D01*
X7318Y17481D02*
X8053D01*
X7220Y17383D02*
X7318Y17481D01*
X14120Y18390D02*
X14150Y18420D01*
X8503Y16444D02*
Y17255D01*
X8008Y16398D02*
X8253Y16644D01*
X8473Y19076D02*
X9391Y19995D01*
X14150D01*
X9271Y20625D02*
X14150D01*
X8079Y19433D02*
X9271Y20625D01*
X4656Y17144D02*
X5087Y16713D01*
Y16595D02*
Y16713D01*
X2603Y17994D02*
X2624Y17973D01*
X5993D01*
X6890Y14769D02*
Y15288D01*
X7489Y14408D02*
X7731Y14166D01*
X7489Y14408D02*
Y15296D01*
X5993Y17383D02*
X7220D01*
X6701Y18485D02*
X6709Y18477D01*
X8287Y25452D02*
Y28017D01*
X5993Y16398D02*
X8008D01*
X8261Y16202D02*
X8503Y16444D01*
X5993Y16202D02*
X8261D01*
X14129Y19344D02*
X14150Y19365D01*
X8670Y18923D02*
X8683D01*
X5266Y16120D02*
X5345D01*
X5461Y16005D01*
X5993D01*
X7181Y26714D02*
X7184D01*
X6261D02*
X7181D01*
X7181Y23898D02*
X7234D01*
X5887D02*
X7181D01*
X7787Y26717D02*
X7790Y26714D01*
X7875Y15304D02*
Y15851D01*
X7721Y16005D02*
X7875Y15851D01*
X5993Y16005D02*
X7721D01*
X7875Y15304D02*
X7882Y15296D01*
X7686Y14742D02*
X7987Y14441D01*
X8079Y14798D02*
Y15296D01*
X6947Y16989D02*
X7095Y16841D01*
X5993Y16989D02*
X6947D01*
X5087Y16595D02*
X5993D01*
X16723Y19950D02*
Y21254D01*
Y19900D02*
Y19950D01*
X16093D02*
Y21308D01*
Y19900D02*
Y19950D01*
X17668Y20430D02*
Y21308D01*
X17353Y19950D02*
Y21308D01*
X16408Y20600D02*
Y21308D01*
X17038Y20600D02*
Y21308D01*
X16723D02*
X16750Y21281D01*
X5187Y27040D02*
Y27341D01*
Y27040D02*
X5513Y26714D01*
X7787Y25291D02*
Y25841D01*
Y26717D02*
Y27891D01*
X8787Y29191D02*
Y29938D01*
X8287Y29141D02*
Y29938D01*
X8079Y18485D02*
Y19433D01*
X8276Y18485D02*
Y19280D01*
X8473Y18485D02*
Y19076D01*
X8670Y18485D02*
Y18923D01*
X7686Y14742D02*
Y15296D01*
X6890Y15288D02*
X6898Y15296D01*
X5887Y23741D02*
Y23898D01*
X6588Y25291D02*
X7181D01*
X6261Y24965D02*
X6588Y25291D01*
X6261Y24883D02*
Y24965D01*
X8127Y25291D02*
X8287Y25452D01*
X7787Y25291D02*
X8127D01*
X5687Y21191D02*
X7489Y19389D01*
Y18485D02*
Y19389D01*
X6687Y21191D02*
X7686Y20192D01*
Y18485D02*
Y20192D01*
X14150Y19680D02*
Y19695D01*
D18*
X7376Y35614D02*
G03*
X7376Y35614I-138J0D01*
G01*
X5100D02*
G03*
X5100Y35614I-138J0D01*
G01*
D21*
X10250Y14097D02*
Y14600D01*
X10053Y13900D02*
X10250Y14097D01*
X61950Y16900D02*
Y17900D01*
Y18900D01*
Y19900D01*
X8982Y26589D02*
X9287Y26894D01*
X8982Y23585D02*
Y26589D01*
X13253Y12221D02*
Y13000D01*
X39899Y28676D02*
X40350D01*
X40300Y29897D02*
Y30550D01*
X40350Y28676D02*
X41247D01*
X8687Y23291D02*
X8982Y23585D01*
X8687Y22191D02*
Y23291D01*
X13100Y25603D02*
Y26538D01*
X9687Y22191D02*
X13100Y25603D01*
X13050Y29947D02*
X13097Y29900D01*
X13050Y29947D02*
Y30550D01*
X26092Y29900D02*
X26100Y29908D01*
Y30550D01*
X40300Y29897D02*
X40350Y29847D01*
X52647Y29900D02*
Y30550D01*
X26298Y12221D02*
Y13000D01*
X40550Y12269D02*
X40598Y12221D01*
X40550Y12269D02*
Y13000D01*
X53048Y12998D02*
X53050Y13000D01*
X53048Y12221D02*
Y12998D01*
X52703Y10197D02*
X53048D01*
X52400Y10500D02*
X52703Y10197D01*
X52400Y10500D02*
Y11900D01*
X52721Y12221D01*
X53048D01*
Y9405D02*
X53100Y9353D01*
X53048Y9405D02*
Y10197D01*
Y12221D02*
X53194Y12367D01*
X53948D01*
X39950Y12050D02*
X40121Y12221D01*
X39950Y10400D02*
Y12050D01*
Y10400D02*
X40153Y10197D01*
X40598D01*
X40121Y12221D02*
X40598D01*
Y9355D02*
X40600Y9353D01*
X40598Y9355D02*
Y10197D01*
Y12221D02*
X40744Y12367D01*
X41445D01*
X25921Y12221D02*
X26298D01*
X25700Y12000D02*
X25921Y12221D01*
X25700Y10500D02*
Y12000D01*
X26003Y10197D02*
X26298D01*
X25700Y10500D02*
X26003Y10197D01*
X26298Y9353D02*
Y10197D01*
Y12221D02*
X26444Y12367D01*
X27196D01*
X12469Y13824D02*
X13253Y13041D01*
X12469Y13824D02*
Y15550D01*
X12971Y12221D02*
X13253D01*
X12650Y11900D02*
X12971Y12221D01*
X12650Y10450D02*
Y11900D01*
X12903Y10197D02*
X13253D01*
X12650Y10450D02*
X12903Y10197D01*
X13250Y9353D02*
X13253Y9356D01*
Y10197D01*
X14104Y12221D02*
X14250Y12367D01*
X13253Y12221D02*
X14104D01*
X12641Y28694D02*
X13100D01*
X12400Y28453D02*
X12641Y28694D01*
X12400Y26777D02*
Y28453D01*
Y26777D02*
X12639Y26538D01*
X13100D01*
Y28694D02*
X13118Y28676D01*
X14050D01*
X13097Y28697D02*
X13100Y28694D01*
X13097Y28697D02*
Y29900D01*
X25800Y26671D02*
X26200D01*
X25550Y26921D02*
X25800Y26671D01*
X25550Y26921D02*
Y28676D01*
X25701Y28827D01*
X26200D01*
X26351Y28676D01*
X27148D01*
X26092Y28935D02*
X26200Y28827D01*
X26092Y28935D02*
Y29900D01*
X52229Y26521D02*
X52650D01*
X52000Y26750D02*
X52229Y26521D01*
X52000Y26750D02*
Y28450D01*
X52227Y28677D01*
X52650D01*
X53750D02*
X53751Y28676D01*
X52650Y28677D02*
X53750D01*
X52647Y29900D02*
X52650Y29897D01*
Y28677D02*
Y29897D01*
X39929Y26421D02*
X40350D01*
X39600Y26750D02*
X39929Y26421D01*
X39600Y26750D02*
Y28377D01*
X39899Y28676D01*
X40350D02*
Y29847D01*
X9287Y26894D02*
Y27891D01*
X2550Y19976D02*
X2627Y20053D01*
X14423Y15673D02*
Y16005D01*
X14300Y15550D02*
X14423Y15673D01*
X12469Y15550D02*
X14300D01*
X4400Y20053D02*
X4500D01*
X-200Y38300D02*
X-200Y-100D01*
X-200Y38300D02*
X64400D01*
X64400Y-100D01*
X-200D02*
X64400D01*
D23*
X5608Y35149D02*
D03*
X4781Y35149D02*
D03*
X4899Y35149D02*
D03*
X5096Y35149D02*
D03*
X5214D02*
D03*
X5411Y35149D02*
D03*
X5805D02*
D03*
X6002Y35149D02*
D03*
X6198Y35149D02*
D03*
X6395Y35149D02*
D03*
X6592Y35149D02*
D03*
X6789Y35149D02*
D03*
X6986Y35149D02*
D03*
X7104D02*
D03*
X7301Y35149D02*
D03*
X7419D02*
D03*
D24*
X41247Y26522D02*
D03*
X41747D02*
D03*
X42247D02*
D03*
X42747D02*
D03*
X43247D02*
D03*
X43747D02*
D03*
X44247D02*
D03*
X44747D02*
D03*
X41247Y28676D02*
D03*
X41747D02*
D03*
X42247D02*
D03*
X42747D02*
D03*
X43247D02*
D03*
X43747D02*
D03*
X44247D02*
D03*
X44747D02*
D03*
X57448Y12367D02*
D03*
X56948D02*
D03*
X56448D02*
D03*
X55948D02*
D03*
X55448D02*
D03*
X54948D02*
D03*
X54448D02*
D03*
X53948D02*
D03*
X57448Y10213D02*
D03*
X56948D02*
D03*
X56448D02*
D03*
X55948D02*
D03*
X55448D02*
D03*
X54948D02*
D03*
X54448D02*
D03*
X53948D02*
D03*
X44945Y12367D02*
D03*
X44445D02*
D03*
X43945D02*
D03*
X43445D02*
D03*
X42945D02*
D03*
X42445D02*
D03*
X41945D02*
D03*
X41445D02*
D03*
X44945Y10213D02*
D03*
X44445D02*
D03*
X43945D02*
D03*
X43445D02*
D03*
X42945D02*
D03*
X42445D02*
D03*
X41945D02*
D03*
X41445D02*
D03*
X30696Y12367D02*
D03*
X30196D02*
D03*
X29696D02*
D03*
X29196D02*
D03*
X28696D02*
D03*
X28196D02*
D03*
X27696D02*
D03*
X27196D02*
D03*
X30696Y10213D02*
D03*
X30196D02*
D03*
X29696D02*
D03*
X29196D02*
D03*
X28696D02*
D03*
X28196D02*
D03*
X27696D02*
D03*
X27196D02*
D03*
X17750Y12367D02*
D03*
X17250D02*
D03*
X16750D02*
D03*
X16250D02*
D03*
X15750D02*
D03*
X15250D02*
D03*
X14750D02*
D03*
X14250D02*
D03*
X17750Y10213D02*
D03*
X17250D02*
D03*
X16750D02*
D03*
X16250D02*
D03*
X15750D02*
D03*
X15250D02*
D03*
X14750D02*
D03*
X14250D02*
D03*
X57251Y28676D02*
D03*
X56751D02*
D03*
X56251D02*
D03*
X55751D02*
D03*
X55251D02*
D03*
X54751D02*
D03*
X54251D02*
D03*
X53751D02*
D03*
X57251Y26522D02*
D03*
X56751D02*
D03*
X56251D02*
D03*
X55751D02*
D03*
X55251D02*
D03*
X54751D02*
D03*
X54251D02*
D03*
X53751D02*
D03*
X17550Y28676D02*
D03*
X17050D02*
D03*
X16550D02*
D03*
X16050D02*
D03*
X15550D02*
D03*
X15050D02*
D03*
X14550D02*
D03*
X14050D02*
D03*
X17550Y26522D02*
D03*
X17050D02*
D03*
X16550D02*
D03*
X16050D02*
D03*
X15550D02*
D03*
X15050D02*
D03*
X14550D02*
D03*
X14050D02*
D03*
X30648Y28676D02*
D03*
X30148D02*
D03*
X29648D02*
D03*
X29148D02*
D03*
X28648D02*
D03*
X28148D02*
D03*
X27648D02*
D03*
X27148D02*
D03*
X30648Y26522D02*
D03*
X30148D02*
D03*
X29648D02*
D03*
X29148D02*
D03*
X28648D02*
D03*
X28148D02*
D03*
X27648D02*
D03*
X27148D02*
D03*
D25*
X13253Y17900D02*
D03*
X12647D02*
D03*
X53253Y29900D02*
D03*
X52647D02*
D03*
X40903D02*
D03*
X40297D02*
D03*
X26092D02*
D03*
X26699D02*
D03*
X13703D02*
D03*
X13097D02*
D03*
X2697Y15139D02*
D03*
X3303D02*
D03*
X3303Y14350D02*
D03*
X2697D02*
D03*
X9447Y13900D02*
D03*
X10053D02*
D03*
X13817Y16005D02*
D03*
X14423D02*
D03*
X697Y22250D02*
D03*
X1303D02*
D03*
X697Y23000D02*
D03*
X1303D02*
D03*
X17606Y9143D02*
D03*
X17000D02*
D03*
X16306D02*
D03*
X15700D02*
D03*
X15006D02*
D03*
X14400D02*
D03*
X8393Y13491D02*
D03*
X7787D02*
D03*
X4656Y15791D02*
D03*
X4050D02*
D03*
X10453Y18800D02*
D03*
X9847D02*
D03*
X29214Y9143D02*
D03*
X28607D02*
D03*
X30571D02*
D03*
X29964D02*
D03*
X27851D02*
D03*
X27245D02*
D03*
X43501Y9260D02*
D03*
X42895D02*
D03*
X42198D02*
D03*
X41592D02*
D03*
X44870D02*
D03*
X44263D02*
D03*
X56201D02*
D03*
X55595D02*
D03*
X54751D02*
D03*
X54145D02*
D03*
X57601D02*
D03*
X56995D02*
D03*
X57153Y25274D02*
D03*
X56547D02*
D03*
X55703D02*
D03*
X55097D02*
D03*
X43325D02*
D03*
X42719D02*
D03*
X4656Y17144D02*
D03*
X4050D02*
D03*
X2847Y26850D02*
D03*
X3453D02*
D03*
X7797Y31125D02*
D03*
X8403D02*
D03*
X28547Y25274D02*
D03*
X29153D02*
D03*
X53697D02*
D03*
X54303D02*
D03*
X44119D02*
D03*
X44725D02*
D03*
X41319D02*
D03*
X41925D02*
D03*
X16947D02*
D03*
X17553D02*
D03*
X27147D02*
D03*
X27753D02*
D03*
X29991D02*
D03*
X30597D02*
D03*
X15497D02*
D03*
X16103D02*
D03*
X14047D02*
D03*
X14653D02*
D03*
X7787Y25291D02*
D03*
X7181D02*
D03*
X7181Y23898D02*
D03*
X7787D02*
D03*
X7787Y26714D02*
D03*
X7181D02*
D03*
X7059Y13491D02*
D03*
X6453D02*
D03*
X7656Y11000D02*
D03*
X7050D02*
D03*
D26*
X14833Y16792D02*
D03*
X15148D02*
D03*
X15463D02*
D03*
X15778D02*
D03*
X16093D02*
D03*
X16408D02*
D03*
X16723D02*
D03*
X17038D02*
D03*
X17353D02*
D03*
X17668D02*
D03*
X17983D02*
D03*
Y21308D02*
D03*
X17668D02*
D03*
X17353D02*
D03*
X17038D02*
D03*
X16723D02*
D03*
X16408D02*
D03*
X16093D02*
D03*
X15778D02*
D03*
X15463D02*
D03*
X15148D02*
D03*
X14833D02*
D03*
D27*
X18666Y17475D02*
D03*
Y17790D02*
D03*
Y18105D02*
D03*
Y18420D02*
D03*
Y18735D02*
D03*
Y19050D02*
D03*
Y19365D02*
D03*
Y19680D02*
D03*
Y19995D02*
D03*
Y20310D02*
D03*
Y20625D02*
D03*
X14150D02*
D03*
Y20310D02*
D03*
Y19995D02*
D03*
Y19680D02*
D03*
Y19365D02*
D03*
Y19050D02*
D03*
Y18735D02*
D03*
Y18420D02*
D03*
Y18105D02*
D03*
Y17790D02*
D03*
Y17475D02*
D03*
D28*
X26298Y9353D02*
D03*
Y8747D02*
D03*
X40600D02*
D03*
Y9353D02*
D03*
X53100D02*
D03*
Y8747D02*
D03*
X13250Y9353D02*
D03*
Y8747D02*
D03*
X11050Y15347D02*
D03*
Y15953D02*
D03*
X9397Y13153D02*
D03*
Y12547D02*
D03*
X10097D02*
D03*
Y13153D02*
D03*
X12100Y22005D02*
D03*
Y21399D02*
D03*
X3600Y19447D02*
D03*
Y20053D02*
D03*
X20450Y20503D02*
D03*
Y19897D02*
D03*
X20400Y18547D02*
D03*
Y19153D02*
D03*
X13635Y21399D02*
D03*
Y22005D02*
D03*
X12885Y22004D02*
D03*
Y21398D02*
D03*
X3674Y23889D02*
D03*
Y24495D02*
D03*
X2891Y23889D02*
D03*
Y24495D02*
D03*
X1850Y15153D02*
D03*
Y14547D02*
D03*
X1100Y15164D02*
D03*
Y14557D02*
D03*
X4400Y19447D02*
D03*
Y20053D02*
D03*
X53048Y11614D02*
D03*
Y12221D02*
D03*
Y10803D02*
D03*
Y10197D02*
D03*
X40598Y11614D02*
D03*
Y12221D02*
D03*
Y10803D02*
D03*
Y10197D02*
D03*
X26298Y10803D02*
D03*
Y10197D02*
D03*
Y11614D02*
D03*
Y12221D02*
D03*
X13253Y10803D02*
D03*
Y10197D02*
D03*
X5800Y19447D02*
D03*
Y20053D02*
D03*
X13253Y12221D02*
D03*
Y11614D02*
D03*
X26200Y26671D02*
D03*
Y27277D02*
D03*
Y28827D02*
D03*
Y28221D02*
D03*
X13100Y28694D02*
D03*
Y28088D02*
D03*
X52650Y28071D02*
D03*
Y28677D02*
D03*
X40350Y27027D02*
D03*
Y26421D02*
D03*
Y27971D02*
D03*
Y28577D02*
D03*
X52650Y27127D02*
D03*
Y26521D02*
D03*
X13100Y27144D02*
D03*
Y26538D02*
D03*
X10035Y26241D02*
D03*
Y26847D02*
D03*
X9335D02*
D03*
Y26241D02*
D03*
X5400Y13044D02*
D03*
Y13650D02*
D03*
Y14950D02*
D03*
Y14344D02*
D03*
D29*
X21435Y20083D02*
D03*
X22065Y19217D02*
D03*
X21435D02*
D03*
X22065Y20083D02*
D03*
D30*
X1317Y24570D02*
D03*
X1904D02*
D03*
X723D02*
D03*
D31*
X1303Y25544D02*
D03*
D32*
X2399Y30712D02*
D03*
Y30456D02*
D03*
Y30200D02*
D03*
Y29944D02*
D03*
Y29688D02*
D03*
D33*
X9287Y29938D02*
D03*
X8787D02*
D03*
X8287D02*
D03*
X7787D02*
D03*
X7287D02*
D03*
X6787D02*
D03*
X6287D02*
D03*
X5787D02*
D03*
X9287Y27891D02*
D03*
X8787D02*
D03*
X8287D02*
D03*
X7787D02*
D03*
X7287D02*
D03*
X6787D02*
D03*
X6287D02*
D03*
X5787D02*
D03*
D34*
X4401Y13555D02*
D03*
Y14539D02*
D03*
D35*
X7786Y11935D02*
D03*
X6920Y12565D02*
D03*
Y11935D02*
D03*
X7786Y12565D02*
D03*
D36*
X442Y12753D02*
D03*
X2213Y9447D02*
D03*
X442D02*
D03*
X2213Y12753D02*
D03*
D37*
X6504Y15296D02*
D03*
X6701D02*
D03*
X6898D02*
D03*
X7095D02*
D03*
X7292D02*
D03*
X7489D02*
D03*
X7686D02*
D03*
X7882D02*
D03*
X8079D02*
D03*
X8276D02*
D03*
X8473D02*
D03*
X8670D02*
D03*
Y18485D02*
D03*
X8473D02*
D03*
X8276D02*
D03*
X8079D02*
D03*
X7882D02*
D03*
X7686D02*
D03*
X7489D02*
D03*
X7292D02*
D03*
X7095D02*
D03*
X6898D02*
D03*
X6701D02*
D03*
X6504D02*
D03*
D38*
X9182Y15808D02*
D03*
Y16005D02*
D03*
Y16202D02*
D03*
Y16398D02*
D03*
Y16595D02*
D03*
Y16792D02*
D03*
Y16989D02*
D03*
Y17186D02*
D03*
Y17383D02*
D03*
Y17580D02*
D03*
Y17776D02*
D03*
Y17973D02*
D03*
X5993D02*
D03*
Y17776D02*
D03*
Y17580D02*
D03*
Y17383D02*
D03*
Y17186D02*
D03*
Y16989D02*
D03*
Y16792D02*
D03*
Y16595D02*
D03*
Y16398D02*
D03*
Y16202D02*
D03*
Y16005D02*
D03*
Y15808D02*
D03*
D39*
X6261Y26597D02*
D03*
X5513D02*
D03*
X5887Y25613D02*
D03*
X6261Y24883D02*
D03*
X5513D02*
D03*
X5887Y23898D02*
D03*
D71*
X6986Y34064D02*
Y35149D01*
X10035Y26847D02*
Y31015D01*
X6986Y34064D02*
X10035Y31015D01*
X4656Y15791D02*
X5993D01*
X5214Y32264D02*
Y35149D01*
X6983Y35152D02*
Y35461D01*
X6692Y35752D02*
X6983Y35461D01*
X5486Y35752D02*
X6692D01*
X5217Y35483D02*
X5486Y35752D01*
X5217Y35152D02*
Y35483D01*
X5214Y35149D02*
X5217Y35152D01*
X3700Y30750D02*
X5214Y32264D01*
X14150Y18105D02*
X14150Y18105D01*
X17405D01*
X9847Y18553D02*
X10350Y18050D01*
X9847Y18553D02*
Y18800D01*
X13253Y17553D02*
Y17900D01*
X13458Y18105D01*
X14150D01*
X15148Y16198D02*
Y16792D01*
X14955Y16005D02*
X15148Y16198D01*
X14423Y16005D02*
X14955D01*
X18000Y18700D02*
X18035Y18735D01*
X18666D01*
X17405Y18105D02*
X18000Y18700D01*
X12884Y21399D02*
X12885Y21398D01*
X1100Y14557D02*
X1110Y14547D01*
X3662Y30712D02*
X3700Y30750D01*
X2399Y30712D02*
X3662D01*
X10250Y14600D02*
Y16450D01*
X9182Y17973D02*
Y18600D01*
X9382Y18800D01*
X9847D01*
X6504Y18485D02*
Y19712D01*
X6164Y20053D02*
X6504Y19712D01*
X5800Y20053D02*
X6164D01*
X10250Y16450D02*
X10287Y16413D01*
D72*
X2683Y15153D02*
X2697Y15139D01*
X1850Y15153D02*
X2683D01*
X1833Y19994D02*
X2550D01*
X2444Y16494D02*
X3437D01*
X1850Y15900D02*
X2444Y16494D01*
X1850Y15153D02*
Y15900D01*
X3437Y16494D02*
X4421D01*
X4656Y16258D01*
Y15791D02*
Y16258D01*
X9847Y18800D02*
Y19453D01*
X7687Y21191D02*
Y22191D01*
X2891Y24495D02*
Y25150D01*
Y24495D02*
X3674D01*
X2817Y24570D02*
X2891Y24495D01*
X1904Y24570D02*
X2817D01*
X4179Y24883D02*
X5513D01*
X2847Y26215D02*
X4179Y24883D01*
X2847Y26215D02*
Y26850D01*
X3350Y22900D02*
X6978D01*
X2550Y22100D02*
X3350Y22900D01*
X2550Y19994D02*
Y22100D01*
Y19976D02*
Y19994D01*
X6978Y22900D02*
X7687Y22191D01*
X12100Y21399D02*
X12884D01*
X9335Y26847D02*
X10035D01*
X2627Y20053D02*
X3600D01*
X4400D01*
X1303Y20523D02*
X1833Y19994D01*
X1303Y20523D02*
Y22250D01*
Y23000D01*
X1317Y23013D01*
Y24570D01*
X1600Y26850D02*
X2847D01*
X1303Y26553D02*
X1600Y26850D01*
X1303Y25544D02*
Y26553D01*
X4500Y20053D02*
X5800D01*
X9687Y22191D02*
X10479Y21399D01*
X12100D01*
X8687Y22191D02*
X9687D01*
D73*
X61950Y16900D02*
D03*
Y17900D02*
D03*
Y18900D02*
D03*
X2550Y17024D02*
D03*
Y18008D02*
D03*
Y18992D02*
D03*
X59400Y18900D02*
D03*
Y17900D02*
D03*
Y16900D02*
D03*
X4401Y27850D02*
D03*
X6687Y21191D02*
D03*
X7687D02*
D03*
X8687D02*
D03*
X9687D02*
D03*
X5687Y22191D02*
D03*
X6687D02*
D03*
X7687D02*
D03*
X8687D02*
D03*
X9687D02*
D03*
D74*
X61950Y19900D02*
D03*
X2550Y19976D02*
D03*
X59400Y19900D02*
D03*
D75*
X7801Y35405D02*
D03*
X4399D02*
D03*
D76*
Y37051D02*
D03*
X7801D02*
D03*
D77*
X24372Y32091D02*
D03*
X34214D02*
D03*
X10985D02*
D03*
X20828D02*
D03*
X60993Y6159D02*
D03*
X51150D02*
D03*
X50800Y32091D02*
D03*
X60642D02*
D03*
X37609D02*
D03*
X47451D02*
D03*
X21091Y6159D02*
D03*
X11249D02*
D03*
X34565D02*
D03*
X24722D02*
D03*
X47801D02*
D03*
X37959D02*
D03*
D78*
X30923Y32650D02*
D03*
X29837D02*
D03*
X28750D02*
D03*
X27663D02*
D03*
X30380Y31532D02*
D03*
X28207D02*
D03*
X27120D02*
D03*
X29293D02*
D03*
X17537Y32650D02*
D03*
X16450D02*
D03*
X15363D02*
D03*
X14277D02*
D03*
X16993Y31532D02*
D03*
X14820D02*
D03*
X13734D02*
D03*
X15907D02*
D03*
X54441Y5600D02*
D03*
X55528D02*
D03*
X56615D02*
D03*
X57701D02*
D03*
X54985Y6718D02*
D03*
X57158D02*
D03*
X58244D02*
D03*
X56071D02*
D03*
X57351Y32650D02*
D03*
X56265D02*
D03*
X55178D02*
D03*
X54091D02*
D03*
X56808Y31532D02*
D03*
X54635D02*
D03*
X53548D02*
D03*
X55721D02*
D03*
X44160Y32650D02*
D03*
X43073D02*
D03*
X41987D02*
D03*
X40900D02*
D03*
X43616Y31532D02*
D03*
X41443D02*
D03*
X40357D02*
D03*
X42530D02*
D03*
X14540Y5600D02*
D03*
X15627D02*
D03*
X16713D02*
D03*
X17800D02*
D03*
X15084Y6718D02*
D03*
X17257D02*
D03*
X18343D02*
D03*
X16170D02*
D03*
X28013Y5600D02*
D03*
X29100D02*
D03*
X30187D02*
D03*
X31273D02*
D03*
X28557Y6718D02*
D03*
X30730D02*
D03*
X31816D02*
D03*
X29643D02*
D03*
X41250Y5600D02*
D03*
X42337D02*
D03*
X43423D02*
D03*
X44510D02*
D03*
X41793Y6718D02*
D03*
X43966D02*
D03*
X45053D02*
D03*
X42880D02*
D03*
D79*
X31467Y31532D02*
D03*
X18080D02*
D03*
X53898Y6718D02*
D03*
X57895Y31532D02*
D03*
X44703D02*
D03*
X13997Y6718D02*
D03*
X27470D02*
D03*
X40707D02*
D03*
D80*
X1250Y37050D02*
D03*
X63300Y1300D02*
D03*
X1250D02*
D03*
X63300Y37050D02*
D03*
D81*
X2252Y29245D02*
D03*
Y31155D02*
D03*
D82*
X1201Y31617D02*
D03*
Y28783D02*
D03*
D83*
X1606Y27850D02*
D03*
X5687Y21191D02*
D03*
D84*
X61550Y34800D02*
D03*
Y28800D02*
D03*
X60050Y25800D02*
D03*
X61550Y22800D02*
D03*
X60050Y19800D02*
D03*
Y13800D02*
D03*
X61550Y10800D02*
D03*
X60050Y7800D02*
D03*
X61550Y4800D02*
D03*
X60050Y1800D02*
D03*
X58550Y34800D02*
D03*
Y28800D02*
D03*
X57050Y25800D02*
D03*
X58550Y22800D02*
D03*
X57050Y19800D02*
D03*
X58550Y16800D02*
D03*
X57050Y13800D02*
D03*
X58550Y10800D02*
D03*
X57050Y7800D02*
D03*
X58550Y4800D02*
D03*
X57050Y1800D02*
D03*
X55550Y34800D02*
D03*
Y16800D02*
D03*
X54050Y13800D02*
D03*
Y7800D02*
D03*
X55550Y4800D02*
D03*
X54050Y1800D02*
D03*
X52550Y34800D02*
D03*
X51050Y25800D02*
D03*
X52550Y22800D02*
D03*
X51050Y19800D02*
D03*
Y13800D02*
D03*
Y7800D02*
D03*
X52550Y4800D02*
D03*
X51050Y1800D02*
D03*
X49550Y34800D02*
D03*
Y28800D02*
D03*
X48050Y25800D02*
D03*
X49550Y22800D02*
D03*
X48050Y19800D02*
D03*
Y13800D02*
D03*
X49550Y10800D02*
D03*
X48050Y7800D02*
D03*
X49550Y4800D02*
D03*
X48050Y1800D02*
D03*
X46550Y34800D02*
D03*
Y28800D02*
D03*
X45050Y25800D02*
D03*
X46550Y22800D02*
D03*
X45050Y19800D02*
D03*
Y13800D02*
D03*
X46550Y10800D02*
D03*
X45050Y7800D02*
D03*
X46550Y4800D02*
D03*
X45050Y1800D02*
D03*
X43550Y34800D02*
D03*
Y22800D02*
D03*
X42050Y19800D02*
D03*
Y13800D02*
D03*
Y7800D02*
D03*
X43550Y4800D02*
D03*
X42050Y1800D02*
D03*
X40550Y34800D02*
D03*
X39050Y31800D02*
D03*
Y25800D02*
D03*
X40550Y22800D02*
D03*
X39050Y19800D02*
D03*
Y13800D02*
D03*
Y7800D02*
D03*
X40550Y4800D02*
D03*
X39050Y1800D02*
D03*
X37550Y34800D02*
D03*
X36050Y31800D02*
D03*
X37550Y28800D02*
D03*
X36050Y25800D02*
D03*
X37550Y22800D02*
D03*
X36050Y19800D02*
D03*
Y13800D02*
D03*
X37550Y10800D02*
D03*
X36050Y7800D02*
D03*
X37550Y4800D02*
D03*
X36050Y1800D02*
D03*
X34550Y34800D02*
D03*
Y28800D02*
D03*
X33050Y25800D02*
D03*
X34550Y22800D02*
D03*
X33050Y13800D02*
D03*
X34550Y10800D02*
D03*
X33050Y7800D02*
D03*
X34550Y4800D02*
D03*
X33050Y1800D02*
D03*
X31550Y34800D02*
D03*
Y28800D02*
D03*
X30050Y25800D02*
D03*
X31550Y22800D02*
D03*
X30050Y13800D02*
D03*
X31550Y10800D02*
D03*
X30050Y7800D02*
D03*
X31550Y4800D02*
D03*
X30050Y1800D02*
D03*
X28550Y34800D02*
D03*
Y22800D02*
D03*
X27050Y7800D02*
D03*
X28550Y4800D02*
D03*
X27050Y1800D02*
D03*
X25550Y34800D02*
D03*
X24050Y25800D02*
D03*
X25550Y22800D02*
D03*
X24050Y7800D02*
D03*
X25550Y4800D02*
D03*
X24050Y1800D02*
D03*
X22550Y34800D02*
D03*
Y28800D02*
D03*
Y22800D02*
D03*
Y10800D02*
D03*
X21050Y7800D02*
D03*
X22550Y4800D02*
D03*
X21050Y1800D02*
D03*
X19550Y34800D02*
D03*
Y28800D02*
D03*
X18050Y25800D02*
D03*
X19550Y22800D02*
D03*
X18050Y19800D02*
D03*
X19550Y10800D02*
D03*
X18050Y7800D02*
D03*
X19550Y4800D02*
D03*
X18050Y1800D02*
D03*
X16550Y34800D02*
D03*
X15050Y19800D02*
D03*
Y13800D02*
D03*
X16550Y4800D02*
D03*
X15050Y1800D02*
D03*
X13550Y34800D02*
D03*
X12050Y25800D02*
D03*
Y13800D02*
D03*
Y7800D02*
D03*
X13550Y4800D02*
D03*
X12050Y1800D02*
D03*
X10550Y34800D02*
D03*
Y28800D02*
D03*
Y10800D02*
D03*
X9050Y7800D02*
D03*
X10550Y4800D02*
D03*
X9050Y1800D02*
D03*
X7550Y28800D02*
D03*
X6050Y7800D02*
D03*
X7550Y4800D02*
D03*
X6050Y1800D02*
D03*
X3050Y31800D02*
D03*
X4550Y28800D02*
D03*
Y10800D02*
D03*
X3050Y7800D02*
D03*
X4550Y4800D02*
D03*
X3050Y1800D02*
D03*
X5993Y33007D02*
D03*
X12700Y17255D02*
D03*
X7353Y17191D02*
D03*
X8503Y17255D02*
D03*
X8253Y16644D02*
D03*
X8053Y17481D02*
D03*
X7095Y16841D02*
D03*
D85*
X12100Y17900D02*
D03*
X4450Y15139D02*
D03*
X8600Y24813D02*
D03*
X8700Y29150D02*
D03*
X13050Y30550D02*
D03*
X26100D02*
D03*
X40300D02*
D03*
X52647D02*
D03*
X13250Y13000D02*
D03*
X26298D02*
D03*
X40550D02*
D03*
X53050D02*
D03*
X54985Y7850D02*
D03*
X55448Y11220D02*
D03*
X54948D02*
D03*
X42450Y8150D02*
D03*
X28200Y8250D02*
D03*
X15250Y8050D02*
D03*
X43423Y13555D02*
D03*
X43945Y13755D02*
D03*
X29175Y13350D02*
D03*
X29600Y13610D02*
D03*
X16750Y13400D02*
D03*
X16150Y13450D02*
D03*
X56150Y21100D02*
D03*
X55700Y21421D02*
D03*
X36576Y20400D02*
D03*
X35350D02*
D03*
X19450Y20350D02*
D03*
X18700Y23050D02*
D03*
X18000Y23550D02*
D03*
X16408Y22650D02*
D03*
X15821Y22643D02*
D03*
X6198Y30900D02*
D03*
X6750Y30550D02*
D03*
Y31850D02*
D03*
X11050Y17221D02*
D03*
Y16450D02*
D03*
X12550Y18650D02*
D03*
X12197Y18370D02*
D03*
X10350Y18050D02*
D03*
X13253Y17553D02*
D03*
X23000Y19624D02*
D03*
X21330Y18420D02*
D03*
X22050D02*
D03*
X23000Y18950D02*
D03*
Y20300D02*
D03*
X22065Y21006D02*
D03*
X21330Y21000D02*
D03*
X2891Y25150D02*
D03*
X4800Y23350D02*
D03*
X19886Y19994D02*
D03*
X18000Y18700D02*
D03*
X15750Y16000D02*
D03*
X12469Y15550D02*
D03*
X16050Y27691D02*
D03*
X16550D02*
D03*
X29175Y27874D02*
D03*
X29650Y27550D02*
D03*
X43300Y27624D02*
D03*
X43800D02*
D03*
X56251Y27699D02*
D03*
X55700Y27674D02*
D03*
X7875Y24577D02*
D03*
X4300Y30200D02*
D03*
X3700Y30750D02*
D03*
X10250Y14600D02*
D03*
X8750Y14631D02*
D03*
X15821Y11168D02*
D03*
X9847Y19453D02*
D03*
X6890Y19344D02*
D03*
X5194Y18994D02*
D03*
X10250Y16450D02*
D03*
X3437Y16494D02*
D03*
X10003Y17844D02*
D03*
X15148Y20600D02*
D03*
X5266Y16120D02*
D03*
X7987Y14441D02*
D03*
X5087Y16595D02*
D03*
X17668Y20430D02*
D03*
X17353Y19950D02*
D03*
X16723D02*
D03*
X16093D02*
D03*
X16408Y20430D02*
D03*
X17038D02*
D03*
X5187Y27341D02*
D03*
X7740Y25967D02*
D03*
X8287Y29141D02*
D03*
X15258Y11168D02*
D03*
X28673D02*
D03*
X28173D02*
D03*
X42948D02*
D03*
X42448D02*
D03*
M02*
