G04*
G04 #@! TF.GenerationSoftware,Altium Limited,Altium Designer,18.1.9 (240)*
G04*
G04 Layer_Color=16711935*
%FSLAX24Y24*%
%MOIN*%
G70*
G01*
G75*
%ADD18C,0.0050*%
%ADD21C,0.0200*%
%ADD58C,0.0671*%
%ADD59R,0.0671X0.0671*%
%ADD60O,0.0474X0.0907*%
%ADD61O,0.0474X0.0789*%
%ADD62C,0.2049*%
%ADD63C,0.0700*%
%ADD64R,0.0700X0.0700*%
%ADD65C,0.1261*%
%ADD66C,0.0592*%
%ADD67O,0.0946X0.0592*%
%ADD68R,0.0671X0.0671*%
%ADD69C,0.0320*%
%ADD70C,0.0380*%
D18*
X7376Y35614D02*
G03*
X7376Y35614I-138J0D01*
G01*
X5100D02*
G03*
X5100Y35614I-138J0D01*
G01*
D21*
X-200Y38300D02*
X-200Y-100D01*
X-200Y38300D02*
X64400D01*
X64400Y-100D01*
X-200D02*
X64400D01*
D58*
X61950Y16900D02*
D03*
Y17900D02*
D03*
Y18900D02*
D03*
X2550Y17024D02*
D03*
Y18008D02*
D03*
Y18992D02*
D03*
X59400Y18900D02*
D03*
Y17900D02*
D03*
Y16900D02*
D03*
X4401Y27850D02*
D03*
X6687Y21191D02*
D03*
X7687D02*
D03*
X8687D02*
D03*
X9687D02*
D03*
X5687Y22191D02*
D03*
X6687D02*
D03*
X7687D02*
D03*
X8687D02*
D03*
X9687D02*
D03*
D59*
X61950Y19900D02*
D03*
X2550Y19976D02*
D03*
X59400Y19900D02*
D03*
D60*
X7801Y35405D02*
D03*
X4399D02*
D03*
D61*
Y37051D02*
D03*
X7801D02*
D03*
D62*
X24372Y32091D02*
D03*
X34214D02*
D03*
X10985D02*
D03*
X20828D02*
D03*
X60993Y6159D02*
D03*
X51150D02*
D03*
X50800Y32091D02*
D03*
X60642D02*
D03*
X37609D02*
D03*
X47451D02*
D03*
X21091Y6159D02*
D03*
X11249D02*
D03*
X34565D02*
D03*
X24722D02*
D03*
X47801D02*
D03*
X37959D02*
D03*
D63*
X30923Y32650D02*
D03*
X29837D02*
D03*
X28750D02*
D03*
X27663D02*
D03*
X30380Y31532D02*
D03*
X28207D02*
D03*
X27120D02*
D03*
X29293D02*
D03*
X17537Y32650D02*
D03*
X16450D02*
D03*
X15363D02*
D03*
X14277D02*
D03*
X16993Y31532D02*
D03*
X14820D02*
D03*
X13734D02*
D03*
X15907D02*
D03*
X54441Y5600D02*
D03*
X55528D02*
D03*
X56615D02*
D03*
X57701D02*
D03*
X54985Y6718D02*
D03*
X57158D02*
D03*
X58244D02*
D03*
X56071D02*
D03*
X57351Y32650D02*
D03*
X56265D02*
D03*
X55178D02*
D03*
X54091D02*
D03*
X56808Y31532D02*
D03*
X54635D02*
D03*
X53548D02*
D03*
X55721D02*
D03*
X44160Y32650D02*
D03*
X43073D02*
D03*
X41987D02*
D03*
X40900D02*
D03*
X43616Y31532D02*
D03*
X41443D02*
D03*
X40357D02*
D03*
X42530D02*
D03*
X14540Y5600D02*
D03*
X15627D02*
D03*
X16713D02*
D03*
X17800D02*
D03*
X15084Y6718D02*
D03*
X17257D02*
D03*
X18343D02*
D03*
X16170D02*
D03*
X28013Y5600D02*
D03*
X29100D02*
D03*
X30187D02*
D03*
X31273D02*
D03*
X28557Y6718D02*
D03*
X30730D02*
D03*
X31816D02*
D03*
X29643D02*
D03*
X41250Y5600D02*
D03*
X42337D02*
D03*
X43423D02*
D03*
X44510D02*
D03*
X41793Y6718D02*
D03*
X43966D02*
D03*
X45053D02*
D03*
X42880D02*
D03*
D64*
X31467Y31532D02*
D03*
X18080D02*
D03*
X53898Y6718D02*
D03*
X57895Y31532D02*
D03*
X44703D02*
D03*
X13997Y6718D02*
D03*
X27470D02*
D03*
X40707D02*
D03*
D65*
X1250Y37050D02*
D03*
X63300Y1300D02*
D03*
X1250D02*
D03*
X63300Y37050D02*
D03*
D66*
X2252Y29245D02*
D03*
Y31155D02*
D03*
D67*
X1201Y31617D02*
D03*
Y28783D02*
D03*
D68*
X1606Y27850D02*
D03*
X5687Y21191D02*
D03*
D69*
X61550Y34800D02*
D03*
Y28800D02*
D03*
X60050Y25800D02*
D03*
X61550Y22800D02*
D03*
X60050Y19800D02*
D03*
Y13800D02*
D03*
X61550Y10800D02*
D03*
X60050Y7800D02*
D03*
X61550Y4800D02*
D03*
X60050Y1800D02*
D03*
X58550Y34800D02*
D03*
Y28800D02*
D03*
X57050Y25800D02*
D03*
X58550Y22800D02*
D03*
X57050Y19800D02*
D03*
X58550Y16800D02*
D03*
X57050Y13800D02*
D03*
X58550Y10800D02*
D03*
X57050Y7800D02*
D03*
X58550Y4800D02*
D03*
X57050Y1800D02*
D03*
X55550Y34800D02*
D03*
Y16800D02*
D03*
X54050Y13800D02*
D03*
Y7800D02*
D03*
X55550Y4800D02*
D03*
X54050Y1800D02*
D03*
X52550Y34800D02*
D03*
X51050Y25800D02*
D03*
X52550Y22800D02*
D03*
X51050Y19800D02*
D03*
Y13800D02*
D03*
Y7800D02*
D03*
X52550Y4800D02*
D03*
X51050Y1800D02*
D03*
X49550Y34800D02*
D03*
Y28800D02*
D03*
X48050Y25800D02*
D03*
X49550Y22800D02*
D03*
X48050Y19800D02*
D03*
Y13800D02*
D03*
X49550Y10800D02*
D03*
X48050Y7800D02*
D03*
X49550Y4800D02*
D03*
X48050Y1800D02*
D03*
X46550Y34800D02*
D03*
Y28800D02*
D03*
X45050Y25800D02*
D03*
X46550Y22800D02*
D03*
X45050Y19800D02*
D03*
Y13800D02*
D03*
X46550Y10800D02*
D03*
X45050Y7800D02*
D03*
X46550Y4800D02*
D03*
X45050Y1800D02*
D03*
X43550Y34800D02*
D03*
Y22800D02*
D03*
X42050Y19800D02*
D03*
Y13800D02*
D03*
Y7800D02*
D03*
X43550Y4800D02*
D03*
X42050Y1800D02*
D03*
X40550Y34800D02*
D03*
X39050Y31800D02*
D03*
Y25800D02*
D03*
X40550Y22800D02*
D03*
X39050Y19800D02*
D03*
Y13800D02*
D03*
Y7800D02*
D03*
X40550Y4800D02*
D03*
X39050Y1800D02*
D03*
X37550Y34800D02*
D03*
X36050Y31800D02*
D03*
X37550Y28800D02*
D03*
X36050Y25800D02*
D03*
X37550Y22800D02*
D03*
X36050Y19800D02*
D03*
Y13800D02*
D03*
X37550Y10800D02*
D03*
X36050Y7800D02*
D03*
X37550Y4800D02*
D03*
X36050Y1800D02*
D03*
X34550Y34800D02*
D03*
Y28800D02*
D03*
X33050Y25800D02*
D03*
X34550Y22800D02*
D03*
X33050Y13800D02*
D03*
X34550Y10800D02*
D03*
X33050Y7800D02*
D03*
X34550Y4800D02*
D03*
X33050Y1800D02*
D03*
X31550Y34800D02*
D03*
Y28800D02*
D03*
X30050Y25800D02*
D03*
X31550Y22800D02*
D03*
X30050Y13800D02*
D03*
X31550Y10800D02*
D03*
X30050Y7800D02*
D03*
X31550Y4800D02*
D03*
X30050Y1800D02*
D03*
X28550Y34800D02*
D03*
Y22800D02*
D03*
X27050Y7800D02*
D03*
X28550Y4800D02*
D03*
X27050Y1800D02*
D03*
X25550Y34800D02*
D03*
X24050Y25800D02*
D03*
X25550Y22800D02*
D03*
X24050Y7800D02*
D03*
X25550Y4800D02*
D03*
X24050Y1800D02*
D03*
X22550Y34800D02*
D03*
Y28800D02*
D03*
Y22800D02*
D03*
Y10800D02*
D03*
X21050Y7800D02*
D03*
X22550Y4800D02*
D03*
X21050Y1800D02*
D03*
X19550Y34800D02*
D03*
Y28800D02*
D03*
X18050Y25800D02*
D03*
X19550Y22800D02*
D03*
X18050Y19800D02*
D03*
X19550Y10800D02*
D03*
X18050Y7800D02*
D03*
X19550Y4800D02*
D03*
X18050Y1800D02*
D03*
X16550Y34800D02*
D03*
X15050Y19800D02*
D03*
Y13800D02*
D03*
X16550Y4800D02*
D03*
X15050Y1800D02*
D03*
X13550Y34800D02*
D03*
X12050Y25800D02*
D03*
Y13800D02*
D03*
Y7800D02*
D03*
X13550Y4800D02*
D03*
X12050Y1800D02*
D03*
X10550Y34800D02*
D03*
Y28800D02*
D03*
Y10800D02*
D03*
X9050Y7800D02*
D03*
X10550Y4800D02*
D03*
X9050Y1800D02*
D03*
X7550Y28800D02*
D03*
X6050Y7800D02*
D03*
X7550Y4800D02*
D03*
X6050Y1800D02*
D03*
X3050Y31800D02*
D03*
X4550Y28800D02*
D03*
Y10800D02*
D03*
X3050Y7800D02*
D03*
X4550Y4800D02*
D03*
X3050Y1800D02*
D03*
X12700Y17255D02*
D03*
D70*
X12100Y17900D02*
D03*
X4450Y15139D02*
D03*
X13050Y30550D02*
D03*
X26100D02*
D03*
X40300D02*
D03*
X52647D02*
D03*
X13250Y13000D02*
D03*
X26298D02*
D03*
X40550D02*
D03*
X53050D02*
D03*
X54985Y7850D02*
D03*
X42450Y8150D02*
D03*
X28200Y8250D02*
D03*
X15250Y8050D02*
D03*
X43423Y13555D02*
D03*
X43945Y13755D02*
D03*
X29175Y13350D02*
D03*
X29600Y13610D02*
D03*
X16750Y13400D02*
D03*
X16150Y13450D02*
D03*
X56150Y21100D02*
D03*
X55700Y21421D02*
D03*
X36576Y20400D02*
D03*
X35350D02*
D03*
X19450Y20350D02*
D03*
X18700Y23050D02*
D03*
X18000Y23550D02*
D03*
X16408Y22650D02*
D03*
X15821Y22643D02*
D03*
X6198Y30900D02*
D03*
X6750Y30550D02*
D03*
Y31850D02*
D03*
X11050Y17221D02*
D03*
Y16450D02*
D03*
X13253Y17553D02*
D03*
X23000Y19624D02*
D03*
X21330Y18420D02*
D03*
X22050D02*
D03*
X23000Y18950D02*
D03*
Y20300D02*
D03*
X22065Y21006D02*
D03*
X21330Y21000D02*
D03*
X2891Y25150D02*
D03*
X18000Y18700D02*
D03*
X9847Y19453D02*
D03*
M02*
