G04*
G04 #@! TF.GenerationSoftware,Altium Limited,Altium Designer,18.1.9 (240)*
G04*
G04 Layer_Color=32896*
%FSLAX24Y24*%
%MOIN*%
G70*
G01*
G75*
%ADD13C,0.0100*%
%ADD18C,0.0050*%
%ADD21C,0.0200*%
G36*
X5872Y5738D02*
X5880Y5736D01*
X5886Y5734D01*
X5893Y5730D01*
X5894Y5729D01*
X5895Y5726D01*
X5898Y5721D01*
X5901Y5713D01*
X5904Y5705D01*
X5906Y5695D01*
X5907Y5684D01*
Y5672D01*
X5909Y5671D01*
X5912Y5670D01*
X5917Y5669D01*
X5924Y5667D01*
X5931Y5667D01*
X5941Y5667D01*
X5950Y5669D01*
X5961Y5672D01*
X5970D01*
X5975Y5671D01*
X5979Y5669D01*
X5984Y5666D01*
X5989Y5662D01*
X5989Y5661D01*
X5990Y5660D01*
X5992Y5658D01*
X5995Y5655D01*
X5999Y5647D01*
X6000Y5643D01*
X6002Y5638D01*
Y5637D01*
X6003Y5634D01*
Y5630D01*
Y5625D01*
X6001Y5621D01*
X5998Y5617D01*
X5995Y5615D01*
X5992D01*
X5988Y5616D01*
X5987D01*
X5984Y5616D01*
X5980Y5617D01*
X5974Y5618D01*
X5966Y5619D01*
X5958Y5619D01*
X5947Y5621D01*
X5935Y5621D01*
X5935Y5621D01*
X5934Y5618D01*
X5932Y5614D01*
X5931Y5609D01*
X5929Y5603D01*
Y5596D01*
X5930Y5590D01*
X5932Y5582D01*
X5933Y5582D01*
X5935Y5580D01*
X5938Y5579D01*
X5942Y5576D01*
X5947Y5576D01*
X5954Y5575D01*
X5961Y5576D01*
X5969Y5579D01*
X5969D01*
X5972Y5580D01*
X5975Y5581D01*
X5978D01*
X5983Y5580D01*
X5987Y5579D01*
X5992Y5576D01*
X5995Y5571D01*
X5996Y5570D01*
X5997Y5569D01*
X5998Y5566D01*
X6000Y5563D01*
X6005Y5556D01*
X6008Y5549D01*
X6009Y5547D01*
X6009Y5545D01*
Y5541D01*
X6009Y5536D01*
X6006Y5532D01*
X6005Y5530D01*
X6002Y5529D01*
X5998Y5527D01*
X5994D01*
X5989Y5528D01*
X5983Y5529D01*
X5982D01*
X5981Y5530D01*
X5977Y5530D01*
X5969Y5532D01*
X5961Y5534D01*
X5951Y5536D01*
X5941Y5536D01*
X5929D01*
X5918Y5535D01*
X5918D01*
X5917Y5534D01*
X5913Y5530D01*
X5912Y5528D01*
X5911Y5525D01*
Y5522D01*
X5912Y5518D01*
Y5517D01*
X5912Y5516D01*
X5915Y5512D01*
X5918Y5506D01*
X5924Y5501D01*
X5925Y5500D01*
X5926Y5499D01*
X5929Y5497D01*
X5933Y5495D01*
X5938Y5493D01*
X5946Y5491D01*
X5954Y5489D01*
X5963Y5488D01*
X5974D01*
X5980Y5489D01*
X5989Y5490D01*
X5998Y5491D01*
X6009Y5493D01*
X6019Y5496D01*
X6023D01*
X6029Y5495D01*
X6035Y5493D01*
X6043Y5490D01*
X6052Y5484D01*
X6057Y5480D01*
X6062Y5476D01*
X6067Y5471D01*
X6072Y5465D01*
Y5465D01*
Y5467D01*
X6073Y5470D01*
Y5473D01*
X6072Y5482D01*
X6071Y5488D01*
X6069Y5493D01*
X6069Y5493D01*
X6067Y5495D01*
X6065Y5497D01*
X6061Y5501D01*
X6057Y5504D01*
X6052Y5507D01*
X6046Y5510D01*
X6038Y5513D01*
X6037D01*
X6036Y5513D01*
X6032Y5515D01*
X6026Y5519D01*
X6020Y5525D01*
Y5525D01*
X6020Y5527D01*
X6018Y5529D01*
X6017Y5532D01*
Y5536D01*
X6018Y5540D01*
X6019Y5545D01*
X6022Y5551D01*
Y5552D01*
X6023Y5553D01*
X6028Y5555D01*
X6031Y5556D01*
X6034Y5556D01*
X6038Y5556D01*
X6043Y5554D01*
X6043D01*
X6045Y5553D01*
X6049Y5552D01*
X6056Y5550D01*
X6061Y5551D01*
X6062Y5552D01*
X6063Y5554D01*
X6066Y5558D01*
X6069Y5563D01*
X6070Y5569D01*
X6072Y5576D01*
Y5584D01*
X6069Y5593D01*
Y5594D01*
Y5595D01*
X6069Y5596D01*
X6067Y5598D01*
X6065Y5600D01*
X6062Y5602D01*
X6057Y5603D01*
X6052Y5604D01*
X6051D01*
X6049Y5605D01*
X6045D01*
X6040Y5606D01*
X6035Y5607D01*
X6029D01*
X6016Y5607D01*
X6015D01*
X6015Y5607D01*
X6012D01*
X6009Y5608D01*
X6008Y5611D01*
X6006Y5615D01*
X6005Y5621D01*
Y5622D01*
Y5624D01*
X6006Y5629D01*
Y5632D01*
X6006Y5636D01*
Y5636D01*
X6007Y5637D01*
X6009Y5641D01*
X6012Y5646D01*
X6015Y5648D01*
X6019Y5650D01*
X6058D01*
X6060Y5651D01*
X6063Y5653D01*
X6066Y5655D01*
X6069Y5658D01*
X6071Y5664D01*
Y5670D01*
Y5671D01*
Y5674D01*
X6070Y5678D01*
Y5683D01*
Y5689D01*
X6069Y5695D01*
Y5708D01*
Y5709D01*
X6070Y5712D01*
X6072Y5715D01*
X6073Y5720D01*
X6077Y5724D01*
X6080Y5729D01*
X6086Y5732D01*
X6093Y5735D01*
X6094D01*
X6097Y5736D01*
X6100Y5737D01*
X6111D01*
X6117Y5735D01*
X6124Y5734D01*
X6131Y5730D01*
X6131Y5730D01*
X6134Y5728D01*
X6137Y5726D01*
X6140Y5723D01*
X6144Y5718D01*
X6148Y5714D01*
X6150Y5708D01*
X6151Y5702D01*
Y5701D01*
Y5699D01*
Y5696D01*
X6150Y5693D01*
X6148Y5682D01*
X6145Y5672D01*
Y5671D01*
X6143Y5669D01*
X6143Y5665D01*
X6142Y5661D01*
Y5656D01*
X6143Y5652D01*
X6144Y5647D01*
X6148Y5644D01*
X6154D01*
X6160Y5643D01*
X6168Y5644D01*
X6178D01*
X6189Y5645D01*
X6200Y5647D01*
X6212Y5650D01*
X6215D01*
X6219Y5649D01*
X6223Y5647D01*
X6228Y5645D01*
X6234Y5642D01*
X6240Y5638D01*
X6245Y5633D01*
X6246Y5632D01*
X6248Y5630D01*
X6250Y5626D01*
X6252Y5621D01*
X6255Y5616D01*
X6257Y5610D01*
X6259Y5604D01*
X6259Y5596D01*
Y5596D01*
X6259Y5594D01*
X6258Y5591D01*
X6256Y5588D01*
X6254Y5585D01*
X6249Y5583D01*
X6244Y5582D01*
X6235D01*
X6232Y5583D01*
X6227Y5584D01*
X6222Y5584D01*
X6215Y5585D01*
X6208Y5587D01*
X6192Y5590D01*
X6191D01*
X6188Y5591D01*
X6183Y5592D01*
X6177Y5593D01*
X6168Y5593D01*
X6160Y5594D01*
X6142Y5596D01*
X6141D01*
X6140Y5596D01*
X6137Y5593D01*
X6135Y5591D01*
X6134Y5588D01*
X6133Y5584D01*
X6134Y5579D01*
Y5579D01*
X6134Y5577D01*
Y5574D01*
X6135Y5570D01*
X6136Y5566D01*
Y5561D01*
X6137Y5549D01*
Y5548D01*
X6137Y5547D01*
X6138Y5545D01*
X6140Y5542D01*
X6143Y5538D01*
X6147Y5535D01*
X6152Y5531D01*
X6159Y5529D01*
X6160D01*
X6162Y5528D01*
X6165Y5527D01*
X6170Y5527D01*
X6181Y5525D01*
X6192Y5524D01*
X6194D01*
X6197Y5523D01*
X6202Y5522D01*
X6210Y5521D01*
X6217Y5519D01*
X6225Y5516D01*
X6233Y5513D01*
X6239Y5510D01*
X6240Y5509D01*
X6242Y5506D01*
X6245Y5502D01*
X6247Y5497D01*
X6249Y5491D01*
X6250Y5485D01*
X6249Y5477D01*
X6247Y5470D01*
X6246Y5469D01*
X6245Y5467D01*
X6242Y5464D01*
X6239Y5460D01*
X6235Y5456D01*
X6229Y5454D01*
X6222Y5451D01*
X6214Y5451D01*
X6213D01*
X6208Y5452D01*
X6202Y5454D01*
X6193Y5456D01*
X6182Y5459D01*
X6170Y5464D01*
X6156Y5469D01*
X6142Y5476D01*
X6141D01*
X6140Y5475D01*
X6140Y5473D01*
X6138Y5470D01*
X6137Y5465D01*
X6136Y5456D01*
X6135Y5452D01*
Y5446D01*
Y5440D01*
Y5433D01*
Y5432D01*
Y5431D01*
Y5429D01*
Y5426D01*
X6136Y5419D01*
X6137Y5410D01*
X6138Y5399D01*
X6140Y5389D01*
X6142Y5379D01*
X6145Y5370D01*
X6146Y5368D01*
X6149Y5365D01*
X6154Y5361D01*
X6162Y5357D01*
X6171Y5352D01*
X6182Y5348D01*
X6194Y5346D01*
X6201D01*
X6208Y5347D01*
X6209D01*
X6214Y5348D01*
X6221Y5349D01*
X6229Y5351D01*
X6239Y5354D01*
X6249Y5357D01*
X6259Y5360D01*
X6268Y5364D01*
X6268D01*
X6271Y5363D01*
X6276Y5362D01*
X6279Y5360D01*
X6281Y5357D01*
Y5354D01*
X6279Y5350D01*
X6278Y5349D01*
X6277Y5348D01*
X6276Y5346D01*
X6273Y5343D01*
X6266Y5336D01*
X6257Y5326D01*
X6245Y5316D01*
X6232Y5306D01*
X6216Y5295D01*
X6198Y5286D01*
X6197D01*
X6196Y5285D01*
X6193Y5283D01*
X6189Y5283D01*
X6185Y5281D01*
X6180Y5280D01*
X6167Y5277D01*
X6153Y5274D01*
X6137Y5274D01*
X6120Y5276D01*
X6111Y5277D01*
X6103Y5280D01*
X6102Y5281D01*
X6099Y5284D01*
X6095Y5288D01*
X6091Y5294D01*
X6086Y5303D01*
X6083Y5314D01*
X6079Y5326D01*
X6077Y5342D01*
Y5343D01*
Y5344D01*
X6076Y5346D01*
Y5350D01*
Y5354D01*
X6075Y5359D01*
X6074Y5371D01*
X6074Y5384D01*
X6073Y5400D01*
X6072Y5416D01*
Y5434D01*
X6072Y5434D01*
X6070Y5432D01*
X6067Y5431D01*
X6063Y5429D01*
X6057Y5428D01*
X6052D01*
X6046Y5431D01*
X6038Y5434D01*
X6037D01*
X6037Y5435D01*
X6035Y5436D01*
X6032Y5436D01*
X6024Y5439D01*
X6014Y5442D01*
X6002Y5444D01*
X5988Y5446D01*
X5972Y5448D01*
X5955Y5448D01*
X5954Y5448D01*
X5952Y5447D01*
X5949Y5445D01*
X5946Y5442D01*
Y5442D01*
X5947Y5441D01*
X5949Y5436D01*
X5952Y5430D01*
X5955Y5422D01*
X5958Y5413D01*
X5960Y5403D01*
X5961Y5394D01*
X5959Y5386D01*
X5958Y5385D01*
X5958Y5383D01*
X5955Y5379D01*
X5950Y5375D01*
X5944Y5370D01*
X5936Y5364D01*
X5926Y5358D01*
X5919Y5356D01*
X5912Y5353D01*
X5912Y5351D01*
X5909Y5349D01*
X5908Y5346D01*
X5907Y5345D01*
Y5345D01*
X5909Y5344D01*
X5912Y5343D01*
X5918Y5340D01*
X5926Y5337D01*
X5937Y5334D01*
X5948Y5331D01*
X5960Y5328D01*
X5973Y5326D01*
X5975D01*
X5979Y5325D01*
X5986D01*
X5994Y5325D01*
X6003Y5324D01*
X6023D01*
X6033Y5325D01*
X6034D01*
X6035Y5324D01*
X6040Y5322D01*
X6043Y5320D01*
X6045Y5317D01*
X6046Y5312D01*
X6044Y5307D01*
Y5306D01*
X6043Y5305D01*
X6042Y5302D01*
X6040Y5299D01*
X6035Y5293D01*
X6031Y5290D01*
X6027Y5288D01*
X6026D01*
X6026Y5288D01*
X6023Y5286D01*
X6020Y5286D01*
X6017Y5283D01*
X6012Y5282D01*
X6001Y5279D01*
X5987Y5276D01*
X5972Y5274D01*
X5955D01*
X5945Y5274D01*
X5935Y5276D01*
X5935D01*
X5933Y5277D01*
X5930Y5277D01*
X5926Y5278D01*
X5921Y5279D01*
X5916Y5280D01*
X5903Y5285D01*
X5887Y5290D01*
X5870Y5296D01*
X5852Y5304D01*
X5835Y5314D01*
X5834D01*
X5832Y5313D01*
X5828Y5312D01*
X5823Y5311D01*
X5817Y5309D01*
X5810Y5307D01*
X5801Y5305D01*
X5792Y5303D01*
X5781Y5300D01*
X5770Y5297D01*
X5746Y5289D01*
X5720Y5281D01*
X5692Y5272D01*
X5690D01*
X5688Y5273D01*
X5684Y5274D01*
X5679Y5275D01*
X5673Y5278D01*
X5668Y5283D01*
X5664Y5289D01*
X5661Y5297D01*
Y5298D01*
Y5299D01*
X5662Y5303D01*
X5663Y5305D01*
X5664Y5307D01*
X5668Y5309D01*
X5673Y5311D01*
X5673D01*
X5675Y5313D01*
X5678Y5314D01*
X5682Y5316D01*
X5686Y5318D01*
X5692Y5321D01*
X5698Y5324D01*
X5705Y5327D01*
X5721Y5334D01*
X5740Y5342D01*
X5760Y5349D01*
X5781Y5356D01*
X5783D01*
X5785Y5357D01*
X5788Y5360D01*
X5789Y5361D01*
X5790Y5364D01*
Y5365D01*
X5789Y5365D01*
X5787Y5368D01*
X5787Y5371D01*
X5783Y5378D01*
X5778Y5388D01*
X5774Y5399D01*
X5769Y5412D01*
X5764Y5427D01*
X5759Y5442D01*
Y5443D01*
X5758Y5445D01*
X5757Y5446D01*
X5753Y5448D01*
X5753D01*
X5752Y5448D01*
X5750Y5447D01*
X5747Y5445D01*
X5739Y5442D01*
X5730Y5438D01*
X5718Y5433D01*
X5704Y5427D01*
X5689Y5421D01*
X5673Y5414D01*
X5672D01*
X5670Y5414D01*
X5668Y5413D01*
X5665D01*
X5657Y5412D01*
X5647Y5413D01*
X5642Y5414D01*
X5636Y5416D01*
X5630Y5419D01*
X5624Y5422D01*
X5618Y5428D01*
X5613Y5434D01*
X5608Y5442D01*
X5602Y5451D01*
Y5451D01*
X5602Y5453D01*
Y5455D01*
X5601Y5459D01*
X5600Y5463D01*
X5599Y5469D01*
X5598Y5475D01*
X5597Y5482D01*
Y5482D01*
Y5484D01*
Y5486D01*
X5599Y5489D01*
X5602Y5491D01*
X5605Y5493D01*
X5611Y5495D01*
X5619Y5496D01*
X5629D01*
X5636Y5496D01*
X5656D01*
X5668Y5497D01*
X5682D01*
X5697Y5498D01*
X5714D01*
X5732Y5499D01*
X5751Y5499D01*
X5771D01*
X5793Y5500D01*
X5814D01*
X5837Y5501D01*
X5839D01*
X5844Y5503D01*
X5845Y5505D01*
X5847Y5508D01*
Y5511D01*
X5846Y5516D01*
Y5517D01*
X5844Y5519D01*
X5844Y5522D01*
X5841Y5525D01*
X5836Y5530D01*
X5832Y5533D01*
X5829Y5535D01*
X5684D01*
X5682Y5536D01*
X5679Y5538D01*
X5678Y5540D01*
X5676Y5543D01*
X5674Y5547D01*
Y5548D01*
X5673Y5550D01*
X5673Y5552D01*
Y5555D01*
Y5562D01*
X5673Y5565D01*
X5675Y5568D01*
X5676D01*
X5677Y5569D01*
X5680D01*
X5684Y5570D01*
X5689Y5570D01*
X5695Y5571D01*
X5701Y5572D01*
X5708Y5573D01*
X5724Y5574D01*
X5742Y5575D01*
X5761Y5576D01*
X5784D01*
X5786Y5577D01*
X5788Y5579D01*
X5790Y5581D01*
X5792Y5584D01*
X5793Y5587D01*
Y5593D01*
Y5594D01*
X5792Y5596D01*
X5791Y5599D01*
X5790Y5604D01*
X5787Y5613D01*
X5781Y5624D01*
X5781Y5625D01*
X5779D01*
X5778Y5626D01*
X5775D01*
X5771Y5627D01*
X5752D01*
X5747Y5627D01*
X5741D01*
X5734Y5628D01*
X5720Y5630D01*
X5719Y5630D01*
X5716Y5633D01*
X5711Y5636D01*
X5704Y5642D01*
X5704Y5643D01*
X5703Y5644D01*
X5701Y5649D01*
X5700Y5652D01*
Y5656D01*
X5701Y5659D01*
X5703Y5664D01*
X5704D01*
X5707Y5665D01*
X5710Y5666D01*
X5716Y5667D01*
X5722Y5669D01*
X5730Y5670D01*
X5738D01*
X5747Y5669D01*
X5747D01*
X5750Y5668D01*
X5761D01*
X5767Y5667D01*
X5775D01*
X5790Y5669D01*
X5790D01*
X5793Y5668D01*
X5797Y5669D01*
X5798Y5670D01*
X5801Y5672D01*
Y5673D01*
Y5676D01*
X5801Y5682D01*
X5803Y5689D01*
X5805Y5696D01*
X5808Y5705D01*
X5812Y5713D01*
X5818Y5722D01*
X5818D01*
X5819Y5724D01*
X5821Y5725D01*
X5824Y5727D01*
X5832Y5730D01*
X5842Y5735D01*
X5853Y5738D01*
X5860Y5738D01*
X5866D01*
X5872Y5738D01*
D02*
G37*
G36*
X6564Y5735D02*
X6568Y5733D01*
X6572Y5731D01*
X6575Y5727D01*
X6576Y5727D01*
X6578Y5724D01*
X6580Y5720D01*
X6582Y5715D01*
X6584Y5709D01*
X6587Y5702D01*
X6588Y5695D01*
Y5687D01*
Y5686D01*
Y5683D01*
X6587Y5679D01*
X6587Y5674D01*
Y5669D01*
X6586Y5662D01*
X6584Y5650D01*
X6584Y5648D01*
X6586Y5647D01*
X6587Y5645D01*
X6590Y5644D01*
X6595Y5643D01*
X6600Y5642D01*
X6609D01*
X6613Y5643D01*
X6618Y5644D01*
X6629Y5646D01*
X6640Y5650D01*
X6646D01*
X6652Y5649D01*
X6657Y5647D01*
X6663Y5644D01*
X6669Y5640D01*
X6675Y5635D01*
X6675Y5634D01*
X6677Y5632D01*
X6679Y5629D01*
X6682Y5624D01*
X6684Y5619D01*
X6686Y5614D01*
X6687Y5608D01*
Y5602D01*
Y5601D01*
X6686Y5599D01*
X6683Y5596D01*
X6680Y5593D01*
X6675Y5592D01*
X6667Y5591D01*
X6657Y5593D01*
X6652Y5594D01*
X6645Y5596D01*
X6644D01*
X6642Y5597D01*
X6639D01*
X6634Y5598D01*
X6627Y5599D01*
X6619Y5600D01*
X6609Y5601D01*
X6598Y5602D01*
X6596D01*
X6593Y5600D01*
X6591Y5599D01*
X6589Y5597D01*
Y5596D01*
Y5596D01*
Y5593D01*
X6590Y5590D01*
X6591Y5585D01*
X6592Y5580D01*
X6592Y5574D01*
X6595Y5560D01*
X6596Y5559D01*
X6598Y5557D01*
X6601Y5556D01*
X6605Y5554D01*
X6611Y5553D01*
X6618Y5552D01*
X6627Y5551D01*
X6637D01*
X6643Y5552D01*
X6650D01*
X6659Y5553D01*
X6676Y5554D01*
X6686D01*
X6691Y5553D01*
X6696Y5551D01*
X6701Y5548D01*
X6706Y5545D01*
X6707Y5544D01*
X6709Y5542D01*
X6711Y5540D01*
X6713Y5536D01*
X6715Y5533D01*
X6716Y5528D01*
Y5523D01*
X6715Y5518D01*
X6715Y5516D01*
X6714Y5513D01*
X6713Y5510D01*
X6712Y5507D01*
X6744D01*
X6746Y5508D01*
X6747Y5509D01*
X6749Y5511D01*
X6750Y5515D01*
X6751Y5519D01*
X6752Y5526D01*
Y5527D01*
Y5530D01*
Y5533D01*
Y5538D01*
Y5544D01*
Y5550D01*
Y5563D01*
Y5564D01*
X6752Y5566D01*
X6755Y5570D01*
X6757Y5573D01*
X6760Y5578D01*
X6764Y5582D01*
X6770Y5586D01*
X6777Y5589D01*
X6777D01*
X6780Y5590D01*
X6783Y5590D01*
X6788D01*
X6792Y5590D01*
X6797Y5588D01*
X6803Y5584D01*
X6807Y5579D01*
X6808Y5579D01*
X6809Y5576D01*
X6811Y5573D01*
X6812Y5569D01*
X6814Y5564D01*
X6816Y5558D01*
X6817Y5551D01*
Y5545D01*
Y5544D01*
Y5542D01*
X6817Y5538D01*
X6816Y5533D01*
X6815Y5523D01*
X6813Y5513D01*
X6814Y5511D01*
X6816Y5508D01*
X6818Y5507D01*
X6821Y5505D01*
X6826Y5505D01*
X6830Y5504D01*
X6834D01*
X6838Y5505D01*
X6846Y5505D01*
X6854Y5507D01*
X6856D01*
X6857Y5508D01*
X6860Y5509D01*
X6860Y5511D01*
X6861Y5515D01*
X6860Y5519D01*
X6858Y5526D01*
X6857Y5527D01*
X6857Y5530D01*
X6854Y5533D01*
X6852Y5539D01*
X6849Y5545D01*
X6846Y5552D01*
X6838Y5568D01*
Y5569D01*
X6837Y5570D01*
X6836Y5573D01*
X6834Y5576D01*
X6831Y5580D01*
X6829Y5584D01*
X6823Y5596D01*
X6822Y5597D01*
X6821Y5599D01*
X6819Y5602D01*
X6817Y5605D01*
X6810Y5612D01*
X6806Y5614D01*
X6802Y5616D01*
X6708D01*
X6704Y5617D01*
X6702Y5619D01*
X6700Y5621D01*
X6697Y5624D01*
X6695Y5628D01*
Y5629D01*
X6694Y5630D01*
X6692Y5633D01*
X6692Y5636D01*
X6690Y5642D01*
X6691Y5646D01*
X6692Y5650D01*
X6693Y5650D01*
X6694Y5651D01*
X6698Y5655D01*
X6778D01*
X6780Y5656D01*
X6782Y5658D01*
X6783Y5659D01*
Y5662D01*
X6782Y5666D01*
Y5667D01*
X6781Y5668D01*
X6780Y5670D01*
X6780Y5673D01*
X6777Y5680D01*
X6774Y5689D01*
Y5690D01*
X6773Y5693D01*
X6772Y5696D01*
Y5701D01*
X6773Y5706D01*
X6775Y5711D01*
X6779Y5715D01*
X6785Y5719D01*
X6786D01*
X6788Y5721D01*
X6792Y5721D01*
X6796Y5723D01*
X6801Y5724D01*
X6812D01*
X6816Y5722D01*
X6817Y5721D01*
X6818Y5720D01*
X6821Y5717D01*
X6824Y5713D01*
X6827Y5709D01*
X6830Y5704D01*
X6831Y5699D01*
X6832Y5694D01*
Y5693D01*
X6834Y5692D01*
X6835Y5690D01*
X6837Y5687D01*
X6842Y5679D01*
X6846Y5670D01*
Y5670D01*
X6846Y5668D01*
X6848Y5664D01*
X6850Y5658D01*
X6851Y5656D01*
X6852Y5655D01*
X6872D01*
X6882Y5656D01*
X6892Y5658D01*
X6903Y5661D01*
X6914Y5666D01*
X6920D01*
X6925Y5665D01*
X6931Y5664D01*
X6937Y5662D01*
X6942Y5658D01*
X6948Y5653D01*
X6949Y5653D01*
X6951Y5651D01*
X6953Y5647D01*
X6956Y5644D01*
X6958Y5639D01*
X6960Y5633D01*
X6961Y5627D01*
Y5621D01*
Y5621D01*
X6960Y5619D01*
X6959Y5615D01*
X6958Y5612D01*
X6956Y5608D01*
X6953Y5604D01*
X6950Y5602D01*
X6945Y5602D01*
X6940D01*
X6937Y5602D01*
X6933Y5603D01*
X6928Y5604D01*
X6917Y5607D01*
X6916D01*
X6914Y5608D01*
X6911Y5609D01*
X6908Y5610D01*
X6903Y5610D01*
X6897Y5612D01*
X6885Y5614D01*
X6885D01*
X6883Y5615D01*
X6880Y5616D01*
X6877Y5616D01*
X6869D01*
X6868Y5616D01*
Y5615D01*
X6870Y5613D01*
X6871Y5609D01*
X6874Y5604D01*
X6877Y5599D01*
X6880Y5593D01*
X6884Y5585D01*
X6889Y5577D01*
X6900Y5560D01*
X6911Y5542D01*
X6925Y5524D01*
X6939Y5507D01*
X6940Y5506D01*
X6940Y5504D01*
X6942Y5501D01*
X6944Y5496D01*
X6945Y5491D01*
X6947Y5486D01*
Y5480D01*
X6946Y5474D01*
Y5473D01*
X6945Y5472D01*
X6944Y5469D01*
X6942Y5467D01*
X6939Y5463D01*
X6935Y5460D01*
X6931Y5458D01*
X6925Y5456D01*
X6911D01*
X6904Y5457D01*
X6897Y5459D01*
X6888Y5461D01*
X6880Y5465D01*
X6878Y5465D01*
X6874Y5466D01*
X6869Y5468D01*
X6861Y5469D01*
X6852Y5471D01*
X6841Y5472D01*
X6829Y5473D01*
X6816D01*
Y5473D01*
Y5471D01*
X6815Y5466D01*
Y5463D01*
X6814Y5459D01*
Y5459D01*
Y5458D01*
X6814Y5454D01*
X6813Y5448D01*
Y5442D01*
X6814Y5441D01*
X6816Y5439D01*
X6820Y5436D01*
X6822Y5435D01*
X6824Y5434D01*
X6826D01*
X6830Y5434D01*
X6837Y5432D01*
X6846Y5431D01*
X6856Y5429D01*
X6868Y5428D01*
X6881Y5425D01*
X6895Y5424D01*
X6902D01*
X6908Y5423D01*
X6918Y5424D01*
X6929Y5425D01*
X6941Y5427D01*
X6954Y5430D01*
X6966Y5434D01*
X6972D01*
X6977Y5434D01*
X6981Y5433D01*
X6986Y5431D01*
X6991Y5427D01*
X6996Y5422D01*
X6996Y5421D01*
X6998Y5419D01*
X7000Y5416D01*
X7002Y5413D01*
X7009Y5404D01*
X7014Y5395D01*
Y5394D01*
X7015Y5393D01*
X7016Y5390D01*
X7016Y5387D01*
X7017Y5379D01*
Y5370D01*
Y5369D01*
Y5368D01*
X7016Y5365D01*
X7014Y5363D01*
X7012Y5362D01*
X7009D01*
X7005Y5364D01*
X7004Y5365D01*
X7001Y5365D01*
X6995Y5368D01*
X6988Y5370D01*
X6979Y5372D01*
X6971Y5374D01*
X6960Y5377D01*
X6950Y5378D01*
X6949D01*
X6947Y5379D01*
X6944Y5379D01*
X6940Y5380D01*
X6934Y5382D01*
X6928Y5383D01*
X6920Y5384D01*
X6912Y5385D01*
X6903Y5387D01*
X6894Y5388D01*
X6872Y5389D01*
X6848D01*
X6824Y5387D01*
X6823D01*
X6821Y5386D01*
X6819Y5383D01*
X6818Y5381D01*
Y5378D01*
Y5283D01*
Y5283D01*
Y5280D01*
X6817Y5277D01*
X6816Y5273D01*
X6814Y5269D01*
X6812Y5266D01*
X6809Y5263D01*
X6803Y5262D01*
X6797D01*
X6794Y5263D01*
X6784Y5265D01*
X6779Y5266D01*
X6774Y5269D01*
X6773D01*
X6770Y5271D01*
X6766Y5273D01*
X6763Y5276D01*
X6758Y5280D01*
X6755Y5286D01*
X6752Y5293D01*
X6752Y5303D01*
Y5378D01*
Y5379D01*
Y5379D01*
X6750Y5382D01*
X6748Y5385D01*
X6746Y5387D01*
X6742D01*
X6740Y5386D01*
X6737D01*
X6732Y5385D01*
X6727Y5385D01*
X6721Y5384D01*
X6709Y5382D01*
X6702D01*
X6697Y5383D01*
X6691Y5385D01*
X6684Y5387D01*
X6678Y5391D01*
X6670Y5395D01*
X6669Y5396D01*
X6668Y5397D01*
X6666Y5399D01*
X6664Y5402D01*
X6663Y5405D01*
X6662Y5411D01*
X6663Y5416D01*
X6665Y5423D01*
X6666D01*
X6667Y5424D01*
X6669D01*
X6673Y5425D01*
X6678Y5425D01*
X6683Y5426D01*
X6690Y5428D01*
X6698Y5428D01*
X6707D01*
X6713Y5429D01*
X6720Y5430D01*
X6728Y5431D01*
X6743Y5434D01*
X6743D01*
X6745Y5435D01*
X6747Y5436D01*
X6749Y5439D01*
X6751Y5444D01*
X6752Y5450D01*
Y5457D01*
X6752Y5468D01*
X6749D01*
X6747Y5468D01*
X6740D01*
X6735Y5469D01*
X6732D01*
X6729Y5470D01*
X6724Y5471D01*
X6715Y5471D01*
X6703Y5473D01*
X6703D01*
X6701Y5474D01*
X6698Y5475D01*
X6695Y5477D01*
X6692Y5480D01*
X6689Y5484D01*
X6688Y5489D01*
X6687Y5496D01*
Y5496D01*
X6686Y5497D01*
X6685Y5499D01*
X6683Y5500D01*
X6681Y5502D01*
X6677Y5504D01*
X6672Y5505D01*
X6665Y5507D01*
X6664D01*
X6661Y5508D01*
X6657Y5508D01*
X6651Y5509D01*
X6644Y5510D01*
X6635Y5510D01*
X6626Y5512D01*
X6615Y5513D01*
X6614D01*
X6612Y5512D01*
X6609Y5509D01*
X6609Y5507D01*
Y5504D01*
Y5502D01*
X6610Y5499D01*
X6611Y5493D01*
X6612Y5486D01*
X6614Y5477D01*
X6615Y5468D01*
X6616Y5459D01*
X6617Y5451D01*
Y5450D01*
Y5449D01*
X6618Y5445D01*
Y5439D01*
X6616Y5434D01*
X6612Y5428D01*
X6610Y5425D01*
X6607Y5424D01*
X6602Y5422D01*
X6597Y5422D01*
X6591D01*
X6584Y5423D01*
X6582D01*
X6579Y5424D01*
X6574Y5425D01*
X6567Y5426D01*
X6559Y5428D01*
X6550Y5430D01*
X6539Y5431D01*
X6528Y5434D01*
X6527D01*
X6523Y5434D01*
X6511D01*
X6504Y5434D01*
X6496Y5432D01*
X6489Y5428D01*
X6483Y5423D01*
Y5422D01*
Y5419D01*
Y5416D01*
X6484Y5411D01*
X6485Y5405D01*
X6487Y5399D01*
X6492Y5393D01*
X6497Y5386D01*
X6498Y5385D01*
X6500Y5383D01*
X6503Y5380D01*
X6507Y5377D01*
X6517Y5366D01*
X6527Y5356D01*
X6528D01*
X6530Y5357D01*
X6532Y5357D01*
X6535Y5358D01*
X6540Y5359D01*
X6544Y5360D01*
X6556Y5364D01*
X6570Y5368D01*
X6584Y5374D01*
X6600Y5379D01*
X6615Y5387D01*
X6624D01*
X6629Y5385D01*
X6635Y5384D01*
X6640Y5382D01*
X6645Y5378D01*
X6646Y5377D01*
X6647Y5376D01*
X6649Y5374D01*
X6651Y5371D01*
X6653Y5366D01*
X6655Y5362D01*
Y5356D01*
X6653Y5350D01*
Y5349D01*
X6652Y5348D01*
X6651Y5346D01*
X6649Y5343D01*
X6646Y5340D01*
X6641Y5337D01*
X6635Y5334D01*
X6628Y5331D01*
X6627D01*
X6624Y5329D01*
X6620Y5328D01*
X6614Y5325D01*
X6607Y5322D01*
X6598Y5319D01*
X6588Y5315D01*
X6577Y5311D01*
X6564Y5306D01*
X6551Y5301D01*
X6536Y5296D01*
X6521Y5291D01*
X6504Y5286D01*
X6487Y5280D01*
X6452Y5269D01*
X6451D01*
X6450Y5268D01*
X6447Y5268D01*
X6442D01*
X6438Y5269D01*
X6434Y5271D01*
X6430Y5274D01*
X6429Y5275D01*
X6428Y5277D01*
X6427Y5279D01*
X6425Y5282D01*
X6424Y5286D01*
Y5291D01*
X6424Y5295D01*
X6427Y5300D01*
X6427D01*
X6428Y5301D01*
X6430Y5303D01*
X6433Y5304D01*
X6442Y5308D01*
X6451Y5314D01*
X6463Y5321D01*
X6476Y5328D01*
X6490Y5337D01*
X6505Y5345D01*
Y5345D01*
Y5346D01*
Y5350D01*
X6504D01*
X6504Y5351D01*
X6501Y5352D01*
X6498Y5354D01*
X6491Y5358D01*
X6481Y5364D01*
X6470Y5371D01*
X6456Y5379D01*
X6441Y5387D01*
X6424Y5395D01*
X6424Y5396D01*
X6421Y5397D01*
X6417Y5399D01*
X6413Y5402D01*
X6409Y5406D01*
X6405Y5412D01*
X6402Y5419D01*
X6401Y5427D01*
Y5428D01*
Y5431D01*
X6402Y5435D01*
X6402Y5440D01*
X6405Y5447D01*
X6407Y5453D01*
X6412Y5459D01*
X6419Y5465D01*
X6420Y5465D01*
X6424Y5466D01*
X6430Y5467D01*
X6438Y5468D01*
X6447Y5469D01*
X6456Y5470D01*
X6467Y5469D01*
X6477Y5468D01*
X6478D01*
X6482Y5467D01*
X6488D01*
X6496Y5466D01*
X6505Y5467D01*
X6515Y5468D01*
X6526Y5470D01*
X6536Y5473D01*
X6538Y5474D01*
X6541Y5476D01*
X6542Y5478D01*
X6544Y5481D01*
X6545Y5484D01*
X6546Y5488D01*
Y5489D01*
Y5490D01*
Y5496D01*
X6544Y5502D01*
X6542Y5505D01*
X6539Y5507D01*
X6538Y5508D01*
X6535Y5508D01*
X6529Y5510D01*
X6521Y5510D01*
X6512Y5511D01*
X6500D01*
X6487Y5509D01*
X6472Y5505D01*
X6471D01*
X6470Y5505D01*
X6467Y5504D01*
X6464Y5503D01*
X6456Y5501D01*
X6446Y5497D01*
X6434Y5493D01*
X6421Y5489D01*
X6393Y5479D01*
X6392Y5478D01*
X6388Y5477D01*
X6383Y5476D01*
X6376Y5474D01*
X6368D01*
X6359Y5476D01*
X6351Y5480D01*
X6348Y5483D01*
X6344Y5487D01*
X6343Y5488D01*
X6341Y5491D01*
X6337Y5496D01*
X6333Y5502D01*
X6328Y5510D01*
X6323Y5519D01*
X6319Y5529D01*
X6315Y5540D01*
Y5541D01*
Y5542D01*
X6316Y5544D01*
X6318Y5545D01*
X6321Y5547D01*
X6325Y5548D01*
X6332Y5549D01*
X6350D01*
X6356Y5550D01*
X6387D01*
X6399Y5550D01*
X6427D01*
X6457Y5551D01*
X6521D01*
X6526Y5553D01*
X6528Y5554D01*
X6530Y5556D01*
X6530Y5559D01*
Y5563D01*
Y5564D01*
Y5565D01*
Y5567D01*
X6530Y5571D01*
Y5576D01*
X6529Y5582D01*
X6528Y5588D01*
X6527Y5596D01*
Y5597D01*
X6527Y5598D01*
X6525Y5600D01*
X6522Y5602D01*
X6521D01*
X6517Y5602D01*
X6510D01*
X6502Y5603D01*
X6492D01*
X6481Y5604D01*
X6468D01*
X6455Y5603D01*
X6442D01*
X6433Y5604D01*
X6423Y5605D01*
X6413Y5607D01*
X6402Y5611D01*
X6390Y5616D01*
Y5616D01*
X6389Y5617D01*
X6388Y5619D01*
X6387Y5621D01*
X6385Y5629D01*
Y5633D01*
X6385Y5638D01*
X6386Y5639D01*
X6387Y5640D01*
X6390Y5644D01*
X6517D01*
X6519Y5644D01*
X6521Y5646D01*
X6522Y5650D01*
Y5650D01*
Y5651D01*
X6521Y5656D01*
X6521Y5662D01*
X6520Y5671D01*
Y5681D01*
X6521Y5693D01*
X6522Y5706D01*
X6525Y5719D01*
Y5720D01*
X6527Y5721D01*
X6529Y5723D01*
X6531Y5725D01*
X6535Y5728D01*
X6539Y5730D01*
X6544Y5732D01*
X6550Y5735D01*
X6551D01*
X6553Y5735D01*
X6559D01*
X6564Y5735D01*
D02*
G37*
G36*
X683Y5713D02*
X687Y5711D01*
X690Y5708D01*
X691Y5707D01*
X692Y5705D01*
X693Y5701D01*
X695Y5695D01*
X697Y5690D01*
X698Y5683D01*
Y5676D01*
X698Y5667D01*
Y5667D01*
X697Y5664D01*
X696Y5660D01*
X695Y5655D01*
X694Y5649D01*
X692Y5643D01*
X690Y5630D01*
Y5628D01*
Y5625D01*
X691Y5620D01*
Y5613D01*
X692Y5606D01*
X694Y5598D01*
X695Y5590D01*
X698Y5582D01*
X699Y5582D01*
X701Y5581D01*
X704Y5579D01*
X708Y5577D01*
X712Y5576D01*
X718Y5575D01*
X722D01*
X726Y5576D01*
Y5577D01*
X727Y5578D01*
X730Y5582D01*
X734Y5590D01*
X738Y5599D01*
X743Y5611D01*
X748Y5625D01*
X752Y5641D01*
X755Y5658D01*
Y5658D01*
X755Y5661D01*
X756Y5664D01*
X758Y5669D01*
X760Y5674D01*
X763Y5680D01*
X766Y5687D01*
X770Y5694D01*
X771Y5695D01*
X772Y5697D01*
X775Y5700D01*
X778Y5704D01*
X783Y5707D01*
X788Y5708D01*
X793Y5710D01*
X799Y5708D01*
X800D01*
X800Y5707D01*
X804Y5703D01*
X806Y5700D01*
X806Y5696D01*
Y5693D01*
X805Y5689D01*
Y5688D01*
X804Y5687D01*
Y5684D01*
X803Y5679D01*
X803Y5674D01*
X802Y5667D01*
X800Y5660D01*
X800Y5651D01*
X798Y5641D01*
X798Y5631D01*
X796Y5620D01*
X795Y5607D01*
X793Y5594D01*
X791Y5580D01*
X789Y5565D01*
X788Y5549D01*
Y5548D01*
Y5547D01*
Y5544D01*
Y5539D01*
Y5534D01*
Y5529D01*
X789Y5522D01*
Y5515D01*
X791Y5499D01*
X794Y5481D01*
X798Y5462D01*
X805Y5444D01*
Y5443D01*
X806Y5442D01*
X807Y5439D01*
X809Y5436D01*
X813Y5427D01*
X820Y5416D01*
X829Y5404D01*
X839Y5391D01*
X852Y5378D01*
X866Y5367D01*
X867Y5366D01*
X870Y5365D01*
X874Y5362D01*
X880Y5359D01*
X887Y5355D01*
X894Y5351D01*
X911Y5345D01*
X911Y5344D01*
Y5343D01*
X912Y5341D01*
X911Y5339D01*
Y5337D01*
X910Y5334D01*
X909Y5329D01*
X907Y5324D01*
X905Y5317D01*
X900Y5311D01*
X896Y5305D01*
X889Y5300D01*
X889Y5299D01*
X886Y5298D01*
X881Y5297D01*
X875Y5296D01*
X868Y5295D01*
X859D01*
X849Y5297D01*
X838Y5300D01*
X837D01*
X837Y5301D01*
X835Y5302D01*
X832Y5303D01*
X824Y5307D01*
X815Y5312D01*
X805Y5320D01*
X795Y5329D01*
X786Y5341D01*
X778Y5356D01*
Y5357D01*
X777Y5358D01*
X775Y5360D01*
X774Y5363D01*
X772Y5367D01*
X770Y5371D01*
X766Y5383D01*
X761Y5397D01*
X755Y5411D01*
X749Y5428D01*
X743Y5445D01*
X743Y5446D01*
X741Y5448D01*
X736Y5451D01*
X733Y5451D01*
X729Y5452D01*
X727D01*
X723Y5453D01*
X716Y5452D01*
X709Y5451D01*
X709Y5450D01*
X707Y5448D01*
X704Y5445D01*
X701Y5441D01*
X698Y5434D01*
X695Y5424D01*
X695Y5418D01*
X694Y5411D01*
X693Y5403D01*
Y5395D01*
Y5394D01*
Y5393D01*
Y5391D01*
Y5387D01*
Y5383D01*
X694Y5378D01*
Y5367D01*
X695Y5354D01*
X697Y5341D01*
X698Y5327D01*
X701Y5314D01*
Y5313D01*
X702Y5311D01*
Y5308D01*
X703Y5306D01*
Y5297D01*
Y5286D01*
Y5286D01*
X702Y5284D01*
X701Y5279D01*
X698Y5276D01*
X695Y5273D01*
X692Y5271D01*
X687Y5269D01*
X686D01*
X684Y5268D01*
X679Y5268D01*
X674D01*
X669Y5269D01*
X663Y5271D01*
X658Y5277D01*
X655Y5283D01*
Y5284D01*
X654Y5287D01*
X652Y5292D01*
X651Y5298D01*
X649Y5306D01*
X647Y5314D01*
X645Y5323D01*
X643Y5334D01*
X641Y5333D01*
X638Y5331D01*
X632Y5328D01*
X624Y5326D01*
X615Y5325D01*
X605D01*
X600Y5325D01*
X595Y5328D01*
X590Y5330D01*
X584Y5333D01*
X583Y5334D01*
X580Y5337D01*
X575Y5341D01*
X569Y5348D01*
X561Y5356D01*
X555Y5366D01*
X548Y5378D01*
X542Y5392D01*
Y5393D01*
X541Y5394D01*
Y5396D01*
X540Y5399D01*
X539Y5407D01*
X536Y5416D01*
X533Y5428D01*
X530Y5442D01*
X527Y5456D01*
X525Y5471D01*
Y5471D01*
Y5473D01*
X524Y5476D01*
X524Y5479D01*
X522Y5488D01*
X519Y5499D01*
X514Y5510D01*
X507Y5520D01*
X504Y5524D01*
X499Y5527D01*
X494Y5530D01*
X489Y5532D01*
X487D01*
X484Y5533D01*
X477Y5534D01*
X468Y5535D01*
X458Y5536D01*
X445Y5538D01*
X431Y5539D01*
X416Y5540D01*
X416D01*
X415Y5539D01*
X410Y5539D01*
X405Y5536D01*
X396Y5532D01*
X396D01*
X395Y5531D01*
X391Y5528D01*
X386Y5524D01*
X384Y5521D01*
X382Y5518D01*
Y5517D01*
Y5516D01*
Y5513D01*
Y5510D01*
Y5506D01*
X383Y5501D01*
X385Y5490D01*
X387Y5476D01*
X391Y5462D01*
X397Y5448D01*
X405Y5434D01*
X410D01*
X411Y5435D01*
X412Y5436D01*
X416Y5439D01*
X424Y5446D01*
X433Y5455D01*
X444Y5465D01*
X456Y5478D01*
X468Y5491D01*
X481Y5507D01*
X482Y5508D01*
X487Y5509D01*
X493D01*
X497Y5508D01*
X502Y5505D01*
X502D01*
X504Y5504D01*
X508Y5501D01*
X513Y5495D01*
X516Y5491D01*
X517Y5488D01*
Y5487D01*
X516Y5484D01*
X515Y5480D01*
X513Y5476D01*
X510Y5471D01*
X507Y5466D01*
X502Y5462D01*
X495Y5459D01*
X494D01*
X493Y5459D01*
X489Y5456D01*
X482Y5451D01*
X473Y5445D01*
X464Y5436D01*
X452Y5428D01*
X440Y5417D01*
X428Y5406D01*
Y5405D01*
Y5403D01*
Y5401D01*
Y5400D01*
X428Y5399D01*
X430Y5399D01*
X432Y5397D01*
X435Y5394D01*
X443Y5388D01*
X453Y5379D01*
X466Y5371D01*
X480Y5362D01*
X495Y5354D01*
X510Y5348D01*
X511D01*
X512Y5347D01*
X514Y5346D01*
X517Y5345D01*
X525Y5343D01*
X535Y5340D01*
X547Y5337D01*
X559Y5334D01*
X573Y5330D01*
X587Y5328D01*
Y5327D01*
Y5325D01*
X586Y5323D01*
Y5320D01*
X584Y5312D01*
X579Y5304D01*
X576Y5300D01*
X572Y5296D01*
X567Y5293D01*
X561Y5290D01*
X553Y5288D01*
X545Y5287D01*
X536D01*
X525Y5288D01*
X524D01*
X522Y5289D01*
X519Y5291D01*
X513Y5292D01*
X507Y5294D01*
X500Y5297D01*
X492Y5300D01*
X483Y5304D01*
X474Y5309D01*
X464Y5314D01*
X453Y5320D01*
X443Y5328D01*
X432Y5335D01*
X421Y5344D01*
X410Y5354D01*
X399Y5364D01*
X394D01*
Y5363D01*
X393Y5362D01*
X392Y5360D01*
X390Y5357D01*
X385Y5348D01*
X379Y5338D01*
X371Y5325D01*
X362Y5312D01*
X352Y5297D01*
X341Y5282D01*
X340Y5281D01*
X339Y5280D01*
X335Y5276D01*
X328Y5271D01*
X319Y5265D01*
X308Y5260D01*
X302Y5259D01*
X295Y5258D01*
X288Y5259D01*
X280Y5260D01*
X271Y5263D01*
X262Y5266D01*
X262Y5267D01*
X259Y5269D01*
X254Y5272D01*
X250Y5277D01*
X244Y5283D01*
X238Y5290D01*
X232Y5299D01*
X226Y5308D01*
Y5309D01*
X225Y5310D01*
Y5311D01*
Y5314D01*
X226Y5316D01*
X228Y5319D01*
X232Y5322D01*
X237Y5325D01*
X238Y5325D01*
X241Y5326D01*
X245Y5328D01*
X250Y5330D01*
X257Y5333D01*
X265Y5337D01*
X273Y5341D01*
X282Y5345D01*
X302Y5356D01*
X322Y5368D01*
X342Y5381D01*
X351Y5388D01*
X360Y5395D01*
Y5396D01*
X362Y5397D01*
X364Y5401D01*
X365Y5403D01*
X365Y5405D01*
X365Y5408D01*
X363Y5409D01*
X362Y5411D01*
X361Y5414D01*
X358Y5420D01*
X354Y5428D01*
X351Y5437D01*
X346Y5449D01*
X341Y5462D01*
X336Y5475D01*
Y5476D01*
X336Y5476D01*
X335Y5479D01*
X334Y5482D01*
X332Y5489D01*
X330Y5499D01*
X327Y5510D01*
X325Y5523D01*
X322Y5537D01*
X321Y5551D01*
Y5552D01*
Y5553D01*
X322Y5556D01*
X325Y5562D01*
X328Y5568D01*
X332Y5574D01*
X339Y5579D01*
X347Y5582D01*
X352Y5582D01*
X358D01*
X361Y5581D01*
X365Y5579D01*
X371Y5578D01*
X378Y5576D01*
X386Y5574D01*
X402Y5571D01*
X519Y5571D01*
X521Y5572D01*
X522Y5573D01*
X524Y5576D01*
X527Y5579D01*
X527Y5584D01*
X528Y5590D01*
Y5591D01*
Y5594D01*
X527Y5598D01*
Y5602D01*
X524Y5613D01*
X523Y5619D01*
X520Y5624D01*
X519Y5625D01*
X517Y5627D01*
X514Y5629D01*
X509Y5632D01*
X503Y5634D01*
X495Y5636D01*
X486Y5638D01*
X475Y5638D01*
X357Y5644D01*
X351D01*
X347Y5644D01*
X342Y5645D01*
X336Y5646D01*
X324Y5650D01*
X323D01*
X322Y5650D01*
X319Y5651D01*
X317Y5653D01*
X316Y5656D01*
Y5660D01*
X317Y5664D01*
X321Y5671D01*
X322Y5672D01*
X323Y5674D01*
X326Y5678D01*
X330Y5682D01*
X339Y5693D01*
X344Y5698D01*
X349Y5702D01*
X352D01*
X355Y5703D01*
X359D01*
X369Y5701D01*
X375Y5699D01*
X380Y5697D01*
X381D01*
X382Y5695D01*
X385Y5694D01*
X388Y5693D01*
X396Y5689D01*
X402Y5686D01*
X403Y5685D01*
X406Y5684D01*
X410Y5682D01*
X416Y5680D01*
X423Y5678D01*
X432Y5675D01*
X442Y5673D01*
X452Y5670D01*
X463Y5668D01*
X476Y5667D01*
X488D01*
X502Y5668D01*
X515Y5670D01*
X529Y5674D01*
X542Y5679D01*
X556Y5686D01*
X557D01*
X560Y5687D01*
X564D01*
X570Y5686D01*
X576Y5684D01*
X581Y5682D01*
X586Y5678D01*
X590Y5672D01*
Y5670D01*
X589Y5666D01*
X588Y5660D01*
X587Y5652D01*
X585Y5643D01*
X582Y5633D01*
X579Y5623D01*
X576Y5613D01*
Y5613D01*
X575Y5609D01*
X573Y5604D01*
X573Y5597D01*
X571Y5589D01*
X570Y5579D01*
X569Y5567D01*
X568Y5555D01*
X567Y5542D01*
Y5527D01*
Y5512D01*
X569Y5496D01*
X570Y5480D01*
X573Y5464D01*
X577Y5448D01*
X581Y5431D01*
Y5431D01*
X582Y5429D01*
X583Y5427D01*
X584Y5424D01*
X588Y5416D01*
X594Y5407D01*
X603Y5397D01*
X613Y5387D01*
X627Y5377D01*
X634Y5374D01*
X643Y5370D01*
Y5371D01*
Y5372D01*
X644Y5374D01*
Y5377D01*
Y5381D01*
Y5385D01*
X644Y5397D01*
X644Y5410D01*
X643Y5424D01*
X641Y5440D01*
X637Y5456D01*
Y5458D01*
X636Y5461D01*
Y5465D01*
X635Y5471D01*
X636Y5476D01*
X637Y5482D01*
X639Y5488D01*
X643Y5493D01*
X644D01*
X646Y5493D01*
X650Y5494D01*
X655Y5495D01*
X661Y5496D01*
X667Y5495D01*
X675Y5494D01*
X682Y5493D01*
X734D01*
X736Y5494D01*
X738Y5496D01*
X739Y5498D01*
X740Y5501D01*
X741Y5505D01*
Y5506D01*
Y5508D01*
Y5510D01*
X740Y5513D01*
X739Y5521D01*
X738Y5529D01*
Y5530D01*
X737Y5531D01*
X735Y5533D01*
X732Y5535D01*
X607D01*
X603Y5536D01*
X601Y5539D01*
X598Y5541D01*
X597Y5545D01*
X595Y5549D01*
Y5550D01*
X595Y5551D01*
Y5554D01*
Y5558D01*
X595Y5567D01*
X596Y5571D01*
X598Y5576D01*
X598Y5577D01*
X600Y5578D01*
X601Y5579D01*
X604Y5581D01*
X612Y5582D01*
X615Y5583D01*
X619Y5582D01*
X620D01*
X621Y5582D01*
X625D01*
X631Y5581D01*
X637Y5582D01*
X638D01*
X640Y5583D01*
X642Y5586D01*
X643Y5587D01*
Y5590D01*
Y5686D01*
Y5687D01*
X644Y5689D01*
X645Y5692D01*
X647Y5695D01*
X650Y5699D01*
X653Y5703D01*
X658Y5707D01*
X664Y5710D01*
X665Y5711D01*
X667Y5712D01*
X670Y5713D01*
X674Y5713D01*
X678Y5714D01*
X683Y5713D01*
D02*
G37*
G36*
X1510Y5643D02*
X1522D01*
X1535Y5642D01*
X1549Y5641D01*
X1565Y5641D01*
X1597Y5638D01*
X1613Y5637D01*
X1629Y5636D01*
X1643Y5633D01*
X1657Y5631D01*
X1669Y5629D01*
X1679Y5627D01*
X1680D01*
X1681Y5626D01*
X1683Y5625D01*
X1686Y5624D01*
X1694Y5622D01*
X1703Y5619D01*
X1711Y5616D01*
X1717Y5613D01*
X1720Y5611D01*
X1722Y5610D01*
X1723Y5609D01*
X1722Y5607D01*
Y5607D01*
Y5606D01*
Y5602D01*
X1721Y5596D01*
X1720Y5589D01*
X1716Y5582D01*
X1711Y5577D01*
X1708Y5575D01*
X1704Y5574D01*
X1699Y5573D01*
X1694Y5574D01*
X1686D01*
X1681Y5575D01*
X1676D01*
X1670Y5576D01*
X1663Y5576D01*
Y5576D01*
Y5574D01*
Y5571D01*
Y5567D01*
Y5563D01*
Y5557D01*
Y5550D01*
X1663Y5544D01*
Y5527D01*
Y5509D01*
Y5488D01*
X1662Y5468D01*
Y5423D01*
Y5401D01*
Y5379D01*
Y5360D01*
X1663Y5342D01*
Y5326D01*
X1663Y5320D01*
Y5314D01*
X1664D01*
X1666Y5313D01*
X1669D01*
X1671Y5311D01*
X1680Y5309D01*
X1690Y5306D01*
X1700Y5302D01*
X1709Y5297D01*
X1713Y5295D01*
X1716Y5292D01*
X1718Y5289D01*
X1719Y5286D01*
Y5286D01*
X1720Y5283D01*
X1721Y5278D01*
X1723Y5273D01*
Y5268D01*
Y5263D01*
X1722Y5258D01*
X1720Y5255D01*
X1719D01*
X1718Y5254D01*
X1716Y5254D01*
X1714Y5253D01*
X1706Y5251D01*
X1697Y5250D01*
X1695D01*
X1693Y5251D01*
X1690D01*
X1682Y5251D01*
X1672Y5253D01*
X1660Y5254D01*
X1647Y5256D01*
X1633Y5257D01*
X1618Y5258D01*
X1607D01*
X1602Y5257D01*
X1595D01*
X1588Y5257D01*
X1584D01*
X1580Y5256D01*
X1575D01*
X1563Y5255D01*
X1535D01*
X1526Y5254D01*
X1469D01*
X1445Y5255D01*
X1434Y5256D01*
X1424Y5257D01*
X1414Y5257D01*
X1406Y5258D01*
X1404D01*
X1401Y5259D01*
X1398Y5260D01*
X1390Y5262D01*
X1380Y5265D01*
X1370Y5269D01*
X1359Y5276D01*
X1350Y5285D01*
X1342Y5295D01*
Y5296D01*
X1341Y5297D01*
X1339Y5301D01*
X1337Y5307D01*
X1333Y5316D01*
X1330Y5325D01*
X1328Y5337D01*
X1326Y5349D01*
X1325Y5362D01*
Y5362D01*
Y5363D01*
X1326Y5365D01*
X1327Y5368D01*
X1328Y5375D01*
X1331Y5385D01*
X1336Y5395D01*
X1342Y5406D01*
X1350Y5417D01*
X1360Y5428D01*
X1361Y5430D01*
X1365Y5433D01*
X1370Y5437D01*
X1377Y5443D01*
X1385Y5449D01*
X1393Y5454D01*
X1401Y5459D01*
X1409Y5462D01*
X1408D01*
X1407Y5463D01*
X1403Y5465D01*
X1397Y5468D01*
X1390Y5473D01*
X1382Y5479D01*
X1375Y5485D01*
X1369Y5494D01*
X1364Y5504D01*
X1364Y5505D01*
X1363Y5508D01*
X1361Y5514D01*
X1360Y5521D01*
X1358Y5528D01*
X1357Y5537D01*
X1355Y5545D01*
Y5554D01*
Y5555D01*
Y5556D01*
X1356Y5559D01*
Y5562D01*
X1358Y5570D01*
X1362Y5579D01*
X1367Y5590D01*
X1375Y5602D01*
X1380Y5607D01*
X1386Y5613D01*
X1392Y5617D01*
X1399Y5621D01*
X1400D01*
X1401Y5622D01*
X1403Y5624D01*
X1407Y5625D01*
X1410Y5627D01*
X1415Y5629D01*
X1425Y5633D01*
X1438Y5637D01*
X1453Y5640D01*
X1469Y5643D01*
X1487Y5644D01*
X1501D01*
X1510Y5643D01*
D02*
G37*
G36*
X2152Y5638D02*
X2164Y5637D01*
X2175Y5636D01*
X2186Y5633D01*
X2187D01*
X2188Y5632D01*
X2192Y5629D01*
X2198Y5624D01*
X2204Y5619D01*
X2209Y5610D01*
X2213Y5601D01*
X2215Y5596D01*
X2215Y5590D01*
Y5583D01*
X2214Y5576D01*
Y5575D01*
X2213Y5573D01*
X2212Y5570D01*
X2210Y5569D01*
X2209Y5568D01*
X2205D01*
X2201Y5569D01*
X2196Y5570D01*
X2195D01*
X2192Y5570D01*
X2189Y5571D01*
X2184Y5572D01*
X2178Y5573D01*
X2171Y5575D01*
X2161Y5576D01*
Y5575D01*
X2161Y5570D01*
Y5563D01*
X2160Y5553D01*
Y5542D01*
X2159Y5527D01*
X2158Y5512D01*
X2158Y5493D01*
Y5474D01*
Y5454D01*
Y5431D01*
Y5408D01*
X2158Y5384D01*
X2159Y5360D01*
X2161Y5308D01*
X2163D01*
X2167Y5307D01*
X2173Y5305D01*
X2181Y5302D01*
X2188Y5298D01*
X2195Y5293D01*
X2201Y5287D01*
X2204Y5280D01*
Y5280D01*
X2205Y5277D01*
X2206Y5274D01*
X2207Y5270D01*
X2209Y5262D01*
X2209Y5258D01*
X2209Y5255D01*
Y5254D01*
Y5253D01*
X2208Y5251D01*
X2206Y5249D01*
X2204Y5247D01*
X2201Y5246D01*
X2198Y5244D01*
X2192Y5245D01*
X2191D01*
X2189Y5246D01*
X2187Y5246D01*
X2184Y5247D01*
X2176Y5249D01*
X2166Y5251D01*
X2155Y5254D01*
X2142Y5256D01*
X2130Y5257D01*
X2119Y5258D01*
X2102D01*
X2094Y5257D01*
X2085Y5257D01*
X2066Y5255D01*
X2064D01*
X2061Y5254D01*
X2056D01*
X2050Y5254D01*
X2041Y5253D01*
X2032Y5252D01*
X2021Y5251D01*
X1986D01*
X1961Y5254D01*
X1936Y5258D01*
X1925Y5261D01*
X1915Y5265D01*
X1914D01*
X1913Y5266D01*
X1910Y5267D01*
X1906Y5269D01*
X1902Y5271D01*
X1897Y5274D01*
X1885Y5282D01*
X1873Y5291D01*
X1861Y5303D01*
X1849Y5316D01*
X1839Y5331D01*
Y5331D01*
X1839Y5333D01*
X1837Y5335D01*
X1836Y5338D01*
X1832Y5345D01*
X1828Y5356D01*
X1823Y5368D01*
X1819Y5380D01*
X1816Y5394D01*
X1814Y5406D01*
Y5407D01*
Y5408D01*
X1813Y5411D01*
X1812Y5417D01*
X1811Y5424D01*
X1811Y5431D01*
X1810Y5436D01*
X1809Y5442D01*
Y5445D01*
Y5447D01*
X1810Y5450D01*
X1811Y5456D01*
X1811Y5463D01*
X1813Y5472D01*
X1815Y5482D01*
X1818Y5493D01*
X1821Y5505D01*
X1825Y5517D01*
X1830Y5530D01*
X1836Y5542D01*
X1842Y5555D01*
X1851Y5567D01*
X1859Y5578D01*
X1869Y5587D01*
X1880Y5596D01*
X1881Y5597D01*
X1883Y5598D01*
X1886Y5600D01*
X1891Y5603D01*
X1896Y5606D01*
X1902Y5610D01*
X1916Y5618D01*
X1932Y5625D01*
X1948Y5632D01*
X1956Y5635D01*
X1964Y5637D01*
X1972Y5638D01*
X1979Y5638D01*
X2143D01*
X2152Y5638D01*
D02*
G37*
G36*
X5152Y5566D02*
X5158Y5565D01*
X5164Y5562D01*
X5171Y5559D01*
X5172Y5558D01*
X5174Y5556D01*
X5177Y5553D01*
X5180Y5550D01*
X5184Y5545D01*
X5187Y5539D01*
X5190Y5533D01*
X5192Y5526D01*
Y5525D01*
X5192Y5524D01*
Y5522D01*
Y5519D01*
X5191Y5517D01*
X5189Y5516D01*
X5186Y5515D01*
X5181D01*
Y5514D01*
X5181Y5513D01*
X5183Y5509D01*
X5185Y5505D01*
X5186Y5502D01*
Y5501D01*
Y5500D01*
Y5498D01*
X5185Y5495D01*
X5184Y5491D01*
X5182Y5487D01*
X5180Y5482D01*
X5176Y5477D01*
X5171Y5472D01*
X5170Y5471D01*
X5168Y5470D01*
X5164Y5466D01*
X5158Y5462D01*
X5150Y5455D01*
X5140Y5447D01*
X5128Y5437D01*
X5113Y5425D01*
X5112Y5425D01*
X5112Y5421D01*
Y5419D01*
X5112Y5415D01*
X5114Y5411D01*
X5116Y5406D01*
X5118Y5405D01*
X5121Y5402D01*
X5127Y5397D01*
X5134Y5390D01*
X5143Y5383D01*
X5154Y5376D01*
X5166Y5369D01*
X5181Y5362D01*
X5181D01*
X5182Y5362D01*
X5184Y5361D01*
X5187Y5360D01*
X5195Y5357D01*
X5205Y5355D01*
X5217Y5351D01*
X5230Y5348D01*
X5244Y5346D01*
X5259Y5345D01*
X5260Y5344D01*
X5262Y5343D01*
X5263Y5342D01*
Y5340D01*
X5263Y5339D01*
X5261Y5337D01*
Y5336D01*
X5260Y5334D01*
X5259Y5333D01*
X5257Y5330D01*
X5253Y5323D01*
X5246Y5316D01*
X5240Y5312D01*
X5235Y5309D01*
X5229Y5306D01*
X5221Y5305D01*
X5213Y5303D01*
X5204Y5303D01*
X5195Y5303D01*
X5184Y5306D01*
X5183D01*
X5181Y5306D01*
X5177Y5308D01*
X5172Y5309D01*
X5166Y5312D01*
X5161Y5314D01*
X5146Y5323D01*
X5138Y5328D01*
X5129Y5333D01*
X5121Y5340D01*
X5112Y5347D01*
X5104Y5355D01*
X5097Y5364D01*
X5090Y5374D01*
X5083Y5384D01*
X5082Y5385D01*
X5079Y5385D01*
X5075D01*
X5071Y5384D01*
X5070Y5383D01*
X5070Y5382D01*
X5067Y5380D01*
X5064Y5377D01*
X5057Y5369D01*
X5047Y5359D01*
X5035Y5345D01*
X5022Y5331D01*
X5008Y5314D01*
X4993Y5297D01*
X4993Y5296D01*
X4989Y5293D01*
X4984Y5288D01*
X4978Y5284D01*
X4970Y5280D01*
X4961Y5276D01*
X4950Y5274D01*
X4944D01*
X4939Y5274D01*
X4938D01*
X4937Y5275D01*
X4933Y5276D01*
X4927Y5279D01*
X4920Y5284D01*
X4916Y5288D01*
X4911Y5291D01*
X4907Y5297D01*
X4902Y5302D01*
X4897Y5308D01*
X4893Y5316D01*
X4888Y5324D01*
X4884Y5334D01*
Y5334D01*
Y5335D01*
Y5338D01*
X4885Y5342D01*
X4887Y5345D01*
X4888D01*
X4891Y5346D01*
X4896Y5348D01*
X4902Y5349D01*
X4910Y5352D01*
X4920Y5356D01*
X4930Y5360D01*
X4942Y5364D01*
X4967Y5375D01*
X4993Y5388D01*
X5019Y5405D01*
X5032Y5414D01*
X5044Y5423D01*
X5044D01*
X5046Y5424D01*
Y5427D01*
X5045Y5428D01*
X5044Y5431D01*
Y5432D01*
X5043Y5433D01*
X5042Y5435D01*
X5041Y5438D01*
X5037Y5446D01*
X5033Y5457D01*
X5028Y5470D01*
X5022Y5485D01*
X5016Y5501D01*
X5010Y5518D01*
X5009Y5519D01*
X5008Y5522D01*
X5007Y5527D01*
Y5534D01*
X5009Y5542D01*
X5012Y5550D01*
X5015Y5553D01*
X5018Y5558D01*
X5021Y5562D01*
X5027Y5565D01*
X5027D01*
X5030Y5566D01*
X5046D01*
X5053Y5565D01*
X5059Y5565D01*
X5066Y5563D01*
X5067Y5562D01*
X5071Y5560D01*
X5078Y5558D01*
X5087Y5556D01*
X5097Y5555D01*
X5110Y5556D01*
X5116Y5557D01*
X5123Y5559D01*
X5130Y5562D01*
X5138Y5565D01*
X5139D01*
X5141Y5566D01*
X5144Y5567D01*
X5148D01*
X5152Y5566D01*
D02*
G37*
G36*
X7575Y5635D02*
X7582Y5634D01*
X7589Y5633D01*
X7597Y5633D01*
X7616Y5630D01*
X7635Y5625D01*
X7654Y5619D01*
X7673Y5610D01*
X7674D01*
X7675Y5610D01*
X7678Y5609D01*
X7681Y5608D01*
X7688Y5607D01*
X7692D01*
X7695Y5607D01*
X7696Y5607D01*
X7698Y5606D01*
X7700Y5604D01*
X7704Y5600D01*
X7707Y5596D01*
X7710Y5590D01*
X7712Y5583D01*
X7714Y5574D01*
Y5573D01*
Y5570D01*
Y5565D01*
Y5560D01*
Y5548D01*
X7713Y5542D01*
X7712Y5538D01*
Y5536D01*
Y5533D01*
X7711Y5529D01*
X7711Y5525D01*
X7708Y5522D01*
X7706Y5522D01*
X7704Y5521D01*
X7701Y5522D01*
X7698Y5523D01*
X7694Y5525D01*
X7690Y5529D01*
X7689Y5530D01*
X7687Y5532D01*
X7682Y5535D01*
X7678Y5539D01*
X7671Y5543D01*
X7665Y5549D01*
X7657Y5554D01*
X7648Y5560D01*
X7628Y5572D01*
X7608Y5582D01*
X7598Y5587D01*
X7588Y5590D01*
X7579Y5592D01*
X7569Y5593D01*
X7569D01*
X7566Y5593D01*
X7562D01*
X7557Y5591D01*
X7551Y5590D01*
X7544Y5588D01*
X7529Y5584D01*
X7515Y5576D01*
X7509Y5572D01*
X7503Y5567D01*
X7497Y5561D01*
X7494Y5554D01*
X7492Y5546D01*
Y5538D01*
Y5536D01*
X7493Y5533D01*
X7495Y5527D01*
X7497Y5521D01*
X7503Y5513D01*
X7509Y5506D01*
X7516Y5499D01*
X7526Y5493D01*
X7528Y5492D01*
X7531Y5490D01*
X7536Y5488D01*
X7543Y5486D01*
X7556Y5481D01*
X7562Y5479D01*
X7567Y5479D01*
X7568D01*
X7570Y5479D01*
X7574Y5480D01*
X7579Y5481D01*
X7585Y5482D01*
X7591Y5482D01*
X7606Y5485D01*
X7607D01*
X7608Y5484D01*
X7612Y5482D01*
X7617Y5479D01*
X7624Y5474D01*
X7630Y5470D01*
X7636Y5465D01*
X7639Y5459D01*
X7640Y5456D01*
Y5454D01*
Y5452D01*
Y5449D01*
X7639Y5445D01*
Y5439D01*
X7637Y5434D01*
X7636Y5430D01*
X7634Y5427D01*
X7631Y5425D01*
X7630D01*
X7626Y5426D01*
X7620Y5428D01*
X7611Y5429D01*
X7601Y5430D01*
X7590Y5431D01*
X7577Y5433D01*
X7564Y5434D01*
X7563D01*
X7562Y5434D01*
X7559Y5433D01*
X7555Y5432D01*
X7546Y5429D01*
X7535Y5425D01*
X7523Y5420D01*
X7512Y5414D01*
X7502Y5407D01*
X7498Y5402D01*
X7495Y5398D01*
X7494Y5397D01*
X7492Y5394D01*
X7489Y5389D01*
X7486Y5382D01*
X7483Y5375D01*
X7480Y5367D01*
X7478Y5359D01*
X7477Y5350D01*
Y5348D01*
X7478Y5345D01*
X7480Y5340D01*
X7483Y5334D01*
X7488Y5328D01*
X7494Y5321D01*
X7503Y5314D01*
X7514Y5308D01*
X7515Y5308D01*
X7520Y5306D01*
X7526Y5304D01*
X7535Y5302D01*
X7546Y5299D01*
X7557Y5297D01*
X7570Y5295D01*
X7583Y5294D01*
X7586D01*
X7589Y5295D01*
X7593Y5296D01*
X7598Y5297D01*
X7603Y5297D01*
X7616Y5300D01*
X7629Y5305D01*
X7643Y5310D01*
X7654Y5317D01*
X7658Y5320D01*
X7662Y5325D01*
X7663Y5325D01*
X7665Y5328D01*
X7668Y5331D01*
X7672Y5335D01*
X7676Y5340D01*
X7680Y5347D01*
X7682Y5355D01*
X7684Y5364D01*
Y5365D01*
X7685Y5366D01*
X7685Y5368D01*
X7688Y5370D01*
X7690Y5372D01*
X7694Y5373D01*
X7698D01*
X7704Y5371D01*
X7705D01*
X7707Y5369D01*
X7709Y5368D01*
X7713Y5365D01*
X7717Y5361D01*
X7720Y5356D01*
X7723Y5349D01*
X7726Y5342D01*
Y5341D01*
Y5340D01*
Y5338D01*
Y5335D01*
X7725Y5328D01*
X7724Y5320D01*
X7722Y5311D01*
X7719Y5303D01*
X7715Y5296D01*
X7712Y5294D01*
X7709Y5291D01*
X7708D01*
X7708Y5290D01*
X7703Y5286D01*
X7697Y5280D01*
X7687Y5274D01*
X7676Y5268D01*
X7663Y5261D01*
X7648Y5256D01*
X7633Y5253D01*
X7631D01*
X7628Y5252D01*
X7625D01*
X7618Y5251D01*
X7608Y5251D01*
X7598Y5249D01*
X7588Y5249D01*
X7577Y5248D01*
X7566D01*
X7561Y5249D01*
X7556D01*
X7549Y5249D01*
X7541Y5251D01*
X7524Y5254D01*
X7506Y5258D01*
X7487Y5266D01*
X7479Y5270D01*
X7471Y5274D01*
X7464Y5280D01*
X7458Y5287D01*
Y5288D01*
X7457Y5288D01*
X7455Y5291D01*
X7454Y5294D01*
X7449Y5301D01*
X7444Y5310D01*
X7439Y5321D01*
X7435Y5333D01*
X7432Y5346D01*
X7430Y5359D01*
Y5360D01*
Y5361D01*
Y5363D01*
X7431Y5366D01*
X7432Y5375D01*
X7435Y5385D01*
X7438Y5397D01*
X7443Y5408D01*
X7449Y5418D01*
X7458Y5427D01*
X7458Y5428D01*
X7462Y5431D01*
X7466Y5434D01*
X7473Y5438D01*
X7480Y5443D01*
X7489Y5447D01*
X7497Y5451D01*
X7506Y5454D01*
X7505D01*
X7503Y5454D01*
X7502Y5456D01*
X7499Y5457D01*
X7492Y5461D01*
X7483Y5467D01*
X7475Y5473D01*
X7466Y5481D01*
X7459Y5490D01*
X7456Y5494D01*
X7454Y5499D01*
X7453Y5500D01*
X7452Y5503D01*
X7451Y5508D01*
X7449Y5514D01*
X7446Y5522D01*
X7445Y5529D01*
X7444Y5538D01*
X7443Y5546D01*
Y5547D01*
Y5548D01*
X7444Y5550D01*
X7445Y5553D01*
X7447Y5562D01*
X7451Y5573D01*
X7456Y5584D01*
X7463Y5595D01*
X7473Y5605D01*
X7486Y5614D01*
X7486D01*
X7487Y5615D01*
X7489Y5616D01*
X7492Y5618D01*
X7499Y5621D01*
X7509Y5625D01*
X7519Y5629D01*
X7532Y5633D01*
X7545Y5635D01*
X7558Y5636D01*
X7569D01*
X7575Y5635D01*
D02*
G37*
G36*
X3967Y5579D02*
X3970Y5577D01*
X3974Y5576D01*
X3982Y5571D01*
X3985Y5568D01*
X3986Y5565D01*
X3987Y5564D01*
Y5561D01*
X3988Y5556D01*
X3986Y5551D01*
Y5549D01*
Y5548D01*
Y5545D01*
Y5541D01*
Y5535D01*
Y5527D01*
Y5519D01*
Y5508D01*
Y5497D01*
Y5485D01*
Y5472D01*
Y5458D01*
Y5444D01*
Y5413D01*
Y5381D01*
Y5348D01*
Y5317D01*
Y5286D01*
Y5271D01*
Y5257D01*
Y5244D01*
Y5232D01*
Y5220D01*
Y5210D01*
Y5201D01*
Y5194D01*
Y5188D01*
Y5183D01*
Y5183D01*
X3985Y5180D01*
X3983Y5176D01*
X3980Y5172D01*
X3975Y5167D01*
X3968Y5164D01*
X3959Y5163D01*
X3954D01*
X3947Y5163D01*
X3945Y5164D01*
X3943Y5167D01*
X3939Y5172D01*
X3934Y5177D01*
X3929Y5183D01*
X3926Y5189D01*
X3924Y5195D01*
Y5197D01*
X3925Y5200D01*
Y5200D01*
Y5201D01*
X3925Y5203D01*
Y5207D01*
X3926Y5211D01*
X3927Y5215D01*
X3928Y5220D01*
Y5226D01*
X3929Y5241D01*
X3931Y5257D01*
X3932Y5277D01*
X3934Y5297D01*
X3933Y5297D01*
X3931Y5295D01*
X3928Y5293D01*
X3925Y5290D01*
X3920Y5286D01*
X3914Y5283D01*
X3908Y5278D01*
X3900Y5274D01*
X3891Y5270D01*
X3883Y5266D01*
X3863Y5258D01*
X3851Y5256D01*
X3840Y5254D01*
X3829Y5252D01*
X3809D01*
X3805Y5253D01*
X3799Y5254D01*
X3792Y5254D01*
X3785Y5256D01*
X3778Y5258D01*
X3760Y5263D01*
X3752Y5267D01*
X3742Y5271D01*
X3733Y5277D01*
X3725Y5283D01*
X3716Y5290D01*
X3709Y5298D01*
X3708Y5299D01*
X3707Y5300D01*
X3705Y5303D01*
X3702Y5306D01*
X3699Y5311D01*
X3695Y5317D01*
X3692Y5323D01*
X3688Y5330D01*
X3684Y5338D01*
X3680Y5347D01*
X3676Y5357D01*
X3673Y5367D01*
X3668Y5389D01*
X3666Y5402D01*
X3665Y5414D01*
Y5415D01*
Y5418D01*
X3666Y5422D01*
X3666Y5428D01*
X3668Y5435D01*
X3669Y5442D01*
X3672Y5451D01*
X3675Y5460D01*
X3678Y5470D01*
X3682Y5479D01*
X3687Y5490D01*
X3693Y5499D01*
X3700Y5508D01*
X3708Y5516D01*
X3717Y5524D01*
X3726Y5530D01*
X3727Y5531D01*
X3729Y5532D01*
X3732Y5533D01*
X3736Y5536D01*
X3740Y5538D01*
X3746Y5541D01*
X3760Y5547D01*
X3775Y5553D01*
X3792Y5558D01*
X3808Y5562D01*
X3816Y5563D01*
X3826D01*
X3829Y5562D01*
X3835Y5562D01*
X3843Y5560D01*
X3852Y5558D01*
X3863Y5555D01*
X3874Y5550D01*
X3885Y5546D01*
X3886Y5545D01*
X3889Y5544D01*
X3895Y5541D01*
X3901Y5537D01*
X3908Y5532D01*
X3917Y5527D01*
X3924Y5521D01*
X3931Y5515D01*
Y5516D01*
X3930Y5518D01*
X3929Y5521D01*
X3928Y5525D01*
X3927Y5533D01*
X3925Y5536D01*
X3925Y5540D01*
Y5541D01*
X3925Y5544D01*
X3926Y5547D01*
X3928Y5553D01*
X3931Y5558D01*
X3934Y5563D01*
X3938Y5567D01*
X3943Y5571D01*
X3944Y5572D01*
X3945Y5573D01*
X3948Y5574D01*
X3951Y5576D01*
X3959Y5578D01*
X3962Y5579D01*
X3965D01*
X3967Y5579D01*
D02*
G37*
G36*
X4594Y5629D02*
X4598Y5628D01*
X4603Y5627D01*
X4611Y5623D01*
X4615Y5620D01*
X4617Y5617D01*
Y5616D01*
X4618Y5616D01*
X4619Y5612D01*
X4618Y5607D01*
X4617Y5606D01*
X4616Y5604D01*
Y5604D01*
X4615Y5602D01*
X4614Y5600D01*
X4613Y5597D01*
X4612Y5593D01*
X4611Y5588D01*
X4607Y5576D01*
X4604Y5563D01*
X4602Y5548D01*
X4600Y5532D01*
X4599Y5515D01*
X4600D01*
X4604Y5516D01*
X4610D01*
X4617Y5516D01*
X4626Y5517D01*
X4634D01*
X4652Y5518D01*
X4653D01*
X4655Y5517D01*
X4659Y5516D01*
X4663Y5513D01*
X4667Y5510D01*
X4671Y5506D01*
X4674Y5502D01*
X4677Y5496D01*
Y5495D01*
X4678Y5493D01*
X4679Y5490D01*
X4680Y5488D01*
X4680Y5484D01*
Y5482D01*
Y5479D01*
X4680Y5479D01*
Y5478D01*
Y5475D01*
X4679Y5471D01*
X4677Y5467D01*
X4675Y5463D01*
X4671Y5460D01*
X4667Y5459D01*
X4660Y5459D01*
X4660Y5460D01*
X4656Y5461D01*
X4651Y5462D01*
X4644Y5465D01*
X4636Y5467D01*
X4625Y5469D01*
X4613Y5471D01*
X4599Y5473D01*
Y5473D01*
Y5471D01*
X4600Y5467D01*
Y5462D01*
X4600Y5456D01*
Y5450D01*
X4601Y5442D01*
X4602Y5434D01*
X4603Y5424D01*
X4603Y5414D01*
X4605Y5392D01*
X4606Y5368D01*
X4607Y5345D01*
Y5344D01*
Y5343D01*
Y5340D01*
Y5335D01*
X4606Y5331D01*
Y5325D01*
X4604Y5313D01*
X4600Y5300D01*
X4595Y5288D01*
X4591Y5282D01*
X4586Y5277D01*
X4581Y5271D01*
X4575Y5268D01*
X4574D01*
X4574Y5267D01*
X4569Y5265D01*
X4563Y5263D01*
X4554Y5259D01*
X4546Y5256D01*
X4535Y5254D01*
X4525Y5252D01*
X4509D01*
X4504Y5253D01*
X4499D01*
X4493Y5254D01*
X4479Y5257D01*
X4463Y5260D01*
X4449Y5266D01*
X4436Y5274D01*
X4430Y5280D01*
X4426Y5286D01*
Y5286D01*
X4425Y5287D01*
X4422Y5291D01*
X4418Y5297D01*
X4414Y5305D01*
X4410Y5314D01*
X4406Y5323D01*
X4404Y5331D01*
X4403Y5339D01*
Y5340D01*
X4404Y5342D01*
X4407Y5347D01*
X4410Y5349D01*
X4414Y5350D01*
X4418Y5348D01*
X4421Y5347D01*
X4423Y5345D01*
X4424Y5343D01*
X4428Y5340D01*
X4434Y5334D01*
X4441Y5327D01*
X4449Y5320D01*
X4459Y5314D01*
X4469Y5308D01*
X4478Y5304D01*
X4479D01*
X4483Y5303D01*
X4487Y5302D01*
X4492Y5301D01*
X4504Y5300D01*
X4510D01*
X4515Y5300D01*
X4518D01*
X4520Y5301D01*
X4523D01*
X4530Y5303D01*
X4538Y5307D01*
X4546Y5312D01*
X4553Y5320D01*
X4555Y5325D01*
X4557Y5331D01*
X4557Y5337D01*
X4557Y5345D01*
Y5345D01*
X4557Y5348D01*
Y5352D01*
X4558Y5359D01*
X4559Y5367D01*
X4560Y5378D01*
X4560Y5391D01*
X4561Y5406D01*
Y5407D01*
Y5408D01*
Y5411D01*
Y5414D01*
Y5422D01*
Y5431D01*
Y5442D01*
Y5454D01*
X4560Y5465D01*
X4560Y5476D01*
X4557D01*
X4555Y5475D01*
X4552D01*
X4547Y5474D01*
X4542Y5473D01*
X4530Y5473D01*
X4516Y5471D01*
X4500Y5469D01*
X4483Y5467D01*
X4465Y5465D01*
X4456D01*
X4450Y5466D01*
X4444Y5468D01*
X4437Y5471D01*
X4430Y5476D01*
X4424Y5482D01*
X4424Y5482D01*
X4422Y5485D01*
X4419Y5488D01*
X4416Y5493D01*
X4413Y5499D01*
X4410Y5505D01*
X4407Y5511D01*
X4406Y5518D01*
Y5519D01*
X4406Y5520D01*
X4409Y5525D01*
X4410Y5527D01*
X4413Y5528D01*
X4416Y5530D01*
X4420Y5529D01*
X4421D01*
X4423Y5528D01*
X4427Y5527D01*
X4432Y5526D01*
X4438Y5525D01*
X4446Y5523D01*
X4455Y5522D01*
X4464Y5520D01*
X4475Y5519D01*
X4485Y5517D01*
X4508Y5515D01*
X4532Y5514D01*
X4557Y5515D01*
Y5516D01*
Y5516D01*
Y5519D01*
X4556Y5522D01*
X4555Y5528D01*
X4554Y5537D01*
X4553Y5547D01*
X4551Y5556D01*
X4549Y5566D01*
X4546Y5574D01*
Y5575D01*
X4545Y5577D01*
Y5581D01*
Y5586D01*
X4546Y5591D01*
X4547Y5597D01*
X4550Y5604D01*
X4554Y5610D01*
X4555Y5610D01*
X4557Y5613D01*
X4560Y5616D01*
X4564Y5619D01*
X4569Y5622D01*
X4575Y5625D01*
X4583Y5628D01*
X4591Y5630D01*
X4591D01*
X4594Y5629D01*
D02*
G37*
G36*
X8513Y5647D02*
X8514D01*
X8515Y5647D01*
X8518Y5645D01*
X8521Y5644D01*
X8525Y5641D01*
X8528Y5637D01*
X8531Y5633D01*
X8533Y5627D01*
X8534Y5625D01*
X8535Y5621D01*
X8536Y5616D01*
X8538Y5610D01*
Y5602D01*
X8537Y5594D01*
X8536Y5586D01*
X8531Y5579D01*
Y5579D01*
X8531Y5577D01*
Y5574D01*
X8530Y5570D01*
X8529Y5566D01*
X8528Y5561D01*
X8527Y5548D01*
X8525Y5533D01*
X8524Y5517D01*
X8522Y5499D01*
Y5482D01*
X8524D01*
X8528Y5480D01*
X8533Y5479D01*
X8540Y5476D01*
X8547Y5473D01*
X8553Y5468D01*
X8559Y5462D01*
X8562Y5455D01*
Y5454D01*
X8563Y5451D01*
X8564Y5448D01*
X8565Y5444D01*
X8565Y5434D01*
Y5429D01*
X8565Y5425D01*
Y5425D01*
Y5422D01*
X8564Y5419D01*
Y5416D01*
X8562Y5414D01*
X8561Y5411D01*
X8559D01*
X8556Y5412D01*
X8555D01*
X8553Y5413D01*
X8549D01*
X8545Y5414D01*
X8539Y5416D01*
X8533Y5417D01*
X8525Y5420D01*
Y5419D01*
X8526Y5417D01*
X8528Y5414D01*
X8529Y5409D01*
X8531Y5404D01*
X8533Y5397D01*
X8536Y5389D01*
X8539Y5381D01*
X8545Y5362D01*
X8553Y5343D01*
X8563Y5322D01*
X8573Y5300D01*
X8573Y5300D01*
X8574Y5297D01*
X8576Y5292D01*
X8577Y5287D01*
X8579Y5282D01*
X8579Y5276D01*
X8579Y5270D01*
X8577Y5265D01*
Y5264D01*
X8576Y5263D01*
X8573Y5259D01*
X8568Y5254D01*
X8565Y5253D01*
X8562Y5252D01*
X8561D01*
X8560Y5251D01*
X8556Y5251D01*
X8550Y5250D01*
X8542Y5249D01*
X8534D01*
X8526Y5251D01*
X8519Y5253D01*
X8514Y5258D01*
Y5259D01*
X8513Y5260D01*
X8511Y5263D01*
X8510Y5267D01*
X8508Y5271D01*
X8505Y5277D01*
X8502Y5283D01*
X8499Y5290D01*
X8493Y5306D01*
X8487Y5324D01*
X8482Y5343D01*
X8478Y5364D01*
Y5365D01*
X8477Y5366D01*
Y5369D01*
X8476Y5373D01*
X8475Y5382D01*
X8474Y5393D01*
X8472Y5404D01*
X8471Y5414D01*
X8471Y5418D01*
X8470Y5421D01*
Y5424D01*
Y5425D01*
X8468D01*
X8465Y5426D01*
X8459Y5427D01*
X8452Y5428D01*
X8443Y5428D01*
X8433Y5430D01*
X8422Y5431D01*
X8410Y5432D01*
X8385Y5434D01*
X8360Y5436D01*
X8348Y5437D01*
X8317D01*
X8312Y5436D01*
X8306Y5436D01*
X8297Y5434D01*
X8289Y5434D01*
X8280Y5432D01*
X8272Y5431D01*
X8266D01*
Y5431D01*
Y5428D01*
X8266Y5424D01*
Y5419D01*
X8267Y5413D01*
Y5405D01*
X8268Y5397D01*
X8269Y5387D01*
X8269Y5377D01*
X8270Y5365D01*
X8272Y5342D01*
X8272Y5317D01*
X8274Y5291D01*
Y5291D01*
Y5288D01*
X8274Y5283D01*
X8274Y5278D01*
Y5272D01*
X8272Y5267D01*
X8270Y5262D01*
X8267Y5258D01*
X8266D01*
X8266Y5257D01*
X8261Y5254D01*
X8256Y5252D01*
X8250D01*
X8248Y5253D01*
X8245Y5254D01*
X8238Y5255D01*
X8230Y5258D01*
X8223Y5262D01*
X8216Y5266D01*
X8213Y5269D01*
X8211Y5273D01*
X8210Y5277D01*
X8209Y5280D01*
Y5281D01*
Y5283D01*
Y5287D01*
X8210Y5292D01*
Y5299D01*
X8211Y5306D01*
X8212Y5315D01*
X8212Y5325D01*
X8213Y5335D01*
X8214Y5346D01*
X8217Y5371D01*
X8220Y5397D01*
X8223Y5425D01*
X8222D01*
X8218Y5426D01*
X8213Y5427D01*
X8206Y5428D01*
X8199Y5431D01*
X8192Y5435D01*
X8185Y5440D01*
X8179Y5448D01*
X8178Y5448D01*
X8177Y5451D01*
X8175Y5456D01*
X8172Y5460D01*
X8167Y5472D01*
X8166Y5477D01*
X8165Y5482D01*
Y5482D01*
X8166Y5484D01*
X8168Y5488D01*
X8170Y5490D01*
X8173Y5491D01*
X8177D01*
X8181Y5490D01*
X8182D01*
X8185Y5488D01*
X8189Y5488D01*
X8195Y5486D01*
X8202Y5485D01*
X8210Y5484D01*
X8218D01*
X8226Y5485D01*
Y5485D01*
Y5487D01*
Y5489D01*
Y5492D01*
Y5496D01*
X8226Y5501D01*
Y5511D01*
X8224Y5524D01*
X8223Y5538D01*
X8221Y5553D01*
X8218Y5567D01*
Y5567D01*
X8217Y5568D01*
X8217Y5573D01*
X8215Y5579D01*
X8213Y5587D01*
X8211Y5596D01*
X8209Y5604D01*
X8206Y5613D01*
X8204Y5619D01*
Y5619D01*
Y5620D01*
X8206Y5623D01*
X8208Y5625D01*
X8210Y5627D01*
X8214Y5628D01*
X8218Y5630D01*
X8223D01*
X8227Y5629D01*
X8237Y5628D01*
X8247Y5627D01*
X8257Y5625D01*
X8266Y5622D01*
X8270Y5621D01*
X8272Y5619D01*
X8274Y5618D01*
Y5616D01*
Y5615D01*
Y5613D01*
Y5611D01*
Y5607D01*
Y5602D01*
Y5596D01*
X8273Y5590D01*
Y5582D01*
Y5573D01*
X8272Y5562D01*
Y5551D01*
X8272Y5539D01*
X8271Y5526D01*
X8270Y5511D01*
X8269Y5496D01*
X8269Y5479D01*
X8274D01*
X8278Y5478D01*
X8289D01*
X8296Y5477D01*
X8303D01*
X8320Y5476D01*
X8338D01*
X8357Y5476D01*
X8397D01*
X8409Y5476D01*
X8423Y5477D01*
X8439Y5478D01*
X8454Y5479D01*
X8470Y5482D01*
Y5482D01*
Y5483D01*
Y5485D01*
Y5488D01*
X8471Y5495D01*
Y5505D01*
X8471Y5516D01*
X8472Y5528D01*
X8473Y5542D01*
X8474Y5556D01*
X8476Y5585D01*
X8479Y5599D01*
X8480Y5611D01*
X8482Y5622D01*
X8484Y5632D01*
X8487Y5639D01*
X8488Y5641D01*
X8489Y5644D01*
X8491Y5645D01*
X8493Y5646D01*
X8495Y5647D01*
X8502Y5649D01*
X8508D01*
X8513Y5647D01*
D02*
G37*
G36*
X3210Y5473D02*
X3213Y5471D01*
X3217Y5470D01*
X3220Y5467D01*
X3222Y5462D01*
X3223Y5457D01*
X3222Y5451D01*
Y5450D01*
X3220Y5448D01*
X3219Y5445D01*
X3217Y5441D01*
X3212Y5433D01*
X3209Y5430D01*
X3206Y5428D01*
X2845D01*
X2843Y5429D01*
X2841Y5431D01*
X2838Y5432D01*
X2835Y5435D01*
X2834Y5439D01*
X2833Y5444D01*
X2835Y5451D01*
Y5451D01*
X2835Y5454D01*
X2837Y5457D01*
X2838Y5461D01*
X2841Y5469D01*
X2844Y5472D01*
X2846Y5473D01*
X3207D01*
X3210Y5473D01*
D02*
G37*
G36*
X1122Y5640D02*
X1126D01*
X1131Y5639D01*
X1138Y5638D01*
X1153Y5635D01*
X1169Y5630D01*
X1186Y5622D01*
X1194Y5618D01*
X1202Y5613D01*
X1210Y5606D01*
X1216Y5599D01*
Y5599D01*
X1218Y5598D01*
X1219Y5596D01*
X1222Y5593D01*
X1227Y5584D01*
X1233Y5574D01*
X1239Y5561D01*
X1244Y5546D01*
X1248Y5530D01*
X1249Y5522D01*
X1250Y5513D01*
Y5512D01*
Y5510D01*
X1249Y5508D01*
X1248Y5504D01*
X1247Y5499D01*
X1247Y5493D01*
X1243Y5481D01*
X1238Y5467D01*
X1230Y5452D01*
X1225Y5445D01*
X1219Y5438D01*
X1213Y5431D01*
X1206Y5425D01*
X1205D01*
X1204Y5424D01*
X1202Y5422D01*
X1199Y5421D01*
X1190Y5416D01*
X1180Y5411D01*
X1168Y5405D01*
X1153Y5399D01*
X1137Y5397D01*
X1121Y5395D01*
X1117D01*
X1113Y5396D01*
X1108Y5397D01*
X1102Y5397D01*
X1094Y5398D01*
X1086Y5399D01*
X1077Y5400D01*
X1059Y5404D01*
X1040Y5409D01*
X1022Y5415D01*
X1014Y5419D01*
X1006Y5423D01*
Y5422D01*
X1007Y5419D01*
Y5416D01*
X1008Y5411D01*
X1009Y5404D01*
X1011Y5397D01*
X1016Y5380D01*
X1022Y5362D01*
X1031Y5345D01*
X1037Y5336D01*
X1042Y5328D01*
X1049Y5321D01*
X1057Y5315D01*
X1057D01*
X1059Y5314D01*
X1061Y5312D01*
X1064Y5311D01*
X1071Y5306D01*
X1082Y5301D01*
X1094Y5296D01*
X1106Y5291D01*
X1119Y5289D01*
X1132Y5288D01*
X1136D01*
X1142Y5289D01*
X1148Y5291D01*
X1156Y5293D01*
X1164Y5296D01*
X1171Y5300D01*
X1179Y5306D01*
X1179Y5306D01*
X1182Y5308D01*
X1185Y5311D01*
X1187Y5315D01*
X1195Y5325D01*
X1198Y5329D01*
X1199Y5334D01*
X1200Y5334D01*
X1202Y5336D01*
X1204Y5339D01*
X1206Y5343D01*
X1209Y5347D01*
X1211Y5352D01*
X1213Y5358D01*
X1213Y5364D01*
X1214Y5365D01*
X1216Y5367D01*
X1219Y5368D01*
X1225D01*
X1230Y5367D01*
X1230D01*
X1231Y5366D01*
X1236Y5363D01*
X1243Y5357D01*
X1250Y5350D01*
X1250Y5349D01*
X1252Y5347D01*
X1253Y5343D01*
X1256Y5339D01*
X1258Y5334D01*
X1259Y5328D01*
X1260Y5322D01*
X1259Y5317D01*
Y5316D01*
X1259Y5314D01*
X1257Y5312D01*
X1256Y5309D01*
X1252Y5303D01*
X1250Y5300D01*
X1247Y5297D01*
X1246Y5297D01*
X1245Y5296D01*
X1242Y5291D01*
X1235Y5286D01*
X1226Y5278D01*
X1216Y5271D01*
X1203Y5264D01*
X1189Y5258D01*
X1174Y5254D01*
X1172D01*
X1170Y5254D01*
X1168D01*
X1160Y5252D01*
X1151Y5251D01*
X1142Y5250D01*
X1133Y5249D01*
X1125Y5248D01*
X1114D01*
X1110Y5249D01*
X1104Y5249D01*
X1096Y5250D01*
X1088Y5251D01*
X1079Y5254D01*
X1070Y5256D01*
X1059Y5260D01*
X1050Y5263D01*
X1040Y5268D01*
X1029Y5274D01*
X1019Y5281D01*
X1010Y5289D01*
X1001Y5298D01*
X994Y5308D01*
X993Y5309D01*
X992Y5311D01*
X990Y5314D01*
X988Y5318D01*
X985Y5323D01*
X982Y5329D01*
X978Y5337D01*
X974Y5344D01*
X968Y5360D01*
X962Y5378D01*
X957Y5397D01*
X957Y5405D01*
X956Y5414D01*
Y5456D01*
Y5457D01*
Y5459D01*
X957Y5462D01*
Y5467D01*
X957Y5473D01*
X958Y5479D01*
X960Y5493D01*
X963Y5510D01*
X968Y5527D01*
X974Y5543D01*
X981Y5559D01*
Y5559D01*
X982Y5560D01*
X985Y5565D01*
X990Y5571D01*
X996Y5579D01*
X1003Y5588D01*
X1012Y5597D01*
X1022Y5606D01*
X1033Y5613D01*
X1034Y5613D01*
X1038Y5616D01*
X1043Y5619D01*
X1051Y5621D01*
X1059Y5625D01*
X1068Y5629D01*
X1078Y5633D01*
X1088Y5635D01*
X1088D01*
X1091Y5636D01*
X1096Y5637D01*
X1100Y5638D01*
X1105Y5639D01*
X1110Y5640D01*
X1113Y5641D01*
X1118D01*
X1122Y5640D01*
D02*
G37*
G36*
X7944Y5641D02*
X7948Y5638D01*
X7951Y5633D01*
X7953Y5629D01*
Y5624D01*
Y5623D01*
X7953Y5619D01*
X7954Y5613D01*
X7955Y5607D01*
X7956Y5599D01*
X7957Y5593D01*
X7958Y5587D01*
X7961Y5582D01*
Y5582D01*
X7962Y5579D01*
X7964Y5576D01*
X7967Y5571D01*
X7970Y5565D01*
X7973Y5559D01*
X7977Y5550D01*
X7982Y5542D01*
X7993Y5524D01*
X8004Y5505D01*
X8018Y5484D01*
X8031Y5465D01*
X8032Y5464D01*
X8033Y5462D01*
X8035Y5460D01*
X8037Y5456D01*
X8043Y5449D01*
X8050Y5439D01*
X8056Y5431D01*
X8063Y5422D01*
X8065Y5419D01*
X8067Y5416D01*
X8069Y5415D01*
X8069Y5414D01*
X8070Y5414D01*
X8071Y5412D01*
X8072Y5409D01*
X8075Y5406D01*
X8081Y5397D01*
X8087Y5388D01*
X8092Y5378D01*
X8097Y5368D01*
X8098Y5365D01*
Y5362D01*
Y5360D01*
X8098Y5359D01*
Y5358D01*
Y5355D01*
X8097Y5352D01*
Y5348D01*
X8095Y5344D01*
X8094Y5340D01*
X8092Y5337D01*
X8089Y5337D01*
X8088D01*
X8084Y5337D01*
X8079D01*
X8072Y5338D01*
X8064Y5339D01*
X8054Y5340D01*
X8033Y5342D01*
X8024D01*
X8017Y5343D01*
X7998D01*
X7988Y5343D01*
X7976D01*
X7952Y5344D01*
X7927D01*
X7903Y5345D01*
X7882D01*
Y5344D01*
X7883Y5342D01*
Y5338D01*
X7884Y5333D01*
X7885Y5327D01*
Y5319D01*
X7885Y5311D01*
Y5301D01*
Y5300D01*
Y5297D01*
Y5292D01*
Y5286D01*
Y5273D01*
Y5267D01*
Y5261D01*
Y5260D01*
X7885Y5258D01*
X7883Y5255D01*
X7881Y5252D01*
X7878Y5249D01*
X7874Y5247D01*
X7868Y5246D01*
X7862Y5247D01*
X7861D01*
X7858Y5249D01*
X7855Y5250D01*
X7850Y5252D01*
X7846Y5255D01*
X7842Y5260D01*
X7838Y5266D01*
X7835Y5272D01*
Y5345D01*
X7833D01*
X7830Y5344D01*
X7816D01*
X7805Y5345D01*
X7799Y5347D01*
X7793Y5348D01*
X7788Y5351D01*
X7783Y5355D01*
X7779Y5360D01*
X7775Y5366D01*
X7772Y5373D01*
X7771Y5381D01*
Y5382D01*
Y5385D01*
X7771Y5388D01*
X7773Y5392D01*
X7775Y5396D01*
X7778Y5399D01*
X7782Y5400D01*
X7788D01*
X7792Y5399D01*
X7796Y5399D01*
X7803Y5397D01*
X7811Y5396D01*
X7818Y5394D01*
X7835Y5392D01*
Y5394D01*
Y5397D01*
Y5401D01*
Y5408D01*
Y5415D01*
X7834Y5423D01*
Y5442D01*
X7833Y5459D01*
X7832Y5468D01*
X7831Y5476D01*
X7830Y5482D01*
X7830Y5488D01*
X7828Y5491D01*
X7827Y5493D01*
X7826Y5493D01*
X7825Y5496D01*
X7823Y5500D01*
X7822Y5503D01*
X7821Y5507D01*
Y5508D01*
X7822Y5510D01*
X7823Y5513D01*
X7825Y5518D01*
X7828Y5522D01*
X7833Y5527D01*
X7839Y5533D01*
X7846Y5537D01*
X7847Y5538D01*
X7850Y5539D01*
X7853Y5541D01*
X7858Y5543D01*
X7868Y5548D01*
X7873Y5550D01*
X7877Y5551D01*
X7879D01*
X7882Y5550D01*
X7885Y5549D01*
X7886Y5547D01*
X7887Y5545D01*
Y5540D01*
X7885Y5535D01*
Y5534D01*
X7885Y5531D01*
Y5527D01*
X7884Y5521D01*
X7883Y5514D01*
X7882Y5507D01*
X7880Y5490D01*
Y5489D01*
Y5488D01*
Y5485D01*
Y5481D01*
Y5476D01*
Y5471D01*
Y5458D01*
Y5443D01*
Y5426D01*
Y5392D01*
X7884D01*
X7887Y5391D01*
X7893D01*
X7900Y5391D01*
X7908D01*
X7917Y5390D01*
X7927D01*
X7939Y5389D01*
X7950Y5388D01*
X7976Y5388D01*
X8003Y5387D01*
X8031D01*
X8030Y5388D01*
X8028Y5391D01*
X8024Y5397D01*
X8019Y5403D01*
X8013Y5411D01*
X8005Y5422D01*
X7996Y5433D01*
X7987Y5445D01*
X7977Y5459D01*
X7966Y5473D01*
X7954Y5489D01*
X7942Y5505D01*
X7917Y5538D01*
X7891Y5571D01*
X7890D01*
X7890Y5572D01*
X7888Y5573D01*
X7887Y5576D01*
X7885Y5579D01*
X7884Y5583D01*
X7882Y5587D01*
Y5593D01*
Y5594D01*
X7884Y5597D01*
X7885Y5601D01*
X7887Y5606D01*
X7890Y5611D01*
X7894Y5617D01*
X7899Y5622D01*
X7904Y5627D01*
X7904Y5627D01*
X7906Y5629D01*
X7909Y5630D01*
X7912Y5633D01*
X7919Y5638D01*
X7922Y5639D01*
X7924Y5641D01*
X7926D01*
X7929Y5641D01*
X7933Y5642D01*
X7939D01*
X7944Y5641D01*
D02*
G37*
G36*
X5382Y5722D02*
X5383Y5721D01*
X5385Y5720D01*
X5388Y5718D01*
X5391Y5714D01*
X5394Y5709D01*
X5397Y5703D01*
X5400Y5696D01*
Y5688D01*
Y5687D01*
Y5684D01*
Y5680D01*
X5399Y5675D01*
X5400Y5669D01*
Y5662D01*
X5401Y5650D01*
X5402Y5649D01*
X5403Y5647D01*
X5405Y5644D01*
X5408Y5640D01*
X5412Y5637D01*
X5417Y5634D01*
X5423Y5633D01*
X5430D01*
X5432Y5633D01*
X5436Y5634D01*
X5440Y5635D01*
X5451Y5637D01*
X5460Y5641D01*
X5470D01*
X5474Y5640D01*
X5478Y5638D01*
X5482Y5635D01*
X5487Y5631D01*
X5488Y5630D01*
X5488Y5629D01*
X5490Y5627D01*
X5492Y5623D01*
X5496Y5615D01*
X5499Y5604D01*
X5499Y5603D01*
X5500Y5600D01*
X5501Y5596D01*
Y5592D01*
X5499Y5587D01*
X5498Y5586D01*
X5495Y5584D01*
X5492Y5584D01*
X5482D01*
X5477Y5585D01*
X5476D01*
X5475Y5586D01*
X5473D01*
X5470Y5587D01*
X5462Y5588D01*
X5454Y5590D01*
X5443Y5591D01*
X5432Y5592D01*
X5420Y5593D01*
X5409D01*
X5406Y5593D01*
X5403Y5590D01*
X5400Y5587D01*
X5398Y5582D01*
Y5576D01*
Y5571D01*
X5400Y5566D01*
X5401Y5561D01*
X5404Y5554D01*
Y5553D01*
X5405Y5553D01*
X5407Y5548D01*
X5411Y5542D01*
X5415Y5534D01*
X5420Y5525D01*
X5426Y5516D01*
X5433Y5508D01*
X5440Y5501D01*
X5441Y5500D01*
X5443Y5498D01*
X5446Y5495D01*
X5451Y5491D01*
X5456Y5486D01*
X5462Y5481D01*
X5470Y5475D01*
X5478Y5469D01*
X5487Y5462D01*
X5497Y5456D01*
X5518Y5445D01*
X5529Y5439D01*
X5542Y5435D01*
X5554Y5431D01*
X5566Y5428D01*
X5567Y5428D01*
X5568Y5427D01*
X5570Y5425D01*
Y5424D01*
X5569Y5423D01*
Y5422D01*
Y5422D01*
Y5419D01*
X5568Y5416D01*
X5567Y5410D01*
X5564Y5402D01*
X5559Y5394D01*
X5555Y5390D01*
X5551Y5386D01*
X5546Y5383D01*
X5541Y5381D01*
X5534Y5379D01*
X5527Y5378D01*
X5526D01*
X5523Y5379D01*
X5519Y5380D01*
X5514Y5382D01*
X5507Y5385D01*
X5499Y5388D01*
X5490Y5392D01*
X5480Y5397D01*
X5470Y5403D01*
X5460Y5411D01*
X5448Y5419D01*
X5437Y5429D01*
X5427Y5440D01*
X5416Y5452D01*
X5405Y5466D01*
X5396Y5482D01*
Y5481D01*
Y5478D01*
X5397Y5473D01*
Y5466D01*
X5397Y5458D01*
Y5448D01*
X5398Y5438D01*
X5399Y5425D01*
X5400Y5413D01*
X5400Y5399D01*
X5401Y5384D01*
X5402Y5368D01*
X5403Y5336D01*
X5404Y5303D01*
Y5302D01*
Y5301D01*
X5403Y5297D01*
X5401Y5291D01*
X5398Y5286D01*
X5394Y5279D01*
X5388Y5274D01*
X5383Y5273D01*
X5379Y5271D01*
X5374D01*
X5368Y5272D01*
X5367D01*
X5365Y5274D01*
X5361Y5275D01*
X5357Y5278D01*
X5354Y5282D01*
X5351Y5286D01*
X5349Y5293D01*
X5348Y5301D01*
Y5302D01*
Y5306D01*
Y5310D01*
Y5316D01*
X5347Y5323D01*
Y5331D01*
X5346Y5350D01*
X5345Y5348D01*
X5343Y5345D01*
X5340Y5342D01*
X5336Y5337D01*
X5331Y5332D01*
X5324Y5329D01*
X5317Y5327D01*
X5313D01*
X5309Y5328D01*
X5309D01*
X5307Y5328D01*
X5305Y5329D01*
X5302Y5331D01*
X5294Y5334D01*
X5283Y5341D01*
X5272Y5349D01*
X5261Y5360D01*
X5250Y5373D01*
X5245Y5381D01*
X5240Y5389D01*
Y5390D01*
X5240Y5391D01*
X5238Y5394D01*
X5237Y5397D01*
X5235Y5402D01*
X5232Y5407D01*
X5230Y5413D01*
X5228Y5419D01*
X5222Y5435D01*
X5217Y5452D01*
X5212Y5471D01*
X5209Y5490D01*
Y5490D01*
Y5493D01*
Y5496D01*
X5208Y5500D01*
Y5505D01*
X5207Y5511D01*
X5206Y5518D01*
X5206Y5526D01*
X5204Y5542D01*
X5201Y5561D01*
X5198Y5580D01*
X5195Y5599D01*
Y5600D01*
X5193Y5602D01*
X5192Y5605D01*
X5189Y5610D01*
X5184Y5613D01*
X5179Y5617D01*
X5172Y5620D01*
X5164Y5621D01*
X5162D01*
X5159Y5622D01*
X5154D01*
X5147Y5623D01*
X5139Y5624D01*
X5130D01*
X5121Y5624D01*
X5005D01*
X5004Y5625D01*
X5001Y5627D01*
X4998Y5628D01*
X4996Y5631D01*
X4993Y5636D01*
X4990Y5641D01*
Y5641D01*
X4990Y5644D01*
X4989Y5647D01*
X4988Y5652D01*
X4987Y5657D01*
X4988Y5663D01*
X4989Y5670D01*
X4990Y5677D01*
Y5678D01*
X4991Y5678D01*
X4993Y5682D01*
X4996Y5687D01*
X5000Y5693D01*
X5005Y5697D01*
X5009Y5698D01*
X5013Y5698D01*
X5017D01*
X5021Y5697D01*
X5027Y5695D01*
X5033Y5691D01*
X5033D01*
X5035Y5690D01*
X5037Y5689D01*
X5040Y5687D01*
X5044Y5685D01*
X5049Y5682D01*
X5061Y5676D01*
X5075Y5670D01*
X5090Y5663D01*
X5107Y5656D01*
X5124Y5650D01*
X5125D01*
X5127Y5650D01*
X5129Y5649D01*
X5132Y5648D01*
X5141Y5647D01*
X5152Y5646D01*
X5164Y5647D01*
X5178Y5649D01*
X5184Y5650D01*
X5190Y5653D01*
X5197Y5656D01*
X5203Y5661D01*
X5203D01*
X5206Y5662D01*
X5209Y5663D01*
X5214Y5664D01*
X5219Y5665D01*
X5226Y5666D01*
X5232D01*
X5240Y5664D01*
X5240D01*
X5243Y5664D01*
X5246Y5662D01*
X5249Y5660D01*
X5253Y5656D01*
X5256Y5652D01*
X5258Y5646D01*
X5259Y5638D01*
Y5638D01*
X5258Y5636D01*
X5257Y5633D01*
X5257Y5628D01*
X5255Y5619D01*
X5253Y5607D01*
Y5606D01*
X5252Y5603D01*
X5251Y5597D01*
X5249Y5590D01*
X5248Y5581D01*
X5247Y5570D01*
X5246Y5558D01*
X5245Y5545D01*
X5246Y5530D01*
X5246Y5516D01*
X5248Y5499D01*
X5251Y5484D01*
X5255Y5467D01*
X5260Y5451D01*
X5266Y5434D01*
X5275Y5417D01*
X5277Y5416D01*
X5280Y5412D01*
X5285Y5406D01*
X5292Y5399D01*
X5299Y5392D01*
X5309Y5385D01*
X5318Y5378D01*
X5329Y5373D01*
X5334D01*
X5339Y5371D01*
X5346Y5370D01*
Y5371D01*
Y5375D01*
X5346Y5381D01*
Y5388D01*
X5347Y5397D01*
Y5408D01*
Y5420D01*
Y5433D01*
Y5434D01*
Y5434D01*
Y5439D01*
X5346Y5445D01*
X5346Y5454D01*
Y5463D01*
X5345Y5474D01*
X5343Y5496D01*
Y5496D01*
X5342Y5499D01*
X5340Y5500D01*
X5337Y5501D01*
X5336Y5500D01*
X5333Y5498D01*
X5329Y5494D01*
X5323Y5490D01*
X5316Y5485D01*
X5309Y5480D01*
X5300Y5475D01*
X5292Y5471D01*
X5292Y5470D01*
X5290Y5468D01*
X5288Y5467D01*
X5286Y5465D01*
X5282Y5464D01*
X5278Y5463D01*
X5275Y5465D01*
X5270Y5468D01*
X5269Y5468D01*
X5269Y5470D01*
X5267Y5473D01*
X5266Y5476D01*
X5266Y5480D01*
X5266Y5485D01*
X5269Y5490D01*
X5273Y5494D01*
X5274Y5495D01*
X5275Y5496D01*
X5277Y5499D01*
X5280Y5502D01*
X5288Y5508D01*
X5295Y5515D01*
X5296D01*
X5297Y5516D01*
X5300Y5517D01*
X5303Y5519D01*
X5310Y5525D01*
X5318Y5533D01*
X5327Y5545D01*
X5334Y5558D01*
X5337Y5565D01*
X5339Y5574D01*
X5340Y5583D01*
Y5593D01*
Y5594D01*
X5340Y5596D01*
X5340Y5597D01*
X5338Y5599D01*
X5337Y5599D01*
X5275D01*
X5272Y5601D01*
X5272Y5602D01*
X5271Y5604D01*
X5270Y5607D01*
Y5612D01*
Y5613D01*
Y5614D01*
X5271Y5619D01*
X5272Y5624D01*
X5274Y5625D01*
X5275Y5627D01*
X5286D01*
X5292Y5627D01*
X5299D01*
X5314Y5628D01*
X5314D01*
X5317Y5629D01*
X5320Y5630D01*
X5324Y5631D01*
X5329Y5634D01*
X5332Y5638D01*
X5335Y5643D01*
X5337Y5650D01*
Y5650D01*
X5337Y5653D01*
X5338Y5658D01*
X5339Y5664D01*
X5340Y5672D01*
X5343Y5681D01*
X5344Y5690D01*
X5347Y5701D01*
Y5702D01*
X5349Y5705D01*
X5351Y5710D01*
X5354Y5715D01*
X5358Y5719D01*
X5365Y5722D01*
X5372Y5724D01*
X5377D01*
X5382Y5722D01*
D02*
G37*
G36*
X4330Y5557D02*
X4331D01*
X4334Y5556D01*
X4338Y5554D01*
X4344Y5552D01*
X4350Y5549D01*
X4355Y5545D01*
X4360Y5541D01*
X4364Y5535D01*
X4364Y5534D01*
X4365Y5533D01*
X4367Y5530D01*
X4367Y5527D01*
X4368Y5523D01*
X4367Y5519D01*
X4365Y5516D01*
X4361Y5513D01*
X4360Y5512D01*
X4358Y5510D01*
X4355Y5507D01*
X4351Y5502D01*
X4347Y5495D01*
X4342Y5487D01*
X4338Y5476D01*
X4333Y5465D01*
X4333Y5463D01*
X4331Y5459D01*
X4329Y5453D01*
X4325Y5444D01*
X4321Y5433D01*
X4315Y5421D01*
X4310Y5407D01*
X4303Y5392D01*
X4295Y5376D01*
X4287Y5360D01*
X4269Y5325D01*
X4249Y5292D01*
X4238Y5276D01*
X4227Y5261D01*
Y5260D01*
X4227Y5259D01*
X4229Y5256D01*
X4230Y5253D01*
X4236Y5244D01*
X4239Y5239D01*
X4244Y5234D01*
X4249Y5229D01*
X4255Y5224D01*
X4261Y5219D01*
X4270Y5214D01*
X4278Y5210D01*
X4288Y5207D01*
X4299Y5204D01*
X4311Y5203D01*
X4313Y5203D01*
X4315Y5204D01*
X4318Y5206D01*
X4321Y5207D01*
X4326Y5209D01*
X4331Y5212D01*
X4338Y5215D01*
X4338Y5216D01*
X4341Y5217D01*
X4344Y5218D01*
X4348Y5220D01*
X4358Y5225D01*
X4367Y5228D01*
X4367D01*
X4369Y5229D01*
X4371D01*
X4373Y5228D01*
X4375Y5226D01*
X4377Y5223D01*
X4378Y5219D01*
Y5212D01*
Y5211D01*
X4377Y5210D01*
X4376Y5208D01*
X4375Y5205D01*
X4371Y5197D01*
X4366Y5189D01*
X4360Y5180D01*
X4353Y5172D01*
X4346Y5163D01*
X4337Y5158D01*
X4336Y5157D01*
X4333Y5157D01*
X4329Y5155D01*
X4324Y5153D01*
X4319Y5151D01*
X4315Y5149D01*
X4311Y5148D01*
X4308Y5147D01*
X4306D01*
X4303Y5148D01*
X4299Y5149D01*
X4294Y5149D01*
X4289Y5150D01*
X4276Y5153D01*
X4263Y5157D01*
X4250Y5163D01*
X4236Y5171D01*
X4225Y5180D01*
X4224Y5182D01*
X4221Y5185D01*
X4216Y5190D01*
X4211Y5195D01*
X4206Y5202D01*
X4201Y5208D01*
X4196Y5213D01*
X4193Y5217D01*
Y5217D01*
X4193Y5219D01*
X4191Y5222D01*
X4190Y5226D01*
X4187Y5231D01*
X4185Y5237D01*
X4182Y5243D01*
X4179Y5251D01*
X4173Y5268D01*
X4165Y5288D01*
X4157Y5309D01*
X4149Y5332D01*
Y5333D01*
X4148Y5335D01*
X4147Y5338D01*
X4145Y5343D01*
X4143Y5348D01*
X4141Y5355D01*
X4138Y5362D01*
X4135Y5371D01*
X4128Y5389D01*
X4122Y5410D01*
X4114Y5431D01*
X4107Y5454D01*
Y5454D01*
X4106Y5456D01*
X4105Y5459D01*
X4103Y5462D01*
X4099Y5471D01*
X4093Y5481D01*
X4086Y5492D01*
X4077Y5502D01*
X4072Y5506D01*
X4068Y5510D01*
X4062Y5513D01*
X4056Y5515D01*
X4056Y5516D01*
X4055Y5516D01*
X4054Y5519D01*
X4052Y5521D01*
X4051Y5525D01*
X4052Y5528D01*
X4054Y5533D01*
X4056Y5538D01*
X4058Y5539D01*
X4061Y5542D01*
X4066Y5545D01*
X4073Y5549D01*
X4080Y5553D01*
X4088Y5556D01*
X4096Y5557D01*
X4105D01*
X4108Y5556D01*
X4112Y5554D01*
X4118Y5552D01*
X4123Y5548D01*
X4129Y5543D01*
X4134Y5538D01*
X4139Y5530D01*
X4139Y5530D01*
X4140Y5527D01*
X4142Y5524D01*
X4143Y5520D01*
X4145Y5516D01*
X4146Y5512D01*
Y5509D01*
Y5507D01*
Y5505D01*
X4147Y5502D01*
X4148Y5496D01*
X4150Y5489D01*
X4153Y5479D01*
X4155Y5468D01*
X4159Y5456D01*
X4162Y5442D01*
X4166Y5428D01*
X4170Y5411D01*
X4182Y5378D01*
X4193Y5343D01*
X4207Y5308D01*
X4208Y5309D01*
X4210Y5312D01*
X4213Y5317D01*
X4216Y5323D01*
X4220Y5331D01*
X4225Y5341D01*
X4230Y5352D01*
X4236Y5364D01*
X4242Y5378D01*
X4249Y5393D01*
X4255Y5409D01*
X4261Y5426D01*
X4266Y5445D01*
X4271Y5463D01*
X4276Y5483D01*
X4280Y5504D01*
Y5505D01*
X4281Y5507D01*
X4281Y5510D01*
X4283Y5513D01*
X4287Y5524D01*
X4293Y5535D01*
X4300Y5545D01*
X4304Y5550D01*
X4308Y5553D01*
X4313Y5556D01*
X4318Y5558D01*
X4324Y5559D01*
X4330Y5557D01*
D02*
G37*
G36*
X8865Y5651D02*
X8870Y5650D01*
X8877Y5650D01*
X8885Y5648D01*
X8895Y5645D01*
X8905Y5642D01*
X8917Y5638D01*
X8929Y5634D01*
X8940Y5629D01*
X8952Y5622D01*
X8964Y5615D01*
X8976Y5606D01*
X8987Y5596D01*
X8997Y5584D01*
X9006Y5572D01*
X9007Y5571D01*
X9009Y5569D01*
X9010Y5565D01*
X9013Y5560D01*
X9017Y5553D01*
X9020Y5546D01*
X9024Y5537D01*
X9028Y5528D01*
X9032Y5518D01*
X9036Y5507D01*
X9043Y5484D01*
X9045Y5472D01*
X9047Y5459D01*
X9048Y5447D01*
Y5434D01*
Y5433D01*
Y5430D01*
X9047Y5425D01*
Y5418D01*
X9046Y5410D01*
X9045Y5400D01*
X9043Y5390D01*
X9041Y5379D01*
X9038Y5367D01*
X9034Y5355D01*
X9030Y5343D01*
X9024Y5331D01*
X9018Y5320D01*
X9011Y5310D01*
X9002Y5300D01*
X8992Y5291D01*
X8992Y5291D01*
X8989Y5290D01*
X8986Y5288D01*
X8982Y5285D01*
X8977Y5282D01*
X8970Y5278D01*
X8963Y5275D01*
X8954Y5271D01*
X8944Y5267D01*
X8933Y5263D01*
X8922Y5260D01*
X8909Y5257D01*
X8896Y5255D01*
X8883Y5253D01*
X8868Y5252D01*
X8851D01*
X8848Y5253D01*
X8842D01*
X8835Y5254D01*
X8827Y5255D01*
X8816Y5257D01*
X8806Y5259D01*
X8794Y5262D01*
X8782Y5266D01*
X8770Y5269D01*
X8757Y5274D01*
X8745Y5280D01*
X8733Y5286D01*
X8723Y5294D01*
X8713Y5303D01*
X8704Y5312D01*
X8704Y5313D01*
X8703Y5314D01*
X8701Y5317D01*
X8698Y5321D01*
X8695Y5325D01*
X8691Y5331D01*
X8683Y5342D01*
X8676Y5354D01*
X8669Y5365D01*
X8666Y5371D01*
X8664Y5376D01*
X8663Y5380D01*
X8662Y5384D01*
Y5385D01*
X8662Y5386D01*
X8661Y5389D01*
X8660Y5393D01*
Y5397D01*
X8661Y5402D01*
X8662Y5407D01*
X8664Y5412D01*
X8665Y5413D01*
X8667Y5414D01*
X8670Y5416D01*
X8673Y5419D01*
X8679Y5422D01*
X8684Y5425D01*
X8696Y5433D01*
X8696Y5434D01*
X8698Y5434D01*
X8701Y5436D01*
X8705Y5438D01*
X8713Y5442D01*
X8717Y5444D01*
X8721Y5445D01*
X8721D01*
X8723Y5445D01*
X8727Y5442D01*
X8730Y5440D01*
X8731Y5437D01*
X8732Y5433D01*
Y5428D01*
Y5428D01*
X8731Y5425D01*
X8730Y5422D01*
X8730Y5419D01*
X8728Y5408D01*
X8729Y5398D01*
Y5397D01*
X8730Y5396D01*
X8731Y5393D01*
X8733Y5389D01*
X8735Y5385D01*
X8738Y5379D01*
X8746Y5368D01*
X8755Y5354D01*
X8766Y5342D01*
X8778Y5331D01*
X8784Y5325D01*
X8791Y5321D01*
X8792D01*
X8792Y5320D01*
X8797Y5318D01*
X8804Y5314D01*
X8813Y5311D01*
X8823Y5308D01*
X8835Y5305D01*
X8846Y5303D01*
X8861D01*
X8865Y5303D01*
X8870Y5304D01*
X8877Y5305D01*
X8884Y5306D01*
X8901Y5309D01*
X8918Y5315D01*
X8936Y5323D01*
X8945Y5328D01*
X8952Y5334D01*
X8960Y5341D01*
X8966Y5348D01*
Y5349D01*
X8967Y5351D01*
X8969Y5353D01*
X8970Y5356D01*
X8972Y5360D01*
X8975Y5365D01*
X8980Y5376D01*
X8985Y5388D01*
X8989Y5403D01*
X8992Y5419D01*
Y5426D01*
Y5434D01*
Y5436D01*
Y5439D01*
X8991Y5444D01*
Y5450D01*
X8990Y5458D01*
X8989Y5467D01*
X8987Y5477D01*
X8985Y5488D01*
X8980Y5510D01*
X8972Y5533D01*
X8966Y5543D01*
X8960Y5553D01*
X8954Y5562D01*
X8946Y5570D01*
X8946Y5570D01*
X8944Y5571D01*
X8942Y5573D01*
X8939Y5576D01*
X8935Y5579D01*
X8930Y5582D01*
X8918Y5589D01*
X8905Y5596D01*
X8889Y5602D01*
X8872Y5606D01*
X8864Y5607D01*
X8855Y5607D01*
X8852D01*
X8850Y5607D01*
X8846Y5606D01*
X8838Y5604D01*
X8827Y5602D01*
X8815Y5597D01*
X8804Y5591D01*
X8792Y5584D01*
X8781Y5575D01*
X8779Y5573D01*
X8776Y5570D01*
X8772Y5566D01*
X8767Y5561D01*
X8755Y5548D01*
X8750Y5542D01*
X8746Y5538D01*
X8744Y5536D01*
X8741Y5533D01*
X8736Y5530D01*
X8730Y5525D01*
X8722Y5523D01*
X8718Y5522D01*
X8714D01*
X8710Y5523D01*
X8706Y5525D01*
X8702Y5528D01*
X8698Y5532D01*
X8698Y5533D01*
X8696Y5536D01*
X8692Y5541D01*
X8688Y5547D01*
X8684Y5553D01*
X8681Y5560D01*
X8678Y5567D01*
X8676Y5574D01*
Y5575D01*
X8678Y5576D01*
X8679Y5578D01*
X8681Y5580D01*
X8685Y5584D01*
X8690Y5588D01*
X8696Y5593D01*
X8704Y5599D01*
X8704D01*
X8705Y5601D01*
X8707Y5602D01*
X8710Y5604D01*
X8718Y5610D01*
X8727Y5616D01*
X8739Y5623D01*
X8753Y5630D01*
X8769Y5636D01*
X8785Y5641D01*
X8786D01*
X8787Y5641D01*
X8790D01*
X8792Y5642D01*
X8801Y5644D01*
X8811Y5647D01*
X8823Y5648D01*
X8835Y5650D01*
X8849Y5651D01*
X8861Y5652D01*
X8862D01*
X8865Y5651D01*
D02*
G37*
G36*
X3447Y5562D02*
X3454Y5562D01*
X3462Y5560D01*
X3470Y5559D01*
X3480Y5556D01*
X3491Y5554D01*
X3513Y5547D01*
X3524Y5542D01*
X3535Y5537D01*
X3546Y5530D01*
X3555Y5524D01*
X3564Y5516D01*
X3573Y5507D01*
X3573Y5506D01*
X3574Y5505D01*
X3576Y5502D01*
X3578Y5499D01*
X3581Y5494D01*
X3585Y5489D01*
X3592Y5477D01*
X3598Y5465D01*
X3604Y5451D01*
X3607Y5443D01*
X3608Y5436D01*
X3609Y5430D01*
Y5423D01*
Y5422D01*
X3608Y5418D01*
Y5412D01*
X3607Y5405D01*
X3606Y5395D01*
X3604Y5385D01*
X3601Y5373D01*
X3598Y5361D01*
X3594Y5348D01*
X3590Y5336D01*
X3584Y5324D01*
X3578Y5312D01*
X3570Y5301D01*
X3561Y5291D01*
X3552Y5284D01*
X3541Y5277D01*
X3540D01*
X3538Y5276D01*
X3535Y5275D01*
X3530Y5273D01*
X3525Y5271D01*
X3519Y5268D01*
X3504Y5264D01*
X3489Y5259D01*
X3472Y5255D01*
X3456Y5253D01*
X3441Y5252D01*
X3439D01*
X3436Y5253D01*
X3430D01*
X3423Y5254D01*
X3414Y5255D01*
X3405Y5257D01*
X3393Y5259D01*
X3382Y5261D01*
X3359Y5268D01*
X3348Y5273D01*
X3336Y5278D01*
X3327Y5284D01*
X3318Y5291D01*
X3311Y5298D01*
X3305Y5307D01*
Y5308D01*
X3305Y5309D01*
X3303Y5311D01*
X3302Y5315D01*
X3298Y5323D01*
X3294Y5334D01*
X3290Y5345D01*
X3287Y5357D01*
X3285Y5368D01*
Y5378D01*
Y5379D01*
X3285Y5380D01*
X3288Y5385D01*
X3291Y5388D01*
X3294Y5389D01*
X3297D01*
X3302Y5387D01*
X3302Y5386D01*
X3303Y5384D01*
X3305Y5381D01*
X3308Y5377D01*
X3312Y5372D01*
X3316Y5366D01*
X3327Y5354D01*
X3339Y5340D01*
X3352Y5328D01*
X3359Y5323D01*
X3365Y5317D01*
X3373Y5313D01*
X3379Y5309D01*
X3380D01*
X3381Y5308D01*
X3385Y5307D01*
X3392Y5305D01*
X3401Y5303D01*
X3410Y5300D01*
X3421Y5298D01*
X3431Y5297D01*
X3448D01*
X3457Y5298D01*
X3467Y5299D01*
X3480Y5302D01*
X3493Y5306D01*
X3507Y5311D01*
X3520Y5320D01*
X3521Y5321D01*
X3525Y5325D01*
X3531Y5331D01*
X3538Y5340D01*
X3544Y5351D01*
X3552Y5365D01*
X3555Y5374D01*
X3557Y5382D01*
X3560Y5393D01*
X3561Y5403D01*
X3433D01*
X3428Y5402D01*
X3416D01*
X3400Y5402D01*
X3383Y5401D01*
X3367Y5399D01*
X3359D01*
X3352Y5399D01*
X3345D01*
X3340Y5398D01*
X3336D01*
X3332Y5397D01*
X3327D01*
X3316Y5398D01*
X3311Y5399D01*
X3307Y5400D01*
X3305Y5401D01*
X3303Y5403D01*
X3299Y5406D01*
X3294Y5411D01*
X3289Y5417D01*
X3285Y5425D01*
X3281Y5434D01*
X3279Y5445D01*
Y5447D01*
X3279Y5451D01*
X3281Y5456D01*
X3284Y5465D01*
X3288Y5475D01*
X3295Y5487D01*
X3299Y5493D01*
X3305Y5500D01*
X3311Y5508D01*
X3318Y5515D01*
X3319Y5516D01*
X3319Y5516D01*
X3322Y5519D01*
X3325Y5522D01*
X3330Y5525D01*
X3335Y5528D01*
X3341Y5533D01*
X3348Y5537D01*
X3356Y5541D01*
X3365Y5545D01*
X3374Y5549D01*
X3385Y5553D01*
X3397Y5556D01*
X3410Y5559D01*
X3424Y5562D01*
X3439Y5563D01*
X3443D01*
X3447Y5562D01*
D02*
G37*
G36*
X2624Y5565D02*
X2629D01*
X2636Y5563D01*
X2644Y5562D01*
X2652Y5560D01*
X2661Y5558D01*
X2680Y5552D01*
X2690Y5548D01*
X2700Y5543D01*
X2710Y5537D01*
X2720Y5531D01*
X2729Y5524D01*
X2737Y5515D01*
X2738Y5514D01*
X2739Y5513D01*
X2741Y5510D01*
X2744Y5507D01*
X2747Y5502D01*
X2750Y5496D01*
X2754Y5490D01*
X2758Y5482D01*
X2761Y5474D01*
X2765Y5465D01*
X2769Y5456D01*
X2772Y5445D01*
X2777Y5423D01*
X2778Y5411D01*
X2779Y5398D01*
Y5397D01*
Y5395D01*
X2778Y5391D01*
X2777Y5386D01*
X2776Y5380D01*
X2776Y5373D01*
X2773Y5365D01*
X2771Y5357D01*
X2765Y5339D01*
X2761Y5329D01*
X2756Y5320D01*
X2750Y5311D01*
X2744Y5303D01*
X2736Y5294D01*
X2727Y5287D01*
X2727Y5286D01*
X2725Y5286D01*
X2722Y5283D01*
X2719Y5281D01*
X2714Y5278D01*
X2709Y5275D01*
X2702Y5272D01*
X2695Y5268D01*
X2679Y5262D01*
X2660Y5256D01*
X2639Y5251D01*
X2628Y5251D01*
X2616Y5250D01*
X2607D01*
X2602Y5251D01*
X2596D01*
X2583Y5252D01*
X2568Y5254D01*
X2554Y5257D01*
X2539Y5261D01*
X2526Y5266D01*
X2525D01*
X2525Y5267D01*
X2521Y5269D01*
X2515Y5273D01*
X2508Y5277D01*
X2501Y5283D01*
X2494Y5290D01*
X2488Y5297D01*
X2482Y5306D01*
X2482Y5306D01*
X2481Y5309D01*
X2479Y5314D01*
X2477Y5319D01*
X2474Y5325D01*
X2472Y5331D01*
X2471Y5339D01*
X2470Y5345D01*
Y5346D01*
Y5348D01*
X2469Y5352D01*
Y5356D01*
X2468Y5365D01*
Y5369D01*
Y5373D01*
X2469Y5374D01*
X2471Y5376D01*
X2474Y5379D01*
X2480Y5381D01*
X2482Y5382D01*
X2485D01*
X2488Y5381D01*
X2490Y5380D01*
X2491Y5378D01*
X2491Y5377D01*
X2492Y5376D01*
X2494Y5373D01*
X2497Y5368D01*
X2500Y5364D01*
X2505Y5359D01*
X2514Y5347D01*
X2527Y5335D01*
X2540Y5323D01*
X2548Y5318D01*
X2555Y5314D01*
X2563Y5310D01*
X2571Y5307D01*
X2572D01*
X2573Y5306D01*
X2575Y5306D01*
X2578Y5305D01*
X2585Y5303D01*
X2593Y5301D01*
X2601Y5299D01*
X2608Y5297D01*
X2613Y5297D01*
X2616Y5297D01*
X2622D01*
X2625Y5298D01*
X2630D01*
X2635Y5299D01*
X2646Y5302D01*
X2659Y5306D01*
X2673Y5311D01*
X2685Y5320D01*
X2691Y5325D01*
X2696Y5331D01*
Y5331D01*
X2698Y5332D01*
X2701Y5337D01*
X2704Y5343D01*
X2710Y5352D01*
X2715Y5362D01*
X2719Y5374D01*
X2722Y5387D01*
X2723Y5400D01*
Y5401D01*
Y5403D01*
Y5406D01*
X2722Y5410D01*
Y5415D01*
X2722Y5421D01*
X2719Y5434D01*
X2715Y5448D01*
X2709Y5463D01*
X2701Y5477D01*
X2696Y5484D01*
X2690Y5490D01*
X2689Y5490D01*
X2688Y5491D01*
X2684Y5495D01*
X2676Y5500D01*
X2668Y5506D01*
X2656Y5512D01*
X2644Y5517D01*
X2629Y5522D01*
X2614Y5524D01*
X2612D01*
X2610Y5523D01*
X2607Y5522D01*
X2599Y5520D01*
X2588Y5517D01*
X2576Y5513D01*
X2565Y5506D01*
X2553Y5499D01*
X2542Y5488D01*
X2541Y5487D01*
X2538Y5484D01*
X2534Y5479D01*
X2529Y5473D01*
X2524Y5467D01*
X2519Y5462D01*
X2516Y5456D01*
X2514Y5454D01*
X2513Y5453D01*
X2512Y5451D01*
X2508Y5447D01*
X2505Y5445D01*
X2502Y5445D01*
X2497Y5445D01*
X2494Y5448D01*
X2493Y5449D01*
X2491Y5451D01*
X2488Y5454D01*
X2485Y5458D01*
X2482Y5462D01*
X2478Y5468D01*
X2471Y5480D01*
Y5481D01*
X2470Y5483D01*
X2469Y5487D01*
X2468Y5490D01*
X2467Y5495D01*
Y5499D01*
Y5503D01*
X2468Y5507D01*
X2469Y5508D01*
X2471Y5508D01*
X2475Y5510D01*
X2480Y5513D01*
X2485Y5516D01*
X2492Y5521D01*
X2500Y5526D01*
X2508Y5532D01*
X2509Y5533D01*
X2513Y5535D01*
X2518Y5538D01*
X2525Y5542D01*
X2535Y5545D01*
X2545Y5550D01*
X2557Y5553D01*
X2568Y5557D01*
X2570Y5558D01*
X2574Y5559D01*
X2579Y5560D01*
X2586Y5562D01*
X2594Y5563D01*
X2602Y5564D01*
X2610Y5565D01*
X2620D01*
X2624Y5565D01*
D02*
G37*
G36*
X7200Y5651D02*
X7204Y5650D01*
X7210Y5649D01*
X7215Y5647D01*
X7220Y5645D01*
X7224Y5643D01*
X7226Y5641D01*
X7227Y5640D01*
X7229Y5639D01*
X7232Y5637D01*
X7236Y5636D01*
X7244Y5631D01*
X7247Y5630D01*
X7251Y5630D01*
X7252D01*
X7254Y5629D01*
X7257Y5627D01*
X7261Y5626D01*
X7267Y5624D01*
X7273Y5622D01*
X7285Y5616D01*
X7299Y5609D01*
X7312Y5600D01*
X7318Y5596D01*
X7324Y5590D01*
X7329Y5585D01*
X7332Y5579D01*
X7333Y5578D01*
X7335Y5574D01*
X7338Y5569D01*
X7341Y5562D01*
X7343Y5553D01*
X7345Y5545D01*
X7347Y5537D01*
Y5529D01*
Y5528D01*
Y5527D01*
Y5525D01*
X7346Y5522D01*
X7345Y5513D01*
X7344Y5503D01*
X7341Y5493D01*
X7336Y5482D01*
X7331Y5472D01*
X7323Y5465D01*
X7321Y5464D01*
X7318Y5462D01*
X7314Y5459D01*
X7308Y5456D01*
X7301Y5454D01*
X7294Y5451D01*
X7287Y5449D01*
X7279Y5448D01*
X7280D01*
X7281Y5448D01*
X7284Y5446D01*
X7287Y5445D01*
X7296Y5439D01*
X7307Y5433D01*
X7318Y5425D01*
X7328Y5416D01*
X7338Y5405D01*
X7342Y5399D01*
X7345Y5394D01*
X7346Y5392D01*
X7347Y5388D01*
X7349Y5382D01*
X7352Y5376D01*
X7354Y5368D01*
X7355Y5360D01*
Y5351D01*
X7355Y5345D01*
Y5344D01*
X7354Y5342D01*
X7352Y5339D01*
X7351Y5334D01*
X7349Y5328D01*
X7347Y5323D01*
X7339Y5309D01*
X7329Y5295D01*
X7324Y5288D01*
X7317Y5282D01*
X7310Y5276D01*
X7301Y5271D01*
X7292Y5266D01*
X7282Y5263D01*
X7281D01*
X7280Y5262D01*
X7277Y5261D01*
X7273Y5260D01*
X7269Y5259D01*
X7264Y5258D01*
X7252Y5255D01*
X7239Y5252D01*
X7227Y5250D01*
X7216Y5249D01*
X7210Y5248D01*
X7202D01*
X7196Y5249D01*
X7189D01*
X7181Y5249D01*
X7170Y5251D01*
X7160Y5252D01*
X7148Y5254D01*
X7125Y5260D01*
X7113Y5263D01*
X7102Y5268D01*
X7093Y5273D01*
X7084Y5279D01*
X7076Y5286D01*
X7070Y5293D01*
Y5294D01*
X7068Y5295D01*
X7067Y5297D01*
X7065Y5300D01*
X7061Y5308D01*
X7056Y5317D01*
X7051Y5328D01*
X7048Y5339D01*
X7045Y5350D01*
Y5359D01*
Y5360D01*
Y5360D01*
Y5362D01*
X7045Y5365D01*
X7047Y5372D01*
X7049Y5381D01*
X7053Y5391D01*
X7058Y5401D01*
X7065Y5411D01*
X7073Y5420D01*
X7075Y5421D01*
X7078Y5424D01*
X7083Y5428D01*
X7089Y5432D01*
X7096Y5436D01*
X7105Y5440D01*
X7113Y5443D01*
X7120Y5445D01*
X7119D01*
X7118Y5446D01*
X7116Y5448D01*
X7113Y5449D01*
X7105Y5453D01*
X7095Y5459D01*
X7085Y5465D01*
X7075Y5473D01*
X7067Y5482D01*
X7063Y5486D01*
X7061Y5491D01*
X7060Y5493D01*
X7059Y5496D01*
X7057Y5501D01*
X7055Y5507D01*
X7053Y5513D01*
X7051Y5521D01*
X7051Y5528D01*
X7050Y5535D01*
Y5536D01*
X7051Y5537D01*
X7051Y5539D01*
X7052Y5543D01*
X7055Y5552D01*
X7060Y5563D01*
X7067Y5574D01*
X7075Y5586D01*
X7085Y5597D01*
X7099Y5606D01*
X7099D01*
X7100Y5607D01*
X7105Y5609D01*
X7111Y5613D01*
X7119Y5617D01*
X7127Y5621D01*
X7135Y5624D01*
X7142Y5628D01*
X7147Y5630D01*
X7148D01*
X7150Y5630D01*
X7154Y5631D01*
X7159Y5633D01*
X7169Y5637D01*
X7174Y5640D01*
X7179Y5644D01*
X7179Y5644D01*
X7181Y5645D01*
X7186Y5648D01*
X7192Y5650D01*
X7194Y5652D01*
X7197D01*
X7200Y5651D01*
D02*
G37*
G36*
X2717Y4827D02*
X2723Y4826D01*
X2729Y4822D01*
X2729Y4821D01*
X2731Y4820D01*
X2734Y4818D01*
X2737Y4815D01*
X2740Y4810D01*
X2743Y4806D01*
X2746Y4800D01*
X2747Y4794D01*
X2746Y4793D01*
X2746Y4793D01*
X2741Y4789D01*
X2738Y4787D01*
X2735Y4786D01*
X2731D01*
X2727Y4787D01*
X2726D01*
X2725Y4787D01*
X2723Y4788D01*
X2720Y4790D01*
X2712Y4792D01*
X2702Y4794D01*
X2698D01*
X2695Y4795D01*
X2687D01*
X2676Y4795D01*
X2649D01*
X2632Y4795D01*
X2615Y4794D01*
X2615Y4793D01*
X2614Y4793D01*
X2610Y4789D01*
Y4788D01*
X2609Y4785D01*
Y4781D01*
X2609Y4775D01*
Y4769D01*
Y4761D01*
X2609Y4752D01*
X2610Y4742D01*
Y4741D01*
Y4738D01*
X2611Y4733D01*
X2612Y4726D01*
X2612Y4719D01*
X2613Y4710D01*
X2615Y4693D01*
Y4693D01*
Y4692D01*
Y4687D01*
Y4681D01*
X2614Y4673D01*
X2612Y4666D01*
X2609Y4659D01*
X2603Y4654D01*
X2600Y4652D01*
X2596Y4651D01*
X2595D01*
X2590Y4652D01*
X2584Y4653D01*
X2575Y4656D01*
X2568Y4659D01*
X2560Y4664D01*
X2554Y4670D01*
X2552Y4673D01*
X2550Y4678D01*
Y4679D01*
X2549Y4682D01*
X2548Y4687D01*
X2547Y4695D01*
X2545Y4704D01*
X2544Y4714D01*
X2543Y4727D01*
Y4741D01*
Y4741D01*
Y4742D01*
X2542Y4747D01*
X2541Y4754D01*
X2541Y4763D01*
Y4773D01*
Y4784D01*
X2542Y4795D01*
X2544Y4807D01*
Y4808D01*
X2546Y4811D01*
X2549Y4815D01*
X2552Y4821D01*
X2558Y4824D01*
X2566Y4828D01*
X2577Y4829D01*
X2584D01*
X2590Y4827D01*
X2591D01*
X2592Y4827D01*
X2595D01*
X2599Y4826D01*
X2604Y4825D01*
X2609Y4824D01*
X2616Y4824D01*
X2623Y4823D01*
X2639Y4822D01*
X2656Y4823D01*
X2675Y4824D01*
X2694Y4827D01*
X2695D01*
X2697Y4828D01*
X2700Y4829D01*
X2711D01*
X2717Y4827D01*
D02*
G37*
G36*
X2825Y4827D02*
X2832Y4826D01*
X2840Y4824D01*
X2848Y4823D01*
X2855Y4821D01*
X2860Y4821D01*
X2862Y4820D01*
X2864Y4819D01*
X2866D01*
X2869Y4818D01*
X2877D01*
X2883Y4818D01*
X2911D01*
X2927Y4818D01*
X2943Y4820D01*
X2959Y4822D01*
X2962D01*
X2966Y4823D01*
X2971Y4822D01*
X2976Y4821D01*
X2982Y4821D01*
X2990Y4818D01*
X2997Y4815D01*
X2998Y4814D01*
X3000Y4812D01*
X3004Y4810D01*
X3008Y4807D01*
X3011Y4802D01*
X3015Y4796D01*
X3017Y4789D01*
X3018Y4780D01*
Y4779D01*
X3017Y4778D01*
X3015Y4775D01*
X3013Y4773D01*
X3010Y4772D01*
X3007Y4771D01*
X3002Y4772D01*
X3002D01*
X3000Y4773D01*
X2998Y4773D01*
X2995Y4774D01*
X2987Y4776D01*
X2979Y4780D01*
X2978D01*
X2976Y4781D01*
X2973D01*
X2968Y4781D01*
X2963Y4782D01*
X2957Y4783D01*
X2951Y4784D01*
X2942Y4785D01*
X2925Y4787D01*
X2907Y4787D01*
X2887D01*
X2867Y4786D01*
X2866Y4785D01*
X2865Y4784D01*
X2865Y4782D01*
X2864Y4780D01*
Y4779D01*
X2862Y4776D01*
X2862Y4772D01*
X2860Y4766D01*
X2860Y4758D01*
Y4750D01*
X2860Y4741D01*
X2862Y4731D01*
Y4730D01*
X2862Y4727D01*
X2863Y4721D01*
X2864Y4715D01*
X2865Y4707D01*
Y4698D01*
Y4689D01*
X2864Y4679D01*
Y4679D01*
X2865Y4676D01*
Y4671D01*
X2864Y4666D01*
X2862Y4661D01*
X2858Y4656D01*
X2853Y4652D01*
X2845Y4649D01*
X2840D01*
X2837Y4650D01*
X2831Y4650D01*
X2822Y4652D01*
X2813Y4655D01*
X2805Y4659D01*
X2798Y4666D01*
X2795Y4670D01*
X2794Y4674D01*
Y4676D01*
X2792Y4679D01*
X2791Y4684D01*
X2790Y4693D01*
X2788Y4703D01*
X2788Y4716D01*
X2786Y4730D01*
Y4747D01*
Y4747D01*
X2786Y4750D01*
X2785Y4753D01*
X2784Y4758D01*
Y4764D01*
X2783Y4771D01*
X2784Y4785D01*
X2785Y4793D01*
X2787Y4799D01*
X2789Y4807D01*
X2793Y4812D01*
X2798Y4818D01*
X2804Y4822D01*
X2811Y4826D01*
X2820Y4827D01*
X2821D01*
X2825Y4827D01*
D02*
G37*
G36*
X6423Y4841D02*
X6426Y4839D01*
X6429Y4835D01*
X6434Y4832D01*
X6437Y4827D01*
X6440Y4820D01*
X6443Y4813D01*
Y4805D01*
Y4804D01*
X6442Y4801D01*
X6441Y4798D01*
X6440Y4793D01*
X6437Y4781D01*
X6436Y4775D01*
X6434Y4769D01*
Y4768D01*
Y4765D01*
Y4761D01*
X6434Y4757D01*
X6436Y4747D01*
X6437Y4742D01*
X6440Y4739D01*
X6440D01*
X6443Y4737D01*
X6446Y4736D01*
X6450Y4736D01*
X6455Y4735D01*
X6460D01*
X6466Y4736D01*
X6473Y4739D01*
X6474D01*
X6476Y4739D01*
X6478Y4741D01*
X6479Y4744D01*
Y4745D01*
X6478Y4749D01*
X6477Y4756D01*
X6476Y4764D01*
X6475Y4773D01*
Y4784D01*
Y4795D01*
X6476Y4808D01*
X6477Y4809D01*
X6478Y4810D01*
X6480Y4812D01*
X6483Y4814D01*
X6491Y4818D01*
X6497Y4821D01*
X6503Y4822D01*
X6508D01*
X6511Y4821D01*
X6514Y4820D01*
X6517Y4818D01*
X6520Y4813D01*
X6523Y4808D01*
X6524Y4807D01*
X6525Y4805D01*
X6527Y4801D01*
X6528Y4797D01*
X6533Y4787D01*
X6534Y4781D01*
X6534Y4777D01*
Y4776D01*
X6535Y4774D01*
X6537Y4771D01*
X6538Y4767D01*
X6540Y4761D01*
X6543Y4756D01*
X6549Y4741D01*
X6557Y4725D01*
X6568Y4709D01*
X6580Y4692D01*
X6593Y4676D01*
Y4675D01*
Y4671D01*
X6592Y4670D01*
X6589Y4669D01*
X6585Y4667D01*
X6580Y4665D01*
X6574Y4664D01*
X6567Y4663D01*
X6559D01*
X6550Y4665D01*
X6549Y4666D01*
X6546Y4667D01*
X6542Y4669D01*
X6536Y4673D01*
X6529Y4677D01*
X6523Y4682D01*
X6516Y4689D01*
X6509Y4696D01*
X6508Y4696D01*
X6507Y4694D01*
X6505Y4692D01*
X6502Y4690D01*
X6498Y4687D01*
X6494Y4686D01*
X6489Y4685D01*
X6484Y4686D01*
X6483D01*
X6482Y4687D01*
X6479Y4687D01*
X6475Y4689D01*
X6466Y4692D01*
X6456Y4696D01*
X6452D01*
X6448Y4696D01*
X6443Y4694D01*
X6440Y4691D01*
X6436Y4687D01*
X6434Y4680D01*
Y4671D01*
Y4670D01*
X6434Y4668D01*
X6436Y4665D01*
X6438Y4662D01*
X6440Y4658D01*
X6443Y4654D01*
X6447Y4652D01*
X6451Y4651D01*
X6457D01*
X6464Y4650D01*
X6473Y4650D01*
X6483Y4649D01*
X6494D01*
X6518Y4647D01*
X6548D01*
X6554Y4648D01*
X6560Y4649D01*
X6573D01*
X6580Y4648D01*
X6587Y4647D01*
X6602Y4645D01*
X6619Y4640D01*
X6626Y4637D01*
X6633Y4633D01*
X6638Y4629D01*
X6642Y4623D01*
X6645Y4617D01*
X6646Y4610D01*
Y4609D01*
Y4606D01*
Y4602D01*
X6645Y4598D01*
X6643Y4593D01*
X6640Y4590D01*
X6635Y4589D01*
X6628Y4590D01*
X6628D01*
X6625Y4591D01*
X6620Y4592D01*
X6614Y4594D01*
X6608Y4596D01*
X6599Y4599D01*
X6591Y4603D01*
X6582Y4607D01*
X6581D01*
X6579Y4608D01*
X6575Y4608D01*
X6570Y4609D01*
X6563Y4610D01*
X6556Y4611D01*
X6547Y4612D01*
X6537Y4613D01*
X6526Y4615D01*
X6515Y4616D01*
X6503Y4616D01*
X6490Y4617D01*
X6463Y4619D01*
X6434Y4618D01*
Y4617D01*
X6432Y4616D01*
X6432Y4613D01*
X6430Y4609D01*
X6429Y4605D01*
Y4599D01*
Y4593D01*
X6431Y4588D01*
X6432D01*
X6432Y4587D01*
X6434Y4586D01*
X6437Y4585D01*
X6446Y4584D01*
X6455Y4582D01*
X6467D01*
X6480Y4584D01*
X6488Y4585D01*
X6494Y4588D01*
X6502Y4591D01*
X6509Y4596D01*
X6511D01*
X6514Y4596D01*
X6518Y4596D01*
X6523Y4595D01*
X6527Y4593D01*
X6532Y4591D01*
X6537Y4588D01*
X6538Y4587D01*
X6539Y4585D01*
X6541Y4583D01*
X6543Y4579D01*
X6544Y4575D01*
X6545Y4571D01*
X6546Y4565D01*
X6545Y4559D01*
Y4558D01*
X6545Y4556D01*
X6544Y4553D01*
X6543Y4549D01*
X6541Y4540D01*
X6537Y4531D01*
Y4531D01*
Y4528D01*
Y4525D01*
X6538Y4519D01*
Y4514D01*
X6539Y4506D01*
X6540Y4498D01*
X6542Y4489D01*
X6545Y4469D01*
X6551Y4448D01*
X6560Y4425D01*
X6565Y4414D01*
X6571Y4403D01*
Y4402D01*
X6572Y4400D01*
X6573Y4397D01*
Y4394D01*
Y4390D01*
X6571Y4386D01*
X6568Y4382D01*
X6564Y4379D01*
X6563D01*
X6561Y4378D01*
X6558Y4377D01*
X6554Y4377D01*
X6542D01*
X6534Y4378D01*
X6526Y4380D01*
X6525D01*
X6525Y4381D01*
X6521Y4383D01*
X6515Y4386D01*
X6508Y4391D01*
X6502Y4398D01*
X6495Y4408D01*
X6490Y4420D01*
X6488Y4427D01*
X6487Y4434D01*
Y4435D01*
Y4437D01*
X6486Y4439D01*
Y4442D01*
X6486Y4446D01*
X6485Y4451D01*
X6484Y4462D01*
X6483Y4475D01*
X6481Y4491D01*
X6480Y4506D01*
X6479Y4523D01*
X6478Y4525D01*
X6477Y4528D01*
X6473Y4531D01*
X6469Y4535D01*
X6462Y4539D01*
X6454Y4541D01*
X6449D01*
X6443Y4540D01*
X6437Y4539D01*
X6431Y4537D01*
X6430Y4536D01*
X6429Y4532D01*
X6428Y4528D01*
Y4525D01*
X6429Y4523D01*
X6434Y4397D01*
Y4397D01*
X6434Y4394D01*
X6435Y4390D01*
Y4386D01*
Y4381D01*
X6434Y4376D01*
X6432Y4372D01*
X6429Y4369D01*
X6428Y4369D01*
X6426Y4367D01*
X6423Y4365D01*
X6418Y4362D01*
X6413Y4360D01*
X6407Y4360D01*
X6401Y4360D01*
X6395Y4363D01*
X6395Y4364D01*
X6392Y4366D01*
X6389Y4369D01*
X6385Y4372D01*
X6380Y4377D01*
X6376Y4383D01*
X6371Y4389D01*
X6366Y4397D01*
X6366Y4398D01*
X6365Y4399D01*
X6362Y4403D01*
X6360Y4408D01*
X6358Y4411D01*
Y4414D01*
Y4542D01*
X6358D01*
X6356Y4544D01*
X6354Y4545D01*
X6350Y4545D01*
X6345Y4546D01*
X6340D01*
X6333Y4545D01*
X6325Y4542D01*
X6324Y4541D01*
X6323Y4538D01*
X6321Y4533D01*
X6319Y4528D01*
X6314Y4403D01*
X6313Y4402D01*
X6312Y4401D01*
X6310Y4400D01*
X6307Y4397D01*
X6304Y4396D01*
X6300Y4395D01*
X6295D01*
X6290Y4396D01*
X6289D01*
X6287Y4397D01*
X6285Y4398D01*
X6281Y4400D01*
X6272Y4405D01*
X6268Y4409D01*
X6264Y4414D01*
Y4414D01*
X6263Y4415D01*
Y4417D01*
X6262Y4420D01*
X6261Y4427D01*
X6260Y4437D01*
Y4448D01*
Y4460D01*
X6261Y4473D01*
X6264Y4487D01*
Y4488D01*
X6264Y4492D01*
Y4497D01*
X6265Y4505D01*
X6264Y4514D01*
X6264Y4525D01*
X6261Y4537D01*
X6258Y4551D01*
Y4551D01*
Y4553D01*
Y4556D01*
X6258Y4559D01*
X6259Y4565D01*
X6260Y4570D01*
X6264Y4582D01*
X6264D01*
X6267Y4583D01*
X6271Y4584D01*
X6276Y4585D01*
X6283Y4585D01*
X6290D01*
X6299Y4584D01*
X6308Y4582D01*
X6309D01*
X6312Y4581D01*
X6323D01*
X6330Y4580D01*
X6338D01*
X6353Y4582D01*
X6354Y4582D01*
X6355Y4584D01*
X6357Y4586D01*
X6359Y4590D01*
X6360Y4594D01*
X6361Y4599D01*
X6360Y4605D01*
X6358Y4613D01*
Y4613D01*
X6358Y4614D01*
X6356Y4616D01*
X6353Y4618D01*
X6252D01*
X6249Y4619D01*
X6247Y4620D01*
X6243Y4623D01*
X6239Y4627D01*
X6237Y4632D01*
X6235Y4639D01*
Y4649D01*
X6236D01*
X6238Y4650D01*
X6240Y4650D01*
X6242Y4651D01*
X6249Y4652D01*
X6253D01*
X6258Y4651D01*
X6271D01*
X6276Y4652D01*
X6289Y4653D01*
X6303Y4653D01*
X6319Y4655D01*
X6336Y4657D01*
X6353Y4660D01*
X6354Y4661D01*
X6355Y4662D01*
X6357Y4664D01*
X6359Y4667D01*
X6360Y4671D01*
X6361Y4676D01*
X6360Y4683D01*
X6358Y4690D01*
Y4691D01*
X6358Y4693D01*
X6356Y4694D01*
X6353Y4696D01*
X6264D01*
X6263Y4697D01*
X6261Y4699D01*
X6259Y4701D01*
X6258Y4704D01*
X6258Y4707D01*
Y4712D01*
Y4713D01*
Y4714D01*
X6258Y4719D01*
X6260Y4724D01*
X6264Y4730D01*
X6264Y4730D01*
X6267Y4731D01*
X6272Y4733D01*
X6278Y4734D01*
X6284Y4735D01*
X6292Y4736D01*
X6301Y4736D01*
X6309Y4736D01*
X6313D01*
X6318Y4735D01*
X6330D01*
X6338Y4736D01*
X6346Y4737D01*
X6353Y4739D01*
X6354D01*
X6355Y4739D01*
X6358Y4741D01*
X6358Y4744D01*
Y4744D01*
Y4746D01*
Y4748D01*
Y4751D01*
X6358Y4758D01*
X6358Y4768D01*
X6359Y4779D01*
X6360Y4791D01*
X6363Y4802D01*
X6366Y4813D01*
X6366Y4815D01*
X6368Y4818D01*
X6371Y4822D01*
X6376Y4827D01*
X6383Y4832D01*
X6394Y4837D01*
X6400Y4839D01*
X6406Y4840D01*
X6414Y4841D01*
X6423D01*
X6423Y4841D01*
D02*
G37*
G36*
X2706Y4791D02*
X2706D01*
X2708Y4790D01*
X2710Y4788D01*
X2711Y4786D01*
X2712Y4785D01*
X2713Y4784D01*
X2715Y4781D01*
X2717Y4777D01*
X2718Y4772D01*
X2717Y4767D01*
X2715Y4761D01*
X2714Y4758D01*
X2711Y4755D01*
X2710Y4754D01*
X2709Y4753D01*
X2706Y4750D01*
X2702Y4746D01*
X2697Y4743D01*
X2692Y4739D01*
X2684Y4736D01*
X2676Y4734D01*
X2675D01*
X2672Y4733D01*
X2667Y4733D01*
X2661D01*
X2655Y4732D01*
X2647D01*
X2632Y4733D01*
X2632D01*
X2631Y4733D01*
X2628Y4736D01*
X2626Y4738D01*
Y4741D01*
X2627Y4745D01*
X2629Y4750D01*
X2630D01*
X2631Y4750D01*
X2633Y4751D01*
X2636Y4753D01*
X2643Y4756D01*
X2652Y4760D01*
X2662Y4766D01*
X2672Y4772D01*
X2680Y4778D01*
X2688Y4786D01*
X2689D01*
X2690Y4787D01*
X2695Y4790D01*
X2700Y4792D01*
X2703D01*
X2706Y4791D01*
D02*
G37*
G36*
X2971Y4775D02*
X2976Y4774D01*
X2981Y4772D01*
X2985Y4767D01*
X2988Y4762D01*
X2990Y4755D01*
Y4754D01*
X2989Y4751D01*
X2988Y4747D01*
X2985Y4743D01*
X2983Y4739D01*
X2979Y4734D01*
X2976Y4730D01*
X2971Y4728D01*
X2970D01*
X2968Y4727D01*
X2965Y4727D01*
X2961D01*
X2956Y4726D01*
X2951Y4725D01*
X2937Y4724D01*
X2930D01*
X2925Y4725D01*
X2919Y4727D01*
X2912Y4729D01*
X2905Y4733D01*
X2898Y4739D01*
X2897Y4739D01*
X2896Y4741D01*
Y4744D01*
X2897Y4745D01*
X2898Y4747D01*
X2899D01*
X2899Y4747D01*
X2904Y4748D01*
X2911Y4750D01*
X2919Y4753D01*
X2930Y4758D01*
X2940Y4763D01*
X2951Y4770D01*
X2962Y4777D01*
X2967D01*
X2971Y4775D01*
D02*
G37*
G36*
X3306Y4823D02*
X3315Y4822D01*
X3324Y4820D01*
X3331Y4816D01*
X3332D01*
X3335Y4815D01*
X3340Y4813D01*
X3346Y4812D01*
X3355Y4810D01*
X3365Y4807D01*
X3377Y4804D01*
X3389Y4801D01*
X3403Y4798D01*
X3417Y4796D01*
X3433Y4794D01*
X3449Y4792D01*
X3483Y4789D01*
X3520D01*
X3523Y4788D01*
X3529D01*
X3537Y4787D01*
X3546Y4787D01*
X3556Y4786D01*
X3577Y4784D01*
X3587D01*
X3594Y4785D01*
X3602Y4787D01*
X3610Y4789D01*
X3619Y4793D01*
X3628Y4797D01*
X3629Y4798D01*
X3633Y4798D01*
X3638Y4800D01*
X3645Y4801D01*
X3652Y4801D01*
X3659Y4801D01*
X3666Y4798D01*
X3672Y4794D01*
X3673Y4793D01*
X3674Y4792D01*
X3676Y4789D01*
X3679Y4784D01*
X3680Y4779D01*
X3682Y4773D01*
Y4767D01*
X3681Y4759D01*
Y4758D01*
X3680Y4756D01*
X3679Y4752D01*
X3677Y4747D01*
X3675Y4741D01*
X3673Y4735D01*
X3667Y4721D01*
Y4721D01*
X3666Y4719D01*
Y4716D01*
X3665Y4712D01*
X3665Y4707D01*
X3664Y4701D01*
X3663Y4694D01*
X3662Y4687D01*
Y4670D01*
Y4653D01*
X3665Y4634D01*
X3669Y4615D01*
Y4614D01*
X3670Y4613D01*
X3671Y4610D01*
X3672Y4607D01*
X3674Y4602D01*
X3676Y4597D01*
X3681Y4585D01*
X3688Y4572D01*
X3696Y4557D01*
X3707Y4542D01*
X3719Y4528D01*
X3720Y4528D01*
X3722Y4527D01*
X3724Y4525D01*
X3727Y4522D01*
X3731Y4520D01*
X3735Y4516D01*
X3746Y4510D01*
X3759Y4503D01*
X3773Y4497D01*
X3790Y4491D01*
X3798Y4490D01*
X3806Y4489D01*
X3807D01*
X3808Y4488D01*
X3812Y4485D01*
X3814Y4482D01*
X3815Y4478D01*
X3816Y4474D01*
X3814Y4468D01*
Y4468D01*
X3813Y4465D01*
X3812Y4462D01*
X3810Y4459D01*
X3807Y4454D01*
X3802Y4449D01*
X3798Y4444D01*
X3792Y4439D01*
X3791D01*
X3790Y4437D01*
X3786Y4435D01*
X3779Y4431D01*
X3770Y4427D01*
X3759Y4424D01*
X3748Y4422D01*
X3741D01*
X3733Y4423D01*
X3727Y4424D01*
X3719Y4426D01*
X3719D01*
X3718Y4427D01*
X3716Y4428D01*
X3713Y4429D01*
X3705Y4433D01*
X3696Y4438D01*
X3686Y4445D01*
X3675Y4454D01*
X3663Y4463D01*
X3653Y4475D01*
X3652Y4476D01*
X3651Y4478D01*
X3649Y4482D01*
X3646Y4487D01*
X3643Y4494D01*
X3640Y4501D01*
X3636Y4511D01*
X3632Y4521D01*
X3628Y4533D01*
X3624Y4546D01*
X3620Y4560D01*
X3616Y4576D01*
X3612Y4592D01*
X3609Y4610D01*
X3607Y4629D01*
X3605Y4649D01*
X3604D01*
X3602Y4650D01*
X3599Y4650D01*
X3593Y4652D01*
X3588D01*
X3584Y4653D01*
X3578D01*
X3571Y4653D01*
X3563D01*
X3554Y4654D01*
X3433D01*
X3430Y4653D01*
X3425Y4653D01*
X3417Y4652D01*
X3408Y4650D01*
X3398Y4649D01*
X3385Y4647D01*
X3372Y4645D01*
X3357Y4642D01*
X3341Y4640D01*
X3324Y4636D01*
X3307Y4633D01*
X3271Y4625D01*
X3233Y4615D01*
X3232D01*
X3232Y4614D01*
X3227Y4613D01*
X3220Y4612D01*
X3211Y4610D01*
X3201Y4610D01*
X3189Y4610D01*
X3177Y4612D01*
X3165Y4615D01*
X3164D01*
X3164Y4616D01*
X3160Y4617D01*
X3154Y4621D01*
X3147Y4626D01*
X3139Y4633D01*
X3130Y4643D01*
X3122Y4656D01*
X3119Y4663D01*
X3116Y4671D01*
Y4672D01*
X3115Y4674D01*
X3114Y4678D01*
X3113Y4682D01*
Y4690D01*
X3114Y4693D01*
X3116Y4696D01*
X3116D01*
X3120Y4696D01*
X3125D01*
X3132Y4695D01*
X3140Y4694D01*
X3150Y4693D01*
X3161Y4693D01*
X3174Y4691D01*
X3187Y4690D01*
X3202Y4690D01*
X3232Y4689D01*
X3265D01*
X3298Y4690D01*
X3313D01*
X3324Y4691D01*
X3338D01*
X3355Y4692D01*
X3373D01*
X3393Y4693D01*
X3416D01*
X3440Y4693D01*
X3465D01*
X3491Y4694D01*
X3518Y4695D01*
X3546Y4696D01*
X3602Y4696D01*
X3603Y4697D01*
Y4699D01*
X3604Y4701D01*
Y4704D01*
X3605Y4709D01*
Y4716D01*
Y4716D01*
Y4719D01*
Y4722D01*
X3604Y4726D01*
X3602Y4734D01*
X3601Y4737D01*
X3600Y4739D01*
X3569D01*
X3559Y4739D01*
X3543D01*
X3536Y4740D01*
X3518D01*
X3508Y4741D01*
X3469D01*
X3461Y4741D01*
X3451D01*
X3440Y4742D01*
X3428D01*
X3415Y4743D01*
X3401Y4744D01*
X3372Y4747D01*
X3341Y4750D01*
X3309Y4755D01*
X3304D01*
X3299Y4756D01*
X3292Y4756D01*
X3284Y4758D01*
X3273Y4761D01*
X3262Y4764D01*
X3250Y4769D01*
X3250Y4770D01*
X3249Y4771D01*
X3247Y4773D01*
X3247Y4776D01*
X3246Y4781D01*
X3247Y4785D01*
X3249Y4791D01*
X3253Y4797D01*
X3254Y4798D01*
X3255Y4800D01*
X3258Y4803D01*
X3261Y4807D01*
X3270Y4815D01*
X3275Y4818D01*
X3281Y4822D01*
X3282D01*
X3286Y4823D01*
X3292D01*
X3298Y4824D01*
X3306Y4823D01*
D02*
G37*
G36*
X2625Y4724D02*
X2628Y4723D01*
X2632Y4721D01*
X2638Y4719D01*
X2644Y4716D01*
X2652Y4713D01*
X2661Y4710D01*
X2672Y4707D01*
X2673Y4707D01*
X2677Y4706D01*
X2683Y4704D01*
X2692Y4702D01*
X2702Y4701D01*
X2713Y4700D01*
X2724D01*
X2736Y4701D01*
X2737Y4701D01*
X2739Y4699D01*
X2741Y4695D01*
X2743Y4690D01*
X2743Y4684D01*
X2743Y4678D01*
X2741Y4675D01*
X2740Y4672D01*
X2737Y4668D01*
X2733Y4665D01*
X2732Y4665D01*
X2729Y4664D01*
X2724Y4662D01*
X2718Y4662D01*
X2710D01*
X2701Y4662D01*
X2692Y4665D01*
X2680Y4670D01*
X2679Y4670D01*
X2675Y4673D01*
X2669Y4676D01*
X2662Y4681D01*
X2653Y4687D01*
X2643Y4695D01*
X2634Y4704D01*
X2624Y4713D01*
X2623D01*
X2623Y4714D01*
X2621Y4717D01*
Y4719D01*
Y4720D01*
X2622Y4722D01*
X2624Y4724D01*
X2625Y4724D01*
D02*
G37*
G36*
X5531Y4666D02*
X5537Y4665D01*
X5543Y4662D01*
X5549Y4659D01*
X5550Y4658D01*
X5552Y4656D01*
X5555Y4653D01*
X5558Y4650D01*
X5562Y4645D01*
X5566Y4639D01*
X5569Y4633D01*
X5570Y4626D01*
Y4625D01*
X5571Y4624D01*
Y4622D01*
Y4619D01*
X5569Y4617D01*
X5568Y4616D01*
X5564Y4615D01*
X5559D01*
Y4614D01*
X5560Y4613D01*
X5561Y4609D01*
X5563Y4605D01*
X5564Y4602D01*
Y4601D01*
Y4600D01*
Y4598D01*
X5563Y4595D01*
X5562Y4591D01*
X5561Y4587D01*
X5558Y4582D01*
X5555Y4577D01*
X5549Y4572D01*
X5549Y4571D01*
X5546Y4570D01*
X5542Y4566D01*
X5536Y4562D01*
X5529Y4555D01*
X5518Y4547D01*
X5507Y4537D01*
X5492Y4525D01*
X5491Y4525D01*
X5490Y4521D01*
Y4519D01*
X5491Y4515D01*
X5492Y4511D01*
X5495Y4506D01*
X5496Y4505D01*
X5499Y4502D01*
X5505Y4497D01*
X5512Y4490D01*
X5521Y4483D01*
X5532Y4476D01*
X5545Y4469D01*
X5559Y4462D01*
X5560D01*
X5561Y4462D01*
X5563Y4461D01*
X5566Y4460D01*
X5574Y4457D01*
X5583Y4455D01*
X5595Y4451D01*
X5609Y4448D01*
X5623Y4446D01*
X5637Y4445D01*
X5639Y4444D01*
X5640Y4442D01*
X5642Y4442D01*
Y4440D01*
X5641Y4439D01*
X5640Y4437D01*
Y4436D01*
X5639Y4434D01*
X5637Y4433D01*
X5636Y4430D01*
X5632Y4423D01*
X5624Y4416D01*
X5619Y4412D01*
X5614Y4409D01*
X5607Y4406D01*
X5600Y4405D01*
X5592Y4403D01*
X5583Y4403D01*
X5573Y4403D01*
X5562Y4405D01*
X5561D01*
X5559Y4406D01*
X5555Y4408D01*
X5551Y4409D01*
X5545Y4412D01*
X5539Y4414D01*
X5524Y4423D01*
X5516Y4428D01*
X5508Y4433D01*
X5499Y4440D01*
X5491Y4447D01*
X5483Y4455D01*
X5475Y4464D01*
X5468Y4474D01*
X5461Y4484D01*
X5461Y4485D01*
X5458Y4485D01*
X5454D01*
X5450Y4484D01*
X5449Y4483D01*
X5448Y4482D01*
X5446Y4480D01*
X5443Y4477D01*
X5435Y4469D01*
X5425Y4459D01*
X5413Y4445D01*
X5401Y4431D01*
X5387Y4414D01*
X5372Y4397D01*
X5371Y4396D01*
X5367Y4393D01*
X5363Y4388D01*
X5356Y4384D01*
X5348Y4380D01*
X5339Y4376D01*
X5328Y4374D01*
X5323D01*
X5317Y4374D01*
X5316D01*
X5316Y4375D01*
X5312Y4376D01*
X5306Y4379D01*
X5299Y4384D01*
X5294Y4388D01*
X5290Y4391D01*
X5285Y4397D01*
X5281Y4402D01*
X5276Y4408D01*
X5271Y4416D01*
X5267Y4424D01*
X5262Y4434D01*
Y4434D01*
Y4435D01*
Y4438D01*
X5264Y4442D01*
X5265Y4445D01*
X5266D01*
X5270Y4446D01*
X5274Y4448D01*
X5281Y4449D01*
X5289Y4452D01*
X5299Y4456D01*
X5309Y4460D01*
X5321Y4464D01*
X5345Y4475D01*
X5372Y4488D01*
X5398Y4505D01*
X5410Y4514D01*
X5422Y4523D01*
X5423D01*
X5424Y4524D01*
Y4527D01*
X5424Y4528D01*
X5422Y4531D01*
Y4532D01*
X5421Y4533D01*
X5421Y4535D01*
X5419Y4538D01*
X5415Y4546D01*
X5412Y4557D01*
X5407Y4570D01*
X5401Y4585D01*
X5395Y4601D01*
X5388Y4618D01*
X5387Y4619D01*
X5387Y4622D01*
X5386Y4627D01*
Y4634D01*
X5387Y4642D01*
X5390Y4650D01*
X5393Y4653D01*
X5396Y4658D01*
X5400Y4662D01*
X5405Y4665D01*
X5406D01*
X5409Y4666D01*
X5424D01*
X5431Y4665D01*
X5438Y4665D01*
X5444Y4663D01*
X5446Y4662D01*
X5450Y4660D01*
X5456Y4658D01*
X5465Y4656D01*
X5475Y4655D01*
X5488Y4656D01*
X5495Y4657D01*
X5501Y4659D01*
X5509Y4662D01*
X5517Y4665D01*
X5518D01*
X5519Y4666D01*
X5522Y4667D01*
X5526D01*
X5531Y4666D01*
D02*
G37*
G36*
X2894Y4708D02*
X2899Y4707D01*
X2903Y4704D01*
X2909Y4701D01*
X2910D01*
X2911Y4701D01*
X2914Y4700D01*
X2918Y4699D01*
X2922Y4697D01*
X2928Y4696D01*
X2939Y4693D01*
X2951Y4689D01*
X2965Y4687D01*
X2977Y4685D01*
X2996D01*
X2999Y4684D01*
X3002Y4682D01*
X3004Y4679D01*
X3005Y4676D01*
Y4675D01*
Y4673D01*
Y4671D01*
Y4668D01*
X3005Y4662D01*
X3002Y4654D01*
X3001Y4653D01*
X2999Y4651D01*
X2995Y4648D01*
X2991Y4645D01*
X2985Y4643D01*
X2978Y4642D01*
X2971D01*
X2962Y4643D01*
X2962Y4644D01*
X2959Y4645D01*
X2954Y4647D01*
X2948Y4649D01*
X2942Y4653D01*
X2935Y4657D01*
X2928Y4662D01*
X2920Y4668D01*
X2919Y4669D01*
X2917Y4670D01*
X2912Y4673D01*
X2908Y4678D01*
X2902Y4682D01*
X2896Y4688D01*
X2890Y4695D01*
X2884Y4701D01*
Y4702D01*
X2883Y4704D01*
Y4706D01*
X2884Y4708D01*
X2886Y4709D01*
X2891D01*
X2894Y4708D01*
D02*
G37*
G36*
X3563Y4606D02*
X3568Y4605D01*
X3574Y4602D01*
X3580Y4599D01*
X3585Y4593D01*
X3588Y4587D01*
Y4586D01*
X3590Y4584D01*
X3591Y4579D01*
X3592Y4575D01*
X3594Y4569D01*
X3594Y4562D01*
Y4556D01*
X3594Y4548D01*
Y4548D01*
Y4547D01*
Y4545D01*
X3593Y4542D01*
Y4535D01*
X3592Y4525D01*
Y4514D01*
X3591Y4502D01*
Y4488D01*
Y4474D01*
Y4474D01*
Y4473D01*
Y4471D01*
Y4468D01*
X3591Y4460D01*
X3590Y4451D01*
X3588Y4440D01*
X3585Y4427D01*
X3582Y4414D01*
X3577Y4400D01*
X3577Y4400D01*
X3576Y4397D01*
X3573Y4394D01*
X3570Y4389D01*
X3565Y4386D01*
X3560Y4383D01*
X3553Y4382D01*
X3545Y4383D01*
X3544D01*
X3541Y4384D01*
X3537Y4386D01*
X3531Y4387D01*
X3524Y4390D01*
X3517Y4394D01*
X3511Y4397D01*
X3504Y4403D01*
X3503Y4403D01*
X3500Y4405D01*
X3494Y4407D01*
X3486Y4409D01*
X3475Y4411D01*
X3462Y4413D01*
X3454Y4414D01*
X3446Y4414D01*
X3437D01*
X3426Y4414D01*
X3421D01*
X3417Y4413D01*
X3412D01*
X3406Y4412D01*
X3400Y4411D01*
X3392Y4410D01*
X3376Y4407D01*
X3359Y4403D01*
X3341Y4398D01*
X3323Y4391D01*
X3322Y4391D01*
X3319Y4389D01*
X3315Y4387D01*
X3309Y4385D01*
X3302Y4383D01*
X3294Y4382D01*
X3286D01*
X3277Y4383D01*
X3276D01*
X3273Y4384D01*
X3269Y4386D01*
X3264Y4390D01*
X3260Y4395D01*
X3256Y4402D01*
X3253Y4411D01*
X3252Y4423D01*
Y4423D01*
Y4425D01*
Y4428D01*
Y4432D01*
Y4437D01*
Y4443D01*
Y4450D01*
Y4457D01*
X3251Y4474D01*
X3249Y4493D01*
X3246Y4514D01*
X3241Y4534D01*
Y4536D01*
Y4539D01*
Y4544D01*
X3242Y4551D01*
X3244Y4557D01*
X3245Y4565D01*
X3249Y4571D01*
X3253Y4577D01*
X3254Y4578D01*
X3255Y4579D01*
X3258Y4582D01*
X3262Y4585D01*
X3267Y4587D01*
X3273Y4589D01*
X3279Y4590D01*
X3287D01*
X3290Y4589D01*
X3294Y4588D01*
X3299Y4588D01*
X3306Y4587D01*
X3314D01*
X3323Y4588D01*
X3332Y4588D01*
X3334D01*
X3337Y4589D01*
X3343Y4590D01*
X3350Y4591D01*
X3359Y4592D01*
X3369Y4593D01*
X3380Y4594D01*
X3392Y4596D01*
X3397D01*
X3400Y4596D01*
X3433D01*
X3447Y4596D01*
X3460Y4595D01*
X3474Y4593D01*
X3478D01*
X3481Y4593D01*
X3490Y4594D01*
X3500Y4596D01*
X3513Y4597D01*
X3526Y4600D01*
X3540Y4603D01*
X3554Y4607D01*
X3558D01*
X3563Y4606D01*
D02*
G37*
G36*
X4356Y4623D02*
X4359Y4622D01*
X4366Y4620D01*
X4374Y4616D01*
X4383Y4611D01*
X4390Y4604D01*
X4393Y4599D01*
X4395Y4594D01*
X4396Y4588D01*
Y4582D01*
Y4581D01*
Y4580D01*
X4394Y4575D01*
X4392Y4568D01*
X4388Y4561D01*
X4383Y4554D01*
X4376Y4548D01*
X4371Y4545D01*
X4366Y4543D01*
X4361Y4542D01*
X4352D01*
X4350Y4543D01*
X4347D01*
X4340Y4545D01*
X4331Y4548D01*
X4323Y4554D01*
X4316Y4560D01*
X4314Y4565D01*
X4311Y4570D01*
X4310Y4575D01*
X4309Y4582D01*
Y4582D01*
X4310Y4585D01*
X4311Y4589D01*
X4312Y4594D01*
X4314Y4599D01*
X4317Y4605D01*
X4322Y4609D01*
X4326Y4613D01*
X4327Y4614D01*
X4328Y4615D01*
X4331Y4616D01*
X4334Y4619D01*
X4342Y4622D01*
X4347Y4623D01*
X4351Y4624D01*
X4354D01*
X4356Y4623D01*
D02*
G37*
G36*
X6202Y4768D02*
X6205Y4767D01*
X6208Y4764D01*
X6212Y4762D01*
X6214Y4758D01*
X6215Y4755D01*
Y4750D01*
Y4517D01*
X6215Y4516D01*
X6214Y4515D01*
X6210Y4511D01*
X6207Y4509D01*
X6202Y4508D01*
X6198D01*
X6192Y4510D01*
X6192D01*
X6190Y4511D01*
X6187Y4513D01*
X6184Y4515D01*
X6175Y4522D01*
X6168Y4531D01*
Y4533D01*
X6167Y4536D01*
X6166Y4541D01*
X6164Y4548D01*
X6163Y4556D01*
X6162Y4565D01*
Y4575D01*
X6163Y4585D01*
Y4587D01*
Y4590D01*
X6164Y4596D01*
Y4605D01*
X6163Y4614D01*
Y4625D01*
X6161Y4636D01*
X6160Y4649D01*
Y4650D01*
X6159Y4654D01*
Y4661D01*
X6158Y4670D01*
X6158Y4680D01*
Y4693D01*
X6157Y4706D01*
Y4721D01*
Y4722D01*
Y4723D01*
Y4725D01*
X6158Y4728D01*
X6159Y4735D01*
X6162Y4743D01*
X6167Y4752D01*
X6170Y4756D01*
X6175Y4759D01*
X6180Y4763D01*
X6185Y4765D01*
X6192Y4767D01*
X6199Y4769D01*
X6200D01*
X6202Y4768D01*
D02*
G37*
G36*
X2658Y4654D02*
X2658D01*
X2661Y4653D01*
X2664Y4651D01*
X2668Y4648D01*
X2672Y4645D01*
X2674Y4639D01*
X2675Y4633D01*
X2675Y4624D01*
Y4623D01*
Y4620D01*
Y4616D01*
X2675Y4613D01*
X2676Y4609D01*
X2677Y4606D01*
X2678Y4604D01*
X2814D01*
X2815Y4605D01*
X2817Y4608D01*
X2817Y4609D01*
X2818Y4612D01*
Y4613D01*
Y4613D01*
Y4617D01*
Y4621D01*
X2817Y4624D01*
Y4625D01*
X2818Y4625D01*
X2822Y4630D01*
X2825Y4633D01*
X2828Y4636D01*
X2833Y4638D01*
X2838Y4640D01*
X2839D01*
X2840Y4641D01*
X2843Y4642D01*
X2847Y4643D01*
X2855Y4645D01*
X2864Y4646D01*
X2868D01*
X2871Y4645D01*
X2875Y4643D01*
X2880Y4640D01*
X2883Y4636D01*
X2886Y4629D01*
X2887Y4621D01*
Y4620D01*
Y4617D01*
X2888Y4613D01*
X2888Y4607D01*
Y4605D01*
Y4603D01*
X2889Y4600D01*
Y4599D01*
Y4599D01*
X2891D01*
X2895Y4598D01*
X2901Y4596D01*
X2909Y4596D01*
X2919Y4594D01*
X2929Y4593D01*
X2950Y4591D01*
X2960D01*
X2967Y4592D01*
X2976Y4593D01*
X2985Y4596D01*
X2996Y4599D01*
X3007Y4604D01*
X3018D01*
X3025Y4602D01*
X3034Y4601D01*
X3044Y4597D01*
X3053Y4592D01*
X3063Y4585D01*
X3064Y4585D01*
X3067Y4582D01*
X3072Y4577D01*
X3077Y4572D01*
X3083Y4565D01*
X3089Y4557D01*
X3095Y4548D01*
X3099Y4539D01*
X3100Y4538D01*
X3101Y4534D01*
X3102Y4529D01*
Y4522D01*
X3100Y4516D01*
X3098Y4510D01*
X3093Y4505D01*
X3090Y4504D01*
X3085Y4503D01*
X3084Y4504D01*
X3082Y4505D01*
X3077Y4507D01*
X3070Y4510D01*
X3063Y4514D01*
X3054Y4517D01*
X3044Y4521D01*
X3032Y4525D01*
X3019Y4530D01*
X3005Y4534D01*
X2991Y4538D01*
X2976Y4542D01*
X2943Y4549D01*
X2926Y4551D01*
X2909Y4554D01*
X2908D01*
X2906Y4554D01*
X2899D01*
X2890Y4554D01*
X2885Y4553D01*
X2881Y4551D01*
Y4550D01*
Y4548D01*
Y4545D01*
Y4542D01*
Y4536D01*
Y4531D01*
X2883Y4519D01*
X2886Y4505D01*
X2892Y4489D01*
X2896Y4482D01*
X2900Y4474D01*
X2905Y4468D01*
X2912Y4461D01*
X2913D01*
X2914Y4460D01*
X2916Y4458D01*
X2919Y4456D01*
X2926Y4451D01*
X2936Y4445D01*
X2950Y4438D01*
X2965Y4433D01*
X2982Y4429D01*
X2992Y4428D01*
X3002Y4428D01*
X3002D01*
X3004Y4428D01*
X3008Y4429D01*
X3011D01*
X3014Y4428D01*
X3016Y4426D01*
X3018Y4423D01*
Y4421D01*
X3017Y4418D01*
X3016Y4413D01*
X3013Y4407D01*
X3010Y4400D01*
X3005Y4394D01*
X2999Y4388D01*
X2991Y4383D01*
X2991Y4383D01*
X2987Y4382D01*
X2982Y4380D01*
X2976Y4378D01*
X2969Y4377D01*
X2961Y4376D01*
X2952D01*
X2942Y4377D01*
X2940D01*
X2938Y4378D01*
X2934Y4379D01*
X2931Y4380D01*
X2925Y4380D01*
X2914Y4384D01*
X2901Y4389D01*
X2887Y4397D01*
X2880Y4402D01*
X2873Y4408D01*
X2865Y4414D01*
X2859Y4421D01*
X2858Y4422D01*
X2857Y4423D01*
X2855Y4425D01*
X2853Y4428D01*
X2850Y4432D01*
X2847Y4437D01*
X2843Y4442D01*
X2840Y4448D01*
X2833Y4463D01*
X2825Y4480D01*
X2820Y4499D01*
X2817Y4520D01*
Y4559D01*
Y4560D01*
Y4561D01*
X2816Y4564D01*
X2814Y4566D01*
X2813Y4568D01*
X2685D01*
X2682Y4567D01*
X2680Y4564D01*
X2678Y4562D01*
X2677Y4559D01*
Y4558D01*
Y4554D01*
X2676Y4548D01*
Y4539D01*
Y4528D01*
X2677Y4516D01*
X2677Y4502D01*
X2679Y4486D01*
Y4485D01*
Y4485D01*
Y4482D01*
X2680Y4479D01*
Y4475D01*
Y4471D01*
X2680Y4460D01*
Y4447D01*
Y4432D01*
Y4417D01*
X2680Y4400D01*
Y4400D01*
Y4399D01*
Y4394D01*
Y4388D01*
X2677Y4381D01*
X2674Y4374D01*
X2672Y4370D01*
X2668Y4367D01*
X2664Y4365D01*
X2659Y4363D01*
X2653Y4362D01*
X2646Y4361D01*
X2644D01*
X2642Y4362D01*
X2639Y4363D01*
X2630Y4366D01*
X2626Y4368D01*
X2620Y4371D01*
X2619Y4371D01*
X2618Y4372D01*
X2615Y4375D01*
X2612Y4378D01*
X2609Y4383D01*
X2606Y4387D01*
X2603Y4394D01*
X2601Y4400D01*
Y4556D01*
Y4557D01*
X2601Y4558D01*
X2598Y4559D01*
X2596Y4559D01*
X2592D01*
X2591Y4559D01*
X2587Y4558D01*
X2584Y4557D01*
X2578Y4556D01*
X2572Y4554D01*
X2566Y4552D01*
X2558Y4550D01*
X2541Y4545D01*
X2522Y4539D01*
X2502Y4533D01*
X2481Y4525D01*
X2480D01*
X2477Y4525D01*
X2471D01*
X2464Y4525D01*
X2457Y4527D01*
X2448Y4530D01*
X2440Y4534D01*
X2431Y4541D01*
X2430Y4542D01*
X2427Y4545D01*
X2424Y4549D01*
X2418Y4556D01*
X2414Y4563D01*
X2409Y4572D01*
X2404Y4582D01*
X2400Y4593D01*
Y4593D01*
Y4595D01*
X2401Y4596D01*
X2403Y4599D01*
X2413D01*
X2420Y4599D01*
X2440D01*
X2452Y4600D01*
X2465D01*
X2479Y4601D01*
X2494D01*
X2510Y4602D01*
X2527D01*
X2561Y4603D01*
X2596Y4604D01*
X2598D01*
X2600Y4605D01*
X2602Y4608D01*
Y4610D01*
X2601Y4613D01*
Y4614D01*
X2603Y4617D01*
X2604Y4622D01*
X2606Y4627D01*
X2609Y4633D01*
X2613Y4639D01*
X2618Y4645D01*
X2624Y4648D01*
X2625Y4649D01*
X2627Y4650D01*
X2630Y4651D01*
X2635Y4653D01*
X2640Y4653D01*
X2645Y4654D01*
X2651Y4655D01*
X2658Y4654D01*
D02*
G37*
G36*
X5760Y4822D02*
X5761Y4821D01*
X5763Y4820D01*
X5766Y4818D01*
X5770Y4814D01*
X5773Y4809D01*
X5776Y4803D01*
X5778Y4796D01*
Y4788D01*
Y4787D01*
Y4784D01*
Y4780D01*
X5777Y4775D01*
X5778Y4769D01*
Y4762D01*
X5780Y4750D01*
X5780Y4749D01*
X5781Y4747D01*
X5783Y4744D01*
X5786Y4740D01*
X5791Y4737D01*
X5795Y4734D01*
X5801Y4733D01*
X5808D01*
X5811Y4733D01*
X5814Y4734D01*
X5819Y4735D01*
X5829Y4737D01*
X5839Y4741D01*
X5848D01*
X5852Y4740D01*
X5857Y4738D01*
X5861Y4735D01*
X5865Y4731D01*
X5866Y4730D01*
X5867Y4729D01*
X5868Y4727D01*
X5871Y4723D01*
X5874Y4715D01*
X5877Y4704D01*
X5878Y4703D01*
X5879Y4700D01*
X5879Y4696D01*
Y4692D01*
X5878Y4687D01*
X5877Y4686D01*
X5874Y4684D01*
X5871Y4684D01*
X5861D01*
X5855Y4685D01*
X5854D01*
X5854Y4686D01*
X5851D01*
X5848Y4687D01*
X5841Y4688D01*
X5832Y4690D01*
X5822Y4691D01*
X5811Y4692D01*
X5799Y4693D01*
X5788D01*
X5785Y4693D01*
X5782Y4690D01*
X5779Y4687D01*
X5777Y4682D01*
Y4676D01*
Y4671D01*
X5778Y4666D01*
X5780Y4661D01*
X5783Y4654D01*
Y4653D01*
X5783Y4653D01*
X5785Y4648D01*
X5789Y4642D01*
X5794Y4634D01*
X5799Y4625D01*
X5805Y4616D01*
X5811Y4608D01*
X5819Y4601D01*
X5820Y4600D01*
X5822Y4598D01*
X5825Y4595D01*
X5829Y4591D01*
X5834Y4586D01*
X5841Y4581D01*
X5848Y4575D01*
X5857Y4569D01*
X5865Y4562D01*
X5875Y4556D01*
X5896Y4545D01*
X5908Y4539D01*
X5920Y4535D01*
X5932Y4531D01*
X5945Y4528D01*
X5945Y4528D01*
X5947Y4527D01*
X5948Y4525D01*
Y4524D01*
X5948Y4523D01*
Y4522D01*
Y4522D01*
Y4519D01*
X5947Y4516D01*
X5945Y4510D01*
X5942Y4502D01*
X5937Y4494D01*
X5933Y4490D01*
X5930Y4486D01*
X5925Y4483D01*
X5919Y4481D01*
X5913Y4479D01*
X5905Y4478D01*
X5905D01*
X5902Y4479D01*
X5897Y4480D01*
X5892Y4482D01*
X5885Y4485D01*
X5877Y4488D01*
X5868Y4492D01*
X5859Y4497D01*
X5848Y4503D01*
X5838Y4511D01*
X5827Y4519D01*
X5816Y4529D01*
X5805Y4540D01*
X5794Y4552D01*
X5784Y4566D01*
X5774Y4582D01*
Y4581D01*
Y4578D01*
X5775Y4573D01*
Y4566D01*
X5776Y4558D01*
Y4548D01*
X5777Y4538D01*
X5777Y4525D01*
X5778Y4513D01*
X5779Y4499D01*
X5780Y4484D01*
X5780Y4468D01*
X5781Y4436D01*
X5783Y4403D01*
Y4402D01*
Y4401D01*
X5782Y4397D01*
X5780Y4391D01*
X5777Y4386D01*
X5772Y4379D01*
X5766Y4374D01*
X5762Y4373D01*
X5757Y4371D01*
X5752D01*
X5746Y4372D01*
X5746D01*
X5743Y4374D01*
X5740Y4375D01*
X5736Y4378D01*
X5733Y4382D01*
X5729Y4386D01*
X5727Y4393D01*
X5726Y4401D01*
Y4402D01*
Y4405D01*
Y4410D01*
Y4416D01*
X5726Y4423D01*
Y4431D01*
X5724Y4450D01*
X5723Y4448D01*
X5722Y4445D01*
X5718Y4442D01*
X5714Y4437D01*
X5709Y4432D01*
X5703Y4429D01*
X5696Y4427D01*
X5692D01*
X5688Y4428D01*
X5687D01*
X5686Y4428D01*
X5683Y4429D01*
X5680Y4431D01*
X5672Y4434D01*
X5662Y4441D01*
X5651Y4449D01*
X5640Y4460D01*
X5629Y4473D01*
X5623Y4481D01*
X5619Y4489D01*
Y4490D01*
X5618Y4491D01*
X5617Y4494D01*
X5615Y4497D01*
X5613Y4502D01*
X5611Y4507D01*
X5609Y4513D01*
X5606Y4519D01*
X5600Y4535D01*
X5595Y4552D01*
X5591Y4571D01*
X5587Y4590D01*
Y4590D01*
Y4593D01*
Y4596D01*
X5586Y4600D01*
Y4605D01*
X5586Y4611D01*
X5585Y4618D01*
X5584Y4626D01*
X5583Y4642D01*
X5580Y4661D01*
X5577Y4680D01*
X5573Y4699D01*
Y4700D01*
X5572Y4702D01*
X5570Y4705D01*
X5567Y4710D01*
X5563Y4713D01*
X5558Y4717D01*
X5551Y4720D01*
X5542Y4721D01*
X5541D01*
X5538Y4722D01*
X5532D01*
X5526Y4723D01*
X5518Y4724D01*
X5509D01*
X5499Y4724D01*
X5384D01*
X5382Y4725D01*
X5379Y4727D01*
X5376Y4728D01*
X5374Y4731D01*
X5371Y4736D01*
X5369Y4741D01*
Y4741D01*
X5368Y4744D01*
X5367Y4747D01*
X5367Y4752D01*
X5366Y4757D01*
X5367Y4763D01*
X5367Y4770D01*
X5369Y4777D01*
Y4778D01*
X5370Y4778D01*
X5371Y4782D01*
X5374Y4787D01*
X5378Y4793D01*
X5384Y4797D01*
X5387Y4798D01*
X5391Y4798D01*
X5396D01*
X5400Y4797D01*
X5405Y4795D01*
X5411Y4791D01*
X5412D01*
X5413Y4790D01*
X5415Y4789D01*
X5418Y4787D01*
X5423Y4785D01*
X5427Y4782D01*
X5439Y4776D01*
X5453Y4770D01*
X5469Y4763D01*
X5485Y4756D01*
X5503Y4750D01*
X5504D01*
X5505Y4750D01*
X5507Y4749D01*
X5511Y4748D01*
X5519Y4747D01*
X5530Y4746D01*
X5543Y4747D01*
X5556Y4749D01*
X5563Y4750D01*
X5569Y4753D01*
X5575Y4756D01*
X5581Y4761D01*
X5582D01*
X5584Y4762D01*
X5588Y4763D01*
X5592Y4764D01*
X5598Y4765D01*
X5604Y4766D01*
X5611D01*
X5618Y4764D01*
X5619D01*
X5621Y4764D01*
X5624Y4762D01*
X5628Y4760D01*
X5632Y4756D01*
X5635Y4752D01*
X5637Y4746D01*
X5637Y4739D01*
Y4738D01*
X5637Y4736D01*
X5636Y4733D01*
X5635Y4728D01*
X5634Y4719D01*
X5632Y4707D01*
Y4706D01*
X5630Y4703D01*
X5629Y4697D01*
X5628Y4690D01*
X5626Y4681D01*
X5626Y4670D01*
X5624Y4658D01*
X5623Y4645D01*
X5624Y4630D01*
X5625Y4616D01*
X5626Y4599D01*
X5629Y4584D01*
X5633Y4567D01*
X5638Y4551D01*
X5645Y4534D01*
X5654Y4517D01*
X5655Y4516D01*
X5658Y4512D01*
X5663Y4506D01*
X5670Y4499D01*
X5677Y4492D01*
X5687Y4485D01*
X5697Y4478D01*
X5707Y4473D01*
X5712D01*
X5717Y4471D01*
X5724Y4470D01*
Y4471D01*
Y4475D01*
X5725Y4481D01*
Y4488D01*
X5726Y4497D01*
Y4508D01*
Y4520D01*
Y4533D01*
Y4534D01*
Y4534D01*
Y4539D01*
X5725Y4545D01*
X5724Y4554D01*
Y4563D01*
X5723Y4574D01*
X5721Y4596D01*
Y4596D01*
X5720Y4599D01*
X5719Y4600D01*
X5715Y4601D01*
X5714Y4600D01*
X5711Y4598D01*
X5707Y4594D01*
X5701Y4590D01*
X5694Y4585D01*
X5687Y4580D01*
X5679Y4575D01*
X5671Y4571D01*
X5670Y4570D01*
X5669Y4568D01*
X5666Y4567D01*
X5664Y4565D01*
X5660Y4564D01*
X5657Y4563D01*
X5653Y4565D01*
X5649Y4568D01*
X5648Y4568D01*
X5647Y4570D01*
X5646Y4573D01*
X5645Y4576D01*
X5644Y4580D01*
X5645Y4585D01*
X5647Y4590D01*
X5652Y4594D01*
X5652Y4595D01*
X5654Y4596D01*
X5656Y4599D01*
X5659Y4602D01*
X5666Y4608D01*
X5674Y4615D01*
X5674D01*
X5676Y4616D01*
X5678Y4617D01*
X5681Y4619D01*
X5689Y4625D01*
X5697Y4633D01*
X5706Y4645D01*
X5712Y4658D01*
X5715Y4665D01*
X5717Y4674D01*
X5718Y4683D01*
Y4693D01*
Y4694D01*
X5719Y4696D01*
X5718Y4697D01*
X5717Y4699D01*
X5715Y4699D01*
X5653D01*
X5651Y4701D01*
X5650Y4702D01*
X5649Y4704D01*
X5649Y4707D01*
Y4712D01*
Y4713D01*
Y4714D01*
X5649Y4719D01*
X5651Y4724D01*
X5652Y4725D01*
X5654Y4727D01*
X5665D01*
X5671Y4727D01*
X5677D01*
X5692Y4728D01*
X5693D01*
X5695Y4729D01*
X5699Y4730D01*
X5703Y4731D01*
X5707Y4734D01*
X5711Y4738D01*
X5714Y4743D01*
X5715Y4750D01*
Y4750D01*
X5716Y4753D01*
X5717Y4758D01*
X5717Y4764D01*
X5719Y4772D01*
X5721Y4781D01*
X5723Y4790D01*
X5726Y4801D01*
Y4802D01*
X5727Y4805D01*
X5729Y4810D01*
X5732Y4815D01*
X5737Y4819D01*
X5743Y4822D01*
X5751Y4824D01*
X5755D01*
X5760Y4822D01*
D02*
G37*
G36*
X4927Y4804D02*
X4932Y4803D01*
X4938Y4801D01*
X4943Y4798D01*
X4949Y4794D01*
X4952Y4789D01*
Y4788D01*
Y4787D01*
X4954Y4783D01*
X4954Y4775D01*
X4956Y4767D01*
X4957Y4757D01*
Y4746D01*
Y4735D01*
X4955Y4724D01*
Y4723D01*
X4956Y4719D01*
X4957Y4713D01*
X4958Y4705D01*
X4960Y4696D01*
X4963Y4684D01*
X4966Y4671D01*
X4970Y4657D01*
X4975Y4642D01*
X4980Y4626D01*
X4987Y4610D01*
X4994Y4593D01*
X5003Y4576D01*
X5011Y4560D01*
X5022Y4544D01*
X5034Y4528D01*
X5034Y4528D01*
X5035Y4526D01*
X5037Y4524D01*
X5040Y4521D01*
X5044Y4516D01*
X5048Y4512D01*
X5060Y4502D01*
X5073Y4490D01*
X5088Y4479D01*
X5105Y4467D01*
X5123Y4457D01*
X5124D01*
X5125Y4457D01*
X5128Y4455D01*
X5132Y4454D01*
X5137Y4451D01*
X5142Y4449D01*
X5148Y4446D01*
X5155Y4444D01*
X5171Y4438D01*
X5188Y4431D01*
X5207Y4425D01*
X5226Y4420D01*
X5227Y4419D01*
X5229Y4416D01*
X5231Y4412D01*
X5232Y4408D01*
Y4408D01*
X5231Y4405D01*
X5230Y4400D01*
X5228Y4395D01*
X5225Y4389D01*
X5220Y4384D01*
X5214Y4380D01*
X5207Y4376D01*
X5206D01*
X5203Y4375D01*
X5199Y4374D01*
X5193Y4374D01*
X5186Y4373D01*
X5179D01*
X5170Y4374D01*
X5162Y4375D01*
X5161D01*
X5158Y4376D01*
X5154Y4377D01*
X5147Y4380D01*
X5139Y4382D01*
X5131Y4386D01*
X5120Y4389D01*
X5109Y4394D01*
X5097Y4400D01*
X5085Y4408D01*
X5071Y4415D01*
X5058Y4425D01*
X5044Y4434D01*
X5030Y4446D01*
X5017Y4459D01*
X5003Y4473D01*
X5002Y4474D01*
X5001Y4475D01*
X4999Y4477D01*
X4996Y4481D01*
X4992Y4485D01*
X4989Y4490D01*
X4984Y4496D01*
X4979Y4502D01*
X4968Y4518D01*
X4955Y4536D01*
X4943Y4556D01*
X4930Y4579D01*
X4929Y4579D01*
X4928Y4581D01*
X4926Y4582D01*
X4923Y4584D01*
X4918Y4585D01*
X4914Y4584D01*
X4908Y4582D01*
X4902Y4577D01*
X4901Y4576D01*
X4899Y4575D01*
X4896Y4572D01*
X4892Y4568D01*
X4883Y4559D01*
X4874Y4551D01*
X4873Y4550D01*
X4871Y4548D01*
X4867Y4545D01*
X4863Y4540D01*
X4857Y4535D01*
X4850Y4529D01*
X4843Y4522D01*
X4834Y4514D01*
X4815Y4497D01*
X4794Y4477D01*
X4771Y4456D01*
X4748Y4434D01*
X4747D01*
X4747Y4432D01*
X4743Y4428D01*
X4736Y4422D01*
X4727Y4413D01*
X4717Y4403D01*
X4704Y4392D01*
X4690Y4381D01*
X4675Y4369D01*
X4674D01*
X4673Y4368D01*
X4670Y4367D01*
X4667Y4365D01*
X4663Y4363D01*
X4658Y4362D01*
X4647Y4359D01*
X4633Y4357D01*
X4626D01*
X4618Y4359D01*
X4610Y4361D01*
X4601Y4365D01*
X4592Y4369D01*
X4583Y4375D01*
X4582Y4376D01*
X4581Y4377D01*
X4578Y4381D01*
X4574Y4385D01*
X4570Y4391D01*
X4565Y4397D01*
X4560Y4405D01*
X4554Y4414D01*
X4553Y4415D01*
X4552Y4418D01*
X4550Y4422D01*
X4547Y4428D01*
X4545Y4433D01*
X4545Y4439D01*
Y4444D01*
X4547Y4448D01*
X4547D01*
X4550Y4448D01*
X4553Y4449D01*
X4558Y4450D01*
X4564Y4451D01*
X4570Y4453D01*
X4579Y4454D01*
X4587Y4457D01*
X4596Y4460D01*
X4607Y4462D01*
X4629Y4469D01*
X4653Y4478D01*
X4677Y4488D01*
X4678D01*
X4680Y4489D01*
X4684Y4491D01*
X4688Y4493D01*
X4694Y4496D01*
X4701Y4499D01*
X4708Y4503D01*
X4717Y4508D01*
X4735Y4517D01*
X4756Y4529D01*
X4777Y4542D01*
X4798Y4556D01*
X4799D01*
X4800Y4557D01*
X4802Y4559D01*
X4805Y4560D01*
X4812Y4565D01*
X4822Y4571D01*
X4833Y4579D01*
X4846Y4587D01*
X4859Y4596D01*
X4872Y4607D01*
X4873Y4608D01*
X4877Y4612D01*
X4882Y4619D01*
X4887Y4627D01*
X4893Y4639D01*
X4897Y4652D01*
X4900Y4667D01*
Y4676D01*
X4899Y4685D01*
Y4686D01*
Y4687D01*
X4898Y4691D01*
X4897Y4698D01*
X4896Y4707D01*
X4894Y4718D01*
X4892Y4730D01*
X4891Y4744D01*
X4889Y4758D01*
Y4758D01*
Y4759D01*
X4888Y4764D01*
X4889Y4770D01*
X4890Y4778D01*
X4893Y4787D01*
X4899Y4794D01*
X4903Y4798D01*
X4907Y4801D01*
X4912Y4803D01*
X4919Y4805D01*
X4923D01*
X4927Y4804D01*
D02*
G37*
G36*
X6081Y4836D02*
X6082D01*
X6084Y4835D01*
X6087Y4833D01*
X6090Y4830D01*
X6093Y4826D01*
X6096Y4821D01*
X6096Y4814D01*
X6096Y4805D01*
Y4804D01*
X6095Y4801D01*
X6093Y4795D01*
X6093Y4789D01*
X6091Y4781D01*
X6090Y4772D01*
X6088Y4762D01*
X6087Y4752D01*
Y4613D01*
Y4612D01*
Y4610D01*
Y4607D01*
Y4602D01*
Y4596D01*
X6088Y4589D01*
Y4582D01*
Y4573D01*
X6089Y4563D01*
X6090Y4553D01*
X6091Y4530D01*
X6093Y4505D01*
X6096Y4478D01*
Y4477D01*
X6097Y4473D01*
X6099Y4468D01*
X6102Y4462D01*
X6107Y4455D01*
X6113Y4448D01*
X6121Y4443D01*
X6131Y4439D01*
X6133D01*
X6136Y4437D01*
X6141Y4437D01*
X6149Y4436D01*
X6157Y4435D01*
X6166D01*
X6175Y4437D01*
X6185Y4439D01*
X6186D01*
X6189Y4440D01*
X6192Y4440D01*
X6197Y4441D01*
X6207Y4442D01*
X6210Y4444D01*
X6213Y4445D01*
X6214Y4445D01*
X6217Y4446D01*
X6221Y4448D01*
X6227Y4450D01*
X6229D01*
X6231Y4448D01*
X6234Y4447D01*
X6235Y4445D01*
X6235Y4445D01*
X6236Y4443D01*
X6237Y4440D01*
X6236Y4437D01*
X6235Y4434D01*
X6233Y4430D01*
X6229Y4425D01*
X6229D01*
X6228Y4423D01*
X6226Y4422D01*
X6223Y4420D01*
X6215Y4414D01*
X6206Y4408D01*
X6194Y4400D01*
X6180Y4392D01*
X6165Y4384D01*
X6149Y4377D01*
X6148D01*
X6147Y4377D01*
X6144Y4376D01*
X6141Y4375D01*
X6137Y4374D01*
X6132Y4373D01*
X6120Y4371D01*
X6105Y4370D01*
X6089Y4371D01*
X6070Y4373D01*
X6061Y4374D01*
X6051Y4377D01*
X6050D01*
X6050Y4379D01*
X6045Y4383D01*
X6039Y4389D01*
X6033Y4398D01*
X6026Y4410D01*
X6022Y4424D01*
X6020Y4432D01*
X6019Y4440D01*
Y4450D01*
X6020Y4460D01*
Y4460D01*
Y4462D01*
X6021Y4465D01*
X6022Y4469D01*
X6022Y4474D01*
Y4480D01*
X6023Y4486D01*
X6024Y4494D01*
X6025Y4509D01*
X6027Y4527D01*
X6027Y4545D01*
X6028Y4565D01*
Y4566D01*
Y4569D01*
Y4574D01*
Y4582D01*
Y4590D01*
Y4601D01*
X6027Y4613D01*
Y4626D01*
X6027Y4640D01*
X6025Y4656D01*
X6025Y4672D01*
X6022Y4689D01*
X6018Y4724D01*
X6012Y4761D01*
Y4762D01*
Y4766D01*
X6013Y4772D01*
X6014Y4779D01*
X6017Y4787D01*
X6021Y4797D01*
X6026Y4807D01*
X6033Y4816D01*
X6033Y4817D01*
X6036Y4820D01*
X6041Y4824D01*
X6047Y4828D01*
X6053Y4832D01*
X6062Y4835D01*
X6071Y4837D01*
X6081Y4836D01*
D02*
G37*
G36*
X4356Y4424D02*
X4359Y4423D01*
X4366Y4421D01*
X4374Y4417D01*
X4383Y4412D01*
X4390Y4405D01*
X4393Y4400D01*
X4395Y4396D01*
X4396Y4390D01*
Y4383D01*
Y4383D01*
Y4382D01*
X4394Y4377D01*
X4392Y4370D01*
X4388Y4363D01*
X4383Y4355D01*
X4376Y4349D01*
X4366Y4343D01*
X4361Y4343D01*
X4354Y4342D01*
X4354D01*
X4352Y4343D01*
X4350D01*
X4347Y4343D01*
X4340Y4346D01*
X4331Y4350D01*
X4323Y4356D01*
X4316Y4363D01*
X4314Y4367D01*
X4311Y4372D01*
X4310Y4377D01*
X4309Y4383D01*
Y4384D01*
X4310Y4387D01*
X4311Y4391D01*
X4312Y4396D01*
X4314Y4401D01*
X4317Y4406D01*
X4322Y4411D01*
X4326Y4415D01*
X4327Y4416D01*
X4328Y4417D01*
X4331Y4418D01*
X4334Y4420D01*
X4342Y4423D01*
X4347Y4424D01*
X4351Y4425D01*
X4354D01*
X4356Y4424D01*
D02*
G37*
G36*
X2815Y3896D02*
X2823Y3894D01*
X2823D01*
X2826Y3893D01*
X2829Y3890D01*
X2834Y3888D01*
X2838Y3884D01*
X2843Y3880D01*
X2846Y3875D01*
X2849Y3869D01*
Y3868D01*
X2849Y3864D01*
Y3859D01*
X2850Y3853D01*
X2849Y3845D01*
X2848Y3837D01*
X2845Y3828D01*
X2840Y3819D01*
Y3818D01*
Y3817D01*
Y3815D01*
Y3812D01*
Y3804D01*
X2840Y3794D01*
Y3781D01*
X2839Y3766D01*
X2838Y3748D01*
X2838Y3730D01*
X2837Y3708D01*
X2836Y3686D01*
X2835Y3662D01*
X2833Y3638D01*
X2832Y3613D01*
X2830Y3587D01*
X2826Y3534D01*
Y3533D01*
Y3532D01*
X2827Y3527D01*
X2826Y3520D01*
X2825Y3517D01*
X2823Y3514D01*
X2823Y3513D01*
X2821Y3511D01*
X2818Y3508D01*
X2814Y3504D01*
X2809Y3501D01*
X2802Y3498D01*
X2795Y3496D01*
X2786D01*
X2783Y3497D01*
X2779D01*
X2773Y3498D01*
X2766Y3500D01*
X2759Y3502D01*
X2751Y3505D01*
X2743Y3508D01*
X2535D01*
X2534Y3508D01*
X2530Y3505D01*
X2525Y3501D01*
X2522Y3498D01*
X2519Y3494D01*
X2518Y3494D01*
X2515Y3493D01*
X2511Y3491D01*
X2506Y3490D01*
X2500Y3489D01*
X2493D01*
X2485Y3490D01*
X2477Y3493D01*
X2476Y3494D01*
X2473Y3495D01*
X2470Y3497D01*
X2465Y3501D01*
X2461Y3505D01*
X2456Y3511D01*
X2452Y3519D01*
X2449Y3528D01*
Y3529D01*
Y3532D01*
Y3537D01*
Y3544D01*
Y3553D01*
Y3563D01*
Y3575D01*
Y3588D01*
Y3602D01*
Y3616D01*
Y3633D01*
Y3650D01*
Y3685D01*
Y3721D01*
Y3722D01*
Y3723D01*
Y3726D01*
Y3730D01*
Y3735D01*
X2448Y3741D01*
Y3747D01*
X2448Y3755D01*
X2446Y3772D01*
X2445Y3790D01*
X2442Y3811D01*
X2438Y3833D01*
Y3834D01*
Y3837D01*
X2439Y3842D01*
X2441Y3849D01*
X2443Y3856D01*
X2448Y3864D01*
X2453Y3871D01*
X2460Y3878D01*
X2461Y3879D01*
X2464Y3881D01*
X2468Y3884D01*
X2474Y3887D01*
X2481Y3890D01*
X2488Y3893D01*
X2496Y3894D01*
X2506D01*
X2507Y3893D01*
X2510Y3893D01*
X2515Y3892D01*
X2520Y3890D01*
X2525Y3890D01*
X2533Y3888D01*
X2539Y3887D01*
X2556Y3885D01*
X2575Y3884D01*
X2594Y3886D01*
X2614Y3889D01*
X2633D01*
X2641Y3888D01*
X2658D01*
X2669Y3887D01*
X2679Y3887D01*
X2702Y3885D01*
X2727Y3883D01*
X2751Y3880D01*
X2755D01*
X2758Y3881D01*
X2763Y3882D01*
X2767Y3884D01*
X2773Y3889D01*
X2779Y3894D01*
X2780D01*
X2783Y3895D01*
X2787Y3896D01*
X2793Y3897D01*
X2800Y3898D01*
X2807D01*
X2815Y3896D01*
D02*
G37*
G36*
X4898Y3927D02*
X4906Y3924D01*
X4913Y3918D01*
X4914Y3917D01*
X4916Y3915D01*
X4920Y3911D01*
X4924Y3907D01*
X4935Y3897D01*
X4945Y3886D01*
X4946Y3885D01*
X4948Y3884D01*
X4951Y3881D01*
X4956Y3878D01*
X4961Y3874D01*
X4969Y3870D01*
X4976Y3864D01*
X4985Y3859D01*
X4995Y3854D01*
X5004Y3848D01*
X5026Y3836D01*
X5051Y3825D01*
X5077Y3816D01*
X5077Y3815D01*
X5080Y3813D01*
X5082Y3810D01*
X5083Y3807D01*
X5084Y3802D01*
X5083Y3798D01*
X5082Y3796D01*
X5080Y3794D01*
X5077Y3792D01*
X5074Y3790D01*
X5073D01*
X5072Y3790D01*
X5068Y3788D01*
X5061Y3787D01*
X5053Y3785D01*
X5043Y3784D01*
X5032D01*
X5020Y3785D01*
X5007Y3789D01*
X5006D01*
X5006Y3790D01*
X5001Y3791D01*
X4995Y3793D01*
X4986Y3797D01*
X4976Y3801D01*
X4964Y3805D01*
X4952Y3810D01*
X4940Y3816D01*
Y3815D01*
X4941Y3813D01*
X4940D01*
X4938Y3814D01*
X4937Y3816D01*
X4936Y3815D01*
X4935Y3814D01*
X4933Y3813D01*
X4931Y3810D01*
X4927Y3809D01*
X4924Y3808D01*
X4918D01*
X4913Y3809D01*
X4912D01*
X4910Y3810D01*
X4907Y3810D01*
X4903Y3811D01*
X4898Y3813D01*
X4892Y3813D01*
X4878Y3816D01*
X4825D01*
Y3815D01*
X4824Y3813D01*
X4824Y3811D01*
X4822Y3808D01*
X4821Y3801D01*
Y3796D01*
X4822Y3792D01*
Y3791D01*
X4823Y3790D01*
Y3787D01*
Y3784D01*
X4824Y3778D01*
X4822Y3771D01*
Y3770D01*
Y3769D01*
X4824Y3767D01*
X4824D01*
X4825Y3768D01*
X4827D01*
X4830Y3767D01*
X4837D01*
X4845Y3767D01*
X4855Y3766D01*
X4866Y3765D01*
X4878Y3765D01*
X4891Y3764D01*
X4911D01*
X4919Y3765D01*
X4929Y3765D01*
X4937Y3767D01*
X4945Y3768D01*
X4946D01*
X4949Y3769D01*
X4954D01*
X4960Y3770D01*
X4973D01*
X4981Y3769D01*
X4987Y3768D01*
X4988Y3767D01*
X4990Y3766D01*
X4993Y3762D01*
X4995Y3758D01*
X4998Y3751D01*
X4999Y3742D01*
X4998Y3731D01*
X4997Y3725D01*
X4995Y3718D01*
Y3717D01*
X4995Y3714D01*
Y3710D01*
X4994Y3705D01*
Y3698D01*
X4993Y3690D01*
Y3676D01*
Y3675D01*
Y3673D01*
X4994Y3673D01*
X4995D01*
X4995Y3673D01*
X4996D01*
X4998Y3673D01*
X5000Y3672D01*
X5003Y3671D01*
X5006Y3671D01*
X5012Y3669D01*
X5023Y3667D01*
X5037Y3665D01*
X5052Y3664D01*
X5069D01*
X5088Y3665D01*
X5092D01*
X5096Y3664D01*
X5101Y3662D01*
X5108Y3659D01*
X5114Y3656D01*
X5121Y3651D01*
X5129Y3644D01*
X5129Y3643D01*
X5132Y3640D01*
X5134Y3636D01*
X5137Y3631D01*
X5140Y3624D01*
X5143Y3616D01*
X5144Y3607D01*
Y3598D01*
Y3597D01*
X5143Y3594D01*
X5140Y3591D01*
X5137Y3588D01*
X5132Y3585D01*
X5124Y3583D01*
X5120D01*
X5115Y3584D01*
X5109Y3585D01*
X5103Y3588D01*
X5103D01*
X5102Y3588D01*
X5097Y3591D01*
X5091Y3593D01*
X5082Y3597D01*
X5072Y3600D01*
X5061Y3605D01*
X5038Y3612D01*
X5036D01*
X5033Y3613D01*
X5027Y3614D01*
X5020Y3614D01*
X5010Y3616D01*
X4999Y3617D01*
X4986Y3619D01*
X4972Y3620D01*
X4957Y3622D01*
X4940Y3623D01*
X4923Y3625D01*
X4904Y3626D01*
X4866Y3628D01*
X4825Y3628D01*
X4824Y3628D01*
X4824Y3627D01*
X4823Y3625D01*
X4822Y3623D01*
X4825Y3491D01*
Y3491D01*
X4826Y3488D01*
X4827Y3486D01*
Y3481D01*
Y3476D01*
X4825Y3471D01*
X4823Y3465D01*
X4819Y3458D01*
X4818Y3457D01*
X4817Y3457D01*
X4814Y3454D01*
X4810Y3453D01*
X4805Y3452D01*
X4799D01*
X4790Y3454D01*
X4781Y3458D01*
X4779Y3459D01*
X4776Y3461D01*
X4772Y3464D01*
X4766Y3469D01*
X4760Y3474D01*
X4755Y3480D01*
X4750Y3488D01*
X4747Y3497D01*
Y3623D01*
X4746D01*
X4745Y3624D01*
X4741Y3625D01*
X4734Y3626D01*
X4725Y3628D01*
X4714Y3628D01*
X4702Y3628D01*
X4688Y3626D01*
X4673Y3623D01*
X4672D01*
X4671Y3622D01*
X4669D01*
X4666Y3621D01*
X4658Y3619D01*
X4648Y3616D01*
X4635Y3612D01*
X4622Y3608D01*
X4608Y3603D01*
X4593Y3598D01*
X4592D01*
X4591Y3597D01*
X4588Y3597D01*
X4585Y3596D01*
X4577Y3594D01*
X4567Y3591D01*
X4555Y3590D01*
X4541D01*
X4527Y3591D01*
X4512Y3595D01*
X4511D01*
X4511Y3596D01*
X4505Y3598D01*
X4499Y3602D01*
X4491Y3610D01*
X4486Y3614D01*
X4482Y3619D01*
X4477Y3626D01*
X4473Y3633D01*
X4469Y3641D01*
X4466Y3650D01*
X4462Y3659D01*
X4459Y3671D01*
Y3671D01*
Y3672D01*
Y3673D01*
X4460Y3675D01*
X4462Y3677D01*
X4465Y3679D01*
X4469Y3680D01*
X4476Y3682D01*
X4562Y3676D01*
X4741D01*
X4745Y3677D01*
X4747Y3679D01*
X4750Y3682D01*
X4751Y3685D01*
Y3690D01*
Y3690D01*
Y3692D01*
X4750Y3695D01*
X4750Y3699D01*
X4749Y3708D01*
X4747Y3718D01*
Y3719D01*
X4746Y3720D01*
X4744Y3722D01*
X4742Y3724D01*
X4608D01*
X4605Y3725D01*
X4603Y3727D01*
X4601Y3729D01*
X4599Y3732D01*
X4597Y3736D01*
Y3737D01*
X4597Y3739D01*
X4596Y3741D01*
Y3744D01*
Y3752D01*
X4597Y3756D01*
X4599Y3760D01*
Y3761D01*
X4599Y3762D01*
X4602Y3765D01*
X4606Y3767D01*
X4608Y3768D01*
X4744D01*
X4748Y3770D01*
X4750Y3771D01*
X4752Y3773D01*
X4753Y3776D01*
Y3781D01*
Y3782D01*
X4752Y3783D01*
X4751Y3785D01*
X4750Y3789D01*
X4749Y3797D01*
X4747Y3807D01*
Y3808D01*
X4746Y3810D01*
X4744Y3813D01*
X4742Y3816D01*
X4593Y3821D01*
X4592D01*
X4590Y3823D01*
X4587Y3824D01*
X4583Y3828D01*
X4579Y3833D01*
X4577Y3839D01*
X4574Y3847D01*
X4574Y3858D01*
Y3858D01*
X4575Y3860D01*
X4577Y3861D01*
X4579Y3861D01*
X4583Y3863D01*
X4588Y3864D01*
X4657D01*
X4861Y3858D01*
X4870D01*
X4869Y3858D01*
X4867Y3860D01*
X4865Y3862D01*
X4862Y3866D01*
X4860Y3870D01*
X4857Y3876D01*
X4855Y3882D01*
X4853Y3890D01*
Y3890D01*
Y3893D01*
Y3897D01*
X4854Y3902D01*
X4856Y3907D01*
X4859Y3914D01*
X4864Y3920D01*
X4870Y3925D01*
X4870Y3926D01*
X4874Y3927D01*
X4878Y3927D01*
X4884Y3928D01*
X4891D01*
X4898Y3927D01*
D02*
G37*
G36*
X3310Y3835D02*
X3313Y3834D01*
X3316Y3832D01*
X3319Y3829D01*
X3323Y3824D01*
X3327Y3819D01*
X3330Y3813D01*
X3333Y3806D01*
Y3805D01*
X3333Y3803D01*
X3334Y3799D01*
X3335Y3796D01*
X3336Y3791D01*
Y3787D01*
Y3784D01*
X3335Y3782D01*
Y3782D01*
Y3779D01*
X3334Y3775D01*
X3333Y3770D01*
X3331Y3767D01*
X3328Y3764D01*
X3324Y3762D01*
X3319Y3763D01*
X3318D01*
X3316Y3764D01*
X3314D01*
X3310Y3765D01*
X3307Y3766D01*
X3302Y3767D01*
X3290Y3769D01*
X3276Y3772D01*
X3262Y3774D01*
X3247Y3776D01*
X3232Y3778D01*
X3230D01*
X3226Y3779D01*
X3219Y3779D01*
X3212Y3780D01*
X3205Y3781D01*
X3198Y3782D01*
X3193Y3782D01*
X3188D01*
X3185Y3783D01*
X3181D01*
X3176Y3784D01*
X3171D01*
X3159Y3785D01*
X3145Y3786D01*
X3112D01*
X3095Y3785D01*
X3094Y3784D01*
X3094Y3783D01*
Y3780D01*
X3095Y3776D01*
Y3776D01*
X3096Y3775D01*
X3097Y3773D01*
X3099Y3770D01*
X3104Y3763D01*
X3111Y3753D01*
X3118Y3742D01*
X3127Y3728D01*
X3136Y3713D01*
X3146Y3697D01*
X3157Y3680D01*
X3168Y3662D01*
X3189Y3626D01*
X3199Y3608D01*
X3208Y3591D01*
X3216Y3574D01*
X3222Y3559D01*
Y3558D01*
X3224Y3555D01*
X3225Y3551D01*
X3228Y3546D01*
X3230Y3540D01*
X3232Y3534D01*
X3238Y3520D01*
X3243Y3505D01*
X3246Y3497D01*
X3248Y3491D01*
X3250Y3486D01*
X3250Y3482D01*
X3251Y3479D01*
Y3477D01*
Y3476D01*
Y3473D01*
Y3468D01*
X3250Y3463D01*
X3247Y3457D01*
X3245Y3452D01*
X3239Y3449D01*
X3232Y3448D01*
X3218D01*
X3210Y3449D01*
X3201Y3452D01*
X3193Y3458D01*
X3189Y3462D01*
X3186Y3466D01*
X3184Y3471D01*
X3182Y3477D01*
Y3479D01*
X3180Y3482D01*
X3179Y3488D01*
X3177Y3495D01*
X3174Y3505D01*
X3171Y3516D01*
X3168Y3528D01*
X3163Y3541D01*
X3158Y3556D01*
X3153Y3571D01*
X3140Y3602D01*
X3126Y3636D01*
X3109Y3668D01*
X3108Y3668D01*
X3107Y3671D01*
X3105Y3676D01*
X3102Y3681D01*
X3097Y3688D01*
X3093Y3695D01*
X3083Y3711D01*
X3073Y3728D01*
X3068Y3736D01*
X3062Y3743D01*
X3058Y3750D01*
X3054Y3756D01*
X3050Y3760D01*
X3047Y3763D01*
X3046D01*
X3045Y3765D01*
X3042Y3766D01*
X3039Y3768D01*
X3036Y3772D01*
X3033Y3777D01*
X3031Y3783D01*
X3031Y3790D01*
Y3791D01*
X3031Y3792D01*
X3034Y3796D01*
X3037Y3801D01*
X3040Y3808D01*
X3044Y3816D01*
X3048Y3822D01*
X3052Y3828D01*
X3056Y3833D01*
X3057D01*
X3060Y3833D01*
X3068D01*
X3077Y3833D01*
X3081Y3832D01*
X3084Y3830D01*
X3085D01*
X3087Y3829D01*
X3090Y3828D01*
X3093Y3827D01*
X3102Y3825D01*
X3109Y3824D01*
X3245D01*
X3253Y3825D01*
X3262Y3826D01*
X3270Y3827D01*
X3279Y3828D01*
X3287Y3830D01*
X3288D01*
X3290Y3830D01*
X3292Y3832D01*
X3294Y3833D01*
X3302Y3835D01*
X3310Y3836D01*
X3310Y3835D01*
D02*
G37*
G36*
X6483Y3835D02*
X6487Y3834D01*
X6492D01*
X6504Y3832D01*
X6518Y3830D01*
X6532Y3826D01*
X6546Y3821D01*
X6560Y3816D01*
X6561Y3815D01*
X6565Y3813D01*
X6571Y3810D01*
X6577Y3807D01*
X6584Y3804D01*
X6590Y3801D01*
X6595Y3798D01*
X6597Y3797D01*
X6597Y3796D01*
X6598D01*
X6600Y3795D01*
X6603Y3794D01*
X6606Y3793D01*
X6611Y3792D01*
X6620D01*
X6626Y3793D01*
X6627D01*
X6629Y3792D01*
X6631Y3790D01*
X6632Y3789D01*
X6633Y3786D01*
X6634Y3782D01*
Y3781D01*
X6634Y3777D01*
X6635Y3772D01*
X6636Y3764D01*
X6637Y3755D01*
X6637Y3745D01*
Y3733D01*
X6637Y3721D01*
Y3720D01*
X6635Y3718D01*
X6634Y3715D01*
X6632Y3713D01*
X6628Y3710D01*
X6623Y3710D01*
X6618Y3711D01*
X6615Y3713D01*
X6612Y3715D01*
X6611Y3716D01*
X6609Y3717D01*
X6606Y3719D01*
X6603Y3723D01*
X6598Y3727D01*
X6593Y3731D01*
X6581Y3742D01*
X6569Y3753D01*
X6555Y3763D01*
X6542Y3771D01*
X6536Y3775D01*
X6531Y3778D01*
X6529Y3779D01*
X6526Y3780D01*
X6521Y3782D01*
X6515Y3784D01*
X6506Y3787D01*
X6499Y3788D01*
X6491Y3790D01*
X6483Y3790D01*
X6479D01*
X6476Y3790D01*
X6469Y3788D01*
X6461Y3786D01*
X6451Y3782D01*
X6441Y3777D01*
X6431Y3770D01*
X6423Y3762D01*
X6422Y3760D01*
X6420Y3757D01*
X6416Y3752D01*
X6412Y3745D01*
X6409Y3738D01*
X6405Y3730D01*
X6403Y3721D01*
X6402Y3713D01*
Y3711D01*
X6403Y3708D01*
X6404Y3702D01*
X6407Y3695D01*
X6410Y3686D01*
X6415Y3676D01*
X6421Y3666D01*
X6429Y3655D01*
X6429Y3654D01*
X6433Y3650D01*
X6438Y3645D01*
X6444Y3637D01*
X6453Y3628D01*
X6463Y3619D01*
X6473Y3610D01*
X6485Y3600D01*
X6486Y3599D01*
X6490Y3596D01*
X6497Y3591D01*
X6504Y3585D01*
X6514Y3579D01*
X6523Y3572D01*
X6535Y3565D01*
X6545Y3558D01*
X6546Y3557D01*
X6549Y3556D01*
X6554Y3553D01*
X6559Y3550D01*
X6565Y3546D01*
X6571Y3543D01*
X6575Y3540D01*
X6578Y3539D01*
X6580Y3538D01*
X6583Y3537D01*
X6589Y3534D01*
X6595Y3531D01*
X6603Y3528D01*
X6611Y3525D01*
X6619Y3522D01*
X6626Y3520D01*
X6626Y3519D01*
X6629Y3517D01*
X6633Y3514D01*
X6637Y3508D01*
X6641Y3503D01*
X6644Y3495D01*
X6646Y3486D01*
X6645Y3475D01*
Y3474D01*
Y3471D01*
X6644Y3467D01*
X6642Y3463D01*
X6639Y3458D01*
X6633Y3454D01*
X6626Y3451D01*
X6620Y3450D01*
X6596D01*
X6586Y3451D01*
X6433D01*
X6391Y3450D01*
X6390D01*
X6387Y3451D01*
X6381Y3451D01*
X6375Y3453D01*
X6368Y3456D01*
X6361Y3460D01*
X6354Y3466D01*
X6347Y3474D01*
X6347Y3474D01*
X6345Y3477D01*
X6342Y3482D01*
X6339Y3487D01*
X6333Y3498D01*
X6331Y3504D01*
X6330Y3508D01*
Y3509D01*
X6330Y3511D01*
X6333Y3515D01*
X6335Y3517D01*
X6338Y3519D01*
X6342Y3520D01*
X6346Y3520D01*
X6347D01*
X6348Y3519D01*
X6350Y3518D01*
X6353Y3517D01*
X6358Y3515D01*
X6363Y3514D01*
X6370Y3511D01*
X6376Y3510D01*
X6384Y3508D01*
X6393Y3506D01*
X6404Y3504D01*
X6414Y3503D01*
X6425Y3501D01*
X6438Y3500D01*
X6451Y3500D01*
X6465Y3499D01*
X6484D01*
X6490Y3498D01*
X6522D01*
X6538Y3497D01*
X6560D01*
X6560Y3498D01*
X6557Y3500D01*
X6555Y3501D01*
X6547Y3505D01*
X6538Y3511D01*
X6526Y3517D01*
X6512Y3525D01*
X6498Y3534D01*
X6483Y3545D01*
X6467Y3556D01*
X6452Y3567D01*
X6436Y3579D01*
X6421Y3591D01*
X6408Y3604D01*
X6396Y3616D01*
X6386Y3630D01*
X6378Y3642D01*
X6378Y3643D01*
X6377Y3645D01*
X6375Y3649D01*
X6373Y3654D01*
X6370Y3659D01*
X6367Y3665D01*
X6361Y3678D01*
X6355Y3692D01*
X6351Y3705D01*
X6350Y3711D01*
X6348Y3716D01*
Y3721D01*
X6349Y3724D01*
Y3725D01*
X6350Y3727D01*
Y3730D01*
X6351Y3736D01*
X6353Y3742D01*
X6354Y3747D01*
X6359Y3762D01*
X6367Y3778D01*
X6371Y3786D01*
X6377Y3793D01*
X6383Y3800D01*
X6390Y3806D01*
X6398Y3811D01*
X6407Y3816D01*
X6407D01*
X6409Y3816D01*
X6411Y3818D01*
X6415Y3819D01*
X6423Y3822D01*
X6433Y3826D01*
X6444Y3829D01*
X6456Y3833D01*
X6466Y3835D01*
X6475Y3836D01*
X6480D01*
X6483Y3835D01*
D02*
G37*
G36*
X5742D02*
X5746Y3834D01*
X5752D01*
X5763Y3832D01*
X5777Y3830D01*
X5791Y3826D01*
X5806Y3821D01*
X5819Y3816D01*
X5820Y3815D01*
X5824Y3813D01*
X5830Y3810D01*
X5837Y3807D01*
X5843Y3804D01*
X5849Y3801D01*
X5854Y3798D01*
X5856Y3797D01*
X5857Y3796D01*
X5857D01*
X5859Y3795D01*
X5862Y3794D01*
X5866Y3793D01*
X5870Y3792D01*
X5880D01*
X5885Y3793D01*
X5886D01*
X5889Y3792D01*
X5890Y3790D01*
X5892Y3789D01*
X5892Y3786D01*
X5893Y3782D01*
Y3781D01*
X5894Y3777D01*
X5894Y3772D01*
X5895Y3764D01*
X5896Y3755D01*
X5897Y3745D01*
Y3733D01*
X5896Y3721D01*
Y3720D01*
X5894Y3718D01*
X5893Y3715D01*
X5891Y3713D01*
X5887Y3710D01*
X5883Y3710D01*
X5877Y3711D01*
X5874Y3713D01*
X5871Y3715D01*
X5870Y3716D01*
X5869Y3717D01*
X5866Y3719D01*
X5862Y3723D01*
X5857Y3727D01*
X5852Y3731D01*
X5840Y3742D01*
X5828Y3753D01*
X5815Y3763D01*
X5801Y3771D01*
X5795Y3775D01*
X5790Y3778D01*
X5789Y3779D01*
X5786Y3780D01*
X5781Y3782D01*
X5774Y3784D01*
X5766Y3787D01*
X5758Y3788D01*
X5750Y3790D01*
X5742Y3790D01*
X5738D01*
X5735Y3790D01*
X5729Y3788D01*
X5720Y3786D01*
X5710Y3782D01*
X5700Y3777D01*
X5690Y3770D01*
X5682Y3762D01*
X5681Y3760D01*
X5679Y3757D01*
X5675Y3752D01*
X5672Y3745D01*
X5668Y3738D01*
X5664Y3730D01*
X5662Y3721D01*
X5661Y3713D01*
Y3711D01*
X5662Y3708D01*
X5664Y3702D01*
X5666Y3695D01*
X5670Y3686D01*
X5674Y3676D01*
X5680Y3666D01*
X5688Y3655D01*
X5689Y3654D01*
X5692Y3650D01*
X5697Y3645D01*
X5704Y3637D01*
X5712Y3628D01*
X5722Y3619D01*
X5732Y3610D01*
X5744Y3600D01*
X5746Y3599D01*
X5749Y3596D01*
X5756Y3591D01*
X5763Y3585D01*
X5773Y3579D01*
X5783Y3572D01*
X5794Y3565D01*
X5804Y3558D01*
X5806Y3557D01*
X5809Y3556D01*
X5813Y3553D01*
X5818Y3550D01*
X5824Y3546D01*
X5830Y3543D01*
X5835Y3540D01*
X5837Y3539D01*
X5839Y3538D01*
X5843Y3537D01*
X5848Y3534D01*
X5854Y3531D01*
X5863Y3528D01*
X5870Y3525D01*
X5878Y3522D01*
X5885Y3520D01*
X5886Y3519D01*
X5889Y3517D01*
X5892Y3514D01*
X5897Y3508D01*
X5900Y3503D01*
X5903Y3495D01*
X5905Y3486D01*
X5904Y3475D01*
Y3474D01*
Y3471D01*
X5903Y3467D01*
X5901Y3463D01*
X5898Y3458D01*
X5892Y3454D01*
X5885Y3451D01*
X5880Y3450D01*
X5855D01*
X5845Y3451D01*
X5692D01*
X5650Y3450D01*
X5649D01*
X5646Y3451D01*
X5641Y3451D01*
X5634Y3453D01*
X5627Y3456D01*
X5620Y3460D01*
X5613Y3466D01*
X5607Y3474D01*
X5606Y3474D01*
X5604Y3477D01*
X5601Y3482D01*
X5598Y3487D01*
X5593Y3498D01*
X5590Y3504D01*
X5589Y3508D01*
Y3509D01*
X5590Y3511D01*
X5593Y3515D01*
X5595Y3517D01*
X5598Y3519D01*
X5601Y3520D01*
X5605Y3520D01*
X5606D01*
X5607Y3519D01*
X5610Y3518D01*
X5613Y3517D01*
X5617Y3515D01*
X5622Y3514D01*
X5629Y3511D01*
X5635Y3510D01*
X5644Y3508D01*
X5652Y3506D01*
X5663Y3504D01*
X5673Y3503D01*
X5684Y3501D01*
X5697Y3500D01*
X5710Y3500D01*
X5724Y3499D01*
X5743D01*
X5749Y3498D01*
X5781D01*
X5798Y3497D01*
X5820D01*
X5819Y3498D01*
X5817Y3500D01*
X5814Y3501D01*
X5806Y3505D01*
X5797Y3511D01*
X5785Y3517D01*
X5772Y3525D01*
X5758Y3534D01*
X5742Y3545D01*
X5726Y3556D01*
X5711Y3567D01*
X5695Y3579D01*
X5681Y3591D01*
X5667Y3604D01*
X5655Y3616D01*
X5645Y3630D01*
X5638Y3642D01*
X5637Y3643D01*
X5636Y3645D01*
X5635Y3649D01*
X5633Y3654D01*
X5630Y3659D01*
X5627Y3665D01*
X5621Y3678D01*
X5615Y3692D01*
X5610Y3705D01*
X5609Y3711D01*
X5607Y3716D01*
Y3721D01*
X5608Y3724D01*
Y3725D01*
X5609Y3727D01*
Y3730D01*
X5610Y3736D01*
X5612Y3742D01*
X5613Y3747D01*
X5618Y3762D01*
X5626Y3778D01*
X5630Y3786D01*
X5636Y3793D01*
X5642Y3800D01*
X5649Y3806D01*
X5657Y3811D01*
X5666Y3816D01*
X5667D01*
X5668Y3816D01*
X5670Y3818D01*
X5674Y3819D01*
X5682Y3822D01*
X5692Y3826D01*
X5704Y3829D01*
X5715Y3833D01*
X5726Y3835D01*
X5734Y3836D01*
X5739D01*
X5742Y3835D01*
D02*
G37*
G36*
X5351D02*
X5355Y3834D01*
X5360D01*
X5372Y3832D01*
X5385Y3830D01*
X5399Y3826D01*
X5414Y3821D01*
X5428Y3816D01*
X5429Y3815D01*
X5433Y3813D01*
X5439Y3810D01*
X5445Y3807D01*
X5452Y3804D01*
X5458Y3801D01*
X5463Y3798D01*
X5465Y3797D01*
X5465Y3796D01*
X5466D01*
X5467Y3795D01*
X5470Y3794D01*
X5474Y3793D01*
X5479Y3792D01*
X5488D01*
X5493Y3793D01*
X5495D01*
X5497Y3792D01*
X5499Y3790D01*
X5500Y3789D01*
X5501Y3786D01*
X5502Y3782D01*
Y3781D01*
X5502Y3777D01*
X5503Y3772D01*
X5504Y3764D01*
X5504Y3755D01*
X5505Y3745D01*
Y3733D01*
X5504Y3721D01*
Y3720D01*
X5503Y3718D01*
X5502Y3715D01*
X5499Y3713D01*
X5496Y3710D01*
X5491Y3710D01*
X5486Y3711D01*
X5483Y3713D01*
X5479Y3715D01*
X5479Y3716D01*
X5477Y3717D01*
X5474Y3719D01*
X5470Y3723D01*
X5466Y3727D01*
X5461Y3731D01*
X5449Y3742D01*
X5436Y3753D01*
X5423Y3763D01*
X5410Y3771D01*
X5404Y3775D01*
X5399Y3778D01*
X5397Y3779D01*
X5394Y3780D01*
X5389Y3782D01*
X5382Y3784D01*
X5374Y3787D01*
X5367Y3788D01*
X5359Y3790D01*
X5351Y3790D01*
X5347D01*
X5344Y3790D01*
X5337Y3788D01*
X5328Y3786D01*
X5319Y3782D01*
X5308Y3777D01*
X5299Y3770D01*
X5291Y3762D01*
X5290Y3760D01*
X5288Y3757D01*
X5284Y3752D01*
X5280Y3745D01*
X5277Y3738D01*
X5273Y3730D01*
X5271Y3721D01*
X5270Y3713D01*
Y3711D01*
X5271Y3708D01*
X5272Y3702D01*
X5274Y3695D01*
X5278Y3686D01*
X5282Y3676D01*
X5288Y3666D01*
X5297Y3655D01*
X5297Y3654D01*
X5301Y3650D01*
X5305Y3645D01*
X5312Y3637D01*
X5321Y3628D01*
X5331Y3619D01*
X5341Y3610D01*
X5353Y3600D01*
X5354Y3599D01*
X5358Y3596D01*
X5365Y3591D01*
X5372Y3585D01*
X5382Y3579D01*
X5391Y3572D01*
X5402Y3565D01*
X5413Y3558D01*
X5414Y3557D01*
X5417Y3556D01*
X5422Y3553D01*
X5427Y3550D01*
X5433Y3546D01*
X5439Y3543D01*
X5443Y3540D01*
X5446Y3539D01*
X5447Y3538D01*
X5451Y3537D01*
X5456Y3534D01*
X5463Y3531D01*
X5471Y3528D01*
X5479Y3525D01*
X5487Y3522D01*
X5493Y3520D01*
X5494Y3519D01*
X5497Y3517D01*
X5501Y3514D01*
X5505Y3508D01*
X5509Y3503D01*
X5512Y3495D01*
X5513Y3486D01*
X5513Y3475D01*
Y3474D01*
Y3471D01*
X5512Y3467D01*
X5510Y3463D01*
X5507Y3458D01*
X5501Y3454D01*
X5493Y3451D01*
X5488Y3450D01*
X5464D01*
X5453Y3451D01*
X5301D01*
X5259Y3450D01*
X5257D01*
X5254Y3451D01*
X5249Y3451D01*
X5243Y3453D01*
X5236Y3456D01*
X5228Y3460D01*
X5222Y3466D01*
X5215Y3474D01*
X5214Y3474D01*
X5213Y3477D01*
X5210Y3482D01*
X5207Y3487D01*
X5201Y3498D01*
X5199Y3504D01*
X5197Y3508D01*
Y3509D01*
X5198Y3511D01*
X5201Y3515D01*
X5203Y3517D01*
X5206Y3519D01*
X5210Y3520D01*
X5214Y3520D01*
X5214D01*
X5216Y3519D01*
X5218Y3518D01*
X5221Y3517D01*
X5225Y3515D01*
X5231Y3514D01*
X5237Y3511D01*
X5244Y3510D01*
X5252Y3508D01*
X5261Y3506D01*
X5271Y3504D01*
X5282Y3503D01*
X5293Y3501D01*
X5305Y3500D01*
X5319Y3500D01*
X5333Y3499D01*
X5351D01*
X5358Y3498D01*
X5390D01*
X5406Y3497D01*
X5428D01*
X5428Y3498D01*
X5425Y3500D01*
X5422Y3501D01*
X5415Y3505D01*
X5405Y3511D01*
X5393Y3517D01*
X5380Y3525D01*
X5366Y3534D01*
X5351Y3545D01*
X5335Y3556D01*
X5319Y3567D01*
X5304Y3579D01*
X5289Y3591D01*
X5276Y3604D01*
X5264Y3616D01*
X5254Y3630D01*
X5246Y3642D01*
X5245Y3643D01*
X5245Y3645D01*
X5243Y3649D01*
X5241Y3654D01*
X5238Y3659D01*
X5235Y3665D01*
X5229Y3678D01*
X5223Y3692D01*
X5219Y3705D01*
X5217Y3711D01*
X5216Y3716D01*
Y3721D01*
X5217Y3724D01*
Y3725D01*
X5217Y3727D01*
Y3730D01*
X5219Y3736D01*
X5220Y3742D01*
X5222Y3747D01*
X5227Y3762D01*
X5234Y3778D01*
X5239Y3786D01*
X5245Y3793D01*
X5251Y3800D01*
X5257Y3806D01*
X5265Y3811D01*
X5274Y3816D01*
X5275D01*
X5277Y3816D01*
X5279Y3818D01*
X5282Y3819D01*
X5291Y3822D01*
X5301Y3826D01*
X5312Y3829D01*
X5324Y3833D01*
X5334Y3835D01*
X5342Y3836D01*
X5348D01*
X5351Y3835D01*
D02*
G37*
G36*
X4275Y3840D02*
X4280D01*
X4285Y3839D01*
X4292Y3838D01*
X4306Y3835D01*
X4323Y3830D01*
X4340Y3822D01*
X4348Y3818D01*
X4356Y3813D01*
X4363Y3806D01*
X4370Y3799D01*
Y3799D01*
X4372Y3798D01*
X4373Y3796D01*
X4375Y3793D01*
X4380Y3784D01*
X4386Y3774D01*
X4393Y3761D01*
X4398Y3746D01*
X4402Y3730D01*
X4403Y3722D01*
X4403Y3713D01*
Y3712D01*
Y3710D01*
X4403Y3708D01*
X4402Y3704D01*
X4401Y3699D01*
X4400Y3693D01*
X4397Y3681D01*
X4392Y3667D01*
X4383Y3652D01*
X4379Y3645D01*
X4373Y3638D01*
X4367Y3631D01*
X4360Y3625D01*
X4359D01*
X4357Y3624D01*
X4355Y3622D01*
X4352Y3621D01*
X4344Y3616D01*
X4334Y3611D01*
X4321Y3605D01*
X4306Y3599D01*
X4291Y3597D01*
X4275Y3595D01*
X4271D01*
X4267Y3596D01*
X4262Y3597D01*
X4255Y3597D01*
X4248Y3598D01*
X4240Y3599D01*
X4231Y3600D01*
X4212Y3604D01*
X4193Y3609D01*
X4175Y3615D01*
X4167Y3619D01*
X4160Y3623D01*
Y3622D01*
X4161Y3619D01*
Y3616D01*
X4162Y3611D01*
X4163Y3604D01*
X4164Y3597D01*
X4170Y3580D01*
X4175Y3562D01*
X4184Y3545D01*
X4190Y3536D01*
X4196Y3528D01*
X4203Y3521D01*
X4210Y3515D01*
X4211D01*
X4212Y3514D01*
X4215Y3512D01*
X4218Y3511D01*
X4225Y3506D01*
X4235Y3501D01*
X4247Y3496D01*
X4260Y3491D01*
X4273Y3489D01*
X4286Y3488D01*
X4290D01*
X4295Y3489D01*
X4302Y3491D01*
X4309Y3493D01*
X4318Y3496D01*
X4325Y3500D01*
X4332Y3505D01*
X4333Y3506D01*
X4335Y3508D01*
X4338Y3511D01*
X4341Y3515D01*
X4349Y3525D01*
X4352Y3529D01*
X4353Y3534D01*
X4354Y3534D01*
X4355Y3536D01*
X4357Y3539D01*
X4360Y3543D01*
X4363Y3547D01*
X4365Y3552D01*
X4366Y3558D01*
X4367Y3564D01*
X4368Y3565D01*
X4370Y3567D01*
X4372Y3568D01*
X4379D01*
X4383Y3567D01*
X4384D01*
X4385Y3566D01*
X4390Y3563D01*
X4397Y3557D01*
X4403Y3550D01*
X4404Y3549D01*
X4406Y3547D01*
X4407Y3543D01*
X4409Y3539D01*
X4412Y3534D01*
X4413Y3528D01*
X4414Y3522D01*
X4413Y3517D01*
Y3516D01*
X4412Y3514D01*
X4411Y3512D01*
X4410Y3509D01*
X4406Y3503D01*
X4403Y3500D01*
X4400Y3497D01*
X4400Y3497D01*
X4399Y3496D01*
X4395Y3491D01*
X4389Y3486D01*
X4380Y3478D01*
X4369Y3471D01*
X4357Y3464D01*
X4343Y3458D01*
X4328Y3454D01*
X4326D01*
X4324Y3454D01*
X4321D01*
X4314Y3452D01*
X4305Y3451D01*
X4295Y3450D01*
X4286Y3449D01*
X4278Y3448D01*
X4268D01*
X4263Y3449D01*
X4258Y3449D01*
X4250Y3450D01*
X4242Y3451D01*
X4233Y3454D01*
X4224Y3456D01*
X4213Y3460D01*
X4204Y3463D01*
X4193Y3469D01*
X4183Y3474D01*
X4172Y3481D01*
X4164Y3489D01*
X4155Y3498D01*
X4147Y3508D01*
X4147Y3509D01*
X4146Y3511D01*
X4144Y3514D01*
X4141Y3518D01*
X4138Y3523D01*
X4135Y3529D01*
X4132Y3537D01*
X4128Y3544D01*
X4121Y3560D01*
X4115Y3578D01*
X4111Y3597D01*
X4110Y3605D01*
X4110Y3614D01*
Y3656D01*
Y3657D01*
Y3659D01*
X4110Y3662D01*
Y3667D01*
X4111Y3673D01*
X4112Y3679D01*
X4114Y3693D01*
X4117Y3710D01*
X4121Y3727D01*
X4127Y3743D01*
X4135Y3759D01*
Y3759D01*
X4135Y3760D01*
X4138Y3765D01*
X4144Y3771D01*
X4150Y3779D01*
X4157Y3788D01*
X4166Y3797D01*
X4175Y3806D01*
X4187Y3813D01*
X4188Y3813D01*
X4192Y3816D01*
X4197Y3819D01*
X4204Y3821D01*
X4213Y3825D01*
X4222Y3829D01*
X4232Y3833D01*
X4241Y3835D01*
X4242D01*
X4245Y3836D01*
X4249Y3837D01*
X4254Y3838D01*
X4259Y3839D01*
X4263Y3840D01*
X4267Y3841D01*
X4272D01*
X4275Y3840D01*
D02*
G37*
G36*
X3507Y3932D02*
X3512Y3931D01*
X3518Y3927D01*
X3524Y3923D01*
X3525Y3922D01*
X3528Y3920D01*
X3532Y3918D01*
X3534D01*
X3536Y3919D01*
X3537Y3918D01*
X3540Y3918D01*
X3543Y3917D01*
X3548Y3916D01*
X3744D01*
X3747Y3917D01*
X3751Y3918D01*
X3754Y3922D01*
X3755Y3923D01*
X3758Y3924D01*
X3762Y3926D01*
X3768Y3927D01*
X3774Y3930D01*
X3783Y3931D01*
X3791Y3932D01*
X3802D01*
X3805Y3931D01*
X3810Y3930D01*
X3815Y3927D01*
X3821Y3924D01*
X3827Y3918D01*
X3832Y3912D01*
X3836Y3902D01*
Y3901D01*
X3837Y3898D01*
X3837Y3894D01*
Y3889D01*
Y3882D01*
X3837Y3875D01*
X3835Y3868D01*
X3833Y3861D01*
X3832Y3859D01*
X3831Y3856D01*
X3830Y3850D01*
X3828Y3843D01*
X3825Y3833D01*
X3823Y3823D01*
X3821Y3810D01*
X3819Y3796D01*
X3817Y3782D01*
X3816Y3765D01*
Y3748D01*
X3817Y3731D01*
X3818Y3713D01*
X3820Y3694D01*
X3825Y3676D01*
X3830Y3656D01*
Y3656D01*
X3831Y3654D01*
X3832Y3652D01*
X3834Y3649D01*
X3839Y3641D01*
X3845Y3631D01*
X3854Y3620D01*
X3865Y3609D01*
X3877Y3599D01*
X3892Y3589D01*
X3893D01*
X3893Y3588D01*
X3896Y3587D01*
X3899Y3585D01*
X3903Y3584D01*
X3908Y3582D01*
X3918Y3579D01*
X3931Y3575D01*
X3946Y3571D01*
X3962Y3570D01*
X3979D01*
X3982Y3571D01*
X3988D01*
X3996Y3571D01*
X4004Y3572D01*
X4013D01*
X4034Y3573D01*
X4035D01*
X4036Y3572D01*
X4037Y3571D01*
X4039Y3569D01*
X4041Y3566D01*
X4042Y3562D01*
Y3557D01*
X4040Y3550D01*
Y3549D01*
X4039Y3547D01*
X4037Y3543D01*
X4036Y3539D01*
X4029Y3529D01*
X4025Y3524D01*
X4020Y3520D01*
X4019Y3519D01*
X4019Y3518D01*
X4014Y3514D01*
X4007Y3508D01*
X3997Y3502D01*
X3985Y3496D01*
X3970Y3491D01*
X3963Y3489D01*
X3954Y3488D01*
X3945Y3488D01*
X3936Y3488D01*
X3934D01*
X3931Y3489D01*
X3928Y3490D01*
X3924Y3491D01*
X3919Y3492D01*
X3907Y3496D01*
X3893Y3500D01*
X3879Y3508D01*
X3864Y3517D01*
X3850Y3528D01*
X3849Y3528D01*
X3848Y3530D01*
X3845Y3533D01*
X3842Y3537D01*
X3838Y3541D01*
X3833Y3547D01*
X3828Y3554D01*
X3822Y3561D01*
X3816Y3569D01*
X3810Y3579D01*
X3803Y3588D01*
X3797Y3599D01*
X3790Y3611D01*
X3783Y3624D01*
X3771Y3651D01*
Y3651D01*
Y3653D01*
Y3655D01*
Y3658D01*
X3770Y3662D01*
X3768Y3665D01*
X3765Y3669D01*
X3760Y3673D01*
X3755D01*
X3749Y3674D01*
X3731D01*
X3720Y3675D01*
X3706D01*
X3692Y3676D01*
X3622D01*
X3583Y3675D01*
X3542Y3673D01*
X3541D01*
X3541Y3673D01*
X3538Y3671D01*
X3536Y3668D01*
X3535Y3665D01*
X3534Y3661D01*
Y3656D01*
Y3655D01*
X3533Y3651D01*
X3532Y3645D01*
X3531Y3636D01*
X3529Y3625D01*
X3529Y3613D01*
X3528Y3599D01*
Y3583D01*
Y3582D01*
Y3582D01*
Y3580D01*
Y3576D01*
Y3568D01*
Y3557D01*
Y3545D01*
Y3531D01*
Y3517D01*
Y3503D01*
Y3502D01*
Y3499D01*
X3527Y3495D01*
X3526Y3491D01*
X3523Y3487D01*
X3520Y3483D01*
X3515Y3480D01*
X3509Y3477D01*
X3496D01*
X3490Y3478D01*
X3484Y3479D01*
X3477Y3481D01*
X3469Y3483D01*
X3469Y3484D01*
X3467Y3485D01*
X3463Y3487D01*
X3458Y3491D01*
X3454Y3495D01*
X3449Y3501D01*
X3445Y3508D01*
X3441Y3517D01*
Y3518D01*
X3442Y3522D01*
Y3527D01*
X3443Y3535D01*
X3444Y3544D01*
X3445Y3554D01*
X3446Y3566D01*
X3447Y3578D01*
Y3579D01*
Y3580D01*
Y3582D01*
Y3585D01*
X3448Y3593D01*
Y3602D01*
X3449Y3614D01*
Y3628D01*
X3449Y3642D01*
Y3656D01*
Y3816D01*
Y3816D01*
Y3817D01*
Y3819D01*
Y3822D01*
X3449Y3830D01*
Y3840D01*
X3449Y3852D01*
X3450Y3864D01*
X3451Y3878D01*
X3453Y3893D01*
Y3893D01*
Y3894D01*
X3455Y3898D01*
X3458Y3904D01*
X3461Y3912D01*
X3468Y3919D01*
X3472Y3923D01*
X3478Y3926D01*
X3484Y3928D01*
X3490Y3931D01*
X3498Y3932D01*
X3506Y3933D01*
X3506D01*
X3507Y3932D01*
D02*
G37*
G36*
X6131Y3849D02*
X6133Y3847D01*
X6134Y3846D01*
X6136Y3844D01*
X6138Y3841D01*
X6142Y3839D01*
X6147Y3835D01*
X6152Y3833D01*
X6159Y3830D01*
X6167Y3830D01*
X6168D01*
X6170Y3828D01*
X6173Y3826D01*
X6178Y3824D01*
X6184Y3820D01*
X6190Y3816D01*
X6205Y3806D01*
X6220Y3793D01*
X6235Y3777D01*
X6242Y3768D01*
X6247Y3759D01*
X6253Y3749D01*
X6257Y3739D01*
Y3738D01*
X6258Y3736D01*
X6259Y3733D01*
X6260Y3729D01*
X6262Y3724D01*
X6263Y3719D01*
X6266Y3705D01*
X6270Y3689D01*
X6272Y3672D01*
X6273Y3654D01*
Y3637D01*
Y3636D01*
Y3633D01*
X6273Y3628D01*
X6272Y3621D01*
X6271Y3613D01*
X6270Y3603D01*
X6268Y3593D01*
X6266Y3582D01*
X6259Y3557D01*
X6255Y3545D01*
X6250Y3534D01*
X6244Y3522D01*
X6238Y3511D01*
X6230Y3501D01*
X6222Y3492D01*
X6221Y3491D01*
X6219Y3490D01*
X6216Y3488D01*
X6213Y3486D01*
X6208Y3482D01*
X6203Y3478D01*
X6196Y3474D01*
X6190Y3470D01*
X6173Y3462D01*
X6154Y3454D01*
X6145Y3452D01*
X6133Y3450D01*
X6122Y3449D01*
X6111Y3448D01*
X6106D01*
X6102Y3449D01*
X6097Y3449D01*
X6091Y3450D01*
X6078Y3454D01*
X6062Y3459D01*
X6054Y3463D01*
X6045Y3466D01*
X6037Y3471D01*
X6028Y3477D01*
X6020Y3484D01*
X6012Y3492D01*
X6011Y3493D01*
X6010Y3494D01*
X6008Y3497D01*
X6005Y3500D01*
X6002Y3505D01*
X5998Y3511D01*
X5994Y3518D01*
X5990Y3526D01*
X5985Y3535D01*
X5982Y3545D01*
X5977Y3557D01*
X5974Y3570D01*
X5971Y3583D01*
X5968Y3598D01*
X5966Y3614D01*
X5965Y3631D01*
Y3633D01*
X5966Y3636D01*
X5967Y3642D01*
X5968Y3651D01*
X5969Y3660D01*
X5971Y3671D01*
X5974Y3684D01*
X5976Y3696D01*
X5984Y3724D01*
X5988Y3737D01*
X5994Y3750D01*
X6000Y3763D01*
X6008Y3774D01*
X6016Y3784D01*
X6025Y3793D01*
X6025Y3794D01*
X6027Y3795D01*
X6029Y3797D01*
X6033Y3800D01*
X6041Y3807D01*
X6051Y3815D01*
X6061Y3822D01*
X6071Y3829D01*
X6075Y3832D01*
X6078Y3834D01*
X6081Y3835D01*
X6083Y3836D01*
X6084D01*
X6086Y3836D01*
X6089Y3837D01*
X6093Y3838D01*
X6102Y3841D01*
X6111Y3847D01*
X6112D01*
X6114Y3848D01*
X6116Y3849D01*
X6120Y3850D01*
X6124Y3850D01*
X6128D01*
X6131Y3849D01*
D02*
G37*
%LPC*%
G36*
X5881Y5624D02*
X5875D01*
X5869Y5624D01*
X5867D01*
X5864Y5623D01*
X5850D01*
X5840Y5624D01*
X5839Y5624D01*
X5838Y5623D01*
X5835Y5619D01*
X5840Y5590D01*
X5841Y5590D01*
X5843Y5587D01*
X5847Y5584D01*
X5851Y5581D01*
X5857Y5579D01*
X5864Y5578D01*
X5871Y5579D01*
X5875Y5580D01*
X5879Y5582D01*
X5880Y5583D01*
X5881Y5584D01*
X5883Y5587D01*
X5885Y5591D01*
X5886Y5597D01*
X5887Y5604D01*
Y5612D01*
X5885Y5621D01*
Y5622D01*
X5883Y5624D01*
X5881Y5624D01*
D02*
G37*
G36*
X5874Y5451D02*
X5826D01*
X5824Y5450D01*
X5824Y5448D01*
Y5447D01*
X5825Y5444D01*
X5827Y5438D01*
X5829Y5431D01*
X5831Y5424D01*
X5834Y5415D01*
X5840Y5398D01*
X5841Y5397D01*
X5842Y5394D01*
X5844Y5391D01*
X5847Y5387D01*
X5851Y5384D01*
X5855Y5382D01*
X5861D01*
X5864Y5383D01*
X5867Y5385D01*
X5867Y5386D01*
X5869Y5388D01*
X5872Y5390D01*
X5875Y5393D01*
X5882Y5401D01*
X5885Y5405D01*
X5887Y5409D01*
Y5410D01*
X5888Y5411D01*
X5889Y5414D01*
X5889Y5416D01*
X5891Y5425D01*
X5890Y5429D01*
X5889Y5434D01*
Y5435D01*
X5889Y5436D01*
X5886Y5442D01*
X5881Y5447D01*
X5878Y5449D01*
X5874Y5451D01*
D02*
G37*
G36*
X1518Y5602D02*
X1488D01*
X1484Y5601D01*
X1475Y5600D01*
X1465Y5598D01*
X1455Y5595D01*
X1444Y5591D01*
X1434Y5586D01*
X1430Y5583D01*
X1427Y5579D01*
X1427Y5579D01*
X1425Y5576D01*
X1422Y5573D01*
X1419Y5567D01*
X1417Y5562D01*
X1414Y5556D01*
X1412Y5550D01*
X1412Y5543D01*
Y5542D01*
X1412Y5538D01*
X1414Y5532D01*
X1417Y5525D01*
X1421Y5516D01*
X1426Y5508D01*
X1433Y5500D01*
X1443Y5493D01*
X1444Y5492D01*
X1447Y5490D01*
X1452Y5488D01*
X1459Y5485D01*
X1466Y5482D01*
X1475Y5479D01*
X1482Y5479D01*
X1531D01*
X1555Y5479D01*
X1566Y5480D01*
X1577Y5481D01*
X1588Y5482D01*
X1597Y5483D01*
X1605Y5485D01*
X1610Y5488D01*
X1613Y5490D01*
Y5491D01*
Y5493D01*
Y5493D01*
X1614Y5496D01*
X1614Y5500D01*
X1615Y5506D01*
X1616Y5513D01*
X1617Y5520D01*
Y5529D01*
X1616Y5538D01*
Y5539D01*
Y5539D01*
Y5544D01*
Y5550D01*
X1615Y5557D01*
X1614Y5565D01*
X1612Y5573D01*
X1609Y5580D01*
X1605Y5585D01*
X1604D01*
X1603Y5586D01*
X1600Y5587D01*
X1597Y5588D01*
X1593Y5590D01*
X1588Y5591D01*
X1582Y5593D01*
X1575Y5595D01*
X1567Y5596D01*
X1559Y5598D01*
X1549Y5599D01*
X1540Y5600D01*
X1529Y5601D01*
X1518Y5602D01*
D02*
G37*
G36*
X1542Y5442D02*
X1529Y5441D01*
X1516D01*
X1502Y5440D01*
X1487Y5439D01*
X1486D01*
X1485Y5439D01*
X1482D01*
X1478Y5438D01*
X1473Y5436D01*
X1468Y5436D01*
X1455Y5432D01*
X1443Y5427D01*
X1429Y5421D01*
X1418Y5413D01*
X1413Y5408D01*
X1409Y5403D01*
X1409Y5402D01*
X1407Y5399D01*
X1403Y5394D01*
X1399Y5387D01*
X1396Y5380D01*
X1392Y5373D01*
X1390Y5365D01*
X1390Y5359D01*
Y5358D01*
X1390Y5354D01*
X1392Y5350D01*
X1393Y5345D01*
X1397Y5339D01*
X1401Y5332D01*
X1407Y5326D01*
X1415Y5321D01*
X1415Y5320D01*
X1418Y5319D01*
X1422Y5317D01*
X1427Y5314D01*
X1439Y5309D01*
X1445Y5307D01*
X1451Y5306D01*
X1452D01*
X1455Y5305D01*
X1457D01*
X1464Y5304D01*
X1474Y5303D01*
X1484Y5303D01*
X1497Y5302D01*
X1510D01*
X1523Y5303D01*
X1526D01*
X1529Y5303D01*
X1533D01*
X1538Y5304D01*
X1544Y5305D01*
X1557Y5306D01*
X1571Y5308D01*
X1585Y5310D01*
X1597Y5311D01*
X1603Y5313D01*
X1607Y5314D01*
Y5314D01*
Y5316D01*
X1608Y5318D01*
X1609Y5321D01*
X1610Y5329D01*
X1612Y5340D01*
X1613Y5351D01*
X1614Y5365D01*
X1615Y5378D01*
X1616Y5392D01*
Y5393D01*
Y5395D01*
X1617Y5398D01*
Y5402D01*
X1616Y5408D01*
Y5414D01*
X1613Y5425D01*
Y5426D01*
X1612Y5428D01*
X1609Y5430D01*
X1605Y5433D01*
X1599Y5436D01*
X1591Y5438D01*
X1580Y5440D01*
X1575D01*
X1567Y5441D01*
X1552D01*
X1542Y5442D01*
D02*
G37*
G36*
X2011Y5590D02*
X1990D01*
X1987Y5590D01*
X1983Y5589D01*
X1978Y5587D01*
X1971Y5586D01*
X1957Y5581D01*
X1950Y5578D01*
X1942Y5573D01*
X1934Y5569D01*
X1926Y5563D01*
X1919Y5556D01*
X1911Y5549D01*
X1905Y5540D01*
X1899Y5530D01*
X1898Y5530D01*
X1897Y5528D01*
X1896Y5525D01*
X1893Y5522D01*
X1891Y5516D01*
X1889Y5511D01*
X1883Y5499D01*
X1877Y5484D01*
X1873Y5469D01*
X1869Y5454D01*
X1868Y5439D01*
Y5439D01*
Y5436D01*
X1868Y5432D01*
X1869Y5427D01*
X1870Y5421D01*
X1871Y5414D01*
X1874Y5398D01*
X1879Y5381D01*
X1886Y5363D01*
X1895Y5348D01*
X1901Y5340D01*
X1907Y5334D01*
X1908Y5333D01*
X1913Y5330D01*
X1919Y5325D01*
X1927Y5320D01*
X1936Y5314D01*
X1947Y5308D01*
X1957Y5305D01*
X1968Y5303D01*
X1973D01*
X1980Y5302D01*
X1988D01*
X1998Y5301D01*
X2010D01*
X2022Y5300D01*
X2041D01*
X2048Y5301D01*
X2057D01*
X2067Y5303D01*
X2078Y5304D01*
X2089Y5306D01*
X2099Y5308D01*
X2101Y5310D01*
X2102Y5312D01*
X2104Y5315D01*
X2106Y5320D01*
X2108Y5327D01*
X2110Y5336D01*
X2111Y5347D01*
Y5348D01*
Y5348D01*
Y5353D01*
X2112Y5359D01*
Y5366D01*
Y5375D01*
Y5384D01*
Y5392D01*
X2111Y5400D01*
Y5401D01*
Y5402D01*
Y5405D01*
Y5408D01*
Y5412D01*
X2112Y5417D01*
Y5429D01*
X2111Y5443D01*
Y5459D01*
X2110Y5477D01*
X2108Y5496D01*
Y5496D01*
Y5499D01*
Y5503D01*
X2107Y5508D01*
Y5513D01*
X2107Y5520D01*
X2106Y5535D01*
X2104Y5550D01*
X2103Y5564D01*
X2102Y5570D01*
X2101Y5576D01*
X2100Y5579D01*
X2099Y5582D01*
X2098Y5583D01*
X2096Y5584D01*
X2093Y5585D01*
X2087Y5587D01*
X2079Y5587D01*
X2075Y5588D01*
X2069D01*
X2062Y5589D01*
X2048D01*
X2041Y5590D01*
X2021D01*
X2011Y5590D01*
D02*
G37*
G36*
X5123Y5525D02*
X5101D01*
X5093Y5524D01*
X5086Y5522D01*
X5078Y5521D01*
X5071Y5518D01*
Y5517D01*
X5070Y5516D01*
X5069Y5512D01*
X5068Y5508D01*
X5067Y5503D01*
Y5496D01*
X5068Y5490D01*
X5070Y5482D01*
Y5481D01*
X5072Y5478D01*
X5073Y5475D01*
X5075Y5471D01*
X5078Y5468D01*
X5081Y5464D01*
X5084Y5462D01*
X5088D01*
X5090Y5463D01*
X5093Y5465D01*
X5099Y5468D01*
X5107Y5473D01*
X5115Y5480D01*
X5124Y5488D01*
X5131Y5498D01*
X5138Y5510D01*
Y5510D01*
X5139Y5512D01*
Y5514D01*
Y5517D01*
X5137Y5519D01*
X5133Y5522D01*
X5127Y5524D01*
X5123Y5525D01*
D02*
G37*
G36*
X3821Y5515D02*
X3819D01*
X3817Y5514D01*
X3814D01*
X3806Y5513D01*
X3795Y5510D01*
X3784Y5505D01*
X3772Y5499D01*
X3760Y5491D01*
X3750Y5480D01*
X3749Y5479D01*
X3746Y5474D01*
X3741Y5468D01*
X3736Y5459D01*
X3731Y5449D01*
X3726Y5436D01*
X3723Y5423D01*
X3721Y5409D01*
Y5408D01*
Y5407D01*
X3721Y5403D01*
X3722Y5399D01*
X3723Y5395D01*
X3724Y5389D01*
X3728Y5377D01*
X3733Y5363D01*
X3740Y5349D01*
X3750Y5337D01*
X3756Y5331D01*
X3763Y5326D01*
X3763D01*
X3764Y5325D01*
X3769Y5323D01*
X3775Y5319D01*
X3784Y5315D01*
X3795Y5311D01*
X3805Y5308D01*
X3816Y5306D01*
X3833D01*
X3840Y5306D01*
X3849Y5308D01*
X3858Y5309D01*
X3869Y5312D01*
X3880Y5317D01*
X3890Y5322D01*
X3891Y5323D01*
X3894Y5325D01*
X3899Y5328D01*
X3905Y5332D01*
X3911Y5337D01*
X3918Y5343D01*
X3925Y5349D01*
X3931Y5356D01*
Y5454D01*
X3930Y5455D01*
X3928Y5459D01*
X3924Y5464D01*
X3918Y5471D01*
X3911Y5479D01*
X3903Y5486D01*
X3894Y5493D01*
X3883Y5499D01*
X3882Y5500D01*
X3878Y5502D01*
X3871Y5505D01*
X3864Y5508D01*
X3854Y5510D01*
X3844Y5513D01*
X3833Y5514D01*
X3821Y5515D01*
D02*
G37*
G36*
X1115Y5593D02*
X1111D01*
X1108Y5593D01*
X1099Y5591D01*
X1089Y5589D01*
X1077Y5584D01*
X1065Y5578D01*
X1059Y5573D01*
X1053Y5568D01*
X1048Y5562D01*
X1042Y5556D01*
Y5555D01*
X1040Y5554D01*
X1039Y5552D01*
X1037Y5549D01*
X1032Y5542D01*
X1026Y5532D01*
X1020Y5521D01*
X1014Y5508D01*
X1009Y5495D01*
X1006Y5482D01*
Y5481D01*
X1008Y5478D01*
X1011Y5473D01*
X1014Y5468D01*
X1021Y5462D01*
X1030Y5456D01*
X1035Y5454D01*
X1041Y5451D01*
X1048Y5449D01*
X1056Y5447D01*
X1057D01*
X1058Y5446D01*
X1060D01*
X1062Y5445D01*
X1071Y5444D01*
X1080Y5442D01*
X1091Y5441D01*
X1102Y5439D01*
X1122D01*
X1125Y5440D01*
X1128D01*
X1135Y5442D01*
X1145Y5444D01*
X1155Y5448D01*
X1165Y5452D01*
X1175Y5458D01*
X1184Y5466D01*
X1185Y5467D01*
X1187Y5471D01*
X1190Y5475D01*
X1194Y5481D01*
X1198Y5488D01*
X1202Y5496D01*
X1204Y5504D01*
X1205Y5513D01*
Y5513D01*
Y5514D01*
X1204Y5519D01*
X1203Y5526D01*
X1201Y5535D01*
X1197Y5544D01*
X1192Y5554D01*
X1185Y5564D01*
X1174Y5572D01*
X1173Y5573D01*
X1169Y5576D01*
X1163Y5579D01*
X1155Y5583D01*
X1146Y5587D01*
X1136Y5590D01*
X1125Y5593D01*
X1115Y5593D01*
D02*
G37*
G36*
X3436Y5518D02*
X3434D01*
X3432Y5517D01*
X3429D01*
X3422Y5516D01*
X3413Y5513D01*
X3402Y5510D01*
X3392Y5505D01*
X3381Y5499D01*
X3371Y5491D01*
X3370Y5490D01*
X3367Y5488D01*
X3362Y5482D01*
X3357Y5476D01*
X3351Y5470D01*
X3345Y5462D01*
X3339Y5454D01*
X3335Y5445D01*
X3340D01*
X3346Y5445D01*
X3354D01*
X3364Y5444D01*
X3376D01*
X3390Y5443D01*
X3405Y5442D01*
X3421Y5442D01*
X3438D01*
X3456Y5441D01*
X3475Y5440D01*
X3515Y5439D01*
X3555D01*
Y5440D01*
X3555Y5441D01*
X3554Y5443D01*
X3553Y5446D01*
X3549Y5453D01*
X3543Y5462D01*
X3536Y5471D01*
X3527Y5481D01*
X3516Y5490D01*
X3504Y5498D01*
X3504D01*
X3503Y5499D01*
X3499Y5501D01*
X3491Y5505D01*
X3482Y5508D01*
X3472Y5511D01*
X3460Y5515D01*
X3448Y5517D01*
X3436Y5518D01*
D02*
G37*
G36*
X7201Y5590D02*
X7199D01*
X7196Y5590D01*
X7191Y5589D01*
X7187Y5588D01*
X7182Y5587D01*
X7169Y5584D01*
X7156Y5580D01*
X7143Y5575D01*
X7132Y5569D01*
X7127Y5566D01*
X7123Y5562D01*
X7122Y5562D01*
X7120Y5559D01*
X7117Y5555D01*
X7113Y5550D01*
X7110Y5545D01*
X7107Y5538D01*
X7106Y5531D01*
Y5524D01*
Y5523D01*
X7107Y5522D01*
X7108Y5518D01*
X7111Y5512D01*
X7116Y5505D01*
X7122Y5496D01*
X7129Y5489D01*
X7139Y5482D01*
X7150Y5477D01*
X7151Y5476D01*
X7155Y5476D01*
X7161Y5474D01*
X7167Y5473D01*
X7176Y5471D01*
X7184Y5471D01*
X7191Y5470D01*
X7198Y5471D01*
X7214D01*
X7225Y5471D01*
X7237Y5473D01*
X7250Y5476D01*
X7261Y5481D01*
X7273Y5487D01*
X7273Y5488D01*
X7276Y5490D01*
X7281Y5494D01*
X7285Y5499D01*
X7290Y5505D01*
X7294Y5511D01*
X7297Y5517D01*
X7298Y5524D01*
Y5525D01*
Y5525D01*
X7298Y5530D01*
X7296Y5536D01*
X7293Y5544D01*
X7289Y5552D01*
X7282Y5561D01*
X7278Y5565D01*
X7273Y5568D01*
X7267Y5572D01*
X7260Y5575D01*
X7259D01*
X7258Y5576D01*
X7256Y5576D01*
X7253Y5577D01*
X7247Y5580D01*
X7238Y5583D01*
X7228Y5585D01*
X7218Y5588D01*
X7209Y5590D01*
X7201Y5590D01*
D02*
G37*
G36*
X7198Y5423D02*
X7197D01*
X7195Y5422D01*
X7192D01*
X7187Y5422D01*
X7182Y5420D01*
X7176Y5419D01*
X7164Y5416D01*
X7150Y5411D01*
X7136Y5405D01*
X7125Y5399D01*
X7119Y5395D01*
X7116Y5391D01*
X7115Y5390D01*
X7113Y5387D01*
X7110Y5382D01*
X7106Y5377D01*
X7103Y5371D01*
X7100Y5363D01*
X7098Y5357D01*
X7097Y5350D01*
Y5348D01*
X7098Y5345D01*
X7100Y5339D01*
X7103Y5331D01*
X7107Y5323D01*
X7115Y5315D01*
X7124Y5308D01*
X7129Y5304D01*
X7136Y5301D01*
X7136D01*
X7137Y5300D01*
X7142Y5299D01*
X7148Y5297D01*
X7157Y5294D01*
X7167Y5291D01*
X7178Y5289D01*
X7189Y5288D01*
X7210D01*
X7214Y5289D01*
X7219Y5290D01*
X7230Y5291D01*
X7244Y5294D01*
X7257Y5297D01*
X7270Y5303D01*
X7281Y5309D01*
X7282Y5310D01*
X7285Y5313D01*
X7289Y5317D01*
X7293Y5323D01*
X7298Y5329D01*
X7302Y5337D01*
X7304Y5345D01*
Y5353D01*
Y5354D01*
Y5354D01*
X7304Y5360D01*
X7302Y5366D01*
X7300Y5374D01*
X7295Y5383D01*
X7290Y5393D01*
X7281Y5401D01*
X7275Y5405D01*
X7270Y5408D01*
X7269D01*
X7268Y5408D01*
X7264Y5410D01*
X7256Y5413D01*
X7247Y5416D01*
X7237Y5418D01*
X7224Y5421D01*
X7211Y5422D01*
X7198Y5423D01*
D02*
G37*
G36*
X5501Y4625D02*
X5479D01*
X5472Y4624D01*
X5464Y4622D01*
X5456Y4621D01*
X5450Y4618D01*
Y4617D01*
X5448Y4616D01*
X5447Y4612D01*
X5447Y4608D01*
X5446Y4603D01*
Y4596D01*
X5447Y4590D01*
X5449Y4582D01*
Y4581D01*
X5450Y4578D01*
X5452Y4575D01*
X5453Y4571D01*
X5456Y4568D01*
X5459Y4564D01*
X5463Y4562D01*
X5467D01*
X5468Y4563D01*
X5472Y4565D01*
X5478Y4568D01*
X5485Y4573D01*
X5493Y4580D01*
X5502Y4588D01*
X5509Y4598D01*
X5517Y4610D01*
Y4610D01*
X5518Y4612D01*
Y4614D01*
Y4617D01*
X5515Y4619D01*
X5512Y4622D01*
X5505Y4624D01*
X5501Y4625D01*
D02*
G37*
G36*
X3443Y4549D02*
X3409D01*
X3398Y4548D01*
X3384Y4548D01*
X3368D01*
X3352Y4546D01*
X3334Y4545D01*
X3333D01*
X3330Y4544D01*
X3326Y4542D01*
X3321Y4539D01*
X3317Y4534D01*
X3313Y4528D01*
X3311Y4520D01*
X3310Y4510D01*
Y4508D01*
Y4505D01*
X3311Y4499D01*
X3312Y4494D01*
X3313Y4486D01*
X3315Y4478D01*
X3317Y4471D01*
X3320Y4464D01*
Y4463D01*
X3321Y4462D01*
X3324Y4460D01*
X3326Y4458D01*
X3328Y4457D01*
X3329D01*
X3331Y4459D01*
X3339D01*
X3345Y4458D01*
X3353D01*
X3361Y4457D01*
X3372D01*
X3383Y4457D01*
X3395Y4456D01*
X3407Y4455D01*
X3434Y4454D01*
X3462Y4452D01*
X3491Y4450D01*
X3491D01*
X3494Y4449D01*
X3498Y4448D01*
X3503Y4448D01*
X3507Y4448D01*
X3511Y4450D01*
X3515Y4454D01*
X3518Y4459D01*
X3519Y4460D01*
X3520Y4462D01*
X3522Y4465D01*
X3523Y4471D01*
X3525Y4477D01*
X3526Y4485D01*
X3527Y4494D01*
Y4503D01*
Y4505D01*
X3526Y4508D01*
X3525Y4513D01*
X3523Y4519D01*
X3520Y4525D01*
X3516Y4531D01*
X3511Y4537D01*
X3504Y4542D01*
X3503D01*
X3503Y4543D01*
X3498Y4544D01*
X3491Y4545D01*
X3482Y4546D01*
X3471Y4548D01*
X3457Y4548D01*
X3443Y4549D01*
D02*
G37*
G36*
X2667Y3847D02*
X2647D01*
X2640Y3846D01*
X2633D01*
X2616Y3845D01*
X2596Y3844D01*
X2576Y3843D01*
X2556Y3841D01*
X2555Y3840D01*
X2552Y3838D01*
X2547Y3834D01*
X2543Y3829D01*
X2539Y3823D01*
X2534Y3815D01*
X2531Y3807D01*
X2530Y3796D01*
Y3795D01*
Y3792D01*
Y3786D01*
Y3779D01*
Y3772D01*
Y3763D01*
Y3746D01*
Y3745D01*
X2532Y3743D01*
X2533Y3741D01*
X2536Y3740D01*
X2755D01*
X2758Y3742D01*
X2762Y3744D01*
X2766Y3747D01*
X2771Y3751D01*
X2775Y3756D01*
X2777Y3764D01*
X2778Y3773D01*
Y3775D01*
X2777Y3778D01*
Y3783D01*
X2776Y3790D01*
X2775Y3798D01*
X2773Y3805D01*
X2771Y3813D01*
X2768Y3821D01*
X2767D01*
X2766Y3822D01*
X2764Y3824D01*
X2760Y3825D01*
X2756Y3827D01*
X2751Y3830D01*
X2745Y3832D01*
X2738Y3834D01*
X2724Y3839D01*
X2707Y3843D01*
X2687Y3846D01*
X2667Y3847D01*
D02*
G37*
G36*
X2762Y3690D02*
X2535D01*
X2534Y3689D01*
X2532Y3686D01*
X2531Y3685D01*
X2530Y3682D01*
Y3680D01*
Y3676D01*
X2531Y3670D01*
Y3662D01*
X2532Y3651D01*
Y3639D01*
Y3627D01*
Y3613D01*
Y3612D01*
Y3611D01*
Y3607D01*
X2533Y3600D01*
X2536Y3593D01*
X2540Y3585D01*
X2547Y3577D01*
X2551Y3574D01*
X2556Y3571D01*
X2562Y3569D01*
X2569Y3567D01*
X2729D01*
X2731Y3568D01*
X2732D01*
X2735Y3569D01*
X2743Y3571D01*
X2751Y3576D01*
X2758Y3582D01*
X2765Y3590D01*
X2768Y3594D01*
X2769Y3600D01*
X2771Y3606D01*
Y3613D01*
Y3614D01*
Y3614D01*
Y3616D01*
X2770Y3619D01*
Y3626D01*
X2769Y3636D01*
X2769Y3646D01*
Y3658D01*
X2768Y3682D01*
Y3682D01*
Y3683D01*
X2766Y3686D01*
X2764Y3688D01*
X2762Y3690D01*
D02*
G37*
G36*
X4921Y3722D02*
X4901D01*
X4890Y3721D01*
X4888D01*
X4884Y3720D01*
X4869D01*
X4859Y3719D01*
X4848D01*
X4825Y3721D01*
X4824Y3720D01*
X4822Y3716D01*
X4821Y3710D01*
Y3707D01*
X4822Y3702D01*
Y3702D01*
X4823Y3700D01*
Y3698D01*
Y3695D01*
X4824Y3688D01*
X4822Y3682D01*
Y3681D01*
X4821Y3680D01*
X4822Y3679D01*
X4824Y3678D01*
X4825Y3677D01*
X4828Y3676D01*
X4837D01*
X4841Y3675D01*
X4860D01*
X4876Y3674D01*
X4894D01*
X4913Y3673D01*
X4937D01*
X4939Y3674D01*
X4943Y3676D01*
X4947Y3678D01*
X4949Y3681D01*
X4952Y3685D01*
X4954Y3691D01*
Y3692D01*
Y3694D01*
Y3698D01*
Y3702D01*
X4953Y3706D01*
X4952Y3710D01*
X4949Y3714D01*
X4945Y3718D01*
X4944D01*
X4941Y3719D01*
X4936Y3719D01*
X4929Y3721D01*
X4921Y3722D01*
D02*
G37*
G36*
X4269Y3793D02*
X4264D01*
X4261Y3793D01*
X4253Y3791D01*
X4243Y3789D01*
X4231Y3784D01*
X4219Y3778D01*
X4213Y3773D01*
X4207Y3768D01*
X4201Y3762D01*
X4195Y3756D01*
Y3755D01*
X4194Y3754D01*
X4192Y3752D01*
X4191Y3749D01*
X4186Y3742D01*
X4180Y3732D01*
X4174Y3721D01*
X4168Y3708D01*
X4163Y3695D01*
X4160Y3682D01*
Y3681D01*
X4161Y3678D01*
X4164Y3673D01*
X4168Y3668D01*
X4175Y3662D01*
X4184Y3656D01*
X4189Y3654D01*
X4195Y3651D01*
X4201Y3649D01*
X4209Y3647D01*
X4210D01*
X4212Y3646D01*
X4214D01*
X4216Y3645D01*
X4224Y3644D01*
X4234Y3642D01*
X4244Y3641D01*
X4255Y3639D01*
X4276D01*
X4278Y3640D01*
X4281D01*
X4289Y3642D01*
X4298Y3644D01*
X4309Y3648D01*
X4319Y3652D01*
X4329Y3658D01*
X4338Y3666D01*
X4338Y3667D01*
X4340Y3671D01*
X4344Y3675D01*
X4348Y3681D01*
X4352Y3688D01*
X4355Y3696D01*
X4357Y3704D01*
X4358Y3713D01*
Y3713D01*
Y3714D01*
X4357Y3719D01*
X4357Y3726D01*
X4355Y3735D01*
X4351Y3744D01*
X4346Y3754D01*
X4338Y3764D01*
X4328Y3772D01*
X4326Y3773D01*
X4323Y3776D01*
X4317Y3779D01*
X4309Y3783D01*
X4300Y3787D01*
X4289Y3790D01*
X4279Y3793D01*
X4269Y3793D01*
D02*
G37*
G36*
X3643Y3873D02*
X3582D01*
X3548Y3872D01*
X3547D01*
X3546Y3873D01*
X3543D01*
X3541Y3872D01*
X3539Y3871D01*
Y3869D01*
X3538Y3868D01*
X3538Y3865D01*
X3536Y3861D01*
X3534Y3856D01*
X3533Y3850D01*
X3532Y3842D01*
Y3833D01*
X3534Y3824D01*
X3535Y3823D01*
X3535Y3821D01*
X3538Y3820D01*
X3541Y3819D01*
X3544Y3817D01*
X3549Y3816D01*
X3556Y3816D01*
X3755D01*
X3757Y3816D01*
X3760Y3818D01*
X3760Y3821D01*
Y3822D01*
Y3823D01*
X3761Y3827D01*
X3762Y3833D01*
X3763Y3842D01*
Y3843D01*
Y3844D01*
X3762Y3847D01*
Y3850D01*
X3759Y3856D01*
X3757Y3860D01*
X3754Y3864D01*
X3754D01*
X3752Y3864D01*
X3750D01*
X3746Y3865D01*
X3741Y3866D01*
X3736Y3867D01*
X3729Y3868D01*
X3721Y3869D01*
X3717D01*
X3713Y3870D01*
X3707D01*
X3700Y3870D01*
X3691D01*
X3680Y3871D01*
X3669Y3872D01*
X3657D01*
X3643Y3873D01*
D02*
G37*
G36*
X3754Y3771D02*
X3538D01*
X3538Y3770D01*
X3534Y3768D01*
X3532Y3766D01*
X3531Y3763D01*
X3530Y3759D01*
X3531Y3754D01*
Y3753D01*
X3532Y3752D01*
Y3749D01*
X3532Y3746D01*
X3533Y3738D01*
X3534Y3729D01*
Y3728D01*
X3535Y3727D01*
X3537Y3725D01*
X3539Y3724D01*
X3543D01*
X3546Y3723D01*
X3555D01*
X3567Y3722D01*
X3580Y3721D01*
X3596Y3720D01*
X3612Y3719D01*
X3629Y3718D01*
X3755D01*
X3757Y3719D01*
X3760Y3720D01*
X3760Y3724D01*
Y3768D01*
Y3769D01*
X3760Y3770D01*
X3758Y3770D01*
X3754Y3771D01*
D02*
G37*
G36*
X6119Y3785D02*
X6118D01*
X6113Y3784D01*
X6107Y3782D01*
X6098Y3779D01*
X6088Y3773D01*
X6076Y3765D01*
X6070Y3761D01*
X6063Y3755D01*
X6057Y3749D01*
X6050Y3742D01*
X6049Y3741D01*
X6048Y3739D01*
X6046Y3737D01*
X6044Y3734D01*
X6041Y3730D01*
X6038Y3725D01*
X6035Y3719D01*
X6031Y3713D01*
X6028Y3705D01*
X6024Y3696D01*
X6021Y3688D01*
X6018Y3678D01*
X6015Y3668D01*
X6013Y3656D01*
X6011Y3644D01*
X6011Y3631D01*
Y3631D01*
Y3628D01*
X6011Y3625D01*
X6012Y3620D01*
X6013Y3615D01*
X6014Y3608D01*
X6017Y3594D01*
X6022Y3577D01*
X6029Y3560D01*
X6038Y3545D01*
X6044Y3537D01*
X6050Y3531D01*
X6051Y3529D01*
X6056Y3525D01*
X6062Y3520D01*
X6070Y3514D01*
X6079Y3508D01*
X6090Y3503D01*
X6100Y3499D01*
X6106Y3498D01*
X6111Y3497D01*
X6116D01*
X6119Y3498D01*
X6124D01*
X6129Y3499D01*
X6140Y3502D01*
X6153Y3505D01*
X6168Y3511D01*
X6182Y3520D01*
X6187Y3525D01*
X6194Y3531D01*
Y3531D01*
X6196Y3532D01*
X6197Y3534D01*
X6199Y3537D01*
X6202Y3540D01*
X6205Y3545D01*
X6210Y3555D01*
X6216Y3568D01*
X6221Y3585D01*
X6224Y3604D01*
X6225Y3614D01*
X6226Y3625D01*
Y3626D01*
Y3628D01*
Y3632D01*
X6225Y3636D01*
Y3642D01*
X6224Y3649D01*
X6224Y3656D01*
X6222Y3665D01*
X6219Y3682D01*
X6215Y3701D01*
X6208Y3719D01*
X6199Y3737D01*
Y3738D01*
X6198Y3739D01*
X6196Y3742D01*
X6194Y3745D01*
X6188Y3752D01*
X6179Y3760D01*
X6168Y3769D01*
X6154Y3776D01*
X6138Y3782D01*
X6129Y3784D01*
X6119Y3785D01*
D02*
G37*
%LPD*%
D13*
X8804Y23233D02*
X9070D01*
Y23033D01*
X8937Y23099D01*
X8870D01*
X8804Y23033D01*
Y22899D01*
X8870Y22833D01*
X9004D01*
X9070Y22899D01*
X8670Y23233D02*
Y22966D01*
X8537Y22833D01*
X8404Y22966D01*
Y23233D01*
X9754D02*
X10020D01*
Y23033D01*
X9887Y23099D01*
X9820D01*
X9754Y23033D01*
Y22899D01*
X9820Y22833D01*
X9954D01*
X10020Y22899D01*
X9620Y23233D02*
Y22966D01*
X9487Y22833D01*
X9354Y22966D01*
Y23233D01*
X8200Y23166D02*
X8133Y23233D01*
X8000D01*
X7933Y23166D01*
Y23099D01*
X8000Y23033D01*
X8067D01*
X8000D01*
X7933Y22966D01*
Y22899D01*
X8000Y22833D01*
X8133D01*
X8200Y22899D01*
X7800Y23233D02*
Y22966D01*
X7667Y22833D01*
X7534Y22966D01*
Y23233D01*
X7400Y23166D02*
X7334Y23233D01*
X7200D01*
X7134Y23166D01*
Y23099D01*
X7200Y23033D01*
X7267D01*
X7200D01*
X7134Y22966D01*
Y22899D01*
X7200Y22833D01*
X7334D01*
X7400Y22899D01*
X6046Y23233D02*
X5779D01*
X5912D01*
Y22833D01*
X5646Y23233D02*
X5379Y22833D01*
Y23233D02*
X5646Y22833D01*
X6970D02*
Y23233D01*
X6770D01*
X6704Y23166D01*
Y23033D01*
X6770Y22966D01*
X6970D01*
X6837D02*
X6704Y22833D01*
X6570Y23233D02*
X6304Y22833D01*
Y23233D02*
X6570Y22833D01*
X8488Y20483D02*
X8421Y20550D01*
X8288D01*
X8221Y20483D01*
Y20417D01*
X8288Y20350D01*
X8354D01*
X8288D01*
X8221Y20283D01*
Y20217D01*
X8288Y20150D01*
X8421D01*
X8488Y20217D01*
X8088Y20550D02*
Y20283D01*
X7955Y20150D01*
X7821Y20283D01*
Y20550D01*
X7688Y20483D02*
X7621Y20550D01*
X7488D01*
X7421Y20483D01*
Y20417D01*
X7488Y20350D01*
X7555D01*
X7488D01*
X7421Y20283D01*
Y20217D01*
X7488Y20150D01*
X7621D01*
X7688Y20217D01*
X8674Y20483D02*
X8741Y20550D01*
X8874D01*
X8941Y20483D01*
Y20217D01*
X8874Y20150D01*
X8741D01*
X8674Y20217D01*
Y20350D01*
X8807D01*
X9600Y20483D02*
X9666Y20550D01*
X9800D01*
X9866Y20483D01*
Y20217D01*
X9800Y20150D01*
X9666D01*
X9600Y20217D01*
Y20350D01*
X9733D01*
X7274Y20150D02*
Y20550D01*
X7074D01*
X7007Y20483D01*
Y20350D01*
X7074Y20283D01*
X7274D01*
X6874Y20150D02*
Y20417D01*
X6741Y20550D01*
X6607Y20417D01*
Y20150D01*
Y20350D01*
X6874D01*
X6474Y20217D02*
X6407Y20150D01*
X6274D01*
X6208Y20217D01*
Y20483D01*
X6274Y20550D01*
X6407D01*
X6474Y20483D01*
Y20417D01*
X6407Y20350D01*
X6208D01*
X5950Y20150D02*
Y20550D01*
X5750D01*
X5683Y20483D01*
Y20350D01*
X5750Y20283D01*
X5950D01*
X5550Y20150D02*
Y20417D01*
X5417Y20550D01*
X5284Y20417D01*
Y20150D01*
Y20350D01*
X5550D01*
X5150Y20150D02*
X5017D01*
X5084D01*
Y20550D01*
X5150Y20483D01*
X4817D02*
X4750Y20550D01*
X4617D01*
X4550Y20483D01*
Y20217D01*
X4617Y20150D01*
X4750D01*
X4817Y20217D01*
Y20483D01*
X984Y17133D02*
X1050Y17200D01*
X1184D01*
X1250Y17133D01*
Y16867D01*
X1184Y16800D01*
X1050D01*
X984Y16867D01*
Y17000D01*
X1117D01*
X850Y16800D02*
Y17200D01*
X584Y16800D01*
Y17200D01*
X451D02*
Y16800D01*
X251D01*
X184Y16867D01*
Y17133D01*
X251Y17200D01*
X451D01*
X1783Y18083D02*
X1850Y18150D01*
X1983D01*
X2050Y18083D01*
Y18017D01*
X1983Y17950D01*
X1850D01*
X1783Y17883D01*
Y17817D01*
X1850Y17750D01*
X1983D01*
X2050Y17817D01*
X1650Y18150D02*
Y17750D01*
X1517Y17883D01*
X1384Y17750D01*
Y18150D01*
X984Y18083D02*
X1050Y18150D01*
X1184D01*
X1250Y18083D01*
Y17817D01*
X1184Y17750D01*
X1050D01*
X984Y17817D01*
X850Y18150D02*
Y17750D01*
X584D01*
X451Y18150D02*
Y17750D01*
Y17883D01*
X184Y18150D01*
X384Y17950D01*
X184Y17750D01*
X1717Y19133D02*
X1783Y19200D01*
X1917D01*
X1983Y19133D01*
Y19067D01*
X1917Y19000D01*
X1783D01*
X1717Y18933D01*
Y18867D01*
X1783Y18800D01*
X1917D01*
X1983Y18867D01*
X1583Y19200D02*
Y18800D01*
X1450Y18933D01*
X1317Y18800D01*
Y19200D01*
X1184D02*
Y18800D01*
X984D01*
X917Y18867D01*
Y19133D01*
X984Y19200D01*
X1184D01*
X784D02*
X650D01*
X717D01*
Y18800D01*
X784D01*
X650D01*
X251Y19200D02*
X384D01*
X451Y19133D01*
Y18867D01*
X384Y18800D01*
X251D01*
X184Y18867D01*
Y19133D01*
X251Y19200D01*
X1250Y20133D02*
X1184Y20200D01*
X1050D01*
X984Y20133D01*
Y20067D01*
X1050Y20000D01*
X1117D01*
X1050D01*
X984Y19933D01*
Y19867D01*
X1050Y19800D01*
X1184D01*
X1250Y19867D01*
X850Y20067D02*
X717Y19800D01*
X584Y20067D01*
X451Y20133D02*
X384Y20200D01*
X251D01*
X184Y20133D01*
Y20067D01*
X251Y20000D01*
X317D01*
X251D01*
X184Y19933D01*
Y19867D01*
X251Y19800D01*
X384D01*
X451Y19867D01*
D18*
X7376Y35614D02*
G03*
X7376Y35614I-138J0D01*
G01*
X5100D02*
G03*
X5100Y35614I-138J0D01*
G01*
D21*
X-200Y38300D02*
X-200Y-100D01*
X-200Y38300D02*
X64400D01*
X64400Y-100D01*
X-200D02*
X64400D01*
M02*
