G04*
G04 #@! TF.GenerationSoftware,Altium Limited,Altium Designer,18.1.9 (240)*
G04*
G04 Layer_Color=8421504*
%FSLAX24Y24*%
%MOIN*%
G70*
G01*
G75*
%ADD18C,0.0050*%
%ADD21C,0.0200*%
%ADD22C,0.0256*%
%ADD23R,0.0118X0.0512*%
%ADD24O,0.0237X0.0776*%
%ADD25R,0.0366X0.0386*%
%ADD26O,0.0165X0.0657*%
%ADD27O,0.0657X0.0165*%
%ADD28R,0.0386X0.0366*%
%ADD29R,0.0453X0.0551*%
%ADD30R,0.0265X0.0620*%
G04:AMPARAMS|DCode=31|XSize=150mil|YSize=75mil|CornerRadius=33.8mil|HoleSize=0mil|Usage=FLASHONLY|Rotation=270.000|XOffset=0mil|YOffset=0mil|HoleType=Round|Shape=RoundedRectangle|*
%AMROUNDEDRECTD31*
21,1,0.1500,0.0075,0,0,270.0*
21,1,0.0825,0.0750,0,0,270.0*
1,1,0.0675,-0.0038,-0.0413*
1,1,0.0675,-0.0038,0.0413*
1,1,0.0675,0.0038,0.0413*
1,1,0.0675,0.0038,-0.0413*
%
%ADD31ROUNDEDRECTD31*%
%ADD32R,0.0551X0.0157*%
%ADD33O,0.0236X0.0709*%
%ADD34R,0.0709X0.0394*%
%ADD35R,0.0551X0.0453*%
%ADD36R,0.0512X0.0709*%
%ADD37O,0.0118X0.0709*%
%ADD38O,0.0709X0.0118*%
%ADD39R,0.0276X0.0492*%
G36*
X1378Y29039D02*
X1412D01*
X1477Y29021D01*
X1535Y28987D01*
X1583Y28940D01*
X1617Y28881D01*
X1634Y28816D01*
Y28749D01*
X1617Y28684D01*
X1583Y28626D01*
X1535Y28578D01*
X1477Y28544D01*
X1412Y28527D01*
X1378D01*
D01*
D01*
X1024D01*
X990D01*
X925Y28544D01*
X867Y28578D01*
X819Y28626D01*
X785Y28684D01*
X768Y28749D01*
Y28816D01*
X785Y28881D01*
X819Y28940D01*
X867Y28987D01*
X925Y29021D01*
X990Y29039D01*
X1024D01*
D01*
X1378D01*
D01*
D02*
G37*
G36*
X2675Y29865D02*
Y30023D01*
X2202D01*
X2123Y30023D01*
Y29865D01*
X2217D01*
X2675D01*
D02*
G37*
G36*
X2675Y29609D02*
Y29767D01*
X2202D01*
X2123Y29767D01*
Y29609D01*
X2217D01*
X2675D01*
D02*
G37*
G36*
X1378Y31873D02*
X1412D01*
X1477Y31856D01*
X1535Y31822D01*
X1583Y31774D01*
X1617Y31716D01*
X1634Y31651D01*
Y31584D01*
X1617Y31519D01*
X1583Y31460D01*
X1535Y31413D01*
X1477Y31379D01*
X1412Y31361D01*
X1378D01*
D01*
X1024D01*
X990D01*
X925Y31379D01*
X867Y31413D01*
X819Y31460D01*
X785Y31519D01*
X768Y31584D01*
Y31651D01*
X785Y31716D01*
X819Y31774D01*
X867Y31822D01*
X925Y31856D01*
X990Y31873D01*
X1024D01*
D01*
D01*
X1378D01*
D01*
D02*
G37*
G36*
X2675Y30633D02*
Y30791D01*
X2202D01*
X2123Y30791D01*
Y30633D01*
X2217D01*
X2675D01*
D02*
G37*
G36*
Y30121D02*
Y30279D01*
X2202D01*
X2123Y30279D01*
Y30121D01*
X2217D01*
X2675D01*
D02*
G37*
G36*
Y30377D02*
Y30535D01*
X2202D01*
X2123Y30535D01*
Y30377D01*
X2217D01*
X2675D01*
D02*
G37*
D18*
X7376Y35614D02*
G03*
X7376Y35614I-138J0D01*
G01*
X5100D02*
G03*
X5100Y35614I-138J0D01*
G01*
D21*
X-200Y38300D02*
X-200Y-100D01*
X-200Y38300D02*
X64400D01*
X64400Y-100D01*
X-200D02*
X64400D01*
D22*
X2380Y29245D02*
G03*
X2380Y29245I-128J0D01*
G01*
Y31155D02*
G03*
X2380Y31155I-128J0D01*
G01*
D23*
X5608Y35149D02*
D03*
X4781Y35149D02*
D03*
X4899Y35149D02*
D03*
X5096Y35149D02*
D03*
X5214D02*
D03*
X5411Y35149D02*
D03*
X5805D02*
D03*
X6002Y35149D02*
D03*
X6198Y35149D02*
D03*
X6395Y35149D02*
D03*
X6592Y35149D02*
D03*
X6789Y35149D02*
D03*
X6986Y35149D02*
D03*
X7104D02*
D03*
X7301Y35149D02*
D03*
X7419D02*
D03*
D24*
X41247Y26522D02*
D03*
X41747D02*
D03*
X42247D02*
D03*
X42747D02*
D03*
X43247D02*
D03*
X43747D02*
D03*
X44247D02*
D03*
X44747D02*
D03*
X41247Y28676D02*
D03*
X41747D02*
D03*
X42247D02*
D03*
X42747D02*
D03*
X43247D02*
D03*
X43747D02*
D03*
X44247D02*
D03*
X44747D02*
D03*
X57448Y12367D02*
D03*
X56948D02*
D03*
X56448D02*
D03*
X55948D02*
D03*
X55448D02*
D03*
X54948D02*
D03*
X54448D02*
D03*
X53948D02*
D03*
X57448Y10213D02*
D03*
X56948D02*
D03*
X56448D02*
D03*
X55948D02*
D03*
X55448D02*
D03*
X54948D02*
D03*
X54448D02*
D03*
X53948D02*
D03*
X44945Y12367D02*
D03*
X44445D02*
D03*
X43945D02*
D03*
X43445D02*
D03*
X42945D02*
D03*
X42445D02*
D03*
X41945D02*
D03*
X41445D02*
D03*
X44945Y10213D02*
D03*
X44445D02*
D03*
X43945D02*
D03*
X43445D02*
D03*
X42945D02*
D03*
X42445D02*
D03*
X41945D02*
D03*
X41445D02*
D03*
X30696Y12367D02*
D03*
X30196D02*
D03*
X29696D02*
D03*
X29196D02*
D03*
X28696D02*
D03*
X28196D02*
D03*
X27696D02*
D03*
X27196D02*
D03*
X30696Y10213D02*
D03*
X30196D02*
D03*
X29696D02*
D03*
X29196D02*
D03*
X28696D02*
D03*
X28196D02*
D03*
X27696D02*
D03*
X27196D02*
D03*
X17750Y12367D02*
D03*
X17250D02*
D03*
X16750D02*
D03*
X16250D02*
D03*
X15750D02*
D03*
X15250D02*
D03*
X14750D02*
D03*
X14250D02*
D03*
X17750Y10213D02*
D03*
X17250D02*
D03*
X16750D02*
D03*
X16250D02*
D03*
X15750D02*
D03*
X15250D02*
D03*
X14750D02*
D03*
X14250D02*
D03*
X57251Y28676D02*
D03*
X56751D02*
D03*
X56251D02*
D03*
X55751D02*
D03*
X55251D02*
D03*
X54751D02*
D03*
X54251D02*
D03*
X53751D02*
D03*
X57251Y26522D02*
D03*
X56751D02*
D03*
X56251D02*
D03*
X55751D02*
D03*
X55251D02*
D03*
X54751D02*
D03*
X54251D02*
D03*
X53751D02*
D03*
X17550Y28676D02*
D03*
X17050D02*
D03*
X16550D02*
D03*
X16050D02*
D03*
X15550D02*
D03*
X15050D02*
D03*
X14550D02*
D03*
X14050D02*
D03*
X17550Y26522D02*
D03*
X17050D02*
D03*
X16550D02*
D03*
X16050D02*
D03*
X15550D02*
D03*
X15050D02*
D03*
X14550D02*
D03*
X14050D02*
D03*
X30648Y28676D02*
D03*
X30148D02*
D03*
X29648D02*
D03*
X29148D02*
D03*
X28648D02*
D03*
X28148D02*
D03*
X27648D02*
D03*
X27148D02*
D03*
X30648Y26522D02*
D03*
X30148D02*
D03*
X29648D02*
D03*
X29148D02*
D03*
X28648D02*
D03*
X28148D02*
D03*
X27648D02*
D03*
X27148D02*
D03*
D25*
X13253Y17900D02*
D03*
X12647D02*
D03*
X53253Y29900D02*
D03*
X52647D02*
D03*
X40903D02*
D03*
X40297D02*
D03*
X26092D02*
D03*
X26699D02*
D03*
X13703D02*
D03*
X13097D02*
D03*
X2697Y15139D02*
D03*
X3303D02*
D03*
X3303Y14350D02*
D03*
X2697D02*
D03*
X9447Y13900D02*
D03*
X10053D02*
D03*
X13817Y16005D02*
D03*
X14423D02*
D03*
X697Y22250D02*
D03*
X1303D02*
D03*
X697Y23000D02*
D03*
X1303D02*
D03*
X17606Y9143D02*
D03*
X17000D02*
D03*
X16306D02*
D03*
X15700D02*
D03*
X15006D02*
D03*
X14400D02*
D03*
X8393Y13491D02*
D03*
X7787D02*
D03*
X4656Y15791D02*
D03*
X4050D02*
D03*
X10453Y18800D02*
D03*
X9847D02*
D03*
X29214Y9143D02*
D03*
X28607D02*
D03*
X30571D02*
D03*
X29964D02*
D03*
X27851D02*
D03*
X27245D02*
D03*
X43501Y9260D02*
D03*
X42895D02*
D03*
X42198D02*
D03*
X41592D02*
D03*
X44870D02*
D03*
X44263D02*
D03*
X56201D02*
D03*
X55595D02*
D03*
X54751D02*
D03*
X54145D02*
D03*
X57601D02*
D03*
X56995D02*
D03*
X57153Y25274D02*
D03*
X56547D02*
D03*
X55703D02*
D03*
X55097D02*
D03*
X43325D02*
D03*
X42719D02*
D03*
X4656Y17144D02*
D03*
X4050D02*
D03*
X2847Y26850D02*
D03*
X3453D02*
D03*
X7797Y31125D02*
D03*
X8403D02*
D03*
X28547Y25274D02*
D03*
X29153D02*
D03*
X53697D02*
D03*
X54303D02*
D03*
X44119D02*
D03*
X44725D02*
D03*
X41319D02*
D03*
X41925D02*
D03*
X16947D02*
D03*
X17553D02*
D03*
X27147D02*
D03*
X27753D02*
D03*
X29991D02*
D03*
X30597D02*
D03*
X15497D02*
D03*
X16103D02*
D03*
X14047D02*
D03*
X14653D02*
D03*
X7787Y25291D02*
D03*
X7181D02*
D03*
X7181Y23898D02*
D03*
X7787D02*
D03*
X7787Y26714D02*
D03*
X7181D02*
D03*
X7059Y13491D02*
D03*
X6453D02*
D03*
X7656Y11000D02*
D03*
X7050D02*
D03*
D26*
X14833Y16792D02*
D03*
X15148D02*
D03*
X15463D02*
D03*
X15778D02*
D03*
X16093D02*
D03*
X16408D02*
D03*
X16723D02*
D03*
X17038D02*
D03*
X17353D02*
D03*
X17668D02*
D03*
X17983D02*
D03*
Y21308D02*
D03*
X17668D02*
D03*
X17353D02*
D03*
X17038D02*
D03*
X16723D02*
D03*
X16408D02*
D03*
X16093D02*
D03*
X15778D02*
D03*
X15463D02*
D03*
X15148D02*
D03*
X14833D02*
D03*
D27*
X18666Y17475D02*
D03*
Y17790D02*
D03*
Y18105D02*
D03*
Y18420D02*
D03*
Y18735D02*
D03*
Y19050D02*
D03*
Y19365D02*
D03*
Y19680D02*
D03*
Y19995D02*
D03*
Y20310D02*
D03*
Y20625D02*
D03*
X14150D02*
D03*
Y20310D02*
D03*
Y19995D02*
D03*
Y19680D02*
D03*
Y19365D02*
D03*
Y19050D02*
D03*
Y18735D02*
D03*
Y18420D02*
D03*
Y18105D02*
D03*
Y17790D02*
D03*
Y17475D02*
D03*
D28*
X26298Y9353D02*
D03*
Y8747D02*
D03*
X40600D02*
D03*
Y9353D02*
D03*
X53100D02*
D03*
Y8747D02*
D03*
X13250Y9353D02*
D03*
Y8747D02*
D03*
X11050Y15347D02*
D03*
Y15953D02*
D03*
X9397Y13153D02*
D03*
Y12547D02*
D03*
X10097D02*
D03*
Y13153D02*
D03*
X12100Y22005D02*
D03*
Y21399D02*
D03*
X3600Y19447D02*
D03*
Y20053D02*
D03*
X20450Y20503D02*
D03*
Y19897D02*
D03*
X20400Y18547D02*
D03*
Y19153D02*
D03*
X13635Y21399D02*
D03*
Y22005D02*
D03*
X12885Y22004D02*
D03*
Y21398D02*
D03*
X3674Y23889D02*
D03*
Y24495D02*
D03*
X2891Y23889D02*
D03*
Y24495D02*
D03*
X1850Y15153D02*
D03*
Y14547D02*
D03*
X1100Y15164D02*
D03*
Y14557D02*
D03*
X4400Y19447D02*
D03*
Y20053D02*
D03*
X53048Y11614D02*
D03*
Y12221D02*
D03*
Y10803D02*
D03*
Y10197D02*
D03*
X40598Y11614D02*
D03*
Y12221D02*
D03*
Y10803D02*
D03*
Y10197D02*
D03*
X26298Y10803D02*
D03*
Y10197D02*
D03*
Y11614D02*
D03*
Y12221D02*
D03*
X13253Y10803D02*
D03*
Y10197D02*
D03*
X5800Y19447D02*
D03*
Y20053D02*
D03*
X13253Y12221D02*
D03*
Y11614D02*
D03*
X26200Y26671D02*
D03*
Y27277D02*
D03*
Y28827D02*
D03*
Y28221D02*
D03*
X13100Y28694D02*
D03*
Y28088D02*
D03*
X52650Y28071D02*
D03*
Y28677D02*
D03*
X40350Y27027D02*
D03*
Y26421D02*
D03*
Y27971D02*
D03*
Y28577D02*
D03*
X52650Y27127D02*
D03*
Y26521D02*
D03*
X13100Y27144D02*
D03*
Y26538D02*
D03*
X10035Y26241D02*
D03*
Y26847D02*
D03*
X9335D02*
D03*
Y26241D02*
D03*
X5400Y13044D02*
D03*
Y13650D02*
D03*
Y14950D02*
D03*
Y14344D02*
D03*
D29*
X21435Y20083D02*
D03*
X22065Y19217D02*
D03*
X21435D02*
D03*
X22065Y20083D02*
D03*
D30*
X1317Y24570D02*
D03*
X1904D02*
D03*
X723D02*
D03*
D31*
X1303Y25544D02*
D03*
D32*
X2399Y30712D02*
D03*
Y30456D02*
D03*
Y30200D02*
D03*
Y29944D02*
D03*
Y29688D02*
D03*
D33*
X9287Y29938D02*
D03*
X8787D02*
D03*
X8287D02*
D03*
X7787D02*
D03*
X7287D02*
D03*
X6787D02*
D03*
X6287D02*
D03*
X5787D02*
D03*
X9287Y27891D02*
D03*
X8787D02*
D03*
X8287D02*
D03*
X7787D02*
D03*
X7287D02*
D03*
X6787D02*
D03*
X6287D02*
D03*
X5787D02*
D03*
D34*
X4401Y13555D02*
D03*
Y14539D02*
D03*
D35*
X7786Y11935D02*
D03*
X6920Y12565D02*
D03*
Y11935D02*
D03*
X7786Y12565D02*
D03*
D36*
X442Y12753D02*
D03*
X2213Y9447D02*
D03*
X442D02*
D03*
X2213Y12753D02*
D03*
D37*
X6504Y15296D02*
D03*
X6701D02*
D03*
X6898D02*
D03*
X7095D02*
D03*
X7292D02*
D03*
X7489D02*
D03*
X7686D02*
D03*
X7882D02*
D03*
X8079D02*
D03*
X8276D02*
D03*
X8473D02*
D03*
X8670D02*
D03*
Y18485D02*
D03*
X8473D02*
D03*
X8276D02*
D03*
X8079D02*
D03*
X7882D02*
D03*
X7686D02*
D03*
X7489D02*
D03*
X7292D02*
D03*
X7095D02*
D03*
X6898D02*
D03*
X6701D02*
D03*
X6504D02*
D03*
D38*
X9182Y15808D02*
D03*
Y16005D02*
D03*
Y16202D02*
D03*
Y16398D02*
D03*
Y16595D02*
D03*
Y16792D02*
D03*
Y16989D02*
D03*
Y17186D02*
D03*
Y17383D02*
D03*
Y17580D02*
D03*
Y17776D02*
D03*
Y17973D02*
D03*
X5993D02*
D03*
Y17776D02*
D03*
Y17580D02*
D03*
Y17383D02*
D03*
Y17186D02*
D03*
Y16989D02*
D03*
Y16792D02*
D03*
Y16595D02*
D03*
Y16398D02*
D03*
Y16202D02*
D03*
Y16005D02*
D03*
Y15808D02*
D03*
D39*
X6261Y26597D02*
D03*
X5513D02*
D03*
X5887Y25613D02*
D03*
X6261Y24883D02*
D03*
X5513D02*
D03*
X5887Y23898D02*
D03*
M02*
