M48
;Layer_Color=9474304
;FILE_FORMAT=2:4
INCH,TZ
;TYPE=PLATED
T1F00S00C0.0120
T2F00S00C0.0150
T3F00S00C0.0180
T4F00S00C0.0276
T6F00S00C0.0354
T7F00S00C0.1000
%
T01
X7295Y12641
X7553Y12991
X8253Y13281
X8703Y13055
X8453Y12444
T02
X11498Y3150
X10450Y10400
X8950Y10431
X10047Y15253
X7090Y15144
X5394Y14794
X2103Y19394
X8075Y20377
X9037Y20850
X7488Y26400
X4500Y26000
X18450Y17750
T03
X25098Y7418
X25598
X30998Y7515
X31498
X24345Y14550
X23398
X22350
Y15832
X24345
X20250Y16127
X19800Y14550
X17553Y15750
X16923
X16293
X16608Y16230
X17238
X17868
X15348Y16400
X13200Y14450
X13150Y13597
X13600Y13900
X12650Y14050
X11650Y13150
X10900Y13700
X10203Y13644
X10450Y12250
X12669Y11350
X15950Y11800
X14116Y7665
X13553
X8950Y7800
Y8624
X7553
X6300
Y7800
Y6844
X7553
X8950
X8187Y10241
X5466Y11920
X5287Y12395
X11550Y15100
X19323Y7418
X19823
X4100Y8400
X3200
X2703Y9244
X2700Y10150
X3200Y10804
X4103Y10794
X3637Y12294
X703Y9694
X3900Y26550
X5387Y23141
X7940Y21767
X8487Y24941
X9037
X14400Y23324
X14900
X5303Y18994
X22350Y17220
X23398
X24345
X26150Y23374
X26650
X31950Y23324
X32501Y23349
X20859Y23374
X20375
T04
X2452Y25045
Y26955
T06
X20492Y3800
X21476
X24224
X25208
X26192
X27176
X30124
X31108
X32092
X33076
X33171Y10200
X32171
X31171
X30171
X27267
X26267
X25267
X24267
X21517
X20517
X19517
X18517
X15669
X14669
X13669
X12669
X12831Y3800
X13816
X14800
X15784
X18524
X19508
X2750Y12824
Y13808
Y14792
Y15776
X1806Y23650
X4601
X5887Y17991
Y16991
X6887
X7887
X8887
X9887
Y17991
X8887
X7887
X6887
X12619Y19049
X13619
X14619
X15619
X18469
X19469
X19508Y25799
X18524
X15576
X14592
X13608
X12624
X20492
X21476
X24232
X25216
X26200
X27184
X30124
X31108
X32092
X33076
X33122Y19049
X32122
X31122
X30122
X27219
X26219
X25219
X24219
X21469
X20469
T07
X1300Y1050
X34850
X1300Y28550
X34850
M30
