G04*
G04 #@! TF.GenerationSoftware,Altium Limited,Altium Designer,18.1.9 (240)*
G04*
G04 Layer_Color=16711935*
%FSLAX24Y24*%
%MOIN*%
G70*
G01*
G75*
%ADD20C,0.0200*%
%ADD38R,0.0466X0.0446*%
%ADD40R,0.0446X0.0466*%
%ADD55C,0.0671*%
%ADD56R,0.0671X0.0671*%
%ADD57R,0.0671X0.0671*%
%ADD58C,0.1261*%
%ADD59C,0.0592*%
%ADD60O,0.0946X0.0592*%
D20*
X0Y29600D02*
X36000D01*
Y0D02*
Y29600D01*
X0Y0D02*
X36000D01*
X0Y50D02*
Y29600D01*
Y50D02*
X50Y0D01*
D38*
X9597Y8347D02*
D03*
Y8953D02*
D03*
X10297D02*
D03*
Y8347D02*
D03*
X22696Y2393D02*
D03*
Y1787D02*
D03*
X23248Y9500D02*
D03*
Y10106D02*
D03*
X3550Y9397D02*
D03*
Y10003D02*
D03*
X28898Y9647D02*
D03*
Y10253D02*
D03*
X11748Y9953D02*
D03*
Y9347D02*
D03*
X11500Y19149D02*
D03*
Y19755D02*
D03*
X17448Y9357D02*
D03*
Y9964D02*
D03*
X17317Y1787D02*
D03*
Y2393D02*
D03*
X17450Y26321D02*
D03*
Y26928D02*
D03*
X17400Y19149D02*
D03*
Y19755D02*
D03*
X11498Y1787D02*
D03*
Y2393D02*
D03*
X23200Y19149D02*
D03*
Y19755D02*
D03*
X28546Y1787D02*
D03*
Y2393D02*
D03*
X4537Y9437D02*
D03*
Y10044D02*
D03*
X28950Y27102D02*
D03*
Y26496D02*
D03*
X23250Y27055D02*
D03*
Y26449D02*
D03*
X11550Y26952D02*
D03*
Y26346D02*
D03*
X28900Y19755D02*
D03*
Y19149D02*
D03*
D40*
X21053Y14550D02*
D03*
X20447D02*
D03*
X10250Y9737D02*
D03*
X9644D02*
D03*
X11653Y12550D02*
D03*
X11047D02*
D03*
D55*
X30124Y25799D02*
D03*
X31108D02*
D03*
X32092D02*
D03*
X24232D02*
D03*
X25216D02*
D03*
X26200D02*
D03*
X18524D02*
D03*
X19508D02*
D03*
X20492D02*
D03*
X12624D02*
D03*
X13608D02*
D03*
X14592D02*
D03*
X15784Y3800D02*
D03*
X14800D02*
D03*
X13816D02*
D03*
X21476D02*
D03*
X20492D02*
D03*
X19508D02*
D03*
X27176D02*
D03*
X26192D02*
D03*
X25208D02*
D03*
X33076D02*
D03*
X32092D02*
D03*
X31108D02*
D03*
X2750Y12824D02*
D03*
Y13808D02*
D03*
Y14792D02*
D03*
X32171Y10200D02*
D03*
X31171D02*
D03*
X30171D02*
D03*
X26267D02*
D03*
X25267D02*
D03*
X24267D02*
D03*
X20517D02*
D03*
X19517D02*
D03*
X18517D02*
D03*
X14669D02*
D03*
X13669D02*
D03*
X12669D02*
D03*
X4601Y23650D02*
D03*
X26219Y19049D02*
D03*
X25219D02*
D03*
X24219D02*
D03*
X32122D02*
D03*
X31122D02*
D03*
X30122D02*
D03*
X20469D02*
D03*
X19469D02*
D03*
X18469D02*
D03*
X14619D02*
D03*
X13619D02*
D03*
X12619D02*
D03*
X6887Y16991D02*
D03*
X7887D02*
D03*
X8887D02*
D03*
X9887D02*
D03*
X5887Y17991D02*
D03*
X6887D02*
D03*
X7887D02*
D03*
X8887D02*
D03*
X9887D02*
D03*
D56*
X33076Y25799D02*
D03*
X27184D02*
D03*
X21476D02*
D03*
X15576D02*
D03*
X12831Y3800D02*
D03*
X18524D02*
D03*
X24224D02*
D03*
X30124D02*
D03*
X33171Y10200D02*
D03*
X27267D02*
D03*
X21517D02*
D03*
X15669D02*
D03*
X1806Y23650D02*
D03*
X27219Y19049D02*
D03*
X33122D02*
D03*
X21469D02*
D03*
X15619D02*
D03*
X5887Y16991D02*
D03*
D57*
X2750Y15776D02*
D03*
D58*
X34850Y1050D02*
D03*
X1300D02*
D03*
X34850Y28550D02*
D03*
X1300D02*
D03*
D59*
X2452Y25045D02*
D03*
Y26955D02*
D03*
D60*
X1401Y27417D02*
D03*
Y24583D02*
D03*
M02*
