G04*
G04 #@! TF.GenerationSoftware,Altium Limited,Altium Designer,18.1.9 (240)*
G04*
G04 Layer_Color=32768*
%FSLAX24Y24*%
%MOIN*%
G70*
G01*
G75*
%ADD10C,0.0079*%
%ADD11C,0.0118*%
%ADD16C,0.0080*%
%ADD20C,0.0200*%
%ADD70C,0.0039*%
%ADD71C,0.0197*%
D10*
X2651Y26602D02*
G03*
X2651Y26602I-39J0D01*
G01*
D11*
X972Y20004D02*
G03*
X972Y20004I-59J0D01*
G01*
X15112Y12665D02*
G03*
X15112Y12665I-59J0D01*
G01*
D16*
X1300Y9558D02*
Y9952D01*
X1103Y9755D02*
X1497D01*
X1103Y11526D02*
X1497D01*
D20*
X0Y29600D02*
X36000D01*
Y0D02*
Y29600D01*
X0Y0D02*
X36000D01*
X0Y50D02*
Y29600D01*
Y50D02*
X50Y0D01*
D70*
X5740Y10643D02*
X9834D01*
X5740Y14738D02*
X9834D01*
X5740Y10643D02*
Y14738D01*
X9834Y10643D02*
Y14738D01*
X7787Y12494D02*
Y12887D01*
X7590Y12691D02*
X7984D01*
D71*
X29946Y6201D02*
G03*
X29946Y6201I-98J0D01*
G01*
X24194D02*
G03*
X24194Y6201I-98J0D01*
G01*
X18445D02*
G03*
X18445Y6201I-98J0D01*
G01*
X12644Y6176D02*
G03*
X12644Y6176I-98J0D01*
G01*
X30100Y21760D02*
G03*
X30100Y21760I-98J0D01*
G01*
X24196D02*
G03*
X24196Y21760I-98J0D01*
G01*
X12498D02*
G03*
X12498Y21760I-98J0D01*
G01*
X18446D02*
G03*
X18446Y21760I-98J0D01*
G01*
M02*
