G04*
G04 #@! TF.GenerationSoftware,Altium Limited,Altium Designer,18.1.9 (240)*
G04*
G04 Layer_Color=32896*
%FSLAX24Y24*%
%MOIN*%
G70*
G01*
G75*
%ADD10C,0.0079*%
%ADD13C,0.0100*%
%ADD20C,0.0200*%
D10*
X20303Y14861D02*
G03*
X20146Y14704I0J-157D01*
G01*
X20146Y14396D02*
G03*
X20303Y14239I157J0D01*
G01*
X21197Y14239D02*
G03*
X21354Y14396I-0J157D01*
G01*
Y14704D02*
G03*
X21197Y14861I-157J0D01*
G01*
X9443Y9254D02*
G03*
X9286Y9097I0J-157D01*
G01*
X9908D02*
G03*
X9750Y9254I-157J-0D01*
G01*
X9750Y8046D02*
G03*
X9908Y8203I0J157D01*
G01*
X9286Y8203D02*
G03*
X9443Y8046I157J0D01*
G01*
X10450Y8046D02*
G03*
X10608Y8203I0J157D01*
G01*
X9986D02*
G03*
X10143Y8046I157J0D01*
G01*
X10143Y9254D02*
G03*
X9986Y9097I0J-157D01*
G01*
X10608Y9097D02*
G03*
X10450Y9254I-157J-0D01*
G01*
X22850Y1485D02*
G03*
X23007Y1643I0J157D01*
G01*
X22385D02*
G03*
X22543Y1485I157J0D01*
G01*
X22543Y2694D02*
G03*
X22385Y2537I0J-157D01*
G01*
X23007Y2537D02*
G03*
X22850Y2694I-157J-0D01*
G01*
X23559Y10250D02*
G03*
X23402Y10407I-157J-0D01*
G01*
X23095Y10407D02*
G03*
X22937Y10250I0J-157D01*
G01*
X22937Y9356D02*
G03*
X23095Y9199I157J0D01*
G01*
X23402D02*
G03*
X23559Y9356I0J157D01*
G01*
X29209Y10397D02*
G03*
X29052Y10554I-157J-0D01*
G01*
X28745Y10554D02*
G03*
X28587Y10397I0J-157D01*
G01*
X28587Y9503D02*
G03*
X28745Y9346I157J0D01*
G01*
X29052D02*
G03*
X29209Y9503I0J157D01*
G01*
X11902Y9046D02*
G03*
X12059Y9203I0J157D01*
G01*
X11437D02*
G03*
X11595Y9046I157J0D01*
G01*
X11595Y10254D02*
G03*
X11437Y10097I0J-157D01*
G01*
X12059Y10097D02*
G03*
X11902Y10254I-157J-0D01*
G01*
X11811Y19899D02*
G03*
X11654Y20056I-157J-0D01*
G01*
X11346Y20056D02*
G03*
X11189Y19899I0J-157D01*
G01*
X11189Y19005D02*
G03*
X11346Y18848I157J0D01*
G01*
X11654D02*
G03*
X11811Y19005I0J157D01*
G01*
X17759Y10107D02*
G03*
X17602Y10265I-157J-0D01*
G01*
X17295Y10265D02*
G03*
X17137Y10107I0J-157D01*
G01*
X17137Y9214D02*
G03*
X17295Y9056I157J0D01*
G01*
X17602D02*
G03*
X17759Y9214I0J157D01*
G01*
X17628Y2537D02*
G03*
X17471Y2694I-157J-0D01*
G01*
X17164Y2694D02*
G03*
X17006Y2537I0J-157D01*
G01*
X17006Y1643D02*
G03*
X17164Y1485I157J0D01*
G01*
X17471D02*
G03*
X17628Y1643I0J157D01*
G01*
X17761Y27071D02*
G03*
X17604Y27229I-157J-0D01*
G01*
X17296Y27229D02*
G03*
X17139Y27071I0J-157D01*
G01*
X17139Y26178D02*
G03*
X17296Y26020I157J0D01*
G01*
X17604D02*
G03*
X17761Y26178I0J157D01*
G01*
X17711Y19899D02*
G03*
X17554Y20056I-157J-0D01*
G01*
X17246Y20056D02*
G03*
X17089Y19899I0J-157D01*
G01*
X17089Y19005D02*
G03*
X17246Y18848I157J0D01*
G01*
X17554D02*
G03*
X17711Y19005I0J157D01*
G01*
X11809Y2537D02*
G03*
X11652Y2694I-157J-0D01*
G01*
X11345Y2694D02*
G03*
X11187Y2537I0J-157D01*
G01*
X11187Y1643D02*
G03*
X11345Y1485I157J0D01*
G01*
X11652D02*
G03*
X11809Y1643I0J157D01*
G01*
X23511Y19899D02*
G03*
X23354Y20056I-157J-0D01*
G01*
X23046Y20056D02*
G03*
X22889Y19899I0J-157D01*
G01*
X22889Y19005D02*
G03*
X23046Y18848I157J0D01*
G01*
X23354D02*
G03*
X23511Y19005I0J157D01*
G01*
X28857Y2537D02*
G03*
X28700Y2694I-157J-0D01*
G01*
X28393Y2694D02*
G03*
X28235Y2537I0J-157D01*
G01*
X28235Y1643D02*
G03*
X28393Y1485I157J0D01*
G01*
X28700D02*
G03*
X28857Y1643I0J157D01*
G01*
X4384Y10345D02*
G03*
X4226Y10187I0J-157D01*
G01*
X4848D02*
G03*
X4691Y10345I-157J-0D01*
G01*
X4691Y9136D02*
G03*
X4848Y9294I0J157D01*
G01*
X4226Y9294D02*
G03*
X4384Y9136I157J0D01*
G01*
X29104Y26194D02*
G03*
X29261Y26352I0J157D01*
G01*
X28639D02*
G03*
X28796Y26194I157J0D01*
G01*
X28796Y27403D02*
G03*
X28639Y27246I0J-157D01*
G01*
X29261Y27246D02*
G03*
X29104Y27403I-157J-0D01*
G01*
X23404Y26148D02*
G03*
X23561Y26305I0J157D01*
G01*
X22939D02*
G03*
X23096Y26148I157J0D01*
G01*
X23096Y27356D02*
G03*
X22939Y27199I0J-157D01*
G01*
X23561Y27199D02*
G03*
X23404Y27356I-157J-0D01*
G01*
X11704Y26044D02*
G03*
X11861Y26202I0J157D01*
G01*
X11239D02*
G03*
X11396Y26044I157J0D01*
G01*
X11396Y27253D02*
G03*
X11239Y27096I0J-157D01*
G01*
X11861Y27096D02*
G03*
X11704Y27253I-157J-0D01*
G01*
X29054Y18848D02*
G03*
X29211Y19005I0J157D01*
G01*
X28589D02*
G03*
X28746Y18848I157J0D01*
G01*
X28746Y20056D02*
G03*
X28589Y19899I0J-157D01*
G01*
X29211Y19899D02*
G03*
X29054Y20056I-157J-0D01*
G01*
X20907Y14861D02*
X21197D01*
X20146Y14396D02*
Y14704D01*
X21354Y14396D02*
Y14704D01*
X20303Y14861D02*
X20593D01*
X20303Y14239D02*
X20593D01*
X20907Y14239D02*
X21197D01*
X9908Y8807D02*
Y9097D01*
X9908Y8203D02*
Y8493D01*
X9286Y8203D02*
Y8493D01*
X9443Y9254D02*
X9750D01*
X9443Y8046D02*
X9750D01*
X9286Y8807D02*
Y9097D01*
X9986Y8203D02*
Y8493D01*
X9986Y8807D02*
Y9097D01*
X10608Y8807D02*
Y9097D01*
X10143Y8046D02*
X10450D01*
X10143Y9254D02*
X10450D01*
X10608Y8203D02*
Y8493D01*
X10104Y10048D02*
X10551D01*
X9343D02*
X9789D01*
X10104Y9426D02*
X10551D01*
X9343D02*
Y10048D01*
X10551Y9426D02*
Y10048D01*
X9343Y9426D02*
X9789D01*
X22385Y1643D02*
Y1932D01*
X22385Y2247D02*
Y2537D01*
X23007Y2247D02*
Y2537D01*
X22543Y1485D02*
X22850D01*
X22543Y2694D02*
X22850D01*
X23007Y1643D02*
Y1932D01*
X23559Y9356D02*
Y9646D01*
X23095Y10407D02*
X23402D01*
X23095Y9199D02*
X23402D01*
X23559Y9961D02*
Y10250D01*
X22937Y9961D02*
Y10250D01*
X22937Y9356D02*
Y9646D01*
X3861Y9096D02*
Y9543D01*
X3239Y10304D02*
X3861D01*
X3239Y9096D02*
X3861D01*
Y9857D02*
Y10304D01*
X3239Y9096D02*
Y9543D01*
Y9857D02*
Y10304D01*
X29209Y9503D02*
Y9793D01*
X28745Y10554D02*
X29052D01*
X28745Y9346D02*
X29052D01*
X29209Y10107D02*
Y10397D01*
X28587Y10107D02*
Y10397D01*
X28587Y9503D02*
Y9793D01*
X11437Y9203D02*
Y9493D01*
X11437Y9807D02*
Y10097D01*
X12059Y9807D02*
Y10097D01*
X11595Y9046D02*
X11902D01*
X11595Y10254D02*
X11902D01*
X12059Y9203D02*
Y9493D01*
X11811Y19005D02*
Y19294D01*
X11346Y20056D02*
X11654D01*
X11346Y18848D02*
X11654D01*
X11811Y19609D02*
Y19899D01*
X11189Y19609D02*
Y19899D01*
X11189Y19005D02*
Y19294D01*
X17759Y9214D02*
Y9503D01*
X17295Y10265D02*
X17602D01*
X17295Y9056D02*
X17602D01*
X17759Y9818D02*
Y10107D01*
X17137Y9818D02*
Y10107D01*
X17137Y9214D02*
Y9503D01*
X17628Y1643D02*
Y1932D01*
X17164Y2694D02*
X17471D01*
X17164Y1485D02*
X17471D01*
X17628Y2247D02*
Y2537D01*
X17006Y2247D02*
Y2537D01*
X17006Y1643D02*
Y1932D01*
X17761Y26178D02*
Y26467D01*
X17296Y27229D02*
X17604D01*
X17296Y26020D02*
X17604D01*
X17761Y26782D02*
Y27071D01*
X17139Y26782D02*
Y27071D01*
X17139Y26178D02*
Y26467D01*
X17711Y19005D02*
Y19294D01*
X17246Y20056D02*
X17554D01*
X17246Y18848D02*
X17554D01*
X17711Y19609D02*
Y19899D01*
X17089Y19609D02*
Y19899D01*
X17089Y19005D02*
Y19294D01*
X11809Y1643D02*
Y1932D01*
X11345Y2694D02*
X11652D01*
X11345Y1485D02*
X11652D01*
X11809Y2247D02*
Y2537D01*
X11187Y2247D02*
Y2537D01*
X11187Y1643D02*
Y1932D01*
X23511Y19005D02*
Y19294D01*
X23046Y20056D02*
X23354D01*
X23046Y18848D02*
X23354D01*
X23511Y19609D02*
Y19899D01*
X22889Y19609D02*
Y19899D01*
X22889Y19005D02*
Y19294D01*
X28857Y1643D02*
Y1932D01*
X28393Y2694D02*
X28700D01*
X28393Y1485D02*
X28700D01*
X28857Y2247D02*
Y2537D01*
X28235Y2247D02*
Y2537D01*
X28235Y1643D02*
Y1932D01*
X11507Y12861D02*
X11954D01*
X10746Y12239D02*
Y12861D01*
X11954Y12239D02*
Y12861D01*
X10746D02*
X11193D01*
X11507Y12239D02*
X11954D01*
X10746D02*
X11193D01*
X4848Y9898D02*
Y10187D01*
X4848Y9294D02*
Y9583D01*
X4226Y9294D02*
Y9583D01*
X4384Y10345D02*
X4691D01*
X4384Y9136D02*
X4691D01*
X4226Y9898D02*
Y10187D01*
X28639Y26352D02*
Y26641D01*
X28639Y26956D02*
Y27246D01*
X29261Y26956D02*
Y27246D01*
X28796Y26194D02*
X29104D01*
X28796Y27403D02*
X29104D01*
X29261Y26352D02*
Y26641D01*
X22939Y26305D02*
Y26594D01*
X22939Y26909D02*
Y27199D01*
X23561Y26909D02*
Y27199D01*
X23096Y26148D02*
X23404D01*
X23096Y27356D02*
X23404D01*
X23561Y26305D02*
Y26594D01*
X11239Y26202D02*
Y26491D01*
X11239Y26806D02*
Y27096D01*
X11861Y26806D02*
Y27096D01*
X11396Y26044D02*
X11704D01*
X11396Y27253D02*
X11704D01*
X11861Y26202D02*
Y26491D01*
X28589Y19005D02*
Y19294D01*
X28589Y19609D02*
Y19899D01*
X29211Y19609D02*
Y19899D01*
X28746Y18848D02*
X29054D01*
X28746Y20056D02*
X29054D01*
X29211Y19005D02*
Y19294D01*
D13*
X9004Y19033D02*
X9270D01*
Y18833D01*
X9137Y18899D01*
X9070D01*
X9004Y18833D01*
Y18700D01*
X9070Y18633D01*
X9204D01*
X9270Y18700D01*
X8870Y19033D02*
Y18766D01*
X8737Y18633D01*
X8604Y18766D01*
Y19033D01*
X9954D02*
X10220D01*
Y18833D01*
X10087Y18899D01*
X10020D01*
X9954Y18833D01*
Y18700D01*
X10020Y18633D01*
X10154D01*
X10220Y18700D01*
X9820Y19033D02*
Y18766D01*
X9687Y18633D01*
X9554Y18766D01*
Y19033D01*
X8400Y18966D02*
X8333Y19033D01*
X8200D01*
X8133Y18966D01*
Y18899D01*
X8200Y18833D01*
X8267D01*
X8200D01*
X8133Y18766D01*
Y18700D01*
X8200Y18633D01*
X8333D01*
X8400Y18700D01*
X8000Y19033D02*
Y18766D01*
X7867Y18633D01*
X7734Y18766D01*
Y19033D01*
X7600Y18966D02*
X7534Y19033D01*
X7400D01*
X7334Y18966D01*
Y18899D01*
X7400Y18833D01*
X7467D01*
X7400D01*
X7334Y18766D01*
Y18700D01*
X7400Y18633D01*
X7534D01*
X7600Y18700D01*
X6246Y19033D02*
X5979D01*
X6112D01*
Y18633D01*
X5846Y19033D02*
X5579Y18633D01*
Y19033D02*
X5846Y18633D01*
X7170D02*
Y19033D01*
X6970D01*
X6904Y18966D01*
Y18833D01*
X6970Y18766D01*
X7170D01*
X7037D02*
X6904Y18633D01*
X6770Y19033D02*
X6504Y18633D01*
Y19033D02*
X6770Y18633D01*
X7925Y16286D02*
X7992Y16352D01*
X8125D01*
X8192Y16286D01*
Y16019D01*
X8125Y15952D01*
X7992D01*
X7925Y16019D01*
Y16152D01*
X8058D01*
X8874Y16283D02*
X8941Y16350D01*
X9074D01*
X9141Y16283D01*
Y16017D01*
X9074Y15950D01*
X8941D01*
X8874Y16017D01*
Y16150D01*
X9007D01*
X9800Y16283D02*
X9866Y16350D01*
X10000D01*
X10066Y16283D01*
Y16017D01*
X10000Y15950D01*
X9866D01*
X9800Y16017D01*
Y16150D01*
X9933D01*
X7500Y15916D02*
Y16316D01*
X7300D01*
X7233Y16250D01*
Y16116D01*
X7300Y16050D01*
X7500D01*
X7100Y15916D02*
Y16183D01*
X6967Y16316D01*
X6834Y16183D01*
Y15916D01*
Y16116D01*
X7100D01*
X6700Y15983D02*
X6634Y15916D01*
X6500D01*
X6434Y15983D01*
Y16250D01*
X6500Y16316D01*
X6634D01*
X6700Y16250D01*
Y16183D01*
X6634Y16116D01*
X6434D01*
X6200Y15916D02*
Y16316D01*
X6000D01*
X5933Y16250D01*
Y16116D01*
X6000Y16050D01*
X6200D01*
X5800Y15916D02*
Y16183D01*
X5667Y16316D01*
X5534Y16183D01*
Y15916D01*
Y16116D01*
X5800D01*
X5400Y15916D02*
X5267D01*
X5334D01*
Y16316D01*
X5400Y16250D01*
X5067D02*
X5000Y16316D01*
X4867D01*
X4800Y16250D01*
Y15983D01*
X4867Y15916D01*
X5000D01*
X5067Y15983D01*
Y16250D01*
X1184Y12933D02*
X1250Y13000D01*
X1384D01*
X1450Y12933D01*
Y12667D01*
X1384Y12600D01*
X1250D01*
X1184Y12667D01*
Y12800D01*
X1317D01*
X1050Y12600D02*
Y13000D01*
X784Y12600D01*
Y13000D01*
X651D02*
Y12600D01*
X451D01*
X384Y12667D01*
Y12933D01*
X451Y13000D01*
X651D01*
X1983Y13883D02*
X2050Y13950D01*
X2183D01*
X2250Y13883D01*
Y13817D01*
X2183Y13750D01*
X2050D01*
X1983Y13683D01*
Y13617D01*
X2050Y13550D01*
X2183D01*
X2250Y13617D01*
X1850Y13950D02*
Y13550D01*
X1717Y13683D01*
X1584Y13550D01*
Y13950D01*
X1184Y13883D02*
X1250Y13950D01*
X1384D01*
X1450Y13883D01*
Y13617D01*
X1384Y13550D01*
X1250D01*
X1184Y13617D01*
X1050Y13950D02*
Y13550D01*
X784D01*
X651Y13950D02*
Y13550D01*
Y13683D01*
X384Y13950D01*
X584Y13750D01*
X384Y13550D01*
X1917Y14933D02*
X1983Y15000D01*
X2117D01*
X2183Y14933D01*
Y14867D01*
X2117Y14800D01*
X1983D01*
X1917Y14733D01*
Y14667D01*
X1983Y14600D01*
X2117D01*
X2183Y14667D01*
X1783Y15000D02*
Y14600D01*
X1650Y14733D01*
X1517Y14600D01*
Y15000D01*
X1384D02*
Y14600D01*
X1184D01*
X1117Y14667D01*
Y14933D01*
X1184Y15000D01*
X1384D01*
X984D02*
X850D01*
X917D01*
Y14600D01*
X984D01*
X850D01*
X451Y15000D02*
X584D01*
X651Y14933D01*
Y14667D01*
X584Y14600D01*
X451D01*
X384Y14667D01*
Y14933D01*
X451Y15000D01*
X1450Y15933D02*
X1384Y16000D01*
X1250D01*
X1184Y15933D01*
Y15867D01*
X1250Y15800D01*
X1317D01*
X1250D01*
X1184Y15733D01*
Y15667D01*
X1250Y15600D01*
X1384D01*
X1450Y15667D01*
X1050Y15867D02*
X917Y15600D01*
X784Y15867D01*
X651Y15933D02*
X584Y16000D01*
X451D01*
X384Y15933D01*
Y15867D01*
X451Y15800D01*
X517D01*
X451D01*
X384Y15733D01*
Y15667D01*
X451Y15600D01*
X584D01*
X651Y15667D01*
D20*
X0Y29600D02*
X36000D01*
Y0D02*
Y29600D01*
X0Y0D02*
X36000D01*
X0Y50D02*
Y29600D01*
Y50D02*
X50Y0D01*
M02*
