G04*
G04 #@! TF.GenerationSoftware,Altium Limited,Altium Designer,18.1.9 (240)*
G04*
G04 Layer_Color=2752767*
%FSLAX24Y24*%
%MOIN*%
G70*
G01*
G75*
%ADD20C,0.0200*%
%ADD72C,0.0020*%
%ADD73C,0.0027*%
D20*
X0Y29600D02*
X36000D01*
Y0D02*
Y29600D01*
X0Y0D02*
X36000D01*
X0Y50D02*
Y29600D01*
Y50D02*
X50Y0D01*
D72*
X30044Y25719D02*
Y25879D01*
X30204D01*
Y25719D01*
X30044D01*
X31028D02*
Y25879D01*
X31188D01*
Y25719D01*
X31028D01*
X32012D02*
Y25879D01*
X32172D01*
Y25719D01*
X32012D01*
X32996D02*
Y25879D01*
X33156D01*
Y25719D01*
X32996D01*
X24151D02*
Y25879D01*
X24311D01*
Y25719D01*
X24151D01*
X25136D02*
Y25879D01*
X25296D01*
Y25719D01*
X25136D01*
X26120D02*
Y25879D01*
X26280D01*
Y25719D01*
X26120D01*
X27104D02*
Y25879D01*
X27264D01*
Y25719D01*
X27104D01*
X18444D02*
Y25879D01*
X18604D01*
Y25719D01*
X18444D01*
X19428D02*
Y25879D01*
X19588D01*
Y25719D01*
X19428D01*
X20412D02*
Y25879D01*
X20572D01*
Y25719D01*
X20412D01*
X21396D02*
Y25879D01*
X21556D01*
Y25719D01*
X21396D01*
X12544D02*
Y25879D01*
X12704D01*
Y25719D01*
X12544D01*
X13528D02*
Y25879D01*
X13688D01*
Y25719D01*
X13528D01*
X14512D02*
Y25879D01*
X14672D01*
Y25719D01*
X14512D01*
X15496D02*
Y25879D01*
X15656D01*
Y25719D01*
X15496D01*
X15704Y3720D02*
Y3880D01*
X15864D01*
Y3720D01*
X15704D01*
X14720D02*
Y3880D01*
X14880D01*
Y3720D01*
X14720D01*
X13736D02*
Y3880D01*
X13896D01*
Y3720D01*
X13736D01*
X12751D02*
Y3880D01*
X12911D01*
Y3720D01*
X12751D01*
X21396D02*
Y3880D01*
X21556D01*
Y3720D01*
X21396D01*
X20412D02*
Y3880D01*
X20572D01*
Y3720D01*
X20412D01*
X19428D02*
Y3880D01*
X19588D01*
Y3720D01*
X19428D01*
X18444D02*
Y3880D01*
X18604D01*
Y3720D01*
X18444D01*
X27096D02*
Y3880D01*
X27256D01*
Y3720D01*
X27096D01*
X26112D02*
Y3880D01*
X26272D01*
Y3720D01*
X26112D01*
X25128D02*
Y3880D01*
X25288D01*
Y3720D01*
X25128D01*
X24144D02*
Y3880D01*
X24304D01*
Y3720D01*
X24144D01*
X32996D02*
Y3880D01*
X33156D01*
Y3720D01*
X32996D01*
X32012D02*
Y3880D01*
X32172D01*
Y3720D01*
X32012D01*
X31028D02*
Y3880D01*
X31188D01*
Y3720D01*
X31028D01*
X30044D02*
Y3880D01*
X30204D01*
Y3720D01*
X30044D01*
X2670Y12744D02*
Y12904D01*
X2830D01*
Y12744D01*
X2670D01*
Y13728D02*
Y13888D01*
X2830D01*
Y13728D01*
X2670D01*
Y14712D02*
Y14872D01*
X2830D01*
Y14712D01*
X2670D01*
Y15696D02*
Y15856D01*
X2830D01*
Y15696D01*
X2670D01*
X33091Y10120D02*
Y10280D01*
X33251D01*
Y10120D01*
X33091D01*
X32091D02*
Y10280D01*
X32251D01*
Y10120D01*
X32091D01*
X31091D02*
Y10280D01*
X31251D01*
Y10120D01*
X31091D01*
X30091D02*
Y10280D01*
X30251D01*
Y10120D01*
X30091D01*
X27187D02*
Y10280D01*
X27347D01*
Y10120D01*
X27187D01*
X26187D02*
Y10280D01*
X26347D01*
Y10120D01*
X26187D01*
X25187D02*
Y10280D01*
X25347D01*
Y10120D01*
X25187D01*
X24187D02*
Y10280D01*
X24347D01*
Y10120D01*
X24187D01*
X21437D02*
Y10280D01*
X21597D01*
Y10120D01*
X21437D01*
X20437D02*
Y10280D01*
X20597D01*
Y10120D01*
X20437D01*
X19437D02*
Y10280D01*
X19597D01*
Y10120D01*
X19437D01*
X18437D02*
Y10280D01*
X18597D01*
Y10120D01*
X18437D01*
X15589D02*
Y10280D01*
X15749D01*
Y10120D01*
X15589D01*
X14589D02*
Y10280D01*
X14749D01*
Y10120D01*
X14589D01*
X13589D02*
Y10280D01*
X13749D01*
Y10120D01*
X13589D01*
X12589D02*
Y10280D01*
X12749D01*
Y10120D01*
X12589D01*
X2452Y24965D02*
X2372Y25125D01*
X2532D01*
X2452Y24965D01*
Y26875D02*
X2372Y27035D01*
X2532D01*
X2452Y26875D01*
X1401Y27337D02*
X1441Y27377D01*
X1481D01*
X1441Y27417D01*
X1481Y27457D01*
X1441D01*
X1401Y27497D01*
X1361Y27457D01*
X1321D01*
X1361Y27417D01*
X1321Y27377D01*
X1361D01*
X1401Y27337D01*
Y24503D02*
X1441Y24543D01*
X1481D01*
X1441Y24583D01*
X1481Y24623D01*
X1441D01*
X1401Y24663D01*
X1361Y24623D01*
X1321D01*
X1361Y24583D01*
X1321Y24543D01*
X1361D01*
X1401Y24503D01*
X4521Y23570D02*
Y23730D01*
X4681D01*
Y23570D01*
X4521D01*
X1726D02*
Y23730D01*
X1886D01*
Y23570D01*
X1726D01*
X27139Y18969D02*
Y19129D01*
X27299D01*
Y18969D01*
X27139D01*
X26139D02*
Y19129D01*
X26299D01*
Y18969D01*
X26139D01*
X25139D02*
Y19129D01*
X25299D01*
Y18969D01*
X25139D01*
X24139D02*
Y19129D01*
X24299D01*
Y18969D01*
X24139D01*
X33042D02*
Y19129D01*
X33202D01*
Y18969D01*
X33042D01*
X32042D02*
Y19129D01*
X32202D01*
Y18969D01*
X32042D01*
X31042D02*
Y19129D01*
X31202D01*
Y18969D01*
X31042D01*
X30042D02*
Y19129D01*
X30202D01*
Y18969D01*
X30042D01*
X21389D02*
Y19129D01*
X21549D01*
Y18969D01*
X21389D01*
X20389D02*
Y19129D01*
X20549D01*
Y18969D01*
X20389D01*
X19389D02*
Y19129D01*
X19549D01*
Y18969D01*
X19389D01*
X18389D02*
Y19129D01*
X18549D01*
Y18969D01*
X18389D01*
X15539D02*
Y19129D01*
X15699D01*
Y18969D01*
X15539D01*
X14539D02*
Y19129D01*
X14699D01*
Y18969D01*
X14539D01*
X13539D02*
Y19129D01*
X13699D01*
Y18969D01*
X13539D01*
X12539D02*
Y19129D01*
X12699D01*
Y18969D01*
X12539D01*
X5807Y16911D02*
Y17071D01*
X5967D01*
Y16911D01*
X5807D01*
X6807D02*
Y17071D01*
X6967D01*
Y16911D01*
X6807D01*
X7807D02*
Y17071D01*
X7967D01*
Y16911D01*
X7807D01*
X8807D02*
Y17071D01*
X8967D01*
Y16911D01*
X8807D01*
X9807D02*
Y17071D01*
X9967D01*
Y16911D01*
X9807D01*
X5807Y17911D02*
Y18071D01*
X5967D01*
Y17911D01*
X5807D01*
X6807D02*
Y18071D01*
X6967D01*
Y17911D01*
X6807D01*
X7807D02*
Y18071D01*
X7967D01*
Y17911D01*
X7807D01*
X8807D02*
Y18071D01*
X8967D01*
Y17911D01*
X8807D01*
X9807D02*
Y18071D01*
X9967D01*
Y17911D01*
X9807D01*
X15870Y11720D02*
X15910Y11800D01*
X15870Y11880D01*
X15950Y11840D01*
X16030Y11880D01*
X15990Y11800D01*
X16030Y11720D01*
X15950Y11760D01*
X15870Y11720D01*
X12589Y11270D02*
X12629Y11350D01*
X12589Y11430D01*
X12669Y11390D01*
X12749Y11430D01*
X12709Y11350D01*
X12749Y11270D01*
X12669Y11310D01*
X12589Y11270D01*
X14320Y23244D02*
X14360Y23324D01*
X14320Y23404D01*
X14400Y23364D01*
X14480Y23404D01*
X14440Y23324D01*
X14480Y23244D01*
X14400Y23284D01*
X14320Y23244D01*
X14820D02*
X14860Y23324D01*
X14820Y23404D01*
X14900Y23364D01*
X14980Y23404D01*
X14940Y23324D01*
X14980Y23244D01*
X14900Y23284D01*
X14820Y23244D01*
X20295Y23294D02*
X20335Y23374D01*
X20295Y23454D01*
X20375Y23414D01*
X20455Y23454D01*
X20415Y23374D01*
X20455Y23294D01*
X20375Y23334D01*
X20295Y23294D01*
X20779D02*
X20819Y23374D01*
X20779Y23454D01*
X20859Y23414D01*
X20939Y23454D01*
X20899Y23374D01*
X20939Y23294D01*
X20859Y23334D01*
X20779Y23294D01*
X26070D02*
X26110Y23374D01*
X26070Y23454D01*
X26150Y23414D01*
X26230Y23454D01*
X26190Y23374D01*
X26230Y23294D01*
X26150Y23334D01*
X26070Y23294D01*
X26570D02*
X26610Y23374D01*
X26570Y23454D01*
X26650Y23414D01*
X26730Y23454D01*
X26690Y23374D01*
X26730Y23294D01*
X26650Y23334D01*
X26570Y23294D01*
X32421Y23269D02*
X32461Y23349D01*
X32421Y23429D01*
X32501Y23389D01*
X32581Y23429D01*
X32541Y23349D01*
X32581Y23269D01*
X32501Y23309D01*
X32421Y23269D01*
X31870Y23244D02*
X31910Y23324D01*
X31870Y23404D01*
X31950Y23364D01*
X32030Y23404D01*
X31990Y23324D01*
X32030Y23244D01*
X31950Y23284D01*
X31870Y23244D01*
X8035Y20337D02*
Y20297D01*
X8115D01*
Y20337D01*
X8155D01*
Y20417D01*
X8115D01*
Y20457D01*
X8035D01*
Y20417D01*
X7995D01*
Y20337D01*
X8035D01*
X8997Y20810D02*
Y20770D01*
X9077D01*
Y20810D01*
X9117D01*
Y20890D01*
X9077D01*
Y20930D01*
X8997D01*
Y20890D01*
X8957D01*
Y20810D01*
X8997D01*
X4023Y10714D02*
X4063Y10794D01*
X4023Y10874D01*
X4103Y10834D01*
X4183Y10874D01*
X4143Y10794D01*
X4183Y10714D01*
X4103Y10754D01*
X4023Y10714D01*
X20170Y16047D02*
X20210Y16127D01*
X20170Y16207D01*
X20250Y16167D01*
X20330Y16207D01*
X20290Y16127D01*
X20330Y16047D01*
X20250Y16087D01*
X20170Y16047D01*
X18410Y17710D02*
Y17670D01*
X18490D01*
Y17710D01*
X18530D01*
Y17790D01*
X18490D01*
Y17830D01*
X18410D01*
Y17790D01*
X18370D01*
Y17710D01*
X18410D01*
X4460Y25960D02*
Y25920D01*
X4540D01*
Y25960D01*
X4580D01*
Y26040D01*
X4540D01*
Y26080D01*
X4460D01*
Y26040D01*
X4420D01*
Y25960D01*
X4460D01*
X3820Y26470D02*
X3860Y26550D01*
X3820Y26630D01*
X3900Y26590D01*
X3980Y26630D01*
X3940Y26550D01*
X3980Y26470D01*
X3900Y26510D01*
X3820Y26470D01*
X10410Y10360D02*
Y10320D01*
X10490D01*
Y10360D01*
X10530D01*
Y10440D01*
X10490D01*
Y10480D01*
X10410D01*
Y10440D01*
X10370D01*
Y10360D01*
X10410D01*
X8910Y10391D02*
Y10351D01*
X8990D01*
Y10391D01*
X9030D01*
Y10471D01*
X8990D01*
Y10511D01*
X8910D01*
Y10471D01*
X8870D01*
Y10391D01*
X8910D01*
X14036Y7585D02*
X14076Y7665D01*
X14036Y7745D01*
X14116Y7705D01*
X14196Y7745D01*
X14156Y7665D01*
X14196Y7585D01*
X14116Y7625D01*
X14036Y7585D01*
X19720Y14470D02*
X19760Y14550D01*
X19720Y14630D01*
X19800Y14590D01*
X19880Y14630D01*
X19840Y14550D01*
X19880Y14470D01*
X19800Y14510D01*
X19720Y14470D01*
X10007Y15213D02*
Y15173D01*
X10087D01*
Y15213D01*
X10127D01*
Y15293D01*
X10087D01*
Y15333D01*
X10007D01*
Y15293D01*
X9967D01*
Y15213D01*
X10007D01*
X7473Y12911D02*
X7513D01*
X7553Y12951D01*
X7593Y12911D01*
X7633D01*
Y12951D01*
X7593Y12991D01*
X7633Y13031D01*
Y13071D01*
X7593D01*
X7553Y13031D01*
X7513Y13071D01*
X7473D01*
Y13031D01*
X7513Y12991D01*
X7473Y12951D01*
Y12911D01*
X7050Y15104D02*
Y15064D01*
X7130D01*
Y15104D01*
X7170D01*
Y15184D01*
X7130D01*
Y15224D01*
X7050D01*
Y15184D01*
X7010D01*
Y15104D01*
X7050D01*
X5354Y14754D02*
Y14714D01*
X5434D01*
Y14754D01*
X5474D01*
Y14834D01*
X5434D01*
Y14874D01*
X5354D01*
Y14834D01*
X5314D01*
Y14754D01*
X5354D01*
X10370Y12170D02*
X10410Y12250D01*
X10370Y12330D01*
X10450Y12290D01*
X10530Y12330D01*
X10490Y12250D01*
X10530Y12170D01*
X10450Y12210D01*
X10370Y12170D01*
X13520Y13820D02*
X13560Y13900D01*
X13520Y13980D01*
X13600Y13940D01*
X13680Y13980D01*
X13640Y13900D01*
X13680Y13820D01*
X13600Y13860D01*
X13520Y13820D01*
X11470Y15020D02*
X11510Y15100D01*
X11470Y15180D01*
X11550Y15140D01*
X11630Y15180D01*
X11590Y15100D01*
X11630Y15020D01*
X11550Y15060D01*
X11470Y15020D01*
X8623Y12975D02*
X8663D01*
X8703Y13015D01*
X8743Y12975D01*
X8783D01*
Y13015D01*
X8743Y13055D01*
X8783Y13095D01*
Y13135D01*
X8743D01*
X8703Y13095D01*
X8663Y13135D01*
X8623D01*
Y13095D01*
X8663Y13055D01*
X8623Y13015D01*
Y12975D01*
X8373Y12364D02*
X8413D01*
X8453Y12404D01*
X8493Y12364D01*
X8533D01*
Y12404D01*
X8493Y12444D01*
X8533Y12484D01*
Y12524D01*
X8493D01*
X8453Y12484D01*
X8413Y12524D01*
X8373D01*
Y12484D01*
X8413Y12444D01*
X8373Y12404D01*
Y12364D01*
X11570Y13070D02*
X11610Y13150D01*
X11570Y13230D01*
X11650Y13190D01*
X11730Y13230D01*
X11690Y13150D01*
X11730Y13070D01*
X11650Y13110D01*
X11570Y13070D01*
X12570Y13970D02*
X12610Y14050D01*
X12570Y14130D01*
X12650Y14090D01*
X12730Y14130D01*
X12690Y14050D01*
X12730Y13970D01*
X12650Y14010D01*
X12570Y13970D01*
X13120Y14370D02*
X13160Y14450D01*
X13120Y14530D01*
X13200Y14490D01*
X13280Y14530D01*
X13240Y14450D01*
X13280Y14370D01*
X13200Y14410D01*
X13120Y14370D01*
X7448Y26360D02*
Y26320D01*
X7528D01*
Y26360D01*
X7568D01*
Y26440D01*
X7528D01*
Y26480D01*
X7448D01*
Y26440D01*
X7408D01*
Y26360D01*
X7448D01*
X10820Y13620D02*
X10860Y13700D01*
X10820Y13780D01*
X10900Y13740D01*
X10980Y13780D01*
X10940Y13700D01*
X10980Y13620D01*
X10900Y13660D01*
X10820Y13620D01*
X623Y9614D02*
X663Y9694D01*
X623Y9774D01*
X703Y9734D01*
X783Y9774D01*
X743Y9694D01*
X783Y9614D01*
X703Y9654D01*
X623Y9614D01*
X2063Y19354D02*
Y19314D01*
X2143D01*
Y19354D01*
X2183D01*
Y19434D01*
X2143D01*
Y19474D01*
X2063D01*
Y19434D01*
X2023D01*
Y19354D01*
X2063D01*
X3557Y12214D02*
X3597Y12294D01*
X3557Y12374D01*
X3637Y12334D01*
X3717Y12374D01*
X3677Y12294D01*
X3717Y12214D01*
X3637Y12254D01*
X3557Y12214D01*
X22270Y15752D02*
X22310Y15832D01*
X22270Y15912D01*
X22350Y15872D01*
X22430Y15912D01*
X22390Y15832D01*
X22430Y15752D01*
X22350Y15792D01*
X22270Y15752D01*
Y14470D02*
X22310Y14550D01*
X22270Y14630D01*
X22350Y14590D01*
X22430Y14630D01*
X22390Y14550D01*
X22430Y14470D01*
X22350Y14510D01*
X22270Y14470D01*
X23318D02*
X23358Y14550D01*
X23318Y14630D01*
X23398Y14590D01*
X23478Y14630D01*
X23438Y14550D01*
X23478Y14470D01*
X23398Y14510D01*
X23318Y14470D01*
X24265D02*
X24305Y14550D01*
X24265Y14630D01*
X24345Y14590D01*
X24425Y14630D01*
X24385Y14550D01*
X24425Y14470D01*
X24345Y14510D01*
X24265Y14470D01*
Y15752D02*
X24305Y15832D01*
X24265Y15912D01*
X24345Y15872D01*
X24425Y15912D01*
X24385Y15832D01*
X24425Y15752D01*
X24345Y15792D01*
X24265Y15752D01*
Y17140D02*
X24305Y17220D01*
X24265Y17300D01*
X24345Y17260D01*
X24425Y17300D01*
X24385Y17220D01*
X24425Y17140D01*
X24345Y17180D01*
X24265Y17140D01*
X23318D02*
X23358Y17220D01*
X23318Y17300D01*
X23398Y17260D01*
X23478Y17300D01*
X23438Y17220D01*
X23478Y17140D01*
X23398Y17180D01*
X23318Y17140D01*
X22270D02*
X22310Y17220D01*
X22270Y17300D01*
X22350Y17260D01*
X22430Y17300D01*
X22390Y17220D01*
X22430Y17140D01*
X22350Y17180D01*
X22270Y17140D01*
X3120Y8320D02*
X3160Y8400D01*
X3120Y8480D01*
X3200Y8440D01*
X3280Y8480D01*
X3240Y8400D01*
X3280Y8320D01*
X3200Y8360D01*
X3120Y8320D01*
X2620Y10070D02*
X2660Y10150D01*
X2620Y10230D01*
X2700Y10190D01*
X2780Y10230D01*
X2740Y10150D01*
X2780Y10070D01*
X2700Y10110D01*
X2620Y10070D01*
X2623Y9164D02*
X2663Y9244D01*
X2623Y9324D01*
X2703Y9284D01*
X2783Y9324D01*
X2743Y9244D01*
X2783Y9164D01*
X2703Y9204D01*
X2623Y9164D01*
X3120Y10724D02*
X3160Y10804D01*
X3120Y10884D01*
X3200Y10844D01*
X3280Y10884D01*
X3240Y10804D01*
X3280Y10724D01*
X3200Y10764D01*
X3120Y10724D01*
X4020Y8320D02*
X4060Y8400D01*
X4020Y8480D01*
X4100Y8440D01*
X4180Y8480D01*
X4140Y8400D01*
X4180Y8320D01*
X4100Y8360D01*
X4020Y8320D01*
X7473Y6764D02*
X7513Y6844D01*
X7473Y6924D01*
X7553Y6884D01*
X7633Y6924D01*
X7593Y6844D01*
X7633Y6764D01*
X7553Y6804D01*
X7473Y6764D01*
X6220Y8544D02*
X6260Y8624D01*
X6220Y8704D01*
X6300Y8664D01*
X6380Y8704D01*
X6340Y8624D01*
X6380Y8544D01*
X6300Y8584D01*
X6220Y8544D01*
X7473D02*
X7513Y8624D01*
X7473Y8704D01*
X7553Y8664D01*
X7633Y8704D01*
X7593Y8624D01*
X7633Y8544D01*
X7553Y8584D01*
X7473Y8544D01*
X8870D02*
X8910Y8624D01*
X8870Y8704D01*
X8950Y8664D01*
X9030Y8704D01*
X8990Y8624D01*
X9030Y8544D01*
X8950Y8584D01*
X8870Y8544D01*
Y7720D02*
X8910Y7800D01*
X8870Y7880D01*
X8950Y7840D01*
X9030Y7880D01*
X8990Y7800D01*
X9030Y7720D01*
X8950Y7760D01*
X8870Y7720D01*
Y6764D02*
X8910Y6844D01*
X8870Y6924D01*
X8950Y6884D01*
X9030Y6924D01*
X8990Y6844D01*
X9030Y6764D01*
X8950Y6804D01*
X8870Y6764D01*
X6220D02*
X6260Y6844D01*
X6220Y6924D01*
X6300Y6884D01*
X6380Y6924D01*
X6340Y6844D01*
X6380Y6764D01*
X6300Y6804D01*
X6220Y6764D01*
Y7720D02*
X6260Y7800D01*
X6220Y7880D01*
X6300Y7840D01*
X6380Y7880D01*
X6340Y7800D01*
X6380Y7720D01*
X6300Y7760D01*
X6220Y7720D01*
X10123Y13564D02*
X10163Y13644D01*
X10123Y13724D01*
X10203Y13684D01*
X10283Y13724D01*
X10243Y13644D01*
X10283Y13564D01*
X10203Y13604D01*
X10123Y13564D01*
X8173Y13201D02*
X8213D01*
X8253Y13241D01*
X8293Y13201D01*
X8333D01*
Y13241D01*
X8293Y13281D01*
X8333Y13321D01*
Y13361D01*
X8293D01*
X8253Y13321D01*
X8213Y13361D01*
X8173D01*
Y13321D01*
X8213Y13281D01*
X8173Y13241D01*
Y13201D01*
X5223Y18914D02*
X5263Y18994D01*
X5223Y19074D01*
X5303Y19034D01*
X5383Y19074D01*
X5343Y18994D01*
X5383Y18914D01*
X5303Y18954D01*
X5223Y18914D01*
X11458Y3110D02*
Y3070D01*
X11538D01*
Y3110D01*
X11578D01*
Y3190D01*
X11538D01*
Y3230D01*
X11458D01*
Y3190D01*
X11418D01*
Y3110D01*
X11458D01*
X15268Y16320D02*
X15308Y16400D01*
X15268Y16480D01*
X15348Y16440D01*
X15428Y16480D01*
X15388Y16400D01*
X15428Y16320D01*
X15348Y16360D01*
X15268Y16320D01*
X13070Y13517D02*
X13110Y13597D01*
X13070Y13677D01*
X13150Y13637D01*
X13230Y13677D01*
X13190Y13597D01*
X13230Y13517D01*
X13150Y13557D01*
X13070Y13517D01*
X5386Y11840D02*
X5426Y11920D01*
X5386Y12000D01*
X5466Y11960D01*
X5546Y12000D01*
X5506Y11920D01*
X5546Y11840D01*
X5466Y11880D01*
X5386Y11840D01*
X8107Y10161D02*
X8147Y10241D01*
X8107Y10321D01*
X8187Y10281D01*
X8267Y10321D01*
X8227Y10241D01*
X8267Y10161D01*
X8187Y10201D01*
X8107Y10161D01*
X7215Y12561D02*
X7255D01*
X7295Y12601D01*
X7335Y12561D01*
X7375D01*
Y12601D01*
X7335Y12641D01*
X7375Y12681D01*
Y12721D01*
X7335D01*
X7295Y12681D01*
X7255Y12721D01*
X7215D01*
Y12681D01*
X7255Y12641D01*
X7215Y12601D01*
Y12561D01*
X5207Y12315D02*
X5247Y12395D01*
X5207Y12475D01*
X5287Y12435D01*
X5367Y12475D01*
X5327Y12395D01*
X5367Y12315D01*
X5287Y12355D01*
X5207Y12315D01*
X17788Y16150D02*
X17828Y16230D01*
X17788Y16310D01*
X17868Y16270D01*
X17948Y16310D01*
X17908Y16230D01*
X17948Y16150D01*
X17868Y16190D01*
X17788Y16150D01*
X17473Y15670D02*
X17513Y15750D01*
X17473Y15830D01*
X17553Y15790D01*
X17633Y15830D01*
X17593Y15750D01*
X17633Y15670D01*
X17553Y15710D01*
X17473Y15670D01*
X16843D02*
X16883Y15750D01*
X16843Y15830D01*
X16923Y15790D01*
X17003Y15830D01*
X16963Y15750D01*
X17003Y15670D01*
X16923Y15710D01*
X16843Y15670D01*
X16213D02*
X16253Y15750D01*
X16213Y15830D01*
X16293Y15790D01*
X16373Y15830D01*
X16333Y15750D01*
X16373Y15670D01*
X16293Y15710D01*
X16213Y15670D01*
X16528Y16150D02*
X16568Y16230D01*
X16528Y16310D01*
X16608Y16270D01*
X16688Y16310D01*
X16648Y16230D01*
X16688Y16150D01*
X16608Y16190D01*
X16528Y16150D01*
X17158D02*
X17198Y16230D01*
X17158Y16310D01*
X17238Y16270D01*
X17318Y16310D01*
X17278Y16230D01*
X17318Y16150D01*
X17238Y16190D01*
X17158Y16150D01*
X5307Y23061D02*
X5347Y23141D01*
X5307Y23221D01*
X5387Y23181D01*
X5467Y23221D01*
X5427Y23141D01*
X5467Y23061D01*
X5387Y23101D01*
X5307Y23061D01*
X7860Y21687D02*
X7900Y21767D01*
X7860Y21847D01*
X7940Y21807D01*
X8020Y21847D01*
X7980Y21767D01*
X8020Y21687D01*
X7940Y21727D01*
X7860Y21687D01*
X8957Y24861D02*
X8997Y24941D01*
X8957Y25021D01*
X9037Y24981D01*
X9117Y25021D01*
X9077Y24941D01*
X9117Y24861D01*
X9037Y24901D01*
X8957Y24861D01*
X8407D02*
X8447Y24941D01*
X8407Y25021D01*
X8487Y24981D01*
X8567Y25021D01*
X8527Y24941D01*
X8567Y24861D01*
X8487Y24901D01*
X8407Y24861D01*
X13473Y7585D02*
X13513Y7665D01*
X13473Y7745D01*
X13553Y7705D01*
X13633Y7745D01*
X13593Y7665D01*
X13633Y7585D01*
X13553Y7625D01*
X13473Y7585D01*
X19743Y7338D02*
X19783Y7418D01*
X19743Y7498D01*
X19823Y7458D01*
X19903Y7498D01*
X19863Y7418D01*
X19903Y7338D01*
X19823Y7378D01*
X19743Y7338D01*
X19243D02*
X19283Y7418D01*
X19243Y7498D01*
X19323Y7458D01*
X19403Y7498D01*
X19363Y7418D01*
X19403Y7338D01*
X19323Y7378D01*
X19243Y7338D01*
X25518D02*
X25558Y7418D01*
X25518Y7498D01*
X25598Y7458D01*
X25678Y7498D01*
X25638Y7418D01*
X25678Y7338D01*
X25598Y7378D01*
X25518Y7338D01*
X25018D02*
X25058Y7418D01*
X25018Y7498D01*
X25098Y7458D01*
X25178Y7498D01*
X25138Y7418D01*
X25178Y7338D01*
X25098Y7378D01*
X25018Y7338D01*
X31418Y7435D02*
X31458Y7515D01*
X31418Y7595D01*
X31498Y7555D01*
X31578Y7595D01*
X31538Y7515D01*
X31578Y7435D01*
X31498Y7475D01*
X31418Y7435D01*
X30918D02*
X30958Y7515D01*
X30918Y7595D01*
X30998Y7555D01*
X31078Y7595D01*
X31038Y7515D01*
X31078Y7435D01*
X30998Y7475D01*
X30918Y7435D01*
D73*
X34930Y1050D02*
G03*
X34930Y1050I-80J0D01*
G01*
X1380D02*
G03*
X1380Y1050I-80J0D01*
G01*
X34930Y28550D02*
G03*
X34930Y28550I-80J0D01*
G01*
X1380D02*
G03*
X1380Y28550I-80J0D01*
G01*
M02*
