G04*
G04 #@! TF.GenerationSoftware,Altium Limited,Altium Designer,18.1.9 (240)*
G04*
G04 Layer_Color=65535*
%FSLAX24Y24*%
%MOIN*%
G70*
G01*
G75*
%ADD10C,0.0079*%
%ADD11C,0.0118*%
%ADD12C,0.0157*%
%ADD13C,0.0100*%
%ADD14C,0.0098*%
%ADD15C,0.0236*%
%ADD16C,0.0080*%
%ADD17C,0.0060*%
%ADD18R,0.0472X0.0118*%
%ADD19R,0.0315X0.0748*%
%ADD20C,0.0200*%
D10*
X3646Y16154D02*
G03*
X3489Y15997I0J-157D01*
G01*
X4111Y15997D02*
G03*
X3954Y16154I-157J-0D01*
G01*
X3954Y14946D02*
G03*
X4111Y15103I0J157D01*
G01*
X3489D02*
G03*
X3646Y14946I157J0D01*
G01*
X21704Y15896D02*
G03*
X21861Y16053I0J157D01*
G01*
X21239Y16053D02*
G03*
X21396Y15896I157J0D01*
G01*
X21396Y17104D02*
G03*
X21239Y16947I0J-157D01*
G01*
X21861D02*
G03*
X21704Y17104I-157J-0D01*
G01*
X21396Y15654D02*
G03*
X21239Y15497I0J-157D01*
G01*
X21861Y15497D02*
G03*
X21704Y15654I-157J-0D01*
G01*
X21704Y14446D02*
G03*
X21861Y14603I0J157D01*
G01*
X21239D02*
G03*
X21396Y14446I157J0D01*
G01*
X15637Y12004D02*
G03*
X15480Y12161I-157J0D01*
G01*
X15480Y11539D02*
G03*
X15637Y11696I-0J157D01*
G01*
X14429Y11696D02*
G03*
X14586Y11539I157J-0D01*
G01*
Y12161D02*
G03*
X14429Y12004I0J-157D01*
G01*
X13681Y18106D02*
G03*
X13524Y17949I0J-157D01*
G01*
X14146Y17949D02*
G03*
X13989Y18106I-157J-0D01*
G01*
X13989Y16898D02*
G03*
X14146Y17055I0J157D01*
G01*
X13524D02*
G03*
X13681Y16898I157J0D01*
G01*
X1804Y18204D02*
G03*
X1647Y18361I-157J0D01*
G01*
X1647Y17739D02*
G03*
X1804Y17896I-0J157D01*
G01*
X596Y17896D02*
G03*
X753Y17739I157J-0D01*
G01*
Y18361D02*
G03*
X596Y18204I0J-157D01*
G01*
X3708Y19754D02*
G03*
X3551Y19597I0J-157D01*
G01*
X4173Y19597D02*
G03*
X4015Y19754I-157J-0D01*
G01*
X4015Y18546D02*
G03*
X4173Y18703I0J157D01*
G01*
X3551D02*
G03*
X3708Y18546I157J0D01*
G01*
X2926Y19754D02*
G03*
X2768Y19597I0J-157D01*
G01*
X3390Y19597D02*
G03*
X3233Y19754I-157J-0D01*
G01*
X3233Y18546D02*
G03*
X3390Y18703I0J157D01*
G01*
X2768D02*
G03*
X2926Y18546I157J0D01*
G01*
X1804Y18954D02*
G03*
X1647Y19111I-157J0D01*
G01*
X1647Y18489D02*
G03*
X1804Y18646I-0J157D01*
G01*
X596Y18646D02*
G03*
X753Y18489I157J0D01*
G01*
Y19111D02*
G03*
X596Y18954I0J-157D01*
G01*
X14994Y5196D02*
G03*
X15151Y5039I157J0D01*
G01*
X15151Y5661D02*
G03*
X14994Y5504I0J-157D01*
G01*
X16202Y5504D02*
G03*
X16045Y5661I-157J0D01*
G01*
Y5039D02*
G03*
X16202Y5196I-0J157D01*
G01*
X13694Y5196D02*
G03*
X13851Y5039I157J0D01*
G01*
X13851Y5661D02*
G03*
X13694Y5504I0J-157D01*
G01*
X14902Y5504D02*
G03*
X14745Y5661I-157J0D01*
G01*
Y5039D02*
G03*
X14902Y5196I-0J157D01*
G01*
X12394Y5196D02*
G03*
X12551Y5039I157J0D01*
G01*
X12551Y5661D02*
G03*
X12394Y5504I0J-157D01*
G01*
X13602Y5504D02*
G03*
X13445Y5661I-157J0D01*
G01*
Y5039D02*
G03*
X13602Y5196I-0J157D01*
G01*
X4446Y16154D02*
G03*
X4289Y15997I0J-157D01*
G01*
X4911Y15997D02*
G03*
X4754Y16154I-157J-0D01*
G01*
X4754Y14946D02*
G03*
X4911Y15103I0J157D01*
G01*
X4289D02*
G03*
X4446Y14946I157J0D01*
G01*
X7630Y8987D02*
G03*
X7787Y8830I157J0D01*
G01*
X7787Y9452D02*
G03*
X7630Y9294I0J-157D01*
G01*
X8838Y9294D02*
G03*
X8681Y9452I-157J0D01*
G01*
Y8830D02*
G03*
X8838Y8987I-0J157D01*
G01*
X29259Y8614D02*
G03*
X29102Y8772I-157J-0D01*
G01*
X28795D02*
G03*
X28637Y8614I0J-157D01*
G01*
X28637Y7721D02*
G03*
X28795Y7563I157J0D01*
G01*
X29102Y7563D02*
G03*
X29259Y7721I0J157D01*
G01*
X28637Y6303D02*
G03*
X28795Y6146I157J0D01*
G01*
X29102D02*
G03*
X29259Y6303I0J157D01*
G01*
X29259Y7197D02*
G03*
X29102Y7354I-157J-0D01*
G01*
X28795Y7354D02*
G03*
X28637Y7197I0J-157D01*
G01*
X23559Y8614D02*
G03*
X23402Y8772I-157J-0D01*
G01*
X23095D02*
G03*
X22937Y8614I0J-157D01*
G01*
X22937Y7721D02*
G03*
X23095Y7563I157J0D01*
G01*
X23402Y7563D02*
G03*
X23559Y7721I0J157D01*
G01*
X22937Y6303D02*
G03*
X23095Y6146I157J0D01*
G01*
X23402D02*
G03*
X23559Y6303I0J157D01*
G01*
X23559Y7197D02*
G03*
X23402Y7354I-157J-0D01*
G01*
X23095Y7354D02*
G03*
X22937Y7197I0J-157D01*
G01*
X17137Y6303D02*
G03*
X17295Y6146I157J0D01*
G01*
X17602D02*
G03*
X17759Y6303I0J157D01*
G01*
X17759Y7197D02*
G03*
X17602Y7354I-157J-0D01*
G01*
X17295Y7354D02*
G03*
X17137Y7197I0J-157D01*
G01*
X17759Y8614D02*
G03*
X17602Y8772I-157J-0D01*
G01*
X17295D02*
G03*
X17137Y8614I0J-157D01*
G01*
X17137Y7721D02*
G03*
X17295Y7563I157J0D01*
G01*
X17602Y7563D02*
G03*
X17759Y7721I0J157D01*
G01*
X11237Y6303D02*
G03*
X11395Y6146I157J0D01*
G01*
X11702D02*
G03*
X11859Y6303I0J157D01*
G01*
X11859Y7197D02*
G03*
X11702Y7354I-157J-0D01*
G01*
X11395Y7354D02*
G03*
X11237Y7197I0J-157D01*
G01*
X4106Y11902D02*
G03*
X3949Y11744I0J-157D01*
G01*
Y11437D02*
G03*
X4106Y11280I157J0D01*
G01*
X5000Y11280D02*
G03*
X5157Y11437I-0J157D01*
G01*
X5157Y11744D02*
G03*
X5000Y11902I-157J0D01*
G01*
X9746Y14446D02*
G03*
X9903Y14289I157J0D01*
G01*
X9903Y14911D02*
G03*
X9746Y14754I0J-157D01*
G01*
X10954Y14754D02*
G03*
X10797Y14911I-157J0D01*
G01*
Y14289D02*
G03*
X10954Y14446I-0J157D01*
G01*
X5846Y16154D02*
G03*
X5689Y15997I0J-157D01*
G01*
X6311Y15997D02*
G03*
X6154Y16154I-157J-0D01*
G01*
X6154Y14946D02*
G03*
X6311Y15103I0J157D01*
G01*
X5689D02*
G03*
X5846Y14946I157J0D01*
G01*
X11702Y7563D02*
G03*
X11859Y7721I0J157D01*
G01*
X11237Y7721D02*
G03*
X11395Y7563I157J0D01*
G01*
X11395Y8772D02*
G03*
X11237Y8614I0J-157D01*
G01*
X11859D02*
G03*
X11702Y8772I-157J-0D01*
G01*
X19456Y5239D02*
G03*
X19614Y5082I157J0D01*
G01*
X19614Y5704D02*
G03*
X19456Y5546I0J-157D01*
G01*
X20665Y5546D02*
G03*
X20507Y5704I-157J0D01*
G01*
Y5082D02*
G03*
X20665Y5239I-0J157D01*
G01*
X20813Y5239D02*
G03*
X20971Y5082I157J0D01*
G01*
X20971Y5704D02*
G03*
X20813Y5546I0J-157D01*
G01*
X22022Y5546D02*
G03*
X21864Y5704I-157J0D01*
G01*
Y5082D02*
G03*
X22022Y5239I-0J157D01*
G01*
X18094Y5239D02*
G03*
X18251Y5082I157J0D01*
G01*
X18251Y5704D02*
G03*
X18094Y5546I0J-157D01*
G01*
X19302Y5546D02*
G03*
X19145Y5704I-157J0D01*
G01*
Y5082D02*
G03*
X19302Y5239I-0J157D01*
G01*
X25244Y5239D02*
G03*
X25401Y5082I157J0D01*
G01*
X25401Y5704D02*
G03*
X25244Y5546I0J-157D01*
G01*
X26452Y5546D02*
G03*
X26295Y5704I-157J0D01*
G01*
Y5082D02*
G03*
X26452Y5239I-0J157D01*
G01*
X23941Y5239D02*
G03*
X24098Y5082I157J0D01*
G01*
X24098Y5704D02*
G03*
X23941Y5546I0J-157D01*
G01*
X25149Y5546D02*
G03*
X24992Y5704I-157J0D01*
G01*
Y5082D02*
G03*
X25149Y5239I-0J157D01*
G01*
X26612Y5239D02*
G03*
X26770Y5082I157J0D01*
G01*
X26770Y5704D02*
G03*
X26612Y5546I0J-157D01*
G01*
X27821Y5546D02*
G03*
X27663Y5704I-157J0D01*
G01*
Y5082D02*
G03*
X27821Y5239I-0J157D01*
G01*
X31194Y5239D02*
G03*
X31351Y5082I157J0D01*
G01*
X31351Y5704D02*
G03*
X31194Y5546I0J-157D01*
G01*
X32402Y5546D02*
G03*
X32245Y5704I-157J0D01*
G01*
Y5082D02*
G03*
X32402Y5239I-0J157D01*
G01*
X29744Y5239D02*
G03*
X29901Y5082I157J0D01*
G01*
X29901Y5704D02*
G03*
X29744Y5546I0J-157D01*
G01*
X30952Y5546D02*
G03*
X30795Y5704I-157J0D01*
G01*
Y5082D02*
G03*
X30952Y5239I-0J157D01*
G01*
X32594Y5239D02*
G03*
X32751Y5082I157J0D01*
G01*
X32751Y5704D02*
G03*
X32594Y5546I0J-157D01*
G01*
X33802Y5546D02*
G03*
X33645Y5704I-157J0D01*
G01*
Y5082D02*
G03*
X33802Y5239I-0J157D01*
G01*
X32496Y20620D02*
G03*
X32653Y20463I157J0D01*
G01*
X32653Y21085D02*
G03*
X32496Y20927I0J-157D01*
G01*
X33704Y20927D02*
G03*
X33547Y21085I-157J0D01*
G01*
Y20463D02*
G03*
X33704Y20620I-0J157D01*
G01*
X31046Y20620D02*
G03*
X31203Y20463I157J0D01*
G01*
X31203Y21085D02*
G03*
X31046Y20927I0J-157D01*
G01*
X32254Y20927D02*
G03*
X32097Y21085I-157J0D01*
G01*
Y20463D02*
G03*
X32254Y20620I-0J157D01*
G01*
X25267Y20620D02*
G03*
X25425Y20463I157J0D01*
G01*
X25425Y21085D02*
G03*
X25267Y20927I0J-157D01*
G01*
X26476Y20927D02*
G03*
X26319Y21085I-157J0D01*
G01*
Y20463D02*
G03*
X26476Y20620I-0J157D01*
G01*
X17246Y23078D02*
G03*
X17089Y22921I0J-157D01*
G01*
X17711Y22921D02*
G03*
X17554Y23078I-157J-0D01*
G01*
X17554Y21869D02*
G03*
X17711Y22027I0J157D01*
G01*
X17089D02*
G03*
X17246Y21869I157J0D01*
G01*
X17554Y23419D02*
G03*
X17711Y23577I0J157D01*
G01*
X17089Y23577D02*
G03*
X17246Y23419I157J0D01*
G01*
X17246Y24628D02*
G03*
X17089Y24471I0J-157D01*
G01*
X17711D02*
G03*
X17554Y24628I-157J-0D01*
G01*
X11604Y23419D02*
G03*
X11761Y23577I0J157D01*
G01*
X11139Y23577D02*
G03*
X11296Y23419I157J0D01*
G01*
X11296Y24628D02*
G03*
X11139Y24471I0J-157D01*
G01*
X11761D02*
G03*
X11604Y24628I-157J-0D01*
G01*
X8747Y26614D02*
G03*
X8904Y26771I-0J157D01*
G01*
Y27079D02*
G03*
X8747Y27236I-157J0D01*
G01*
X7853Y27236D02*
G03*
X7696Y27079I0J-157D01*
G01*
X7696Y26771D02*
G03*
X7853Y26614I157J0D01*
G01*
X29211Y24471D02*
G03*
X29054Y24628I-157J-0D01*
G01*
X28746D02*
G03*
X28589Y24471I0J-157D01*
G01*
X28589Y23577D02*
G03*
X28746Y23419I157J0D01*
G01*
X29054Y23419D02*
G03*
X29211Y23577I0J157D01*
G01*
X20497Y20463D02*
G03*
X20654Y20620I-0J157D01*
G01*
Y20927D02*
G03*
X20497Y21085I-157J0D01*
G01*
X19603Y21085D02*
G03*
X19446Y20927I0J-157D01*
G01*
X19446Y20620D02*
G03*
X19603Y20463I157J0D01*
G01*
X22889Y22027D02*
G03*
X23046Y21869I157J0D01*
G01*
X23354D02*
G03*
X23511Y22027I0J157D01*
G01*
X23511Y22921D02*
G03*
X23354Y23078I-157J-0D01*
G01*
X23046Y23078D02*
G03*
X22889Y22921I0J-157D01*
G01*
X23511Y24471D02*
G03*
X23354Y24628I-157J-0D01*
G01*
X23046D02*
G03*
X22889Y24471I0J-157D01*
G01*
X22889Y23577D02*
G03*
X23046Y23419I157J0D01*
G01*
X23354Y23419D02*
G03*
X23511Y23577I0J157D01*
G01*
X30697Y20463D02*
G03*
X30854Y20620I-0J157D01*
G01*
Y20927D02*
G03*
X30697Y21085I-157J0D01*
G01*
X29803Y21085D02*
G03*
X29646Y20927I0J-157D01*
G01*
X29646Y20620D02*
G03*
X29803Y20463I157J0D01*
G01*
X28589Y22027D02*
G03*
X28746Y21869I157J0D01*
G01*
X29054D02*
G03*
X29211Y22027I0J157D01*
G01*
X29211Y22921D02*
G03*
X29054Y23078I-157J-0D01*
G01*
X28746Y23078D02*
G03*
X28589Y22921I0J-157D01*
G01*
X27719Y20463D02*
G03*
X27876Y20620I-0J157D01*
G01*
Y20927D02*
G03*
X27719Y21085I-157J0D01*
G01*
X26825Y21085D02*
G03*
X26667Y20927I0J-157D01*
G01*
X26667Y20620D02*
G03*
X26825Y20463I157J0D01*
G01*
X24919Y20463D02*
G03*
X25076Y20620I-0J157D01*
G01*
Y20927D02*
G03*
X24919Y21085I-157J0D01*
G01*
X24025Y21085D02*
G03*
X23867Y20927I0J-157D01*
G01*
X23867Y20620D02*
G03*
X24025Y20463I157J0D01*
G01*
X16047Y20463D02*
G03*
X16204Y20620I-0J157D01*
G01*
Y20927D02*
G03*
X16047Y21085I-157J0D01*
G01*
X15153Y21085D02*
G03*
X14996Y20927I0J-157D01*
G01*
X14996Y20620D02*
G03*
X15153Y20463I157J0D01*
G01*
X19097Y20463D02*
G03*
X19254Y20620I-0J157D01*
G01*
Y20927D02*
G03*
X19097Y21085I-157J0D01*
G01*
X18203Y21085D02*
G03*
X18046Y20927I0J-157D01*
G01*
X18046Y20620D02*
G03*
X18203Y20463I157J0D01*
G01*
X21941Y20463D02*
G03*
X22098Y20620I-0J157D01*
G01*
Y20927D02*
G03*
X21941Y21085I-157J0D01*
G01*
X21047Y21085D02*
G03*
X20890Y20927I0J-157D01*
G01*
X20890Y20620D02*
G03*
X21047Y20463I157J0D01*
G01*
X11139Y22027D02*
G03*
X11296Y21869I157J0D01*
G01*
X11604D02*
G03*
X11761Y22027I0J157D01*
G01*
X11761Y22921D02*
G03*
X11604Y23078I-157J-0D01*
G01*
X11296Y23078D02*
G03*
X11139Y22921I0J-157D01*
G01*
X14597Y20463D02*
G03*
X14754Y20620I-0J157D01*
G01*
Y20927D02*
G03*
X14597Y21085I-157J0D01*
G01*
X13703Y21085D02*
G03*
X13546Y20927I0J-157D01*
G01*
X13546Y20620D02*
G03*
X13703Y20463I157J0D01*
G01*
X13147Y20463D02*
G03*
X13304Y20620I-0J157D01*
G01*
Y20927D02*
G03*
X13147Y21085I-157J0D01*
G01*
X12253Y21085D02*
G03*
X12096Y20927I0J-157D01*
G01*
X12096Y20620D02*
G03*
X12253Y20463I157J0D01*
G01*
X10546Y22791D02*
G03*
X10388Y22948I-157J-0D01*
G01*
X10081D02*
G03*
X9924Y22791I0J-157D01*
G01*
X9924Y21897D02*
G03*
X10081Y21739I157J0D01*
G01*
X10388Y21739D02*
G03*
X10546Y21897I0J157D01*
G01*
X9224Y21897D02*
G03*
X9381Y21739I157J0D01*
G01*
X9688D02*
G03*
X9846Y21897I0J157D01*
G01*
X9846Y22791D02*
G03*
X9688Y22948I-157J-0D01*
G01*
X9381Y22948D02*
G03*
X9224Y22791I0J-157D01*
G01*
X5630Y9304D02*
G03*
X5473Y9462I-157J-0D01*
G01*
X5166D02*
G03*
X5008Y9304I0J-157D01*
G01*
X5008Y8410D02*
G03*
X5166Y8253I157J0D01*
G01*
X5473Y8253D02*
G03*
X5630Y8410I0J157D01*
G01*
X5008Y9910D02*
G03*
X5166Y9753I157J0D01*
G01*
X5473D02*
G03*
X5630Y9910I0J157D01*
G01*
X5630Y10804D02*
G03*
X5473Y10962I-157J-0D01*
G01*
X5166Y10962D02*
G03*
X5008Y10804I0J-157D01*
G01*
X6453Y9452D02*
G03*
X6296Y9294I0J-157D01*
G01*
Y8987D02*
G03*
X6453Y8830I157J-0D01*
G01*
X7347Y8830D02*
G03*
X7504Y8987I-0J157D01*
G01*
X7504Y9294D02*
G03*
X7347Y9452I-157J0D01*
G01*
X29139Y25504D02*
Y28555D01*
X34061D01*
Y25504D02*
Y28555D01*
X29139Y25504D02*
X34061D01*
X23247D02*
Y28555D01*
X28168D01*
Y25504D02*
Y28555D01*
X23247Y25504D02*
X28168D01*
X17539D02*
Y28555D01*
X22461D01*
Y25504D02*
Y28555D01*
X17539Y25504D02*
X22461D01*
X11639D02*
Y28555D01*
X16561D01*
Y25504D02*
Y28555D01*
X11639Y25504D02*
X16561D01*
X16768Y1044D02*
Y4095D01*
X11847Y1044D02*
X16768D01*
X11847D02*
Y4095D01*
X16768D01*
X22461Y1044D02*
Y4095D01*
X17539Y1044D02*
X22461D01*
X17539D02*
Y4095D01*
X22461D01*
X28161Y1044D02*
Y4095D01*
X23239Y1044D02*
X28161D01*
X23239D02*
Y4095D01*
X28161D01*
X34061Y1044D02*
Y4095D01*
X29139Y1044D02*
X34061D01*
X29139D02*
Y4095D01*
X34061D01*
X-6Y11839D02*
X3045D01*
X-6D02*
Y16761D01*
X3045D01*
Y11839D02*
Y16761D01*
X12611Y17659D02*
Y18106D01*
X11989Y16898D02*
X12611D01*
X11989Y18106D02*
X12611D01*
Y16898D02*
Y17344D01*
X11989Y17659D02*
Y18106D01*
Y16898D02*
Y17344D01*
X3489Y15103D02*
Y15393D01*
X3646Y16154D02*
X3954D01*
X3646Y14946D02*
X3954D01*
X3489Y15707D02*
Y15997D01*
X4111Y15707D02*
Y15997D01*
X4111Y15103D02*
Y15393D01*
X21861Y16657D02*
Y16947D01*
X21396Y15896D02*
X21704D01*
X21396Y17104D02*
X21704D01*
X21861Y16053D02*
Y16343D01*
X21239Y16053D02*
Y16343D01*
X21239Y16657D02*
Y16947D01*
Y14603D02*
Y14893D01*
X21396Y15654D02*
X21704D01*
X21396Y14446D02*
X21704D01*
X21239Y15207D02*
Y15497D01*
X21861Y15207D02*
Y15497D01*
X21861Y14603D02*
Y14893D01*
X14586Y12161D02*
X14876D01*
X15637Y11696D02*
Y12004D01*
X14429Y11696D02*
Y12004D01*
X15191Y12161D02*
X15480D01*
X15191Y11539D02*
X15480D01*
X14586Y11539D02*
X14876D01*
X13524Y17055D02*
Y17344D01*
X13681Y18106D02*
X13989D01*
X13681Y16898D02*
X13989D01*
X13524Y17659D02*
Y17949D01*
X14146Y17659D02*
Y17949D01*
X14146Y17055D02*
Y17344D01*
X13396Y17659D02*
Y18106D01*
X12774Y16897D02*
X13396D01*
X12774Y18106D02*
X13396D01*
Y16897D02*
Y17344D01*
X12774Y17659D02*
Y18106D01*
Y16897D02*
Y17344D01*
X753Y18361D02*
X1043D01*
X1804Y17896D02*
Y18204D01*
X596Y17896D02*
Y18204D01*
X1357Y18361D02*
X1647D01*
X1357Y17739D02*
X1647D01*
X753Y17739D02*
X1043D01*
X3551Y18703D02*
Y18993D01*
X3708Y19754D02*
X4015D01*
X3708Y18546D02*
X4015D01*
X3551Y19307D02*
Y19597D01*
X4173Y19307D02*
Y19597D01*
X4173Y18703D02*
Y18993D01*
X2768Y18703D02*
Y18993D01*
X2926Y19754D02*
X3233D01*
X2926Y18546D02*
X3233D01*
X2768Y19307D02*
Y19597D01*
X3390Y19307D02*
Y19597D01*
X3390Y18703D02*
Y18993D01*
X753Y19111D02*
X1043D01*
X1804Y18646D02*
Y18954D01*
X596Y18646D02*
Y18954D01*
X1357Y19111D02*
X1647D01*
X1357Y18489D02*
X1647D01*
X753Y18489D02*
X1043D01*
X2361Y10807D02*
Y11254D01*
X1739Y10046D02*
X2361D01*
X1739Y11254D02*
X2361D01*
Y10046D02*
Y10493D01*
X1739Y10807D02*
Y11254D01*
Y10046D02*
Y10493D01*
X989Y11172D02*
X1065Y11251D01*
X1535D02*
X1611Y11172D01*
Y10818D02*
Y11172D01*
X989Y10056D02*
X1611D01*
X1065Y11251D02*
X1535D01*
X1611Y10056D02*
Y10503D01*
X989Y10818D02*
Y11172D01*
Y10056D02*
Y10503D01*
X15756Y5039D02*
X16045D01*
X14994Y5196D02*
Y5504D01*
X16202Y5196D02*
Y5504D01*
X15151Y5039D02*
X15441D01*
X15151Y5661D02*
X15441D01*
X15756Y5661D02*
X16045D01*
X14456Y5039D02*
X14745D01*
X13694Y5196D02*
Y5504D01*
X14902Y5196D02*
Y5504D01*
X13851Y5039D02*
X14141D01*
X13851Y5661D02*
X14141D01*
X14456Y5661D02*
X14745D01*
X13156Y5039D02*
X13445D01*
X12394Y5196D02*
Y5504D01*
X13602Y5196D02*
Y5504D01*
X12551Y5039D02*
X12841D01*
X12551Y5661D02*
X12841D01*
X13156Y5661D02*
X13445D01*
X29671Y9700D02*
Y10700D01*
X33671D01*
X29671Y9700D02*
X33671D01*
Y10700D01*
X23767Y9700D02*
Y10700D01*
X27767D01*
X23767Y9700D02*
X27767D01*
Y10700D01*
X18017Y9700D02*
Y10700D01*
X22017D01*
X18017Y9700D02*
X22017D01*
Y10700D01*
X12169Y9700D02*
Y10700D01*
X16169D01*
X12169Y9700D02*
X16169D01*
Y10700D01*
X4289Y15103D02*
Y15393D01*
X4446Y16154D02*
X4754D01*
X4446Y14946D02*
X4754D01*
X4289Y15707D02*
Y15997D01*
X4911Y15707D02*
Y15997D01*
X4911Y15103D02*
Y15393D01*
X8391Y8830D02*
X8681D01*
X7630Y8987D02*
Y9294D01*
X8838Y8987D02*
Y9294D01*
X7787Y8830D02*
X8077D01*
X7787Y9452D02*
X8077D01*
X8391Y9452D02*
X8681D01*
X28637Y8325D02*
Y8614D01*
X28637Y7721D02*
Y8010D01*
X29259Y7721D02*
Y8010D01*
X28795Y8772D02*
X29102D01*
X28795Y7563D02*
X29102D01*
X29259Y8325D02*
Y8614D01*
Y6303D02*
Y6593D01*
X29259Y6907D02*
Y7197D01*
X28637Y6907D02*
Y7197D01*
X28795Y6146D02*
X29102D01*
X28795Y7354D02*
X29102D01*
X28637Y6303D02*
Y6593D01*
X22937Y8325D02*
Y8614D01*
X22937Y7721D02*
Y8010D01*
X23559Y7721D02*
Y8010D01*
X23095Y8772D02*
X23402D01*
X23095Y7563D02*
X23402D01*
X23559Y8325D02*
Y8614D01*
Y6303D02*
Y6593D01*
X23559Y6907D02*
Y7197D01*
X22937Y6907D02*
Y7197D01*
X23095Y6146D02*
X23402D01*
X23095Y7354D02*
X23402D01*
X22937Y6303D02*
Y6593D01*
X17759Y6303D02*
Y6593D01*
X17759Y6907D02*
Y7197D01*
X17137Y6907D02*
Y7197D01*
X17295Y6146D02*
X17602D01*
X17295Y7354D02*
X17602D01*
X17137Y6303D02*
Y6593D01*
Y8325D02*
Y8614D01*
X17137Y7721D02*
Y8010D01*
X17759Y7721D02*
Y8010D01*
X17295Y8772D02*
X17602D01*
X17295Y7563D02*
X17602D01*
X17759Y8325D02*
Y8614D01*
X11859Y6303D02*
Y6593D01*
X11859Y6907D02*
Y7197D01*
X11237Y6907D02*
Y7197D01*
X11395Y6146D02*
X11702D01*
X11395Y7354D02*
X11702D01*
X11237Y6303D02*
Y6593D01*
X4106Y11280D02*
X4396D01*
X4711Y11280D02*
X5000D01*
X4711Y11902D02*
X5000D01*
X3949Y11437D02*
Y11744D01*
X5157Y11437D02*
Y11744D01*
X4106Y11902D02*
X4396D01*
X10507Y14289D02*
X10797D01*
X9746Y14446D02*
Y14754D01*
X10954Y14446D02*
Y14754D01*
X9903Y14289D02*
X10193D01*
X9903Y14911D02*
X10193D01*
X10507Y14911D02*
X10797D01*
X3728Y9874D02*
Y10407D01*
X4672Y9874D02*
Y10407D01*
Y8793D02*
Y9326D01*
X3728Y8793D02*
X4672D01*
X3728Y10407D02*
X4672D01*
X3728Y8793D02*
Y9326D01*
X5689Y15103D02*
Y15393D01*
X5846Y16154D02*
X6154D01*
X5846Y14946D02*
X6154D01*
X5689Y15707D02*
Y15997D01*
X6311Y15707D02*
Y15997D01*
X6311Y15103D02*
Y15393D01*
X2435Y24024D02*
X3971D01*
X2435Y23276D02*
X3971D01*
Y24024D01*
X11859Y8325D02*
Y8614D01*
X11395Y7563D02*
X11702D01*
X11395Y8772D02*
X11702D01*
X11859Y7721D02*
Y8010D01*
X11237Y7721D02*
Y8010D01*
X11237Y8325D02*
Y8614D01*
X20218Y5082D02*
X20507D01*
X19456Y5239D02*
Y5546D01*
X20665Y5239D02*
Y5546D01*
X19614Y5082D02*
X19903D01*
X19614Y5704D02*
X19903D01*
X20218Y5704D02*
X20507D01*
X21575Y5082D02*
X21864D01*
X20813Y5239D02*
Y5546D01*
X22022Y5239D02*
Y5546D01*
X20971Y5082D02*
X21260D01*
X20971Y5704D02*
X21260D01*
X21575Y5704D02*
X21864D01*
X18856Y5082D02*
X19145D01*
X18094Y5239D02*
Y5546D01*
X19302Y5239D02*
Y5546D01*
X18251Y5082D02*
X18541D01*
X18251Y5704D02*
X18541D01*
X18856Y5704D02*
X19145D01*
X26006Y5082D02*
X26295D01*
X25244Y5239D02*
Y5546D01*
X26452Y5239D02*
Y5546D01*
X25401Y5082D02*
X25691D01*
X25401Y5704D02*
X25691D01*
X26006Y5704D02*
X26295D01*
X24702Y5082D02*
X24992D01*
X23941Y5239D02*
Y5546D01*
X25149Y5239D02*
Y5546D01*
X24098Y5082D02*
X24387D01*
X24098Y5704D02*
X24387D01*
X24702Y5704D02*
X24992D01*
X27374Y5082D02*
X27663D01*
X26612Y5239D02*
Y5546D01*
X27821Y5239D02*
Y5546D01*
X26770Y5082D02*
X27059D01*
X26770Y5704D02*
X27059D01*
X27374Y5704D02*
X27663D01*
X31956Y5082D02*
X32245D01*
X31194Y5239D02*
Y5546D01*
X32402Y5239D02*
Y5546D01*
X31351Y5082D02*
X31641D01*
X31351Y5704D02*
X31641D01*
X31956Y5704D02*
X32245D01*
X30506Y5082D02*
X30795D01*
X29744Y5239D02*
Y5546D01*
X30952Y5239D02*
Y5546D01*
X29901Y5082D02*
X30191D01*
X29901Y5704D02*
X30191D01*
X30506Y5704D02*
X30795D01*
X33356Y5082D02*
X33645D01*
X32594Y5239D02*
Y5546D01*
X33802Y5239D02*
Y5546D01*
X32751Y5082D02*
X33041D01*
X32751Y5704D02*
X33041D01*
X33356Y5704D02*
X33645D01*
X33257Y20463D02*
X33547D01*
X32496Y20620D02*
Y20927D01*
X33704Y20620D02*
Y20927D01*
X32653Y20463D02*
X32943D01*
X32653Y21085D02*
X32943D01*
X33257Y21085D02*
X33547D01*
X31807Y20463D02*
X32097D01*
X31046Y20620D02*
Y20927D01*
X32254Y20620D02*
Y20927D01*
X31203Y20463D02*
X31493D01*
X31203Y21085D02*
X31493D01*
X31807Y21085D02*
X32097D01*
X26029Y20463D02*
X26319D01*
X25267Y20620D02*
Y20927D01*
X26476Y20620D02*
Y20927D01*
X25425Y20463D02*
X25714D01*
X25425Y21085D02*
X25714D01*
X26029Y21085D02*
X26319D01*
X17089Y22027D02*
Y22316D01*
X17246Y23078D02*
X17554D01*
X17246Y21869D02*
X17554D01*
X17089Y22631D02*
Y22921D01*
X17711Y22631D02*
Y22921D01*
X17711Y22027D02*
Y22316D01*
Y24181D02*
Y24471D01*
X17246Y23419D02*
X17554D01*
X17246Y24628D02*
X17554D01*
X17711Y23577D02*
Y23866D01*
X17089Y23577D02*
Y23866D01*
X17089Y24181D02*
Y24471D01*
X11761Y24181D02*
Y24471D01*
X11296Y23419D02*
X11604D01*
X11296Y24628D02*
X11604D01*
X11761Y23577D02*
Y23866D01*
X11139Y23577D02*
Y23866D01*
X11139Y24181D02*
Y24471D01*
X4711Y12633D02*
X5157D01*
X3949D02*
Y13255D01*
X5157Y12633D02*
Y13255D01*
X3949Y12633D02*
X4396D01*
X4711Y13255D02*
X5157D01*
X3949D02*
X4396D01*
X23719Y18549D02*
Y19549D01*
X27719D01*
X23719Y18549D02*
X27719D01*
Y19549D01*
X29622Y18549D02*
Y19549D01*
X33622D01*
X29622Y18549D02*
X33622D01*
Y19549D01*
X17969Y18549D02*
Y19549D01*
X21969D01*
X17969Y18549D02*
X21969D01*
Y19549D01*
X12119Y18549D02*
Y19549D01*
X16119D01*
X12119Y18549D02*
X16119D01*
Y19549D01*
X2746Y22961D02*
X3193D01*
X3507D02*
X3954D01*
X2746Y22339D02*
X3193D01*
X3954D02*
Y22961D01*
X2746Y22339D02*
Y22961D01*
X3507Y22339D02*
X3954D01*
X8457Y27236D02*
X8747D01*
X7853Y27236D02*
X8143D01*
X7853Y26614D02*
X8143D01*
X8904Y26771D02*
Y27079D01*
X7696Y26771D02*
Y27079D01*
X8457Y26614D02*
X8747D01*
X28589Y24181D02*
Y24471D01*
X28589Y23577D02*
Y23866D01*
X29211Y23577D02*
Y23866D01*
X28746Y24628D02*
X29054D01*
X28746Y23419D02*
X29054D01*
X29211Y24181D02*
Y24471D01*
X20207Y21085D02*
X20497D01*
X19603Y21085D02*
X19893D01*
X19603Y20463D02*
X19893D01*
X20654Y20620D02*
Y20927D01*
X19446Y20620D02*
Y20927D01*
X20207Y20463D02*
X20497D01*
X23511Y22027D02*
Y22316D01*
X23511Y22631D02*
Y22921D01*
X22889Y22631D02*
Y22921D01*
X23046Y21869D02*
X23354D01*
X23046Y23078D02*
X23354D01*
X22889Y22027D02*
Y22316D01*
Y24181D02*
Y24471D01*
X22889Y23577D02*
Y23866D01*
X23511Y23577D02*
Y23866D01*
X23046Y24628D02*
X23354D01*
X23046Y23419D02*
X23354D01*
X23511Y24181D02*
Y24471D01*
X30407Y21085D02*
X30697D01*
X29803Y21085D02*
X30093D01*
X29803Y20463D02*
X30093D01*
X30854Y20620D02*
Y20927D01*
X29646Y20620D02*
Y20927D01*
X30407Y20463D02*
X30697D01*
X29211Y22027D02*
Y22316D01*
X29211Y22631D02*
Y22921D01*
X28589Y22631D02*
Y22921D01*
X28746Y21869D02*
X29054D01*
X28746Y23078D02*
X29054D01*
X28589Y22027D02*
Y22316D01*
X27429Y21085D02*
X27719D01*
X26825Y21085D02*
X27114D01*
X26825Y20463D02*
X27114D01*
X27876Y20620D02*
Y20927D01*
X26667Y20620D02*
Y20927D01*
X27429Y20463D02*
X27719D01*
X24629Y21085D02*
X24919D01*
X24025Y21085D02*
X24314D01*
X24025Y20463D02*
X24314D01*
X25076Y20620D02*
Y20927D01*
X23867Y20620D02*
Y20927D01*
X24629Y20463D02*
X24919D01*
X15757Y21085D02*
X16047D01*
X15153Y21085D02*
X15443D01*
X15153Y20463D02*
X15443D01*
X16204Y20620D02*
Y20927D01*
X14996Y20620D02*
Y20927D01*
X15757Y20463D02*
X16047D01*
X18807Y21085D02*
X19097D01*
X18203Y21085D02*
X18493D01*
X18203Y20463D02*
X18493D01*
X19254Y20620D02*
Y20927D01*
X18046Y20620D02*
Y20927D01*
X18807Y20463D02*
X19097D01*
X21652Y21085D02*
X21941D01*
X21047Y21085D02*
X21337D01*
X21047Y20463D02*
X21337D01*
X22098Y20620D02*
Y20927D01*
X20890Y20620D02*
Y20927D01*
X21652Y20463D02*
X21941D01*
X11761Y22027D02*
Y22316D01*
X11761Y22631D02*
Y22921D01*
X11139Y22631D02*
Y22921D01*
X11296Y21869D02*
X11604D01*
X11296Y23078D02*
X11604D01*
X11139Y22027D02*
Y22316D01*
X14307Y21085D02*
X14597D01*
X13703Y21085D02*
X13993D01*
X13703Y20463D02*
X13993D01*
X14754Y20620D02*
Y20927D01*
X13546Y20620D02*
Y20927D01*
X14307Y20463D02*
X14597D01*
X12857Y21085D02*
X13147D01*
X12253Y21085D02*
X12543D01*
X12253Y20463D02*
X12543D01*
X13304Y20620D02*
Y20927D01*
X12096Y20620D02*
Y20927D01*
X12857Y20463D02*
X13147D01*
X6704Y11608D02*
X8870D01*
X6704Y13773D02*
X8870D01*
X6704Y11608D02*
Y13773D01*
X8870Y11608D02*
Y13773D01*
X9924Y22501D02*
Y22791D01*
X9924Y21897D02*
Y22186D01*
X10546Y21897D02*
Y22186D01*
X10081Y22948D02*
X10388D01*
X10081Y21739D02*
X10388D01*
X10546Y22501D02*
Y22791D01*
X9846Y21897D02*
Y22186D01*
X9846Y22501D02*
Y22791D01*
X9224Y22501D02*
Y22791D01*
X9381Y21739D02*
X9688D01*
X9381Y22948D02*
X9688D01*
X9224Y21897D02*
Y22186D01*
X7841Y20780D02*
X8288D01*
X7080D02*
X7527D01*
X7841Y21402D02*
X8288D01*
X7080Y20780D02*
Y21402D01*
X8288Y20780D02*
Y21402D01*
X7080D02*
X7527D01*
X7080Y20009D02*
X7527D01*
X7841D02*
X8288D01*
X7080Y19387D02*
X7527D01*
X8288D02*
Y20009D01*
X7080Y19387D02*
Y20009D01*
X7841Y19387D02*
X8288D01*
X5969Y22259D02*
X6205D01*
X5969Y20545D02*
X6205D01*
X7841Y22203D02*
X8288D01*
X7080D02*
X7527D01*
X7841Y22825D02*
X8288D01*
X7080Y22203D02*
Y22825D01*
X8288Y22203D02*
Y22825D01*
X7080D02*
X7527D01*
X5008Y9015D02*
Y9304D01*
X5008Y8410D02*
Y8700D01*
X5630Y8410D02*
Y8700D01*
X5166Y9462D02*
X5473D01*
X5166Y8253D02*
X5473D01*
X5630Y9015D02*
Y9304D01*
Y9910D02*
Y10200D01*
X5630Y10515D02*
Y10804D01*
X5008Y10515D02*
Y10804D01*
X5166Y9753D02*
X5473D01*
X5166Y10962D02*
X5473D01*
X5008Y9910D02*
Y10200D01*
X6453Y8830D02*
X6743D01*
X7057Y8830D02*
X7347D01*
X7057Y9452D02*
X7347D01*
X6296Y8987D02*
Y9294D01*
X7504Y8987D02*
Y9294D01*
X6453Y9452D02*
X6743D01*
X7711Y6030D02*
X8157D01*
X6949D02*
X7396D01*
X7711Y6652D02*
X8157D01*
X6949Y6030D02*
Y6652D01*
X8157Y6030D02*
Y6652D01*
X6949D02*
X7396D01*
X5387Y18491D02*
X10387D01*
Y16491D02*
Y18491D01*
X5387Y16491D02*
X10387D01*
X5387D02*
Y18491D01*
D11*
X24225Y15052D02*
G03*
X24225Y15052I-59J0D01*
G01*
X9863Y25856D02*
G03*
X9863Y25856I-59J0D01*
G01*
X6864Y6878D02*
G03*
X6864Y6878I-59J0D01*
G01*
X29607Y6490D02*
G03*
X29607Y6490I-59J0D01*
G01*
X29907Y7237D02*
G03*
X29907Y7237I-59J0D01*
G01*
X23854Y6490D02*
G03*
X23854Y6490I-59J0D01*
G01*
X24154Y7237D02*
G03*
X24154Y7237I-59J0D01*
G01*
X18105Y6490D02*
G03*
X18105Y6490I-59J0D01*
G01*
X18405Y7237D02*
G03*
X18405Y7237I-59J0D01*
G01*
X12305Y6465D02*
G03*
X12305Y6465I-59J0D01*
G01*
X12605Y7212D02*
G03*
X12605Y7212I-59J0D01*
G01*
X29760Y22049D02*
G03*
X29760Y22049I-59J0D01*
G01*
X30060Y22796D02*
G03*
X30060Y22796I-59J0D01*
G01*
X23856Y22049D02*
G03*
X23856Y22049I-59J0D01*
G01*
X24156Y22796D02*
G03*
X24156Y22796I-59J0D01*
G01*
X12159Y22049D02*
G03*
X12159Y22049I-59J0D01*
G01*
X12459Y22796D02*
G03*
X12459Y22796I-59J0D01*
G01*
X18107Y22049D02*
G03*
X18107Y22049I-59J0D01*
G01*
X18407Y22796D02*
G03*
X18407Y22796I-59J0D01*
G01*
X15025Y13208D02*
G03*
X15025Y13208I-59J0D01*
G01*
X14797Y12606D02*
G03*
X14797Y12606I-59J0D01*
G01*
D12*
X9509Y24990D02*
G03*
X9509Y24990I-79J0D01*
G01*
D13*
X882Y6113D02*
G03*
X882Y6113I-142J0D01*
G01*
Y7687D02*
G03*
X882Y7687I-142J0D01*
G01*
X2457D02*
G03*
X2457Y7687I-142J0D01*
G01*
Y6113D02*
G03*
X2457Y6113I-142J0D01*
G01*
X2079Y6900D02*
G03*
X2079Y6900I-551J0D01*
G01*
X323Y24425D02*
X915D01*
X1887D02*
X2587D01*
X331Y27575D02*
X915D01*
X1887D02*
X2587D01*
Y27317D02*
Y27575D01*
Y24425D02*
Y24683D01*
X371Y27563D02*
X603Y27331D01*
X331Y27563D02*
X371D01*
Y24433D02*
X603Y24665D01*
X323Y24433D02*
X371D01*
X603Y24665D02*
Y27331D01*
X323Y24425D02*
Y27575D01*
X5778Y25265D02*
X9696D01*
X5778Y24163D02*
X9696D01*
Y25265D01*
X5778Y24163D02*
Y25265D01*
X2709Y5719D02*
Y8081D01*
X347Y5719D02*
Y8081D01*
X2692Y8081D02*
X2709D01*
X921D02*
X2135D01*
X347D02*
X363D01*
X2692Y5719D02*
X2709D01*
X921D02*
X2135D01*
X347D02*
X363D01*
X6402Y21649D02*
X6662D01*
Y21970D01*
X5512Y21649D02*
Y21970D01*
Y21649D02*
X5772D01*
X5512D02*
X5772D01*
X5512D02*
X5772D01*
X6402Y19935D02*
X6662D01*
Y20256D01*
X5512Y19935D02*
Y20256D01*
Y19935D02*
X5772D01*
X5512D02*
X5772D01*
X5512D02*
X5772D01*
X1067Y17324D02*
X1000Y17390D01*
X867D01*
X800Y17324D01*
Y17257D01*
X867Y17190D01*
X1000D01*
X1067Y17124D01*
Y17057D01*
X1000Y16991D01*
X867D01*
X800Y17057D01*
X1200Y17390D02*
Y16991D01*
X1333Y17124D01*
X1466Y16991D01*
Y17390D01*
X1600D02*
Y16991D01*
X1800D01*
X1866Y17057D01*
Y17324D01*
X1800Y17390D01*
X1600D01*
X32972Y4750D02*
Y4483D01*
X33105Y4350D01*
X33238Y4483D01*
Y4750D01*
X30317Y4683D02*
X30250Y4750D01*
X30117D01*
X30050Y4683D01*
Y4417D01*
X30117Y4350D01*
X30250D01*
X30317Y4417D01*
Y4550D01*
X30183D01*
X30965Y4750D02*
X31231D01*
X31098D01*
Y4350D01*
X32042D02*
Y4750D01*
X32242D01*
X32309Y4683D01*
Y4550D01*
X32242Y4483D01*
X32042D01*
X32175D02*
X32309Y4350D01*
X27017Y4750D02*
Y4483D01*
X27150Y4350D01*
X27284Y4483D01*
Y4750D01*
X24362Y4683D02*
X24295Y4750D01*
X24162D01*
X24095Y4683D01*
Y4417D01*
X24162Y4350D01*
X24295D01*
X24362Y4417D01*
Y4550D01*
X24229D01*
X25010Y4750D02*
X25276D01*
X25143D01*
Y4350D01*
X26088D02*
Y4750D01*
X26287D01*
X26354Y4683D01*
Y4550D01*
X26287Y4483D01*
X26088D01*
X26221D02*
X26354Y4350D01*
X21322Y4750D02*
Y4483D01*
X21455Y4350D01*
X21588Y4483D01*
Y4750D01*
X18667Y4683D02*
X18600Y4750D01*
X18467D01*
X18400Y4683D01*
Y4417D01*
X18467Y4350D01*
X18600D01*
X18667Y4417D01*
Y4550D01*
X18533D01*
X19315Y4750D02*
X19581D01*
X19448D01*
Y4350D01*
X20392D02*
Y4750D01*
X20592D01*
X20659Y4683D01*
Y4550D01*
X20592Y4483D01*
X20392D01*
X20525D02*
X20659Y4350D01*
X30050Y9601D02*
Y9334D01*
X30183Y9201D01*
X30317Y9334D01*
Y9601D01*
X33300Y9534D02*
X33233Y9601D01*
X33100D01*
X33033Y9534D01*
Y9268D01*
X33100Y9201D01*
X33233D01*
X33300Y9268D01*
Y9401D01*
X33167D01*
X31999Y9601D02*
X32265D01*
X32132D01*
Y9201D01*
X30999D02*
Y9601D01*
X31199D01*
X31265Y9534D01*
Y9401D01*
X31199Y9334D01*
X30999D01*
X31132D02*
X31265Y9201D01*
X24150Y9601D02*
Y9334D01*
X24283Y9201D01*
X24417Y9334D01*
Y9601D01*
X27400Y9534D02*
X27333Y9601D01*
X27200D01*
X27133Y9534D01*
Y9268D01*
X27200Y9201D01*
X27333D01*
X27400Y9268D01*
Y9401D01*
X27267D01*
X26099Y9601D02*
X26365D01*
X26232D01*
Y9201D01*
X25099D02*
Y9601D01*
X25299D01*
X25365Y9534D01*
Y9401D01*
X25299Y9334D01*
X25099D01*
X25232D02*
X25365Y9201D01*
X18350Y9601D02*
Y9334D01*
X18483Y9201D01*
X18617Y9334D01*
Y9601D01*
X21600Y9534D02*
X21533Y9601D01*
X21400D01*
X21333Y9534D01*
Y9268D01*
X21400Y9201D01*
X21533D01*
X21600Y9268D01*
Y9401D01*
X21467D01*
X20299Y9601D02*
X20565D01*
X20432D01*
Y9201D01*
X19299D02*
Y9601D01*
X19499D01*
X19565Y9534D01*
Y9401D01*
X19499Y9334D01*
X19299D01*
X19432D02*
X19565Y9201D01*
X12551Y9601D02*
Y9334D01*
X12685Y9201D01*
X12818Y9334D01*
Y9601D01*
X15801Y9534D02*
X15735Y9601D01*
X15601D01*
X15535Y9534D01*
Y9268D01*
X15601Y9201D01*
X15735D01*
X15801Y9268D01*
Y9401D01*
X15668D01*
X14500Y9601D02*
X14767D01*
X14633D01*
Y9201D01*
X13500D02*
Y9601D01*
X13700D01*
X13767Y9534D01*
Y9401D01*
X13700Y9334D01*
X13500D01*
X13633D02*
X13767Y9201D01*
X12459Y20100D02*
Y19833D01*
X12592Y19700D01*
X12726Y19833D01*
Y20100D01*
X15709Y20033D02*
X15642Y20100D01*
X15509D01*
X15443Y20033D01*
Y19767D01*
X15509Y19700D01*
X15642D01*
X15709Y19767D01*
Y19900D01*
X15576D01*
X14408Y20100D02*
X14674D01*
X14541D01*
Y19700D01*
X13408D02*
Y20100D01*
X13608D01*
X13674Y20033D01*
Y19900D01*
X13608Y19833D01*
X13408D01*
X13541D02*
X13674Y19700D01*
X18350Y20100D02*
Y19833D01*
X18483Y19700D01*
X18617Y19833D01*
Y20100D01*
X21600Y20033D02*
X21533Y20100D01*
X21400D01*
X21333Y20033D01*
Y19767D01*
X21400Y19700D01*
X21533D01*
X21600Y19767D01*
Y19900D01*
X21467D01*
X20299Y20100D02*
X20565D01*
X20432D01*
Y19700D01*
X19299D02*
Y20100D01*
X19499D01*
X19565Y20033D01*
Y19900D01*
X19499Y19833D01*
X19299D01*
X19432D02*
X19565Y19700D01*
X24097Y20100D02*
Y19833D01*
X24231Y19700D01*
X24364Y19833D01*
Y20100D01*
X27347Y20033D02*
X27281Y20100D01*
X27147D01*
X27081Y20033D01*
Y19767D01*
X27147Y19700D01*
X27281D01*
X27347Y19767D01*
Y19900D01*
X27214D01*
X26046Y20100D02*
X26313D01*
X26179D01*
Y19700D01*
X25046D02*
Y20100D01*
X25246D01*
X25313Y20033D01*
Y19900D01*
X25246Y19833D01*
X25046D01*
X25179D02*
X25313Y19700D01*
X30950D02*
Y20100D01*
X31150D01*
X31217Y20033D01*
Y19900D01*
X31150Y19833D01*
X30950D01*
X31083D02*
X31217Y19700D01*
X31950Y20100D02*
X32217D01*
X32083D01*
Y19700D01*
X33251Y20033D02*
X33185Y20100D01*
X33051D01*
X32985Y20033D01*
Y19767D01*
X33051Y19700D01*
X33185D01*
X33251Y19767D01*
Y19900D01*
X33118D01*
X30001Y20100D02*
Y19833D01*
X30135Y19700D01*
X30268Y19833D01*
Y20100D01*
X32126Y24901D02*
Y25301D01*
X32326D01*
X32393Y25234D01*
Y25101D01*
X32326Y25034D01*
X32126D01*
X32259D02*
X32393Y24901D01*
X31081Y25301D02*
X31348D01*
X31214D01*
Y24901D01*
X33343Y25234D02*
X33276Y25301D01*
X33143D01*
X33076Y25234D01*
Y24968D01*
X33143Y24901D01*
X33276D01*
X33343Y24968D01*
Y25101D01*
X33209D01*
X30093Y25301D02*
Y25034D01*
X30226Y24901D01*
X30359Y25034D01*
Y25301D01*
X26233Y24901D02*
Y25301D01*
X26433D01*
X26500Y25234D01*
Y25101D01*
X26433Y25034D01*
X26233D01*
X26367D02*
X26500Y24901D01*
X25189Y25301D02*
X25455D01*
X25322D01*
Y24901D01*
X27450Y25234D02*
X27383Y25301D01*
X27250D01*
X27183Y25234D01*
Y24968D01*
X27250Y24901D01*
X27383D01*
X27450Y24968D01*
Y25101D01*
X27317D01*
X24200Y25301D02*
Y25034D01*
X24333Y24901D01*
X24467Y25034D01*
Y25301D01*
X20480Y24901D02*
Y25301D01*
X20680D01*
X20747Y25234D01*
Y25101D01*
X20680Y25034D01*
X20480D01*
X20614D02*
X20747Y24901D01*
X19436Y25301D02*
X19702D01*
X19569D01*
Y24901D01*
X21697Y25234D02*
X21630Y25301D01*
X21497D01*
X21430Y25234D01*
Y24968D01*
X21497Y24901D01*
X21630D01*
X21697Y24968D01*
Y25101D01*
X21564D01*
X18447Y25301D02*
Y25034D01*
X18580Y24901D01*
X18714Y25034D01*
Y25301D01*
X13667Y733D02*
X13600Y800D01*
X13467D01*
X13400Y733D01*
Y467D01*
X13467Y400D01*
X13600D01*
X13667Y467D01*
X14000Y800D02*
X13867D01*
X13800Y733D01*
Y467D01*
X13867Y400D01*
X14000D01*
X14066Y467D01*
Y733D01*
X14000Y800D01*
X14200Y400D02*
Y800D01*
X14333Y667D01*
X14466Y800D01*
Y400D01*
X14600Y800D02*
X14866D01*
Y733D01*
X14600Y467D01*
Y400D01*
X19567Y733D02*
X19500Y800D01*
X19367D01*
X19300Y733D01*
Y467D01*
X19367Y400D01*
X19500D01*
X19567Y467D01*
X19900Y800D02*
X19767D01*
X19700Y733D01*
Y467D01*
X19767Y400D01*
X19900D01*
X19966Y467D01*
Y733D01*
X19900Y800D01*
X20100Y400D02*
Y800D01*
X20233Y667D01*
X20366Y800D01*
Y400D01*
X20766Y800D02*
X20633Y733D01*
X20500Y600D01*
Y467D01*
X20566Y400D01*
X20700D01*
X20766Y467D01*
Y533D01*
X20700Y600D01*
X20500D01*
X25267Y733D02*
X25200Y800D01*
X25067D01*
X25000Y733D01*
Y467D01*
X25067Y400D01*
X25200D01*
X25267Y467D01*
X25600Y800D02*
X25467D01*
X25400Y733D01*
Y467D01*
X25467Y400D01*
X25600D01*
X25666Y467D01*
Y733D01*
X25600Y800D01*
X25800Y400D02*
Y800D01*
X25933Y667D01*
X26066Y800D01*
Y400D01*
X26466Y800D02*
X26200D01*
Y600D01*
X26333Y667D01*
X26400D01*
X26466Y600D01*
Y467D01*
X26400Y400D01*
X26266D01*
X26200Y467D01*
X31312Y733D02*
X31246Y800D01*
X31112D01*
X31046Y733D01*
Y467D01*
X31112Y400D01*
X31246D01*
X31312Y467D01*
X31645Y800D02*
X31512D01*
X31446Y733D01*
Y467D01*
X31512Y400D01*
X31645D01*
X31712Y467D01*
Y733D01*
X31645Y800D01*
X31845Y400D02*
Y800D01*
X31979Y667D01*
X32112Y800D01*
Y400D01*
X32445D02*
Y800D01*
X32245Y600D01*
X32512D01*
X31312Y29183D02*
X31246Y29250D01*
X31112D01*
X31046Y29183D01*
Y28917D01*
X31112Y28850D01*
X31246D01*
X31312Y28917D01*
X31645Y29250D02*
X31512D01*
X31446Y29183D01*
Y28917D01*
X31512Y28850D01*
X31645D01*
X31712Y28917D01*
Y29183D01*
X31645Y29250D01*
X31845Y28850D02*
Y29250D01*
X31979Y29117D01*
X32112Y29250D01*
Y28850D01*
X32245Y29183D02*
X32312Y29250D01*
X32445D01*
X32512Y29183D01*
Y29117D01*
X32445Y29050D01*
X32379D01*
X32445D01*
X32512Y28983D01*
Y28917D01*
X32445Y28850D01*
X32312D01*
X32245Y28917D01*
X25267Y29183D02*
X25200Y29250D01*
X25067D01*
X25000Y29183D01*
Y28917D01*
X25067Y28850D01*
X25200D01*
X25267Y28917D01*
X25600Y29250D02*
X25467D01*
X25400Y29183D01*
Y28917D01*
X25467Y28850D01*
X25600D01*
X25666Y28917D01*
Y29183D01*
X25600Y29250D01*
X25800Y28850D02*
Y29250D01*
X25933Y29117D01*
X26066Y29250D01*
Y28850D01*
X26466D02*
X26200D01*
X26466Y29117D01*
Y29183D01*
X26400Y29250D01*
X26266D01*
X26200Y29183D01*
X19567D02*
X19500Y29250D01*
X19367D01*
X19300Y29183D01*
Y28917D01*
X19367Y28850D01*
X19500D01*
X19567Y28917D01*
X19900Y29250D02*
X19767D01*
X19700Y29183D01*
Y28917D01*
X19767Y28850D01*
X19900D01*
X19966Y28917D01*
Y29183D01*
X19900Y29250D01*
X20100Y28850D02*
Y29250D01*
X20233Y29117D01*
X20366Y29250D01*
Y28850D01*
X20500D02*
X20633D01*
X20566D01*
Y29250D01*
X20500Y29183D01*
X13667D02*
X13600Y29250D01*
X13467D01*
X13400Y29183D01*
Y28917D01*
X13467Y28850D01*
X13600D01*
X13667Y28917D01*
X14000Y29250D02*
X13867D01*
X13800Y29183D01*
Y28917D01*
X13867Y28850D01*
X14000D01*
X14066Y28917D01*
Y29183D01*
X14000Y29250D01*
X14200Y28850D02*
Y29250D01*
X14333Y29117D01*
X14466Y29250D01*
Y28850D01*
X14600Y29183D02*
X14666Y29250D01*
X14800D01*
X14866Y29183D01*
Y28917D01*
X14800Y28850D01*
X14666D01*
X14600Y28917D01*
Y29183D01*
X12517Y25301D02*
Y25034D01*
X12650Y24901D01*
X12783Y25034D01*
Y25301D01*
X15767Y25234D02*
X15700Y25301D01*
X15567D01*
X15500Y25234D01*
Y24968D01*
X15567Y24901D01*
X15700D01*
X15767Y24968D01*
Y25101D01*
X15633D01*
X13505Y25301D02*
X13772D01*
X13638D01*
Y24901D01*
X14550D02*
Y25301D01*
X14750D01*
X14817Y25234D01*
Y25101D01*
X14750Y25034D01*
X14550D01*
X14683D02*
X14817Y24901D01*
X14718Y4350D02*
Y4750D01*
X14918D01*
X14985Y4683D01*
Y4550D01*
X14918Y4483D01*
X14718D01*
X14852D02*
X14985Y4350D01*
X13641Y4750D02*
X13907D01*
X13774D01*
Y4350D01*
X12993Y4683D02*
X12926Y4750D01*
X12793D01*
X12726Y4683D01*
Y4417D01*
X12793Y4350D01*
X12926D01*
X12993Y4417D01*
Y4550D01*
X12860D01*
X15648Y4750D02*
Y4483D01*
X15781Y4350D01*
X15915Y4483D01*
Y4750D01*
D14*
X6478Y11096D02*
G03*
X6478Y11096I-49J0D01*
G01*
D15*
X7216Y12002D02*
G03*
X7216Y12002I-118J0D01*
G01*
D16*
X22631Y14973D02*
Y16627D01*
X23969D01*
X22631Y14973D02*
X23969D01*
Y16627D01*
X6726Y7074D02*
X8380D01*
X6726D02*
Y8413D01*
X8380Y7074D02*
Y8413D01*
X6726D02*
X8380D01*
D17*
X597Y20596D02*
Y21640D01*
X1050D01*
X2429Y20596D02*
Y21640D01*
X1977D02*
X2429D01*
X29619Y6941D02*
X33577D01*
Y8139D01*
X29619D02*
X33577D01*
X29619Y6941D02*
Y8139D01*
X23867Y6941D02*
X27824D01*
Y8139D01*
X23867D02*
X27824D01*
X23867Y6941D02*
Y8139D01*
X18117Y6941D02*
X22075D01*
Y8139D01*
X18117D02*
X22075D01*
X18117Y6941D02*
Y8139D01*
X12317Y6916D02*
X16274D01*
Y8114D01*
X12317D02*
X16274D01*
X12317Y6916D02*
Y8114D01*
X29772Y22500D02*
X33730D01*
Y23698D01*
X29772D02*
X33730D01*
X29772Y22500D02*
Y23698D01*
X23868Y22500D02*
X27826D01*
Y23698D01*
X23868D02*
X27826D01*
X23868Y22500D02*
Y23698D01*
X12171Y22500D02*
X16129D01*
Y23698D01*
X12171D02*
X16129D01*
X12171Y22500D02*
Y23698D01*
X18119Y22500D02*
X22077D01*
Y23698D01*
X18119D02*
X22077D01*
X18119Y22500D02*
Y23698D01*
X14769Y13011D02*
X18447D01*
Y16689D01*
X14769D02*
X18447D01*
X14769Y13011D02*
Y16689D01*
X18340Y12852D02*
X18606D01*
Y13118D01*
X14609Y12852D02*
X14875D01*
X14609D02*
Y13118D01*
X18340Y16848D02*
X18606D01*
Y16582D02*
Y16848D01*
X14609D02*
X14875D01*
X14609Y16582D02*
Y16848D01*
D18*
X1300Y11379D02*
D03*
D19*
X2554Y23650D02*
D03*
D20*
X0Y29600D02*
X36000D01*
Y0D02*
Y29600D01*
X0Y0D02*
X36000D01*
X0Y50D02*
Y29600D01*
Y50D02*
X50Y0D01*
M02*
