G04*
G04 #@! TF.GenerationSoftware,Altium Limited,Altium Designer,18.1.9 (240)*
G04*
G04 Layer_Color=128*
%FSLAX24Y24*%
%MOIN*%
G70*
G01*
G75*
%ADD20C,0.0200*%
%ADD22R,0.0386X0.0366*%
%ADD24R,0.0366X0.0386*%
D20*
X0Y29600D02*
X36000D01*
Y0D02*
Y29600D01*
X0Y0D02*
X36000D01*
X0Y50D02*
Y29600D01*
Y50D02*
X50Y0D01*
D22*
X9597Y8347D02*
D03*
Y8953D02*
D03*
X10297D02*
D03*
Y8347D02*
D03*
X22696Y2393D02*
D03*
Y1787D02*
D03*
X23248Y9500D02*
D03*
Y10106D02*
D03*
X3550Y9397D02*
D03*
Y10003D02*
D03*
X28898Y9647D02*
D03*
Y10253D02*
D03*
X11748Y9953D02*
D03*
Y9347D02*
D03*
X11500Y19149D02*
D03*
Y19755D02*
D03*
X17448Y9357D02*
D03*
Y9964D02*
D03*
X17317Y1787D02*
D03*
Y2393D02*
D03*
X17450Y26321D02*
D03*
Y26928D02*
D03*
X17400Y19149D02*
D03*
Y19755D02*
D03*
X11498Y1787D02*
D03*
Y2393D02*
D03*
X23200Y19149D02*
D03*
Y19755D02*
D03*
X28546Y1787D02*
D03*
Y2393D02*
D03*
X4537Y9437D02*
D03*
Y10044D02*
D03*
X28950Y27102D02*
D03*
Y26496D02*
D03*
X23250Y27055D02*
D03*
Y26449D02*
D03*
X11550Y26952D02*
D03*
Y26346D02*
D03*
X28900Y19755D02*
D03*
Y19149D02*
D03*
D24*
X21053Y14550D02*
D03*
X20447D02*
D03*
X10250Y9737D02*
D03*
X9644D02*
D03*
X11653Y12550D02*
D03*
X11047D02*
D03*
M02*
